####
#
# OBJ File Generated by Meshlab
#
####
# Object 39929_sf_a_rotated.obj
#
# Vertices: 999
# Faces: 1990
#
####
v -40.0000000 39.6546326 -12.8780127
v -40.0000000 30.7146664 -17.3587494
v -40.0000000 26.2508678 -8.4525747
v -40.0000000 30.9250011 -5.7257051
v -40.0000000 21.7531948 0.5211847
v -40.0000000 12.3000937 -4.1922860
v -40.0000000 3.8732612 -8.4402876
v -40.0000000 1.8354301 -4.3418560
v -40.0000000 6.0457754 -0.9070001
v -40.0000000 7.4212008 4.5236735
v -40.0000000 17.2715874 9.4614363
v -40.0000000 -0.6071918 0.5005424
v -40.0000000 15.1195927 13.7565451
v -40.0000000 12.7914295 18.4002495
v -40.0000000 8.9871759 16.5352859
v -40.0000000 3.8517556 13.9203815
v -40.0000000 11.2407322 22.8369656
v -40.0000000 1.6057400 18.4016323
v -40.0000000 17.2509518 31.8218212
v -40.0000000 9.5664501 27.9703274
v -40.0000000 -0.6289806 22.8603477
v -34.9653664 29.1325893 8.1155748
v -35.6711006 12.7914295 18.4002495
v -35.5209694 30.7146664 -17.3587494
v -31.4757938 21.7530022 0.5206116
v -35.1411285 3.8732612 -8.4402876
v -35.0000000 6.7749867 -3.0709312
v -35.0000000 7.3554440 -2.5552273
v -35.0000000 6.0144444 -3.2273288
v -35.0000000 7.6002688 -1.8183682
v -35.0000000 5.2776031 -2.9824948
v -34.8957520 7.4438715 -1.0578258
v -34.9855461 4.7902775 -2.4340065
v 9.9999580 4.8271432 29.8314743
v -35.0000000 6.9281588 -0.4773732
v -35.0000000 4.6228781 -1.7260472
v -35.0000000 6.1913128 -0.2325525
v -35.0000000 4.8360171 -0.9476812
v -35.0000000 5.5967727 -0.3548045
v -35.0000000 5.1674285 -0.6229135
v -33.9389343 10.0324135 -5.3533034
v -34.9697609 -0.6071918 0.5005424
v 19.8617840 -0.3287968 56.5679741
v -34.6774216 -0.6289806 22.8603477
v -34.5469513 9.4205875 27.8972206
v -34.2137108 3.8517556 13.9203815
v -33.7151947 5.4206290 -0.3979510
v -33.1177406 1.9844083 -4.6713443
v -33.4501305 4.8228831 -0.9872097
v -33.1518250 7.5733476 -1.8993921
v -32.8073349 6.9804697 -0.5362518
v -32.2168465 7.4592600 -1.1326625
v -32.8557091 17.2592697 9.4857359
v -32.3938065 4.6054926 -1.6414998
v -33.5277939 6.0144444 -3.2273288
v -32.5544472 6.2149277 -0.2403985
v -32.2655792 5.2719402 -2.9761209
v -32.4173889 7.3275080 -2.5800471
v -31.2508011 4.8248277 -2.4728932
v -31.2289028 6.7641678 -3.0731561
v -31.3412151 5.5113091 -0.3723771
v 19.8387108 -2.8908544 49.6910019
v -30.0000000 39.6546326 -12.8780127
v -30.0000000 30.7146664 -17.3587494
v -30.0000000 26.7928944 -9.5340252
v -30.0000000 36.1205101 -5.8267307
v -30.0000000 31.1477776 -6.2899384
v -30.0000000 21.8977337 0.2327992
v -30.0000000 30.6931610 5.0019207
v -30.0000000 21.4648094 0.3766451
v -29.9999523 4.8955398 -4.6492176
v -29.9999104 9.2724466 -0.4212280
v -29.9998703 4.1613746 0.4842602
v -30.0000000 26.2124252 13.9418879
v -30.0000000 16.9840736 9.3166113
v -30.0000000 9.3193121 5.4750123
v -30.0432377 14.2867012 15.4182205
v -30.0000000 21.1907921 23.9610500
v -30.0000000 12.7914295 18.4002495
v -30.0000000 7.9965072 15.9977427
v -30.0000000 3.8517556 13.9203815
v -30.0000000 2.1737373 17.2683640
v -30.0000000 17.2509518 31.8218212
v -30.0000000 6.8927145 26.6302433
v -30.0000000 -0.6289806 22.8603477
v 10.0000000 2.6872633 35.7081833
v -29.9993591 24.8180695 2.0565932
v -29.9993591 3.8738334 -8.4400005
v -29.9993610 20.7400799 2.4992919
v -29.9994087 6.8140259 -3.0362475
v -30.0490665 7.2720714 -2.6292996
v -29.9993591 6.0144444 -3.2273288
v -29.9995785 7.5973320 -1.9185780
v -29.9993591 5.2776031 -2.9824948
v -29.9993591 7.4438715 -1.0578258
v -29.9993591 4.7618814 -2.4020467
v -29.9993591 6.9281588 -0.4773732
v -29.9993591 4.6054926 -1.6414998
v -29.9993591 0.9381027 -2.5826297
v -29.9993591 6.1913128 -0.2325525
v -29.9993591 4.8503089 -0.9046674
v -29.9993591 5.4307752 -0.3889368
v -29.9993591 -0.6069028 0.4999658
v -29.9823093 18.8683853 10.2748137
v -29.6774197 17.2724590 9.4611511
v -12.2019920 30.6931610 5.0019207
v -24.6023693 21.7216358 0.5053570
v -11.1924143 26.3359470 2.8180728
v -17.1332302 17.2724590 9.4611511
v -18.0649891 28.4567089 9.4640923
v -14.6824579 26.2124252 13.9418879
v 30.0000000 -11.1759768 45.7279701
v -0.0006447 26.2121353 13.9424639
v -0.0006447 17.2721691 9.4617281
v 0.0000000 39.6546326 -12.8780127
v 0.0000000 30.7146664 -17.3587494
v 0.0000000 35.9612923 -5.5090585
v 0.0000000 26.7364311 -9.4213724
v 0.0000000 30.6931610 5.0019207
v 0.0000000 21.7531948 0.5211847
v 0.0000000 14.8152800 14.3637133
v 0.0000000 21.7316875 22.8818531
v 0.0000000 17.0744915 20.5476532
v 0.0000000 12.7917223 18.4011173
v 5.7343016 22.6735020 -1.3150123
v 5.0403209 30.7146664 -17.3587494
v 5.2797389 39.6546326 -12.8780127
v 5.1223168 21.7316875 22.8818531
v 5.5589752 36.9532928 -7.4882941
v 9.9998465 1.7877976 24.0720024
v 9.9994106 -20.5335903 17.9399414
v 9.9993525 -22.9890785 22.8391304
v 10.0000000 39.6424217 -12.8536472
v 10.0000000 34.5132523 -15.4548874
v 9.9512281 30.7146664 -17.3587494
v 10.0000000 28.5578175 -1.1963295
v 10.0000000 29.1995296 7.9820132
v 10.0000000 20.2153625 3.5894682
v 10.0000000 21.7316875 22.8818531
v 10.0000000 12.7917223 18.4011173
v 10.0000000 17.2509518 31.8218212
v 10.0479937 -18.5086288 13.8997355
v 9.9999876 -15.5459814 22.4745636
v 10.0000000 12.7702160 40.7617874
v 10.0000000 -5.8103390 31.4491615
v 10.0000000 8.2894793 49.7017555
v -19.3214798 20.9952946 11.3270464
v 10.0000000 -0.6504864 45.2210197
v 10.0000000 3.8087435 58.6417198
v 10.0000000 -5.1312227 54.1609840
v 12.4748068 -21.5872784 20.0411682
v 17.4054909 12.7702160 40.7617874
v 26.8932705 3.8087437 58.6417198
v 26.4100266 17.2509518 31.8218212
v 13.4143190 -19.8388386 16.5529556
v 13.5000095 -7.3393321 25.0899639
v 13.5143070 -14.1598864 21.6117935
v 13.5222483 -19.9548130 18.8599052
v 13.4965277 -20.7680321 18.4076996
v 20.0000000 -5.1312227 54.1609840
v 13.7104053 -21.0644302 18.9990673
v 13.7009497 -7.6753783 25.7604427
v 13.6973724 -17.3956738 20.8736706
v 13.7009602 -7.0032811 24.4194756
v 13.7246008 -12.3873196 21.6945343
v 13.7120161 -19.5113144 18.1380482
v 13.6499748 -20.4539986 17.7811394
v 20.6542301 -0.6480220 45.2222519
v 14.0871582 -20.2151890 17.3046379
v 14.1935501 -21.3054771 19.4800091
v 14.3062716 -7.9642787 26.2466755
v 14.2241898 -14.2869596 23.0319920
v 14.2500200 -6.7572622 23.9286175
v 14.2500200 -13.3862562 20.6061478
v 15.3670702 -22.9789886 22.8449116
v 13.9909925 -12.9389563 16.6907406
v 14.6875000 -18.5086288 13.8997355
v 15.1045294 -7.3179908 25.0473843
v 14.7934551 -20.1013985 17.0776291
v 14.8290548 -21.4002991 19.6691971
v 15.0131464 -6.7102938 23.7313213
v 15.0000000 -9.7002573 22.2288036
v 15.0493221 -15.1657534 19.5042629
v 15.0968685 -19.2956085 17.4486198
v 15.0000000 -8.0114470 26.4309673
v 15.0800600 -9.3630114 25.7295628
v 15.0407228 -13.2817249 23.7772827
v 15.0164566 -20.3281002 20.2528934
v 15.2779245 -20.1099682 17.0947266
v 15.3583612 -21.3725014 19.6269531
v 14.6584167 -8.4704294 30.1159172
v -29.9996815 27.1834602 -2.1067994
v 15.7499905 -7.9213977 26.2513008
v 15.7021990 -11.1198950 24.6625309
v 15.7499905 -19.0339489 20.6816597
v 15.7500000 -6.7572665 23.9286270
v 15.7248249 -11.1063232 21.7413216
v 15.8283224 -19.2091141 17.7753334
v 15.8064404 -21.3054771 19.4800091
v 15.8661823 -20.1878777 17.2501450
v 16.3531742 -21.0499554 18.9701920
v 16.1185760 -20.3221397 17.5421581
v 16.3110943 -14.8239136 20.5500774
v 16.2897167 -11.3407965 23.8845882
v 16.2627163 -7.6708159 25.7513409
v 16.2264156 -19.9981899 19.6654472
v 16.3046227 -7.0126219 24.4381123
v 16.2990398 -8.7703257 23.5338383
v 16.3186722 -19.6549873 18.1603642
v 16.3703499 -20.5319004 17.9365673
v 16.4567909 -20.8026543 18.4767761
v 16.5000191 -7.3393321 25.0899639
v 16.4881763 -13.6386633 21.9821568
v 16.4756298 -20.0283813 18.8319817
v 16.1826210 -21.9668617 20.7982483
v 15.7862625 15.0610199 36.1911736
v 16.9171638 -19.8707657 16.6166496
v 20.1128311 8.2426281 49.6782532
v 20.0000000 8.3109856 27.3410854
v 20.0000000 -4.5842142 20.8781414
v 20.0000000 -18.5086288 13.8997355
v 20.0000000 -3.3552632 25.5098495
v 20.0000000 -14.9686766 23.8341656
v 20.0311241 3.8761415 36.3040504
v 20.0000000 -11.0604963 28.8177681
v 20.0000000 -22.9893684 22.8397102
v 20.0006218 -20.9646549 18.8362522
v 27.5513916 8.2931480 27.3766747
v 24.6365814 13.3943567 29.8888836
v 29.6774197 -0.6504864 45.2210197
v 29.9993496 2.1090164 46.6033630
v 29.9459209 -2.1030729 48.1179886
v 30.0000000 12.7702160 40.7617874
v 30.0000000 3.8302498 36.2810516
v 30.0000000 1.8877537 40.1567001
v 30.0000000 8.2894802 49.7017555
v 30.0000000 -0.9388718 45.0764771
v 30.0000000 -21.5144253 34.7639542
v 30.0000000 -36.4103546 27.2980728
v 30.0000000 -15.8401623 43.5774689
v 30.0000000 -35.3417473 33.5984192
v 30.0000000 -5.1312227 54.1609840
v 30.0000000 -22.2438545 45.5406876
v 30.0000000 -40.8910904 36.2380409
v 34.3560333 -0.6546602 45.2182007
v 35.5235062 -21.9941883 45.7092171
v 34.0927391 -40.8910904 36.2380409
v 35.0009193 -23.6630421 33.6870613
v 35.6794319 2.3461647 39.2420998
v 40.0000000 17.2509518 31.8218212
v 40.0000000 8.3109856 27.3410854
v 40.0000000 10.2994890 45.6913834
v 40.0000000 3.0222969 37.8930779
v 40.0000000 -0.6504864 45.2210197
v 40.0000000 -20.1773739 35.4340858
v 40.0000000 -36.4103546 27.2980728
v 40.0000000 -38.6478996 31.7624245
v 40.0000000 3.8087442 58.6417198
v 40.0000000 -5.0106878 54.2213974
v 40.0000000 -27.5256329 42.9368439
v 40.0000000 -40.8910904 36.2380409
v 4.5544081 17.3531303 20.6873074
v 20.0155621 6.0935636 31.8225689
v -34.8986092 1.8462348 17.9217968
v -33.5364151 11.5166597 6.5765114
v 10.0000000 4.0998983 47.6019249
v -29.9998798 13.2797966 3.4644861
v -30.0000000 35.1846504 -15.1183805
v -21.1009960 30.6931610 5.0019207
v 10.0000000 26.0009232 14.3638754
v 9.9999580 8.8450108 27.6087875
v -35.1804085 14.7036829 14.5860586
v 20.1847229 3.8795309 47.4913101
v -34.9475174 26.5568409 13.2547092
v 14.9193554 -2.8908544 49.6910019
v 17.5782814 3.8087440 58.6417198
v 40.0000000 -15.5524921 42.3743324
v 24.5778160 -2.4835265 48.8776093
v 25.0000000 3.8302498 36.2810516
v -31.3770275 28.2106018 9.9551229
v 10.0000000 16.5243511 10.9537745
v -24.3822403 21.5159912 11.5882206
v -17.2976551 19.5954838 4.8262510
v -5.7602544 28.3647346 9.6475973
v 40.0000000 9.9726963 34.2005081
v 22.2487526 3.8087440 58.6417198
v -40.0118294 29.8803844 6.6235728
v 10.0000000 31.0993481 -8.4555693
v -34.9532661 24.3281937 -4.6164532
v 14.7687216 -1.7163622 33.5010757
v -0.0003124 29.3122349 -1.5925885
v 40.0000000 -34.2083626 39.5874405
v 30.0000000 -19.5475235 39.6732368
v 36.1108589 -36.7302742 38.3234520
v -7.2701774 26.1949959 13.9331512
v -30.0000000 14.3531332 26.0005360
v -34.7825356 8.0077009 16.0032902
v 20.0000000 1.8633859 24.1096134
v 30.0000000 -25.7282677 39.5157127
v 19.4016190 12.7809696 29.5814533
v -40.0000000 18.5553112 17.3170681
v 29.9996948 -7.0797410 48.5037956
v 9.9999676 -14.2479248 16.0351372
v 9.9998388 -10.3626766 29.1675167
v 13.8021173 1.5737523 57.5215378
v -29.9997540 20.0327492 17.1711903
v 34.6210938 14.4008160 37.5084152
v 35.3473816 5.9151773 54.4389648
v 35.4780121 5.4789982 32.9914665
v 25.6615238 7.8405828 38.2912331
v -35.7247963 35.6424789 -14.8889151
v 34.5867081 -0.6970422 56.3834076
v 5.7789826 15.5472107 12.9033661
v 5.6683950 24.4348984 17.4884090
v 10.0000000 1.6178800 51.8875198
v 15.3282776 7.4417195 38.0911293
v 14.9025297 13.0885239 29.7355995
v 25.4191475 2.8801124 46.9902000
v -40.0000000 32.2580719 -11.7694025
v 14.8948364 6.1557178 53.9590378
v 15.0976591 3.7552097 47.4291649
v 30.0000000 -11.3232098 51.0575447
v -34.8514023 37.6811447 -8.9405088
v 24.7580643 -0.6504864 45.2210197
v -6.8787832 21.7531948 0.5211828
v -30.0000000 17.6536922 -1.5334971
v -40.0000000 23.7648411 6.8790865
v 35.0866508 -9.7006226 51.8707886
v 33.2050133 17.2509518 31.8218212
v 10.0000000 24.6105309 0.9390342
v 14.6639462 8.2894802 49.7017555
v -36.0909081 24.4374523 17.4833126
v 21.8370037 15.4329128 35.4491768
v -25.0098934 28.0944576 10.1868553
v -17.7060909 25.7494984 2.5241430
v 0.0000000 32.7171783 -11.5938520
v 20.0000000 -17.4330521 25.6238251
v 14.9323473 8.9258118 27.6492367
v -35.4433823 19.2153625 27.9024277
v -40.0060234 24.2899055 17.7776985
v -30.0000000 32.4179382 -11.7522001
v 9.9994593 -4.2050409 21.0686150
v 33.2647972 3.8087440 58.6417198
v 40.0000000 -6.8665805 47.5534058
v 10.0000000 19.6168671 16.5689125
v -40.0000000 26.6101894 13.1482658
v -39.9922752 33.0329857 0.3335056
v -40.0000000 13.8791990 1.9854333
v -29.9995918 16.9786777 10.0463686
v -8.4380579 20.3864670 11.0219011
v -10.8995380 18.8380451 6.3374920
v 20.9531345 9.4689503 39.1071854
v 17.6963692 -19.2802963 24.6979809
v 10.0000000 22.2576694 10.3103971
v -40.0000000 7.8644781 -6.4398785
v 9.9998150 -5.4929161 25.5606499
v 5.2747765 32.0202408 2.3541329
v 9.9998608 -11.0579090 24.7347202
v 13.4451962 -13.2034883 27.7436943
v 34.3360748 12.1485624 29.2644882
v 14.2644033 -18.7936306 20.8064251
v 16.4495144 -17.0000191 25.8408623
v 25.3115826 5.6970887 32.5559196
v -23.3240948 17.2724590 9.4611511
v -30.0000000 28.7537804 -13.4463863
v 23.7027454 12.7702160 40.7617874
v 5.3389120 27.6148949 11.1436777
v 40.0000000 -34.5264893 35.0147133
v 40.0145302 6.6943974 52.8842621
v 14.7509794 4.2353072 25.2983437
v 29.9997101 -0.0494258 44.0211220
v 30.0003090 -6.4572158 42.3110123
v 30.0000000 -26.7327003 32.1485405
v 34.1965027 -17.3209896 36.8657150
v 22.7735233 6.1179109 54.0344696
v 34.5658989 -16.6978130 48.3637772
v 30.0000000 -14.7105350 38.1740837
v 40.0000000 -28.4896965 36.9397049
v 35.3095131 -31.5901222 29.7139854
v 0.0000000 28.7255497 -13.3900604
v 40.0000000 -11.8313208 50.8028755
v -40.0000000 36.2106285 -6.0065308
v 16.4923897 -1.8259362 22.2604313
v -28.6405830 21.7530766 0.5208238
v -5.4332280 30.6931610 5.0019207
v -22.7224426 19.4790535 5.0585527
v -32.8479805 4.7708926 -2.4121890
v -31.1798973 4.8503089 -0.9046674
v 6.6684332 28.3820038 -12.7046175
v 6.1098137 18.3490810 7.3130722
v -4.1244764 21.9012985 11.7814398
v -29.9996681 4.1712184 2.8947735
v 33.8370132 8.3109856 27.3410854
v 40.0000000 5.4795942 32.9902802
v -12.7532492 21.7531948 0.5211844
v -11.6058302 17.2723675 9.4613333
v -8.3474588 17.2724590 9.4611511
v 35.4221687 -25.8134212 43.7950096
v 40.0000000 0.6657944 53.2550850
v 40.0000000 -21.3696480 41.3457565
v -4.9430113 19.3204098 5.3750777
v 10.0000000 9.5916414 33.8769417
v -25.8323460 27.1918030 3.2468019
v 10.0000000 26.3266411 -8.6037579
v 10.0000000 23.6303139 -3.2240436
v 10.0000000 35.6896744 -4.9671245
v -30.0000000 12.0718336 29.2260323
v -35.0023575 31.9440975 2.5060513
v 14.2500000 -17.0773582 21.6623077
v -40.0000000 27.4982185 0.5924907
v -35.4602928 4.1604037 25.2608013
v 10.0000000 32.3556824 1.6848562
v 14.2500200 -15.7590380 19.4169025
v -11.0890512 23.6769505 12.6711006
v 13.6954527 -14.9305811 20.4692783
v 13.7009497 -14.0743647 22.5532532
v 13.5220404 -12.6424818 22.5239906
v 13.5032043 -10.1496010 23.6681118
v 9.9993525 -9.9832830 18.1726608
v 9.9996786 -14.5285568 27.0795670
v 29.9997368 6.2807050 44.9453125
v 35.4777451 11.6587238 42.9794388
v 13.6726904 -11.5565777 23.6972027
v -40.0000000 6.5659499 22.1458359
v -34.6108856 5.2713838 3.4464858
v 12.9530935 -18.3429832 25.1677647
v -40.0000000 21.2824135 12.4440365
v 13.7009497 -19.3487186 19.9097328
v 14.2500000 -20.1102772 20.1422005
v 14.3178816 -19.3746338 17.5844173
v 14.2610340 -18.1239433 18.2283039
v 13.6993914 -8.9020557 23.4743538
v 15.0999212 -17.9516983 21.4189377
v -36.3900185 14.5823975 8.1133528
v 14.3097343 -6.9380875 19.6985664
v 14.2500000 -10.9179249 24.7494335
v 14.8788633 -15.2939243 22.7446594
v 32.7977715 -33.8534470 39.7653275
v 15.7500000 -16.2693119 19.1611614
v 20.0003510 -10.9056854 17.7324142
v 15.7500000 -9.2463636 22.6810837
v 20.0000000 -3.7247748 32.4944534
v 16.3166504 -18.7785301 18.5912056
v 16.2196903 -16.3613091 21.4957790
v 16.2917004 -12.2183313 21.8022881
v 16.3035812 -16.8303394 19.5130901
v 16.3054619 -13.0943918 23.0115604
v 16.4899273 -11.5167503 23.0383606
v 16.5000191 -18.8576279 19.3169613
v 18.8032379 17.2509518 31.8218212
v 30.0000000 -16.5270386 48.4493713
v 30.0000000 -31.2134361 41.0885048
v 40.0000000 13.6103964 39.0854568
v 40.0000000 -19.0910282 47.1642914
v 40.0000000 -27.3243141 31.8520222
v -40.0000000 14.1807880 26.3704796
v 40.0000000 -6.9770594 42.0501213
v -40.0000000 22.1160393 22.1149940
v -20.8848267 26.2124252 13.9418879
v -35.2203865 13.7541618 30.0692196
v -30.0000000 23.7016087 18.9514694
v 25.2583389 -1.8221738 55.8194885
v 34.9679832 -37.9369240 30.3438873
v 6.1716046 35.9957161 -14.7118731
v 13.6962328 -16.4120159 19.7235222
v 0.0000000 24.2448139 -4.4500937
v 13.6773605 -11.0069942 22.5113144
v -40.0000000 16.8650188 22.4897251
v -40.0000000 17.2553825 -1.7331313
v 10.0000000 28.7416687 -13.4222240
v 15.7500219 -14.6884546 19.9535179
v 35.0854759 8.8765831 48.5303650
v 40.0000000 5.3816562 45.6568222
v 29.9997711 7.7816229 41.4717140
v 16.4727058 -15.3850708 21.1714249
v 15.7796545 -20.2903919 20.0187397
v 16.3251972 -18.8966141 20.0271149
v 16.2705441 -10.3815002 22.6998119
v 16.4765110 -17.5717030 20.0595989
v 16.4913731 -9.8984718 23.7712212
v -30.0000000 24.3453140 -4.6506128
v 40.0000000 -11.5258541 39.7699318
v 0.0000000 33.1384811 0.1230144
v -40.0000000 19.6834965 26.9684086
v -29.9995365 28.4850388 1.0863421
v 15.0207243 -17.3386517 18.4066296
v 16.3146973 -14.5660009 22.2414551
v -34.4177017 15.9877996 -2.3684473
v 15.7679739 -15.5617914 22.4165249
v 30.0000000 -31.4333630 29.7925549
v 30.0000000 -37.1521759 38.1119919
v -36.6756859 28.5882874 -13.1161938
v 40.0000000 7.1457171 41.1631584
v 34.8123665 -30.2682648 41.5622292
v 10.0000000 -1.6229798 28.0606728
v 5.0535002 34.6651917 -2.9230795
v 40.0000000 -12.7810688 45.7494545
v 13.5012941 -15.9572115 20.7652969
v 27.9911194 15.1787415 35.9562988
v 14.2380381 -10.7911615 21.9202194
v 35.2069397 -12.4297590 39.3172150
v 14.9873133 -12.8343000 20.6618137
v 40.0000000 2.4526958 49.6255074
v 10.0000000 8.2622814 38.5023994
v 15.8002453 -17.8101215 18.4451065
v 13.7009602 -18.3863068 18.7142715
v -40.0000000 3.1932430 2.4049702
v -30.0000000 5.8337746 20.4446545
v -33.0027962 28.3492699 -12.6393080
v -30.0000000 33.0410881 0.3173380
v 29.3769875 6.0223713 54.2250900
v 29.6465797 -0.4988226 56.4827576
v -36.3594475 16.1681519 11.6638689
v 36.9601097 0.8860794 42.1549606
v -35.8104172 21.7530956 0.5208927
v 17.0878525 -14.7717352 26.9577751
v 32.6659431 0.7117956 42.5022583
v -29.9996109 18.0205326 13.1342087
v -29.9998264 23.0776196 -0.1785226
v 15.4306040 -13.9453630 27.3718643
v 15.8142471 -10.4734650 29.1119900
v -29.9997139 17.0463924 13.8728838
v -29.9993591 27.1444759 3.2225940
v 15.2023897 -10.2798004 18.0235252
v 32.1765633 2.4250429 39.0847130
v 29.9998474 4.2471600 42.8138962
v 30.0000000 3.8360512 40.3437843
v -36.4278526 17.2654285 9.4735861
v 20.0000000 -5.9460678 24.6110249
v -28.2094898 25.5781612 2.4377623
v -34.2201843 15.8590813 12.2808981
v -29.0868340 20.4947815 3.0099688
v 9.9997921 -14.5420685 20.0512924
v 32.0225258 1.4287325 41.0722160
v 20.0001583 -16.9480000 22.3954849
v 9.9993525 -21.8626804 20.5917435
v 30.0000000 2.5039809 38.9272079
v -34.5665741 16.0318947 8.8552189
v -34.0446281 16.6587734 10.6845999
v 20.0000134 -9.7481632 20.9368935
v -33.6431084 21.7530499 0.5207522
v 9.9994612 -18.4417362 18.5496407
v 9.9997702 -11.1502018 21.2149677
v -29.9995193 20.7779331 11.2186470
v -29.8204975 17.4954834 10.4056654
v 15.7544861 -18.1170731 21.1398525
v -30.7571716 22.2061882 -0.3826277
v -21.9453297 21.7315578 0.5103326
v 12.9213705 -1.0964956 22.6261234
v 29.1352501 0.0572502 45.5755196
v -31.5841618 16.6861534 10.4814205
v 18.7403660 -21.1812401 19.2317924
v -29.9994259 20.0022068 1.8916254
v -29.9997253 8.9164190 -5.9126430
v 28.0468540 4.4690728 47.7863922
v 28.4352283 0.7863446 45.9407158
v -30.7139263 16.7674484 10.0075684
v -29.9995384 2.0225713 1.7750492
v 29.9997044 -3.5594022 51.0242271
v -29.9995747 19.4689713 0.9257423
v 29.9993496 4.4371476 47.7702255
v -29.9506054 17.9570446 10.9877157
v 34.6177444 -2.9280560 44.0789680
v -28.0624962 20.2799149 10.9690380
v -36.9095001 0.7427648 -2.1937115
v 20.0006180 -17.2161217 17.5011387
v -28.4708290 18.3710651 10.0122442
v 27.9342976 -2.4599857 48.8301735
v -37.0776520 5.9754887 3.7991631
v -30.9883003 20.5874710 -0.0630992
v -29.9994793 26.2479992 0.8626565
v -29.8850861 15.4165478 13.1640511
v -29.9999962 13.5942659 -3.5532670
v 20.0003586 -14.6918287 19.3485012
v 12.9055662 -16.7018204 14.8053122
v -31.6421299 1.5219696 -3.7480915
v 15.6646519 2.2343876 35.4812012
v 20.0001755 -15.2539358 21.5833263
v 14.5682230 -19.6322975 24.5216045
v 29.9994888 -4.2293558 48.3347359
v -21.7408924 23.9445362 1.6194854
v -32.6515961 15.8332939 12.3324728
v -37.3380585 7.0474520 -6.8493743
v -29.9825516 19.4417953 5.1314921
v -28.1743069 20.2494831 3.5206456
v -30.7139263 16.5796509 9.1217136
v -31.9440861 8.2972670 -6.2229633
v 13.8804207 -11.0625639 28.8167324
v 29.9995728 3.6621084 45.1964798
v 17.7287998 -9.6419497 29.5287476
v -40.0000000 3.3077173 -2.3507562
v -29.9997444 17.5202312 15.0556984
v -30.0000000 22.8225880 -1.6124706
v -29.9996052 16.6415272 4.5436287
v -30.0000000 19.8143101 -0.4505895
v -25.8146152 24.0063019 1.6502200
v -40.0000000 6.7975936 1.7999201
v 9.9995689 -19.7860889 20.3579216
v -30.0000000 20.6395588 -0.0369722
v 17.2941399 -21.0136490 18.8977528
v 17.0174427 -18.5205116 13.9234276
v 20.0003452 -19.7166080 16.4027863
v -31.7384949 13.7600317 7.7011156
v -30.0000000 11.7300053 -1.3337092
v 14.1283646 -15.5723066 26.5564365
v -23.6968555 20.7608547 2.5011013
v -29.9998741 11.9895897 0.8488021
v -31.6034317 16.1277618 11.7448969
v -34.8110466 1.3956014 -3.4964693
v 20.0000000 -7.3926353 30.6561108
v -35.8682747 2.8024769 2.2091639
v 40.0000000 1.1618859 41.6049728
v 9.9998236 -8.4075470 26.1030827
v 30.0000000 -27.2146378 43.0927162
v 10.0000000 34.9721298 -10.7003317
v 15.5387573 -5.5445528 31.5823746
v 31.8796444 0.4426799 43.0274010
v 17.1171646 -7.8237028 30.4400578
v 4.5613494 29.8962250 6.5919685
v 24.8481598 8.2894802 49.7017555
v -29.9952602 18.0553665 7.8981185
v -40.0000000 4.7500019 25.5563087
v 16.6295662 -20.9072247 23.8828487
v -14.7135115 21.6892796 11.6748743
v -23.7494984 22.8949642 1.0934337
v 20.0000000 -8.7031965 24.0528507
v 5.0000000 26.2510395 -8.4529181
v 30.8647022 1.4850056 40.9600410
v -34.2122574 21.9355221 22.4751644
v 2.8423643 29.0532379 -14.0438643
v -29.9996796 22.5894318 12.1263933
v 9.9999342 -12.8276939 22.7394104
v -19.0420685 21.7531967 0.5211796
v 30.6645298 6.2660680 31.4211063
v 12.0937223 -11.6499529 17.3369980
v 20.0001926 -14.8952274 15.7106400
v 40.0000000 -31.8673325 29.5750465
v -25.7468510 20.4032612 3.2145309
v 27.2177429 -0.6504864 45.2210197
v -29.9999657 15.8601074 16.6373310
v -26.8188953 21.4869804 0.8071923
v -32.6113358 10.4433069 17.2237244
v 29.8661308 0.7724682 43.5886078
v -29.9999924 6.6621871 -4.3155265
v -32.9719887 3.9450049 2.7817867
v -40.0000000 12.4433842 7.0408058
v -29.9998703 14.5758076 0.2628209
v -30.0000000 10.8293819 21.7757092
v 12.4241648 -20.9703445 18.8112106
v 29.9191093 1.4541305 43.9566803
v -32.4990768 12.3151722 -4.2091784
v 27.2295685 -3.7194660 51.3436241
v -29.9995518 15.9765368 6.3398776
v -32.8792076 6.7733035 -3.0712774
v -29.9994831 17.5523815 5.8078394
v -30.0000000 15.9877329 20.6897030
v -35.4002457 26.8286686 -9.6054049
v -34.3157692 17.2715874 9.4614363
v -40.0000000 8.5029621 -3.0665996
v -35.5834618 18.7235298 -0.9976543
v -29.9998379 7.9566021 -5.2321262
v -40.0000000 24.0716000 -4.1044979
v -35.1307526 35.0537071 -3.6982462
v 10.0000000 24.9100380 5.3815284
v -26.5007572 17.2724590 9.4611511
v -31.8938427 14.2727470 15.4459181
v -33.6208076 14.1339712 7.8885579
v -0.0000447 31.1246147 -6.9394312
v 20.0000000 -0.2391645 34.2414513
v 12.3535175 -20.7109032 23.9812908
v 40.0000000 -1.6083705 49.7602119
v 34.6837311 -4.9991646 54.2271729
v -40.0000000 18.4981365 4.3504710
v 0.5989510 28.4073505 9.5625715
v 0.2991720 19.4694405 5.0777330
v -35.0000000 17.2509518 31.8218212
v 35.0000000 -36.4103546 27.2980728
v 15.6221876 -5.1312227 54.1609840
v 30.0000000 8.3002329 38.5214195
v 30.0000000 -29.1405373 36.2276268
v 20.0000896 -12.6654654 21.4313450
v 30.0000000 10.5298481 45.2317696
v 10.0000000 -2.8908544 49.6910019
v 10.0000000 6.0491118 54.1717377
v 10.0000000 15.0105839 36.2918053
v 25.0000000 -5.1312227 54.1609840
v -35.0000000 39.6546326 -12.8780127
v -36.8659172 9.3530293 5.4919114
v 30.0000000 -38.6507225 31.7680569
v 5.0000000 12.7917223 18.4011173
v 0.0000000 26.2231770 2.7615528
v -40.0000000 35.1846504 -15.1183805
v 0.0000000 35.1846504 -15.1183805
v -0.0006447 21.7421532 11.7020960
v 10.0000000 -0.6612394 56.4013519
v 10.0000000 17.2617054 20.6414852
v 40.0000000 12.7809687 29.5814533
v 0.0000000 24.0819092 18.1455688
v -39.9596367 28.5010014 -12.9420433
v -11.7508984 27.9311123 10.5127630
v 29.9349155 1.2892759 43.0916176
v -29.9998589 10.7729988 -4.9821200
v 32.7735291 -0.7230070 45.1690521
v 40.0000000 -0.6009719 56.4315605
v 16.9387264 -6.5292592 19.9033318
v 14.9193554 -0.6504864 45.2210197
v -32.2480431 16.4372368 11.1270437
v 9.9996815 -7.3286600 19.5030499
v -34.5644646 7.2959213 -6.7248406
v 29.8591156 0.7040734 44.4675598
v -34.5231247 2.6532600 -6.0061407
v 30.5539684 0.0700236 43.4288864
v 12.4579897 -22.9892330 22.8394394
v 29.8439159 0.5661523 45.8304253
v -34.2676392 7.8048449 4.7160840
v 32.8920403 -2.0099940 44.5392036
v -29.9994640 18.7046280 11.7594767
v 30.5316677 -0.5796993 44.5517082
v 34.4269562 0.1236633 43.6754379
v 16.6322632 -11.6467981 17.3383484
v 16.3989773 -19.4368210 19.4484272
v 29.9317608 1.2788454 42.4136963
v -26.9886703 18.8236160 6.3657689
v -31.1533375 5.9512391 -3.2063279
v 32.3457527 0.0986433 43.7102318
v -35.0987778 12.1404190 -4.2967653
v 29.9943256 1.9148942 41.2992249
v -21.7108097 26.3346615 2.8174284
v -32.4988861 5.4755106 -0.3797381
v 29.9998798 -3.6151936 45.9546051
v 31.0140343 -1.5852686 44.7523766
v -29.9909973 18.6843700 6.6427708
v 19.9650249 -7.5951633 19.3689480
v -31.6570892 15.5332861 8.5898895
v -29.9999104 5.6881485 1.9697168
v -40.0000000 5.4771643 -4.6920247
v -37.0535965 13.8280315 -3.4509289
v -29.9997272 2.1910262 -0.5500241
v -37.0883102 10.2887278 -5.2248378
v 29.7579784 0.0657153 44.8569221
v 40.0000000 -15.8516140 37.6020088
v -27.1931992 24.0358391 12.8510761
v -40.0000000 9.8309698 0.6963594
v -29.9998226 15.8617716 14.1284027
v -32.5702438 3.8735473 -8.4401445
v -31.6627731 7.5952735 -1.8513215
v 32.0675316 -3.3692119 43.8582573
v -30.8340187 16.3618984 11.0358934
v -30.0000000 16.0376320 8.8422527
v -27.9467735 21.2151585 1.5041807
v -29.9994678 19.1980801 2.8692267
v -29.2782192 21.3363724 0.8993181
v 37.6239128 -3.6111355 43.7368164
v 15.6758137 -19.0620842 15.0035601
v -32.0615005 15.1144791 13.7667437
v -31.9766026 19.7101326 -0.5028435
v 30.6510925 0.9245244 41.9646988
v 16.7626610 -8.8243685 18.7528687
v -30.0000000 14.9004745 8.2723064
v 13.5040970 -8.6722813 24.4389496
v -29.9998474 22.5529099 0.6474384
v -27.7977142 21.7530975 0.5208870
v 34.0009232 1.1638644 41.6004257
v 18.7213783 -20.3689632 17.6109200
v -29.9998722 8.4624949 -3.7285991
v -28.4589157 17.8804302 8.2473764
v -29.8265457 18.0571213 9.8547611
v 29.9998322 2.0480564 41.9854507
v -29.9997520 16.3122063 13.5022678
v -29.3348160 22.3255024 0.5452001
v -28.0023041 22.3222885 0.6266758
v -31.5762806 22.4781857 -0.9253194
v -30.7149220 21.7530212 0.5206686
v 9.9997053 -17.2758789 20.2156925
v -29.9997520 3.4106853 -4.0155973
v 16.7974091 -12.3792753 28.1567917
v -28.5023384 17.2724590 9.4611511
v -29.9995899 7.0511599 -6.8475161
v -37.3324471 2.8507364 -6.4001460
v -29.9993591 20.1533432 3.7117569
v 14.2500200 -8.4410963 23.0846748
v -32.0626221 10.2800808 -5.2291718
v -30.0000000 9.9463263 -2.5635400
v -32.7183990 23.2101707 -2.3857744
v -31.2579231 15.7441254 12.5104790
v 15.1012354 -11.5392427 24.6324844
v 30.7224007 -0.8574848 45.0687561
v 31.3893089 0.8359104 42.2547684
v 13.9454746 -15.0724049 15.6216879
v -29.9996433 16.6557713 10.6907444
v -32.4881210 1.9039259 1.7587613
v 29.9994984 1.9897397 45.1234856
v -27.0952568 21.7531166 0.5209395
v 30.0334511 0.7260542 42.1948509
v 31.0402870 -0.2359259 44.0493889
v 13.7095890 -9.6263084 24.7922955
v -36.3455009 1.9853078 -4.6734424
v 9.9996157 -8.5335016 22.5409641
v -27.6370277 23.9263401 1.6099304
v 20.0000000 -12.3050146 24.1128216
v 29.7988434 0.2796316 43.4028320
v 9.9995155 -18.7588177 24.9593487
v -30.7198315 17.0561104 9.3528976
v 13.8305683 -19.0900135 15.0588894
v 29.9192104 0.2682892 43.3875389
v -28.7024670 22.5505714 0.7272654
v -29.9995346 19.5363846 13.4094076
v 40.0000000 -23.3083305 45.0505676
v 30.6718292 0.5321729 42.6490631
v 20.0003166 -19.5534115 21.6644249
v -29.9997692 16.3026390 7.9150124
v -30.0933018 16.7114391 9.9707642
v -30.0842495 16.1409950 11.2638407
v -32.4962883 6.2513556 3.9375715
v -29.9995403 17.3037300 9.3977108
v 20.0005531 -18.9849529 18.9302177
v 15.7500000 -12.6487942 20.9757767
v -29.8859653 16.7454128 11.7495508
v -29.8622131 15.8159552 12.5475874
v -29.9996834 16.8006725 13.0045738
v 16.2990303 -9.4656897 24.8631344
v -26.9187641 21.6114178 0.4501203
v 20.0000000 -14.0427141 27.3232536
v -29.9423828 16.0895939 13.0200911
v -29.9996548 24.2575054 -0.5898445
v -29.7118359 16.9648914 10.0748072
v -29.7806644 16.3497562 11.3021193
v 29.7606678 -0.0421670 45.5257225
v -35.0000000 5.8649173 -1.6523801
v -30.4872589 15.7887793 12.2135210
v 36.3348618 -0.6507762 45.2201462
v -29.3210468 21.9082031 0.2819744
v -29.9995689 7.5671887 1.1666665
v 30.0386410 -0.5983283 44.4929466
v -29.9848804 17.0359993 12.2565842
v 28.0405788 -1.4801931 46.8757477
v -27.2093487 21.0808353 1.8619533
v 12.4085865 -20.4510345 17.7751369
v -32.7025452 0.7320578 -2.1718247
v -29.8150806 16.0421886 11.9157743
v -30.0000000 15.8423758 11.9113140
v 29.9995613 -1.2166787 46.2945862
v 29.7181969 -0.3386137 44.6363602
v 29.9997520 2.1100426 42.7594910
v -29.2973175 21.7530594 0.5207747
v 30.0223007 1.0915344 41.5588684
v -4.6674042 17.2723808 9.4613075
v 30.0031681 -10.8655453 40.1012001
v -30.4682369 16.0548248 11.6018457
v -29.9996948 16.3222618 11.3562832
v -29.9996243 17.3022366 2.7468622
v 35.1449966 -6.3514981 42.3633575
v 13.7111902 -16.4222450 21.3879433
v -30.5937252 15.5786400 12.7305164
v -29.8488884 16.9757423 11.1965189
v 16.8937206 -14.0055113 16.1564217
v -29.9998417 6.8510060 4.2378902
v 17.4743023 -20.6188641 18.1098309
v -29.9993668 3.2207339 -2.2928319
v 15.0063152 -8.0125198 23.0765934
v 30.0000000 -3.4006307 43.8426361
v 15.7499905 -17.0849190 21.6585178
v -29.9997387 16.0448856 11.9097996
v 29.9996834 2.1263440 43.4205399
v 30.0609417 0.0513946 43.3701248
v -27.6088219 21.5785847 0.4336651
v -27.4482594 21.8875332 0.3862627
v 30.0000000 1.4115423 40.9996986
v -28.0786591 21.8637753 0.3317202
v 16.4974957 -8.6245327 24.4563580
v 13.6540823 -9.1962805 18.5666409
v 14.9264488 -19.5882168 16.0537319
v -31.4278545 17.1216717 9.4011736
v -29.9995346 7.8490214 -0.2327320
v -29.9997940 9.9300976 2.1268959
v -30.0000000 15.1159649 13.5622082
v 14.2496424 -12.7677317 23.8219051
v 29.8712921 0.8357884 42.2555885
v 13.6954927 -15.2124958 21.9600372
v 35.6324158 -27.7367077 31.6453285
v 16.2887840 -13.2567635 21.2737503
v -29.3985977 21.4934254 0.3909861
v -29.9170952 16.3885975 12.3887291
v -30.0489864 2.5013969 -5.7017341
v 16.4878254 -19.4719658 19.0599556
v -29.9996395 5.8431692 0.8112750
v -30.9731503 15.0971613 13.8012934
v -29.9997826 15.7650690 12.4681892
v 14.9398355 -11.5157232 21.3369179
v 31.4906349 -0.8203356 45.1355782
v 14.8759756 -4.5090818 20.9158382
v -30.0000000 16.4132252 10.6139631
v -28.5718117 20.9205189 2.1814721
v -26.4890423 22.6576004 0.9337151
v 14.2500200 -14.4934797 20.0512028
v -34.0149612 6.7451358 -3.0770702
v 14.2500000 -9.4922867 25.4639664
v -25.5390797 21.7389622 0.4624540
v 14.9786043 -16.7696781 22.0194111
v 11.4186563 -20.9851170 18.8405437
v 13.5198088 -11.3531408 22.9955654
v -29.9602051 17.4953518 11.5610762
v -26.0289707 21.3953781 1.1807194
v -34.0083618 7.3438988 -2.5654848
v 13.7009497 -12.9920769 23.0956993
v 15.8060541 -9.3107290 25.4922543
v -33.8850517 5.3335457 -3.0010836
v -33.8979034 4.7742438 -2.4159608
v 29.9141178 1.1628773 41.6653557
v 29.7647648 0.0157622 44.0620613
v -26.2287064 21.6442528 0.4665754
v 13.5025530 -17.8713703 19.8006573
v -29.9996929 23.2080879 1.0620776
v 13.7573233 -8.6183538 25.3508816
v -29.7462502 16.6573238 10.6884632
v -28.7357693 23.9974232 1.6408204
v 29.8387108 0.5860042 42.7539597
v 30.0445995 0.3605740 42.8308334
v 29.9999638 0.5858464 42.7538414
v 15.7500000 -7.9796872 23.3159466
v 14.2500000 -15.6220970 22.3916893
v 14.3391924 -12.1646852 21.1916752
v -31.3504848 6.1913128 -0.2325525
v -25.4486465 22.5107021 0.9006630
v 16.3426743 -16.4581642 14.9273586
v 16.3200951 -17.8655529 19.0631752
v -33.5978050 7.4667063 -1.1688756
v 15.7499905 -13.3600254 23.5254459
v -29.9994907 17.6206188 8.7653427
v 15.7589817 -14.3931379 23.0049515
v 16.2594051 -17.8127575 20.7238865
v -31.3237247 6.9500694 -0.5020352
v -28.6989403 21.9410572 0.3417549
v 30.0772839 -0.2577849 43.9094124
v 30.0000000 -2.0985727 44.4952316
v -26.1269245 21.7728882 0.4278701
v -29.8657074 21.7530441 0.5207322
v 13.7120590 -17.3750725 19.2086887
v 14.5654573 -21.9204903 20.7057190
v 14.3298750 -16.9310513 18.8055534
v -33.9431953 4.6073756 -1.6506577
v 14.9460974 -19.0809212 20.8667583
v -31.2559795 4.6234970 -1.7290617
v 30.0000000 -33.2444954 37.1763420
v 13.5112801 -16.9514122 20.2253056
v 28.4374046 -0.6504864 45.2210197
v 13.7437611 -13.5620451 21.0843258
v 15.0481329 -13.9623690 20.1070461
v -33.8241692 6.9022784 -0.4687741
v -28.6197567 21.5174866 0.4499108
v 20.0000000 -6.8122325 27.4932117
v 16.2589989 -15.8391485 19.9461327
v 13.6870184 -10.5568018 24.2581062
v 14.1815739 -9.6406050 22.5600376
v 14.9567871 -18.4672623 17.8477077
v 15.8248940 -12.3083467 23.9687672
v 29.9996185 -0.6342683 45.1877975
v -33.6181183 6.1091781 -0.2494416
v -29.9425430 14.9030504 14.1885767
v 15.0672455 -10.3239679 25.2517700
v 14.9597931 -14.2878246 23.2609711
v -31.1286125 7.4473448 -1.0747176
v -31.1863556 5.3687439 -3.0127795
v -31.0743675 7.3189816 -2.5876222
v 16.4940987 -12.6398430 22.4580498
v 14.9108868 -16.3120441 18.9416656
v 9.9997492 -19.3588047 22.3069134
v 13.7801161 -18.4636211 20.4419022
v 13.6783476 -9.9976358 23.0130882
v 14.2500000 -11.9411058 24.2366123
v -16.6514931 30.6931610 5.0019207
v 16.4923210 -16.3815403 20.5901203
v 15.7723465 -10.1634502 22.2464352
v 17.2013912 -21.4463654 19.7605019
v 13.5000095 -18.9581375 19.2665863
v -29.9996834 3.8051248 -0.6733075
v 10.0000000 23.6895409 18.9755478
v -29.9996948 21.1560135 1.3355631
v 16.2861309 -11.2707796 22.3317032
v -32.3012199 4.8861809 -0.8727958
v 16.5000191 -14.5850677 21.4583797
v 16.2449093 -8.5572577 25.3789864
v 16.2681484 -10.3051519 24.4769421
v 15.7440062 -13.7332363 20.4304543
v 13.5006523 -15.0863733 21.2044449
v -27.7371941 22.9696732 1.0529891
v 13.7071638 -20.2453251 19.4901905
v 15.7484598 -10.2602768 25.0611954
v 16.2838440 -9.6683807 23.0667286
v -30.0000000 15.4791698 12.7367611
v -32.2652130 6.0227728 -3.2256165
v 16.2868538 -14.0549955 20.8715153
v 10.0000000 37.6183319 -8.8151865
v -30.0000000 13.1516924 7.3958120
v -25.5882931 26.2124252 13.9418879
v 20.0003910 -17.1499367 19.9762707
v 20.0002155 1.5599611 29.5428886
v 29.4882545 13.2969027 29.8400402
v 3.9317997 20.4763718 3.0687006
# 999 vertices, 0 vertices normals

f 687 311 1
f 1 311 692
f 1 319 382
f 692 319 1
f 382 323 1
f 1 323 687
f 2 24 492
f 692 24 2
f 2 319 692
f 699 319 2
f 2 492 699
f 3 4 319
f 662 4 3
f 657 289 3
f 3 289 662
f 3 319 699
f 3 492 657
f 699 492 3
f 382 319 4
f 4 347 382
f 410 347 4
f 662 410 4
f 5 327 410
f 673 327 5
f 5 410 662
f 515 469 5
f 5 469 673
f 662 515 5
f 6 348 469
f 743 348 6
f 6 355 659
f 739 355 6
f 6 469 737
f 6 659 743
f 6 737 739
f 7 8 736
f 779 8 7
f 583 26 7
f 7 26 779
f 7 355 583
f 736 355 7
f 565 12 8
f 8 12 591
f 797 565 8
f 8 591 736
f 8 779 797
f 591 507 9
f 9 507 597
f 736 591 9
f 9 597 743
f 9 659 736
f 743 659 9
f 10 507 569
f 597 507 10
f 10 569 688
f 743 597 10
f 688 646 10
f 10 646 743
f 11 13 427
f 513 13 11
f 427 327 11
f 11 327 673
f 11 434 528
f 646 434 11
f 528 513 11
f 673 646 11
f 565 42 12
f 12 42 611
f 12 507 591
f 611 507 12
f 23 14 13
f 13 14 301
f 272 23 13
f 513 272 13
f 13 301 427
f 14 15 17
f 23 15 14
f 14 17 468
f 468 301 14
f 15 16 18
f 297 16 15
f 424 17 15
f 15 18 424
f 15 23 297
f 46 18 16
f 297 46 16
f 424 20 17
f 17 20 456
f 17 456 468
f 44 21 18
f 18 21 424
f 264 44 18
f 18 46 264
f 456 20 19
f 19 20 460
f 19 339 484
f 676 339 19
f 484 456 19
f 19 460 676
f 411 45 20
f 20 45 460
f 622 411 20
f 20 424 622
f 21 44 411
f 21 411 622
f 622 424 21
f 280 69 22
f 22 69 408
f 22 274 280
f 346 274 22
f 22 287 346
f 408 287 22
f 23 79 642
f 666 79 23
f 23 272 666
f 642 297 23
f 311 64 24
f 24 64 509
f 692 311 24
f 509 492 24
f 756 541 25
f 25 541 772
f 772 547 25
f 25 547 773
f 25 570 756
f 773 570 25
f 26 583 709
f 26 709 745
f 745 711 26
f 26 711 779
f 27 28 30
f 904 28 27
f 31 29 27
f 27 29 896
f 27 30 829
f 829 31 27
f 27 896 904
f 904 30 28
f 29 31 907
f 29 55 896
f 907 55 29
f 30 32 35
f 927 32 30
f 30 35 829
f 904 50 30
f 30 50 927
f 829 33 31
f 31 33 907
f 949 35 32
f 32 927 949
f 829 36 33
f 33 36 941
f 908 907 33
f 941 908 33
f 34 86 402
f 495 86 34
f 271 130 34
f 34 130 495
f 402 271 34
f 35 37 829
f 949 37 35
f 829 38 36
f 36 38 941
f 47 39 37
f 37 39 829
f 958 47 37
f 37 949 958
f 38 40 47
f 829 40 38
f 38 47 49
f 38 49 941
f 47 40 39
f 39 40 829
f 41 587 709
f 782 587 41
f 726 651 41
f 41 651 782
f 41 709 739
f 739 726 41
f 42 103 791
f 839 103 42
f 42 565 839
f 791 611 42
f 43 160 462
f 678 160 43
f 286 276 43
f 43 276 305
f 462 286 43
f 43 305 678
f 44 82 85
f 264 82 44
f 44 85 411
f 45 84 407
f 411 84 45
f 45 407 460
f 46 80 81
f 297 80 46
f 46 81 82
f 46 82 264
f 980 49 47
f 47 56 729
f 958 56 47
f 47 729 980
f 48 576 839
f 884 576 48
f 48 609 711
f 839 609 48
f 48 711 745
f 48 745 884
f 49 54 941
f 980 54 49
f 746 52 50
f 50 52 927
f 50 58 746
f 904 58 50
f 927 52 51
f 51 52 932
f 932 56 51
f 51 56 949
f 949 927 51
f 52 746 962
f 962 932 52
f 658 538 53
f 53 538 734
f 53 539 658
f 707 539 53
f 53 551 707
f 873 551 53
f 53 734 873
f 54 59 387
f 943 59 54
f 54 387 941
f 54 388 943
f 980 388 54
f 907 57 55
f 55 57 991
f 55 654 896
f 991 654 55
f 56 61 729
f 923 61 56
f 932 923 56
f 958 949 56
f 387 59 57
f 57 59 963
f 907 387 57
f 963 724 57
f 57 724 991
f 654 60 58
f 58 60 964
f 904 654 58
f 964 746 58
f 96 94 59
f 59 94 963
f 98 96 59
f 943 98 59
f 60 90 91
f 92 90 60
f 60 91 964
f 724 92 60
f 60 654 991
f 991 724 60
f 61 100 102
f 923 100 61
f 102 101 61
f 61 101 388
f 61 388 980
f 980 729 61
f 62 160 678
f 686 160 62
f 62 168 278
f 706 168 62
f 678 275 62
f 62 275 706
f 62 278 686
f 323 66 63
f 63 66 341
f 63 268 311
f 341 268 63
f 63 311 687
f 687 323 63
f 311 268 64
f 64 268 341
f 64 341 365
f 64 365 509
f 341 67 65
f 65 67 481
f 481 289 65
f 65 289 657
f 365 341 65
f 509 365 65
f 657 509 65
f 66 67 341
f 510 67 66
f 66 323 663
f 663 510 66
f 67 192 481
f 510 192 67
f 593 519 68
f 68 519 761
f 68 547 593
f 773 547 68
f 68 761 770
f 68 770 832
f 937 773 68
f 68 832 937
f 334 269 69
f 69 269 403
f 69 280 334
f 69 403 523
f 510 408 69
f 69 485 510
f 523 485 69
f 599 570 70
f 70 570 773
f 978 599 70
f 882 752 70
f 70 752 978
f 70 773 937
f 937 882 70
f 71 88 778
f 884 88 71
f 71 92 94
f 644 92 71
f 71 94 96
f 71 96 775
f 778 644 71
f 71 775 884
f 95 93 72
f 72 93 783
f 874 95 72
f 72 604 607
f 783 604 72
f 72 607 875
f 72 833 874
f 875 833 72
f 73 101 102
f 976 101 73
f 73 102 886
f 73 392 558
f 735 392 73
f 73 558 738
f 886 735 73
f 73 738 976
f 280 274 74
f 74 274 332
f 334 280 74
f 461 306 74
f 74 306 631
f 74 332 461
f 995 334 74
f 74 631 742
f 74 742 995
f 75 349 812
f 815 349 75
f 75 557 803
f 812 557 75
f 75 586 749
f 803 586 75
f 75 749 811
f 75 811 929
f 929 815 75
f 76 265 715
f 994 265 76
f 875 267 76
f 76 267 994
f 76 715 814
f 76 814 857
f 76 857 875
f 640 79 77
f 77 79 666
f 959 640 77
f 77 666 959
f 78 83 296
f 339 83 78
f 78 296 656
f 78 306 461
f 656 306 78
f 629 339 78
f 78 461 629
f 79 80 642
f 648 80 79
f 79 640 656
f 656 648 79
f 82 81 80
f 508 82 80
f 80 297 642
f 648 508 80
f 508 85 82
f 407 296 83
f 83 339 676
f 460 407 83
f 676 460 83
f 411 85 84
f 84 85 508
f 84 296 407
f 648 296 84
f 84 508 648
f 86 145 290
f 495 145 86
f 86 290 577
f 86 316 504
f 577 316 86
f 504 402 86
f 87 523 530
f 571 523 87
f 87 530 916
f 825 571 87
f 913 825 87
f 916 913 87
f 88 745 778
f 884 745 88
f 89 532 780
f 893 532 89
f 751 553 89
f 89 553 978
f 780 751 89
f 978 893 89
f 765 91 90
f 90 92 644
f 90 644 765
f 765 93 91
f 91 93 964
f 724 94 92
f 93 95 962
f 962 746 93
f 93 746 964
f 93 765 783
f 94 724 963
f 874 97 95
f 95 97 932
f 95 932 962
f 96 98 859
f 859 775 96
f 833 100 97
f 97 100 932
f 874 833 97
f 388 101 98
f 98 101 976
f 943 388 98
f 976 859 98
f 738 103 99
f 99 103 839
f 839 576 99
f 99 576 884
f 859 738 99
f 99 775 859
f 884 775 99
f 886 102 100
f 100 833 886
f 100 923 932
f 738 558 103
f 103 558 791
f 564 544 104
f 104 544 717
f 562 545 104
f 104 545 767
f 717 562 104
f 567 564 104
f 767 567 104
f 105 349 815
f 826 349 105
f 767 545 105
f 105 545 826
f 105 567 767
f 777 567 105
f 105 766 777
f 929 766 105
f 105 815 929
f 385 108 106
f 106 108 971
f 106 110 700
f 971 110 106
f 106 284 385
f 700 284 106
f 107 548 606
f 625 548 107
f 107 606 638
f 924 625 107
f 107 638 903
f 903 898 107
f 107 898 924
f 385 325 108
f 108 325 395
f 395 335 108
f 108 335 971
f 109 147 364
f 624 147 109
f 109 283 351
f 364 283 109
f 109 351 396
f 109 396 624
f 459 111 110
f 110 111 700
f 110 269 334
f 971 269 110
f 110 334 459
f 414 295 111
f 111 295 700
f 624 414 111
f 111 459 624
f 112 240 451
f 848 240 112
f 322 302 112
f 112 302 372
f 451 322 112
f 112 372 848
f 113 284 295
f 674 284 113
f 113 295 391
f 113 314 367
f 698 314 113
f 113 367 674
f 113 391 694
f 113 694 698
f 313 121 114
f 114 121 694
f 390 313 114
f 675 390 114
f 694 391 114
f 114 391 847
f 114 401 675
f 847 401 114
f 115 117 129
f 336 117 115
f 129 127 115
f 115 127 693
f 693 336 115
f 116 126 630
f 693 126 116
f 380 336 116
f 116 336 693
f 630 380 116
f 496 129 117
f 117 291 483
f 668 291 117
f 117 336 668
f 117 483 496
f 466 291 118
f 118 291 668
f 118 336 380
f 668 336 118
f 118 380 630
f 118 389 627
f 630 389 118
f 627 466 118
f 385 284 119
f 119 284 674
f 483 291 119
f 119 291 691
f 119 357 483
f 619 357 119
f 691 385 119
f 674 619 119
f 466 125 120
f 120 125 999
f 120 291 466
f 691 291 120
f 401 325 120
f 120 325 691
f 675 401 120
f 999 675 120
f 124 123 121
f 121 123 698
f 690 124 121
f 121 313 690
f 698 694 121
f 122 123 128
f 698 123 122
f 122 128 698
f 123 124 690
f 262 128 123
f 690 262 123
f 405 138 125
f 125 138 999
f 627 405 125
f 125 466 627
f 126 134 135
f 464 134 126
f 126 135 389
f 126 389 630
f 693 464 126
f 127 129 133
f 127 133 464
f 127 464 693
f 128 139 314
f 696 139 128
f 128 262 696
f 128 314 698
f 993 133 129
f 496 406 129
f 129 406 993
f 130 271 370
f 130 342 495
f 549 342 130
f 130 370 549
f 542 142 131
f 131 142 838
f 131 536 598
f 900 536 131
f 598 542 131
f 131 838 900
f 132 536 713
f 967 536 132
f 713 670 132
f 132 670 802
f 132 802 967
f 133 134 464
f 615 134 133
f 993 615 133
f 470 135 134
f 134 288 470
f 615 288 134
f 470 389 135
f 404 288 136
f 136 288 406
f 136 330 405
f 664 330 136
f 405 404 136
f 136 406 412
f 136 412 664
f 137 270 354
f 367 270 137
f 137 354 664
f 412 357 137
f 137 357 619
f 619 367 137
f 664 412 137
f 354 281 138
f 138 281 390
f 405 330 138
f 138 330 664
f 664 354 138
f 138 390 999
f 977 314 139
f 696 345 139
f 139 345 977
f 313 281 140
f 140 281 345
f 690 313 140
f 140 345 696
f 696 690 140
f 141 216 450
f 685 216 141
f 317 271 141
f 141 271 402
f 450 317 141
f 141 402 685
f 804 155 142
f 142 155 838
f 575 177 142
f 142 177 804
f 542 303 142
f 142 303 575
f 143 420 632
f 802 420 143
f 632 533 143
f 143 533 774
f 143 774 967
f 967 802 143
f 144 152 216
f 316 152 144
f 144 216 685
f 504 316 144
f 144 402 504
f 685 402 144
f 304 191 145
f 145 191 616
f 616 290 145
f 613 304 145
f 495 356 145
f 145 356 613
f 146 266 315
f 321 266 146
f 146 315 684
f 146 320 331
f 684 320 146
f 331 321 146
f 147 282 364
f 459 282 147
f 624 459 147
f 315 266 148
f 148 266 321
f 683 315 148
f 148 321 706
f 706 683 148
f 305 276 149
f 149 276 320
f 695 305 149
f 684 315 149
f 149 315 695
f 149 320 684
f 150 315 683
f 695 315 150
f 683 678 150
f 150 678 695
f 151 161 170
f 649 161 151
f 151 170 939
f 713 536 151
f 151 536 900
f 900 649 151
f 939 713 151
f 333 216 152
f 152 316 352
f 366 333 152
f 152 352 366
f 375 286 153
f 153 286 462
f 153 343 511
f 512 343 153
f 511 375 153
f 153 462 512
f 154 229 450
f 998 229 154
f 499 329 154
f 154 329 998
f 450 333 154
f 154 333 499
f 169 167 155
f 155 167 838
f 179 169 155
f 872 179 155
f 155 804 872
f 178 162 156
f 156 162 914
f 156 164 178
f 760 164 156
f 914 760 156
f 157 165 417
f 947 165 157
f 157 415 947
f 985 415 157
f 417 416 157
f 157 416 879
f 157 879 985
f 161 159 158
f 158 159 167
f 987 161 158
f 167 166 158
f 158 166 975
f 975 428 158
f 158 428 987
f 159 161 649
f 838 167 159
f 159 649 838
f 686 462 160
f 987 170 161
f 178 171 162
f 162 171 914
f 409 361 163
f 163 361 968
f 853 409 163
f 163 498 853
f 945 498 163
f 163 912 945
f 968 912 163
f 164 173 178
f 432 173 164
f 760 432 164
f 165 174 922
f 947 174 165
f 467 417 165
f 500 467 165
f 922 500 165
f 166 167 169
f 166 169 430
f 166 430 431
f 166 431 506
f 166 506 975
f 168 273 318
f 321 273 168
f 324 278 168
f 168 318 324
f 706 321 168
f 169 179 430
f 188 180 170
f 170 180 939
f 429 188 170
f 987 429 170
f 171 178 185
f 171 185 186
f 171 186 897
f 171 897 914
f 877 187 172
f 172 187 961
f 879 416 172
f 172 416 905
f 172 437 921
f 961 437 172
f 905 877 172
f 921 879 172
f 181 178 173
f 860 181 173
f 173 432 781
f 173 781 860
f 174 415 895
f 947 415 174
f 174 502 922
f 948 502 174
f 174 895 948
f 175 215 226
f 939 215 175
f 175 226 623
f 623 579 175
f 175 579 670
f 175 670 713
f 175 713 939
f 176 303 635
f 789 303 176
f 635 524 176
f 176 524 720
f 176 720 856
f 856 789 176
f 177 575 925
f 177 601 754
f 925 601 177
f 177 754 804
f 178 181 196
f 205 185 178
f 178 196 207
f 212 205 178
f 178 207 212
f 189 184 179
f 179 184 430
f 872 189 179
f 180 188 190
f 180 190 939
f 860 196 181
f 889 197 182
f 182 197 973
f 182 441 860
f 973 441 182
f 182 500 889
f 954 500 182
f 860 781 182
f 182 781 954
f 895 413 183
f 183 413 966
f 183 439 471
f 966 439 183
f 183 471 948
f 948 895 183
f 184 189 198
f 184 198 955
f 955 430 184
f 193 186 185
f 205 193 185
f 186 193 906
f 960 897 186
f 186 906 960
f 187 786 956
f 970 786 187
f 187 877 970
f 956 928 187
f 187 928 961
f 476 190 188
f 188 195 476
f 942 195 188
f 188 429 942
f 200 198 189
f 217 200 189
f 872 217 189
f 190 199 215
f 476 199 190
f 190 215 939
f 191 304 588
f 588 521 191
f 191 521 590
f 191 590 618
f 618 616 191
f 825 481 192
f 510 485 192
f 192 485 571
f 192 571 825
f 193 205 982
f 982 906 193
f 194 204 956
f 983 204 194
f 956 786 194
f 194 786 960
f 194 960 988
f 988 983 194
f 195 206 476
f 477 206 195
f 195 433 546
f 942 433 195
f 931 477 195
f 195 546 931
f 920 207 196
f 196 860 920
f 817 445 197
f 197 445 979
f 197 478 973
f 979 478 197
f 889 817 197
f 198 200 202
f 198 202 209
f 198 209 443
f 198 443 505
f 198 505 955
f 206 201 199
f 199 201 974
f 476 206 199
f 974 215 199
f 217 202 200
f 201 206 214
f 214 211 201
f 201 211 600
f 201 600 974
f 210 209 202
f 217 210 202
f 203 471 952
f 984 471 203
f 972 475 203
f 203 475 981
f 203 952 972
f 203 981 992
f 992 984 203
f 448 447 204
f 204 447 956
f 480 448 204
f 983 480 204
f 205 212 982
f 721 214 206
f 206 477 721
f 207 208 870
f 920 208 207
f 870 212 207
f 920 441 208
f 208 441 989
f 208 480 870
f 989 480 208
f 209 210 214
f 209 214 885
f 885 443 209
f 210 211 214
f 858 211 210
f 210 217 858
f 858 600 211
f 212 870 982
f 213 445 881
f 965 445 213
f 487 447 213
f 213 447 965
f 981 487 213
f 213 881 992
f 992 981 213
f 214 721 885
f 974 226 215
f 216 333 450
f 601 221 217
f 217 221 602
f 754 601 217
f 217 602 764
f 872 754 217
f 217 764 858
f 318 273 218
f 218 273 321
f 620 318 218
f 331 320 218
f 218 320 375
f 218 321 331
f 218 375 620
f 229 228 219
f 219 228 363
f 300 229 219
f 363 263 219
f 219 263 997
f 219 298 370
f 997 298 219
f 317 300 219
f 338 317 219
f 370 338 219
f 298 222 220
f 220 222 529
f 383 298 220
f 891 383 220
f 220 529 626
f 220 626 733
f 733 705 220
f 220 705 891
f 221 566 602
f 636 566 221
f 221 601 925
f 925 636 221
f 222 298 997
f 222 442 951
f 997 442 222
f 951 529 222
f 223 337 535
f 823 337 223
f 223 535 578
f 223 578 681
f 223 681 800
f 223 800 823
f 224 263 363
f 997 263 224
f 224 279 310
f 363 279 224
f 224 310 352
f 352 316 224
f 224 316 577
f 224 577 669
f 224 669 997
f 610 590 225
f 225 590 776
f 951 610 225
f 800 626 225
f 225 626 951
f 225 776 823
f 823 800 225
f 552 227 226
f 226 227 810
f 226 337 353
f 810 337 226
f 226 353 623
f 974 552 226
f 227 552 764
f 764 602 227
f 227 602 816
f 816 810 227
f 228 229 998
f 228 360 393
f 998 360 228
f 634 363 228
f 228 393 634
f 229 300 450
f 230 550 828
f 946 550 230
f 828 740 230
f 230 740 843
f 230 842 946
f 957 842 230
f 230 843 957
f 231 318 555
f 556 318 231
f 231 555 561
f 714 556 231
f 231 561 589
f 231 589 792
f 792 714 231
f 232 559 568
f 580 559 232
f 232 568 836
f 730 580 232
f 842 730 232
f 232 836 842
f 422 307 233
f 233 307 499
f 366 310 233
f 233 310 679
f 499 366 233
f 682 422 233
f 679 474 233
f 233 474 682
f 310 279 234
f 234 279 363
f 234 309 525
f 634 309 234
f 679 310 234
f 234 363 634
f 527 474 234
f 234 474 679
f 234 525 537
f 537 527 234
f 537 525 235
f 235 525 628
f 235 527 537
f 727 527 235
f 235 628 868
f 868 727 235
f 236 308 472
f 511 308 236
f 236 421 561
f 682 421 236
f 236 472 682
f 620 511 236
f 561 555 236
f 236 555 620
f 237 718 787
f 834 718 237
f 787 731 237
f 237 731 935
f 957 834 237
f 935 842 237
f 237 842 957
f 238 248 373
f 374 248 238
f 299 293 238
f 238 293 377
f 373 299 238
f 377 374 238
f 239 241 490
f 689 241 239
f 490 379 239
f 239 379 677
f 677 463 239
f 239 463 689
f 293 243 240
f 240 243 451
f 377 293 240
f 848 377 240
f 241 244 491
f 689 244 241
f 680 490 241
f 241 491 944
f 944 680 241
f 242 302 322
f 559 302 242
f 242 312 512
f 672 312 242
f 242 322 328
f 242 328 672
f 512 462 242
f 242 462 686
f 652 559 242
f 686 652 242
f 243 246 376
f 398 246 243
f 243 293 299
f 243 299 614
f 243 376 451
f 614 398 243
f 244 247 491
f 689 247 244
f 245 563 716
f 831 563 245
f 716 703 245
f 245 703 725
f 725 719 245
f 245 719 831
f 454 376 246
f 246 398 808
f 808 454 246
f 247 257 261
f 463 257 247
f 247 261 294
f 247 294 491
f 689 463 247
f 374 255 248
f 248 255 455
f 880 373 248
f 248 455 880
f 309 253 249
f 249 253 514
f 525 309 249
f 249 514 763
f 763 525 249
f 453 285 250
f 250 285 697
f 329 307 250
f 250 307 453
f 360 329 250
f 697 360 250
f 251 285 394
f 697 285 251
f 251 309 393
f 394 309 251
f 393 360 251
f 251 360 697
f 472 369 252
f 252 369 473
f 453 422 252
f 252 422 472
f 493 453 252
f 252 473 493
f 394 285 253
f 253 285 493
f 253 309 394
f 253 493 612
f 612 514 253
f 254 344 457
f 671 344 254
f 254 457 753
f 254 473 503
f 612 473 254
f 254 503 671
f 254 514 612
f 831 514 254
f 254 753 831
f 255 374 741
f 400 378 255
f 255 378 455
f 741 400 255
f 256 257 463
f 637 257 256
f 256 379 637
f 677 379 256
f 256 463 677
f 368 261 257
f 637 368 257
f 258 308 343
f 369 308 258
f 343 312 258
f 258 312 704
f 399 369 258
f 704 399 258
f 259 312 672
f 704 312 259
f 259 328 381
f 672 328 259
f 381 344 259
f 259 344 671
f 671 399 259
f 259 399 704
f 260 292 378
f 494 292 260
f 260 378 400
f 260 398 494
f 808 398 260
f 260 400 808
f 261 292 294
f 368 292 261
f 262 690 696
f 265 434 646
f 667 434 265
f 265 603 667
f 994 603 265
f 265 646 688
f 265 688 715
f 267 594 653
f 851 594 267
f 267 607 647
f 875 607 267
f 267 647 851
f 267 653 994
f 269 335 728
f 971 335 269
f 728 403 269
f 367 314 270
f 270 314 977
f 270 345 354
f 977 345 270
f 271 317 338
f 271 338 370
f 272 513 531
f 272 531 755
f 755 666 272
f 346 332 274
f 275 678 683
f 275 683 706
f 276 286 375
f 375 320 276
f 454 400 277
f 277 400 741
f 497 454 277
f 277 482 497
f 741 482 277
f 278 324 836
f 278 568 652
f 836 568 278
f 278 652 686
f 281 313 390
f 354 345 281
f 665 364 282
f 282 459 995
f 631 564 282
f 282 564 665
f 742 631 282
f 995 742 282
f 395 351 283
f 283 364 386
f 283 386 633
f 633 395 283
f 700 295 284
f 285 453 493
f 287 327 346
f 410 327 287
f 408 347 287
f 287 347 410
f 288 404 470
f 615 406 288
f 289 481 784
f 289 515 662
f 784 515 289
f 616 442 290
f 290 442 669
f 669 577 290
f 494 294 292
f 292 368 378
f 294 438 491
f 494 438 294
f 295 350 391
f 414 350 295
f 296 648 656
f 383 370 298
f 299 373 680
f 299 452 614
f 680 452 299
f 300 317 450
f 301 340 427
f 458 340 301
f 468 458 301
f 730 372 302
f 302 559 580
f 302 580 730
f 533 419 303
f 303 419 635
f 774 533 303
f 303 542 774
f 789 575 303
f 304 358 420
f 613 358 304
f 420 359 304
f 304 359 588
f 695 678 305
f 640 592 306
f 306 592 807
f 807 631 306
f 656 640 306
f 307 329 499
f 307 422 453
f 511 343 308
f 308 369 472
f 634 393 309
f 366 352 310
f 312 343 512
f 639 324 318
f 620 555 318
f 318 556 639
f 376 328 322
f 451 376 322
f 323 382 663
f 324 639 836
f 325 351 395
f 401 351 325
f 325 385 691
f 573 488 326
f 326 488 756
f 595 560 326
f 326 560 647
f 647 573 326
f 756 595 326
f 427 346 327
f 328 376 381
f 329 360 998
f 346 340 332
f 332 340 458
f 332 458 629
f 629 461 332
f 333 366 499
f 995 459 334
f 335 395 633
f 633 581 335
f 335 581 728
f 362 353 337
f 823 362 337
f 810 535 337
f 339 458 484
f 629 458 339
f 340 346 427
f 342 356 495
f 798 356 342
f 342 435 708
f 891 435 342
f 342 549 891
f 342 708 798
f 344 381 497
f 497 457 344
f 663 382 347
f 347 408 663
f 673 469 348
f 348 646 673
f 743 646 348
f 349 790 892
f 915 790 349
f 892 812 349
f 349 826 915
f 847 391 350
f 350 396 397
f 624 396 350
f 350 397 847
f 350 414 624
f 397 396 351
f 401 397 351
f 353 362 579
f 353 579 623
f 739 583 355
f 736 659 355
f 798 613 356
f 357 412 496
f 496 483 357
f 632 420 358
f 358 543 632
f 798 543 358
f 358 613 798
f 359 420 605
f 605 520 359
f 359 520 776
f 776 588 359
f 361 409 433
f 429 428 361
f 361 428 968
f 942 429 361
f 361 433 942
f 362 426 579
f 605 426 362
f 362 516 605
f 823 516 362
f 723 386 364
f 364 665 723
f 367 619 674
f 637 378 368
f 369 399 503
f 503 473 369
f 370 383 549
f 371 801 805
f 910 801 371
f 371 805 865
f 934 834 371
f 371 834 957
f 371 843 910
f 957 843 371
f 371 865 934
f 372 730 861
f 372 747 852
f 861 747 372
f 852 848 372
f 373 379 490
f 880 379 373
f 373 490 680
f 374 377 501
f 374 501 741
f 375 511 620
f 454 381 376
f 848 501 377
f 637 455 378
f 379 455 637
f 880 455 379
f 381 454 497
f 891 549 383
f 384 762 866
f 869 762 384
f 845 832 384
f 384 832 933
f 882 845 384
f 384 866 950
f 933 869 384
f 950 882 384
f 386 606 633
f 638 606 386
f 723 638 386
f 387 907 908
f 387 908 941
f 470 404 389
f 389 404 627
f 390 675 999
f 791 558 392
f 392 645 791
f 814 645 392
f 392 735 857
f 857 814 392
f 397 401 847
f 614 494 398
f 671 503 399
f 400 454 808
f 530 523 403
f 596 530 403
f 728 596 403
f 404 405 627
f 496 412 406
f 406 615 993
f 408 510 663
f 899 433 409
f 409 853 921
f 921 899 409
f 413 415 465
f 895 415 413
f 413 465 938
f 413 938 940
f 413 940 966
f 498 465 415
f 985 498 415
f 416 417 905
f 901 423 417
f 417 423 905
f 417 467 901
f 418 423 901
f 953 423 418
f 418 432 760
f 969 432 418
f 901 467 418
f 418 467 969
f 418 760 796
f 418 796 953
f 419 533 543
f 419 543 798
f 871 635 419
f 798 708 419
f 419 708 871
f 420 426 605
f 802 426 420
f 421 474 526
f 682 474 421
f 421 526 589
f 589 561 421
f 682 472 422
f 953 436 423
f 423 436 970
f 423 877 905
f 970 877 423
f 425 569 611
f 715 569 425
f 425 611 645
f 425 645 814
f 814 715 425
f 670 579 426
f 802 670 426
f 428 429 987
f 428 912 968
f 975 912 428
f 955 431 430
f 431 486 940
f 955 486 431
f 938 506 431
f 940 938 431
f 954 781 432
f 969 954 432
f 862 546 433
f 899 862 433
f 538 528 434
f 667 538 434
f 435 705 758
f 891 705 435
f 871 708 435
f 435 758 871
f 960 786 436
f 436 786 970
f 436 796 897
f 953 796 436
f 436 897 960
f 437 489 899
f 961 489 437
f 437 899 921
f 438 452 491
f 494 452 438
f 505 446 439
f 439 446 952
f 952 471 439
f 439 486 505
f 966 486 439
f 440 540 681
f 733 540 440
f 440 574 636
f 681 574 440
f 440 636 856
f 440 720 758
f 856 720 440
f 758 733 440
f 973 478 441
f 441 478 989
f 920 860 441
f 616 610 442
f 442 610 951
f 997 669 442
f 885 449 443
f 443 449 926
f 926 505 443
f 487 475 444
f 444 475 972
f 444 479 931
f 972 479 444
f 489 487 444
f 862 489 444
f 931 862 444
f 965 448 445
f 445 448 979
f 445 817 881
f 926 479 446
f 446 479 972
f 446 505 926
f 972 952 446
f 447 448 965
f 447 487 930
f 930 928 447
f 447 928 956
f 480 478 448
f 448 478 979
f 449 477 479
f 721 477 449
f 449 479 926
f 885 721 449
f 944 491 452
f 452 494 614
f 452 680 944
f 484 468 456
f 497 482 457
f 457 482 852
f 852 753 457
f 458 468 484
f 465 498 945
f 465 912 938
f 945 912 465
f 467 500 954
f 467 954 969
f 660 488 469
f 469 488 737
f 469 515 660
f 984 948 471
f 612 493 473
f 527 526 474
f 475 487 981
f 931 479 477
f 478 480 989
f 480 821 870
f 983 821 480
f 481 593 784
f 825 593 481
f 741 501 482
f 482 501 852
f 485 523 571
f 955 505 486
f 966 940 486
f 487 489 930
f 488 573 651
f 488 651 726
f 488 660 756
f 488 726 737
f 489 862 899
f 961 930 489
f 492 509 657
f 879 853 498
f 985 879 498
f 922 889 500
f 501 848 852
f 502 817 889
f 984 817 502
f 502 889 922
f 502 948 984
f 938 912 506
f 506 912 975
f 611 569 507
f 513 528 539
f 539 531 513
f 514 719 763
f 831 719 514
f 515 541 660
f 784 541 515
f 516 520 605
f 776 520 516
f 823 776 516
f 517 534 763
f 788 534 517
f 725 617 517
f 517 617 788
f 517 719 725
f 763 719 517
f 592 522 518
f 518 522 820
f 807 592 518
f 518 717 807
f 902 717 518
f 518 820 835
f 518 835 902
f 519 593 825
f 913 761 519
f 519 825 913
f 521 588 776
f 776 590 521
f 522 592 744
f 522 744 769
f 522 769 820
f 524 635 871
f 758 720 524
f 871 758 524
f 525 534 628
f 763 534 525
f 526 527 768
f 864 589 526
f 526 768 844
f 526 844 864
f 527 727 768
f 528 538 658
f 658 539 528
f 951 626 529
f 530 596 799
f 530 799 916
f 531 539 707
f 707 582 531
f 531 582 755
f 532 585 780
f 893 585 532
f 632 543 533
f 788 628 534
f 996 578 535
f 535 810 996
f 967 598 536
f 538 667 734
f 733 626 540
f 540 626 800
f 800 681 540
f 756 660 541
f 784 772 541
f 542 598 774
f 544 564 631
f 544 631 807
f 807 717 544
f 545 562 902
f 915 826 545
f 902 855 545
f 545 855 915
f 546 862 931
f 772 593 547
f 625 581 548
f 548 581 633
f 633 606 548
f 550 556 714
f 946 556 550
f 550 714 828
f 551 557 748
f 873 557 551
f 748 707 551
f 552 600 858
f 974 600 552
f 858 764 552
f 751 560 553
f 553 560 978
f 778 587 554
f 554 587 782
f 765 661 554
f 554 661 778
f 554 702 765
f 782 702 554
f 946 639 556
f 892 748 557
f 873 803 557
f 557 812 892
f 652 568 559
f 560 595 599
f 560 599 978
f 851 647 560
f 560 751 851
f 562 717 902
f 747 716 563
f 852 747 563
f 831 753 563
f 563 753 852
f 564 567 665
f 797 609 565
f 565 609 839
f 636 574 566
f 566 574 996
f 816 602 566
f 996 816 566
f 777 665 567
f 715 688 569
f 599 595 570
f 570 595 756
f 769 744 572
f 572 744 959
f 824 769 572
f 572 819 824
f 888 819 572
f 959 876 572
f 572 876 990
f 990 888 572
f 647 604 573
f 573 604 783
f 702 651 573
f 783 702 573
f 681 578 574
f 574 578 996
f 575 789 925
f 625 596 581
f 581 596 728
f 707 608 582
f 582 608 785
f 785 755 582
f 739 709 583
f 584 585 723
f 780 585 584
f 655 594 584
f 584 594 851
f 732 655 584
f 584 723 732
f 584 751 780
f 851 751 584
f 585 638 723
f 837 638 585
f 893 837 585
f 586 734 749
f 873 734 586
f 586 803 873
f 745 709 587
f 778 745 587
f 864 792 589
f 590 610 618
f 592 640 744
f 593 772 784
f 655 653 594
f 596 625 924
f 986 799 596
f 924 894 596
f 596 894 986
f 967 774 598
f 734 667 603
f 759 734 603
f 994 759 603
f 647 607 604
f 608 707 748
f 608 748 849
f 849 785 608
f 797 711 609
f 610 616 618
f 791 645 611
f 795 712 617
f 617 712 809
f 617 725 795
f 809 788 617
f 621 653 655
f 811 653 621
f 621 655 732
f 621 732 766
f 621 766 929
f 929 811 621
f 788 757 628
f 628 757 846
f 628 846 868
f 925 856 636
f 638 837 903
f 946 836 639
f 959 744 640
f 837 750 641
f 641 750 866
f 866 822 641
f 641 822 911
f 903 837 641
f 911 903 641
f 643 650 701
f 710 650 643
f 643 701 917
f 910 710 643
f 643 801 910
f 917 801 643
f 644 661 765
f 778 661 644
f 900 838 649
f 864 701 650
f 650 710 792
f 650 792 864
f 651 702 782
f 811 759 653
f 653 759 994
f 904 896 654
f 766 723 665
f 777 766 665
f 666 755 887
f 666 887 959
f 844 722 701
f 701 722 917
f 864 844 701
f 783 765 702
f 703 716 890
f 795 725 703
f 890 795 703
f 705 733 758
f 740 714 710
f 710 714 792
f 910 740 710
f 797 779 711
f 712 795 934
f 918 809 712
f 712 865 918
f 934 865 712
f 714 740 828
f 747 731 716
f 716 731 890
f 890 787 718
f 718 795 890
f 934 795 718
f 718 834 934
f 844 768 722
f 722 768 909
f 909 878 722
f 722 878 917
f 766 732 723
f 739 737 726
f 909 768 727
f 727 868 909
f 730 842 935
f 935 861 730
f 731 747 935
f 731 787 890
f 759 749 734
f 735 833 857
f 886 833 735
f 738 859 976
f 910 843 740
f 747 861 935
f 748 813 849
f 892 813 748
f 749 759 811
f 893 752 750
f 750 752 950
f 750 837 893
f 950 866 750
f 752 882 950
f 752 893 978
f 872 804 754
f 755 785 887
f 757 788 809
f 809 794 757
f 757 794 846
f 914 796 760
f 913 770 761
f 762 793 866
f 867 793 762
f 869 867 762
f 824 820 769
f 913 806 770
f 770 806 933
f 933 832 770
f 933 806 771
f 771 806 986
f 771 867 869
f 986 867 771
f 771 869 933
f 849 830 785
f 785 830 854
f 785 854 887
f 789 856 925
f 790 850 892
f 915 850 790
f 793 822 866
f 911 822 793
f 793 867 936
f 936 911 793
f 794 809 918
f 909 846 794
f 794 878 909
f 919 878 794
f 794 918 919
f 914 897 796
f 986 916 799
f 917 805 801
f 918 865 805
f 805 917 919
f 919 918 805
f 806 913 916
f 806 916 986
f 810 816 996
f 813 841 849
f 850 841 813
f 892 850 813
f 984 881 817
f 840 827 818
f 818 827 855
f 818 835 883
f 902 835 818
f 883 840 818
f 818 855 902
f 883 824 819
f 819 840 883
f 888 840 819
f 820 824 883
f 883 835 820
f 982 870 821
f 821 906 982
f 988 906 821
f 821 983 988
f 827 840 850
f 827 850 915
f 915 855 827
f 849 841 830
f 830 841 990
f 990 854 830
f 832 845 937
f 875 857 833
f 946 842 836
f 863 850 840
f 888 863 840
f 841 850 863
f 841 863 888
f 841 888 990
f 845 882 937
f 909 868 846
f 853 879 921
f 854 876 887
f 990 876 854
f 867 894 936
f 986 894 867
f 959 887 876
f 919 917 878
f 881 984 992
f 894 924 936
f 898 903 911
f 898 911 936
f 936 924 898
f 988 960 906
f 928 930 961
# 1990 faces, 0 coords texture

# End of File
