####
#
# OBJ File Generated by Meshlab
#
####
# Object 39929_sf_a.obj
#
# Vertices: 999
# Faces: 1990
#
####
v -40.0000000 -40.0000000 0.0000000
v -40.0000000 -40.0000000 10.0000000
v -40.0000000 -30.0377998 10.0000000
v -40.0000000 -29.6943436 4.5995011
v -40.0000000 -20.0000000 10.0000000
v -40.0000000 -19.9781418 20.5630226
v -40.0000000 -20.0000000 30.0000000
v -40.0000000 -15.4229174 29.9854145
v -40.0000000 -14.2387123 24.6823120
v -40.0000000 -10.0000000 21.0193443
v -40.0000000 -9.9993553 10.0006504
v -40.0000000 -9.9993553 29.9993591
v -40.0000000 -5.1952901 10.0000019
v -40.0000000 -0.0006447 10.0006504
v -40.0000000 0.0366700 14.2372818
v -40.0000000 0.0000000 20.0000000
v -40.0000000 4.6605902 9.3989935
v -40.0000000 5.0126042 20.0000000
v -40.0000000 10.0000000 0.0000007
v -40.0000000 10.0000000 8.5956726
v -40.0000000 10.0000000 20.0000000
v -34.9653664 -16.5171528 0.0000000
v -35.6711006 -0.0006447 10.0006504
v -35.5209694 -40.0000000 10.0000000
v -31.4757938 -20.0004253 10.0004292
v -35.1411285 -20.0000000 30.0000000
v -35.0000000 -16.5000000 25.0000000
v -35.0000000 -16.2990494 24.2500000
v -35.0000000 -16.2990398 25.7500000
v -35.0000000 -15.7500000 23.7009602
v -35.0000000 -15.7500000 26.2990303
v -34.8957520 -15.0000000 23.5000000
v -34.9855461 -15.0412951 26.4889336
v 9.9999580 13.7874193 11.9986658
v -35.0000000 -14.2500000 23.7009602
v -35.0000000 -14.3333750 26.3213711
v -35.0000000 -13.7009697 24.2500000
v -35.0000000 -13.7330198 25.7820606
v -35.0000000 -13.5438652 24.8362942
v -35.0000000 -13.5911760 25.3402596
v -33.9389343 -20.0000000 23.1105423
v -34.9697609 -9.9993553 29.9993591
v 19.8617840 40.0000000 4.6281390
v -34.6774216 10.0000000 20.0000000
v -34.5469513 10.0000000 8.7588301
v -34.2137108 0.0000000 20.0000000
v -33.7151947 -13.5035124 25.0130997
v -33.1177406 -15.7842321 29.9998646
v -33.4501305 -13.7624741 25.8115139
v -33.1518250 -15.8103724 23.7613316
v -32.8073349 -14.3260765 23.6805763
v -32.2168465 -15.0737991 23.5197754
v -32.8557091 -9.9721117 10.0007753
v -32.3938065 -14.2500000 26.2990303
v -33.5277939 -16.2990398 25.7500000
v -32.5544472 -13.7185659 24.2324047
v -32.2655792 -15.7417641 26.3012371
v -32.4173889 -16.3087215 24.2860966
v -31.2508011 -15.0915413 26.4754715
v -31.2289028 -16.4971409 25.0106697
v -31.3412151 -13.5212812 24.9205723
v 19.8387108 35.0000000 10.0000000
v -30.0000000 -40.0000000 0.0000000
v -30.0000000 -40.0000000 10.0000000
v -30.0000000 -31.2474804 10.0000000
v -30.0000000 -32.1126289 0.0000003
v -30.0000000 -30.2985859 4.6531591
v -30.0000000 -20.3225803 10.0000000
v -30.0000000 -20.0000000 0.0000000
v -30.0000000 -20.0000000 10.3225803
v -29.9999523 -17.0688515 27.3874073
v -29.9999104 -15.2502203 21.5800171
v -29.9998703 -12.1505804 25.7435741
v -30.0000000 -10.0000000 0.0000000
v -30.0000000 -10.0000000 10.3225803
v -30.0000000 -10.0000000 18.8961697
v -30.0432377 -3.3365612 10.0000515
v -30.0000000 1.2071590 0.0000007
v -30.0000000 -0.0006447 10.0006504
v -30.0000000 0.0000000 15.3637953
v -30.0000000 0.0000000 20.0000000
v -30.0000000 3.7449610 20.0000000
v -30.0000000 10.0000000 0.0000007
v -30.0000000 10.0000000 11.5864391
v -30.0000000 10.0000000 20.0000000
v 10.0000000 20.0000000 11.2785130
v -29.9993591 -20.0006409 6.5720353
v -29.9993591 -20.0000000 29.9993591
v -29.9993610 -17.7776279 10.0193834
v -29.9994087 -16.4864845 24.9495583
v -30.0490665 -16.3279133 24.3577251
v -29.9993591 -16.2990398 25.7500000
v -29.9995785 -15.8382711 23.7484875
v -29.9993591 -15.7500000 26.2990303
v -29.9993591 -15.0000000 23.5000000
v -29.9993591 -15.0000000 26.5000000
v -29.9993591 -14.2500000 23.7009602
v -29.9993591 -14.2500000 26.2990303
v -29.9993591 -13.4481058 29.9993591
v -29.9993591 -13.7009697 24.2500000
v -29.9993591 -13.7009697 25.7500095
v -29.9993591 -13.5000000 24.9999905
v -29.9993591 -10.0000000 29.9993591
v -29.9823093 -9.9876814 8.2086668
v -29.6774197 -10.0000000 10.0000000
v -12.2019920 -20.0000000 0.0000007
v -24.6023693 -20.0000095 10.0353060
v -11.1924143 -20.0000000 4.8738599
v -17.1332302 -10.0000000 10.0000000
v -18.0649891 -15.0087385 0.0000000
v -14.6824579 -10.0000000 0.0000002
v 30.0000000 35.1694069 19.1826019
v -0.0006447 -9.9993553 0.0000007
v -0.0006447 -9.9993553 10.0000000
v 0.0000000 -40.0000000 0.0000007
v 0.0000000 -40.0000000 10.0000000
v 0.0000000 -31.7572918 0.0000004
v 0.0000000 -31.1214695 10.0000000
v 0.0000000 -20.0000000 0.0000000
v 0.0000000 -20.0000000 10.0000000
v 0.0000000 -4.5161290 10.0000000
v 0.0000000 0.0000000 0.0000007
v 0.0000000 0.0000000 5.2094131
v 0.0000000 0.0000000 10.0000000
v 5.7343016 -22.0539188 10.0000000
v 5.0403209 -40.0000000 10.0000000
v 5.2797389 -40.0000000 0.0000007
v 5.1223168 0.0000000 0.0000007
v 5.5589752 -33.9712105 0.0000000
v 9.9998465 10.0003204 17.2964973
v 9.9994106 14.5199032 39.9993591
v 9.9993525 20.0000000 39.9993591
v 10.0000000 -39.9727440 0.0000007
v 10.0000000 -40.0000000 5.7510090
v 9.9512281 -40.0000000 10.0000000
v 10.0000000 -24.5844231 4.6862626
v 10.0000000 -16.6665516 0.0000000
v 10.0000000 -16.5679035 10.0000000
v 10.0000000 0.0000000 0.0000007
v 10.0000000 0.0000000 10.0000000
v 10.0000000 10.0000000 0.0000007
v 10.0479937 10.0006399 39.9993591
v 9.9999876 16.3390236 33.5086098
v 10.0000000 20.0000000 0.0000007
v 10.0000000 20.0000000 20.7836971
v 10.0000000 30.0000000 0.0000007
v -19.3214798 -10.0000000 5.8357391
v 10.0000000 30.0000000 10.0000000
v 10.0000000 40.0000000 0.0000007
v 10.0000000 40.0000000 10.0000000
v 12.4748068 16.8705235 39.9998474
v 17.4054909 20.0000000 0.0000000
v 26.8932705 40.0000000 0.0000004
v 26.4100266 10.0000000 0.0000001
v 13.4143190 12.9686422 39.9997253
v 13.5000095 15.0000000 25.0000000
v 13.5143070 14.9466391 32.6560287
v 13.5222483 15.0830116 39.0697212
v 13.4965277 15.0431242 39.9993591
v 20.0000000 40.0000000 10.0000000
v 13.7104053 15.7046127 39.9993629
v 13.7009497 15.7499800 25.0000000
v 13.6973724 15.7366285 35.8795433
v 13.7009602 14.2500095 25.0000000
v 13.7246008 14.2263689 31.0342865
v 13.7120161 14.2389536 38.9966812
v 13.6499748 14.3422718 39.9993591
v 20.6542301 30.0000000 9.9972439
v 14.0871582 13.8092766 39.9993744
v 14.1935501 16.2425804 39.9993591
v 14.3062716 16.3141193 25.0404072
v 14.2241898 16.2732296 32.1332779
v 14.2500200 13.7009497 25.0000000
v 14.2500200 13.7009497 32.4150085
v 15.3670702 20.0006485 39.9877510
v 13.9909925 10.0001659 33.7695160
v 14.6875000 10.0006399 39.9993591
v 15.1045294 14.9523716 25.0000000
v 14.7934551 13.5553446 39.9993591
v 14.8290548 16.4542007 39.9993591
v 15.0131464 13.5035219 25.0464134
v 15.0000000 13.5000000 28.3926697
v 15.0493221 13.5132151 34.4995995
v 15.0968685 13.5259562 39.1127548
v 15.0000000 16.5000095 25.0000000
v 15.0800600 16.4785576 26.5225754
v 15.0407228 16.4890976 30.9006577
v 15.0164566 16.4955997 38.7792778
v 15.2779245 13.5744696 39.9993591
v 15.3583612 16.4039803 39.9934387
v 14.6584167 20.0000000 23.7592010
v -29.9996815 -24.7825680 6.3228908
v 15.7499905 16.2990398 25.0000000
v 15.7021990 16.3118458 28.5713329
v 15.7499905 16.2990398 37.4301910
v 15.7500000 13.7009602 25.0000000
v 15.7248249 13.6942148 29.8681164
v 15.8283224 13.7792816 38.8890381
v 15.8064404 16.2425804 39.9993591
v 15.8661823 13.7483225 39.9993744
v 16.3531742 15.6723137 39.9993591
v 16.1185760 14.0695400 39.9885597
v 16.3110943 14.2950001 33.7253952
v 16.2897167 15.7153492 29.1173935
v 16.2627163 15.7397976 25.0000000
v 16.2264156 15.8225994 38.7475586
v 16.3046227 14.2708559 25.0000000
v 16.2990398 14.2500200 26.9765625
v 16.3186722 14.3232822 39.1151237
v 16.3703499 14.5161304 39.9993591
v 16.4567909 15.1203909 39.9993591
v 16.5000191 15.0000000 25.0000000
v 16.4881763 15.0441942 32.0241089
v 16.4756298 15.0910130 39.1480026
v 16.1826210 17.7174301 39.9999657
v 15.7862625 14.8874397 0.0000001
v 16.9171638 13.0398912 39.9997292
v 20.1128311 29.9999847 0.0524146
v 20.0000000 10.0000000 10.0000000
v 20.0000000 10.0001497 24.4241409
v 20.0000000 10.0006399 39.9993591
v 20.0000000 13.5902205 21.2501163
v 20.0000000 17.2958279 32.3832970
v 20.0311241 20.0000000 9.9486666
v 20.0000000 20.0000000 26.6563778
v 20.0000000 20.0006504 39.9993591
v 20.0006218 15.5143509 39.9831161
v 27.5513916 10.0398102 10.0000000
v 24.6365814 10.0000000 4.3138819
v 29.6774197 30.0000000 10.0000000
v 29.9993496 29.9993496 6.9136224
v 29.9459209 33.2407494 10.0005512
v 30.0000000 20.0000000 0.0000000
v 30.0000000 20.0000000 10.0000000
v 30.0000000 24.3351974 10.0000095
v 30.0000000 30.0000000 0.0000000
v 30.0000000 30.0000000 10.3225803
v 30.0000000 30.0000000 33.3378258
v 30.0000000 30.0000000 50.0000000
v 30.0000000 35.3367653 24.3159504
v 30.0000000 35.1536751 46.2216492
v 30.0000000 40.0000000 10.0000000
v 30.0000000 39.9612007 29.1611633
v 30.0000000 40.0000000 50.0000000
v 34.3560333 29.9993496 10.0049944
v 35.5235062 40.0000000 28.8624496
v 34.0927391 40.0000000 50.0000000
v 35.0009193 30.0000000 35.7412109
v 35.6794319 23.3121452 10.0000000
v 40.0000000 10.0000000 0.0000007
v 40.0000000 10.0000000 10.0000000
v 40.0000000 25.5141106 0.0000002
v 40.0000000 21.8031693 10.0000000
v 40.0000000 30.0000000 10.0000000
v 40.0000000 30.0000000 31.8422375
v 40.0000000 30.0000000 50.0000000
v 40.0000000 34.9936981 50.0000000
v 40.0000000 40.0000000 0.0000000
v 40.0000000 40.0000000 9.8651733
v 40.0000000 40.0000000 35.0497704
v 40.0000000 40.0000000 50.0000000
v 4.5544081 0.0000000 4.8977356
v 20.0155621 15.0000000 9.9743338
v -34.8986092 4.4758735 20.0000000
v -33.5364151 -9.9998369 16.4381962
v 10.0000000 30.0000000 4.6863508
v -29.9998798 -13.5719929 16.2563744
v -30.0000000 -40.0000000 5.0000000
v -21.1009960 -20.0000000 0.0000003
v 10.0000000 -9.5279760 0.0000003
v 9.9999580 10.0000420 9.4026337
v -35.1804085 -4.2673497 10.0001402
v 20.1847229 29.9998531 4.9329214
v -34.9475174 -10.7686586 0.0000000
v 14.9193554 35.0000000 10.0000000
v 17.5782814 40.0000000 0.0000002
v 40.0000000 34.1322708 24.5978680
v 24.5778160 34.0903168 10.0003090
v 25.0000000 20.0000000 10.0000000
v -31.3770275 -14.4594851 0.0000000
v 10.0000000 -8.3303928 10.0000000
v -24.3822403 -9.9998226 5.2532115
v -17.2976551 -15.1844721 10.0000000
v -5.7602544 -14.8034744 0.0000000
v 40.0000000 15.3877344 5.4409094
v 22.2487526 40.0000000 0.0000003
v -40.0118294 -18.1860657 0.0000001
v 10.0000000 -32.2129517 5.6668158
v -34.9532661 -25.7468204 10.0000000
v 14.7687216 20.0000000 16.2042866
v -0.0003124 -25.2767124 4.1893692
v 40.0000000 40.0000000 42.5248833
v 30.0000000 33.5075684 29.3797016
v 36.1108589 40.0000000 45.3458290
v -7.2701774 -10.0000000 0.0194964
v -30.0000000 6.0942264 5.1990051
v -34.7825356 -0.0000554 15.3513021
v 20.0000000 10.0000753 17.2120705
v 30.0000000 36.1361694 34.9758492
v 19.4016190 10.0000000 5.0000000
v -40.0000000 -3.5516486 5.3331051
v 29.9996948 35.8155708 14.2768068
v 9.9999676 10.0005732 35.2334900
v 9.9998388 20.0000000 25.8758163
v 13.8021173 40.0000000 2.5000002
v -29.9997540 -4.3440647 4.0776448
v 34.6210938 16.3608665 0.0000002
v 35.3473816 35.2989120 0.0000000
v 35.4780121 16.3203621 10.0000000
v 25.6615238 20.0001717 5.5140657
v -35.7247963 -40.0000000 4.4878836
v 34.5867081 40.0000000 5.0400481
v 5.7789826 -6.1496339 10.0000000
v 5.6683950 -6.0329590 0.0000001
v 10.0000000 34.9434357 4.9850044
v 15.3282776 20.0000000 5.9603100
v 14.9025297 10.0000000 4.6559782
v 25.4191475 29.9996758 6.0509319
v -40.0000000 -35.6947021 6.1157618
v 14.8948364 34.7620811 0.0000002
v 15.0976591 30.0000000 5.0719099
v 30.0000000 40.0000000 16.9261856
v -34.8514023 -35.5956154 0.0000000
v 24.7580643 30.0000000 10.0000000
v -6.8787832 -20.0000019 10.0000000
v -30.0000000 -20.0000000 14.5855894
v -40.0000000 -15.2174225 5.3527861
v 35.0866508 40.0000000 15.1112041
v 33.2050133 10.0000000 0.0000004
v 10.0000000 -20.9067402 7.2583241
v 14.6639462 30.0000000 0.0000005
v -36.0909081 -6.0386586 0.0000001
v 21.8370037 14.0574589 0.0000001
v -25.0098934 -14.2002754 0.0000000
v -17.7060909 -20.0000000 5.5298448
v 0.0000000 -35.7434731 5.6266637
v 20.0000000 20.0000000 33.7845421
v 14.9323473 10.0000000 9.3122730
v -35.4433823 5.6158748 0.0000003
v -40.0060234 -5.7093668 0.0000004
v -30.0000000 -35.7509575 5.9651327
v 9.9994593 10.0005350 23.9998150
v 33.2647972 40.0000000 0.0000002
v 40.0000000 34.8704147 14.5120859
v 10.0000000 -4.6961536 4.7193060
v -40.0000000 -10.8877230 0.0000003
v -39.9922752 -25.2219601 0.0000000
v -40.0000000 -15.1628370 16.3832340
v -29.9995918 -9.3451824 10.0004177
v -8.4380579 -10.0000000 6.5167561
v -10.8995380 -13.4940386 10.0000000
v 20.9531345 20.0000000 3.6927054
v 17.6963692 20.0000000 35.8508186
v 10.0000000 -11.4745188 5.1627126
v -40.0000000 -20.0000000 25.5355358
v 9.9998150 14.5934610 23.1384087
v 5.2747765 -22.9617424 0.0000000
v 9.9998608 16.3486099 28.4835701
v 13.4451962 20.0000000 29.0534687
v 34.3360748 10.0000000 5.7073932
v 14.2644033 16.3028984 37.1594467
v 16.4495144 20.0000000 33.3001633
v 25.3115826 15.8332624 10.0001860
v -23.3240948 -10.0000000 10.0000000
v -30.0000000 -35.6237411 10.0000000
v 23.7027454 20.0000000 0.0000000
v 5.3389120 -13.1300001 0.0000000
v 40.0000000 36.0545387 44.8582115
v 40.0145302 33.5598679 0.0000001
v 14.7509794 10.0000000 14.5589418
v 29.9997101 28.6579762 10.0002966
v 30.0003090 30.0003090 16.4950924
v 30.0000000 30.0000000 39.1748466
v 34.1965027 30.0000000 28.6471653
v 22.7735233 34.8464546 0.0000001
v 34.5658989 40.0000000 22.9380684
v 30.0000000 30.0000000 25.7271824
v 40.0000000 35.0705490 38.5988007
v 35.3095131 30.0000000 44.6082230
v 0.0000000 -35.5607338 10.0000000
v 40.0000000 40.0000000 17.4945450
v -40.0000000 -32.3137512 0.0000000
v 16.4923897 10.0000000 21.3388805
v -28.6405830 -20.0002689 10.0002680
v -5.4332280 -20.0000000 0.0000007
v -22.7224426 -14.9246254 10.0000000
v -32.8479805 -15.0131044 26.4964886
v -31.1798973 -13.7009697 25.7500095
v 6.6684332 -34.7940178 10.0000000
v 6.1098137 -12.4027824 10.0000000
v -4.1244764 -9.9997311 4.8221726
v -29.9996681 -10.0000000 24.6546860
v 33.8370132 10.0000000 10.0000000
v 40.0000000 16.3190327 10.0000000
v -12.7532492 -20.0000000 10.0000000
v -11.6058302 -9.9997959 10.0000000
v -8.3474588 -10.0000000 10.0000000
v 35.4221687 40.0000000 33.1345367
v 40.0000000 36.5926399 5.2233953
v 40.0000000 35.8192368 30.2592640
v -4.9430113 -14.5705690 10.0000000
v 10.0000000 15.2692070 5.9265523
v -25.8323460 -20.0002041 3.9166248
v 10.0000000 -30.2069092 10.0000000
v 10.0000000 -24.1893082 10.0000000
v 10.0000000 -31.1510983 0.0000000
v -30.0000000 10.0000000 5.7932200
v -35.0023575 -22.7918110 0.0000000
v 14.2500000 16.2990398 35.2416039
v -40.0000000 -22.5104465 4.8320169
v -35.4602928 10.0000000 14.6427269
v 10.0000000 -23.7103767 0.0000000
v 14.2500200 13.7009497 35.0691376
v -11.0890512 -10.0000000 2.8361113
v 13.6954527 14.2705622 33.8569565
v 13.7009497 15.7499800 32.1577301
v 13.5220404 15.0822296 30.8907433
v 13.5032043 14.9880762 28.1494656
v 9.9993525 10.0006399 30.4631443
v 9.9996786 20.0000000 30.5356541
v 29.9997368 26.6478348 3.9270751
v 35.4777451 22.4806023 0.0000001
v 13.6726904 15.6445122 29.3942623
v -40.0000000 6.1373701 13.8879099
v -34.6108856 -9.9997263 23.4239330
v 12.9530935 20.0000000 34.8023682
v -40.0000000 -9.1300650 5.0785618
v 13.7009497 15.7499800 38.0574760
v 14.2500000 16.2990398 38.6341438
v 14.3178816 13.6827679 39.1225586
v 14.2610340 13.6979990 37.7159348
v 13.6993914 14.2558651 27.1209812
v 15.0999212 16.4732361 36.1323090
v -36.3900185 -9.9995823 13.0088186
v 14.3097343 10.0003214 27.0570316
v 14.2500000 16.2990398 28.3518333
v 14.8788633 16.4675484 33.1622467
v 32.7977715 40.0000000 42.1278877
v 15.7500000 13.7009602 35.6399117
v 20.0003510 10.0203638 31.4850311
v 15.7500000 13.7009602 27.7842350
v 20.0000000 20.0000000 18.4508419
v 16.3166504 14.3157349 38.1385269
v 16.2196903 15.8293219 34.6760788
v 16.2917004 14.2469797 30.8349304
v 16.3035812 14.2669630 35.9837799
v 16.3054619 15.7206049 31.0762806
v 16.4899273 15.0376654 29.6538677
v 16.5000191 15.0000000 37.8840485
v 18.8032379 10.0000000 0.0000004
v 30.0000000 40.0000000 22.7470455
v 30.0000000 40.0000000 39.1748466
v 40.0000000 18.1249046 0.0000004
v 40.0000000 40.0000000 25.6150532
v 40.0000000 30.0000000 39.8366089
v -40.0000000 6.5021791 5.1873183
v 40.0000000 30.0000000 17.0767307
v -40.0000000 -0.8577872 0.0000005
v -20.8848267 -10.0000000 0.0000000
v -35.2203865 10.0000000 3.9114132
v -30.0000000 -4.3964205 0.0000003
v 25.2583389 40.0000000 6.2985897
v 34.9679832 33.4069633 50.0000000
v 6.1716046 -40.0000000 4.0927653
v 13.6962328 14.2676497 35.5155106
v 0.0000000 -25.5607357 10.0000000
v 13.6773605 14.3380785 29.4343033
v -40.0000000 1.8300648 4.5264897
v -40.0000000 -20.0000000 15.0311289
v 10.0000000 -35.5967102 10.0000000
v 15.7500219 13.7009821 33.8715973
v 35.0854759 28.6897182 0.0000000
v 40.0000000 27.6867638 4.4120121
v 29.9997711 22.8699284 4.1416869
v 16.4727058 15.1019230 33.9486580
v 15.7796545 16.2693710 38.8504868
v 16.3251972 15.6523438 37.6007004
v 16.2705441 14.2263269 28.7906513
v 16.4765110 15.0877256 36.4016800
v 16.4913731 14.9677315 27.8787556
v -30.0000000 -25.7850304 10.0000000
v 40.0000000 29.9997120 22.1650314
v 0.0000000 -25.4574108 0.0000002
v -40.0000000 4.5711064 0.0000006
v -29.9995365 -22.5111122 3.7285216
v 15.0207243 13.5055532 36.9339867
v 16.3146973 15.6915216 32.7369614
v -34.4177017 -20.0000000 16.4490108
v 15.7679739 16.2942200 33.5487480
v 30.0000000 30.0000000 44.4328766
v 30.0000000 40.0000000 45.8177567
v -36.6756859 -35.2543945 10.0000000
v 40.0000000 22.8790131 4.8484402
v 34.8123665 40.0000000 38.1175995
v 10.0000000 15.0944567 18.5585041
v 5.0535002 -28.8646870 0.0000001
v 40.0000000 35.9078178 20.6079216
v 13.5012941 14.9952068 34.6421242
v 27.9911194 14.6247120 0.0000000
v 14.2380381 13.7129316 29.5062027
v 35.2069397 30.0000000 23.1759701
v 14.9873133 13.5033989 31.8966198
v 40.0000000 32.5471458 5.2522292
v 10.0000000 20.0000000 5.0424523
v 15.8002453 13.7512045 37.3382378
v 13.7009602 14.2500095 37.7327385
v -40.0000000 -9.9996777 25.7484608
v -30.0000000 4.9445872 15.3047276
v -33.0027962 -34.7209625 10.0000000
v -30.0000000 -25.2400455 0.0000002
v 29.3769875 35.0596809 0.0000000
v 29.6465797 40.0000000 4.8183250
v -36.3594475 -7.5359669 10.0002670
v 36.9601097 26.5704613 10.0001345
v -35.8104172 -20.0002174 10.0002184
v 17.0878525 20.0000820 30.8076267
v 32.6659431 26.9590359 10.0003290
v -29.9996109 -7.0514913 7.6854248
v -29.9998264 -21.2189751 9.1294889
v 15.4306040 20.0000000 29.8833103
v 15.8142471 20.0000000 25.9997406
v -29.9997139 -5.9546318 8.2253208
v -29.9993591 -20.0006409 3.9697821
v 15.2023897 10.0001745 30.7950535
v 32.1765633 23.1360989 10.0000038
v 29.9998474 25.6535358 6.7000875
v 30.0000000 23.6294708 8.1744099
v -36.4278526 -9.9857330 10.0007124
v 20.0000000 13.9475460 23.9690266
v -28.2094898 -20.0004520 5.7217245
v -34.2201843 -6.8458591 10.0001001
v -29.0868340 -17.2111740 10.0098581
v 9.9997921 13.7228003 33.6969185
v 32.0225258 25.3593426 10.0001535
v 20.0001583 16.8965359 34.7974434
v 9.9993525 17.4861355 39.9993591
v 30.0000000 22.9599228 10.0000067
v -34.5665741 -9.9858379 11.3805609
v -34.0446281 -8.6312647 10.0004377
v 20.0000134 12.3665028 29.0143681
v -33.6431084 -20.0003223 10.0003242
v 9.9994612 14.1276674 37.8560600
v 9.9997702 13.2433176 30.1431885
v -29.9995193 -9.9995165 6.0786290
v -29.8204975 -9.2555399 9.3774052
v 15.7544861 16.2978344 36.4052048
v -30.7571716 -21.0109787 10.0000000
v -21.9453297 -20.0000076 10.0242052
v 12.9213705 10.0000849 20.5229073
v 29.1352501 29.9998035 9.2084436
v -31.5841618 -8.8251743 10.0669994
v 18.7403660 15.9650097 39.9995117
v -29.9994259 -17.9902592 10.9513187
v -29.9997253 -20.0000000 24.3588638
v 28.0468540 29.9994946 4.2736554
v 28.4352283 29.9996033 8.3929996
v -30.7139263 -9.2852230 10.2066431
v -29.9995384 -10.0382776 27.0772877
v 29.9997044 36.4914589 10.0002966
v -29.9995747 -18.6148262 11.8608160
v 29.9993496 29.9993496 4.3094392
v -29.9506054 -8.9420013 8.7039690
v 34.6177444 29.9995308 12.5478611
v -28.0624962 -9.9995165 6.6356997
v -36.9095001 -13.0128889 29.9997272
v 20.0006180 12.6411448 37.2301674
v -28.4708290 -9.9995813 8.7709188
v 27.9342976 34.0373650 10.0005188
v -37.0776520 -9.9999247 22.6364403
v -30.9883003 -20.0000172 11.3039551
v -29.9994793 -21.7087288 5.8286552
v -29.8850861 -5.8580356 10.0000067
v -29.9999962 -19.9867458 19.1197090
v 20.0003586 13.1616106 34.1457062
v 12.9055662 10.0006399 37.9783134
v -31.6421299 -14.7516403 29.9995975
v 15.6646519 20.0000000 11.7850876
v 20.0001755 15.4114027 33.6468620
v 14.5682230 20.0000420 36.2445374
v 29.9994888 34.3872490 11.8043232
v -21.7408924 -20.0000057 7.5488286
v -32.6515961 -6.7881966 10.0000448
v -37.3380585 -20.0000000 26.4494381
v -29.9825516 -14.8427229 10.0006266
v -28.1743069 -16.6447182 10.0003338
v -30.7139263 -9.9930277 10.7714596
v -31.9440861 -20.0000000 25.0514278
v 13.8804207 20.0000000 26.6586914
v 29.9995728 28.0457039 6.1555486
v 17.7287998 20.0000000 25.0696297
v -40.0000000 -14.3025742 27.7770367
v -29.9997444 -5.1095142 7.2717223
v -30.0000000 -22.3866482 10.0000000
v -29.9996052 -14.1135454 12.7674637
v -30.0000000 -20.0000000 12.1687822
v -25.8146152 -20.0002041 7.4798388
v -40.0000000 -12.1556044 22.7972889
v 9.9995689 16.3466339 38.2476616
v -30.0000000 -20.0000000 11.2456808
v 17.2941399 15.5912848 39.9993591
v 17.0174427 10.0271454 39.9993668
v 20.0003452 12.7796240 39.9577370
v -31.7384949 -9.9996405 13.9287233
v -30.0000000 -17.1671429 19.7918262
v 14.1283646 20.0000000 31.7031651
v -23.6968555 -17.7853203 10.0000000
v -29.9998741 -15.3322973 18.5818329
v -31.6034317 -7.4454303 10.0000687
v -34.8110466 -14.4700689 29.9998245
v 20.0000000 20.0000000 22.5536098
v -35.8682747 -9.9996357 26.1855392
v 40.0000000 25.9551907 10.0000000
v 9.9998236 16.3843632 25.5010281
v 30.0000000 40.0000000 34.7018967
v 10.0000000 -35.9550552 3.2103813
v 15.5387573 20.0000000 20.4863949
v 31.8796444 27.5490932 10.0056152
v 17.1171646 20.0000000 23.0357895
v 4.5613494 -18.2214165 0.0000000
v 24.8481598 30.0000000 0.0000002
v -29.9952602 -11.7481461 10.0004368
v -40.0000000 10.0000000 13.9832182
v 16.6295662 20.0002575 37.6705284
v -14.7135115 -10.0000000 5.0594664
v -23.7494984 -20.0000076 8.7228527
v 20.0000000 14.6839361 26.6839924
v 5.0000000 -30.0381832 10.0000000
v 30.8647022 25.2338428 10.0001087
v -34.2122574 -0.4549125 0.0000002
v 2.8423643 -36.2920609 10.0000000
v -29.9996796 -9.9996777 4.0524197
v 9.9999342 15.3578033 30.9597988
v -19.0420685 -20.0000057 10.0000000
v 30.6645298 14.5637989 10.0000000
v 12.0937223 10.0003500 32.3275795
v 20.0001926 10.0005131 35.9575729
v 40.0000000 30.0000000 44.9183044
v -25.7468510 -16.9872875 10.0000181
v 27.2177429 30.0000000 10.0000000
v -29.9999657 -2.9516811 8.0471802
v -26.8188953 -19.6250267 10.1098413
v -32.6113358 -0.0003221 12.6270342
v 29.8661308 27.9030437 9.4593229
v -29.9999924 -17.5621223 25.6585121
v -32.9719887 -9.9996500 24.9075451
v -40.0000000 -10.0000000 15.4016695
v -29.9998703 -17.0149784 16.5323257
v -30.0000000 3.8961465 10.2422600
v 12.4241648 15.4945135 39.9994240
v 29.9191093 27.9266624 8.6849957
v -32.4990768 -20.0000000 20.5571117
v 27.2295685 36.8487206 10.0002785
v -29.9995518 -12.2097397 12.5571098
v -32.8792076 -16.4995556 25.0016594
v -29.9994831 -13.3914747 11.3867025
v -30.0000000 0.6139394 6.1173220
v -35.4002457 -31.3273239 10.0000000
v -34.3157692 -9.9993553 10.0006504
v -40.0000000 -17.2703876 23.4532547
v -35.5834618 -20.0003242 13.3890619
v -29.9998379 -18.9615517 24.9120140
v -40.0000000 -25.1741600 10.0000000
v -35.1307526 -29.7317677 0.0000000
v 10.0000000 -17.0693665 5.0000000
v -26.5007572 -10.0000000 10.0000000
v -31.8938427 -3.3055472 10.0001163
v -33.6208076 -9.9996204 13.5104342
v -0.0000447 -30.8688507 4.9648871
v 20.0000000 20.0000000 14.5519342
v 12.3535175 20.0002975 37.4509048
v 40.0000000 34.4872284 8.8224516
v 34.6837311 40.0000000 9.8522835
v -40.0000000 -15.1181250 11.1942091
v 0.5989510 -14.8985825 0.0000000
v 0.2991720 -14.9031706 10.0000000
v -35.0000000 10.0000000 0.0000007
v 35.0000000 30.0000000 50.0000000
v 15.6221876 40.0000000 10.0000000
v 30.0000000 20.0000000 5.0000000
v 30.0000000 34.7255783 39.4997139
v 20.0000896 14.1157064 31.4008770
v 30.0000000 25.0000000 0.0000000
v 10.0000000 35.0000000 10.0000000
v 10.0000000 35.0000000 0.0000007
v 10.0000000 15.0000000 0.0000007
v 25.0000000 40.0000000 10.0000000
v -35.0000000 -40.0000000 0.0000000
v -36.8659172 -10.0000000 18.8584557
v 30.0000000 35.0000000 50.0000000
v 5.0000000 0.0000000 10.0000000
v 0.0000000 -20.0000000 5.0000000
v -40.0000000 -40.0000000 5.0000000
v 0.0000000 -40.0000000 5.0000005
v -0.0006447 -9.9993553 5.0000005
v 10.0000000 40.0000000 5.0000005
v 10.0000000 0.0000000 5.0000005
v 40.0000000 10.0000000 5.0000005
v 0.0000000 -5.2872958 0.0211155
v -39.9596367 -35.0595970 10.0000000
v -11.7508984 -13.8357239 0.0000001
v 29.9349155 27.2271671 9.2199869
v -29.9998589 -20.0000000 22.2821445
v 32.7735291 29.9860363 10.0881186
v 40.0000000 40.0000000 4.9325867
v 16.9387264 10.0001955 26.5997906
v 14.9193554 30.0000000 10.0000000
v -32.2480431 -8.1364565 10.0002432
v 9.9996815 10.0005360 27.4938068
v -34.5644646 -20.0000000 26.1715069
v 29.8591156 28.7194691 9.1266327
v -34.5231247 -17.2772312 30.0000000
v 30.5539684 28.0749989 10.1588736
v 12.4579897 20.0003452 39.9993591
v 29.8439159 29.9996643 8.6392698
v -34.2676392 -9.9998865 20.5901546
v 32.8920403 29.9996185 11.5208988
v -29.9994640 -8.5870228 7.6898260
v 30.5316677 29.3699207 10.2366171
v 34.4269562 28.2713795 10.0004473
v 16.6322632 10.0001440 32.3241539
v 16.3989773 15.3770504 38.3429375
v 29.9317608 26.6257801 9.5330715
v -26.9886703 -13.4622946 10.0002298
v -31.1533375 -16.2519436 25.7970963
v 32.3457527 28.3136959 10.0072241
v -35.0987778 -20.0000000 20.7525845
v 29.9943256 25.3444500 9.4638100
v -21.7108097 -20.0000000 4.8752971
v -32.4988861 -13.5118217 24.9558754
v 29.9998798 31.9842319 12.3217373
v 31.0140343 29.9998875 11.0456781
v -29.9909973 -13.1522636 10.0005970
v 19.9650249 10.0000620 27.7921486
v -31.6570892 -9.9996281 11.9452038
v -29.9999104 -11.5066938 23.7130489
v -40.0000000 -17.3677311 26.8866177
v -37.0535965 -20.0000000 18.8648682
v -29.9997272 -12.1923656 27.9684944
v -37.0883102 -20.0000000 22.8238354
v 29.7579784 29.3535862 9.5228605
v 40.0000000 29.9998569 27.0036335
v -27.1931992 -9.9999113 2.4346251
v -40.0000000 -14.5013599 20.5799389
v -29.9998226 -5.1954012 9.1698771
v -32.5702438 -20.0000000 29.9996796
v -31.6627731 -15.7772217 23.7201920
v 32.0675316 29.9998875 13.0411482
v -30.8340187 -8.1841869 10.1084375
v -30.0000000 -10.0000000 11.3812428
v -27.9467735 -18.8801250 10.0405483
v -29.9994678 -16.7559776 11.2321682
v -29.2782192 -19.4751835 10.2032061
v 37.6239128 29.9997177 13.3118420
v 15.6758137 11.2354450 39.9995537
v -32.0615005 -5.1838813 10.0000048
v -31.9766026 -20.0000362 12.2853298
v 30.6510925 26.3831425 10.0510159
v 16.7626610 10.0000648 29.1671028
v -30.0000000 -10.0000000 12.6532364
v 13.5040970 15.0152559 26.4833546
v -29.9998474 -20.2454605 9.2284851
v -27.7977142 -20.0002232 10.0002193
v 34.0009232 25.9502392 10.0002680
v 18.7213783 14.1519947 39.9996071
v -29.9998722 -17.8440800 23.7860565
v -28.4589157 -11.3575268 10.0003357
v -29.8265457 -9.9997015 9.1221476
v 29.9998322 25.8982697 9.0372839
v -29.9997520 -5.9569917 9.0477448
v -29.3348160 -20.2349663 9.4775982
v -28.0023041 -20.1606865 9.4439640
v -31.5762806 -21.6180191 10.0000000
v -30.7149220 -20.0003834 10.0003862
v 9.9997053 15.0947218 36.0672722
v -29.9997520 -15.8370733 28.4309540
v 16.7974091 20.0000000 28.1315289
v -28.5023384 -10.0000000 10.0000000
v -29.9995899 -20.0000000 26.4452896
v -37.3324471 -17.7179546 30.0000000
v -29.9993591 -16.4307880 10.0006504
v 14.2500200 13.7009497 26.8834896
v -32.0626221 -20.0000000 22.8335075
v -30.0000000 -17.4673882 21.9374847
v -32.7183990 -23.2516441 10.0000000
v -31.2579231 -6.5891061 10.0000019
v 15.1012354 16.4728832 28.9596920
v 30.7224007 29.9566307 10.2532797
v 31.3893089 26.6821651 10.0002651
v 13.9454746 10.0003786 36.1558266
v -29.9996433 -8.6244268 10.0003672
v -32.4881210 -9.9996767 27.1906548
v 29.9994984 28.7297916 7.6833482
v -27.0952568 -20.0001850 10.0001793
v 30.0334511 26.6778259 10.1253223
v 31.0402870 28.7668133 10.1543608
v 13.7095890 15.7586193 27.1779251
v -36.3455009 -15.7865105 30.0000000
v 9.9996157 13.2562790 27.2097225
v -27.6370277 -20.0003948 7.5693769
v 20.0000000 16.3514290 29.8771362
v 29.7988434 27.9577847 9.9831600
v 9.9995155 20.0000000 35.2675056
v -30.7198315 -9.9998388 10.2419205
v 13.8305683 11.2974234 39.9997292
v 29.9192104 27.9491978 10.0001507
v -28.7024670 -20.1730480 9.1948090
v -29.9995346 -7.4846778 6.2069488
v 40.0000000 40.0000000 30.3324108
v 30.6718292 27.1707611 10.0951319
v 20.0003166 17.4103870 37.4542389
v -29.9997692 -10.9476929 11.5597992
v -30.0933018 -9.2930298 10.2732058
v -30.0842495 -7.8814230 10.2037859
v -32.4962883 -9.9997969 22.3277988
v -29.9995403 -10.0707273 10.0004692
v 20.0005531 14.7113028 38.1711655
v 15.7500000 13.7009602 31.5901012
v -29.8859653 -7.7180233 9.4458055
v -29.8622131 -6.5881157 9.9191580
v -29.9996834 -6.6207981 8.8340607
v 16.2990303 15.7499800 27.0025940
v -26.9187641 -20.0000057 10.1585894
v 20.0000000 20.0001621 29.9921227
v -29.9423828 -6.2883091 9.4628096
v -29.9996548 -22.1153717 8.2589779
v -29.7118359 -9.3135815 10.0000010
v -29.7806644 -7.9407430 10.0000029
v 29.7606678 29.9998322 9.3196354
v -35.0000000 -14.8240423 25.1779842
v -30.4872589 -6.8745928 10.0931396
v 36.3348618 29.9993496 10.0006504
v -29.3210468 -20.2833080 9.9686069
v -29.9995689 -13.0665665 22.3930187
v 30.0386410 29.3257351 10.2796011
v -29.9848804 -7.3949413 8.9588346
v 28.0405788 31.8510914 10.0003147
v -27.2093487 -18.5000916 10.0003233
v 12.4085865 14.3355770 39.9993973
v -32.7025452 -12.9885244 29.9994926
v -29.8150806 -7.2543240 10.0000038
v -30.0000000 -7.1687803 10.1806355
v 29.9995613 31.2134609 10.0251369
v 29.7181969 29.3375759 9.9831572
v 29.9997520 26.5624809 8.6350422
v -29.2973175 -20.0003052 10.0003052
v 30.0223007 25.9454975 10.0835514
v -4.6674042 -9.9998255 10.0000000
v 30.0031681 30.0000000 21.4262829
v -30.4682369 -7.5406365 10.1293726
v -29.9996948 -7.8800001 10.0003147
v -29.9996243 -16.0158939 12.9818745
v 35.1449966 29.9997330 16.3771286
v 13.7111902 15.7602205 34.7788734
v -30.5937252 -6.3182435 10.0493517
v -29.8488884 -8.3156366 9.4876919
v 16.8937206 10.0003824 34.9624252
v -29.9998417 -10.0000000 21.6571484
v 17.4743023 14.7099934 39.9994698
v -29.9993668 -14.2118149 27.8288441
v 15.0063152 13.5016918 26.5039654
v 30.0000000 30.0000000 13.0762358
v 15.7499905 16.2990398 35.2500610
v -29.9997387 -7.2608738 10.0002708
v 29.9996834 27.1461525 8.3242702
v 30.0609417 28.0308132 10.2018576
v -27.6088219 -20.0000038 10.1953163
v -27.4482594 -20.1808128 9.9403563
v 30.0000000 25.3022137 10.0480156
v -28.0786591 -20.2189293 9.9860344
v 16.4974957 15.0094233 26.4328671
v 13.6540823 10.0002203 29.5830345
v 14.9264488 12.4100409 39.9993591
v -31.4278545 -9.9860554 10.1616774
v -29.9995346 -14.4439058 22.7680950
v -29.9997940 -13.2668819 19.8503323
v -30.0000000 -5.3674006 10.0903225
v 14.2496424 16.2986813 30.4211540
v 29.8712921 26.6829548 10.0000057
v 13.6954927 15.7296133 33.4410210
v 35.6324158 30.0000000 40.2979012
v 16.2887840 14.2397633 32.0001068
v -29.3985977 -20.0000019 10.2905722
v -29.9170952 -6.9867201 9.4783983
v -30.0489864 -16.9370461 29.9993687
v 16.4878254 15.0455065 38.5484200
v -29.9996395 -12.6117973 24.0935268
v -30.9731503 -5.1452346 10.0000057
v -29.9997826 -6.6362967 10.0002270
v 14.9398355 13.5161190 30.4153214
v 31.4906349 29.9997215 10.1901283
v 14.8759756 10.0001860 24.3400803
v -30.0000000 -8.5843897 10.2516079
v -28.5718117 -18.1426086 10.0004778
v -26.4890423 -20.0364399 9.0066204
v 14.2500200 13.7009497 33.6535187
v -34.0149612 -16.4921131 25.0294380
v 14.2500000 16.2990398 26.7571526
v -25.5390797 -20.0461273 10.0390396
v 14.9786043 16.4804249 34.8065338
v 11.4186563 15.5273552 39.9994850
v 13.5198088 14.9260969 29.5267754
v -29.9602051 -8.2225466 8.8598137
v -26.0289707 -19.2500496 10.0243673
v -34.0083618 -16.3030472 24.2649174
v 13.7009497 15.7499800 30.9471111
v 15.8060541 16.2429790 26.5821667
v -33.8850517 -15.7916851 26.2573471
v -33.8979034 -15.0179787 26.4951820
v 29.9141178 26.0087299 9.9720564
v 29.7647648 28.6653690 9.9236727
v -26.2287064 -20.0000057 10.1218634
v 13.5025530 14.9905071 36.7856064
v -29.9996929 -20.1683426 8.4569712
v 13.7573233 15.8063555 26.0265312
v -29.7462502 -8.6271620 10.0000019
v -28.7357693 -20.0046291 7.4919887
v 29.8387108 27.2404194 10.0000048
v 30.0445995 27.4101543 10.1670933
v 29.9999638 27.2403851 10.0001993
v 15.7500000 13.7009602 26.3673668
v 14.2500000 16.2990398 33.6137886
v 14.3391924 13.6770554 31.0605698
v -31.3504848 -13.7009697 24.2500000
v -25.4486465 -20.0001678 9.1527567
v 16.3426743 10.0005741 37.7057991
v 16.3200951 14.3285923 37.1108513
v -33.5978050 -15.1095095 23.5293446
v 15.7499905 16.2990398 31.0834980
v -29.9994907 -10.7780514 10.0005188
v 15.7589817 16.2966309 32.2403183
v 16.2594051 15.7896061 36.3195305
v -31.3237247 -14.2818651 23.6924229
v -28.6989403 -20.2445869 9.9124479
v 30.0772839 28.6514702 10.2366219
v 30.0000000 30.0000000 11.6197891
v -26.1269245 -20.0922470 10.0242052
v -29.8657074 -20.0003376 10.0003376
v 13.7120590 14.2389107 36.6071625
v 14.5654573 17.6139336 39.9999695
v 14.3298750 13.6795540 36.3908424
v -33.9431953 -14.2590313 26.3014507
v 14.9460974 16.4855652 37.3892479
v -31.2559795 -14.3363476 26.3221684
v 30.0000000 37.4126015 42.7435417
v 13.5112801 14.9579306 35.7728920
v 28.4374046 30.0000000 10.0000000
v 13.7437611 14.2072067 32.3579063
v 15.0481329 13.5128956 33.1536865
v -33.8241692 -14.2307158 23.7202435
v -28.6197567 -19.9581051 10.2426577
v 20.0000000 16.9123154 23.4519424
v 16.2589989 14.2099752 34.9036217
v 13.6870184 15.6979866 28.2491398
v 14.1815739 13.7693939 28.1909237
v 14.9567871 13.5115795 38.1933975
v 15.8248940 16.2241383 29.9446602
v 29.9996185 29.9630356 10.0003853
v -33.6181183 -13.6792660 24.3309956
v -29.9425430 -4.7120285 10.0000086
v 15.0672455 16.4819908 27.5957527
v 14.9597931 16.4783230 32.0314522
v -31.1286125 -15.0166578 23.5044632
v -31.1863556 -15.8179121 26.2311211
v -31.0743675 -16.3116722 24.2971115
v 16.4940987 15.0220976 30.9179306
v 14.9108868 13.5238781 35.7764664
v 9.9997492 17.8975716 36.9923820
v 13.7801161 15.8291492 37.0277519
v 13.6783476 14.3343964 28.3071079
v 14.2500000 16.2990398 29.4963360
v -16.6514931 -20.0000000 0.0000005
v 16.4923210 15.0287304 35.0999641
v 15.7723465 13.7233076 28.7988625
v 17.2013912 16.5564690 39.9996338
v 13.5000095 15.0000000 37.9964752
v -29.9996834 -13.0258160 26.5807343
v 10.0000000 -4.3694873 0.0000006
v -29.9996948 -19.0043678 10.1689758
v 16.2861309 14.2957029 29.7506046
v -32.3012199 -13.6885500 25.7036591
v 16.5000191 15.0000000 33.1048813
v 16.2449093 15.8041058 25.9593182
v 16.2681484 15.7808666 27.9261112
v 15.7440062 13.6993542 32.8039322
v 13.5006523 14.9976034 33.6668282
v -27.7371941 -20.0696411 8.6741838
v 13.7071638 15.7766562 39.0470276
v 15.7484598 16.2830791 27.6242046
v 16.2838440 14.2348204 27.9887199
v -30.0000000 -6.2680902 10.1354790
v -32.2652130 -16.3012409 25.7417870
v 16.2868538 14.2378330 32.8939552
v 10.0000000 -35.4554329 0.0000000
v -30.0000000 -10.0000000 14.6093750
v -25.5882931 -10.0000000 0.0000000
v 20.0003910 14.8242483 36.0619583
v 20.0002155 14.9933624 15.0488234
v 29.4882545 10.0000000 4.4228916
v 3.9317997 -17.1504192 10.0000000
# 999 vertices, 0 vertices normals

f 687 311 1
f 1 311 692
f 1 319 382
f 692 319 1
f 382 323 1
f 1 323 687
f 2 24 492
f 692 24 2
f 2 319 692
f 699 319 2
f 2 492 699
f 3 4 319
f 662 4 3
f 657 289 3
f 3 289 662
f 3 319 699
f 3 492 657
f 699 492 3
f 382 319 4
f 4 347 382
f 410 347 4
f 662 410 4
f 5 327 410
f 673 327 5
f 5 410 662
f 515 469 5
f 5 469 673
f 662 515 5
f 6 348 469
f 743 348 6
f 6 355 659
f 739 355 6
f 6 469 737
f 6 659 743
f 6 737 739
f 7 8 736
f 779 8 7
f 583 26 7
f 7 26 779
f 7 355 583
f 736 355 7
f 565 12 8
f 8 12 591
f 797 565 8
f 8 591 736
f 8 779 797
f 591 507 9
f 9 507 597
f 736 591 9
f 9 597 743
f 9 659 736
f 743 659 9
f 10 507 569
f 597 507 10
f 10 569 688
f 743 597 10
f 688 646 10
f 10 646 743
f 11 13 427
f 513 13 11
f 427 327 11
f 11 327 673
f 11 434 528
f 646 434 11
f 528 513 11
f 673 646 11
f 565 42 12
f 12 42 611
f 12 507 591
f 611 507 12
f 23 14 13
f 13 14 301
f 272 23 13
f 513 272 13
f 13 301 427
f 14 15 17
f 23 15 14
f 14 17 468
f 468 301 14
f 15 16 18
f 297 16 15
f 424 17 15
f 15 18 424
f 15 23 297
f 46 18 16
f 297 46 16
f 424 20 17
f 17 20 456
f 17 456 468
f 44 21 18
f 18 21 424
f 264 44 18
f 18 46 264
f 456 20 19
f 19 20 460
f 19 339 484
f 676 339 19
f 484 456 19
f 19 460 676
f 411 45 20
f 20 45 460
f 622 411 20
f 20 424 622
f 21 44 411
f 21 411 622
f 622 424 21
f 280 69 22
f 22 69 408
f 22 274 280
f 346 274 22
f 22 287 346
f 408 287 22
f 23 79 642
f 666 79 23
f 23 272 666
f 642 297 23
f 311 64 24
f 24 64 509
f 692 311 24
f 509 492 24
f 756 541 25
f 25 541 772
f 772 547 25
f 25 547 773
f 25 570 756
f 773 570 25
f 26 583 709
f 26 709 745
f 745 711 26
f 26 711 779
f 27 28 30
f 904 28 27
f 31 29 27
f 27 29 896
f 27 30 829
f 829 31 27
f 27 896 904
f 904 30 28
f 29 31 907
f 29 55 896
f 907 55 29
f 30 32 35
f 927 32 30
f 30 35 829
f 904 50 30
f 30 50 927
f 829 33 31
f 31 33 907
f 949 35 32
f 32 927 949
f 829 36 33
f 33 36 941
f 908 907 33
f 941 908 33
f 34 86 402
f 495 86 34
f 271 130 34
f 34 130 495
f 402 271 34
f 35 37 829
f 949 37 35
f 829 38 36
f 36 38 941
f 47 39 37
f 37 39 829
f 958 47 37
f 37 949 958
f 38 40 47
f 829 40 38
f 38 47 49
f 38 49 941
f 47 40 39
f 39 40 829
f 41 587 709
f 782 587 41
f 726 651 41
f 41 651 782
f 41 709 739
f 739 726 41
f 42 103 791
f 839 103 42
f 42 565 839
f 791 611 42
f 43 160 462
f 678 160 43
f 286 276 43
f 43 276 305
f 462 286 43
f 43 305 678
f 44 82 85
f 264 82 44
f 44 85 411
f 45 84 407
f 411 84 45
f 45 407 460
f 46 80 81
f 297 80 46
f 46 81 82
f 46 82 264
f 980 49 47
f 47 56 729
f 958 56 47
f 47 729 980
f 48 576 839
f 884 576 48
f 48 609 711
f 839 609 48
f 48 711 745
f 48 745 884
f 49 54 941
f 980 54 49
f 746 52 50
f 50 52 927
f 50 58 746
f 904 58 50
f 927 52 51
f 51 52 932
f 932 56 51
f 51 56 949
f 949 927 51
f 52 746 962
f 962 932 52
f 658 538 53
f 53 538 734
f 53 539 658
f 707 539 53
f 53 551 707
f 873 551 53
f 53 734 873
f 54 59 387
f 943 59 54
f 54 387 941
f 54 388 943
f 980 388 54
f 907 57 55
f 55 57 991
f 55 654 896
f 991 654 55
f 56 61 729
f 923 61 56
f 932 923 56
f 958 949 56
f 387 59 57
f 57 59 963
f 907 387 57
f 963 724 57
f 57 724 991
f 654 60 58
f 58 60 964
f 904 654 58
f 964 746 58
f 96 94 59
f 59 94 963
f 98 96 59
f 943 98 59
f 60 90 91
f 92 90 60
f 60 91 964
f 724 92 60
f 60 654 991
f 991 724 60
f 61 100 102
f 923 100 61
f 102 101 61
f 61 101 388
f 61 388 980
f 980 729 61
f 62 160 678
f 686 160 62
f 62 168 278
f 706 168 62
f 678 275 62
f 62 275 706
f 62 278 686
f 323 66 63
f 63 66 341
f 63 268 311
f 341 268 63
f 63 311 687
f 687 323 63
f 311 268 64
f 64 268 341
f 64 341 365
f 64 365 509
f 341 67 65
f 65 67 481
f 481 289 65
f 65 289 657
f 365 341 65
f 509 365 65
f 657 509 65
f 66 67 341
f 510 67 66
f 66 323 663
f 663 510 66
f 67 192 481
f 510 192 67
f 593 519 68
f 68 519 761
f 68 547 593
f 773 547 68
f 68 761 770
f 68 770 832
f 937 773 68
f 68 832 937
f 334 269 69
f 69 269 403
f 69 280 334
f 69 403 523
f 510 408 69
f 69 485 510
f 523 485 69
f 599 570 70
f 70 570 773
f 978 599 70
f 882 752 70
f 70 752 978
f 70 773 937
f 937 882 70
f 71 88 778
f 884 88 71
f 71 92 94
f 644 92 71
f 71 94 96
f 71 96 775
f 778 644 71
f 71 775 884
f 95 93 72
f 72 93 783
f 874 95 72
f 72 604 607
f 783 604 72
f 72 607 875
f 72 833 874
f 875 833 72
f 73 101 102
f 976 101 73
f 73 102 886
f 73 392 558
f 735 392 73
f 73 558 738
f 886 735 73
f 73 738 976
f 280 274 74
f 74 274 332
f 334 280 74
f 461 306 74
f 74 306 631
f 74 332 461
f 995 334 74
f 74 631 742
f 74 742 995
f 75 349 812
f 815 349 75
f 75 557 803
f 812 557 75
f 75 586 749
f 803 586 75
f 75 749 811
f 75 811 929
f 929 815 75
f 76 265 715
f 994 265 76
f 875 267 76
f 76 267 994
f 76 715 814
f 76 814 857
f 76 857 875
f 640 79 77
f 77 79 666
f 959 640 77
f 77 666 959
f 78 83 296
f 339 83 78
f 78 296 656
f 78 306 461
f 656 306 78
f 629 339 78
f 78 461 629
f 79 80 642
f 648 80 79
f 79 640 656
f 656 648 79
f 82 81 80
f 508 82 80
f 80 297 642
f 648 508 80
f 508 85 82
f 407 296 83
f 83 339 676
f 460 407 83
f 676 460 83
f 411 85 84
f 84 85 508
f 84 296 407
f 648 296 84
f 84 508 648
f 86 145 290
f 495 145 86
f 86 290 577
f 86 316 504
f 577 316 86
f 504 402 86
f 87 523 530
f 571 523 87
f 87 530 916
f 825 571 87
f 913 825 87
f 916 913 87
f 88 745 778
f 884 745 88
f 89 532 780
f 893 532 89
f 751 553 89
f 89 553 978
f 780 751 89
f 978 893 89
f 765 91 90
f 90 92 644
f 90 644 765
f 765 93 91
f 91 93 964
f 724 94 92
f 93 95 962
f 962 746 93
f 93 746 964
f 93 765 783
f 94 724 963
f 874 97 95
f 95 97 932
f 95 932 962
f 96 98 859
f 859 775 96
f 833 100 97
f 97 100 932
f 874 833 97
f 388 101 98
f 98 101 976
f 943 388 98
f 976 859 98
f 738 103 99
f 99 103 839
f 839 576 99
f 99 576 884
f 859 738 99
f 99 775 859
f 884 775 99
f 886 102 100
f 100 833 886
f 100 923 932
f 738 558 103
f 103 558 791
f 564 544 104
f 104 544 717
f 562 545 104
f 104 545 767
f 717 562 104
f 567 564 104
f 767 567 104
f 105 349 815
f 826 349 105
f 767 545 105
f 105 545 826
f 105 567 767
f 777 567 105
f 105 766 777
f 929 766 105
f 105 815 929
f 385 108 106
f 106 108 971
f 106 110 700
f 971 110 106
f 106 284 385
f 700 284 106
f 107 548 606
f 625 548 107
f 107 606 638
f 924 625 107
f 107 638 903
f 903 898 107
f 107 898 924
f 385 325 108
f 108 325 395
f 395 335 108
f 108 335 971
f 109 147 364
f 624 147 109
f 109 283 351
f 364 283 109
f 109 351 396
f 109 396 624
f 459 111 110
f 110 111 700
f 110 269 334
f 971 269 110
f 110 334 459
f 414 295 111
f 111 295 700
f 624 414 111
f 111 459 624
f 112 240 451
f 848 240 112
f 322 302 112
f 112 302 372
f 451 322 112
f 112 372 848
f 113 284 295
f 674 284 113
f 113 295 391
f 113 314 367
f 698 314 113
f 113 367 674
f 113 391 694
f 113 694 698
f 313 121 114
f 114 121 694
f 390 313 114
f 675 390 114
f 694 391 114
f 114 391 847
f 114 401 675
f 847 401 114
f 115 117 129
f 336 117 115
f 129 127 115
f 115 127 693
f 693 336 115
f 116 126 630
f 693 126 116
f 380 336 116
f 116 336 693
f 630 380 116
f 496 129 117
f 117 291 483
f 668 291 117
f 117 336 668
f 117 483 496
f 466 291 118
f 118 291 668
f 118 336 380
f 668 336 118
f 118 380 630
f 118 389 627
f 630 389 118
f 627 466 118
f 385 284 119
f 119 284 674
f 483 291 119
f 119 291 691
f 119 357 483
f 619 357 119
f 691 385 119
f 674 619 119
f 466 125 120
f 120 125 999
f 120 291 466
f 691 291 120
f 401 325 120
f 120 325 691
f 675 401 120
f 999 675 120
f 124 123 121
f 121 123 698
f 690 124 121
f 121 313 690
f 698 694 121
f 122 123 128
f 698 123 122
f 122 128 698
f 123 124 690
f 262 128 123
f 690 262 123
f 405 138 125
f 125 138 999
f 627 405 125
f 125 466 627
f 126 134 135
f 464 134 126
f 126 135 389
f 126 389 630
f 693 464 126
f 127 129 133
f 127 133 464
f 127 464 693
f 128 139 314
f 696 139 128
f 128 262 696
f 128 314 698
f 993 133 129
f 496 406 129
f 129 406 993
f 130 271 370
f 130 342 495
f 549 342 130
f 130 370 549
f 542 142 131
f 131 142 838
f 131 536 598
f 900 536 131
f 598 542 131
f 131 838 900
f 132 536 713
f 967 536 132
f 713 670 132
f 132 670 802
f 132 802 967
f 133 134 464
f 615 134 133
f 993 615 133
f 470 135 134
f 134 288 470
f 615 288 134
f 470 389 135
f 404 288 136
f 136 288 406
f 136 330 405
f 664 330 136
f 405 404 136
f 136 406 412
f 136 412 664
f 137 270 354
f 367 270 137
f 137 354 664
f 412 357 137
f 137 357 619
f 619 367 137
f 664 412 137
f 354 281 138
f 138 281 390
f 405 330 138
f 138 330 664
f 664 354 138
f 138 390 999
f 977 314 139
f 696 345 139
f 139 345 977
f 313 281 140
f 140 281 345
f 690 313 140
f 140 345 696
f 696 690 140
f 141 216 450
f 685 216 141
f 317 271 141
f 141 271 402
f 450 317 141
f 141 402 685
f 804 155 142
f 142 155 838
f 575 177 142
f 142 177 804
f 542 303 142
f 142 303 575
f 143 420 632
f 802 420 143
f 632 533 143
f 143 533 774
f 143 774 967
f 967 802 143
f 144 152 216
f 316 152 144
f 144 216 685
f 504 316 144
f 144 402 504
f 685 402 144
f 304 191 145
f 145 191 616
f 616 290 145
f 613 304 145
f 495 356 145
f 145 356 613
f 146 266 315
f 321 266 146
f 146 315 684
f 146 320 331
f 684 320 146
f 331 321 146
f 147 282 364
f 459 282 147
f 624 459 147
f 315 266 148
f 148 266 321
f 683 315 148
f 148 321 706
f 706 683 148
f 305 276 149
f 149 276 320
f 695 305 149
f 684 315 149
f 149 315 695
f 149 320 684
f 150 315 683
f 695 315 150
f 683 678 150
f 150 678 695
f 151 161 170
f 649 161 151
f 151 170 939
f 713 536 151
f 151 536 900
f 900 649 151
f 939 713 151
f 333 216 152
f 152 316 352
f 366 333 152
f 152 352 366
f 375 286 153
f 153 286 462
f 153 343 511
f 512 343 153
f 511 375 153
f 153 462 512
f 154 229 450
f 998 229 154
f 499 329 154
f 154 329 998
f 450 333 154
f 154 333 499
f 169 167 155
f 155 167 838
f 179 169 155
f 872 179 155
f 155 804 872
f 178 162 156
f 156 162 914
f 156 164 178
f 760 164 156
f 914 760 156
f 157 165 417
f 947 165 157
f 157 415 947
f 985 415 157
f 417 416 157
f 157 416 879
f 157 879 985
f 161 159 158
f 158 159 167
f 987 161 158
f 167 166 158
f 158 166 975
f 975 428 158
f 158 428 987
f 159 161 649
f 838 167 159
f 159 649 838
f 686 462 160
f 987 170 161
f 178 171 162
f 162 171 914
f 409 361 163
f 163 361 968
f 853 409 163
f 163 498 853
f 945 498 163
f 163 912 945
f 968 912 163
f 164 173 178
f 432 173 164
f 760 432 164
f 165 174 922
f 947 174 165
f 467 417 165
f 500 467 165
f 922 500 165
f 166 167 169
f 166 169 430
f 166 430 431
f 166 431 506
f 166 506 975
f 168 273 318
f 321 273 168
f 324 278 168
f 168 318 324
f 706 321 168
f 169 179 430
f 188 180 170
f 170 180 939
f 429 188 170
f 987 429 170
f 171 178 185
f 171 185 186
f 171 186 897
f 171 897 914
f 877 187 172
f 172 187 961
f 879 416 172
f 172 416 905
f 172 437 921
f 961 437 172
f 905 877 172
f 921 879 172
f 181 178 173
f 860 181 173
f 173 432 781
f 173 781 860
f 174 415 895
f 947 415 174
f 174 502 922
f 948 502 174
f 174 895 948
f 175 215 226
f 939 215 175
f 175 226 623
f 623 579 175
f 175 579 670
f 175 670 713
f 175 713 939
f 176 303 635
f 789 303 176
f 635 524 176
f 176 524 720
f 176 720 856
f 856 789 176
f 177 575 925
f 177 601 754
f 925 601 177
f 177 754 804
f 178 181 196
f 205 185 178
f 178 196 207
f 212 205 178
f 178 207 212
f 189 184 179
f 179 184 430
f 872 189 179
f 180 188 190
f 180 190 939
f 860 196 181
f 889 197 182
f 182 197 973
f 182 441 860
f 973 441 182
f 182 500 889
f 954 500 182
f 860 781 182
f 182 781 954
f 895 413 183
f 183 413 966
f 183 439 471
f 966 439 183
f 183 471 948
f 948 895 183
f 184 189 198
f 184 198 955
f 955 430 184
f 193 186 185
f 205 193 185
f 186 193 906
f 960 897 186
f 186 906 960
f 187 786 956
f 970 786 187
f 187 877 970
f 956 928 187
f 187 928 961
f 476 190 188
f 188 195 476
f 942 195 188
f 188 429 942
f 200 198 189
f 217 200 189
f 872 217 189
f 190 199 215
f 476 199 190
f 190 215 939
f 191 304 588
f 588 521 191
f 191 521 590
f 191 590 618
f 618 616 191
f 825 481 192
f 510 485 192
f 192 485 571
f 192 571 825
f 193 205 982
f 982 906 193
f 194 204 956
f 983 204 194
f 956 786 194
f 194 786 960
f 194 960 988
f 988 983 194
f 195 206 476
f 477 206 195
f 195 433 546
f 942 433 195
f 931 477 195
f 195 546 931
f 920 207 196
f 196 860 920
f 817 445 197
f 197 445 979
f 197 478 973
f 979 478 197
f 889 817 197
f 198 200 202
f 198 202 209
f 198 209 443
f 198 443 505
f 198 505 955
f 206 201 199
f 199 201 974
f 476 206 199
f 974 215 199
f 217 202 200
f 201 206 214
f 214 211 201
f 201 211 600
f 201 600 974
f 210 209 202
f 217 210 202
f 203 471 952
f 984 471 203
f 972 475 203
f 203 475 981
f 203 952 972
f 203 981 992
f 992 984 203
f 448 447 204
f 204 447 956
f 480 448 204
f 983 480 204
f 205 212 982
f 721 214 206
f 206 477 721
f 207 208 870
f 920 208 207
f 870 212 207
f 920 441 208
f 208 441 989
f 208 480 870
f 989 480 208
f 209 210 214
f 209 214 885
f 885 443 209
f 210 211 214
f 858 211 210
f 210 217 858
f 858 600 211
f 212 870 982
f 213 445 881
f 965 445 213
f 487 447 213
f 213 447 965
f 981 487 213
f 213 881 992
f 992 981 213
f 214 721 885
f 974 226 215
f 216 333 450
f 601 221 217
f 217 221 602
f 754 601 217
f 217 602 764
f 872 754 217
f 217 764 858
f 318 273 218
f 218 273 321
f 620 318 218
f 331 320 218
f 218 320 375
f 218 321 331
f 218 375 620
f 229 228 219
f 219 228 363
f 300 229 219
f 363 263 219
f 219 263 997
f 219 298 370
f 997 298 219
f 317 300 219
f 338 317 219
f 370 338 219
f 298 222 220
f 220 222 529
f 383 298 220
f 891 383 220
f 220 529 626
f 220 626 733
f 733 705 220
f 220 705 891
f 221 566 602
f 636 566 221
f 221 601 925
f 925 636 221
f 222 298 997
f 222 442 951
f 997 442 222
f 951 529 222
f 223 337 535
f 823 337 223
f 223 535 578
f 223 578 681
f 223 681 800
f 223 800 823
f 224 263 363
f 997 263 224
f 224 279 310
f 363 279 224
f 224 310 352
f 352 316 224
f 224 316 577
f 224 577 669
f 224 669 997
f 610 590 225
f 225 590 776
f 951 610 225
f 800 626 225
f 225 626 951
f 225 776 823
f 823 800 225
f 552 227 226
f 226 227 810
f 226 337 353
f 810 337 226
f 226 353 623
f 974 552 226
f 227 552 764
f 764 602 227
f 227 602 816
f 816 810 227
f 228 229 998
f 228 360 393
f 998 360 228
f 634 363 228
f 228 393 634
f 229 300 450
f 230 550 828
f 946 550 230
f 828 740 230
f 230 740 843
f 230 842 946
f 957 842 230
f 230 843 957
f 231 318 555
f 556 318 231
f 231 555 561
f 714 556 231
f 231 561 589
f 231 589 792
f 792 714 231
f 232 559 568
f 580 559 232
f 232 568 836
f 730 580 232
f 842 730 232
f 232 836 842
f 422 307 233
f 233 307 499
f 366 310 233
f 233 310 679
f 499 366 233
f 682 422 233
f 679 474 233
f 233 474 682
f 310 279 234
f 234 279 363
f 234 309 525
f 634 309 234
f 679 310 234
f 234 363 634
f 527 474 234
f 234 474 679
f 234 525 537
f 537 527 234
f 537 525 235
f 235 525 628
f 235 527 537
f 727 527 235
f 235 628 868
f 868 727 235
f 236 308 472
f 511 308 236
f 236 421 561
f 682 421 236
f 236 472 682
f 620 511 236
f 561 555 236
f 236 555 620
f 237 718 787
f 834 718 237
f 787 731 237
f 237 731 935
f 957 834 237
f 935 842 237
f 237 842 957
f 238 248 373
f 374 248 238
f 299 293 238
f 238 293 377
f 373 299 238
f 377 374 238
f 239 241 490
f 689 241 239
f 490 379 239
f 239 379 677
f 677 463 239
f 239 463 689
f 293 243 240
f 240 243 451
f 377 293 240
f 848 377 240
f 241 244 491
f 689 244 241
f 680 490 241
f 241 491 944
f 944 680 241
f 242 302 322
f 559 302 242
f 242 312 512
f 672 312 242
f 242 322 328
f 242 328 672
f 512 462 242
f 242 462 686
f 652 559 242
f 686 652 242
f 243 246 376
f 398 246 243
f 243 293 299
f 243 299 614
f 243 376 451
f 614 398 243
f 244 247 491
f 689 247 244
f 245 563 716
f 831 563 245
f 716 703 245
f 245 703 725
f 725 719 245
f 245 719 831
f 454 376 246
f 246 398 808
f 808 454 246
f 247 257 261
f 463 257 247
f 247 261 294
f 247 294 491
f 689 463 247
f 374 255 248
f 248 255 455
f 880 373 248
f 248 455 880
f 309 253 249
f 249 253 514
f 525 309 249
f 249 514 763
f 763 525 249
f 453 285 250
f 250 285 697
f 329 307 250
f 250 307 453
f 360 329 250
f 697 360 250
f 251 285 394
f 697 285 251
f 251 309 393
f 394 309 251
f 393 360 251
f 251 360 697
f 472 369 252
f 252 369 473
f 453 422 252
f 252 422 472
f 493 453 252
f 252 473 493
f 394 285 253
f 253 285 493
f 253 309 394
f 253 493 612
f 612 514 253
f 254 344 457
f 671 344 254
f 254 457 753
f 254 473 503
f 612 473 254
f 254 503 671
f 254 514 612
f 831 514 254
f 254 753 831
f 255 374 741
f 400 378 255
f 255 378 455
f 741 400 255
f 256 257 463
f 637 257 256
f 256 379 637
f 677 379 256
f 256 463 677
f 368 261 257
f 637 368 257
f 258 308 343
f 369 308 258
f 343 312 258
f 258 312 704
f 399 369 258
f 704 399 258
f 259 312 672
f 704 312 259
f 259 328 381
f 672 328 259
f 381 344 259
f 259 344 671
f 671 399 259
f 259 399 704
f 260 292 378
f 494 292 260
f 260 378 400
f 260 398 494
f 808 398 260
f 260 400 808
f 261 292 294
f 368 292 261
f 262 690 696
f 265 434 646
f 667 434 265
f 265 603 667
f 994 603 265
f 265 646 688
f 265 688 715
f 267 594 653
f 851 594 267
f 267 607 647
f 875 607 267
f 267 647 851
f 267 653 994
f 269 335 728
f 971 335 269
f 728 403 269
f 367 314 270
f 270 314 977
f 270 345 354
f 977 345 270
f 271 317 338
f 271 338 370
f 272 513 531
f 272 531 755
f 755 666 272
f 346 332 274
f 275 678 683
f 275 683 706
f 276 286 375
f 375 320 276
f 454 400 277
f 277 400 741
f 497 454 277
f 277 482 497
f 741 482 277
f 278 324 836
f 278 568 652
f 836 568 278
f 278 652 686
f 281 313 390
f 354 345 281
f 665 364 282
f 282 459 995
f 631 564 282
f 282 564 665
f 742 631 282
f 995 742 282
f 395 351 283
f 283 364 386
f 283 386 633
f 633 395 283
f 700 295 284
f 285 453 493
f 287 327 346
f 410 327 287
f 408 347 287
f 287 347 410
f 288 404 470
f 615 406 288
f 289 481 784
f 289 515 662
f 784 515 289
f 616 442 290
f 290 442 669
f 669 577 290
f 494 294 292
f 292 368 378
f 294 438 491
f 494 438 294
f 295 350 391
f 414 350 295
f 296 648 656
f 383 370 298
f 299 373 680
f 299 452 614
f 680 452 299
f 300 317 450
f 301 340 427
f 458 340 301
f 468 458 301
f 730 372 302
f 302 559 580
f 302 580 730
f 533 419 303
f 303 419 635
f 774 533 303
f 303 542 774
f 789 575 303
f 304 358 420
f 613 358 304
f 420 359 304
f 304 359 588
f 695 678 305
f 640 592 306
f 306 592 807
f 807 631 306
f 656 640 306
f 307 329 499
f 307 422 453
f 511 343 308
f 308 369 472
f 634 393 309
f 366 352 310
f 312 343 512
f 639 324 318
f 620 555 318
f 318 556 639
f 376 328 322
f 451 376 322
f 323 382 663
f 324 639 836
f 325 351 395
f 401 351 325
f 325 385 691
f 573 488 326
f 326 488 756
f 595 560 326
f 326 560 647
f 647 573 326
f 756 595 326
f 427 346 327
f 328 376 381
f 329 360 998
f 346 340 332
f 332 340 458
f 332 458 629
f 629 461 332
f 333 366 499
f 995 459 334
f 335 395 633
f 633 581 335
f 335 581 728
f 362 353 337
f 823 362 337
f 810 535 337
f 339 458 484
f 629 458 339
f 340 346 427
f 342 356 495
f 798 356 342
f 342 435 708
f 891 435 342
f 342 549 891
f 342 708 798
f 344 381 497
f 497 457 344
f 663 382 347
f 347 408 663
f 673 469 348
f 348 646 673
f 743 646 348
f 349 790 892
f 915 790 349
f 892 812 349
f 349 826 915
f 847 391 350
f 350 396 397
f 624 396 350
f 350 397 847
f 350 414 624
f 397 396 351
f 401 397 351
f 353 362 579
f 353 579 623
f 739 583 355
f 736 659 355
f 798 613 356
f 357 412 496
f 496 483 357
f 632 420 358
f 358 543 632
f 798 543 358
f 358 613 798
f 359 420 605
f 605 520 359
f 359 520 776
f 776 588 359
f 361 409 433
f 429 428 361
f 361 428 968
f 942 429 361
f 361 433 942
f 362 426 579
f 605 426 362
f 362 516 605
f 823 516 362
f 723 386 364
f 364 665 723
f 367 619 674
f 637 378 368
f 369 399 503
f 503 473 369
f 370 383 549
f 371 801 805
f 910 801 371
f 371 805 865
f 934 834 371
f 371 834 957
f 371 843 910
f 957 843 371
f 371 865 934
f 372 730 861
f 372 747 852
f 861 747 372
f 852 848 372
f 373 379 490
f 880 379 373
f 373 490 680
f 374 377 501
f 374 501 741
f 375 511 620
f 454 381 376
f 848 501 377
f 637 455 378
f 379 455 637
f 880 455 379
f 381 454 497
f 891 549 383
f 384 762 866
f 869 762 384
f 845 832 384
f 384 832 933
f 882 845 384
f 384 866 950
f 933 869 384
f 950 882 384
f 386 606 633
f 638 606 386
f 723 638 386
f 387 907 908
f 387 908 941
f 470 404 389
f 389 404 627
f 390 675 999
f 791 558 392
f 392 645 791
f 814 645 392
f 392 735 857
f 857 814 392
f 397 401 847
f 614 494 398
f 671 503 399
f 400 454 808
f 530 523 403
f 596 530 403
f 728 596 403
f 404 405 627
f 496 412 406
f 406 615 993
f 408 510 663
f 899 433 409
f 409 853 921
f 921 899 409
f 413 415 465
f 895 415 413
f 413 465 938
f 413 938 940
f 413 940 966
f 498 465 415
f 985 498 415
f 416 417 905
f 901 423 417
f 417 423 905
f 417 467 901
f 418 423 901
f 953 423 418
f 418 432 760
f 969 432 418
f 901 467 418
f 418 467 969
f 418 760 796
f 418 796 953
f 419 533 543
f 419 543 798
f 871 635 419
f 798 708 419
f 419 708 871
f 420 426 605
f 802 426 420
f 421 474 526
f 682 474 421
f 421 526 589
f 589 561 421
f 682 472 422
f 953 436 423
f 423 436 970
f 423 877 905
f 970 877 423
f 425 569 611
f 715 569 425
f 425 611 645
f 425 645 814
f 814 715 425
f 670 579 426
f 802 670 426
f 428 429 987
f 428 912 968
f 975 912 428
f 955 431 430
f 431 486 940
f 955 486 431
f 938 506 431
f 940 938 431
f 954 781 432
f 969 954 432
f 862 546 433
f 899 862 433
f 538 528 434
f 667 538 434
f 435 705 758
f 891 705 435
f 871 708 435
f 435 758 871
f 960 786 436
f 436 786 970
f 436 796 897
f 953 796 436
f 436 897 960
f 437 489 899
f 961 489 437
f 437 899 921
f 438 452 491
f 494 452 438
f 505 446 439
f 439 446 952
f 952 471 439
f 439 486 505
f 966 486 439
f 440 540 681
f 733 540 440
f 440 574 636
f 681 574 440
f 440 636 856
f 440 720 758
f 856 720 440
f 758 733 440
f 973 478 441
f 441 478 989
f 920 860 441
f 616 610 442
f 442 610 951
f 997 669 442
f 885 449 443
f 443 449 926
f 926 505 443
f 487 475 444
f 444 475 972
f 444 479 931
f 972 479 444
f 489 487 444
f 862 489 444
f 931 862 444
f 965 448 445
f 445 448 979
f 445 817 881
f 926 479 446
f 446 479 972
f 446 505 926
f 972 952 446
f 447 448 965
f 447 487 930
f 930 928 447
f 447 928 956
f 480 478 448
f 448 478 979
f 449 477 479
f 721 477 449
f 449 479 926
f 885 721 449
f 944 491 452
f 452 494 614
f 452 680 944
f 484 468 456
f 497 482 457
f 457 482 852
f 852 753 457
f 458 468 484
f 465 498 945
f 465 912 938
f 945 912 465
f 467 500 954
f 467 954 969
f 660 488 469
f 469 488 737
f 469 515 660
f 984 948 471
f 612 493 473
f 527 526 474
f 475 487 981
f 931 479 477
f 478 480 989
f 480 821 870
f 983 821 480
f 481 593 784
f 825 593 481
f 741 501 482
f 482 501 852
f 485 523 571
f 955 505 486
f 966 940 486
f 487 489 930
f 488 573 651
f 488 651 726
f 488 660 756
f 488 726 737
f 489 862 899
f 961 930 489
f 492 509 657
f 879 853 498
f 985 879 498
f 922 889 500
f 501 848 852
f 502 817 889
f 984 817 502
f 502 889 922
f 502 948 984
f 938 912 506
f 506 912 975
f 611 569 507
f 513 528 539
f 539 531 513
f 514 719 763
f 831 719 514
f 515 541 660
f 784 541 515
f 516 520 605
f 776 520 516
f 823 776 516
f 517 534 763
f 788 534 517
f 725 617 517
f 517 617 788
f 517 719 725
f 763 719 517
f 592 522 518
f 518 522 820
f 807 592 518
f 518 717 807
f 902 717 518
f 518 820 835
f 518 835 902
f 519 593 825
f 913 761 519
f 519 825 913
f 521 588 776
f 776 590 521
f 522 592 744
f 522 744 769
f 522 769 820
f 524 635 871
f 758 720 524
f 871 758 524
f 525 534 628
f 763 534 525
f 526 527 768
f 864 589 526
f 526 768 844
f 526 844 864
f 527 727 768
f 528 538 658
f 658 539 528
f 951 626 529
f 530 596 799
f 530 799 916
f 531 539 707
f 707 582 531
f 531 582 755
f 532 585 780
f 893 585 532
f 632 543 533
f 788 628 534
f 996 578 535
f 535 810 996
f 967 598 536
f 538 667 734
f 733 626 540
f 540 626 800
f 800 681 540
f 756 660 541
f 784 772 541
f 542 598 774
f 544 564 631
f 544 631 807
f 807 717 544
f 545 562 902
f 915 826 545
f 902 855 545
f 545 855 915
f 546 862 931
f 772 593 547
f 625 581 548
f 548 581 633
f 633 606 548
f 550 556 714
f 946 556 550
f 550 714 828
f 551 557 748
f 873 557 551
f 748 707 551
f 552 600 858
f 974 600 552
f 858 764 552
f 751 560 553
f 553 560 978
f 778 587 554
f 554 587 782
f 765 661 554
f 554 661 778
f 554 702 765
f 782 702 554
f 946 639 556
f 892 748 557
f 873 803 557
f 557 812 892
f 652 568 559
f 560 595 599
f 560 599 978
f 851 647 560
f 560 751 851
f 562 717 902
f 747 716 563
f 852 747 563
f 831 753 563
f 563 753 852
f 564 567 665
f 797 609 565
f 565 609 839
f 636 574 566
f 566 574 996
f 816 602 566
f 996 816 566
f 777 665 567
f 715 688 569
f 599 595 570
f 570 595 756
f 769 744 572
f 572 744 959
f 824 769 572
f 572 819 824
f 888 819 572
f 959 876 572
f 572 876 990
f 990 888 572
f 647 604 573
f 573 604 783
f 702 651 573
f 783 702 573
f 681 578 574
f 574 578 996
f 575 789 925
f 625 596 581
f 581 596 728
f 707 608 582
f 582 608 785
f 785 755 582
f 739 709 583
f 584 585 723
f 780 585 584
f 655 594 584
f 584 594 851
f 732 655 584
f 584 723 732
f 584 751 780
f 851 751 584
f 585 638 723
f 837 638 585
f 893 837 585
f 586 734 749
f 873 734 586
f 586 803 873
f 745 709 587
f 778 745 587
f 864 792 589
f 590 610 618
f 592 640 744
f 593 772 784
f 655 653 594
f 596 625 924
f 986 799 596
f 924 894 596
f 596 894 986
f 967 774 598
f 734 667 603
f 759 734 603
f 994 759 603
f 647 607 604
f 608 707 748
f 608 748 849
f 849 785 608
f 797 711 609
f 610 616 618
f 791 645 611
f 795 712 617
f 617 712 809
f 617 725 795
f 809 788 617
f 621 653 655
f 811 653 621
f 621 655 732
f 621 732 766
f 621 766 929
f 929 811 621
f 788 757 628
f 628 757 846
f 628 846 868
f 925 856 636
f 638 837 903
f 946 836 639
f 959 744 640
f 837 750 641
f 641 750 866
f 866 822 641
f 641 822 911
f 903 837 641
f 911 903 641
f 643 650 701
f 710 650 643
f 643 701 917
f 910 710 643
f 643 801 910
f 917 801 643
f 644 661 765
f 778 661 644
f 900 838 649
f 864 701 650
f 650 710 792
f 650 792 864
f 651 702 782
f 811 759 653
f 653 759 994
f 904 896 654
f 766 723 665
f 777 766 665
f 666 755 887
f 666 887 959
f 844 722 701
f 701 722 917
f 864 844 701
f 783 765 702
f 703 716 890
f 795 725 703
f 890 795 703
f 705 733 758
f 740 714 710
f 710 714 792
f 910 740 710
f 797 779 711
f 712 795 934
f 918 809 712
f 712 865 918
f 934 865 712
f 714 740 828
f 747 731 716
f 716 731 890
f 890 787 718
f 718 795 890
f 934 795 718
f 718 834 934
f 844 768 722
f 722 768 909
f 909 878 722
f 722 878 917
f 766 732 723
f 739 737 726
f 909 768 727
f 727 868 909
f 730 842 935
f 935 861 730
f 731 747 935
f 731 787 890
f 759 749 734
f 735 833 857
f 886 833 735
f 738 859 976
f 910 843 740
f 747 861 935
f 748 813 849
f 892 813 748
f 749 759 811
f 893 752 750
f 750 752 950
f 750 837 893
f 950 866 750
f 752 882 950
f 752 893 978
f 872 804 754
f 755 785 887
f 757 788 809
f 809 794 757
f 757 794 846
f 914 796 760
f 913 770 761
f 762 793 866
f 867 793 762
f 869 867 762
f 824 820 769
f 913 806 770
f 770 806 933
f 933 832 770
f 933 806 771
f 771 806 986
f 771 867 869
f 986 867 771
f 771 869 933
f 849 830 785
f 785 830 854
f 785 854 887
f 789 856 925
f 790 850 892
f 915 850 790
f 793 822 866
f 911 822 793
f 793 867 936
f 936 911 793
f 794 809 918
f 909 846 794
f 794 878 909
f 919 878 794
f 794 918 919
f 914 897 796
f 986 916 799
f 917 805 801
f 918 865 805
f 805 917 919
f 919 918 805
f 806 913 916
f 806 916 986
f 810 816 996
f 813 841 849
f 850 841 813
f 892 850 813
f 984 881 817
f 840 827 818
f 818 827 855
f 818 835 883
f 902 835 818
f 883 840 818
f 818 855 902
f 883 824 819
f 819 840 883
f 888 840 819
f 820 824 883
f 883 835 820
f 982 870 821
f 821 906 982
f 988 906 821
f 821 983 988
f 827 840 850
f 827 850 915
f 915 855 827
f 849 841 830
f 830 841 990
f 990 854 830
f 832 845 937
f 875 857 833
f 946 842 836
f 863 850 840
f 888 863 840
f 841 850 863
f 841 863 888
f 841 888 990
f 845 882 937
f 909 868 846
f 853 879 921
f 854 876 887
f 990 876 854
f 867 894 936
f 986 894 867
f 959 887 876
f 919 917 878
f 881 984 992
f 894 924 936
f 898 903 911
f 898 911 936
f 936 924 898
f 988 960 906
f 928 930 961
# 1990 faces, 0 coords texture

# End of File
