v 0 16.963113049971916 -1.2774132155177451
v 0 8.9171430775668963 -5.3100757606802755
v 0 14.274671353196895 4.0865667660856033
v 0 6.2287013807918745 0.053904220923071122
v 2.9999985694885254 14.274671353196895 4.0865667660856033
v 2.9999985694885254 6.2287013807918745 0.053904220923071122
v 2.9999985694885254 12.929473078686177 6.7680668681937757
v 2.9999985694885254 4.8844805324043641 2.7358942117247445
v 5.9999990463256836 12.930450504809386 6.7685567568872766
v 5.9999990463256836 4.8844805324043641 2.7358942117247445
v 5.9999990463256836 11.586229656421875 9.45054674768895
v 5.9999990463256836 3.5402596840168545 5.4178842025264178
v 13.476241286880789 19.632634842925913 0.060558537404775237
v 13.458792686462401 16.963113049971916 -1.2774132155177451
v 13.458792686462401 10.248460514007711 5.4243359084997653
v 13.458792686462401 4.8844805324043641 2.7358942117247445
v 13.458792686462401 11.586229656421875 9.45054674768895
v 13.458792686462401 8.9042396656202012 8.1063258993014387
v 13.458792686462401 3.5402596840168545 5.4178842025264178
v 13.47277969922304 11.579778376739355 16.158747791337959
v 13.458792686462401 6.2157979688451794 13.470305880904787
v 16.458791732788089 22.327093457866091 1.4110286949154265
v 16.458791732788089 19.645103467064416 0.06680784652791516
v 16.458791732788089 8.9106913715935487 1.3981250693105824
v 16.458791732788089 6.2287013807918745 0.053904220923071122
v 16.458791732788089 10.248460514007711 5.4243359084997653
v 16.458791732788089 7.5664705232060383 4.0801150601122558
v 16.458791732788089 4.8844805324043641 2.7358942117247445
v 16.458791732788089 14.261768367541029 17.502968639725466
v 16.458791732788089 11.579778376739355 16.158747791337959
v 16.458791732788089 6.2157979688451794 13.470305880904787
v 16.458791732788089 3.533807978043507 12.126085032517276
v 16.611360549926761 9.0059234489527782 14.868724537514602
v 16.611360549926761 5.8694081360485875 21.126701182718506
v 16.631877899169918 8.5741607513636033 14.652323871723183
v 16.631877899169918 5.4376454384594117 20.910300516927087
v 16.672760009765621 9.4345759286571127 15.083566353445219
v 16.672760009765621 6.298060615752922 21.341542998649125
v 16.73371696472168 8.1517073928875234 14.440589072606679
v 16.73371696472168 5.0151920799833327 20.698565717810581
v 16.814310073852539 9.8477855968076859 15.290668189241876
v 16.82216835565157 6.7252041597912697 21.555628531824006
v 16.91395378112793 7.7507186302088034 14.239612388647942
v 16.89523339650021 4.6558522102356728 20.518463574913596
v 17.05654974709433 10.263419346510192 15.498984981459502
v 17.03193473815918 7.0971504470380129 21.742049046259986
v 17.167400360107418 7.3827281879837203 14.055174554747435
v 17.167400360107418 4.2462128750795287 20.313151199951339
v 17.319377899169918 10.581114952304494 15.658214903351251
v 17.319377899169918 7.4445996394003027 21.916191548555155
v 17.50871379453109 7.042482249219999 13.884642343205265
v 17.48676872253418 3.921808112325067 20.150558629917022
v 17.668365478515621 10.88013793283838 15.808086053489463
v 17.668365478515621 7.7436226199341895 22.066062698693365
v 17.852550413370071 6.7942818150531687 13.760243594764688
v 17.86286544799805 3.6503205352774089 20.014488300647606
v 18.068862915039059 11.122132578915274 15.929374443666298
v 18.068862915039059 7.985617266011082 22.187351088870201
v 18.28487396240234 6.576077662564094 13.650879066192056
v 18.28487396240234 3.4395623496599033 19.908855711395958
v 18.509346008300781 11.300137135014703 16.01859082263768
v 18.607319012737271 8.186427851817891 22.287997913408773
v 18.740655899047852 6.432110723958222 13.578722435848073
v 18.740655899047852 3.2955954110540304 19.836699081051975
v 18.977140426635739 11.40902971683207 16.073168087733997
v 18.977140426635739 8.2725144039278788 22.331144732937901
v 19.217096328735352 6.3590768740538293 13.542117666995022
v 19.217096328735352 3.2225615611496377 19.800094312198926
v 19.458793640136719 25.009083022376934 2.7552493296447871
v 19.458793640136719 22.327093457866091 1.4110286949154265
v 19.458793640136719 11.59913306836857 -3.965854912292766
v 19.458793640136719 8.9171430775668963 -5.3100757606802755
v 19.458793640136719 22.320641325601915 8.1192293112481355
v 19.458793640136719 19.638651761091072 6.775008676518774
v 19.458793640136719 8.9106913715935487 1.3981250693105824
v 19.458793640136719 6.2287013807918745 0.053904220923071122
v 19.458793640136719 11.445678791941106 16.09153670618695
v 19.40094849034605 8.3047620317301227 22.347307333749789
v 19.615065397438009 3.2193174175056498 19.798468338374875
v 19.70048904418945 6.3590768740538293 13.542117666995022
v 19.98473198644054 11.398720678734994 16.068001169145766
v 19.924798523649969 8.2737049476078468 22.331741436744032
v 20.166787448907421 6.4305560466403557 13.577943227249101
v 20.171526035788791 3.2947671146675148 19.836283936597589
v 20.40824127197266 11.300137135014703 16.01859082263768
v 20.40824127197266 8.1636218221105104 22.276567467841581
v 20.632711410522461 6.576077662564094 13.650879066192056
v 20.632711410522461 3.4395623496599033 19.908855711395958
v 20.848722457885739 11.122132578915274 15.929374443666298
v 20.848722457885739 7.985617266011082 22.187351088870201
v 21.054719924926761 6.7868358481816005 13.756511655443701
v 21.054719924926761 3.6503205352774089 20.014488300647606
v 21.24921989440918 10.88013793283838 15.808086053489463
v 21.288120152819989 7.7102918989324856 22.049357248555246
v 21.430818557739261 7.0583234252292577 13.892581984713122
v 21.416555159217111 3.9124160604757376 20.14585130738849
v 21.586800196846362 10.588991950674957 15.666902742710242
v 21.598209381103519 7.4445996394003027 21.916191548555155
v 21.736934659564199 7.3692687978844633 14.048428670967088
v 21.750185012817379 4.2462128750795287 20.313151199951339
v 21.885652542114261 10.233665759942204 15.484072401056084
v 21.885652542114261 7.0971504470380129 21.742049046259986
v 22.003631591796879 7.7507186302088034 14.239612388647942
v 22.003631591796879 4.6142033173046126 20.497589033851845
v 22.103275299072269 9.8477855968076859 15.290668189241876
v 22.09318138552074 6.7291684167200012 21.557615428430722
v 22.183868408203121 8.1517073928875234 14.440589072606679
v 22.183868408203121 5.0151920799833327 20.698565717810581
v 22.24482536315918 9.4345759286571127 15.083566353445219
v 22.24482536315918 6.298060615752922 21.341542998649125
v 22.285709381103519 8.5741607513636033 14.652323871723183
v 22.285709381103519 5.4376454384594117 20.910300516927087
v 22.30622673034668 9.0059234489527782 14.868724537514602
v 22.30622673034668 5.8694081360485875 21.126701182718506
v 22.458793640136719 14.281123059170243 -2.6216340639052547
v 22.438452354249979 11.59913306836857 -3.965854912292766
v 22.458793640136719 22.320641325601915 8.1192293112481355
v 22.458793640136719 19.638651761091072 6.775008676518774
v 22.458793640136719 20.976420477214404 10.801219302049809
v 22.458793640136719 18.294430912703561 9.4569986673204465
v 22.458793640136719 15.612440921901888 8.1127778189329369
v 22.458793640136719 14.261768367541029 17.502968639725466
v 22.458793640136719 11.579778376739355 16.158747791337959
v 22.458793640136719 6.2157979688451794 13.470305880904787
v 22.458793640136719 3.533807978043507 12.126085032517276
v 25.458793640136719 16.963113049971916 -1.2774132155177451
v 25.458793640136719 14.281123059170243 -2.6216340639052547
v 25.458793640136719 20.976420477214404 10.801219302049809
v 25.458793640136719 15.612440921901888 8.1127778189329369
v 25.458793640136719 19.622231378325395 13.4782131779547
v 25.458793640136719 14.268220073514376 10.79476780973461
v 25.458793640136719 11.586229656421875 9.45054674768895
v 25.458793640136719 11.579778376739355 16.158747791337959
v 25.458793640136719 6.2157979688451794 13.470305880904787
v 31.458795547485352 20.976420477214404 10.801219302049809
v 31.458795547485352 12.930450504809386 6.7685567568872766
v 31.458795547485352 19.632199628826896 13.48320929285148
v 31.458795547485352 11.586229656421875 9.45054674768895
v 34.458793640136719 22.320641325601915 8.1192293112481355
v 34.458793640136719 14.274671353196895 4.0865667660856033
v 34.458793640136719 20.976420477214404 10.801219302049809
v 34.458793640136719 12.930450504809386 6.7685567568872766
v 37.458793640136719 25.009083022376934 2.7552493296447871
v 37.458793640136719 16.963113049971916 -1.2774132155177451
v 37.458793640136719 22.320641325601915 8.1192293112481355
v 37.458793640136719 14.274671353196895 4.0865667660856033
v 22.458793640136719 8.7333823352226538 4.8533822164886757
v 1.9870108222938256 15.187694980954412 2.2649016476279424
v 25.458793640136719 12.281152665964955 1.368707689022215
v 35.483373656676633 23.075100863113057 6.6139313310114618
v 23.788457032487631 15.717401929204716 -1.9017670965338755
v 25.458793640136719 10.65804504187429 13.870369963501517
v 23.357859664517932 24.25055350417184 4.2686677370397117
v 33.5970126290512 16.118373421952676 0.40801163851487843
v 29.95879507064819 20.30431005302065 12.142214297450645
v 26.864631513213411 20.283421475915837 12.183891195100614
v 19.458793640136719 21.651756967540251 6.1061239984826177
v 31.479413006208329 14.287829143967043 4.0603143365172558
v 22.348111086876401 21.061394277681973 0.77665674288516762
v 21.014046241664531 14.765637709062254 16.497648321823224
v 28.581824147048259 13.499519182553598 10.409492783598264
v 28.780764760508241 12.43861676810009 7.7498636311075808
v 21.600346297428679 23.463613708926673 5.838770340895941
v 22.458793640136719 7.7052111138010666 10.498628160140427
v 20.931771448788218 19.527940768920516 0.008085576109861492
v 20.087834997240051 17.921210568126558 -0.79721207266902105
v 27.944077500885431 13.442380703163741 5.747153414108821
v 29.33152730787122 14.242738826369145 4.1502785567751799
v 22.87323290078378 22.899016841740973 1.697678286793713
v 7.9413330909592439 12.741010543620195 -3.393542743417548
v 29.030234314785108 14.974264005375311 11.148638993571977
v 35.300136803634743 23.932176680762325 4.9038933063439316
v 28.367353943825471 11.586229656421875 9.45054674768895
v 28.458794593811039 19.632199628826896 13.48320929285148
v 28.57016340183651 21.030939614650681 10.692442696563717
v 37.454983230290182 23.601483783727375 5.5636919108224063
v 19.458793640136719 20.949701301531146 4.1592020930073099
v 19.458793640136719 23.664862173989427 5.4372393204464604
v 0 7.572922229179385 -2.6280857698786022
v 25.458793640136719 12.923999225126867 13.476757800536284
v 13.458792686462401 6.222249674818527 6.7621050509139291
v 13.458792686462401 7.5600188172326908 10.788315890103114
v 25.458793640136719 18.294430699558148 9.4569985604913729
v 16.458791732788089 8.9294848650658825 8.0559566669611371
v 4.1650475511743021 15.44279781624039 1.7559203655098665
v 17.25754267928124 17.403789019804051 -1.0565451928691303
v 16.24836260887799 16.337582189138047 -1.5909310240578627
v 17.456380388043691 13.055268673923667 -3.2360356938096064
v 8.9238062397569493 12.783358865233241 7.0620340568019833
v 8.6918393854833305 3.5402596840168545 5.4178842025264178
v 17.23892888202575 7.4046872214973956 -2.2924232132036391
v 7.8061791771423064 7.6558388817786005 7.4806239516660646
v 13.458792686462401 12.804787394657438 7.0192798460618082
v 0 15.133328406183097 2.3733738600220207
v 22.458793640136719 7.284461859168565 4.6427788628461171
v 15.034523556546491 12.099897419847792 15.121006062130647
v 20.594095230102539 3.533807978043507 12.126085032517276
v 24.046462416344081 9.7058513183340498 6.5069499993758395
v 22.458793640136719 6.7928897464087372 9.009060272498898
v 22.18210139815864 25.009083022376934 2.7552493296447871
v 2.9999985694885254 6.6074082768882541 1.7450541680343044
v 32.701812487064693 19.814528914845155 10.218876017004426
v 13.458792686462401 17.273157151404405 1.3949664390365069
v 25.458793640136719 15.068463122192011 -0.98138483654577868
v 25.458793640136719 14.142282441684218 1.4449047584443129
v 11.18538263876848 15.469826818681216 -2.0258524310239032
v 11.524947734107769 16.23551311113458 0.17429448237320067
v 1.4999992847442627 13.130324636167838 3.513017006358699
v 1.5622431977684705 7.2000186265893902 0.54073112806193002
v 23.947366385140111 12.288222839705316 14.745259106801626
v 25.458793640136719 12.760264755392917 7.1081114342749814
v 31.620956252681829 22.398166560815255 7.9645509299939432
v 29.435810593338029 15.225923977679745 2.1886271376032491
v 5.9999990463256836 10.945762686180833 7.7585029974108046
v 13.16272409160784 8.0965563763047026 -3.6728408360693461
v 13.458792686462401 13.476159971317982 12.37508645213056
v 21.08094558165751 24.359889544397067 4.0505204245131274
v 18.007429671594849 4.2025509670805672 10.79180874512916
v 34.287909950677417 20.224993301757273 0.3574502457298312
v 37.458793640136719 18.635538959317746 -0.43918869475653111
v 2.0970298909604708 7.9371069823954947 -3.354707339615338
v 22.458793640136719 13.388656896626465 15.635712590557025
v 22.458793640136719 12.442123118229988 1.0475393763096754
v 4.6264961152335591 6.3712412387540365 -0.23049136243913892
v 5.8883800673061266 13.891600012133749 4.8508708636799565
v 8.0555484385695433 13.807516389000414 5.0186345432155504
v 2.9999985694885254 10.462256794230839 4.0305462748077403
v 8.4246305308950102 5.6867061747117598 1.1352932795090069
v 7.8205164970154772 9.5434554624555901 8.4267026358559001
v 15.290562061706 14.765600377224697 -2.3788126836118106
v 11.77255500297521 12.82460514479534 6.9797394628176281
v 11.67794646765096 8.8103486313205774 8.0592674515760265
v 11.67794646765096 5.4579070745230229 6.3790144121897985
v 36.106435657758723 21.343493057239094 7.6294798793695913
v 16.458791732788089 13.665809836457312 14.987542152834017
v 18.750047237651589 12.813705355996476 16.77719542782949
v 18.893392576328459 15.279426733573125 15.472536248331066
v 37.441570027746081 15.134705256131394 2.3706267684376297
v 16.611360549926761 6.5243846362999287 19.819891799430319
v 19.048286988885639 5.7864017300021144 21.085098140969631
v 16.7249998423076 7.2361132193342188 16.357654772894538
v 16.75102411088573 5.9457332448567559 18.74582625479988
v 16.79359661852034 9.0487587618012064 16.733938747573415
v 16.792488772438581 7.6954591922871192 19.425969242021651
v 17.634566002485581 9.7468660315614599 17.996893781738876
v 17.615989709335341 8.3641750094875675 20.715904921390809
v 18.696770043059612 8.9336795619138591 20.849061838567497
v 18.728930484531791 5.4461229385782239 15.555211558959281
v 7.5304627517389982 4.7034794251015377 6.0008931744408027
v 22.458793640136719 16.385033517792028 10.013591291541434
v 18.668548307634119 14.997474136903199 -2.2625969098681242
v 21.045015261413401 10.823883339561768 -2.4190763338131074
v 15.80698135781574 11.796249561154601 -3.8670595774582726
v 1.3327400049345357 9.9170962865457302 -4.8088964290901686
v 19.602189899517359 18.034288815876316 9.9760342861428857
v 21.178494677219621 9.6454013157983454 18.378316015788442
v 21.056263906122549 8.660337175320759 20.528091082934814
v 19.790950119199859 4.225565877236221 17.833516897186254
v 22.458793640136719 5.5955143935598484 11.661119016027731
v 24.133111138938659 18.775438612843335 -0.36907059901558625
v 21.148657732062301 4.6924248884863653 18.104560370726336
v 21.022810649767621 5.5563890038020496 16.171716946836401
v 22.101961939056899 6.9972750321285782 16.289007032493675
v 22.262898154209751 17.380991526740033 -1.0679713598469043
v 4.4157237401879712 7.9313306656229869 4.2629839790361093
v 5.9999990463256836 7.3667135285755885 5.6573573030038204
v 2.9999985694885254 12.569817041236215 4.7814984913376817
v 1.394033128347008 9.1681687376862442 1.5271734418536322
v 18.939103878624891 7.197588305242042 4.8161090134503102
v 19.969584483833781 17.101981392755725 11.836174441057892
v 3.6942103857020037 16.272269989673919 0.10095714316002535
v 19.774616017720309 4.4155549930731244 10.366823024666795
v 28.49331459102893 16.067105668769482 0.51030108079897651
v 27.741237210192011 18.540907368026193 -0.48661831170755043
v 25.458793640136719 13.12554654634584 2.8253788341735993
v 27.074925924081111 21.735109976379768 9.2874817005770129
v 4.9504490059167985 14.731535599543315 3.1750310334520178
v 14.06836910021952 6.2999713097729559 -0.088293570758033013
v 4.157056028590624 7.3223736149902727 -2.1281910715702796
v 22.458793640136719 14.95417327267155 13.159456804305707
v 2.3669391941792846 11.283789341171939 -4.1239060660851887
v 25.458793640136719 8.6873739640902095 12.893557409481449
v 23.771594477244101 6.8932323809046245 12.118688462719735
v 22.49009071475864 19.384272249363466 -0.063921485776235798
v 29.229884944012468 23.418024993695049 1.9578066171500863
v 31.53401326994085 15.143025979979809 2.354025256785401
v 33.514249883741108 15.290831424154797 2.0591237736408408
v 31.458795547485352 18.413531479462307 11.20249976056877
v 29.740440073108871 18.065416719175929 12.697933337581961
v 33.302576326212112 23.323565578529482 6.118194428393406
v 7.6938193866393405 4.6060758673601896 3.2913673141815805
v 36.020437996836471 16.241370938063863 5.0722820720935191
v 35.534356327913272 16.089170949192095 0.46627642420428828
v 10.951450228971931 12.130606308442372 -3.6994790450757069
v 36.045617173094023 18.886610652417858 -0.31335086334678763
v 34.150147325418807 18.791161127362514 -0.36119043097683878
v 15.02970351234252 16.124121110753293 7.0918732952178232
v 27.101071854895249 18.476240972784254 12.903839596970528
v 27.243934293217151 12.039063276703095 8.5470529218421074
v 22.458793640136719 14.561023737493368 10.210565818667641
v 13.458792686462401 11.645663547491397 11.705543265263818
v 0 10.199104705329415 -0.32903840887071212
v 0 11.843883513654955 0.70751746305566421
v 0 10.126171612881006 -2.84359731744029
v 7.2937370579944236 12.155854021733861 8.3140319792146169
v 13.458792686462401 8.0690576373839509 6.0719640455194979
v 4.2338830575014192 14.070295906225216 -2.7273012197734161
v 4.4212704323954792 8.2990921971459137 -4.0769403892986666
v 4.7669206967356601 11.950011314519003 -3.7899937586946209
v 4.6504359887402984 10.217898316077141 -4.658133614642626
v 6.9163952075183346 14.169429116400595 -2.6776153789081061
v 5.653201233957164 7.7631211694543829 -3.0075707739168482
v 7.2101527982240388 8.2726722305421418 -4.0242272610402896
v 6.9769795660393594 9.8707003384111509 -4.8321502074327807
v 6.9769795660393594 15.477564057967962 1.6865547456840826
v 5.7341512511091821 7.0161304031866871 -1.517174489143791
v 7.1845786693210698 7.3570857296161138 -2.1974486969803788
v 6.7699690991177768 14.514119516517463 3.6088196919259019
v 22.458793640136719 5.4837914655526063 8.2354771744398541
v 6.9769795660393594 6.3712412387540365 -0.23049136243913892
v 23.958793640136719 13.888913313299614 11.551560814068479
v 9.5361233294946768 13.757997466853016 -2.8838260668320395
v 9.344674632622139 8.2843052324243889 -4.0474374311909695
v 9.1288024568987218 10.93084799813189 -4.3008012495867902
v 9.7824362081300222 15.777391385841323 1.0883391375198599
v 9.3274630168451615 7.4000840411567053 -2.2832389458904245
v 9.359736249984584 14.656568686160005 3.3246050499363768
v 9.1819812703267694 6.4381508419599491 -0.36398943033626452
v 8.2967352337557507 5.9271494710981711 6.6142000074332366
v 11.9282093921837 13.703156985454211 -2.9113122687510291
v 11.67794646765096 8.428926843559374 -4.3359865293417119
v 11.81201475675263 10.233617467506573 -4.6502551321938199
v 10.720271501311689 6.9037477410604104 -1.2929485553443847
v 37.458793640136719 19.426620911134584 3.6454929115040002
v 10.518415004377861 5.7705277883105657 0.96805236150471075
v 34.458793640136719 20.681129349572743 8.9894161444609146
v 11.846494226022759 6.3658313051814606 -0.21969746074511498
v 10.170999947821279 9.5434554624555901 8.4267026358559001
v 9.6735990530810181 7.768945798683081 7.5373134532381378
v 9.8149765415028192 4.5544080623558125 3.3944549400242074
v 10.170999947821279 6.1910139056580373 6.7464495964696711
v 31.458795547485352 13.629003850388157 10.474390859522
v 13.0604324024335 11.911305649089341 -3.8093931459405503
v 14.02842991845676 10.834790468073065 -4.3489455510168966
v 13.001433174025131 7.2462333429932446 -1.9762759694961627
v 13.458792686462401 14.111021462829228 4.4130810948050057
v 13.458792686462401 9.4690118307397135 10.909678457805873
v 2.9999985694885254 10.887676310843101 5.7447126450542259
v 16.458791732788089 19.512988939339159 3.6617030909407076
v 15.37630553522667 7.9925007228539489 -3.4652289534118044
v 17.943380815301751 21.08888465161014 3.8815034155571775
v 16.458791732788089 18.170512800057502 5.8884070589598441
v 0 12.231897159230611 3.0627226542525525
v 16.458791732788089 18.27839972457226 7.9724713878189997
v 16.458791732788089 17.08989926547018 7.7377630707887217
v 16.458791732788089 17.752282572639743 9.0507712115361549
v 16.458791732788089 16.772735828698707 9.2225418301121724
v 18.06274462903621 18.788703939087192 8.4708249213364084
v 16.458791732788089 15.689076864010065 11.17481578724998
v 17.610929672226561 18.039012557803215 9.9666094743031675
v 37.458793640136719 16.337216726496571 5.1203202480312573
v 16.458791732788089 14.275749528903864 13.511486414154943
v 20.480107719057159 6.2584858068305431 6.6898067053867223
v 17.998636112474621 17.089564541850301 11.860948547102716
v 16.458791732788089 6.1448814200164232 9.8921933552369268
v 17.993894013936849 6.1906933634252113 6.825066216413644
v 18.05096553375364 5.2758834252888311 8.6502953820755462
v 16.77661879118855 8.2796000424526532 18.14483960304122
v 16.61146349804309 7.4727905043798497 17.92222376747052
v 16.747483731652409 6.5796622162306733 17.500674065087622
v 17.56763279101564 9.055719287502626 19.232700392074658
v 4.4662089314180573 11.730490166967458 6.1671332956151144
v 17.603772302549931 10.41528824002485 -4.5592012353488371
v 19.46489962619987 9.9211035796933462 -0.61784978479037456
v 20.740163880431979 7.1388175667951694 4.933368415025293
v 19.177669468992761 16.279146563379832 13.477894831807969
v 20.859676567081369 16.451996960400823 13.133023648421331
v 20.27783171469131 5.2827952481615341 8.6365049102308191
v 18.73593162396018 5.4392984296612843 13.081122150572412
v 20.828371663240151 15.660030819113903 14.71315481997196
v 34.458793640136719 14.534721614142402 6.2427218455915483
v 22.458793640136719 11.256829090484935 0.56501353334958004
v 16.458791732788089 8.266112800515149 6.110589683209616
v 33.030307692970808 14.360269420138863 7.4851859769800022
v 15.02515709481642 7.1369768931965565 -1.7582874558254016
v 11.749327656581221 7.1041475566867822 7.2041147239633592
v 13.458792686462401 15.963127853369272 0.71775766094599014
v 16.458791732788089 18.741112037167014 1.8704519200919316
v 35.847093155118337 15.128736892151601 2.3825348507103206
v 13.458792686462401 10.408104850874674 13.44668909040826
v 13.458792686462401 13.66309901184915 8.6544408775213739
v 21.13234696523876 5.1567499575109634 17.148746248210504
v 22.069521098047339 8.2768900357472308 18.574333459095595
v 25.265417081798748 22.361792636817967 8.0371241981469588
v 25.458793640136719 10.723631051870985 7.256372393786787
v 31.458795547485352 17.756162270743186 12.542934147254778
v 0 8.2089121730281018 1.0463913816712864
v 37.458793640136719 20.340430533365687 7.1267421504999184
v 25.315791344861459 22.697388559451781 1.5966216305022112
v 24.409403357442759 23.530802653225969 5.7047149315341468
v 17.70267059717985 14.777758784923662 16.473464346268134
v 25.542580615612032 20.195825026195344 0.34283102483179384
v 25.458793640136719 18.859485895066825 11.418064407989302
v 27.394396470388848 14.576286158148852 3.4847847829173517
v 26.91577192714113 15.393635616154961 1.8540088073853775
v 18.680821608732039 19.772307556610659 0.13056289026583023
v 21.177027587776681 17.600653601242279 10.841223445128721
v 27.722521524992271 22.148079329898096 1.321306315713497
v 27.92225225051466 20.388500712931588 0.4394006153136818
v 27.17186899524512 22.583359031037403 7.5950548370688491
v 28.538693403518671 23.743427713051826 5.2804853245237986
v 20.52528431933932 12.728094398732082 16.734286977760739
v 15.08300206260901 6.8715439514987446 12.161961226010494
v 28.392719160711898 16.765683358753826 12.046503359686364
v 30.748442064173361 22.262468801659377 1.3786386373496358
v 29.12803525534002 22.445038791826711 7.8710314353587592
v 30.712555787972761 23.700060039525496 5.3670125246200424
v 22.458793640136719 12.544692464912103 14.233550804870152
v 0 8.3469633653986186 -0.72233868310826033
v 2.9999985694885254 10.066163345218408 1.9772508386091205
v 22.458793640136719 12.35790873536666 -2.236255856805208
v 31.831783315708009 19.064139481885707 -0.22437291988727992
v 1.394253370406549 11.141138925968995 2.5160315917470113
v 33.009467982331053 23.79323092085102 2.1458608721813892
v 33.697823767685037 22.105993744216626 1.3002129030297596
v 31.260003547797659 16.093601470234965 0.45743664679325668
v 27.560640764338551 24.353329250192058 4.063609526215167
v 11.39312785165378 15.220353357367296 2.199741641546904
v 15.212419182505609 10.182834280671145 15.458595522162099
v 23.93505050787639 9.8464444050818152 15.289995980215824
v 34.458793640136719 16.227018070396998 6.6038410162709722
v 35.81971048792866 18.71156086328503 6.3103481380919808
v 35.745688547138833 21.530998857179284 1.0120238652172873
v 37.458793640136719 20.951784621368688 2.467374187688173
v 37.458793640136719 21.646686862731187 4.9825474634895528
v 18.017937445214301 8.1851379021342154 2.8457496506549651
v 17.730660964344189 7.7813926102033921 0.8321173868340761
v 37.458793640136719 16.867489836770861 2.8011978160788589
v 4.5143484023459823 5.6171437452368682 1.274084267471518
v 4.2987520119500893 13.534583878425321 5.5631896008200048
v 20.677906512089329 13.199483457000156 -3.1637548431271032
v 0 14.904590892664149 -2.3091502504101147
v 0 15.991985459169296 0.66018095395843801
v 0 10.820313486453662 -4.3562014544994838
v 24.163075345146261 15.045818375853649 9.243303356374863
v 23.957577297872099 16.992375178195392 8.804404709068864
v 23.899447253028889 21.706126670134822 9.3453092051440834
v 2.9999985694885254 8.3582769371998573 1.121253417213091
v 2.9999985694885254 6.8021279229105334 3.6970244213881243
v 16.458791732788089 6.8975859519989564 2.0670096405176634
v 5.9999990463256836 6.8021279229105334 3.6970244213881243
v 5.9999990463256836 9.5434554624555901 8.4267026358559001
v 20.676057745620351 18.89698149386399 8.2547894994128388
v 5.9999990463256836 5.4579070745230229 6.3790144121897985
v 15.358641904174631 18.100228506295444 -0.70748778378379917
v 24.056051043562292 19.592775776295255 10.107732726739931
v 22.458793640136719 20.201608080456516 8.6869502317496501
v 21.02107296400624 20.818099289153785 7.3661510604346478
v 13.458792686462401 7.0810449051258466 3.8368183892064325
v 14.96932553773464 9.5044352884835757 6.9088153451588532
v 15.101653497228821 5.5426340690117621 1.4227460041893529
v 15.144699592330049 9.0482996250087453 4.8228119304294852
v 13.458792686462401 14.298879982567549 10.733595146553455
v 32.942700773807992 13.721819803054661 5.1896164068193569
v 32.958794593811042 21.648530901408161 9.4602243066489713
v 11.67794646765096 3.5402596840168545 5.4178842025264178
v 13.458792686462401 8.9291657036249052 14.830253341910286
v 16.458791732788089 6.1671271528809148 6.8720855294058101
v 16.458791732788089 15.18290905264746 15.665108365099332
v 19.349829308742262 14.261768367541029 17.502968639725466
v 16.458791732788089 4.4549486631499375 10.288224757891141
v 18.82413639339552 3.5394237254768122 12.114880490923488
v 16.62967451185655 7.9997529649764134 15.914134773955869
v 14.18922628166046 13.24444276897842 -3.1412211108247412
v 16.678976334122879 7.0765518104086294 19.833598151744859
v 10.051513888600621 13.473599769956676 5.6848651191747983
v 16.968524328355791 5.265744678234654 18.999834873483231
v 17.27256410408469 9.4379789547390907 17.797737485761221
v 17.86286544799805 6.2186451008121724 14.890166068808092
v 17.86286544799805 4.1005246683795722 19.116240828704317
v 18.50645937956287 10.501098711349323 17.609920506516875
v 18.330751956808431 8.7111239460730303 21.004020541698793
v 18.28487396240234 4.0094131218830356 18.771889215759181
v 18.667901609010801 4.1262831691631989 18.236679750521034
v 19.016252044280719 10.752485621648173 17.390534457085273
v 11.285102043966891 14.117322562841192 4.4005091374637715
v 20.74639951616965 5.4100458243454801 13.06646066336701
v 19.458793640136719 7.946015486764276 -3.3724815912040924
v 16.458791732788089 20.20121921393018 5.6525738627192412
v 23.991728270761609 12.391422392837404 1.1486974845122155
v 24.01013430600111 8.147191791189595 9.6167881304267553
v 16.458791732788089 19.360525532554547 7.3299262423407709
v 22.458793640136719 9.2051621891258328 0.8105967727868677
v 19.563097238881731 8.8067335269807216 21.336948657618223
v 20.848722457885739 10.305289542707893 17.55914000621669
v 19.846010081559239 10.368284183135984 18.167602143913992
v 20.848722457885739 9.8588481167289199 18.449880123356778
v 20.25563460580041 4.1055181530788394 18.282802559962068
v 21.37598253263808 5.925852453552424 16.053272162587316
v 15.152746127638061 8.2858385744388947 9.3401600113364065
v 11.7004864159289 16.947067272380831 -1.2854554039078963
v 21.892650831693839 6.8671810659124883 15.600181639169675
v 22.097445981736811 9.0569233318964422 16.894400522382039
v 14.86306532635655 15.055488880631692 9.2240087612554493
v 22.212029442950382 7.4750055292110744 16.082366427639094
v 22.458793640136719 13.309995468367623 -0.68403989442907154
v 20.76684589859703 16.081863877924846 -1.7190977533991916
v 1.0576911517835441 14.124383666653957 -2.7001922836997316
v 22.458793640136719 15.258337697008544 15.51461310277779
v 22.458793640136719 4.4549486631499375 10.288224757891141
v 25.458793640136719 15.991985459169296 0.66018095395843801
v 25.458793640136719 13.309995468367623 -0.68403989442907154
v 25.458793640136719 10.912368619690222 11.636300991479002
v 25.458793640136719 9.1251304283457184 7.6656045584584938
v 25.458793640136719 8.8977879596468537 14.814526729292297
v 34.458793640136719 20.402993935095743 7.158099101584753
v 34.458793640136719 19.058773086708232 9.8400890923864264
v 35.182780975708972 25.009083022376934 2.7552493296447871
v 37.458793640136719 23.091435631870763 1.7941191199814055
v 35.182780975708972 16.963113049971916 -1.2774132155177451
v 37.458793640136719 15.991985459169296 0.66018095395843801
v 0 12.877564662039349 -3.3251014391838449
v 15.05411980836841 7.6784588883516989 14.203395604902829
v 23.684068556163691 7.6896551979923107 14.20900722645829
v 0 10.189122965264328 2.0388785424195017
v 2.9999985694885254 11.985977919138771 2.9394672466317893
v 25.458793640136719 6.9623040448148235 11.980876650414197
v 2.9999985694885254 8.8449021168768169 4.7208685332211751
v 2.6690334888361882 16.963113049971916 -1.2774132155177451
v 2.9053767687352234 8.9157121016412688 -5.3072206769236026
v 4.8113172892237763 16.957770163546581 -1.2667530863195342
v 22.355933283582122 15.753607519098328 -1.8836207541052765
v 5.7686467679576729 8.9171430775668963 -5.3100757606802755
v 13.458792686462401 18.727397504888767 1.8978151605467355
v 6.9769795660393594 16.963113049971916 -1.2774132155177451
v 5.9999990463256836 9.9402661696490142 5.2698680452851647
v 6.0022057177565173 7.5073915294849298 7.4062217255110623
v 8.4520250005399546 8.9171430775668963 -5.3100757606802755
v 10.0230537899814 16.963113049971916 -1.2774132155177451
v 10.421650932670641 8.9171430775668963 -5.3100757606802755
v 16.900100387930749 7.1036868516130722 15.607511771577215
v 10.239052466967641 11.586229656421875 9.45054674768895
v 5.393546859775423 15.601453321987034 -1.9598808612004301
v 13.01288822389693 8.9171430775668963 -5.3100757606802755
v 13.458792686462401 15.150993089174083 2.3725961432610729
v 13.458792686462401 17.797653972081758 3.7528398404512275
v 0 13.918113157645703 1.36233398222861
v 13.458792686462401 16.76881116967909 5.805587423902514
v 13.458792686462401 15.739968367276422 7.8583350073537996
v 13.458792686462401 12.653439960068415 14.016577757707664
v 15.503475352957359 8.9171430775668963 -5.3100757606802755
v 25.458793640136719 16.300931789936598 9.8731546908147703
v 16.458791732788089 21.082693875788181 3.8938552540290434
v 16.458791732788089 17.645133073859132 4.0571495994553857
v 16.458791732788089 16.616290271456464 6.1098971829066722
v 16.458791732788089 18.269437459855467 9.5068656147454682
v 16.458791732788089 17.821478926035692 10.400632666074888
v 16.458791732788089 15.587447469053794 8.1626447663579587
v 16.458791732788089 17.240594657452796 11.559613198196761
v 16.458791732788089 14.548853838305416 10.234847206543979
v 16.458791732788089 15.875788049464681 14.282675905039182
v 16.458791732788089 16.694674378662203 12.648833563472593
v 16.458791732788089 13.529761864248455 12.268139933260537
v 16.458791732788089 5.2562829512524685 8.6894022559523734
v 16.458791732788089 12.535305124928316 14.252280429475341
v 16.458791732788089 7.5652550704823689 10.777868515460927
v 16.672760009765621 8.4310946081845763 17.085712697695296
v 16.640304869045892 7.2340389691276954 17.238868306333771
v 16.66204386289489 7.5680913675570709 18.620812684705257
v 16.64855801936578 6.7612101530871147 18.0967894789319
v 17.234076452852179 8.9449839855502233 18.665222951516533
v 16.94163342873788 6.2701040899099691 17.093406381920946
v 17.203868218045908 5.5766707083744258 17.566147039703363
v 5.4844864342676214 16.118518391023898 0.40772239616421935
v 18.415218173671139 9.4624421856886549 19.590201862288815
v 17.936139841820999 4.8311385425444042 17.567165171742907
v 19.50932880174393 10.786751860806381 17.396628710675756
v 37.458793640136719 17.755344707706822 0.63998599405234202
v 0 11.959872737794973 -1.2449003606940838
v 20.88773773453876 9.4468906364756506 19.212966642187641
v 20.29005523638553 4.7297697646788137 17.064437322576673
v 22.458793640136719 10.222889387761095 -1.2199729534457422
v 22.458793640136719 11.252309863562287 3.4214552724735015
v 22.458793640136719 8.1064865864338262 3.0026747881610989
v 22.458793640136719 10.223467061159619 5.4742028559247871
v 22.458793640136719 16.96982713289794 12.074143150805394
v 22.458793640136719 9.1095702123029092 7.6966503079211561
v 22.458793640136719 6.4654314188273965 6.2769087350259136
v 22.44497403076053 16.141632456642917 13.752263034253914
v 22.458793640136719 13.500757924952518 12.326008604899453
v 21.704098812513539 6.2221618431886467 16.253872248215494
v 24.700862074201378 25.009083022376934 2.7552493296447871
v 33.318312668502692 24.320747785469059 4.1286160780608459
v 25.4626195631032 14.838476979680671 2.9616615477198476
v 11.85980020742188 10.439448692208673 8.8757769364979175
v 25.458793640136719 13.93429985436396 4.7656761208610119
v 25.458793640136719 11.252309863562287 3.4214552724735015
v 25.458793640136719 10.365122500094815 5.1915718657697436
v 25.458793640136719 16.742551312919243 12.034909513928795
v 25.458793640136719 7.7480787407397909 10.413098653201896
v 26.524429623092431 25.009083022376934 2.7552493296447871
v 28.874913073898231 25.009083022376934 2.7552493296447871
v 29.17832649494067 16.963113049971916 -1.2774132155177451
v 31.458795547485352 15.67177804435444 11.49823497135505
v 31.46856489288389 17.956445759957624 9.2875995680230172
v 31.458795547485352 15.916544793553701 8.2651955258415057
v 31.225396524704031 25.009083022376934 2.7552493296447871
v 31.336468933347991 16.963113049971916 -1.2774132155177451
v 16.62132387285655 8.3255781763227326 16.399793683959629
v 33.527888298039407 16.963113049971916 -1.2774132155177451
v 34.458793640136719 17.082269407102427 8.8494599468068813
v 34.458793640136719 18.606138566808404 6.2575101896675687
v 34.458793640136719 16.618676616310658 5.2613887282159482
v 34.458793640136719 15.516415352685129 8.0646495363658346
v 37.458793640136719 20.307964868663575 0.3990358260046829
v 37.458793640136719 18.360219741129459 6.1342549897517031
v 17.009160077282701 9.3367340699610377 17.172819167116316
v 17.03193473815918 8.2796733624439831 19.382678837996302
v 17.553849546351799 4.9200367118241539 18.038009990673842
v 18.05610765570421 10.110242837453487 17.929057052664248
v 17.93408293546884 8.8305533023511522 20.29823026272723
v 5.9999990463256836 8.3711970462797751 4.4834462333366449
v 27.121152722704601 23.478639845849528 1.9881869497640858
v 20.48024719274272 10.159353480113648 18.222041025060719
v 20.26260754629714 8.9077217188726063 20.876567846252577
v 19.11345493745581 8.879510258654248 21.14595953252962
v 20.660311807811329 4.4976480739531057 17.832173321795302
v 22.046629512209119 5.4573506760061798 19.054150178358075
v 21.673986746851782 8.2361564311131925 20.108215341923522
v 22.285810018302371 8.0299586299436161 15.743403020515569
v 22.30622673034668 7.8472256648803995 17.180558833920585
v 22.298277066286541 7.0822169198551901 18.84544958084556
v 17.15689305664452 6.3660733701406729 16.121689854986236
v 18.24294135074614 5.406354706437682 16.036990104366307
v 17.962037290749571 9.496123040135986 19.012452007087855
v 18.340130479683921 4.748431449968689 17.253827903734063
v 18.973301511351131 9.8767148679275696 19.128212475688223
v 19.218818409171259 5.1943346526933016 15.865848564571765
v 18.977140426635739 9.3819691489590067 20.117560168325404
v 20.40824127197266 9.8232311301617319 18.965314292313153
v 19.25176111700809 4.4132761252286317 17.421093712527117
v 20.366326760265181 9.4570823709719409 19.720211269986649
v 20.706673897510139 4.9802680912350308 16.92705141214573
v 22.045901346349041 6.2203063254713298 17.527856541687072
v 21.625107127201979 8.6891976807197064 19.351803808007627
v 17.258237343048219 4.9931905028990409 18.592439326404204
v 19.186037863397718 3.7753786122103064 18.7089988084536
v 19.657308221683468 5.5957362543635254 15.061041376755441
v 19.883581921962119 9.2514145342119516 20.388844062934094
v 19.420358981806469 9.1972014705525869 20.570398854257611
v 20.17692947387695 5.3356159254448219 15.766449309826202
v 29.763273750060481 13.255462686018062 6.120092318967024
v 21.451330332097609 4.4949712013843879 19.05899687508704
v 21.807345289509762 5.0167450169034993 18.982970557499716
v 21.596360848121581 10.080764780123271 16.660467750289264
v 21.918315866391051 8.9791462107574418 17.842505316509879
v 22.103275299072269 7.6823978747061155 19.611050664969596
v 22.207318840994819 6.8730525093446371 17.234602715443373
v 22.289655726460818 7.2449781081337692 17.511626042555839
v 22.19467393848543 6.2489038618394064 18.348960101151953
v 22.28598386581934 6.1574285244857085 19.488608724877729
v 17.50724640422014 5.9603431238642868 16.046371072555225
v 19.421694813004741 10.156754694627598 18.656151609514058
v 19.94937720983642 9.7024550899533573 19.472935884540611
v 19.379453531287631 9.5814957899301785 19.795884608134678
v 21.47073868625942 5.4398190402365367 17.223051516424306
v 21.750185012817379 5.7455715908995213 17.321630072099268
v 21.89164195132 8.4466299317778155 19.023054755260066
v 21.47815257625534 5.0619028728105935 17.995870050248687
v 21.78338718427279 5.4536055562041126 18.024506731551114
v 20.632711410522461 5.4395327428651905 15.918513958468491
v 21.624125501032019 9.3367025151494438 18.062863998639465
v 21.418025558060219 8.2249139917463303 20.744717827259098
v 19.755483787877939 4.8304053508960108 16.613168844620652
v 21.30372661040386 8.9538406250681284 19.534846399399804
v 22.221812889738381 7.8730289359585495 18.366867631051608
v 2.6514930607283205 13.061571797414382 -3.2328765507720707
v 27.137201968128139 16.963113049971916 -1.2774132155177451
v 22.458793640136719 7.0112791879579026 11.883161424627167
v 13.458792686462401 8.2724994487521197 12.823927144542074
v 25.458793640136719 9.157059790271596 11.14167013361835
v 23.753604502071969 13.048465581849586 13.228422474297055
v 32.898121244512879 18.548250530937871 9.5842137664559708
v 27.15974171984675 14.990525813836101 11.15678945723532
v 22.223594667284321 7.122339499250451 19.851658903410701
v 16.458791732788089 8.247369967774123 9.4169125912110374
v 29.877186787981142 12.524077236410887 9.9205985651657844
v 27.064139767907982 13.025920227760889 10.172123669250228
v 16.458791732788089 6.8504285879764328 5.5087622244407504
v 15.174609751353531 12.840297951982066 13.643758615217143
v 19.676886052197961 4.6042015538986796 12.662569272048124
v 20.7824434450614 14.261768367541029 17.502968639725466
v 16.78834800578214 7.1435968875349882 20.496869541524557
v 17.756279501904089 16.138210062762713 13.75909139593443
v 27.259372430917882 12.671807511283893 7.2846013641841125
v 22.458793640136719 10.146405171924066 2.0754782167626695
v 21.432520469645279 5.9259291605397095 7.3533238631487841
v 23.958793640136719 6.2157979688451794 13.470305880904787
v 22.458793640136719 12.920773372140193 16.830858215531713
v 14.958792209625241 6.2157979688451794 13.470305880904787
v 14.95538112617862 7.5646885906103476 10.778998756335092
v 16.640229660851581 6.0507902393402961 19.600465492585819
v 17.275118999569589 8.1529170605338024 20.369403024229044
v 20.66337559039669 9.0204399743205208 20.309656088729589
v 30.163109041824161 21.7799964298041 9.1979242302022204
v 17.88066830192944 14.261768367541029 17.502968639725466
v 37.458793640136719 22.94159911954193 3.7418669335015151
v 32.884409935448623 25.009083022376934 2.7552493296447871
v 21.919572940944729 6.3383648238341923 16.752858967636971
v 17.481134496547039 8.9171430775668963 -5.3100757606802755
v 21.933217835741399 7.8973037811462019 19.935033845112414
v 25.490640312848871 24.211333986614665 4.3469185346363997
v 15.47447950444016 8.8246359191028425 14.7778627229617
v 23.386879910778472 8.8166407802170674 14.77385553709864
v 16.458791732788089 7.1196764572452311 8.657549045516296
v 21.595793358122538 13.536359582561785 17.139391737605457
v 2.2151491889865298 7.0004753907429667 -1.4859396018629543
v 8.1688011118484418 11.586229656421875 9.45054674768895
v 16.978812565681359 8.725724682415045 18.257572521783626
v 16.458791732788089 6.8401735951357479 12.224551373957064
v 19.02669489658815 16.612223557261899 -1.4532800059228546
v 2.0691510797190631 15.459680888157813 -2.0309375996422148
v 12.799887423045019 15.334492546249137 -2.0936823450535886
v 13.458792686462401 7.4737801518451823 14.100810052467029
v 21.49203897973802 12.153936387735719 16.446517384549349
v 19.364746486612209 7.1671066421760852 21.777111285977874
v 20.594095230102539 14.600730957587933 -2.4614456956280275
v 16.458791732788089 12.920773372140193 16.830858215531713
v 22.439380044442949 4.9016594759868237 12.811656010537179
v 16.458791732788089 4.8748029734443428 12.798195456711031
v 23.958793640136719 11.579778376739355 16.158747791337959
v 25.458793640136719 7.5567929642460161 14.142416305098543
v 14.958792209625241 11.579778376739355 16.158747791337959
v 19.571513719705269 4.2908586652374385 20.33552779424469
v 25.458793640136719 9.918265119124845 9.9160842132802944
v 12.55737404650373 5.7121359272558401 1.0845558267507052
v 13.46621086503948 10.093604083799127 15.413873099128285
v 3.7990497763987818 15.459680888157813 -2.0309375996422148
v 17.86286544799805 5.5464159759416818 16.231397895848083
v 20.43158317893128 4.6323336005123874 20.506675982259054
v 32.206182825605197 20.894798286018329 0.69315836816337217
v 21.064455324727991 23.469421285269732 1.9835665815427355
v 23.922103177736918 13.778956993297083 -1.6197121222781359
v 22.236510369500252 8.5527817672303073 16.903517464992238
v 13.458792686462401 11.194172270372579 14.828931212005257
v 4.6113165078369569 6.0037863151970834 3.2968933855139566
v 5.9999990463256836 5.2553730631469495 4.5257589288288758
v 30.357170767421199 20.041835542980063 0.26565106723302456
v 37.458793640136719 18.738086425341699 1.7997318325597433
v 11.520417175818681 5.0223917420157411 2.4607337094599879
v 21.89527620745471 9.5928911232659821 16.719946829569263
v 17.582534557623781 12.304873628868364 16.522167549920752
v 16.458791732788089 5.4051005933928868 11.695977471185342
v 29.982346679866371 18.227169010917486 -0.64386484954355083
v 13.407845164330681 14.438293791174676 -2.5428596555587362
v 18.31373645245937 5.9182718207049207 14.940574500063233
v 18.267114315291181 6.9144873410148344 21.650497789100307
v 22.183868408203121 5.7056593600994088 19.320945115906685
v 11.513608897092659 7.5176241953154568 -2.5177551099189852
v 26.492253886073691 23.429503666175762 5.9068267122530003
v 17.7000365450568 4.5151433855991003 12.617933070213637
v 17.068938832364449 14.788386387537699 -2.3673922718208065
v 22.296319530050141 8.5595136686361428 15.932062006440592
v 18.419410948157982 4.5609532255783076 20.470899939663372
v 17.214258977958089 6.7467240233208585 15.205307593985445
v 0 13.753071968876863 -0.96673089049913763
v 14.958792209625241 17.206972121769113 4.9313685116789499
v 19.165503135668121 5.7550945878807793 14.766926808762914
v 16.458791732788089 20.673421690766311 2.295054831225805
v 16.980260122155901 7.5347405033657511 20.640232234842944
v 21.221668232109351 10.391359104131217 16.824857105547796
v 20.9574114319275 6.0744971386818287 21.229492361678943
v 17.528566741660921 6.4553084583579121 15.020395869239639
v 20.703924591161499 6.0752568174078405 14.738901767754676
v 18.817933903396462 4.7203833447883037 16.964389232656274
v 21.099867864961901 6.2248206730231566 14.959202679304191
v 22.300104816878392 6.5389810727787987 19.89746033459349
v 21.384427067733071 6.4917818755142909 14.939346884419328
v 20.37280216537366 10.722029237705035 17.192625855856747
v 17.338343080304661 9.9975169638176098 16.863176236694731
v 17.721098451315999 6.2675536520328867 21.326252823520164
v 37.458793640136719 19.974903937997755 5.4624304274154127
v 21.647496463885901 6.7629298158998177 15.031400305080247
v 20.39207297190644 7.1068832417616381 21.746927150065538
v 17.483351748496251 5.5554471216580241 13.139336198287143
v 18.740655899047852 6.0109572204123465 14.419008079725749
v 19.991636385927421 10.87856227991238 17.101809224987459
v 22.083533184346749 7.3967365139621126 15.389648593292932
v 17.683224137172679 10.391367430001878 16.80569418089042
v 23.054565739169679 10.569594909219639 15.652441025692461
v 17.716874804611109 5.3222786486490046 20.852478360764479
v 6.7521187707751267 12.145629279912569 -3.6919494899602032
v 20.26784765208274 6.0018922479152428 14.508786585729405
v 22.288428878778099 6.7481888826787353 18.438369171679327
v 20.724488179892219 4.0386471473067207 18.827983792106487
v 19.79186957205636 3.6965950833953762 18.889271494908566
v 18.079955451679229 10.632733038565391 16.917015056379423
v 21.169717037245839 5.047335454125772 20.714676066398003
v 21.082015654124159 4.1991930814010034 18.968565397448963
v 20.31742524214658 3.7581237237451504 19.024648082407232
v 22.078027486174911 7.1993087556060997 20.686670337696953
v 20.63874539346585 8.5025823954471864 21.36773345353209
v 17.563924354275301 5.379139351247284 17.1038529785991
v 9.0142497450145953 15.432700778026396 -2.0444601059359826
v 17.510976112392399 6.8299775506697165 5.5495661425051974
v 21.883441057691879 7.5520034182842473 20.841199468919228
v 21.683840566160981 7.7857275680802616 20.977176831333043
v 23.896822333826972 20.780527412687572 0.63588548839071635
v 20.901198032748241 21.340429267425751 0.91650985640520233
v 19.458793640136719 22.912331042727928 3.5061842860244123
v 10.146812358119529 4.8311613196377108 6.0648876953695847
v 20.569233822344302 8.1810358843801136 2.8539339981688334
v 29.306572348694459 21.105958405225703 0.79899240764899382
v 5.6500849253338128 13.065738683450075 -3.2307880958929527
f 1 442 443 
f 722 442 1 
f 1 443 529 
f 1 529 722 
f 221 179 2 
f 2 179 304 
f 530 221 2 
f 444 254 2 
f 2 254 530 
f 2 304 444 
f 3 5 148 
f 208 5 3 
f 3 148 194 
f 3 194 547 
f 353 208 3 
f 547 353 3 
f 4 6 209 
f 717 6 4 
f 419 179 4 
f 4 179 717 
f 4 209 397 
f 4 397 419 
f 267 7 5 
f 5 7 440 
f 185 148 5 
f 277 185 5 
f 5 208 526 
f 5 225 277 
f 440 225 5 
f 526 267 5 
f 6 8 201 
f 439 8 6 
f 6 201 448 
f 448 209 6 
f 279 224 6 
f 6 224 439 
f 717 279 6 
f 372 9 7 
f 7 9 440 
f 7 267 348 
f 7 348 372 
f 439 10 8 
f 8 10 746 
f 449 201 8 
f 746 449 8 
f 214 11 9 
f 9 11 305 
f 9 189 226 
f 305 189 9 
f 536 214 9 
f 226 225 9 
f 9 225 440 
f 9 372 536 
f 291 12 10 
f 10 12 747 
f 10 228 291 
f 320 228 10 
f 439 320 10 
f 10 451 746 
f 747 451 10 
f 11 214 452 
f 452 229 11 
f 11 229 718 
f 718 305 11 
f 12 190 249 
f 291 190 12 
f 12 249 454 
f 12 454 747 
f 13 14 203 
f 455 14 13 
f 388 23 13 
f 13 23 455 
f 13 203 534 
f 534 388 13 
f 14 187 230 
f 455 187 14 
f 387 203 14 
f 14 206 501 
f 723 206 14 
f 14 207 387 
f 501 207 14 
f 14 230 723 
f 15 18 306 
f 460 18 15 
f 15 26 460 
f 462 26 15 
f 15 306 459 
f 15 459 462 
f 459 19 16 
f 16 19 466 
f 16 28 459 
f 461 28 16 
f 16 278 461 
f 736 278 16 
f 16 466 750 
f 750 736 16 
f 17 18 347 
f 595 18 17 
f 17 193 231 
f 391 193 17 
f 17 231 542 
f 347 301 17 
f 17 301 463 
f 463 391 17 
f 17 542 595 
f 18 181 306 
f 386 181 18 
f 18 182 347 
f 500 182 18 
f 460 184 18 
f 18 184 500 
f 18 232 386 
f 595 232 18 
f 19 181 233 
f 459 181 19 
f 19 233 466 
f 20 196 550 
f 733 196 20 
f 20 429 733 
f 737 429 20 
f 20 550 745 
f 745 737 20 
f 21 182 413 
f 680 182 21 
f 21 413 700 
f 700 523 21 
f 21 523 724 
f 724 680 21 
f 406 23 22 
f 22 23 769 
f 351 70 22 
f 22 70 406 
f 553 351 22 
f 769 553 22 
f 406 186 23 
f 23 186 455 
f 23 388 769 
f 24 25 437 
f 450 25 24 
f 436 27 24 
f 24 27 450 
f 24 75 436 
f 437 75 24 
f 450 28 25 
f 25 28 461 
f 191 76 25 
f 25 76 437 
f 385 191 25 
f 25 278 385 
f 461 278 25 
f 26 27 383 
f 462 27 26 
f 383 184 26 
f 26 184 460 
f 27 28 450 
f 459 28 27 
f 436 269 27 
f 27 269 805 
f 689 383 27 
f 462 459 27 
f 805 689 27 
f 469 235 29 
f 29 235 728 
f 29 401 469 
f 706 401 29 
f 728 706 29 
f 30 45 49 
f 429 45 30 
f 30 49 53 
f 30 53 57 
f 30 57 752 
f 565 196 30 
f 30 196 733 
f 30 235 565 
f 728 235 30 
f 733 429 30 
f 752 728 30 
f 47 43 31 
f 31 43 523 
f 51 47 31 
f 55 51 31 
f 59 55 31 
f 785 59 31 
f 700 413 31 
f 31 413 720 
f 31 523 700 
f 31 720 753 
f 753 730 31 
f 31 730 785 
f 471 218 32 
f 32 218 472 
f 753 471 32 
f 32 472 761 
f 32 730 753 
f 761 730 32 
f 33 35 473 
f 713 35 33 
f 33 37 429 
f 609 37 33 
f 33 429 713 
f 33 473 609 
f 239 36 34 
f 34 36 781 
f 34 38 239 
f 781 38 34 
f 35 39 473 
f 523 39 35 
f 713 523 35 
f 702 40 36 
f 36 40 791 
f 36 239 702 
f 791 781 36 
f 243 41 37 
f 37 41 429 
f 567 243 37 
f 609 567 37 
f 38 42 693 
f 781 42 38 
f 475 239 38 
f 693 475 38 
f 523 43 39 
f 39 43 541 
f 39 241 473 
f 541 241 39 
f 477 44 40 
f 40 44 791 
f 40 242 477 
f 702 242 40 
f 41 45 429 
f 617 45 41 
f 41 243 617 
f 42 46 770 
f 781 46 42 
f 770 693 42 
f 43 47 541 
f 477 48 44 
f 44 48 764 
f 44 764 791 
f 617 49 45 
f 46 50 703 
f 757 50 46 
f 46 703 770 
f 781 757 46 
f 47 51 765 
f 765 541 47 
f 646 52 48 
f 48 52 764 
f 48 477 646 
f 780 53 49 
f 49 617 780 
f 50 54 246 
f 757 54 50 
f 50 246 703 
f 51 55 479 
f 51 479 773 
f 773 765 51 
f 480 56 52 
f 52 56 764 
f 619 480 52 
f 646 619 52 
f 789 57 53 
f 53 780 789 
f 54 58 246 
f 757 58 54 
f 55 59 479 
f 483 60 56 
f 56 60 764 
f 56 480 483 
f 57 61 752 
f 797 61 57 
f 57 789 797 
f 58 62 482 
f 726 62 58 
f 621 246 58 
f 58 482 621 
f 757 726 58 
f 379 63 59 
f 59 63 786 
f 785 379 59 
f 756 479 59 
f 786 756 59 
f 483 64 60 
f 60 64 764 
f 61 65 236 
f 481 65 61 
f 61 236 752 
f 797 481 61 
f 62 66 247 
f 726 66 62 
f 62 247 482 
f 379 67 63 
f 63 67 786 
f 647 68 64 
f 64 68 734 
f 64 483 484 
f 64 484 647 
f 64 734 764 
f 65 77 236 
f 485 77 65 
f 65 481 485 
f 66 78 626 
f 726 78 66 
f 626 247 66 
f 379 80 67 
f 67 80 648 
f 67 648 768 
f 67 768 786 
f 647 79 68 
f 68 79 734 
f 742 70 69 
f 69 70 810 
f 69 178 217 
f 810 178 69 
f 217 200 69 
f 69 200 742 
f 351 177 70 
f 70 177 810 
f 809 406 70 
f 70 742 809 
f 71 72 373 
f 488 72 71 
f 71 116 252 
f 441 116 71 
f 373 188 71 
f 71 188 441 
f 71 252 374 
f 71 374 488 
f 710 373 72 
f 72 488 710 
f 157 74 73 
f 73 74 458 
f 73 117 163 
f 458 117 73 
f 178 157 73 
f 73 163 178 
f 453 118 74 
f 74 118 458 
f 74 157 177 
f 74 177 351 
f 74 351 489 
f 74 358 453 
f 492 358 74 
f 74 489 492 
f 75 76 374 
f 437 76 75 
f 75 374 493 
f 812 436 75 
f 75 493 812 
f 76 191 488 
f 488 374 76 
f 77 81 412 
f 577 81 77 
f 412 236 77 
f 77 485 577 
f 78 82 494 
f 726 82 78 
f 78 494 626 
f 79 84 734 
f 796 84 79 
f 79 647 796 
f 487 83 80 
f 80 83 648 
f 80 379 487 
f 81 85 412 
f 787 85 81 
f 81 577 787 
f 82 86 625 
f 726 86 82 
f 649 494 82 
f 82 625 649 
f 487 87 83 
f 83 87 793 
f 793 648 83 
f 84 88 734 
f 800 88 84 
f 84 796 800 
f 85 89 725 
f 779 89 85 
f 725 412 85 
f 787 779 85 
f 784 90 86 
f 86 90 802 
f 802 625 86 
f 86 726 784 
f 124 91 87 
f 87 91 774 
f 487 124 87 
f 87 774 793 
f 88 92 740 
f 795 92 88 
f 740 734 88 
f 800 795 88 
f 89 93 123 
f 771 93 89 
f 89 123 725 
f 89 495 771 
f 779 495 89 
f 90 94 257 
f 784 94 90 
f 90 257 802 
f 124 95 91 
f 91 95 776 
f 776 774 91 
f 653 96 92 
f 92 96 740 
f 799 653 92 
f 92 795 799 
f 93 97 123 
f 655 97 93 
f 771 655 93 
f 94 98 673 
f 784 98 94 
f 673 257 94 
f 124 99 95 
f 95 99 778 
f 778 776 95 
f 653 100 96 
f 96 100 798 
f 798 740 96 
f 97 101 123 
f 655 101 97 
f 772 102 98 
f 98 102 807 
f 807 673 98 
f 784 772 98 
f 124 103 99 
f 99 103 502 
f 99 502 783 
f 783 778 99 
f 654 104 100 
f 100 104 798 
f 100 653 654 
f 503 105 101 
f 101 105 790 
f 790 123 101 
f 751 503 101 
f 101 655 751 
f 772 106 102 
f 102 106 801 
f 102 801 806 
f 102 806 807 
f 524 107 103 
f 103 107 788 
f 103 124 524 
f 788 502 103 
f 628 108 104 
f 104 108 798 
f 654 628 104 
f 105 109 430 
f 503 109 105 
f 105 430 790 
f 772 110 106 
f 106 110 801 
f 524 111 107 
f 107 111 630 
f 630 505 107 
f 107 505 788 
f 661 112 108 
f 108 112 798 
f 108 628 758 
f 758 661 108 
f 109 113 430 
f 763 113 109 
f 109 503 744 
f 109 744 763 
f 110 114 685 
f 772 114 110 
f 110 685 801 
f 111 113 630 
f 714 113 111 
f 111 524 714 
f 661 114 112 
f 112 114 772 
f 112 772 798 
f 714 430 113 
f 763 630 113 
f 114 661 777 
f 777 685 114 
f 421 116 115 
f 115 116 441 
f 151 127 115 
f 115 127 743 
f 532 151 115 
f 506 421 115 
f 115 441 727 
f 743 506 115 
f 115 507 532 
f 727 507 115 
f 582 252 116 
f 116 421 582 
f 117 118 457 
f 458 118 117 
f 117 119 447 
f 457 119 117 
f 400 163 117 
f 117 394 400 
f 447 394 117 
f 453 120 118 
f 118 120 457 
f 119 120 456 
f 457 120 119 
f 119 128 447 
f 456 128 119 
f 250 121 120 
f 120 121 446 
f 446 183 120 
f 120 183 456 
f 586 250 120 
f 120 255 407 
f 453 255 120 
f 120 407 586 
f 445 129 121 
f 121 129 446 
f 121 250 300 
f 121 300 445 
f 509 160 122 
f 122 160 692 
f 122 222 509 
f 699 222 122 
f 122 692 716 
f 716 699 122 
f 123 210 418 
f 731 210 123 
f 418 222 123 
f 123 222 699 
f 123 699 725 
f 790 731 123 
f 124 259 679 
f 729 259 124 
f 679 283 124 
f 124 283 698 
f 124 487 729 
f 698 524 124 
f 125 197 510 
f 729 197 125 
f 510 259 125 
f 125 259 729 
f 126 127 151 
f 204 127 126 
f 126 151 264 
f 511 204 126 
f 264 260 126 
f 126 260 402 
f 402 274 126 
f 126 274 678 
f 678 511 126 
f 127 204 512 
f 127 512 743 
f 128 130 156 
f 403 130 128 
f 128 156 175 
f 128 175 276 
f 128 183 403 
f 456 183 128 
f 128 276 394 
f 128 394 447 
f 445 131 129 
f 129 131 552 
f 129 183 446 
f 552 183 129 
f 174 156 130 
f 298 174 130 
f 599 298 130 
f 130 403 599 
f 513 132 131 
f 131 132 688 
f 321 180 131 
f 131 180 513 
f 131 300 321 
f 445 300 131 
f 599 552 131 
f 684 599 131 
f 688 684 131 
f 299 173 132 
f 132 173 688 
f 132 211 299 
f 395 211 132 
f 514 395 132 
f 132 513 735 
f 735 514 132 
f 133 152 180 
f 515 152 133 
f 133 180 210 
f 133 210 731 
f 133 430 515 
f 731 430 133 
f 527 282 134 
f 134 282 732 
f 134 283 527 
f 698 283 134 
f 134 524 698 
f 732 524 134 
f 155 137 135 
f 135 137 288 
f 202 141 135 
f 135 141 465 
f 175 155 135 
f 705 175 135 
f 605 202 135 
f 465 212 135 
f 135 212 705 
f 135 288 605 
f 136 138 162 
f 342 138 136 
f 136 142 384 
f 464 142 136 
f 136 158 464 
f 652 158 136 
f 136 162 652 
f 606 342 136 
f 136 384 606 
f 137 155 174 
f 137 174 289 
f 396 288 137 
f 137 289 396 
f 173 162 138 
f 687 173 138 
f 138 342 687 
f 139 141 336 
f 465 141 139 
f 139 145 150 
f 234 145 139 
f 139 150 290 
f 290 212 139 
f 139 212 465 
f 516 234 139 
f 139 336 516 
f 381 142 140 
f 140 142 464 
f 140 146 292 
f 389 146 140 
f 140 158 287 
f 464 158 140 
f 140 287 389 
f 140 292 613 
f 431 381 140 
f 613 431 140 
f 141 202 517 
f 517 336 141 
f 142 381 614 
f 614 384 142 
f 143 172 176 
f 518 172 143 
f 143 176 707 
f 519 518 143 
f 707 519 143 
f 295 220 144 
f 144 220 578 
f 144 293 520 
f 521 293 144 
f 520 295 144 
f 578 521 144 
f 176 150 145 
f 435 176 145 
f 145 234 398 
f 145 398 435 
f 389 238 146 
f 146 238 438 
f 361 292 146 
f 438 361 146 
f 147 195 584 
f 588 195 147 
f 584 583 147 
f 147 583 585 
f 147 585 587 
f 147 587 588 
f 148 185 271 
f 443 194 148 
f 148 271 443 
f 149 205 275 
f 512 205 149 
f 149 275 597 
f 149 490 512 
f 597 490 149 
f 176 172 150 
f 150 172 290 
f 532 264 151 
f 513 180 152 
f 152 282 513 
f 515 282 152 
f 217 163 153 
f 153 163 400 
f 153 200 217 
f 592 200 153 
f 153 400 712 
f 712 592 153 
f 293 287 154 
f 154 287 426 
f 610 293 154 
f 154 426 610 
f 175 174 155 
f 156 174 175 
f 178 177 157 
f 158 168 213 
f 652 168 158 
f 158 213 286 
f 158 286 287 
f 284 165 159 
f 159 165 809 
f 159 169 808 
f 809 169 159 
f 808 284 159 
f 380 237 160 
f 160 237 470 
f 509 380 160 
f 160 470 692 
f 342 171 161 
f 161 171 684 
f 161 173 687 
f 688 173 161 
f 687 342 161 
f 161 684 688 
f 162 167 652 
f 695 167 162 
f 162 173 299 
f 162 299 695 
f 217 178 163 
f 259 199 164 
f 164 199 587 
f 679 259 164 
f 491 283 164 
f 164 283 679 
f 587 491 164 
f 264 166 165 
f 165 166 406 
f 284 264 165 
f 165 406 809 
f 166 186 406 
f 721 186 166 
f 166 264 507 
f 166 507 721 
f 404 168 167 
f 167 168 652 
f 167 211 596 
f 695 211 167 
f 596 404 167 
f 404 213 168 
f 169 200 592 
f 742 200 169 
f 592 399 169 
f 169 399 808 
f 809 742 169 
f 170 311 322 
f 792 311 170 
f 170 322 324 
f 170 324 792 
f 171 342 604 
f 604 414 171 
f 171 414 684 
f 593 290 172 
f 172 518 593 
f 298 289 174 
f 416 276 175 
f 705 416 175 
f 176 435 707 
f 177 178 810 
f 179 221 717 
f 419 304 179 
f 682 210 180 
f 180 321 682 
f 386 233 181 
f 459 306 181 
f 680 347 182 
f 701 413 182 
f 182 500 701 
f 599 403 183 
f 183 552 599 
f 184 383 468 
f 184 468 715 
f 686 500 184 
f 715 686 184 
f 574 271 185 
f 185 277 315 
f 185 315 574 
f 251 187 186 
f 186 187 455 
f 721 251 186 
f 762 230 187 
f 187 251 762 
f 253 230 188 
f 188 230 762 
f 188 251 441 
f 762 251 188 
f 373 253 188 
f 476 226 189 
f 189 231 476 
f 542 231 189 
f 189 305 718 
f 718 542 189 
f 329 249 190 
f 190 291 340 
f 811 329 190 
f 190 340 466 
f 190 466 811 
f 385 350 191 
f 191 350 710 
f 710 488 191 
f 339 229 192 
f 192 229 537 
f 192 329 339 
f 537 329 192 
f 346 231 193 
f 549 346 193 
f 193 391 549 
f 194 443 547 
f 195 375 584 
f 588 375 195 
f 690 550 196 
f 196 565 690 
f 472 272 197 
f 197 272 510 
f 691 472 197 
f 197 487 691 
f 729 487 197 
f 198 514 587 
f 598 514 198 
f 587 585 198 
f 198 585 598 
f 199 259 510 
f 510 319 199 
f 199 319 588 
f 588 587 199 
f 449 448 201 
f 683 517 202 
f 202 605 683 
f 203 387 545 
f 546 534 203 
f 203 545 546 
f 204 511 512 
f 594 275 205 
f 512 511 205 
f 205 511 594 
f 330 322 206 
f 206 322 804 
f 723 330 206 
f 539 501 206 
f 804 539 206 
f 207 325 428 
f 539 325 207 
f 428 387 207 
f 207 501 539 
f 208 353 526 
f 448 397 209 
f 682 418 210 
f 695 299 211 
f 211 395 598 
f 598 596 211 
f 212 290 417 
f 417 416 212 
f 212 416 705 
f 405 273 213 
f 213 273 426 
f 426 286 213 
f 213 404 405 
f 536 452 214 
f 345 331 215 
f 215 331 544 
f 350 345 215 
f 544 350 215 
f 463 301 216 
f 216 301 550 
f 563 463 216 
f 216 550 690 
f 690 563 216 
f 367 272 218 
f 218 272 472 
f 471 367 218 
f 219 295 296 
f 433 295 219 
f 219 296 422 
f 219 422 741 
f 219 425 433 
f 741 425 219 
f 220 295 615 
f 615 578 220 
f 308 279 221 
f 221 279 717 
f 530 308 221 
f 418 280 222 
f 222 280 509 
f 223 382 506 
f 583 382 223 
f 506 490 223 
f 223 490 583 
f 224 279 316 
f 224 316 320 
f 224 320 439 
f 225 226 318 
f 318 277 225 
f 327 318 226 
f 476 327 226 
f 227 348 526 
f 528 348 227 
f 526 420 227 
f 227 420 528 
f 340 291 228 
f 228 320 328 
f 228 328 335 
f 228 335 340 
f 339 338 229 
f 229 338 718 
f 229 452 537 
f 230 253 474 
f 230 474 755 
f 755 723 230 
f 231 346 486 
f 486 476 231 
f 232 338 339 
f 595 338 232 
f 232 339 386 
f 386 341 233 
f 233 341 811 
f 811 466 233 
f 516 398 234 
f 561 362 235 
f 235 362 565 
f 235 469 561 
f 236 412 470 
f 236 470 706 
f 236 706 728 
f 236 728 752 
f 380 376 237 
f 237 376 694 
f 469 401 237 
f 237 401 470 
f 561 469 237 
f 694 561 237 
f 238 389 521 
f 521 438 238 
f 569 369 239 
f 239 369 702 
f 239 475 569 
f 240 726 757 
f 784 726 240 
f 240 734 740 
f 764 734 240 
f 240 740 772 
f 240 757 781 
f 791 764 240 
f 240 772 784 
f 240 781 791 
f 241 370 568 
f 572 370 241 
f 568 473 241 
f 241 541 572 
f 570 370 242 
f 242 370 572 
f 572 477 242 
f 702 570 242 
f 567 368 243 
f 243 368 617 
f 244 368 569 
f 618 368 244 
f 569 475 244 
f 244 475 693 
f 770 618 244 
f 244 693 770 
f 571 371 245 
f 245 371 635 
f 245 478 571 
f 780 478 245 
f 635 620 245 
f 245 620 789 
f 789 780 245 
f 621 371 246 
f 246 371 703 
f 575 482 247 
f 639 575 247 
f 247 626 639 
f 636 634 248 
f 248 634 756 
f 775 636 248 
f 768 638 248 
f 248 638 775 
f 248 756 786 
f 786 768 248 
f 249 329 454 
f 586 300 250 
f 727 441 251 
f 721 507 251 
f 251 507 727 
f 582 374 252 
f 344 343 253 
f 253 343 474 
f 551 344 253 
f 253 373 551 
f 444 281 254 
f 254 281 530 
f 364 270 255 
f 255 270 407 
f 255 358 360 
f 453 358 255 
f 255 360 364 
f 256 495 497 
f 771 495 256 
f 256 497 580 
f 256 580 675 
f 256 645 672 
f 675 645 256 
f 672 655 256 
f 256 655 771 
f 675 580 257 
f 257 580 704 
f 257 673 675 
f 257 704 802 
f 581 498 258 
f 258 498 796 
f 674 581 258 
f 647 641 258 
f 258 641 674 
f 796 647 258 
f 260 264 284 
f 260 284 808 
f 808 402 260 
f 627 392 261 
f 261 392 669 
f 795 627 261 
f 669 653 261 
f 261 653 799 
f 799 795 261 
f 499 392 262 
f 262 392 643 
f 776 499 262 
f 262 643 671 
f 262 671 774 
f 262 774 776 
f 709 502 263 
f 263 502 788 
f 263 505 658 
f 788 505 263 
f 658 644 263 
f 263 644 709 
f 532 507 264 
f 265 449 451 
f 528 449 265 
f 265 451 622 
f 536 528 265 
f 622 536 265 
f 266 451 454 
f 622 451 266 
f 266 454 537 
f 537 536 266 
f 266 536 622 
f 526 348 267 
f 268 397 448 
f 525 397 268 
f 448 420 268 
f 268 420 525 
f 269 363 366 
f 375 363 269 
f 269 366 805 
f 812 375 269 
f 269 436 812 
f 270 364 376 
f 270 376 377 
f 270 377 586 
f 586 407 270 
f 529 443 271 
f 531 529 271 
f 574 531 271 
f 272 367 378 
f 272 378 510 
f 273 405 511 
f 603 426 273 
f 273 511 678 
f 678 603 273 
f 274 402 409 
f 274 409 748 
f 274 603 678 
f 754 603 274 
f 274 748 754 
f 275 594 596 
f 275 596 597 
f 410 394 276 
f 416 410 276 
f 318 315 277 
f 278 337 345 
f 736 337 278 
f 278 345 385 
f 279 308 312 
f 279 312 316 
f 280 300 586 
f 590 300 280 
f 280 418 590 
f 589 509 280 
f 280 586 589 
f 281 309 310 
f 677 309 281 
f 281 310 530 
f 281 444 522 
f 281 522 677 
f 681 513 282 
f 282 515 732 
f 282 527 600 
f 282 600 681 
f 283 491 600 
f 600 527 283 
f 415 408 285 
f 285 408 623 
f 607 415 285 
f 285 602 607 
f 623 602 285 
f 426 287 286 
f 287 293 389 
f 288 396 604 
f 288 604 605 
f 289 298 414 
f 604 396 289 
f 289 414 604 
f 593 417 290 
f 292 361 616 
f 292 432 613 
f 616 432 292 
f 521 389 293 
f 610 520 293 
f 324 322 294 
f 294 322 330 
f 332 324 294 
f 294 330 343 
f 343 332 294 
f 520 296 295 
f 295 433 615 
f 610 422 296 
f 296 520 610 
f 297 548 549 
f 555 548 297 
f 297 549 558 
f 558 555 297 
f 599 414 298 
f 590 321 300 
f 301 347 390 
f 301 390 550 
f 525 303 302 
f 302 303 579 
f 302 304 419 
f 579 304 302 
f 419 397 302 
f 302 397 525 
f 525 353 303 
f 303 353 547 
f 303 547 766 
f 766 579 303 
f 522 444 304 
f 579 522 304 
f 307 309 677 
f 814 309 307 
f 543 311 307 
f 307 311 814 
f 738 543 307 
f 307 677 722 
f 307 722 738 
f 313 312 308 
f 533 313 308 
f 308 530 533 
f 314 310 309 
f 792 314 309 
f 814 792 309 
f 310 314 533 
f 533 530 310 
f 804 322 311 
f 543 535 311 
f 311 535 804 
f 311 792 814 
f 312 313 317 
f 317 316 312 
f 326 317 313 
f 313 323 326 
f 538 323 313 
f 313 533 538 
f 314 324 538 
f 792 324 314 
f 538 533 314 
f 315 318 327 
f 327 325 315 
f 315 325 535 
f 315 535 574 
f 316 317 320 
f 328 320 317 
f 317 326 328 
f 510 378 319 
f 319 378 697 
f 697 588 319 
f 321 590 682 
f 331 326 323 
f 540 331 323 
f 323 538 540 
f 324 332 540 
f 540 538 324 
f 325 327 428 
f 539 535 325 
f 333 328 326 
f 326 331 759 
f 759 333 326 
f 486 428 327 
f 327 476 486 
f 328 333 337 
f 337 335 328 
f 341 339 329 
f 811 341 329 
f 537 454 329 
f 474 343 330 
f 755 474 330 
f 330 723 755 
f 331 345 759 
f 331 540 544 
f 332 343 344 
f 332 344 544 
f 544 540 332 
f 345 337 333 
f 759 345 333 
f 334 434 435 
f 749 434 334 
f 334 435 782 
f 616 438 334 
f 334 438 749 
f 782 616 334 
f 335 337 736 
f 750 340 335 
f 335 736 750 
f 517 516 336 
f 595 542 338 
f 338 542 718 
f 339 341 386 
f 750 466 340 
f 606 604 342 
f 551 544 344 
f 345 350 385 
f 346 428 486 
f 545 428 346 
f 546 545 346 
f 548 546 346 
f 549 548 346 
f 680 390 347 
f 536 372 348 
f 348 528 536 
f 349 352 489 
f 554 352 349 
f 349 388 554 
f 769 388 349 
f 349 489 553 
f 349 553 769 
f 350 544 551 
f 350 551 710 
f 553 489 351 
f 355 354 352 
f 352 354 492 
f 555 355 352 
f 492 489 352 
f 352 554 555 
f 525 423 353 
f 353 423 526 
f 354 355 356 
f 354 356 556 
f 556 492 354 
f 357 356 355 
f 558 357 355 
f 355 555 558 
f 356 357 557 
f 557 556 356 
f 357 359 557 
f 558 359 357 
f 556 360 358 
f 358 492 556 
f 359 362 562 
f 563 362 359 
f 559 557 359 
f 359 558 560 
f 562 559 359 
f 359 560 563 
f 557 364 360 
f 360 556 557 
f 361 438 616 
f 362 561 562 
f 362 563 565 
f 378 366 363 
f 363 375 588 
f 697 378 363 
f 363 588 697 
f 694 376 364 
f 364 557 559 
f 364 559 562 
f 364 562 694 
f 564 471 365 
f 365 471 753 
f 715 564 365 
f 365 566 715 
f 753 566 365 
f 378 367 366 
f 366 367 468 
f 366 468 805 
f 564 468 367 
f 367 471 564 
f 368 567 569 
f 719 617 368 
f 368 618 719 
f 369 473 568 
f 609 473 369 
f 569 567 369 
f 369 567 609 
f 369 568 570 
f 369 570 702 
f 570 568 370 
f 371 571 703 
f 371 621 635 
f 710 551 373 
f 582 493 374 
f 812 584 375 
f 380 377 376 
f 377 380 589 
f 589 586 377 
f 379 472 691 
f 761 472 379 
f 691 487 379 
f 785 761 379 
f 380 509 589 
f 381 431 614 
f 382 493 582 
f 696 493 382 
f 582 506 382 
f 382 583 696 
f 689 468 383 
f 614 606 384 
f 387 428 545 
f 388 534 546 
f 388 546 554 
f 680 467 390 
f 390 467 737 
f 745 550 390 
f 390 737 745 
f 391 463 549 
f 392 499 666 
f 392 627 643 
f 392 666 669 
f 393 503 656 
f 676 503 393 
f 393 656 668 
f 668 657 393 
f 393 657 676 
f 760 400 394 
f 394 410 760 
f 395 514 598 
f 516 432 398 
f 398 432 616 
f 782 435 398 
f 398 616 782 
f 408 402 399 
f 399 402 808 
f 623 408 399 
f 399 592 601 
f 399 601 623 
f 760 712 400 
f 706 470 401 
f 402 408 409 
f 594 405 404 
f 596 594 404 
f 594 511 405 
f 813 409 408 
f 408 415 813 
f 813 748 409 
f 416 411 410 
f 410 411 760 
f 411 416 417 
f 411 417 602 
f 602 427 411 
f 411 427 760 
f 692 470 412 
f 716 692 412 
f 412 699 716 
f 725 699 412 
f 701 566 413 
f 413 566 720 
f 414 599 684 
f 415 424 425 
f 607 424 415 
f 415 425 741 
f 415 741 748 
f 415 748 813 
f 417 593 607 
f 607 602 417 
f 682 590 418 
f 420 423 525 
f 526 423 420 
f 420 448 528 
f 421 506 582 
f 610 608 422 
f 422 608 754 
f 748 741 422 
f 754 748 422 
f 518 425 424 
f 708 518 424 
f 424 607 708 
f 518 433 425 
f 426 603 608 
f 426 608 610 
f 602 601 427 
f 427 601 712 
f 427 712 760 
f 429 467 713 
f 737 467 429 
f 714 515 430 
f 430 731 790 
f 612 611 431 
f 431 611 614 
f 613 612 431 
f 432 516 612 
f 432 612 613 
f 433 518 519 
f 433 519 615 
f 707 435 434 
f 615 519 434 
f 434 519 707 
f 749 615 434 
f 438 521 578 
f 438 578 749 
f 766 443 442 
f 442 508 522 
f 722 508 442 
f 442 522 766 
f 766 547 443 
f 448 449 528 
f 746 451 449 
f 747 454 451 
f 452 536 537 
f 463 504 549 
f 560 504 463 
f 563 560 463 
f 467 523 713 
f 724 523 467 
f 467 680 724 
f 468 564 715 
f 468 689 805 
f 477 572 573 
f 477 573 646 
f 617 571 478 
f 780 617 478 
f 479 634 739 
f 756 634 479 
f 739 662 479 
f 479 662 773 
f 576 483 480 
f 619 576 480 
f 637 485 481 
f 620 575 481 
f 481 575 637 
f 797 620 481 
f 482 575 621 
f 636 484 483 
f 483 576 636 
f 484 636 775 
f 484 641 647 
f 775 641 484 
f 663 577 485 
f 485 637 663 
f 490 506 512 
f 597 583 490 
f 587 514 491 
f 491 514 600 
f 696 584 493 
f 493 584 812 
f 650 626 494 
f 494 649 650 
f 624 497 495 
f 779 624 495 
f 496 577 663 
f 787 577 496 
f 640 624 496 
f 496 624 779 
f 664 640 496 
f 496 663 664 
f 496 779 787 
f 640 580 497 
f 497 624 640 
f 498 581 627 
f 498 627 795 
f 498 795 800 
f 800 796 498 
f 499 591 666 
f 778 591 499 
f 499 776 778 
f 686 566 500 
f 500 566 701 
f 709 591 502 
f 502 591 783 
f 751 656 503 
f 503 676 744 
f 558 549 504 
f 560 558 504 
f 505 630 659 
f 659 658 505 
f 743 512 506 
f 677 522 508 
f 722 677 508 
f 513 681 735 
f 735 600 514 
f 714 524 515 
f 515 524 732 
f 516 517 611 
f 516 611 612 
f 683 611 517 
f 708 593 518 
f 522 579 766 
f 529 531 738 
f 738 722 529 
f 531 535 543 
f 574 535 531 
f 531 543 738 
f 535 539 804 
f 633 572 541 
f 765 633 541 
f 546 548 767 
f 767 554 546 
f 548 555 767 
f 767 555 554 
f 694 562 561 
f 690 565 563 
f 566 686 715 
f 753 720 566 
f 571 617 719 
f 571 618 703 
f 719 618 571 
f 633 573 572 
f 573 619 646 
f 803 619 573 
f 573 633 662 
f 573 662 803 
f 575 620 635 
f 635 621 575 
f 639 637 575 
f 576 619 803 
f 576 634 636 
f 739 634 576 
f 803 739 576 
f 578 615 749 
f 580 640 642 
f 580 642 704 
f 643 627 581 
f 671 643 581 
f 581 651 671 
f 674 651 581 
f 583 584 696 
f 598 585 583 
f 583 597 598 
f 667 666 591 
f 709 667 591 
f 591 778 783 
f 712 601 592 
f 708 607 593 
f 598 597 596 
f 735 681 600 
f 601 602 623 
f 754 608 603 
f 606 605 604 
f 605 606 611 
f 605 611 683 
f 614 611 606 
f 770 703 618 
f 797 789 620 
f 625 642 649 
f 704 642 625 
f 802 704 625 
f 650 639 626 
f 628 644 660 
f 670 644 628 
f 628 654 670 
f 628 660 758 
f 629 645 675 
f 711 645 629 
f 675 673 629 
f 629 673 807 
f 807 711 629 
f 630 631 659 
f 763 631 630 
f 631 632 659 
f 676 632 631 
f 744 676 631 
f 763 744 631 
f 794 659 632 
f 777 661 632 
f 632 661 794 
f 632 676 685 
f 632 685 777 
f 765 662 633 
f 637 639 665 
f 665 663 637 
f 674 641 638 
f 638 641 775 
f 638 648 674 
f 768 648 638 
f 639 650 665 
f 664 642 640 
f 664 649 642 
f 644 658 660 
f 670 667 644 
f 644 667 709 
f 645 668 672 
f 711 668 645 
f 648 651 674 
f 793 651 648 
f 665 650 649 
f 649 664 665 
f 774 671 651 
f 793 774 651 
f 669 654 653 
f 654 669 670 
f 655 672 751 
f 672 668 656 
f 751 672 656 
f 657 668 711 
f 685 676 657 
f 801 685 657 
f 657 711 801 
f 658 659 660 
f 794 660 659 
f 660 661 758 
f 794 661 660 
f 662 739 803 
f 662 765 773 
f 665 664 663 
f 666 667 670 
f 670 669 666 
f 806 801 711 
f 807 806 711 
f 730 761 785 
f 798 772 740 
