v -14.036 0.047250265614143049 2.5591331044109635
v -13.968 0.66410796349852796 2.8683038995400909
v -13.968 -0.5696074322702418 2.2499623092818362
v -13.766302 1.2742048717772561 0.1111127684335198
v -13.766302 -1.1797043405489702 5.0071534403884081
v -13.766 1.2568277514656978 3.1653767070337309
v -13.766 -1.162327220237412 1.9528895017881962
v -13.699609000000001 1.8851184250700714 0.4321433233019718
v -13.699609000000001 0.65140302930130167 -0.18619826695628294
v -13.699609000000001 -0.55690249807301584 5.3044644757782109
v -13.699609000000001 -1.7906178938417856 4.6861228855199553
v -13.48772496800381 2.4729019579817262 0.81169556500020645
v -13.50149 0.041025108196097219 -0.4480395599340885
v -13.50149 0.053475423032188635 5.566305768756016
v -13.50149 -2.3656795486709212 4.3538185635104814
v -13.44 1.8030597129256387 3.4391496864886539
v -13.45108641794393 -1.6483487429222405 1.6333341791389269
v -13.181754 2.9779150074469483 1.0950779185747008
v -13.19047561866279 -0.5598182192716683 -0.6037378597820946
v -13.19753370687585 0.62188966419060254 5.7433393450600043
v -13.18027457120148 -2.8678708374672772 3.9746752154341909
v -13 2.2822419246155374 3.679317144733889
v -13 -2.1877413933872516 1.4389490640880382
v -12.94349344491981 2.4779931302325817 -2.2800972626195555
v -12.967573 -2.3595077120131944 7.3610976134585027
v -12.88387253773451 3.0767061952295087 -1.9453130869024373
v -12.904749000000001 1.8254903256445665 -2.5287377245888254
v -12.904749000000001 -1.7309897944162802 7.6470039334107529
v -12.908437123479819 -2.9669038418054461 6.9929881445738022
v -12.750209 3.4186345799283195 1.4119860504234083
v -12.750209 -1.0513487380744695 -0.82838203022244272
v -12.750209 1.1458492693027558 5.9466482390443698
v -12.750209 -3.3241340487000337 3.7062801583985192
v -12.718126 3.617288522706489 -1.5442155967472799
v -12.718126 1.1981335510033795 -2.7567028019928146
v -12.718126 -1.1036330197750934 7.8749690108147412
v -12.73608796854505 -3.4965046986264445 6.6025900589181585
v -12.416941 4.1076210601862355 -1.1589120635248698
v -12.428936892285909 0.65824483246934107 -2.9277722233827528
v -12.375154080754291 -0.53110007764161582 8.1035219472017559
v -12.416941 -4.0131205289579492 6.2771782723467968
v -12.010434 4.5113566363923043 -0.76821344706257211
v -12.010434 0.04137331838951519 -3.0085815277084227
v -12.010434 0.053127212838771087 8.1268477365303493
v -12.010434 -4.4168561051640181 5.8864796558844992
v -11.64773521246582 3.6103173292621999 -4.3968349498796062
v -11.647944937167409 -3.4027404973946065 9.5732248177944399
v -11.613968 4.1412510797521955 -4.0692934793162756
v -11.613968 2.9075356839834252 -4.6876350695745312
v -11.613968 -2.8130351527551394 9.8059012783964583
v -11.613968 -4.0467505485239084 9.1875596881382027
v -11.499545238208309 2.280173043125183 3.6834449779362544
v -11.5 -2.1877413933872516 1.4389490640880382
v -11.479224558009401 4.6397795737414365 -3.6434701887230792
v -11.446011 2.264530834446159 -4.8843791014955986
v -11.446011 -2.1700303032178732 10.002645310317524
v -11.446011 -4.5891852749209825 8.7901581050719901
v -11.279031 3.2875125572723598 1.673600764076157
v -11.279031 -1.1824707607304292 -0.56676731656969404
v -11.26648152621523 1.2584344584792533 5.7220182231908794
v -11.279031 -3.1930120260440744 3.4446654447457705
v -11.206388602765379 5.1085869320625203 -3.2352963414571696
v -11.206570821551759 1.6561954996871522 -4.9615549950797746
v -11.174951999999999 -1.5426450406990815 10.11450119004777
v -11.193746964290989 -5.0410263481982227 8.2802189534649937
v -11.02701532520933 1.7822426259803168 3.3658626757094572
v -11.045994953158001 -1.6850929111242081 1.6908778824600852
v -10.847485000000001 2.7698677063739328 1.5101739794343938
v -10.847485000000001 -0.74175118824905872 -0.24985918472098678
v -10.847485000000001 0.83625171947734411 5.3681253935429147
v -10.802991511592611 -2.6442698452449886 3.6721423647357256
v -10.83707348468069 5.4949690288803676 -2.7307172980078911
v -10.809105000000001 1.0484313167010773 -5.0178640610572582
v -10.761430875667999 -0.97774392613947902 10.183642257953334
v -10.84154838797088 -5.3919889886710708 7.8320651870155835
v -10.716817676598771 1.251159531653004 3.0946250077385731
v -10.74203313987622 -1.1731725137783815 1.9371207299623578
v -10.624615 4.2541507308201414 -0.25503611824259798
v -10.624615 -0.21583258718264797 -2.495404198888449
v -10.624615 0.31033311841093425 7.6136704077103765
v -10.624615 -4.1596501995918551 5.3733023270645255
v -10.52626610374343 0.6734570841811699 2.8218244500853054
v -10.549907063478781 -0.68645061784711414 2.288980039387027
v -10.527749 2.1951387110017926 1.2932582937878028
v -10.527749 -0.22401626070131669 0.08077108854226811
v -10.527749 0.31851679192960247 5.0374951202796598
v -10.527749 -2.1006381797735076 3.8250079150341247
v -10.463205272043851 0.033683136623567825 2.5696566626035162
v -10.329630999999999 1.5847607898965888 1.0314170008099972
v -10.329630999999999 0.35104539412781893 0.41307541055174246
v -10.329630999999999 -0.25654486289953299 4.705190798270185
v -10.329630999999999 -1.4902602586683027 4.0868492080119303
v -10.260689400541271 0.96527887634841836 0.72748204185497811
v -10.254833101143941 -0.87850793966083207 4.408973387997368
v -10.218108000000001 3.6995218836464128 -0.34467241827077144
v -10.218108000000001 0.1879029890234212 -2.1047055824261522
v -10.218108000000001 -0.093402457795135105 7.222971791248078
v -10.218108000000001 -3.6050213524181269 5.4629386270926981
v -9.920035550954319 4.555216853940923 -6.2777395395154532
v -9.9249510000000001 -4.3998584188606804 11.432006184809985
v -9.8849088922885819 3.1242275047427506 -0.56046005046221392
v -9.929340991087793 0.65989289758355618 -1.6828048284223498
v -9.9354636563395804 -0.55620873492548051 6.7869431041302075
v -9.9169230000000006 -3.0028899669779916 5.6251810527801336
v -9.876868 5.0896719242890125 -5.9615831392830234
v -9.876868 3.8559565285202426 -6.5799247295412773
v -9.876868 -3.7614559972919572 11.698190938363206
v -9.876868 -4.9951713930607262 11.079849348104952
v -9.7340319999999991 5.6183906692227561 -5.5368154243473331
v -9.7297581836350631 3.1871934987051964 -6.7505576400975844
v -9.7856741856451759 -3.0711804959665008 11.810045329634082
v -9.7340319999999991 -5.5238901379944698 10.655081633169262
v -9.7302990000000005 2.47003372356509 -0.7348799213621966
v -9.7302990000000005 1.2363183277963203 -1.3532215116204513
v -9.7302990000000005 -1.1418177965680341 6.4714877204423775
v -9.7302990000000005 -2.3755331923368042 5.8531461301841237
v -9.6674749999999996 1.8415158059681762 -1.0207862413144473
v -9.6674749999999996 -1.7470152747398902 6.1390524501363739
v -9.5619010000000006 5.1450102463345422 -2.0324793908165648
v -9.6094163044422931 0.63519545806319433 -4.193375705563728
v -9.5619010000000006 -0.58052639710346632 9.3911136802843416
v -9.5619010000000006 -5.050509715106255 7.1507455996384923
v -9.5035150000000002 6.0613340449134494 -5.0569610159892022
v -9.4786099854201833 2.5811738744445281 -6.8383472146514119
v -9.5330982327924154 -2.4291955125281146 11.898317469993355
v -9.4304386405421017 -5.997653764076575 10.215762493199415
v -9.1960540000000002 4.556295991108251 -2.0541084706479791
v -9.1960540000000002 1.0446770964852592 -3.814141634803359
v -9.1960540000000002 -0.95017656525697336 8.9324078436252865
v -9.1960540000000002 -4.4617954598799647 7.1723746794699057
v -9.1923879999999993 6.4011084566379282 -4.5386470577879159
v -9.1923879999999993 1.9311251386351387 -6.7790151384337651
v -9.1923879999999993 -1.8366246074068526 11.897281347255694
v -9.1923879999999993 -6.3066079254096419 9.6569132666098429
v -8.9249949999999991 3.9289107285894591 -2.1659643503782235
v -8.9249949999999991 1.5097557568863496 -3.3784515556237582
v -8.9249949999999991 -1.4152552256580635 8.4967177644456857
v -8.9249949999999991 -3.8344101973611733 7.2842305592001502
v -8.7570379999999997 3.2859058790521929 -2.3627083822992909
v -8.7570379999999997 2.052190483283423 -2.9810499725575457
v -8.7570379999999997 -1.957689952055137 8.0993161813794732
v -8.7570379999999997 -3.1914053478239071 7.4809745911212175
v -8.7004979999999996 2.6521204080240643 -2.638104877474253
v -8.7004979999999996 -2.5576198767957785 7.7563710862961806
v -8.1975363424623211 5.8899247208291516 -3.5187330573880957
v -8.1317280000000007 1.4558713769515732 -5.8307886372191984
v -8.1317280000000007 -1.3613708457232876 10.949054846041127
v -8.1317280000000007 -5.8313541637260764 8.7086867653952762
v -7.8468966700148064 5.3027540596531635 -3.5285033906676264
v -7.820600999999999 1.7956457886760517 -5.312474679017912
v -7.820600999999999 -1.7011452574477659 10.430740887839839
v -7.820600999999999 -5.2127641520707568 8.6707077236844601
v -7.7979839999999987 5.2764965391649366 -7.8742612161159915
v -7.8373682329536036 -5.1269116427003016 12.977921574053758
v -7.760205 5.8680206028669941 -7.5145447436235511
v -7.760205 4.6343052070982251 -8.1328863338818049
v -7.760205 -4.5398046758699389 13.251152542703736
v -7.760205 -5.7735200716387078 12.632810952445482
v -7.5639839733035492 6.3987213970646062 -7.114479478674923
v -7.6479799999999996 3.966328318786847 -8.2798061437470878
v -7.6479799999999996 -3.8718277875585625 13.398072352569017
v -7.6479799999999996 -6.2909827592616718 12.185585147323483
v -7.5900840000000001 4.6577441360698542 -3.6201330654142461
v -7.5900840000000001 2.2385891643667444 -4.8326202706597812
v -7.5845675429692756 -2.1645083951683843 9.9344814812964763
v -7.5900840000000001 -4.5632436048415679 8.7383992742361727
v -7.4668640000000002 6.8102608656355406 -6.5512201174077251
v -7.5153734487780168 3.3231128905393033 -8.2815072499665376
v -7.4967487721070976 -3.2088257791642252 13.409758673679942
v -7.4668640000000002 -6.7157603344072552 11.669486326229656
v -7.4472490000000002 4.0010237531428743 -3.7895118594624999
v -7.4868391947096358 2.7591987303586976 -4.3551252575063533
v -7.5031903393039885 -2.6422650046403287 9.4651806084849248
v -7.4472490000000002 -3.9065232219145885 8.9077780682844274
v -7.3738892639006517 3.3773369182101516 -4.072332059588895
v -7.3496891910967017 -3.2958533450992578 9.2069041812829067
v -7.2224130000000004 7.1255166890854325 -5.9839866617742175
v -7.2224130000000004 2.6555333710826425 -8.2243547424200685
v -7.2317441594647081 -2.5576015431452555 13.335774826633591
v -7.2277471450523771 -7.0290546616000809 11.098339292455506
v -6.3890580000000003 6.5666774827546668 -4.8689904469449488
v -6.3890580000000003 2.0966941647518769 -7.109358527590798
v -6.3890580000000003 -2.0021936335235915 12.227624736412729
v -6.3890580000000003 -6.4721769515263805 9.9872566557668776
v -6.1446069999999997 5.9235688828247586 -4.7820919078019113
v -6.1446069999999997 2.4119499882017665 -6.5421250719572903
v -6.1446069999999997 -2.3174494569734816 11.660391280779221
v -6.1446069999999997 -5.8290683515964723 9.9003581166238401
v -5.9634910000000003 5.2558825350504605 -4.8135390456179277
v -5.9634910000000003 2.8367275633473503 -6.0260262508634614
v -5.9634910000000003 -2.7422270321190654 11.144292459685392
v -5.9634910000000003 -5.1613820038221752 9.9318052544398565
v -5.8512659999999999 4.5879056467390837 -4.9604588554832105
v -5.8512659999999999 3.3541902509703134 -5.5788004457414644
v -5.8512659999999999 -3.2596897197420285 10.697066654563393
v -5.8512659999999999 -4.4934051155107975 10.078725064305138
v -5.8134870000000003 3.9457138665987554 -5.2190830792523606
v -5.8134870000000003 -3.8512133353704701 10.337349288074291
v -5.3713449999999998 5.8576775921431343 -9.0338338925857116
v -5.2987615263782821 -5.7533262945913872 14.179261188191278
v -5.3453220000000004 6.4463855131678205 -8.6684986510625439
v -5.3453220000000004 5.2126701173990515 -9.2868402413207978
v -5.3453220000000004 -5.1181695861707652 14.405106450142728
v -5.3453220000000004 -6.3518849819395342 13.786764859884475
v -5.2680199999999999 6.9554844586721165 -8.2045855042177767
v -5.2680199999999999 4.5363294869690067 -9.4170727094633104
v -5.3073429155850551 -4.4653529951259685 14.512125524139783
v -5.2680199999999999 -6.8609839274438302 13.322851713039707
v -5.0801901103535059 7.3534918259293267 -7.7106167685344076
v -5.1432650000000004 3.8551444734352005 -9.4215873037917
v -5.0904104087056199 -3.7678280240106052 14.554187195589687
v -5.1432650000000004 -7.2722628368299072 12.779820348458248
v -4.9748849999999996 7.6638005182762718 -7.0579707796608115
v -4.9748849999999996 3.1938172002734819 -9.2983388603066626
v -4.9748849999999996 -3.0993166690451965 14.416605069128593
v -4.9748849999999996 -7.5692999870479856 12.176236988482742
v -4.4008589999999996 7.0428515876457611 -5.8190532173065499
v -4.4008589999999996 2.5728682696429712 -8.0594212979524009
v -4.3347561118742206 -2.4873525535581513 13.195614013652188
v -4.2847439772757481 -6.9693337993635431 10.979184203503735
v -4.2748826962808097 6.3425470326280173 -5.6733087520145791
v -4.2324789999999997 2.8699054198610501 -7.4558379379768951
v -4.2324789999999997 -2.7754048886327651 12.574104146798826
v -4.2324789999999997 -6.2870237832557558 10.814070982643445
v -4.1077240000000002 5.7003393009502368 -5.7003193681499038
v -4.1476907595534502 3.2716122780711872 -6.8937084129435231
v -4.0250320211742414 -3.1979234248587081 12.053498090321336
v -4.0547425190903539 -5.6130400978713553 10.832953669863972
v -3.9962973362225869 5.0566716012751378 -5.8353452574334774
v -4.0304219999999997 3.7902828266778066 -6.448892532554007
v -4.0304219999999997 -3.6957822954495212 11.567158741375938
v -4.0304219999999997 -4.9294976912182902 10.948817151117684
v -4.0043990000000003 4.3789907477024927 -6.0835572910308375
v -4.0043990000000003 -4.2844902164742065 11.201823499852768
v -2.7382879999999998 6.2155669834803708 -9.7478949537067212
v -2.7382879999999998 -6.1210664522520846 14.866161162528652
v -2.7250220000000001 6.8025413076842529 -9.379100839092084
v -2.7250220000000001 5.5688259119154839 -9.9974424293503379
v -2.7251277265941072 -5.4794797400091744 15.113719809236063
v -2.7250220000000001 -6.7080407764559666 14.497367047914013
v -2.685613 7.3064891988975278 -8.9049103066025648
v -2.685613 4.887334227194418 -10.117397511848099
v -2.629984944112695 -4.7984042765051012 15.24003063833403
v -2.5857837069778213 -7.2163942775011058 14.031966589977058
v -2.695734688522144 7.6951157458666071 -8.3316217435497908
v -2.7044156244821576 4.1866368375140732 -10.082981005245747
v -2.5689374066371826 -4.107582960925539 15.228315832433093
v -2.6220140000000001 -7.6149553634025064 13.463560618736583
v -2.5361739999999999 7.9952741776482288 -7.7193271614759151
v -2.5361739999999999 3.5252908596454389 -9.9596952421217662
v -2.5361739999999999 -3.4307903284171535 15.077961450943695
v -2.5361739999999999 -7.9007736464199425 12.837593370297844
v -2.2435390000000002 7.3360781312185477 -6.404098937913373
v -2.2435390000000002 2.8660948132157578 -8.6444670185592241
v -2.2435390000000002 -2.7715942819874733 13.762733227381155
v -2.2435390000000002 -7.2415775999902623 11.522365146735304
v -2.230590026421666 6.6907375804057176 -6.2478605524616206
v -2.157699 3.1519126481595787 -8.0184988761238234
v -2.0669365574099601 -3.06456321213241 13.140313709184364
v -2.157699 -6.5690310115542845 11.376731920790373
v -2.0941000000000001 5.9740343155959534 -6.2463957741903773
v -2.0941000000000001 3.5548793438928432 -7.4588829794359111
v -2.0941000000000001 -3.4603788126645578 12.577149188257842
v -2.0941000000000001 -5.8795337843676672 11.364661983012308
v -2.1203859279261179 5.2598780721609586 -6.3575371813685528
v -2.054691 4.0588276831797341 -6.9846933409430552
v -2.054691 -3.9643271519514487 12.102959549764986
v -2.054691 -5.1980425477202177 11.484617959506732
v -2.041828866126572 4.6279319026122874 -6.6271258170013674
v -2.0414249999999994 -4.5513010280817152 11.734164541153683
v 0 6.3364115416031757 -9.9890040658864638
v 0 6.9228002335907766 -9.6190414976324998
v 0 5.6890848378220076 -10.237383087890754
v 0 7.4250091510998546 -9.1413813640915471
v 0 5.0058541793967448 -10.353868569337081
v 0 7.8251691137016852 -8.5761654723028418
v 0 4.3135502190786941 -10.336198636458223
v 0 8.1071989342947486 -7.9426394820733623
v 0 3.6372156162919604 -10.183007562719213
v 0 7.4350885101009947 -6.6016444866725248
v 0 2.9651051920982048 -8.8420125673183758
v 0.037875429258105608 6.7570824100703861 -6.4451184409435296
v 0 3.2471350126912686 -8.2084865770888964
v -0.065384274478890836 6.061153176129972 -6.4254374285034821
v -0.051329400640119704 3.6463002836948739 -7.6375426375730822
v -0.015720994195527194 5.4471820604716665 -6.5348612735318952
v 0 4.149503892802179 -7.1656105517592366
v 0 4.7722012782317131 -6.7817163509699778
v 0.075072311057829966 -4.6872749189773488 11.888427540531843
v 0.069056427688923172 -4.0519558108166764 12.277796286054143
v 0.030398660480605688 -5.2858580050253643 11.663441466114442
v 0.050046824921332167 -3.5505858060223692 12.757130218589413
v -0.094593637505953287 -5.9687734492203592 11.540746106913071
v 0.060508664236337939 -3.1433350618461047 13.336315926598024
v -0.02562555757844831 -6.6456925914162364 11.564018394398063
v 0 -2.8706046608699194 13.960278776140306
v 0 -7.3405879788727084 11.719910695494455
v 0 -3.5427150850636751 15.301273771541142
v 0 -8.0126984030664641 13.060905690895291
v 0.019830017457337035 -4.256752279060124 15.453703424857231
v -0.038131420032825547 -7.7343490644988959 13.679026597294676
v -0.070013391048716622 -4.9082638568393984 15.465970025225632
v 0 -7.3244527733908056 14.265407399825849
v 0 -5.5945843065937213 15.355649296712684
v -0.050815538493110157 -6.8223521596547636 14.735170886287907
v 0 -6.2419110103748894 15.107270274708394
v 2.0414249999999998 4.6458015593100006 -6.6158983323317546
v 2.0389863749510901 -4.5457916757939261 11.737923114400013
v 2.054691 5.2925430789485031 -6.3663517506848013
v 2.054691 4.0588276831797341 -6.9846933409430552
v 2.054691 -3.9643271519514487 12.102959549764986
v 2.054691 -5.1980425477202177 11.484617959506732
v 2.0941000000000001 5.9740343155959534 -6.2463957741903773
v 2.0941000000000001 3.5548793438928432 -7.4588829794359111
v 2.0941000000000001 -3.4603788126645578 12.577149188257842
v 2.0941000000000001 -5.8795337843676672 11.364661983012308
v 2.0867437475789221 6.6261132066709809 -6.2636784347546186
v 2.157699 3.1519126481595787 -8.0184988761238234
v 2.1231989135207101 -3.0514307636663953 13.156658936237545
v 2.0919378520745142 -6.5881504271251163 11.386195505163579
v 2.2435390000000002 7.3360781312185477 -6.404098937913373
v 2.2435390000000002 2.8660948132157578 -8.6444670185592241
v 2.2435390000000002 -2.7715942819874733 13.762733227381155
v 2.2401619951539762 -7.2509194301229245 11.541003970066772
v 2.5361739999999999 7.9952741776482288 -7.7193271614759151
v 2.5361739999999999 3.5252908596454389 -9.9596952421217662
v 2.5361739999999999 -3.4307903284171535 15.077961450943695
v 2.5361739999999999 -7.9007736464199425 12.837593370297844
v 2.6220140000000001 7.7094558946307918 -8.3452944099146524
v 2.6220140000000001 4.1978370000078007 -10.105327574070033
v 2.5978320910757589 -4.1093722287179668 15.225849839755082
v 2.6220140000000001 -7.6149553634025064 13.463560618736583
v 2.693360791185277 7.3146535408587336 -8.8893247720557262
v 2.607573201289838 4.8659240266588828 -10.123634635427587
v 2.7039207445596318 -4.718671124673592 15.227688983506859
v 2.685613 -7.2119886676692424 14.023176515424494
v 2.7143427764211032 6.8073628156746562 -9.3759035757550979
v 2.7250220000000001 5.5688259119154839 -9.9974424293503379
v 2.752917145737857 -5.4212750074966927 15.115980093053814
v 2.7877225207983849 -6.7229540138244088 14.457572242542037
v 2.7382879999999998 6.2155669834803708 -9.7478949537067212
v 2.7382879999999998 -6.1210664522520846 14.866161162528652
v 4.0043990000000003 4.3789907477024927 -6.0835572910308375
v 4.0043990000000003 -4.2844902164742065 11.201823499852768
v 4.0304219999999997 5.0239982224465765 -5.8305509422957531
v 4.0304219999999997 3.7902828266778066 -6.448892532554007
v 4.0304219999999997 -3.6957822954495212 11.567158741375938
v 4.0304219999999997 -4.9294976912182902 10.948817151117684
v 4.1077240000000002 5.7003393009502368 -5.7003193681499038
v 4.1069743747247456 3.3124719242446221 -6.8814056120570317
v 4.1841279259370268 -3.1737315107325816 11.989104699825086
v 4.1578850828116698 -5.5837310937400106 10.795971304773849
v 4.2324789999999997 6.3815243144840421 -5.6958047738215143
v 4.1802298975336347 2.9282849088793017 -7.394991944081827
v 4.2324789999999997 -2.7754048886327651 12.574104146798826
v 4.1409812301160018 -6.2559796781313821 10.837058395719108
v 4.4008589999999996 7.0428515876457611 -5.8190532173065499
v 4.4008589999999996 2.5728682696429712 -8.0594212979524009
v 4.4008589999999996 -2.4783677384146867 13.177687506774332
v 4.2898471596114298 -6.963439971484684 10.96742483569035
v 4.8750315881364852 7.6773727602644257 -7.0850501224701663
v 4.8961089139519816 3.2045245770447921 -9.3197022228544508
v 4.9748849999999996 -3.0993166690451965 14.416605069128593
v 4.9748849999999996 -7.5692999870479856 12.176236988482742
v 5.1432650000000004 7.3667633680581925 -7.6615541396363191
v 5.1432650000000004 3.8551444734352005 -9.4215873037917
v 5.1230096792254898 -3.8358224354315782 14.548388006660224
v 5.1432650000000004 -7.2722628368299072 12.779820348458248
v 5.2680199999999999 6.9554844586721165 -8.2045855042177767
v 5.2680199999999999 4.5363294869690067 -9.4170727094633104
v 5.2690802788404536 -4.451105684148577 14.53355264198823
v 5.3079043159478347 -6.8105666630301878 13.345513122607118
v 5.3453220000000004 6.4463855131678205 -8.6684986510625439
v 5.3453220000000004 5.2126701173990515 -9.2868402413207978
v 5.3453220000000004 -5.1181695861707652 14.405106450142728
v 5.3453220000000004 -6.3518849819395342 13.786764859884475
v 5.3085397918830264 5.8694439906312867 -9.0488106967235726
v 5.3925410268745022 -5.7581006036346842 14.1419715517497
v 5.8134870000000003 3.9457138665987554 -5.2190830792523606
v 5.8134870000000003 -3.8512133353704701 10.337349288074291
v 5.8512659999999999 4.5879056467390837 -4.9604588554832105
v 5.8512659999999999 3.3541902509703134 -5.5788004457414644
v 5.8512659999999999 -3.2596897197420285 10.697066654563393
v 5.8512659999999999 -4.4934051155107975 10.078725064305138
v 5.9858153044115907 5.2598407907501112 -4.7988408698098617
v 5.9634910000000003 2.8367275633473503 -6.0260262508634614
v 5.9634910000000003 -2.7422270321190654 11.144292459685392
v 6.0280046768060638 -5.1376587323233229 9.8844725733664198
v 6.1446069999999997 5.9235688828247586 -4.7820919078019113
v 6.1179130587697088 2.4427314077663573 -6.5163453202443051
v 6.2027690083591027 -2.3043711694626445 11.602663080780763
v 6.1446069999999997 -5.8290683515964723 9.9003581166238401
v 6.3890580000000003 6.5666774827546668 -4.8689904469449488
v 6.3890580000000003 2.0966941647518769 -7.109358527590798
v 6.3890580000000003 -2.0021936335235915 12.227624736412729
v 6.3890580000000003 -6.4721769515263805 9.9872566557668776
v 7.2224130000000004 7.1255166890854325 -5.9839866617742175
v 7.2224130000000004 2.6555333710826425 -8.2243547424200685
v 7.2224130000000004 -2.5610328398543571 13.342620951241999
v 7.2818897402942939 -7.0081159189335107 11.056562304456042
v 7.3450025077043799 3.4133451055756141 -4.0845913853674691
v 7.399165 -3.2681203522722484 9.1739619278409847
v 7.4170436672859328 4.0108737328023851 -3.812115510333117
v 7.4472490000000002 2.7673083573741044 -4.4078534497207542
v 7.4472490000000002 -2.6728078261458186 9.5261196585426813
v 7.439233498853981 -3.9112163003353886 8.9134999636148748
v 7.4668640000000002 6.8102608656355406 -6.5512201174077251
v 7.4668640000000002 3.2986419710125485 -8.3112532815631059
v 7.4668640000000002 -3.2041414397842645 13.429519490385037
v 7.4668640000000002 -6.7157603344072552 11.669486326229656
v 7.5568993811287193 4.6699469395999635 -3.6444801040476151
v 7.6334364111502317 2.1939890870526289 -4.8336452305339392
v 7.5327676481215597 -2.1462913791027862 10.027136251481968
v 7.5900840000000001 -4.5632436048415679 8.7383992742361727
v 7.6484101125737016 6.3835000674258602 -7.06903297229141
v 7.6479799999999996 3.966328318786847 -8.2798061437470878
v 7.6479799999999996 -3.8718277875585625 13.398072352569017
v 7.6885289678609192 -6.2606105350315504 12.173029186522124
v 7.760205 5.8680206028669941 -7.5145447436235511
v 7.760205 4.6343052070982251 -8.1328863338818049
v 7.760205 -4.5398046758699389 13.251152542703736
v 7.760205 -5.7735200716387078 12.632810952445482
v 7.7979839999999996 5.2764965391649366 -7.8742612161159915
v 7.7979839999999996 -5.1819960079366512 12.992527424937922
v 7.8100434176155904 5.2775169133396078 -3.555541759623996
v 7.7506803989431807 1.824981222678721 -5.3572081570927974
v 7.8206009999999999 -1.7011452574477659 10.430740887839839
v 7.8383369059265178 -5.2030807168109137 8.6513873296624286
v 8.1317280000000007 5.9258546949543627 -3.5904205565733487
v 8.1317280000000007 1.4558713769515732 -5.8307886372191984
v 8.0782384733002566 -1.3810402654171188 10.988299280322156
v 8.1317280000000007 -5.8313541637260764 8.7086867653952762
v 8.7004979999999996 2.6521204080240643 -2.638104877474253
v 8.7380082033321624 -2.5468444809005537 7.6881464563754349
v 8.7570379999999997 3.2859058790521929 -2.3627083822992909
v 8.7444268812346504 2.0126403423087593 -3.0545780570559642
v 8.7570379999999997 -1.957689952055137 8.0993161813794732
v 8.7784089171212649 -3.1923429612030545 7.4472552295364434
v 8.9249949999999991 3.9289107285894591 -2.1659643503782235
v 8.9249949999999991 1.5097557568863496 -3.3784515556237582
v 8.9249949999999991 -1.4152552256580635 8.4967177644456857
v 8.9846100314897317 -3.8509281864832059 7.2110919410205607
v 9.1923879999999993 6.4011084566379282 -4.5386470577879159
v 9.1923879999999993 1.9311251386351387 -6.7790151384337651
v 9.1923879999999993 -1.8366246074068526 11.897281347255694
v 9.1923879999999993 -6.3066079254096419 9.6569132666098429
v 9.1960540000000002 4.556295991108251 -2.0541084706479791
v 9.2554634923059673 0.99306480919445528 -3.7455532301869963
v 9.1960540000000002 -0.95017656525697336 8.9324078436252865
v 9.1960540000000002 -4.4617954598799647 7.1723746794699057
v 9.4789741718212657 6.0648985237424338 -5.0848588376266761
v 9.474022426550853 2.5605602971851305 -6.8386324216992911
v 9.4654278909145209 -2.5054988516244032 11.968215877829016
v 9.4261138843408823 -5.9900643469837895 10.241494116572127
v 9.5619010000000006 5.1450102463345422 -2.0324793908165648
v 9.5619010000000006 0.6750269283317526 -4.2728474714624145
v 9.5619010000000006 -0.58052639710346632 9.3911136802843416
v 9.5151955910452983 -5.0847685410438448 7.2190988232709419
v 9.6674749999999996 1.8415158059681762 -1.0207862413144473
v 9.6674749999999996 -1.7470152747398902 6.1390524501363739
v 9.7302990000000005 2.47003372356509 -0.7348799213621966
v 9.7627098545402013 1.1805131160319822 -1.2834319641815228
v 9.7302990000000005 -1.1418177965680341 6.4714877204423775
v 9.7144814672580253 -2.4778801277641427 5.8891688971753098
v 9.6763891706302818 5.6339347724151612 -5.5853931472348144
v 9.7340319999999991 3.1992356975196459 -6.7493026295928669
v 9.7357409743320673 -3.1294664257541238 11.864005826286443
v 9.7340319999999991 -5.5238901379944698 10.655081633169262
v 9.876868 5.0896719242890125 -5.9615831392830234
v 9.876868 3.8559565285202426 -6.5799247295412773
v 9.876868 -3.7614559972919572 11.698190938363206
v 9.876868 -4.9951713930607262 11.079849348104952
v 9.9169230000000006 3.0973904982062774 -0.50691484395820741
v 9.9169230000000006 0.67823552650316776 -1.7194020492037416
v 9.9169230000000006 -0.58373499527488171 6.8376682580256691
v 9.8924480069056422 -3.0369306283012194 5.6715207647489301
v 9.881999025598537 4.508989314416338 -6.3456628547382934
v 9.9249510000000001 -4.3998584188606804 11.432006184809985
v 10.21569994982096 3.6570933858943344 -0.31990990212281334
v 10.206132463857079 0.20388057781464322 -2.1025376868786467
v 10.201454834871321 -0.12060732801534341 7.1990536507059932
v 10.210013723664581 -3.5807172638181615 5.4616718614460034
v 10.241300674812701 1.0052690933915702 0.6719269132638892
v 10.262007472908669 -0.88602223877313169 4.3844983721060578
v 10.34867390095839 1.5871765325094311 1.1137597621682158
v 10.329630999999999 0.35104539412781893 0.41307541055174246
v 10.329630999999999 -0.25654486289953299 4.705190798270185
v 10.329630999999999 -1.4902602586683027 4.0868492080119303
v 10.46630133957105 0.072984828961792564 2.567980633716084
v 10.527749 2.1951387110017926 1.2932582937878028
v 10.51616910250061 -0.20242480950032801 0.061199077207871877
v 10.527749 0.31851679192960247 5.0374951202796598
v 10.53482614463401 -2.068441669830217 3.7607694251236046
v 10.53350267864192 0.7061173666850038 2.832297605917574
v 10.530388000872639 -0.55214218860711428 2.1691653677145508
v 10.624615 4.2541507308201414 -0.25503611824259798
v 10.624615 -0.21583258718264797 -2.495404198888449
v 10.624615 0.31033311841093425 7.6136704077103765
v 10.624615 -4.1596501995918551 5.3733023270645255
v 10.734 1.2568277514656978 3.1653767070337309
v 10.76435092686868 -1.2327267661900407 1.9532635286666906
v 10.809105000000001 5.5184146347038663 -2.7774959804114077
v 10.809105000000001 1.0484313167010773 -5.0178640610572582
v 10.809105000000001 -0.95393078547279087 10.136130269879185
v 10.809105000000001 -5.42391410347558 7.8957621892333343
v 10.847485000000001 2.7698677063739328 1.5101739794343938
v 10.838826410023019 -0.72980348959242669 -0.23375296819322422
v 10.841043997151729 0.81844517291996721 5.454079452347866
v 10.834029613482651 -2.6779706634824101 3.6357808904111053
v 11.03693922512557 1.7552371398467932 3.4514709651500395
v 11.050182954061141 -1.7189544338446265 1.7228823914076732
v 11.20626570985196 5.109760380119897 -3.231500805461875
v 11.20414953767378 1.6178069004444238 -4.9494534732564546
v 11.174951999999999 -1.5426450406990815 10.11450119004777
v 11.2107145504015 -5.018375534601911 8.316740471631288
v 11.285501987613671 3.2580736141975217 1.7323373554340489
v 11.279031 -1.1824707607304292 -0.56676731656969404
v 11.279031 1.2769712919587153 5.6850335253916215
v 11.279031 -3.1930120260440744 3.4446654447457705
v 11.446011 4.6836858061492688 -3.6718918962500635
v 11.446011 2.264530834446159 -4.8843791014955986
v 11.446011 -2.1700303032178732 10.002645310317524
v 11.446011 -4.5891852749209825 8.7901581050719901
v 11.5 2.2822419246155374 3.679317144733889
v 11.5 -2.1877413933872516 1.4389490640880382
v 11.645192067171349 4.1150763398457197 -4.0170696274654336
v 11.588252071983931 2.8895582608445207 -4.7162490148289571
v 11.568080127827169 -2.8107189567210593 9.8564021000230646
v 11.585281480913009 -4.0857452740169089 9.1887661726742085
v 11.670507000000001 3.5413211550115538 -4.4122385743995682
v 11.670507000000001 -3.4468206237832679 9.5305047832214953
v 12.010434 4.5113566363923043 -0.76821344706257211
v 12.010434 0.04137331838951519 -3.0085815277084227
v 12.010434 0.053127212838771087 8.1268477365303493
v 12.010434 -4.4168561051640181 5.8864796558844992
v 12.416941 4.1076210601862355 -1.1589120635248698
v 12.39277002519915 0.65599760320376466 -2.9752499131857673
v 12.45766624007168 -0.55476624742269143 7.9957683582399248
v 12.416414050333559 -3.9966728904586319 6.3411889518144822
v 12.718126 3.617288522706489 -1.5442155967472799
v 12.718126 1.1981335510033795 -2.7567028019928146
v 12.718126 -1.1036330197750934 7.8749690108147412
v 12.718126 -3.5227879914782032 6.6624818055692074
v 12.750209 3.4186345799283195 1.4119860504234083
v 12.750209 -1.0513487380744695 -0.82838203022244272
v 12.750209 1.1458492693027558 5.9466482390443698
v 12.750209 -3.3241340487000337 3.7062801583985192
v 12.904749000000001 3.0592057214133361 -1.9103961343305706
v 12.904749000000001 1.8254903256445665 -2.5287377245888254
v 12.904749000000001 -1.7309897944162802 7.6470039334107529
v 12.904749000000001 -2.9647051901850503 7.0286623431524973
v 12.966666999999999 1.4389858910364439 1.6421543068396147
v 12.966666999999999 -0.051007952300043562 0.89536524534007511
v 12.966666999999999 -1.3444853598081579 3.4761119019823128
v 12.967573 2.4540082432414803 -2.2428314046365743
v 12.985470867091809 -2.3111002908810758 7.3114195309869974
v 13 2.2822419246155374 3.679317144733889
v 12.98903364394898 -2.1378513394144512 1.3394084078364152
v 13.17548312434581 2.978735678326347 1.115210099204333
v 13.181754 -0.53370388717604311 -0.66495524558067975
v 13.19083354235593 0.57761189566423454 5.8008057232447809
v 13.151414308979909 -2.9282292643873209 4.1126027740743574
v 13.44 1.8030597129256387 3.4391496864886539
v 13.44 -1.7085591816973529 1.6791165223332731
v 13.459383000000001 1.9375692004975373 2.8466465272859836
v 13.459383000000001 -1.3143722712427273 1.2167644102604105
v 13.459383000000001 1.4088728024710133 3.9015017985615166
v 13.459383000000001 -1.8430686692692513 2.271619681535944
v 13.487493000000001 1.7234814939118988 3.3992648616225321
v 13.487493000000001 -1.6289809626836123 1.7190013471993955
v 13.50664141773597 2.44310553087755 0.76966505917240946
v 13.477044279084129 0.02622495364230773 -0.48481350436003856
v 13.486984100957409 0.093479151258319043 5.5577151342383821
v 13.513784769111361 -2.3256645288091495 4.3884811806641899
v 13.656688083173581 1.7875911120540877 1.954633041817794
v 13.641334009519801 -0.6208267762999613 0.85525071165968014
v 13.644862150122069 0.69991925694679147 4.2708367007642156
v 13.644401999999999 -1.7155220432257983 3.0566240406460903
v 13.699609000000001 1.8851184250700714 0.4321433233019718
v 13.699609000000001 0.65140302930130167 -0.18619826695628294
v 13.699609000000001 -0.55690249807301584 5.3044644757782109
v 13.699609000000001 -1.7906178938417856 4.6861228855199553
v 13.738292 1.638601790874757 1.2438805811988936
v 13.738292 0.1486079475382695 0.49709151969935395
v 13.738292 -0.054107416309983343 4.621174689122574
v 13.738292 -1.5441012596464709 3.8743856276230337
v 13.766302 1.2742048717772561 0.1111127684335198
v 13.76692248532788 -1.1806668074962956 4.990117737576889
v 13.779612999999999 1.5211518112772757 1.158329661171396
v 13.789073500000001 0.38058579013720134 0.58056459497303226
v 13.789073500000001 -0.28608525890891517 4.5377016138488955
v 13.779612999999999 -1.4266512800489894 3.959936547650531
v 13.841468544752891 0.92808846487262131 0.82113708121348328
v 13.834376063588341 -0.91578713907970166 4.2513500896045251
v 13.283343518420221 2.3464993305803761 2.4878538679647666
v 13.326420484088411 1.6948448419883162 3.8520290539322479
v 13.34170885211241 -2.1557214823731146 2.5712949289655387
v 13.221391315912321 -1.3785740245185736 0.70030174873211726
v 12.96668468332366 0.14550978821451441 4.2229023225514357
v 12.11629617222327 1.8314970968514781 4.5786434108894731
v 12.125104500000001 2.8504382522719287 2.5456515975786482
v 11.687412 -3.7418921241459446 4.539791242731523
v 11.687412 0.72809119385684473 6.780159323377374
v 10.747311540186219 3.9753477536747126 -5.4404347268696256
v 6.593286242861887 -5.4774164822027744 13.563722138847996
v 7.7907229999999998 -1.9194091204652219 12.062453041834212
v 7.7907229999999998 2.0139096516935076 -6.9441868330122816
v 1.43720682199476 -5.4888121139924957 15.236321645639569
v -8.7667192859987573 4.8530177334246796 -7.1871847325611604
v 10.561200085315139 5.158810289282215 -4.6286425217424387
v 1.3691439999999999 -6.1814887313134879 14.986715718618523
v -7.790722999999999 2.0139096516935076 -6.9441868330122816
v 8.9019485634422821 -4.1021564919563964 12.415094584922707
v 12.829893883434529 0.1084714857769198 6.820192815819011
v 8.6910059999999998 3.5827820081532473 -7.5145543866699782
v 10.51839479173444 -2.5712261303233857 10.98823222819985
v -8.7103726332296425 4.276986478855628 -7.4364846877480399
v 8.7958061649449899 4.1521592698643639 -7.3823092893710243
v 10.357114775200751 -5.4926045241435384 9.2459838482212096
v -8.4999811163962082 -2.8166684761561882 12.663918480189192
v -10.786447968583699 -3.9012994581276441 10.502615501302213
v -6.5026568147737516 4.2096990141712896 -8.8247030403100428
v -13.08839650000006 -0.49035818959068789 6.737773091561257
v -13.109807999999999 3.0387343013028478 -0.38988397571791689
v 6.3674419999999996 6.8828726621538294 -7.3779028108127509
v -1.3428065000000002 -7.2712486437704049 14.141412044168986
v -13.35278969828485 -1.8655961741939744 6.1499684716466625
v 6.5625903637104663 5.5911557391819642 -8.4524145602777185
v -8.8877183467641032 -4.7812741374462497 12.193006983754616
v 10.73235466739539 -3.959032566861707 10.552470263189582
v 8.997298774024939 -4.7206668993153409 12.119758311335552
v -8.8028949647886598 5.4132769485294068 -6.7973770371189772
v 8.8594204548914686 -5.3883193631188107 11.805196297659538
v 8.8185365000000004 5.4788462635780038 -6.7380639414532872
v -3.9539141510037865 6.6158438485947064 -9.0583501527716574
v -4.0676735650815647 5.4189204130619935 -9.6209679443916549
v -13.302179000000001 -2.377661542013418 5.8573926143362263
v -6.3200068860535499 -3.4847348606855704 13.974806093146785
v -12.875104500000001 -2.7559377210436429 2.5726146112432788
v -10.302695320271051 -5.5259588496993244 9.2851152595459023
v -1.4751787045991078 4.1957399202321382 -10.194369057622716
v 12.96667584166183 -0.59948778579682205 3.8495071122668736
v 12.966666999999999 0.6939889693682002 1.2687597760898448
v 3.7106701076706736 -3.861655624392843 14.905226316140697
v -13.298272780123011 -2.2678218129674583 2.7277767068491321
v 12.828182970777441 3.4976231885915938 0.073674329901548763
v -12.80723735343792 0.060194014927822441 6.8902753907810901
v 13.273752494094211 -2.4884544957227783 3.2694773706766953
v -1.4771121767991808 7.7769539193180428 -8.4079801429874177
v -12.791383501896259 -3.4589470600283092 5.1648988955223043
v 8.4856653971793552 -2.8310189500336729 12.682250191987002
v 10.24144022669701 -1.9625203539476355 11.08848300262906
v 11.795946499999999 -1.0220733375170197 9.0758563132749739
v 8.5305994804637475 1.4251285546706514 -4.4995639188946956
v -11.3895155 -2.6903767097156628 2.4418072544169043
v -10.956465170833299 -3.6694741601523821 4.3953028911202852
v -6.4580000000000002 -6.5759833433527506 12.754218430181595
v 10.590021500000001 -5.0565377064577266 9.722619869120626
v -1.3883547406989847 4.909748806128472 -10.230733357662437
v 1.4179802720045991 -7.3223907254514051 14.05787009478717
v -1.3428065000000002 7.3657491749986912 -9.0231458353470551
v -12.380321500000001 -3.8704950769320265 4.7963799071415103
v 12.36602679875276 -3.8916097879501317 4.8385079872684909
v 12.380321500000001 0.59948824107076304 7.0367479877873613
v 12.380321500000001 -0.50498770984247721 -1.9184817789654329
v 12.380321500000001 3.9649956081603119 0.3218863016804181
v 12.875104500000001 -2.7559377210436429 2.5726146112432788
v 12.89558126617205 1.8072020624942222 4.6271168734536836
v 12.875104500000001 -1.6195450657308605 0.30528351693279765
v 12.862773071093891 2.9065385330603268 2.4337202942246376
v 10.0007465 1.4897782276681077 -5.8984395997455117
v 11.409769499999999 0.54490231754529617 -4.0132227943828394
v 11.409769499999999 -4.9203851043197986 6.8911209225589172
v 11.81978882150397 4.605931495580065 -2.1661812975672068
v 9.2373629406173254 1.6244793350525404 -2.203899784338208
v 11.813564300367529 -4.5075242125302708 7.328964711722886
v 9.2310826343654657 -1.5796876900775472 7.2911042571436226
v 10.94461603562875 2.2113696918246406 2.5461303139369238
v 8.2792157055751154 1.85187242196949 -4.1060483930788489
v 1.2919412899835869 -7.6746522139507025 13.571293608015633
v 13.22941332138301 2.6626175044533618 1.80153198358455
v -6.3829616563689404 3.6034454273524705 -8.8327002347726111
v 9.1839864999999996 2.2468181069961202 -1.8294455593943497
v 12.273650952207831 -2.0313727607326046 1.1269623037590473
v 12.749386285838421 -3.5044316849199686 5.1550121066544454
v 8.8468145000000007 1.0654491526416634 -5.0518180543408082
v 13.58870108445563 -1.9897205843301737 3.6980189100193588
v 8.3930690000000006 -4.5125195323607663 7.9553869768530383
v 8.2628436569767238 -1.7943162341122769 9.1954393823654179
v 8.5126919673355363 -1.3131405468734254 9.7279672989144093
v -13.814391279356901 1.3316726440603353 1.6781454556816628
v 1.453734333556461 6.8920081259825379 -9.4593065125206497
v 1.3821102027766199 5.5733929493797678 -10.125012524436931
v -13.801231261998311 -0.024023341410778977 0.95281852280974411
v -12.330939944963349 -3.3853460488029765 8.0361948561837266
v 13.32000695027873 1.2166194128677292 -1.3042975818939366
v 13.318644986861321 -1.0451086402634582 6.4006334463450534
v 13.323563805002539 2.4448629399600068 -0.66219145561571091
v 13.29889719413015 -2.3404677195029508 5.9095311927574281
v -3.983499432129622 -6.5037156293369947 14.177251972069653
v 13.213025 -0.68269011177138517 1.0560648278002429
v 8.2575395 4.2933274323296571 -2.8930487078962348
v 8.2870835992919485 -4.0615428633931616 7.9814041083817653
v 13.213025 -1.5937770145387045 2.8738657917591284
v 8.1478010322630396 -3.5358990015461496 8.1444172786728757
v 13.213025 1.6882775457669907 2.2444004170627991
v 9.2217063170611553 2.8856646409828532 -1.5883716798815644
v 12.932069071974491 -2.4468945302290472 1.9560115095398469
v 8.1021435000000004 -2.3152488891004781 8.8127179199610772
v 8.0408105531104539 2.4927732262620332 -3.7260486075451742
v 8.1145164442641633 3.6651814348661307 -3.0620976601207226
v 8.0134545086428393 3.0864467294460747 -3.3674790392852629
v 8.0646809407922131 -2.9047626318655295 8.4489904543064522
v 12.21701596013504 -2.4375530924326836 1.937373468997925
v 13.54769421316038 2.1784359736767271 1.4307179447511138
v 13.369308407408489 1.1201450890438651 1.2223212775101533
v 11.3895155 -1.6851060770588404 0.43609087375917222
v 11.3895155 -2.6903767097156628 2.4418072544169043
v 11.3895155 1.7796066082871265 4.6821753350627553
v 13.213025 -1.0060594636484137 1.7012514919608024
v -12.3283619889108 -2.8737327591225577 8.4359482986954841
v -10.38443588481837 1.9784322365786127 -5.8141995393200432
v 10.326963085910631 5.6068314951463964 -4.1605303273485692
v 12.966666999999999 0.36581926288985306 2.00860834616998
v 12.966666999999999 -0.05979598194932282 3.0169226883591893
v 10.975023278203681 -1.2693993510487702 0.76160142579911794
v 6.4580000000000002 4.2513289028779271 -8.8484394266051982
v 6.4479700400653348 6.5860660693905082 -7.7293819903272016
v -6.4763268316935738 -4.0773098392262046 13.952126476020577
v -12.08639143744591 -4.0523627715606549 7.7190896250848038
v 12.0820685 -1.6368316614964833 8.9388071605661334
v -10.35495180138269 5.5849604884879849 -4.1461286787231852
v 13.390854426056199 -1.9321403320352337 2.1252057256494057
v -13.0827381646055 0.5727064172174372 -1.6219728903089385
v -6.2911914387625352 7.0850345102969472 -7.117995420315788
v 8.7190435005918978 -5.9225550691600457 11.353688393060525
v 8.7634421167654715 -3.4753484259927334 12.578427565100666
v -13.633744999999999 -0.56065105602065735 0.75242497092705385
v -12.805345446142949 0.062270472646648575 -1.7963637344817163
v -1.3428065000000002 -4.8520936720672951 15.353899249414519
v -10.98033948050519 -2.2223076164793287 2.6311732451119845
v 10.93140354080367 1.2789361610627101 4.4180458612577471
v 8.8307543845797536 4.8416792834478892 -7.1359063792237798
v -10.51873849539731 -3.1057734975569269 4.5387124609903671
v 1.307155299203367 -6.771238600973132 14.621616629370131
v 10.942106283771899 -2.1984625486635183 2.6793316409093886
v 10.41391081355143 2.0951118443715764 -5.835308383015489
v 13.24461560176894 1.196755864230139 4.7850965170534732
v 10.6123064676494 -0.63723110673252192 1.0346217439921654
v -10.640660165056779 -1.7239441753366895 2.9813834449961663
v -10.03199074915509 -1.9253464821535149 4.9646642519034119
v 12.977957505148741 0.83242302171932747 2.9027646045969546
v 12.982554562233609 -0.76611370945192103 2.25122951057299
v 13.31471879538079 -0.91229706574155678 0.24248595611387236
v 12.807927592265241 -0.085189080602626019 -1.6671899144535298
v 11.687412 -0.6335906626285589 -1.6618931145554456
v 1.3182656803921331 6.2508785160519951 -9.8834259166133425
v -13.904834348130709 0.61707141053892711 1.3775029682134097
v -1.2636792577342979 -6.2049548255475298 14.984133325211856
v -1.2453408466545233 6.2693557512046123 -9.8839921757166707
v -13.89120809661093 -0.64927971690837605 3.7594594828310997
v 13.37143532029887 -1.7156053666656426 6.1774849967646386
v 13.42590210578342 1.7917426519796276 -0.87720225649555816
v -13.31335492840951 1.9677218857425445 -1.1990571439227651
v -3.9208799237276342 -6.0233979425201625 14.505315638354762
v -4.1874156026098799 6.025926840168367 -9.3502415864956383
v 4.2607704688524581 -5.9138191623684415 14.453394974244496
v 4.0955310666396656 6.0310882976728246 -9.3798230037398724
v 12.320984010658099 -2.9015478040834703 8.4425392333769178
v -12.319039999999999 2.997664699126517 -3.3275349895180715
v 12.37160799315795 2.9361929105096816 -3.244232829051485
v -6.3915615309057978 -5.573256294458977 13.629292642828618
v -6.5473953041304211 5.5816135110528595 -8.46822445537771
v -10.802402841253169 4.0604535486880158 -5.3257906261264392
v -10.745418000000001 4.6154615020206036 -5.0154383092996504
v 10.698077629237851 3.3507001624247805 -5.6864167413823949
v 10.745418000000001 4.6154615020206036 -5.0154383092996504
v 10.693366356534559 -4.5822810501470013 10.148043180887047
v -10.745418000000001 -3.2872455750235487 10.752046108379833
v -8.8652297613000872 -4.216559702424397 12.411166905602617
v -10.76172368012733 3.456445249298564 -5.5891245044394484
v 10.69845930503665 -3.2322728153658402 10.804712071708229
v -8.7570362597145976 -5.3493595940450325 11.940086759603897
v -10.71319277808448 -4.5044123326027785 10.193080301434996
v -1.2150043411529687 6.8371816104360281 -9.5322478410131968
v -1.3070271905054389 5.5721489423081501 -10.132400636302046
v -1.261787563756424 -6.8164185394965751 14.584544102296562
v -1.318567259686428 -5.4428869436198335 15.255490440097422
v -13.839496731527451 0.03421131736011266 4.0497787838438972
v -13.81084788865302 -1.2453570594786978 3.4204625575257417
v -12.26567188053032 -2.2156952026941834 8.7104136530015523
v 12.259358499999999 -3.5057278693544798 8.1081110156453509
v 12.25614880419913 -2.1704209669758794 8.720622091840962
v 12.22131970209143 3.6766458066994825 -2.9782612329723883
v -6.5527635000000002 4.9234876622486379 -8.7098632876013014
v -12.264186565529901 2.3624656986509973 -3.6001112101569306
v -6.5527635000000002 6.1572030580174069 -8.0915216973430475
v -6.5527635000000002 -6.0627025267891206 13.209787906164976
v 6.5103503498549147 -4.8619836118074264 13.839959946180059
v 6.5840660070632762 4.9159907062098398 -8.6949053578223836
v 6.4681702426776946 6.1878180546844623 -8.1213730354837725
v -6.4857805084317679 -4.8732810274374474 13.849701149534395
v 12.28100140134377 2.240258294616388 -3.5603773806509085
v -12.219250325279919 3.640222806453441 -3.0461658651534784
v 6.5763078441507634 -6.0850262662616066 13.169989355371953
v -4.0351720000000002 -5.2962474834289814 14.760407544157498
v -13.283841047139161 -1.2464479337755852 6.5192438218272821
v -13.22935118480317 2.6152057192076845 -0.83869396418997288
v -13.263263922046111 1.2630687419219693 -1.4604365963053705
v 4.0488902025860023 6.5448582569117679 -9.0695520878858318
v 4.0757468916721962 5.4452330603573591 -9.6083838154489083
v 4.1420177681825701 -5.3446077654940884 14.707584662921231
v 4.0768009717514646 -6.469572376278677 14.16560708136449
v -12.03157857377211 1.6507488986380405 -3.8558734119002671
v 12.077911118085179 -4.0845739914921309 7.6394457435682277
v 12.02546627131372 4.2328325999626486 -2.5722870914083917
v -12.0820685 -1.6368316614964833 8.9388071605661334
v 6.4580000000000002 -4.1568283716496408 13.966705635427129
v -6.5629384262827379 6.6963476028180011 -7.5052282900976621
v -12.027343364848059 4.2274431818295337 -2.5834108528684223
v 6.4580000000000002 -6.5759833433527506 12.754218430181595
v 12.0820685 1.7313321927247693 -3.8205409517442068
v 13.055085954727749 -0.50071430925188787 6.8090293317965411
v 3.9552427480064525 7.144433406725863 -8.5452169556440847
v 13.129632436206769 -2.9050779760623358 5.4817537270999095
v 13.11580764375825 3.0298722161846756 -0.37220233983711548
v -4.0657046495616731 -7.032665449058805 13.636823310008554
v -3.7993533661202452 7.1477365215231545 -8.610042858906775
v 3.8487534841690536 -7.0423989748437954 13.718921328698709
v 3.8729167430115261 4.7259540722132645 -9.7954117601074699
v -3.9178584776418068 4.7198455223645457 -9.7832239789313107
v 3.9242651890123224 -4.5981803610187386 14.898648578236838
v -3.8107945880156082 -4.5494454506104383 14.926726482298896
v 13.09298364104588 0.63723291706388685 -1.6469678231231932
v -8.6609682733649294 6.0143294616762688 -6.3216649918696781
v -10.56144077942491 2.7253839791974594 -5.8427461860318388
v -10.590021500000001 -2.6373827347546173 10.935107074366162
v -8.5485452511006326 3.6492862205381593 -7.61779005489071
v -10.574714643611021 -5.0648949311112705 9.7392942071942947
v -10.572495408627731 5.1606071184002813 -4.6234454950441801
v -8.7093952703849169 -5.9101927239925436 11.389594962369046
v -8.7136278164373415 -3.549637882730956 12.609878889529059
v 1.484537795007413 7.3944735474638223 -8.9612590411442934
v 1.5001044748569701 -4.8498125282825058 15.339254396903339
v -13.614452602205899 0.66372603680864128 4.41347139621364
v 1.395749055931659 4.9164205450953258 -10.2302608927353
v -13.62160325107879 -1.7874774495409318 3.1539577028387993
v -13.592964291698941 1.9376305401909861 1.9619050839047034
f 1 2 758 
f 789 2 1 
f 758 3 1 
f 1 3 761 
f 1 761 789 
f 845 6 2 
f 2 6 848 
f 2 691 758 
f 848 691 2 
f 2 789 845 
f 694 7 3 
f 3 7 847 
f 758 694 3 
f 790 761 3 
f 847 790 3 
f 758 8 4 
f 4 8 808 
f 4 9 758 
f 809 9 4 
f 808 764 4 
f 4 764 809 
f 5 10 789 
f 807 10 5 
f 5 11 627 
f 761 11 5 
f 5 627 807 
f 789 761 5 
f 845 16 6 
f 6 16 848 
f 738 17 7 
f 7 17 847 
f 7 694 738 
f 8 12 808 
f 848 12 8 
f 758 691 8 
f 8 691 848 
f 9 13 694 
f 809 13 9 
f 9 694 758 
f 807 14 10 
f 10 14 845 
f 845 789 10 
f 11 15 637 
f 847 15 11 
f 637 627 11 
f 11 761 790 
f 11 790 847 
f 12 18 624 
f 848 18 12 
f 12 624 808 
f 734 19 13 
f 13 19 738 
f 738 694 13 
f 809 734 13 
f 623 20 14 
f 14 20 845 
f 807 623 14 
f 15 21 650 
f 847 21 15 
f 15 37 637 
f 650 37 15 
f 30 18 16 
f 16 18 848 
f 16 20 22 
f 845 20 16 
f 16 22 30 
f 17 19 23 
f 738 19 17 
f 17 23 645 
f 17 645 847 
f 18 30 38 
f 18 38 624 
f 31 23 19 
f 739 31 19 
f 19 734 739 
f 32 22 20 
f 647 32 20 
f 20 623 647 
f 645 33 21 
f 21 33 662 
f 847 645 21 
f 662 650 21 
f 52 30 22 
f 22 32 52 
f 23 31 59 
f 59 53 23 
f 23 53 639 
f 23 639 645 
f 24 26 804 
f 808 26 24 
f 796 27 24 
f 24 27 809 
f 24 764 808 
f 809 764 24 
f 24 770 796 
f 804 770 24 
f 791 28 25 
f 25 28 807 
f 627 29 25 
f 25 29 695 
f 807 627 25 
f 25 695 721 
f 25 721 791 
f 26 34 804 
f 808 34 26 
f 796 35 27 
f 27 35 809 
f 791 36 28 
f 28 36 807 
f 637 37 29 
f 29 37 730 
f 29 627 637 
f 730 695 29 
f 42 38 30 
f 58 42 30 
f 30 52 58 
f 31 43 79 
f 739 43 31 
f 79 59 31 
f 32 44 80 
f 647 44 32 
f 60 52 32 
f 80 60 32 
f 639 61 33 
f 33 61 662 
f 645 639 33 
f 624 38 34 
f 34 38 820 
f 808 624 34 
f 820 804 34 
f 35 39 734 
f 814 39 35 
f 35 734 809 
f 35 796 814 
f 36 40 623 
f 817 40 36 
f 36 623 807 
f 36 791 817 
f 650 41 37 
f 37 41 730 
f 38 42 72 
f 72 62 38 
f 38 62 820 
f 63 43 39 
f 39 43 739 
f 814 63 39 
f 739 734 39 
f 74 44 40 
f 40 44 647 
f 40 64 74 
f 817 64 40 
f 647 623 40 
f 41 45 65 
f 662 45 41 
f 41 65 730 
f 41 650 662 
f 42 58 78 
f 119 72 42 
f 42 78 119 
f 43 63 73 
f 43 73 120 
f 120 79 43 
f 44 74 121 
f 121 80 44 
f 75 65 45 
f 122 75 45 
f 45 81 122 
f 662 81 45 
f 46 48 775 
f 804 48 46 
f 781 49 46 
f 46 49 796 
f 796 770 46 
f 46 770 804 
f 775 774 46 
f 46 774 781 
f 779 50 47 
f 47 50 791 
f 695 51 47 
f 47 51 784 
f 47 621 779 
f 784 621 47 
f 721 695 47 
f 791 721 47 
f 804 54 48 
f 48 54 840 
f 840 775 48 
f 49 55 796 
f 836 55 49 
f 49 781 836 
f 50 56 791 
f 837 56 50 
f 50 779 837 
f 730 57 51 
f 51 57 839 
f 51 695 730 
f 839 784 51 
f 68 58 52 
f 52 60 70 
f 52 66 68 
f 70 66 52 
f 53 59 69 
f 69 67 53 
f 53 67 741 
f 655 639 53 
f 741 655 53 
f 820 62 54 
f 54 62 840 
f 54 804 820 
f 55 63 814 
f 836 63 55 
f 814 796 55 
f 56 64 817 
f 837 64 56 
f 817 791 56 
f 730 65 57 
f 57 65 839 
f 58 68 78 
f 79 69 59 
f 80 70 60 
f 741 71 61 
f 61 71 744 
f 61 639 655 
f 61 655 741 
f 61 656 662 
f 744 656 61 
f 62 72 732 
f 62 732 840 
f 722 73 63 
f 836 722 63 
f 125 74 64 
f 837 125 64 
f 65 75 640 
f 65 640 839 
f 76 68 66 
f 66 70 76 
f 67 69 77 
f 67 77 750 
f 750 741 67 
f 68 76 84 
f 95 78 68 
f 68 84 95 
f 85 77 69 
f 69 79 96 
f 96 85 69 
f 86 76 70 
f 70 80 97 
f 97 86 70 
f 71 87 744 
f 750 87 71 
f 71 741 750 
f 72 119 145 
f 145 131 72 
f 72 131 732 
f 146 120 73 
f 73 132 146 
f 722 132 73 
f 133 121 74 
f 74 125 133 
f 75 122 134 
f 75 134 640 
f 86 82 76 
f 76 82 89 
f 89 84 76 
f 90 83 77 
f 77 83 750 
f 77 85 90 
f 78 95 119 
f 120 96 79 
f 121 97 80 
f 81 98 122 
f 744 98 81 
f 662 656 81 
f 81 656 744 
f 82 86 91 
f 82 88 89 
f 91 88 82 
f 90 88 83 
f 83 88 92 
f 83 92 750 
f 84 89 113 
f 101 95 84 
f 113 101 84 
f 114 90 85 
f 85 96 102 
f 85 102 114 
f 115 91 86 
f 86 97 103 
f 86 103 115 
f 750 92 87 
f 87 92 751 
f 87 104 744 
f 751 104 87 
f 93 89 88 
f 88 90 93 
f 88 91 94 
f 94 92 88 
f 89 93 117 
f 117 113 89 
f 117 93 90 
f 90 114 117 
f 115 94 91 
f 92 94 751 
f 94 115 118 
f 94 118 751 
f 95 101 135 
f 127 119 95 
f 135 127 95 
f 136 102 96 
f 96 120 128 
f 96 128 136 
f 137 103 97 
f 97 121 129 
f 97 129 137 
f 98 104 138 
f 744 104 98 
f 130 122 98 
f 138 130 98 
f 99 105 632 
f 775 105 99 
f 609 106 99 
f 99 106 781 
f 632 609 99 
f 99 774 775 
f 781 774 99 
f 100 107 779 
f 780 107 100 
f 100 108 783 
f 784 108 100 
f 779 621 100 
f 100 621 784 
f 100 629 780 
f 783 629 100 
f 101 113 135 
f 136 114 102 
f 137 115 103 
f 104 116 138 
f 751 116 104 
f 105 109 835 
f 840 109 105 
f 835 632 105 
f 105 775 840 
f 106 110 836 
f 838 110 106 
f 106 609 617 
f 106 617 838 
f 836 781 106 
f 107 111 837 
f 842 111 107 
f 837 779 107 
f 107 780 842 
f 839 112 108 
f 108 112 841 
f 841 783 108 
f 108 784 839 
f 109 123 835 
f 840 123 109 
f 110 124 836 
f 838 124 110 
f 111 125 837 
f 842 125 111 
f 839 126 112 
f 112 126 841 
f 113 117 143 
f 139 135 113 
f 143 139 113 
f 143 117 114 
f 114 136 140 
f 114 140 143 
f 144 118 115 
f 115 137 141 
f 115 141 144 
f 116 118 144 
f 751 118 116 
f 142 138 116 
f 144 142 116 
f 119 127 145 
f 146 128 120 
f 147 129 121 
f 121 133 147 
f 122 130 148 
f 148 134 122 
f 123 131 177 
f 732 131 123 
f 177 167 123 
f 123 167 835 
f 840 732 123 
f 168 132 124 
f 124 132 722 
f 838 168 124 
f 124 722 836 
f 620 133 125 
f 842 620 125 
f 126 134 180 
f 640 134 126 
f 180 170 126 
f 126 170 841 
f 839 640 126 
f 127 135 163 
f 149 145 127 
f 163 149 127 
f 164 136 128 
f 128 146 150 
f 128 150 164 
f 165 137 129 
f 129 147 151 
f 129 151 165 
f 130 138 166 
f 152 148 130 
f 166 152 130 
f 131 145 181 
f 181 177 131 
f 612 146 132 
f 132 168 178 
f 132 178 612 
f 183 147 133 
f 133 179 183 
f 620 179 133 
f 134 148 184 
f 184 180 134 
f 135 139 163 
f 164 140 136 
f 165 141 137 
f 138 142 166 
f 139 143 175 
f 171 163 139 
f 175 171 139 
f 175 143 140 
f 140 164 172 
f 140 172 175 
f 176 144 141 
f 141 165 173 
f 141 173 176 
f 142 144 176 
f 174 166 142 
f 176 174 142 
f 145 149 185 
f 185 181 145 
f 186 150 146 
f 146 182 186 
f 612 182 146 
f 187 151 147 
f 147 183 187 
f 148 152 188 
f 188 184 148 
f 149 163 185 
f 186 164 150 
f 187 165 151 
f 152 166 188 
f 632 155 153 
f 153 155 797 
f 153 156 609 
f 795 156 153 
f 153 609 632 
f 153 773 795 
f 797 773 153 
f 154 157 780 
f 802 157 154 
f 154 158 772 
f 783 158 154 
f 780 629 154 
f 154 629 783 
f 154 772 802 
f 155 159 797 
f 835 159 155 
f 155 632 835 
f 795 160 156 
f 156 160 838 
f 617 609 156 
f 838 617 156 
f 802 161 157 
f 157 161 842 
f 842 780 157 
f 158 162 798 
f 841 162 158 
f 798 772 158 
f 158 783 841 
f 159 167 819 
f 835 167 159 
f 819 797 159 
f 682 168 160 
f 160 168 838 
f 160 622 682 
f 795 622 160 
f 729 169 161 
f 161 169 842 
f 802 729 161 
f 162 170 657 
f 841 170 162 
f 162 657 798 
f 163 171 193 
f 189 185 163 
f 193 189 163 
f 194 172 164 
f 164 186 190 
f 164 190 194 
f 195 173 165 
f 165 187 191 
f 165 191 195 
f 166 174 196 
f 192 188 166 
f 196 192 166 
f 167 177 735 
f 167 735 819 
f 682 178 168 
f 169 179 620 
f 638 179 169 
f 169 620 842 
f 729 638 169 
f 170 180 212 
f 170 212 657 
f 171 175 193 
f 194 175 172 
f 195 176 173 
f 174 176 196 
f 197 193 175 
f 175 194 197 
f 176 195 198 
f 198 196 176 
f 177 181 213 
f 177 213 735 
f 214 182 178 
f 178 182 612 
f 682 214 178 
f 219 183 179 
f 179 215 219 
f 638 215 179 
f 180 184 216 
f 216 212 180 
f 181 185 221 
f 217 213 181 
f 221 217 181 
f 222 186 182 
f 182 214 218 
f 182 218 222 
f 223 187 183 
f 183 219 223 
f 184 188 224 
f 220 216 184 
f 224 220 184 
f 185 189 221 
f 222 190 186 
f 223 191 187 
f 188 192 224 
f 189 193 229 
f 225 221 189 
f 229 225 189 
f 230 194 190 
f 190 222 226 
f 190 226 230 
f 231 195 191 
f 191 223 227 
f 191 227 231 
f 192 196 232 
f 228 224 192 
f 232 228 192 
f 193 197 229 
f 230 197 194 
f 231 198 195 
f 196 198 232 
f 233 229 197 
f 197 230 233 
f 198 231 234 
f 234 232 198 
f 199 201 766 
f 797 201 199 
f 766 202 199 
f 199 202 795 
f 795 773 199 
f 199 773 797 
f 200 203 802 
f 806 203 200 
f 200 204 765 
f 772 204 200 
f 200 765 806 
f 802 772 200 
f 797 205 201 
f 201 205 828 
f 201 635 766 
f 828 635 201 
f 202 206 795 
f 831 206 202 
f 766 636 202 
f 202 636 831 
f 203 207 802 
f 833 207 203 
f 203 806 833 
f 798 208 204 
f 204 208 827 
f 204 700 765 
f 827 700 204 
f 204 772 798 
f 819 209 205 
f 205 209 828 
f 205 797 819 
f 206 210 682 
f 831 210 206 
f 682 622 206 
f 206 622 795 
f 207 211 729 
f 833 211 207 
f 207 729 802 
f 657 212 208 
f 208 212 827 
f 798 657 208 
f 209 213 245 
f 735 213 209 
f 209 245 828 
f 819 735 209 
f 246 214 210 
f 210 214 682 
f 831 246 210 
f 251 215 211 
f 211 215 638 
f 211 247 251 
f 833 247 211 
f 211 638 729 
f 212 216 248 
f 212 248 827 
f 213 217 249 
f 249 245 213 
f 250 218 214 
f 214 246 250 
f 251 219 215 
f 216 220 252 
f 252 248 216 
f 217 221 257 
f 253 249 217 
f 257 253 217 
f 258 222 218 
f 218 250 254 
f 218 254 258 
f 259 223 219 
f 219 251 255 
f 219 255 259 
f 220 224 260 
f 256 252 220 
f 260 256 220 
f 221 225 261 
f 261 257 221 
f 262 226 222 
f 222 258 262 
f 263 227 223 
f 223 259 263 
f 224 228 264 
f 264 260 224 
f 225 229 261 
f 262 230 226 
f 263 231 227 
f 228 232 264 
f 229 233 265 
f 265 261 229 
f 266 233 230 
f 230 262 266 
f 267 234 231 
f 231 263 267 
f 232 234 268 
f 268 264 232 
f 269 265 233 
f 233 266 269 
f 234 267 270 
f 270 268 234 
f 766 237 235 
f 235 237 785 
f 235 238 766 
f 786 238 235 
f 785 760 235 
f 235 760 786 
f 788 239 236 
f 236 239 806 
f 765 240 236 
f 236 240 787 
f 787 759 236 
f 236 759 788 
f 806 765 236 
f 237 241 785 
f 828 241 237 
f 766 635 237 
f 237 635 828 
f 786 242 238 
f 238 242 831 
f 238 636 766 
f 831 636 238 
f 788 243 239 
f 239 243 833 
f 833 806 239 
f 240 244 787 
f 827 244 240 
f 765 700 240 
f 240 700 827 
f 241 245 649 
f 828 245 241 
f 241 649 661 
f 241 661 785 
f 641 246 242 
f 242 246 831 
f 659 641 242 
f 786 659 242 
f 740 247 243 
f 243 247 833 
f 788 740 243 
f 244 248 626 
f 827 248 244 
f 244 626 787 
f 245 249 649 
f 641 250 246 
f 300 251 247 
f 740 300 247 
f 248 252 301 
f 248 301 626 
f 249 253 280 
f 280 278 249 
f 249 278 649 
f 281 254 250 
f 250 279 281 
f 641 279 250 
f 298 255 251 
f 300 298 251 
f 252 256 297 
f 252 297 299 
f 252 299 301 
f 253 257 280 
f 281 258 254 
f 296 259 255 
f 298 296 255 
f 256 260 297 
f 257 261 284 
f 282 280 257 
f 284 282 257 
f 285 262 258 
f 258 281 283 
f 258 283 285 
f 292 263 259 
f 294 292 259 
f 296 294 259 
f 260 264 293 
f 260 293 295 
f 260 295 297 
f 261 265 284 
f 285 266 262 
f 292 267 263 
f 264 268 293 
f 265 269 288 
f 286 284 265 
f 288 286 265 
f 288 269 266 
f 266 285 287 
f 266 287 288 
f 289 270 267 
f 290 289 267 
f 292 290 267 
f 268 270 289 
f 268 289 291 
f 268 291 293 
f 271 272 757 
f 785 272 271 
f 757 273 271 
f 271 273 786 
f 271 760 785 
f 786 760 271 
f 785 274 272 
f 272 274 843 
f 272 692 757 
f 843 692 272 
f 273 275 786 
f 846 275 273 
f 757 693 273 
f 273 693 846 
f 649 276 274 
f 274 276 843 
f 661 649 274 
f 785 661 274 
f 275 277 641 
f 846 277 275 
f 275 641 659 
f 275 659 786 
f 276 278 325 
f 649 278 276 
f 276 325 329 
f 276 329 843 
f 326 279 277 
f 277 279 641 
f 330 326 277 
f 846 330 277 
f 278 280 325 
f 326 281 279 
f 280 282 317 
f 280 317 321 
f 280 321 325 
f 318 283 281 
f 322 318 281 
f 326 322 281 
f 282 284 317 
f 318 285 283 
f 284 286 309 
f 284 309 313 
f 284 313 317 
f 310 287 285 
f 314 310 285 
f 318 314 285 
f 286 288 309 
f 310 288 287 
f 288 307 309 
f 310 307 288 
f 289 290 311 
f 312 291 289 
f 311 308 289 
f 289 308 312 
f 290 292 311 
f 312 293 291 
f 292 294 319 
f 315 311 292 
f 319 315 292 
f 320 295 293 
f 293 312 316 
f 293 316 320 
f 294 296 319 
f 320 297 295 
f 296 298 327 
f 323 319 296 
f 327 323 296 
f 328 299 297 
f 297 320 324 
f 297 324 328 
f 298 300 331 
f 331 327 298 
f 680 301 299 
f 299 328 680 
f 740 302 300 
f 300 302 844 
f 844 331 300 
f 301 303 626 
f 660 303 301 
f 680 660 301 
f 788 304 302 
f 302 304 844 
f 302 740 788 
f 745 305 303 
f 303 305 787 
f 787 626 303 
f 303 660 745 
f 304 306 611 
f 788 306 304 
f 611 608 304 
f 304 608 844 
f 745 306 305 
f 305 306 787 
f 745 611 306 
f 306 759 787 
f 788 759 306 
f 343 309 307 
f 307 310 343 
f 308 311 344 
f 344 312 308 
f 345 313 309 
f 309 343 345 
f 310 314 346 
f 346 343 310 
f 311 315 347 
f 347 344 311 
f 348 316 312 
f 312 344 348 
f 353 317 313 
f 313 345 349 
f 313 349 353 
f 314 318 354 
f 350 346 314 
f 354 350 314 
f 315 319 355 
f 351 347 315 
f 355 351 315 
f 356 320 316 
f 316 348 352 
f 316 352 356 
f 357 321 317 
f 317 353 357 
f 318 322 358 
f 358 354 318 
f 319 323 359 
f 359 355 319 
f 360 324 320 
f 320 356 360 
f 357 325 321 
f 322 326 362 
f 362 358 322 
f 323 327 363 
f 363 359 323 
f 364 328 324 
f 324 360 364 
f 361 329 325 
f 325 357 361 
f 326 330 362 
f 327 331 644 
f 644 363 327 
f 364 332 328 
f 328 332 680 
f 824 333 329 
f 329 333 843 
f 329 361 365 
f 329 365 824 
f 330 334 830 
f 846 334 330 
f 366 362 330 
f 830 366 330 
f 331 335 832 
f 844 335 331 
f 832 644 331 
f 332 336 660 
f 829 336 332 
f 332 364 368 
f 332 368 829 
f 332 660 680 
f 824 337 333 
f 333 337 843 
f 334 338 830 
f 846 338 334 
f 335 339 832 
f 844 339 335 
f 336 340 745 
f 829 340 336 
f 745 660 336 
f 337 341 757 
f 810 341 337 
f 757 692 337 
f 337 692 843 
f 824 810 337 
f 757 341 338 
f 338 341 811 
f 338 693 757 
f 846 693 338 
f 338 811 830 
f 611 342 339 
f 339 342 812 
f 339 608 611 
f 844 608 339 
f 339 812 832 
f 340 342 745 
f 813 342 340 
f 829 813 340 
f 810 768 341 
f 341 768 811 
f 342 611 745 
f 342 767 812 
f 813 767 342 
f 379 345 343 
f 343 346 379 
f 344 347 380 
f 380 348 344 
f 385 349 345 
f 345 379 381 
f 345 381 385 
f 346 350 386 
f 382 379 346 
f 386 382 346 
f 347 351 387 
f 383 380 347 
f 387 383 347 
f 388 352 348 
f 348 380 384 
f 348 384 388 
f 385 353 349 
f 350 354 386 
f 351 355 387 
f 388 356 352 
f 393 357 353 
f 353 385 389 
f 353 389 393 
f 354 358 394 
f 390 386 354 
f 394 390 354 
f 355 359 395 
f 391 387 355 
f 395 391 355 
f 396 360 356 
f 356 388 392 
f 356 392 396 
f 393 361 357 
f 358 362 394 
f 359 363 395 
f 396 364 360 
f 397 365 361 
f 361 393 397 
f 362 366 398 
f 398 394 362 
f 363 367 409 
f 644 367 363 
f 399 395 363 
f 409 399 363 
f 410 368 364 
f 364 396 400 
f 364 400 410 
f 625 369 365 
f 365 369 824 
f 365 397 407 
f 365 407 625 
f 366 370 727 
f 830 370 366 
f 408 398 366 
f 727 408 366 
f 367 371 818 
f 832 371 367 
f 818 409 367 
f 367 644 832 
f 821 372 368 
f 368 372 829 
f 368 410 821 
f 801 373 369 
f 369 373 824 
f 369 625 728 
f 369 728 801 
f 370 374 800 
f 830 374 370 
f 800 727 370 
f 371 375 799 
f 832 375 371 
f 371 799 818 
f 805 376 372 
f 372 376 829 
f 821 805 372 
f 801 377 373 
f 373 377 810 
f 373 810 824 
f 374 377 800 
f 811 377 374 
f 830 811 374 
f 375 378 799 
f 812 378 375 
f 832 812 375 
f 805 378 376 
f 376 378 813 
f 376 813 829 
f 377 628 800 
f 801 628 377 
f 377 768 810 
f 811 768 377 
f 378 605 799 
f 805 605 378 
f 812 767 378 
f 378 767 813 
f 401 381 379 
f 379 382 404 
f 404 401 379 
f 380 383 402 
f 402 384 380 
f 411 385 381 
f 381 401 403 
f 381 403 411 
f 382 386 412 
f 412 404 382 
f 383 387 413 
f 405 402 383 
f 413 405 383 
f 406 388 384 
f 384 402 406 
f 425 389 385 
f 385 411 425 
f 386 390 412 
f 387 391 413 
f 428 392 388 
f 388 406 414 
f 388 414 428 
f 429 393 389 
f 389 425 429 
f 390 394 426 
f 426 412 390 
f 391 395 431 
f 427 413 391 
f 431 427 391 
f 432 396 392 
f 392 428 432 
f 443 397 393 
f 393 429 443 
f 394 398 607 
f 430 426 394 
f 607 430 394 
f 395 399 606 
f 606 431 395 
f 432 400 396 
f 443 407 397 
f 398 408 444 
f 398 444 607 
f 399 409 651 
f 399 445 606 
f 651 445 399 
f 454 410 400 
f 400 432 446 
f 400 446 454 
f 711 403 401 
f 401 404 710 
f 401 710 712 
f 712 711 401 
f 402 405 709 
f 705 406 402 
f 713 705 402 
f 402 709 713 
f 711 411 403 
f 404 412 710 
f 405 413 689 
f 405 689 709 
f 705 414 406 
f 465 415 407 
f 407 415 625 
f 407 443 451 
f 407 451 465 
f 408 416 615 
f 727 416 408 
f 452 444 408 
f 615 452 408 
f 409 417 737 
f 818 417 409 
f 737 651 409 
f 736 418 410 
f 410 418 821 
f 410 454 736 
f 702 425 411 
f 711 702 411 
f 412 426 654 
f 412 654 679 
f 412 679 710 
f 413 427 690 
f 690 689 413 
f 688 428 414 
f 703 688 414 
f 705 703 414 
f 634 419 415 
f 415 419 801 
f 415 465 634 
f 728 625 415 
f 801 728 415 
f 416 420 618 
f 800 420 416 
f 618 615 416 
f 416 727 800 
f 417 421 737 
f 799 421 417 
f 818 799 417 
f 736 422 418 
f 418 422 805 
f 418 805 821 
f 743 423 419 
f 419 423 801 
f 419 634 743 
f 420 423 743 
f 800 423 420 
f 743 618 420 
f 421 424 631 
f 799 424 421 
f 631 613 421 
f 421 613 737 
f 631 424 422 
f 422 424 805 
f 633 631 422 
f 736 633 422 
f 800 628 423 
f 423 628 801 
f 799 605 424 
f 424 605 805 
f 447 429 425 
f 702 447 425 
f 426 430 686 
f 686 654 426 
f 427 431 690 
f 458 432 428 
f 428 450 458 
f 688 450 428 
f 455 443 429 
f 429 447 455 
f 607 444 430 
f 430 444 671 
f 430 671 686 
f 431 445 457 
f 606 445 431 
f 431 457 690 
f 505 446 432 
f 432 458 505 
f 707 435 433 
f 433 435 711 
f 433 436 683 
f 710 436 433 
f 433 683 707 
f 712 710 433 
f 433 711 712 
f 434 437 677 
f 709 437 434 
f 464 438 434 
f 434 438 705 
f 434 460 464 
f 677 460 434 
f 434 705 713 
f 713 709 434 
f 707 439 435 
f 435 439 711 
f 436 440 675 
f 679 440 436 
f 436 675 683 
f 710 679 436 
f 437 441 677 
f 689 441 437 
f 709 689 437 
f 464 442 438 
f 438 442 705 
f 473 447 439 
f 439 447 702 
f 707 473 439 
f 439 702 711 
f 440 448 474 
f 654 448 440 
f 440 474 675 
f 679 654 440 
f 441 449 475 
f 690 449 441 
f 441 475 677 
f 441 689 690 
f 476 450 442 
f 442 450 688 
f 442 464 476 
f 442 688 703 
f 442 703 705 
f 723 451 443 
f 443 455 502 
f 443 502 723 
f 444 452 747 
f 747 671 444 
f 651 453 445 
f 445 453 652 
f 504 457 445 
f 652 504 445 
f 619 454 446 
f 446 505 619 
f 479 455 447 
f 447 473 479 
f 448 456 480 
f 686 456 448 
f 480 474 448 
f 448 654 686 
f 449 457 481 
f 690 457 449 
f 481 475 449 
f 482 458 450 
f 450 476 482 
f 610 465 451 
f 723 610 451 
f 615 466 452 
f 452 466 747 
f 453 467 616 
f 737 467 453 
f 453 616 652 
f 453 651 737 
f 658 468 454 
f 454 468 736 
f 454 619 658 
f 455 479 496 
f 455 496 532 
f 532 502 455 
f 497 480 456 
f 672 497 456 
f 671 503 456 
f 456 503 672 
f 686 671 456 
f 498 481 457 
f 534 498 457 
f 457 504 534 
f 458 482 499 
f 458 499 673 
f 673 505 458 
f 485 461 459 
f 459 461 707 
f 459 462 486 
f 683 462 459 
f 459 483 485 
f 486 483 459 
f 707 683 459 
f 460 463 487 
f 677 463 460 
f 488 464 460 
f 487 484 460 
f 460 484 488 
f 490 473 461 
f 461 473 707 
f 461 485 490 
f 462 474 491 
f 675 474 462 
f 491 486 462 
f 683 675 462 
f 463 475 492 
f 677 475 463 
f 492 487 463 
f 493 476 464 
f 464 488 493 
f 465 469 634 
f 777 469 465 
f 465 610 777 
f 618 470 466 
f 466 470 776 
f 466 521 747 
f 776 521 466 
f 466 615 618 
f 737 471 467 
f 467 471 782 
f 782 616 467 
f 468 472 736 
f 778 472 468 
f 468 658 778 
f 469 477 743 
f 777 477 469 
f 743 634 469 
f 743 477 470 
f 470 477 776 
f 470 618 743 
f 631 478 471 
f 471 478 782 
f 471 613 631 
f 737 613 471 
f 472 478 631 
f 778 478 472 
f 472 631 633 
f 472 633 736 
f 490 479 473 
f 474 480 507 
f 507 491 474 
f 475 481 492 
f 493 482 476 
f 477 604 776 
f 777 604 477 
f 778 630 478 
f 478 630 782 
f 479 490 506 
f 506 496 479 
f 480 497 507 
f 508 492 481 
f 481 498 508 
f 482 493 509 
f 509 499 482 
f 489 485 483 
f 483 486 489 
f 484 487 489 
f 489 488 484 
f 485 489 494 
f 500 490 485 
f 485 494 500 
f 495 489 486 
f 486 491 749 
f 749 495 486 
f 494 489 487 
f 487 492 500 
f 500 494 487 
f 488 489 495 
f 495 493 488 
f 490 500 678 
f 678 506 490 
f 491 507 726 
f 491 726 749 
f 742 500 492 
f 492 508 742 
f 493 495 501 
f 493 501 746 
f 746 509 493 
f 749 501 495 
f 496 506 516 
f 496 516 666 
f 666 532 496 
f 517 507 497 
f 756 517 497 
f 672 533 497 
f 497 533 756 
f 518 508 498 
f 603 518 498 
f 498 534 603 
f 499 509 519 
f 499 519 602 
f 602 535 499 
f 499 535 673 
f 500 510 678 
f 742 510 500 
f 726 511 501 
f 501 511 746 
f 749 726 501 
f 674 512 502 
f 502 512 723 
f 502 532 674 
f 503 513 672 
f 747 513 503 
f 503 671 747 
f 652 514 504 
f 504 514 653 
f 653 534 504 
f 505 515 619 
f 673 515 505 
f 678 516 506 
f 507 517 726 
f 508 518 719 
f 508 719 742 
f 718 519 509 
f 746 718 509 
f 510 524 678 
f 719 524 510 
f 742 719 510 
f 511 525 718 
f 726 525 511 
f 511 718 746 
f 512 520 610 
f 816 520 512 
f 512 610 723 
f 512 674 816 
f 747 521 513 
f 513 521 822 
f 513 537 672 
f 822 537 513 
f 616 522 514 
f 514 522 731 
f 652 616 514 
f 731 653 514 
f 515 523 658 
f 815 523 515 
f 658 619 515 
f 515 673 676 
f 515 676 815 
f 516 524 601 
f 678 524 516 
f 601 544 516 
f 516 544 666 
f 517 545 669 
f 756 545 517 
f 517 669 717 
f 517 717 726 
f 518 546 600 
f 603 546 518 
f 518 600 719 
f 519 547 602 
f 667 547 519 
f 718 667 519 
f 520 526 777 
f 794 526 520 
f 777 610 520 
f 816 794 520 
f 776 527 521 
f 521 527 803 
f 521 803 822 
f 782 528 522 
f 522 528 793 
f 522 616 782 
f 793 731 522 
f 523 529 778 
f 792 529 523 
f 778 658 523 
f 815 792 523 
f 600 557 524 
f 524 557 601 
f 719 600 524 
f 525 684 714 
f 717 684 525 
f 525 714 718 
f 726 717 525 
f 771 530 526 
f 526 530 777 
f 794 771 526 
f 527 530 771 
f 776 530 527 
f 527 771 803 
f 528 531 769 
f 782 531 528 
f 528 769 793 
f 769 531 529 
f 529 531 778 
f 792 769 529 
f 776 604 530 
f 530 604 777 
f 531 630 778 
f 782 630 531 
f 646 536 532 
f 532 536 674 
f 666 646 532 
f 672 537 533 
f 533 537 755 
f 755 665 533 
f 533 665 756 
f 534 538 614 
f 653 538 534 
f 664 603 534 
f 534 614 664 
f 535 539 673 
f 685 539 535 
f 535 602 663 
f 535 663 685 
f 536 540 816 
f 826 540 536 
f 536 646 826 
f 816 674 536 
f 822 541 537 
f 537 541 834 
f 834 755 537 
f 731 542 538 
f 538 542 823 
f 823 614 538 
f 538 653 731 
f 539 543 815 
f 825 543 539 
f 676 673 539 
f 815 676 539 
f 539 685 825 
f 540 548 794 
f 826 548 540 
f 540 794 816 
f 803 549 541 
f 541 549 834 
f 822 803 541 
f 793 550 542 
f 542 550 823 
f 542 731 793 
f 543 551 792 
f 825 551 543 
f 543 792 815 
f 544 559 646 
f 670 559 544 
f 544 601 670 
f 544 646 666 
f 545 560 754 
f 755 560 545 
f 545 598 669 
f 754 598 545 
f 545 665 755 
f 756 665 545 
f 614 561 546 
f 546 561 748 
f 668 600 546 
f 546 603 664 
f 664 614 546 
f 748 668 546 
f 648 562 547 
f 547 562 685 
f 663 602 547 
f 667 648 547 
f 685 663 547 
f 763 555 548 
f 548 555 771 
f 548 698 763 
f 826 698 548 
f 548 771 794 
f 549 555 763 
f 771 555 549 
f 763 696 549 
f 549 696 834 
f 803 771 549 
f 550 556 762 
f 769 556 550 
f 762 697 550 
f 550 697 823 
f 793 769 550 
f 762 556 551 
f 551 556 769 
f 551 699 762 
f 825 699 551 
f 551 769 792 
f 583 575 552 
f 552 575 706 
f 589 583 552 
f 716 589 552 
f 552 643 716 
f 724 643 552 
f 552 706 752 
f 752 724 552 
f 553 576 584 
f 701 576 553 
f 553 584 590 
f 553 590 643 
f 553 643 724 
f 753 701 553 
f 553 724 753 
f 586 578 554 
f 554 578 704 
f 592 586 554 
f 642 592 554 
f 753 642 554 
f 554 704 753 
f 557 563 595 
f 596 563 557 
f 557 595 670 
f 668 596 557 
f 557 600 668 
f 670 601 557 
f 598 564 558 
f 558 564 708 
f 669 598 558 
f 684 669 558 
f 714 684 558 
f 558 708 714 
f 681 571 559 
f 559 571 826 
f 826 646 559 
f 559 670 681 
f 560 572 754 
f 834 572 560 
f 560 755 834 
f 561 573 748 
f 823 573 561 
f 561 614 823 
f 648 574 562 
f 562 574 825 
f 825 685 562 
f 569 565 563 
f 563 565 595 
f 563 567 569 
f 596 567 563 
f 564 566 570 
f 598 566 564 
f 570 568 564 
f 564 568 733 
f 733 708 564 
f 565 569 752 
f 565 575 595 
f 706 575 565 
f 752 706 565 
f 720 570 566 
f 566 576 701 
f 754 576 566 
f 566 598 754 
f 566 701 720 
f 752 569 567 
f 567 577 599 
f 748 577 567 
f 567 596 748 
f 567 599 752 
f 568 570 753 
f 568 578 597 
f 704 578 568 
f 568 597 733 
f 753 704 568 
f 570 720 753 
f 583 579 571 
f 571 579 826 
f 715 583 571 
f 571 681 715 
f 584 576 572 
f 572 576 754 
f 572 580 584 
f 834 580 572 
f 585 577 573 
f 573 577 748 
f 573 581 585 
f 823 581 573 
f 586 582 574 
f 574 582 825 
f 687 586 574 
f 574 648 687 
f 575 583 715 
f 681 595 575 
f 715 681 575 
f 577 585 599 
f 578 586 687 
f 648 597 578 
f 687 648 578 
f 579 583 589 
f 589 587 579 
f 579 587 763 
f 763 698 579 
f 579 698 826 
f 590 584 580 
f 580 587 590 
f 763 587 580 
f 580 696 763 
f 834 696 580 
f 591 585 581 
f 581 588 591 
f 762 588 581 
f 581 697 762 
f 823 697 581 
f 582 586 592 
f 592 588 582 
f 582 588 762 
f 762 699 582 
f 582 699 825 
f 585 591 599 
f 587 589 593 
f 593 590 587 
f 594 591 588 
f 588 592 594 
f 716 593 589 
f 590 593 643 
f 591 594 599 
f 642 594 592 
f 716 643 593 
f 642 599 594 
f 681 670 595 
f 596 668 748 
f 597 648 667 
f 597 667 708 
f 597 708 733 
f 599 642 725 
f 599 725 752 
f 753 725 642 
f 714 708 667 
f 718 714 667 
f 669 684 717 
f 753 720 701 
f 752 725 724 
f 724 725 753 
