v -40 39.65463343108302 -12.878012430643988
v -40 30.714666795077445 -17.358748591935687
v -40 26.250867816475427 -8.4525750298142164
v -40 30.925001906109337 -5.7257052900904135
v -40 21.753194472494044 0.52118468007546426
v -40 12.300093729365489 -4.1922860743319568
v -40 3.8732612004828861 -8.4402876425079398
v -40 1.8354301288351871 -4.3418561069644035
v -40 6.0457751969974698 -0.90700008771723262
v -40 7.4212005204273455 4.5236734915491947
v -40 17.271588205888595 9.4614366960785805
v -40 -0.60719181042651549 0.50054238845998356
v -40 15.119592876215428 13.756545152207414
v -40 12.791429917880823 18.400250359069858
v -40 8.9871758651557432 16.535286779323624
v -40 3.8517555139050597 13.920381790794918
v -40 11.240732466009078 22.836965033566674
v -40 1.6057399134015169 18.401633042745729
v -40 17.250952038474619 31.821820455603941
v -40 9.5664499656316728 27.9703266278045
v -40 -0.62898064738664239 22.860348426800496
v -34.965366315962292 29.132589165975745 8.1155746243714209
v -35.67110104744296 12.791429917880823 18.400250359069858
v -35.52096763203361 30.714666795077445 -17.358748591935687
v -31.475794152830289 21.753001685067805 0.52061164229311174
v -35.141129999999997 3.8732612004828861 -8.4402876425079398
v -35 6.774986862033578 -3.0709312392601369
v -35 7.3554439665728406 -2.5552273976127289
v -35 6.0144444904358441 -3.2273288818398491
v -35 7.6002690758203713 -1.8183681912632821
v -35 5.2776031640196699 -2.9824948111199951
v -34.895753426250437 7.4438714332406608 -1.0578258196655455
v -34.985545087631067 4.7902773405574273 -2.4340064546629634
v 9.9999578131703135 4.8271429801247479 29.831475041542401
v -35 6.9281586516266156 -0.47737319586244453
v -35 4.6228778970345239 -1.7260471120394563
v -35 6.191312865979965 -0.23255254584539031
v -35 4.836016962669814 -0.94768120734941519
v -35 5.5967724866323039 -0.35480452077887747
v -35 5.1674283841826165 -0.62291356875177328
v -33.938932511240459 10.032413286994213 -5.3533034734867861
v -34.969760000000001 -0.60719181042651549 0.50054238845998356
v 19.861783900256931 -0.32879677104432758 56.567973636060358
v -34.677419999999998 -0.62898064738664239 22.860348426800496
v -34.546950830830262 9.4205878074037379 27.897220108110822
v -34.213709999999999 3.8517555139050597 13.920381790794918
v -33.715195265667752 5.4206292544654309 -0.39795098315693167
v -33.11774149495001 1.9844082857983838 -4.6713441294768181
v -33.450129360912477 4.822883029273517 -0.98720969049706397
v -33.151823439797262 7.5733476427135411 -1.8993921604554664
v -32.807333766857667 6.9804696775769361 -0.53625178370751314
v -32.216846000667793 7.4592601485643284 -1.1326625259820169
v -32.855707185077051 17.259268984653062 9.4857360635732881
v -32.393804801931978 4.6054927398259142 -1.6414998157191576
v -33.527794739630068 6.0144444904358441 -3.2273288818398491
v -32.554447415160141 6.2149278212400274 -0.24039849251186496
v -32.26557968832374 5.2719400818507696 -2.9761209783505898
v -32.417390069515001 7.3275078690533322 -2.5800472175012814
v -31.250800522002951 4.824827841967597 -2.4728932913366322
v -31.22890350342448 6.7641675962345147 -3.0731560458163258
v -31.34121546554876 5.5113090730283796 -0.37237709560615073
v 19.838709999999999 -2.8908544146103186 49.691001178106148
v -30 39.65463343108302 -12.878012430643988
v -30 30.714666795077445 -17.358748591935687
v -30 26.792893508434563 -9.5340249138385396
v -30 36.120511161841002 -5.8267307905400543
v -30 31.147776945418528 -6.289938241453374
v -30 21.897734059584991 0.23279923633119637
v -30 30.693161108499623 5.0019208413671645
v -30 21.464809028749777 0.37664509298451421
v -29.999951776550741 4.8955398160163286 -4.6492174981105094
v -29.999909823682241 9.2724465667804168 -0.42122798153736341
v -29.999870238910979 4.1613744013308001 0.48426019548188393
v -30 26.212424947207918 13.941887477372743
v -30 16.984072867458071 9.3166117289900932
v -30 9.3193120123789637 5.4750122544812001
v -30.04323788902294 14.286701379302656 15.418220534936076
v -30 21.190792101393448 23.961049938033749
v -30 12.791429917880823 18.400250359069858
v -30 7.9965070707486481 15.997742807504149
v -30 3.8517555139050597 13.920381790794918
v -30 2.1737372963723463 17.268364430109127
v -30 17.250952038474619 31.821820455603941
v -30 6.8927143686147998 26.630242904557047
v -30 -0.62898064738664239 22.860348426800496
v 10 2.6872632952666926 35.708183192863004
v -29.999359999999999 24.818070410877489 2.0565931447675183
v -29.999359999999999 3.873833358347591 -8.4400008753936184
v -29.999361654724211 20.740080004488281 2.499291924885279
v -29.999409301702659 6.8140260285848608 -3.0362473852459217
v -30.049065829722789 7.272071380836107 -2.6292997536453839
v -29.999359999999999 6.0144444904358441 -3.2273288818398491
v -29.999578530326751 7.5973320588131639 -1.9185780444470595
v -29.999359999999999 5.2776031640196699 -2.9824948111199951
v -29.999359999999999 7.4438714332406608 -1.0578258196655455
v -29.999359999999999 4.7618814424389875 -2.4020466680530568
v -29.999359999999999 6.9281586516266156 -0.47737319586244453
v -29.999359999999999 4.6054927398259142 -1.6414998157191576
v -29.999359999999999 0.93810263607651567 -2.5826297281859709
v -29.999359999999999 6.191312865979965 -0.23255254584539031
v -29.999359999999999 4.8503089306124929 -0.90466745077530675
v -29.999359999999999 5.4307749536127039 -0.38893676772230279
v -29.999359999999999 -0.60690280294411192 0.49996576061196052
v -29.98230939727247 18.868384684715455 10.274813672736283
v -29.677420000000001 17.272458311202339 9.4611513160810414
v -12.201992000000001 30.693160522349729 5.0019205475872059
v -24.602368792770189 21.721635040336349 0.50535704337542953
v -11.192414281001209 26.335946653124171 2.8180728285487486
v -17.133230674622951 17.272458311202339 9.4611513160810414
v -18.06498855585539 28.45670848708928 9.4640920334892815
v -14.682457749999999 26.212424804741858 13.941887405968355
v 30 -11.175976509047825 45.727968364287079
v -0.00064468380000004544 26.212135353575622 13.942463811440806
v -0.00064468380000004544 17.272169303719938 9.4617279439290645
v 0 39.654632844933126 -12.878012724423947
v 0 30.714666795077445 -17.358748591935687
v 0 35.961292811014495 -5.5090586276495301
v 0 26.736431752066125 -9.4213723942582313
v 0 30.693161108499623 5.0019208413671645
v 0 21.753194472494044 0.52118468007546426
v 0 14.815280401846451 14.363713693696896
v 0 21.731688199766321 22.881853819598362
v 0 17.074490874675618 20.547653557512298
v 0 12.791722149910637 18.401117952086619
v 5.7343013627785044 22.673501526639896 -1.315012333714499
v 5.0403209999999996 30.714666795077445 -17.358748591935687
v 5.2797390000000002 39.654632844933126 -12.878012724423947
v 5.122316706586572 21.731688199766321 22.881853819598362
v 5.5589750000000002 36.95329169489964 -7.4882942850955807
v 9.9998465530585428 1.7877975164766662 24.072002301876235
v 9.9994109613225763 -20.53359099892554 17.939940984601243
v 9.999352 -22.989077922824798 22.839129507336992
v 10 39.642420649160989 -12.85364693421246
v 10 34.513250572746237 -15.454887829665388
v 9.9512281322097529 30.714666795077445 -17.358748591935687
v 10 28.557817294191047 -1.1963294628456254
v 10 29.199530434482881 7.9820133162495122
v 10 20.215362216093588 3.5894682319527771
v 10 21.731688199766321 22.881853819598362
v 10 12.791722149910637 18.401117952086619
v 10 17.250952038474619 31.821820455603941
v 10.047993763303021 -18.508628528647421 13.899735029196119
v 9.9999876196156752 -15.545981714435268 22.474563196446471
v 10 12.770215877182917 40.76178709160952
v 10 -5.8103389079770187 31.449161316539932
v 10 8.2894797158912148 49.701753727615099
v -19.3214805687191 20.995293705400915 11.327046777719517
v 10 -0.65048633396446753 45.221017860103359
v 10 3.8087435545995136 58.641720363620678
v 10 -5.1312224952561687 54.160984496108938
v 12.474807205514139 -21.587278833519711 20.041168491300578
v 17.40549 12.770216463332812 40.761787385389482
v 26.893270000000008 3.8087437839766403 58.641720478585135
v 26.410027500000002 17.250952535082334 31.821820704505107
v 13.41431928068539 -19.838837681869414 16.552955652616397
v 13.50001 -7.339332046035282 25.089963664157434
v 13.514307383504599 -14.159886821030575 21.611794203131975
v 13.522248095925169 -19.954812090061143 18.85990470930599
v 13.496527387977009 -20.768032807683742 18.407699378074454
v 20 -5.1312224952561687 54.160984496108938
v 13.710405548537819 -21.06442980607752 18.999066725999686
v 13.700950000000001 -7.6753782966598374 25.760443281924584
v 13.697372489895219 -17.395672854717034 20.873670235840255
v 13.70096 -7.0032813146745641 24.419475106423651
v 13.72460056384371 -12.387319996916681 21.694535174699723
v 13.71201575409297 -19.511313774738294 18.138047312480989
v 13.64997471653427 -20.453999079264026 17.781139153684148
v 20.654229679184319 -0.64802202306985635 45.222252217934482
v 14.087158104739871 -20.215189499514693 17.304637576154754
v 14.19355 -21.305477156108733 19.480008563590985
v 14.306271476451251 -7.9642786203146736 26.246675815520881
v 14.224189316010801 -14.286959817870496 23.031992373308228
v 14.250019999999999 -6.7572620150026834 23.928617298307131
v 14.250019999999999 -13.386255921447056 20.606147101387137
v 15.367069827085308 -22.978989140308315 22.844910919429008
v 13.99099214035944 -12.938956181691488 16.690740496127685
v 14.687499999999998 -18.508628528647421 13.899735029196119
v 15.104529211821538 -7.3179908057982663 25.047383612839507
v 14.793455157407861 -20.101397724442485 17.077628785199028
v 14.829054999999999 -21.400298494753986 19.669196137542134
v 15.013146030752909 -6.7102939822191638 23.731320386698361
v 14.999999999999998 -9.7002570615078341 22.228802864305194
v 15.049321852380929 -15.16575315075999 19.504263341579669
v 15.096868661372229 -19.295608429692049 17.448619536594748
v 14.999999999999998 -8.0114469509651975 26.430967599524905
v 15.080060450242618 -9.3630117180844223 25.729563493076739
v 15.040723295914438 -13.281724954239802 23.7772833510626
v 15.01645685447428 -20.328100707561795 20.252894014510087
v 15.277924568182888 -20.109967260150487 17.094726726376063
v 15.358361539336679 -21.372502274136671 19.626952458391607
v 14.658417211594328 -8.4704296042777543 30.115916455510352
v -29.99968218774687 27.183460163394791 -2.1067993506384965
v 15.749989999999999 -7.9213975963317198 26.251301090041103
v 15.702199284441479 -11.119895041697436 24.662530109232453
v 15.749989999999999 -19.033948171450032 20.681659811339081
v 15.749999999999998 -6.757266495738846 23.928626238273768
v 15.724825214097359 -11.106323390668706 21.741321480567528
v 15.828322006942249 -19.209114928169107 17.775333981551203
v 15.80644 -21.305477156108733 19.480008563590985
v 15.86618229796394 -20.187878559003696 17.250144433692846
v 16.353174725667589 -21.049955873429155 18.970192395060717
v 16.118575599456278 -20.322139120380683 17.542157920945861
v 16.311093772300961 -14.823913906584426 20.550076899298055
v 16.289716352893581 -11.340796731865659 23.884587798232651
v 16.262716921498541 -7.6708157335753286 25.751340054177646
v 16.226415851850859 -19.998189754367484 19.665446434265565
v 16.30462328112932 -7.0126219790879629 24.438111603911562
v 16.299040000000002 -8.7703252943695666 23.533838931169448
v 16.318672670975989 -19.654987228970658 18.160364815388338
v 16.370349999999998 -20.531900461542527 17.9365680237178
v 16.456790000000002 -20.802653899369645 18.476775394477265
v 16.500019999999999 -7.339332046035282 25.089963664157434
v 16.488176182710259 -13.638662931905255 21.982156188979758
v 16.475630192416709 -20.028381119354449 18.831981405754078
v 16.182620927536359 -21.966861297746377 20.79824852230005
v 15.78626249990999 15.061019816421453 36.191175331665697
v 16.917164414793682 -19.870766014048751 16.616650145190231
v 20.11283056286187 8.2426285317787844 49.678255056267382
v 20 8.3109859886189366 27.341084588092201
v 20 -4.5842142577308342 20.87814211823833
v 20 -18.508628528647421 13.899735029196119
v 20 -3.3552631962999824 25.509849991685552
v 20 -14.968676570456708 23.834165317623579
v 20.03112462290872 3.8761414917129975 36.304052254021869
v 20 -11.060496085344166 28.817767926060228
v 20 -22.989369170675282 22.839710605168332
v 20.000621345615961 -20.964655284276979 18.836252162862788
v 27.551391214253261 8.2931481788049375 27.376674593585982
v 24.63658110419977 13.394356432349277 29.88888400344225
v 29.677420000000001 -0.65048633396446753 45.221017860103359
v 29.99935 2.1090163431699325 46.603361210563442
v 29.945921172801359 -2.103072974911818 48.117988823132009
v 30 12.770216463332812 40.761787385389482
v 30 3.830249827327235 36.28105122409778
v 30 1.887753693085708 40.156698719492567
v 30 8.2894803020411114 49.701754021395054
v 30 -0.93887177770873542 45.076478273012405
v 30 -21.514424831378832 34.763953812926943
v 30 -36.410352877986782 27.298073214936547
v 30 -15.840161929374279 43.577467706180812
v 30 -35.341746450155092 33.598419921653999
v 30 -5.1312224952561687 54.160984496108938
v 30 -22.24385412034751 45.540686816560218
v 30 -40.891089039278484 36.23803985094213
v 34.356031951835533 -0.6546601854153371 45.218199381435859
v 35.52350711202741 -21.994188829469113 45.709218833355592
v 34.092739999999999 -40.891089039278484 36.23803985094213
v 35.000918938692791 -23.663042193143621 33.687060810791507
v 35.679430672430513 2.3461648028714244 39.242098276644086
v 40 17.250952038474619 31.821820455603941
v 40 8.3109859886189366 27.341084588092201
v 40 10.299489063568352 45.691383231719406
v 40 3.0222969249315992 37.893079188002396
v 40 -0.65048633396446753 45.221017860103359
v 40 -20.177373784535455 35.434087519126187
v 40 -36.410352877986782 27.298073214936547
v 40 -38.647898094851023 31.76242435395865
v 40 3.8087441407494094 58.64172065740064
v 40 -5.0106880540912284 54.221396693513974
v 40 -27.525633299217517 42.936843469004927
v 40 -40.891089039278484 36.23803985094213
v 4.5544080878230062 17.353129474734828 20.687307999419122
v 20.01556231145436 6.0935637401659672 31.822568421057035
v -34.89860770916497 1.8462347986630492 17.921797548537945
v -33.536414726712323 11.516659887249926 6.5765113019581971
v 10 4.0998982157664789 47.601923818554582
v -29.999879971857681 13.27979690101396 3.4644860315954737
v -30 35.184650113080231 -15.118380511289836
v -21.100995999999999 30.693160815424676 5.0019206944771852
v 10 26.000923253721492 14.363874983016936
v 9.9999576253669034 8.8450106368911534 27.608786627295181
v -35.180408533781879 14.703683344316513 14.586058545789182
v 20.18472226299096 3.8795309698053844 47.491310341506519
v -34.947517628222137 26.556840768733707 13.254708853906827
v 14.919354999999998 -2.8908544146103186 49.691001178106148
v 17.57828126389084 3.8087439275026069 58.641720550520745
v 40 -15.552492438914154 42.374333112306871
v 24.57781590724726 -2.4835263527286848 48.877609719163587
v 25 3.830249827327235 36.28105122409778
v -31.3770279607939 28.210602433370067 9.9551229333167992
v 10 16.524351577216169 10.953774180106011
v -24.382240866648921 21.515991661197056 11.588220821615366
v -17.297655082316101 19.59548334530497 4.8262508104694088
v -5.7602544026600437 28.364735140693742 9.6475972712414215
v 40 9.9726961717928528 34.200509384689546
v 22.248752261280881 3.8087438551558939 58.641720514260371
v -40.011827765102247 29.880384517578964 6.6235727822920332
v 10 31.099348877229602 -8.4555691250207552
v -34.953266220099351 24.328192893698137 -4.6164532313465152
v 14.7687215940598 -1.7163621901163459 33.501073842625246
v -0.00031235364677528743 29.312234620127182 -1.5925885003102138
v 40 -34.208361169248001 39.587441659973535
v 30 -19.547524180085915 39.673238673791744
v 36.110860313801837 -36.73027537173288 38.323451242242172
v -7.2701774247347544 26.194995240789723 13.933151660002444
v -30 14.353133655409387 26.000535047798735
v -34.782535720332447 8.0077006241912585 16.003291110172821
v 20 1.8633858654440507 24.109613353165265
v 30 -25.728267958399329 39.515712558792387
v 19.40161891731659 12.780969146750571 29.581452588610183
v -40 18.555310546532887 17.317068319571494
v 29.999693937997101 -7.0797411374875674 48.503794756545958
v 9.9999677878297266 -14.247924955712005 16.035136376073847
v 9.9998392422003484 -10.362677064737412 29.167516761483945
v 13.80211726128088 1.5737522280034097 57.521536489900207
v -29.999753309115849 20.032748870071231 17.171189608632346
v 34.621093899349987 14.400815883481656 37.508414374330599
v 35.347380883661543 5.9151772076528175 54.438964509661787
v 35.478010447714823 5.4789983620814562 32.991467467928416
v 25.661524617907808 7.84058302733827 38.291233589107563
v -35.724796842581028 35.642480325530748 -14.888914734494108
v 34.586707757653578 -0.69704225592385338 56.383407974071567
v 5.7789824633980382 15.547210785354853 12.903365890813198
v 5.6683951894679936 24.434898295879719 17.488409051361934
v 10 1.6178799978786431 51.887519351950139
v 15.328277372274508 7.4417193732976497 38.091129812630811
v 14.902529628942238 13.088523622880672 29.735599748087616
v 25.41914763301742 2.8801125069351903 46.990201371921131
v -40 32.258072643026182 -11.769402890857439
v 14.894836624488788 6.155717967693759 53.959037028959678
v 15.097659323057469 3.7552096043453269 47.429164927110861
v 30 -11.32320988116664 51.057543183635808
v -34.851402452272417 37.68114553335208 -8.9405086059602397
v 24.758064999999998 -0.65048633396446753 45.221017860103359
v -6.878783302070504 21.753195400112713 0.52118282929031423
v -30 17.65369265260534 -1.5334970425247612
v -40 23.764841529676524 6.8790865053057342
v 35.086652464033207 -9.7006223609954638 51.870788565023503
v 33.205013749999999 17.250952286778478 31.821820580054528
v 10 24.610530074549196 0.93903419751491057
v 14.663946266953099 8.2894798612660594 49.701753800477377
v -36.090908605941053 24.437452196235377 17.483313556820647
v 21.837004112364209 15.43291239354885 35.449175193158979
v -25.009892652137971 28.094457501164328 10.186855349929589
v -17.706091785405849 25.749498670426345 2.5241429178890957
v 0 32.717177688311565 -11.59385162255909
v 20 -17.433051111534429 25.623825609690485
v 14.932347687995778 8.9258118258219934 27.649237008992404
v -35.443383256210943 19.215363140238889 27.902427466375439
v -40.006021832329232 24.289905050348441 17.777699036622895
v -30 32.417939854346884 -11.752199696052894
v 9.9994592114381984 -4.205041068638887 21.06861491868057
v 33.264795574257533 3.8087440034548643 58.641720588588228
v 40 -6.8665805039025019 47.55340506677824
v 10 19.616867601729915 16.568911782890289
v -40 26.610189882818378 13.148266133988628
v -39.992275076801398 33.032983809079091 0.33350562467680334
v -40 13.879199229137946 1.9854333007783929
v -29.999591985501539 16.978678093202912 10.046368813353341
v -8.4380581731298125 20.386466766127814 11.021901021159021
v -10.899538245996171 18.838045013809275 6.3374920816919431
v 20.953134614482359 9.4689501273657406 39.10718350912358
v 17.69636962972368 -19.280295980685434 24.697981339687292
v 10 22.257670098596066 10.310396914665002
v -40 7.8644780152443508 -6.439878665875824
v 9.9998148051408471 -5.4929163199656861 25.560649527082269
v 5.2747765234288533 32.02023976403494 2.3541328953903236
v 9.9998607451267389 -11.05790885198417 24.734720475855294
v 13.445196503884571 -13.203488349104607 27.743694238701359
v 34.336076153929852 12.148562164886432 29.264488449070832
v 14.264403133413859 -18.793630363698831 20.806424608424869
v 16.449515273016701 -17.000018520430267 25.84086274964621
v 25.31158318818191 5.6970887937963868 32.555918058500694
v -23.324094625000001 17.272458311202339 9.4611513160810414
v -30 28.753780151756004 -13.446386752887108
v 23.702745 12.770216463332812 40.761787385389482
v 5.3389120137172092 27.614895593399957 11.143677465980428
v 40 -34.526489395433671 35.014712049391562
v 40.0145284398439 6.6943974354135705 52.88426380048918
v 14.750979400137 4.2353070170308431 25.298342943368286
v 29.999709291217041 -0.049425783190351513 44.021120468244597
v 30.000308054683291 -6.4572159738370329 42.311013383731819
v 30 -26.732700196825686 32.14853967532089
v 34.19650357688937 -17.320989872182185 36.865715086399938
v 22.773523476991119 6.1179110396898757 54.034469787161498
v 34.565900287646507 -16.697812485870386 48.363777398596071
v 30 -14.710535471605624 38.17408209785588
v 40 -28.489697102416738 36.939706145574149
v 35.309514950025012 -31.590122930851702 29.71398588097302
v 0 28.725549273571787 -13.390060493096961
v 40 -11.831320920626847 50.802876516392168
v -40 36.21062763623685 -6.0065306491193446
v 16.492389230883209 -1.825936159050821 22.260430992772193
v -28.64058271758033 21.753075893934135 0.52082384612211996
v -5.4332282468364923 30.693160522349729 5.0019205475872059
v -22.72244341254186 19.479052898860672 5.0585528852086643
v -32.847980965565348 4.7708927538685177 -2.4121889635762237
v -31.17989809102879 4.8503089306124929 -0.90466745077530675
v 6.6684330107070418 28.382003528747489 -12.704617881411139
v 6.1098136351586732 18.349081542171298 7.313072201858807
v -4.1244763858739866 21.901298229450077 11.781439778263303
v -29.999668072885619 4.1712185119218574 2.8947734629508233
v 33.837014030351298 8.3109859886189366 27.341084588092201
v 40 5.4795940505765728 32.990278949997418
v -12.753248952624229 21.75319460949181 0.52118440673745781
v -11.60583007696663 17.272366944308857 9.4613336113445801
v -8.3474592354374479 17.272458311202339 9.4611513160810414
v 35.422169715436127 -25.813420722868091 43.795009178009764
v 40 0.66579445452525832 53.255085784318794
v 40 -21.36964847431182 41.345754872232867
v -4.9430111460160147 19.32040967730584 5.3750779062489098
v 10 9.5916417055408765 33.876942664343773
v -25.832346408281161 27.191803278189621 3.2468018986132972
v 10 26.326640873083761 -8.6037574635934462
v 10 23.630313285077005 -3.2240435485539081
v 10 35.689674437754938 -4.967124612767023
v -30 12.07183320354471 29.226031680080496
v -35.002356291427873 31.944097906434468 2.5060512264811035
v 14.25 -17.077357984972785 21.66230825873577
v -40 27.498218786729353 0.59249075781141514
v -35.460292036396631 4.1604039196186813 25.260801302461516
v 10 32.355683173344879 1.6848561322826043
v 14.250019999999999 -15.759038093389723 19.416902072454665
v -11.08905165661238 23.676950956119473 12.671100855851229
v 13.69545268266705 -14.930581170415877 20.469278994148681
v 13.700950000000001 -14.074364943231991 22.553253363850185
v 13.52204002713648 -12.642481543835128 22.523989974670894
v 13.50320427267855 -10.149601101067145 23.668111834782678
v 9.999352 -9.9832833127962033 18.172661780657425
v 9.9996784844006967 -14.52855682228563 27.07956623177374
v 29.999736201401181 6.2807048500066847 44.945310984623646
v 35.477744998525147 11.658723641283874 42.979438150130946
v 13.672690642352769 -11.556577221633919 23.697201771521474
v -40 6.5659499650435738 22.145836235524012
v -34.610886362004827 5.271383845630071 3.4464858428910556
v 12.953093147560921 -18.342983864357301 25.167764781286895
v -40 21.282412738404773 12.444036720607834
v 13.700950000000001 -19.34871780026025 19.909733031378558
v 14.25 -20.110276264314908 20.142201175364953
v 14.3178814338421 -19.374634740464746 17.584416763378123
v 14.26103393440167 -18.12394307740287 18.228304216329203
v 13.69939101838156 -8.9020556756945588 23.474353531878489
v 15.099921698736241 -17.951698589015926 21.418936751634313
v -36.390020131513417 14.582397896783462 8.1133523354090915
v 14.30973424374203 -6.9380875555899229 19.698565927505474
v 14.25 -10.917925076763634 24.749433176373508
v 14.878863446773268 -15.293924136739477 22.74465993997223
v 32.797772906202709 -33.853446957482774 39.76532565077143
v 15.749999999999998 -16.269312850195966 19.16116212977882
v 20.0003512967067 -10.905685096314588 17.73241409752573
v 15.749999999999998 -9.2463637590404275 22.681083761803091
v 20 -3.7247749054678581 32.494451799514977
v 16.316650250535321 -18.778530331189959 18.591205665869786
v 16.21969108632344 -16.361309828816616 21.49577977419267
v 16.291700681750768 -12.218331568611138 21.802287958801173
v 16.303580328329371 -16.830339211851587 19.513089222897563
v 16.305462646272598 -13.094391456409351 23.011560681515846
v 16.489926464416321 -11.516750438718262 23.038360934784976
v 16.500019999999999 -18.857627702234968 19.316961821474621
v 18.80323783463318 17.250952304882205 31.821820589128166
v 30 -16.527038318500196 48.449369886611436
v 30 -31.213436358117388 41.088506311326469
v 40 13.610396680804428 39.085458584640818
v 40 -19.09102734881424 47.16429144806186
v 40 -27.324313817523187 31.852021281941692
v -40 14.180788510612324 26.370480083268703
v 40 -6.9770594893158018 42.050121785383105
v -40 22.116040169155205 22.114994979419542
v -20.88482587807373 26.212424926401575 13.941887466944545
v -35.220385686464347 13.754162202950397 30.069219657143773
v -30 23.701608524300685 18.951468707703246
v 25.25833975006358 -1.8221738858656966 55.81948886947567
v 34.967983620134959 -37.936923017931633 30.343886587419313
v 6.1716047897929931 35.995714877161944 -14.711872594030517
v 13.69623294917877 -16.412015638234806 19.723522927561799
v 0 24.244813112280085 -4.4500938570913853
v 13.677360561641921 -11.006994565282014 22.51131432132226
v -40 16.865018232107424 22.489725212568555
v -40 17.255382368305092 -1.7331312656649835
v 10 28.741669567278866 -13.422223709746241
v 15.750022305680618 -14.688454514796231 19.953517678129746
v 35.085474150535163 8.8765833998265133 48.530365678684888
v 40 5.3816563373685247 45.656822776213559
v 29.99977089208291 7.7816230627499996 41.471713497599978
v 16.47270640973213 -15.385070639554204 21.171425578930602
v 15.779654534486101 -20.290392106005491 20.018738806321476
v 16.325196788090111 -18.896613949962028 20.027115171923104
v 16.27054437120298 -10.381500062004527 22.699811336451198
v 16.47651110047849 -17.571703498049693 20.05959810665043
v 16.491372661142019 -9.898471493109291 23.771221361913781
v -30 24.345313784009775 -4.6506128387536698
v 40 -11.525854464960329 39.769930943595675
v 0 33.138482367885857 0.12301442225091463
v -40 19.68349610381491 26.968407717511742
v -29.999536471143792 28.485038797856372 1.086342106110969
v 15.02072437344062 -17.338652445451203 18.406629144672173
v 16.314696910567211 -14.566000814545916 22.241454148075405
v -34.417702581435528 15.987799578808215 -2.3684472879255978
v 15.767973784799208 -15.561790947054753 22.416524107019747
v 30 -31.433362272606761 29.792554759209885
v 30 -37.152175994505299 38.111993475798812
v -36.675687744151311 28.588286425900336 -13.116193602842003
v 40 7.1457170159823171 41.163158115982746
v 34.812368028740451 -30.268264042320762 41.56222930677761
v 10 -1.622979712134593 28.060672359261424
v 5.0535000611257104 34.665193227284362 -2.923079505617352
v 40 -12.781069010673868 45.749455974621782
v 13.50129399395553 -15.957211619888199 20.765297137369664
v 27.991119878630268 15.178741122760638 35.956297907023391
v 14.23803760585178 -10.791161164521021 21.920218550233599
v 35.206937940131041 -12.42975942185868 39.317213402255838
v 14.98731311656176 -12.834300332067055 20.661813773125374
v 40 2.4526959154201506 49.625508428673918
v 10 8.2622809507376864 38.502397559178561
v 15.800244944670117 -17.810121962915126 18.445106922533931
v 13.70096 -18.386305846625618 18.714271527725217
v -40 3.1932429195986702 2.4049701136018964
v -30 5.8337746399826997 20.444654037182918
v -33.002794806501832 28.349270190229422 -12.639308310906934
v -30 33.041086882950339 0.31733802539571343
v 29.37698789807785 6.0223714698086273 54.225090495091102
v 29.64657989627365 -0.4988225670884372 56.482756233836625
v -36.359447402192671 16.168151445036337 11.663868864135825
v 36.960111260100057 0.88607944155684715 42.154962105360426
v -35.810418956931002 21.753096180592149 0.52089273322200569
v 17.087853106741239 -14.77173475840992 26.957775657339688
v 32.665944577239593 0.7117955893161092 42.502258335718587
v -29.999610872983581 18.020531948766163 13.134208310394875
v -29.999827020308889 23.077619418959195 -0.17852261371699996
v 15.430603529962669 -13.945362661073279 27.371864768624427
v 15.814247608137398 -10.473464586345166 29.111989747290352
v -29.999714748405591 17.046392939229634 13.872884151505176
v -29.999359999999999 27.14447594810574 3.2225940752973194
v 15.202389309751259 -10.279799948424838 18.023525987121317
v 32.176561409722083 2.4250428267211728 39.084711876365247
v 29.999847682729559 4.2471598310514498 42.813897878480418
v 30 3.8360512711584951 40.343785428720771
v -36.427853592538533 17.26542859527083 9.4735863798259317
v 20 -5.9460679618294394 24.611025468591272
v -28.209489668349931 25.57816160926026 2.4377622520496089
v -34.220183982162673 15.859081713380622 12.280898199187803
v -29.086834414641199 20.494781423591498 3.0099687239204052
v 9.9997920437615129 -14.542068022294437 20.051292444886325
v 32.022525317587373 1.4287325719381316 41.072216043712018
v 20.00015834942981 -16.947999483629836 22.395484527801599
v 9.999352 -21.862681341814241 20.591742584594776
v 30 2.503980796512713 38.927208998565114
v -34.566575342439933 16.031895382804532 8.8552192726480214
v -34.044628579630533 16.658773149624022 10.68460021651854
v 20.000012615716351 -9.7481630445260485 20.936893045233933
v -33.643106554880653 21.753048932829973 0.52075218775755872
v 9.9994615179504933 -18.441736334432171 18.549641101776764
v 9.999769932862641 -11.150201486940421 21.214968609808238
v -29.99952 20.777933922831355 11.218646559102712
v -29.820497730350962 17.495483150385216 10.405664966146858
v 15.754485946199798 -18.117072248535404 21.139852933538204
v -30.757171637637459 22.206187755483516 -0.38262770487270004
v -21.945330403092509 21.731558251061173 0.51033257288251832
v 12.921370697880381 -1.0964956165120432 22.626123180600288
v 29.13524942061148 0.057250218136764008 45.575518648689624
v -31.58416180148593 16.686152475615085 10.4814208379319
v 18.740365144286361 -21.181240988500154 19.231793096636533
v -29.999425407086829 20.002206597563863 1.8916253925622541
v -29.99972469160797 8.916418907710197 -5.9126429626205415
v 28.04685442333675 4.4690725880144253 47.786390446178316
v 28.435229190844499 0.7863446705487882 45.940717475239659
v -30.713926796269259 16.767447606684819 10.007568441517391
v -29.99953751074478 2.0225713409382715 1.775049244784821
v 29.999704148008409 -3.5594023289123067 51.024226976092848
v -29.999575159244269 19.468971206534768 0.92574233174420684
v 29.99935 4.4371474198146093 47.770226986251586
v -29.950605856015951 17.95704421174171 10.98771559247988
v 34.61774543749452 -2.9280558979576909 44.078969313128809
v -28.062496879490901 20.279914785648192 10.969038116706962
v -36.909500599886186 0.74276477529711782 -2.1937115329525483
v 20.00061861598925 -17.216120807888036 17.501138911834424
v -28.470829779836979 18.371065030076338 10.012243966917323
v 27.934297677602281 -2.4599856808501164 48.83017466884985
v -37.077652546833328 5.9754886507492859 3.7991631828815997
v -30.98830091377215 20.587471098502107 -0.063099207179579508
v -29.999480068351069 26.247998863866371 0.86265647704496828
v -29.88508540543496 15.416547615163154 13.164050734467857
v -29.999995934726009 13.594265619864419 -3.5532669009728259
v 20.000358194448509 -14.691828878063532 19.348500267239725
v 12.90556619677554 -16.701819731757976 14.805312627232855
v -31.642129186944011 1.52196951015685 -3.7480914722861272
v 15.664652119502788 2.234387657910835 35.481200662895191
v 20.000176185139889 -15.253936020032238 21.583326135483475
v 14.56822296546162 -19.632296856393758 24.52160526626524
v 29.999489611300579 -4.2293557574544485 48.334734924514606
v -21.740892795011931 23.944535982603735 1.6194853869018075
v -32.651597363904372 15.833294000372138 12.33247301913768
v -37.33805840629865 7.0474519831967033 -6.8493743872321495
v -29.982552314971411 19.44179459346153 5.131491999347805
v -28.174307174558191 20.249482842694714 3.520645522955526
v -30.713926796269259 16.579651609912151 9.1217134877173933
v -31.94408646713876 8.2972673787024647 -6.2229634322932945
v 13.88042022184 -11.062563988626273 28.816731487179474
v 29.999572476562161 3.6621084573796638 45.196481446711601
v 17.728799723198801 -9.6419494315590661 29.528747457291921
v -40 3.3077174359842969 -2.3507562155930088
v -29.999745345484001 17.520231888468004 15.055698814983245
v -30 22.822588477461938 -1.6124706794495047
v -29.999604394519181 16.641526346999932 4.5436285846874522
v -30 19.814310241066728 -0.45058949336779719
v -25.814615917607458 24.006301717164359 1.6502200484347185
v -40 6.7975936552423093 1.7999201163594662
v 9.9995684667617439 -19.786089770759499 20.357921816881209
v -30 20.639559634908256 -0.036972200191637938
v 17.294139094834041 -21.013649011382242 18.897752928938726
v 17.017442777520131 -18.520511239917084 13.923427417178436
v 20.000345055522001 -19.716608614689147 16.402786720128653
v -31.738495214798 13.760031784711668 7.7011154134794069
v -30 11.730005204877244 -1.3337092135096178
v 14.128364887066351 -15.572306682686577 26.556435896588141
v -23.696855935977741 20.760854774165725 2.5011012552307275
v -29.9998740904879 11.989589461936738 0.84880213721532627
v -31.60343118577007 16.127761597869615 11.744897130531021
v -34.811045451798464 1.3956013798884848 -3.4964691846234288
v 20 -7.3926354954060125 30.656109862787602
v -35.868273805200531 2.8024769276265511 2.2091638608818052
v 40 1.1618857979812902 41.604972235370454
v 9.9998236704205183 -8.4075466783416033 26.10308266473276
v 30 -27.214637033968504 43.092715662768569
v 10 34.972130023759668 -10.70033194325794
v 15.538757344586299 -5.5445527418074745 31.582374082808048
v 31.87964355981017 0.44267991271437968 43.027399302928401
v 17.117164814501439 -7.8237026016487201 30.44005782931513
v 4.5613492923912622 29.896224715623056 6.5919686609382371
v 24.84816 8.2894801600829346 49.701753950245219
v -29.99525929998628 18.05536595371613 7.8981183597735054
v -40 4.7500019453746463 25.556309474045847
v 16.629565991365372 -20.907225582618903 23.882848304284266
v -14.71351128700393 21.689278907679348 11.674874092726107
v -23.749498770166301 22.894963299687291 1.0934337202987479
v 20 -8.7031962058314747 24.052850341962916
v 5 26.251039639433966 -8.4529178510519145
v 30.864701744006865 1.4850055797595743 40.960041440821122
v -34.21225869857205 21.935522906284518 22.475163720703595
v 2.8423644146766822 29.053237594322038 -14.04386436573369
v -29.999680000000001 22.58943093095688 12.126393531859389
v 9.9999345414616574 -12.827693843094085 22.73941019736829
v -19.042069160498851 21.753197051615693 0.52117953421088359
v 30.664529993502093 6.266067920632068 31.421105960271682
v 12.093721957724791 -11.649953280609186 17.336997834486098
v 20.00019307183652 -14.895227493197019 15.710639707291227
v 40 -31.867333347754982 29.57504724843912
v -25.74685142819234 20.403261575277959 3.2145309595308724
v 27.2177425 -0.65048633396446753 45.221017860103359
v -29.999966227052141 15.860107192441383 16.637331931391529
v -26.818896019953169 21.486980977839664 0.80719227963525242
v -32.611336654985926 10.443306571306906 17.223725233985771
v 29.86613033389574 0.77246819031801151 43.588608440606052
v -29.999992392217219 6.6621872547743566 -4.3155267134379045
v -32.971986831428033 3.9450050296864765 2.7817865844089429
v -40 12.443384008509803 7.0408058344219686
v -29.999871117510502 14.575807656594648 0.26282089630539929
v -30 10.829382269964304 21.775709712366979
v 12.424164965971769 -20.970345341438712 18.811210877895974
v 29.919109942873689 1.4541305217078961 43.956680430062278
v -32.499078031685613 12.315171812567126 -4.2091785466848677
v 27.22956786705808 -3.7194660612192285 51.343624939033546
v -29.999552312254231 15.976536470033885 6.3398775943017078
v -32.879209193880598 6.7733033851017934 -3.0712774575086996
v -29.999482430948589 17.552381594552358 5.8078392948184856
v -30 15.987733295651175 20.689703329644829
v -35.400244033663412 26.828669125157433 -9.605404439071016
v -34.315768067697839 17.271588205888595 9.4614366960785805
v -40 8.5029621201872487 -3.0665995046728121
v -35.583462859650787 18.723529371678048 -0.99765427399134765
v -29.99983875168726 7.9566020528599344 -5.2321261760519704
v -40 24.071599422131797 -4.1044978311074125
v -35.1307508635633 35.053708986300805 -3.6982461359038581
v 10 24.910038518184564 5.3815284923313644
v -26.500757312499999 17.272458311202339 9.4611513160810414
v -31.89384293479462 14.272746776126297 15.445917653979041
v -33.620809501358004 14.133971689301099 7.8885581154312803
v -4.4715027984087996e-05 31.124614247999112 -6.9394310617723924
v 20 -0.23916446992462159 34.241449451588153
v 12.353517489412139 -20.710902528347034 23.98129103370179
v 40 -1.6083705656901133 49.760213618979961
v 34.683729634748303 -4.9991647422741972 54.227172209470432
v -40 18.498135890788827 4.3504710287348285
v 0.59895107085171495 28.407350498751942 9.5625710732796598
v 0.29917202720413316 19.469439791734956 5.0777329605084933
v -35 17.250952038474619 31.821820455603941
v 35 -36.410352877986782 27.298073214936547
v 15.622187327954839 -5.1312224952561687 54.160984496108938
v 30 8.300233145330024 38.521419304743631
v 30 -29.14053806314605 36.227627351665404
v 20.00008998688272 -12.66546512175206 21.431344188427587
v 30 10.529848382686962 45.231770703392264
v 10 -2.8908544146103186 49.691001178106148
v 10 6.0491116352453647 54.171737045617888
v 10 15.010583957828768 36.29180377360673
v 25 -5.1312224952561687 54.160984496108938
v -35 39.65463343108302 -12.878012430643988
v -36.865918792376291 9.3530289153225947 5.4919112600835067
v 30 -38.650720958632633 31.768056532939337
v 5 12.791722149910637 18.401117952086619
v 0 26.223177790496834 2.7615527607213135
v -40 35.184650113080231 -15.118380511289836
v 0 35.184649820005284 -15.118380658179817
v -0.00064468380000004544 21.74215232864778 11.702095877684936
v 10 -0.66123947032832753 56.401352429864808
v 10 17.261705174838479 20.641485885842492
v 40 12.780969013546777 29.581452521848071
v 0 24.081909242475486 18.145568137151283
v -39.959638498590557 28.501001784009404 -12.942043249361774
v -11.75089841175636 27.931111662245154 10.512762896370505
v 29.934914834818429 1.2892758702656217 43.091617441696059
v -29.9998589637854 10.772998348606016 -4.9821201792771888
v 32.773529831775612 -0.72300704941970562 45.169050449211596
v 40 -0.60097195667090819 56.43155867545731
v 16.938727007358541 -6.5292594031493119 19.90333116202838
v 14.919354999999998 -0.65048633396446753 45.221017860103359
v -32.248042027340553 16.437235996216909 11.127044117926186
v 9.9996815159157784 -7.3286598027831067 19.503049819900522
v -34.564463918154338 7.2959215605278489 -6.7248407434884889
v 29.85911482349508 0.70407342038541509 44.467559969005109
v -34.523126296445199 2.6532600194365967 -6.0061407831898457
v 30.553967975555004 0.070023632973362115 43.428885665008039
v 12.45798988370068 -22.989232997941667 22.83943891327409
v 29.843916308465509 0.56615229222504038 45.830424497542374
v -34.26763733836988 7.8048450861665275 4.7160839129364316
v 32.892041769419222 -2.0099940421618241 44.539201908627405
v -29.999463544625559 18.704627967526097 11.759476517686899
v 30.531667888662788 -0.57969925868874306 44.551707215455593
v 34.426956589731617 0.12366332746949737 43.675436864587581
v 16.632262544487471 -11.646798140668093 17.338348274749706
v 16.398976359404539 -19.43682021008788 19.448427253197451
v 29.93176057653335 1.2788454692004319 42.413694875291526
v -26.988669568691041 18.823615572184462 6.3657689373022688
v -31.15333730544668 5.9512390146858838 -3.2063279113325649
v 32.345753568281118 0.098643309466324158 43.710230630373573
v -35.098776172032821 12.140419036519393 -4.2967651244434002
v 29.994324870656019 1.9148942770070967 41.299224524923957
v -21.710809644590679 26.334661842897525 2.8174282573469824
v -32.498887873641117 5.4755106263280311 -0.3797380816679059
v 29.99987888410211 -3.6151935392229371 45.954605776757838
v 31.014034023294741 -1.5852685819057406 44.752376295995305
v -29.990997432452701 18.684370668291553 6.6427706523835042
v 19.965024289787671 -7.5951635433270761 19.368947088828939
v -31.657089346659959 15.533285877533199 8.5898893878730807
v -29.999910359424501 5.6881482942415378 1.9697167491353049
v -40 5.4771643459454475 -4.6920244775973465
v -37.05359626221388 13.828032002318775 -3.4509288087163128
v -29.999726645481971 2.1910262654484152 -0.55002407146844234
v -37.088312060262332 10.288727775217602 -5.2248379385685624
v 29.757977958799462 0.065715316098740484 44.856920373109702
v 40 -15.851614124747893 37.602009231360938
v -27.19319954750987 24.035838365902393 12.851075807601365
v -40 9.8309695851072494 0.69635936866224668
v -29.999822335785051 15.861771797896665 14.128403137972022
v -32.570245 3.873547279415237 -8.4401442589507809
v -31.662772994949201 7.5952733471753211 -1.8513215009120643
v 32.067532171439737 -3.3692119003783381 43.858258302833271
v -30.83401933643319 16.361897727017322 11.035893886597783
v -30 16.037632293768727 8.8422530791530853
v -27.946773030715349 21.215157713999744 1.5041806560883835
v -29.999468780891149 19.198079356858972 2.8692267958469682
v -29.278218361961031 21.336372414222652 0.89931809121069506
v 37.623914114587343 -3.6111355574378567 43.736816254461743
v 15.6758137549963 -19.062084129231991 15.003560269293754
v -32.061498811549967 15.11447867435794 13.766743216549365
v -31.9766018275443 19.710133168254448 -0.50284350734366257
v 30.65109339187093 0.92452436161389118 41.964700069878866
v 16.762660395413601 -8.8243687582882373 18.752869559399947
v -30 14.900474145075009 8.2723062498843714
v 13.504097095181979 -8.6722815978112955 24.438950047002272
v -29.999846691968671 22.552910600729973 0.64743842652358552
v -27.797714470696391 21.753097955180184 0.52088693131821273
v 34.0009233905595 1.1638644098303685 41.600425700186264
v 18.72137859476388 -20.368962945033292 17.610920762069842
v -29.999871895102871 8.4624945238331719 -3.7285991312359812
v -28.458915375819359 17.880430275822821 8.2473769165123922
v -29.826544885183768 18.057121182393317 9.854760725406928
v 29.999831561840072 2.0480562877655411 41.985452328174205
v -29.99975111707376 16.312205820485055 13.50226756211303
v -29.334816657651992 22.325501770793522 0.54520011650907563
v -28.002304656937039 22.322288649643571 0.62667585647145074
v -31.57628047011071 22.478186315554737 -0.92531934404684435
v -30.71492279847563 21.753021600125965 0.52066859036152024
v 9.9997055330823468 -17.275878744977803 20.215691999733838
v -29.999751558442849 3.4106853408544193 -4.0155973663383371
v 16.79740947079657 -12.379275777795897 28.156791873538197
v -28.502338159719571 17.272458311202339 9.4611513160810414
v -29.999589791716112 7.0511600687125489 -6.8475158844505941
v -37.332446794403303 2.8507364740128085 -6.4001458867617238
v -29.999359999999999 20.153343642352898 3.7117570613616646
v 14.250019999999999 -8.4410962438409385 23.084674896062623
v -32.062620215541287 10.280081191839493 -5.2291716302243998
v -30 9.9463264346658118 -2.5635400840937415
v -32.718398139066068 23.21017046031826 -2.3857744114089279
v -31.257923527607971 15.744125269217445 12.510478622983101
v 15.101235607516669 -11.539243179257863 24.632483555998657
v 30.722400406624189 -0.85748476724352241 45.068757563462206
v 31.389308039629455 0.83591036637033422 42.254766471585185
v 13.945475051643641 -15.072405118820996 15.62168767171614
v -29.999642871536761 16.655772156379868 10.690744437845863
v -32.488121847618302 1.9039259266053188 1.7587613415746937
v 29.99949802937881 1.9897396703327903 45.123486283002933
v -27.09525663475122 21.753116341322045 0.52093950737679151
v 30.03345013033832 0.72605418052769721 42.194852067460374
v 31.040287263555733 -0.23592594783192311 44.049388391178979
v 13.70958913998035 -9.6263080267178545 24.792295743888779
v -36.345499110243743 1.985307754585514 -4.6734421490235327
v 9.9996158111553708 -8.5335020280445697 22.540964198564566
v -27.63702781449437 23.926339914657017 1.6099303451017022
v 20 -12.305014201721249 24.112820631518616
v 29.798842721547931 0.27963158888161566 43.40283020945995
v 9.9995152422003493 -18.75881737255521 24.959347869555369
v -30.71983090871796 17.056110162169428 9.3528977890405454
v 13.830568708385229 -19.090013541328034 15.058889843223142
v 29.919209645608522 0.26828920122979927 43.387540387520531
v -28.70246775584236 22.550571267303955 0.72726533843945518
v -29.999534874170141 19.536383897471332 13.409407226843975
v 40 -23.308330324015881 45.050567458533394
v 30.671829773085101 0.53217285344588561 42.649062185358247
v 20.000317195117152 -19.553411608125362 21.664425714153154
v -29.99976947485731 16.302638685451665 7.9150123800650043
v -30.093301422078419 16.711438277179884 9.9707639166960487
v -30.08424961691351 16.140995768896005 11.263841021926355
v -32.496289037001652 6.2513556453360746 3.9375715180839119
v -29.999540761278059 17.303730060646789 9.3977106729211108
v 20.000554082329991 -18.984953134049 18.93021737959128
v 15.749999999999998 -12.648794576726363 20.975775965720491
v -29.885966051788781 16.745412344888116 11.749550723587172
v -29.86221388755007 15.81595517366679 12.547587330526033
v -29.999684273901568 16.800672982193838 13.004573452814455
v 16.299029999999998 -9.4656899819279339 24.8631340821502
v -26.918764423675729 21.611418052865027 0.4501202574439418
v 20 -14.042714356676942 27.323253595837254
v -29.942382651898718 16.089593729118299 13.020091360360945
v -29.999654040617781 24.257504778333391 -0.58984446376518562
v -29.711834946473239 16.964891111314049 10.074807139075002
v -29.780664839419721 16.349756711537463 11.302118785062921
v 29.760668154232761 -0.04216702086971269 45.525721178822863
v -35 5.864917390667868 -1.6523801608315338
v -30.48725879917405 15.788779109062109 12.21352139975841
v 36.334862122194181 -0.65077618394532344 45.220145514421532
v -29.321047119557441 21.908202262900424 0.28197436065762105
v -29.99956889367304 7.5671886627443552 1.1666664657160695
v 30.038641699162959 -0.59832831994181568 44.492945497422355
v -29.984880343102589 17.035999034415745 12.256583799730738
v 28.040578999636519 -1.4801931780158482 46.8757464437804
v -27.2093484014487 21.08083595354967 1.8619532281724496
v 12.408586133467759 -20.451034137569692 17.775137241629906
v -32.702544131268183 0.73205781061471553 -2.1718246031173152
v -29.815079785892959 16.042189511649166 11.91577460805688
v -30 15.842375707170063 11.911314244516078
v 29.999560847322829 -1.2166787673394461 46.294584995685426
v 29.718197721547941 -0.33861367092559114 44.6363589861134
v 29.9997528843063 2.1100426410788957 42.759489560747397
v -29.29731708085065 21.753058704559127 0.52077469227602791
v 30.022300086892219 1.0915343554399253 41.55886896280343
v -4.6674039715624076 17.272380024010765 9.4613075147179408
v 30.003168610630571 -10.865545082383299 40.101201983004046
v -30.468236369234859 16.054824060603025 11.601845892495891
v -29.999695428799161 16.322261165154465 11.356283001058307
v -29.999623333609041 17.302236238440937 2.7468621126962809
v 35.144996653338289 -6.3514979229240867 42.363356683155594
v 13.711190250409739 -16.422245956784874 21.38794375730571
v -30.593724510149361 15.578639904621461 12.73051597497215
v -29.84888880470886 16.975741397968317 11.196518733422041
v 16.893721477904581 -14.005511402330136 16.156421413622056
v -29.999840854142079 6.8510058050627691 4.2378903131398147
v 17.474302586980201 -20.61886468504478 18.109831143417978
v -29.99936604687484 3.2207338500427269 -2.2928319506234729
v 15.006315536500749 -8.0125199169579915 23.076594104640087
v 30 -3.4006307557396314 43.842637821212236
v 15.749989999999999 -17.084919566902897 21.658518372825643
v -29.999739139755849 16.044885901878949 11.909799793751656
v 29.999683968148471 2.126344077253842 43.420537974008489
v 30.060941786055182 0.051394571720293936 43.370123946974815
v -27.60882201633892 21.578584253651162 0.43366513940720353
v -27.44825851013097 21.887533597228316 0.38626272512744109
v 30 1.4115423051184384 40.99969751201391
v -28.078659521491591 21.863776033349584 0.33172017551806121
v 16.497494732841432 -8.6245322623138811 24.456358348500032
v 13.65408192390324 -9.1962800480905642 18.566640463950783
v 14.926448495606168 -19.588217559336535 16.053731508242542
v -31.427853592538529 17.121670926055568 9.4011738962816906
v -29.99953385127586 7.8490212499370404 -0.23273195110072109
v -29.999793285881939 9.9300978416465568 2.1268959253622342
v -30 15.115964420888307 13.562208419768506
v 14.249642052268831 -12.76773135837896 23.821904728858524
v 29.871292296291809 0.83578842814536891 42.255588428993818
v 13.69549260278812 -15.212495496765658 21.960037193260558
v 35.632417141134582 -27.736707911825434 31.64532821402787
v 16.288783136457031 -13.256763800247796 21.27375045045294
v -29.398597980886091 21.493424485419411 0.39098612961285539
v -29.917095410783091 16.388596962981588 12.388729227342711
v -30.048986257829039 2.501396969867911 -5.7017340700119128
v 16.487825096208351 -19.471966090822999 19.059955938972802
v -29.99964031373781 5.843169390003867 0.81127498230708284
v -30.973150277257261 15.097161184197894 13.801293110089187
v -29.999783235483271 15.765069010935196 12.468188981697253
v 14.93983517937829 -11.515722758488398 21.336917138051813
v 31.490634718766593 -0.82033559543985834 45.135578315386638
v 14.875976038686231 -4.5090816446877371 20.915838636637734
v -30 16.413224287314062 10.613962986753085
v -28.57181106509724 20.920519567810022 2.1814720922986783
v -26.4890419571922 22.657600002497812 0.93371511582412126
v 14.250019999999999 -14.493479279933442 20.051203672290239
v -34.014962441981403 6.745135972045599 -3.0770702736920938
v 14.25 -9.4922863499352275 25.463967274354445
v -25.539080210903322 21.738962058721818 0.46245403548961406
v 14.978604274299249 -16.769678283321138 22.019410476986508
v 11.4186566245798 -20.9851160589896 18.840543593443396
v 13.519808672243229 -11.353140489008851 22.995565621136155
v -29.960206023754569 17.495351280614276 11.561076570778194
v -26.028970023567432 21.395377702028156 1.1807194198633013
v -34.008362755435847 7.3438988459040324 -2.5654846576108774
v 13.700950000000001 -12.992076434657374 23.095699376768138
v 15.806054263524958 -9.3107291907972964 25.492254967244381
v -33.885051348633048 5.3335455573645199 -3.0010836434704089
v -33.897901588091869 4.7742439878737644 -2.4159608014395992
v 29.914118475710399 1.1628772905924905 41.665357065906946
v 29.764763937784672 0.015762234152632448 44.062062883105227
v -26.228706831012541 21.644251852078902 0.46657537548068362
v 13.50255317518547 -17.87137079102062 19.800657540591946
v -29.999693383937331 23.208087141874962 1.0620776167159676
v 13.75732373684836 -8.6183537382321624 25.350881881941607
v -29.74624989294648 16.657323911425753 10.688462962068961
v -28.73576930409558 23.997422236459819 1.6408203975646565
v 29.838709999999999 0.58600418564995049 42.753960306796444
v 30.044600173784431 0.36057400561547581 42.830835172117311
v 29.999964547934059 0.58584638046984372 42.753841558698205
v 15.749999999999998 -7.9796870991812918 23.315945629367167
v 14.25 -15.622097129984986 22.391689049799837
v 14.33919233706623 -12.164685162505069 21.191674342262672
v -31.350484999999999 6.191312865979965 -0.23255254584539031
v -25.448646653772009 22.510702237761699 0.90066298289555391
v 16.342673539390141 -16.458164640509757 14.927359041186142
v 16.320095844117159 -17.865552325785856 19.063174967740398
v -33.597803197113123 7.4667062711023036 -1.168875610101864
v 15.749989999999999 -13.360024951563343 23.525445921831572
v -29.999490823511032 17.620618601356565 8.7653430759565651
v 15.758981892399598 -14.393137944159641 23.00495152963623
v 16.25940555055449 -17.812757758539288 20.723885556401246
v -31.323725236281749 6.9500694530121727 -0.50203519864628987
v -28.69894115605975 21.941058006026129 0.34175485374685621
v 30.077283398325921 -0.25778486217488528 43.909412721832318
v 30 -2.0985726697256233 44.495232958045094
v -26.126923578685449 21.772888653199416 0.4278701374995677
v -29.865708028374058 21.753043827486003 0.52073215056857691
v 13.71205904076904 -17.375072128100363 19.20868915070956
v 14.565456987190929 -21.920490574760734 20.70571982425113
v 14.329875363096081 -16.931051904128687 18.805552694154617
v -33.943194833254218 4.6073758340029869 -1.6506576576343974
v 14.946097287129499 -19.080921547107938 20.86675861734312
v -31.255979156521668 4.6234970151452197 -1.7290617119109761
v 30 -33.244496095454906 37.176340996303296
v 13.511280046729791 -16.951411587072393 20.225304732730052
v 28.43740423641151 -0.65048633396446753 45.221017860103359
v 13.74376128884335 -13.562045240688047 21.084326292682928
v 15.04813256251825 -13.962368910533812 20.107045341446103
v -33.824170703854499 6.9022783903442253 -0.46877408957515243
v -28.61975732110545 21.51748751913015 0.44991076869356661
v 20 -6.8122326511056093 27.493211405883969
v 16.258998073387069 -15.839148308393593 19.946132294656206
v 13.687018695471849 -10.55680218592525 24.258106854772258
v 14.18157378501413 -9.6406053159349234 22.560037133513188
v 14.956786648817948 -18.467261756003698 17.847707710212266
v 15.824894147589321 -12.308346377439452 23.968767605909122
v 29.99961846532182 -0.63426829269939322 45.187798899737878
v -33.618119552534758 6.1091780472946775 -0.2494416339332588
v -29.942542702717478 14.90305037488486 14.188576664744394
v 15.067245311308747 -10.323967548338963 25.251770796856086
v 14.959793371343848 -14.287824545489642 23.260971645517422
v -31.128612041081951 7.4473448968777305 -1.0747175856538718
v -31.186355552436321 5.3687438218105195 -3.012779509570592
v -31.07436723743745 7.3189817482931616 -2.5876222476738988
v 16.494098091355131 -12.63984289401688 22.458050222938816
v 14.910886297409037 -16.312044833209701 18.941665785019872
v 9.9997488814532858 -19.358805367754801 22.306913738922969
v 13.780115812044921 -18.463621486707634 20.441901791788329
v 13.678347305090229 -9.9976356970908498 23.01308881958435
v 14.25 -11.941106298048254 24.236611900363354
v -16.651494 30.693160668887199 5.0019206210321947
v 16.492320765020271 -16.381539940994212 20.590120947653308
v 15.772346198223049 -10.163449893959605 22.246434542998717
v 17.20139132642937 -21.446365758475203 19.760502112188835
v 13.50001 -18.958137217479415 19.266586172677915
v -29.999682470147651 3.8051247662771064 -0.67330751538605682
v 10 23.689540157786599 18.975547008833104
v -29.99969463370752 21.156013860176913 1.3355631177013443
v 16.286130997566129 -11.270780034401263 22.331703389914054
v -32.301218951272617 4.8861811138971287 -0.87279582102973308
v 16.500019999999999 -14.585067953728284 21.458380659584179
v 16.24490907032493 -8.5572581040594109 25.378986615087797
v 16.26814874222547 -10.305151639391436 24.476942189609087
v 15.744006396481828 -13.73323619387509 20.430454384211078
v 13.500651996977769 -15.086372911953536 21.20444457043055
v -27.73719333014089 22.969673598376623 1.0529891709247003
v 13.707164062368911 -20.245325752920209 19.490189814314022
v 15.748459349791768 -10.260276841868684 25.06119524625068
v 16.28384310035802 -9.6683808311031036 23.066729153140226
v -30 15.479170064029184 12.73676133214229
v -32.265211465184542 6.0227726603107019 -3.2256164163187862
v 16.28685368528847 -14.054995187455294 20.871515869794084
v 10 37.618333538212454 -8.815186045009046
v -30 13.15169243991852 7.3958119917356484
v -25.588292948342922 26.212424947207918 13.941887477372743
v 20.000391695950881 -17.149936674845321 19.976270853207868
v 20.000215732113411 1.5599611269710962 29.542889488426049
v 29.488254051621642 13.296902197292649 29.840039669579685
v 3.9317997328423751 20.476372454174967 3.06870049734224
f 687 311 1 
f 1 311 692 
f 1 319 382 
f 692 319 1 
f 382 323 1 
f 1 323 687 
f 2 24 492 
f 692 24 2 
f 2 319 692 
f 699 319 2 
f 2 492 699 
f 3 4 319 
f 662 4 3 
f 657 289 3 
f 3 289 662 
f 3 319 699 
f 3 492 657 
f 699 492 3 
f 382 319 4 
f 4 347 382 
f 410 347 4 
f 662 410 4 
f 5 327 410 
f 673 327 5 
f 5 410 662 
f 515 469 5 
f 5 469 673 
f 662 515 5 
f 6 348 469 
f 743 348 6 
f 6 355 659 
f 739 355 6 
f 6 469 737 
f 6 659 743 
f 6 737 739 
f 7 8 736 
f 779 8 7 
f 583 26 7 
f 7 26 779 
f 7 355 583 
f 736 355 7 
f 565 12 8 
f 8 12 591 
f 797 565 8 
f 8 591 736 
f 8 779 797 
f 591 507 9 
f 9 507 597 
f 736 591 9 
f 9 597 743 
f 9 659 736 
f 743 659 9 
f 10 507 569 
f 597 507 10 
f 10 569 688 
f 743 597 10 
f 688 646 10 
f 10 646 743 
f 11 13 427 
f 513 13 11 
f 427 327 11 
f 11 327 673 
f 11 434 528 
f 646 434 11 
f 528 513 11 
f 673 646 11 
f 565 42 12 
f 12 42 611 
f 12 507 591 
f 611 507 12 
f 23 14 13 
f 13 14 301 
f 272 23 13 
f 513 272 13 
f 13 301 427 
f 14 15 17 
f 23 15 14 
f 14 17 468 
f 468 301 14 
f 15 16 18 
f 297 16 15 
f 424 17 15 
f 15 18 424 
f 15 23 297 
f 46 18 16 
f 297 46 16 
f 424 20 17 
f 17 20 456 
f 17 456 468 
f 44 21 18 
f 18 21 424 
f 264 44 18 
f 18 46 264 
f 456 20 19 
f 19 20 460 
f 19 339 484 
f 676 339 19 
f 484 456 19 
f 19 460 676 
f 411 45 20 
f 20 45 460 
f 622 411 20 
f 20 424 622 
f 21 44 411 
f 21 411 622 
f 622 424 21 
f 280 69 22 
f 22 69 408 
f 22 274 280 
f 346 274 22 
f 22 287 346 
f 408 287 22 
f 23 79 642 
f 666 79 23 
f 23 272 666 
f 642 297 23 
f 311 64 24 
f 24 64 509 
f 692 311 24 
f 509 492 24 
f 756 541 25 
f 25 541 772 
f 772 547 25 
f 25 547 773 
f 25 570 756 
f 773 570 25 
f 26 583 709 
f 26 709 745 
f 745 711 26 
f 26 711 779 
f 27 28 30 
f 904 28 27 
f 31 29 27 
f 27 29 896 
f 27 30 829 
f 829 31 27 
f 27 896 904 
f 904 30 28 
f 29 31 907 
f 29 55 896 
f 907 55 29 
f 30 32 35 
f 927 32 30 
f 30 35 829 
f 904 50 30 
f 30 50 927 
f 829 33 31 
f 31 33 907 
f 949 35 32 
f 32 927 949 
f 829 36 33 
f 33 36 941 
f 908 907 33 
f 941 908 33 
f 34 86 402 
f 495 86 34 
f 271 130 34 
f 34 130 495 
f 402 271 34 
f 35 37 829 
f 949 37 35 
f 829 38 36 
f 36 38 941 
f 47 39 37 
f 37 39 829 
f 958 47 37 
f 37 949 958 
f 38 40 47 
f 829 40 38 
f 38 47 49 
f 38 49 941 
f 47 40 39 
f 39 40 829 
f 41 587 709 
f 782 587 41 
f 726 651 41 
f 41 651 782 
f 41 709 739 
f 739 726 41 
f 42 103 791 
f 839 103 42 
f 42 565 839 
f 791 611 42 
f 43 160 462 
f 678 160 43 
f 286 276 43 
f 43 276 305 
f 462 286 43 
f 43 305 678 
f 44 82 85 
f 264 82 44 
f 44 85 411 
f 45 84 407 
f 411 84 45 
f 45 407 460 
f 46 80 81 
f 297 80 46 
f 46 81 82 
f 46 82 264 
f 980 49 47 
f 47 56 729 
f 958 56 47 
f 47 729 980 
f 48 576 839 
f 884 576 48 
f 48 609 711 
f 839 609 48 
f 48 711 745 
f 48 745 884 
f 49 54 941 
f 980 54 49 
f 746 52 50 
f 50 52 927 
f 50 58 746 
f 904 58 50 
f 927 52 51 
f 51 52 932 
f 932 56 51 
f 51 56 949 
f 949 927 51 
f 52 746 962 
f 962 932 52 
f 658 538 53 
f 53 538 734 
f 53 539 658 
f 707 539 53 
f 53 551 707 
f 873 551 53 
f 53 734 873 
f 54 59 387 
f 943 59 54 
f 54 387 941 
f 54 388 943 
f 980 388 54 
f 907 57 55 
f 55 57 991 
f 55 654 896 
f 991 654 55 
f 56 61 729 
f 923 61 56 
f 932 923 56 
f 958 949 56 
f 387 59 57 
f 57 59 963 
f 907 387 57 
f 963 724 57 
f 57 724 991 
f 654 60 58 
f 58 60 964 
f 904 654 58 
f 964 746 58 
f 96 94 59 
f 59 94 963 
f 98 96 59 
f 943 98 59 
f 60 90 91 
f 92 90 60 
f 60 91 964 
f 724 92 60 
f 60 654 991 
f 991 724 60 
f 61 100 102 
f 923 100 61 
f 102 101 61 
f 61 101 388 
f 61 388 980 
f 980 729 61 
f 62 160 678 
f 686 160 62 
f 62 168 278 
f 706 168 62 
f 678 275 62 
f 62 275 706 
f 62 278 686 
f 323 66 63 
f 63 66 341 
f 63 268 311 
f 341 268 63 
f 63 311 687 
f 687 323 63 
f 311 268 64 
f 64 268 341 
f 64 341 365 
f 64 365 509 
f 341 67 65 
f 65 67 481 
f 481 289 65 
f 65 289 657 
f 365 341 65 
f 509 365 65 
f 657 509 65 
f 66 67 341 
f 510 67 66 
f 66 323 663 
f 663 510 66 
f 67 192 481 
f 510 192 67 
f 593 519 68 
f 68 519 761 
f 68 547 593 
f 773 547 68 
f 68 761 770 
f 68 770 832 
f 937 773 68 
f 68 832 937 
f 334 269 69 
f 69 269 403 
f 69 280 334 
f 69 403 523 
f 510 408 69 
f 69 485 510 
f 523 485 69 
f 599 570 70 
f 70 570 773 
f 978 599 70 
f 882 752 70 
f 70 752 978 
f 70 773 937 
f 937 882 70 
f 71 88 778 
f 884 88 71 
f 71 92 94 
f 644 92 71 
f 71 94 96 
f 71 96 775 
f 778 644 71 
f 71 775 884 
f 95 93 72 
f 72 93 783 
f 874 95 72 
f 72 604 607 
f 783 604 72 
f 72 607 875 
f 72 833 874 
f 875 833 72 
f 73 101 102 
f 976 101 73 
f 73 102 886 
f 73 392 558 
f 735 392 73 
f 73 558 738 
f 886 735 73 
f 73 738 976 
f 280 274 74 
f 74 274 332 
f 334 280 74 
f 461 306 74 
f 74 306 631 
f 74 332 461 
f 995 334 74 
f 74 631 742 
f 74 742 995 
f 75 349 812 
f 815 349 75 
f 75 557 803 
f 812 557 75 
f 75 586 749 
f 803 586 75 
f 75 749 811 
f 75 811 929 
f 929 815 75 
f 76 265 715 
f 994 265 76 
f 875 267 76 
f 76 267 994 
f 76 715 814 
f 76 814 857 
f 76 857 875 
f 640 79 77 
f 77 79 666 
f 959 640 77 
f 77 666 959 
f 78 83 296 
f 339 83 78 
f 78 296 656 
f 78 306 461 
f 656 306 78 
f 629 339 78 
f 78 461 629 
f 79 80 642 
f 648 80 79 
f 79 640 656 
f 656 648 79 
f 82 81 80 
f 508 82 80 
f 80 297 642 
f 648 508 80 
f 508 85 82 
f 407 296 83 
f 83 339 676 
f 460 407 83 
f 676 460 83 
f 411 85 84 
f 84 85 508 
f 84 296 407 
f 648 296 84 
f 84 508 648 
f 86 145 290 
f 495 145 86 
f 86 290 577 
f 86 316 504 
f 577 316 86 
f 504 402 86 
f 87 523 530 
f 571 523 87 
f 87 530 916 
f 825 571 87 
f 913 825 87 
f 916 913 87 
f 88 745 778 
f 884 745 88 
f 89 532 780 
f 893 532 89 
f 751 553 89 
f 89 553 978 
f 780 751 89 
f 978 893 89 
f 765 91 90 
f 90 92 644 
f 90 644 765 
f 765 93 91 
f 91 93 964 
f 724 94 92 
f 93 95 962 
f 962 746 93 
f 93 746 964 
f 93 765 783 
f 94 724 963 
f 874 97 95 
f 95 97 932 
f 95 932 962 
f 96 98 859 
f 859 775 96 
f 833 100 97 
f 97 100 932 
f 874 833 97 
f 388 101 98 
f 98 101 976 
f 943 388 98 
f 976 859 98 
f 738 103 99 
f 99 103 839 
f 839 576 99 
f 99 576 884 
f 859 738 99 
f 99 775 859 
f 884 775 99 
f 886 102 100 
f 100 833 886 
f 100 923 932 
f 738 558 103 
f 103 558 791 
f 564 544 104 
f 104 544 717 
f 562 545 104 
f 104 545 767 
f 717 562 104 
f 567 564 104 
f 767 567 104 
f 105 349 815 
f 826 349 105 
f 767 545 105 
f 105 545 826 
f 105 567 767 
f 777 567 105 
f 105 766 777 
f 929 766 105 
f 105 815 929 
f 385 108 106 
f 106 108 971 
f 106 110 700 
f 971 110 106 
f 106 284 385 
f 700 284 106 
f 107 548 606 
f 625 548 107 
f 107 606 638 
f 924 625 107 
f 107 638 903 
f 903 898 107 
f 107 898 924 
f 385 325 108 
f 108 325 395 
f 395 335 108 
f 108 335 971 
f 109 147 364 
f 624 147 109 
f 109 283 351 
f 364 283 109 
f 109 351 396 
f 109 396 624 
f 459 111 110 
f 110 111 700 
f 110 269 334 
f 971 269 110 
f 110 334 459 
f 414 295 111 
f 111 295 700 
f 624 414 111 
f 111 459 624 
f 112 240 451 
f 848 240 112 
f 322 302 112 
f 112 302 372 
f 451 322 112 
f 112 372 848 
f 113 284 295 
f 674 284 113 
f 113 295 391 
f 113 314 367 
f 698 314 113 
f 113 367 674 
f 113 391 694 
f 113 694 698 
f 313 121 114 
f 114 121 694 
f 390 313 114 
f 675 390 114 
f 694 391 114 
f 114 391 847 
f 114 401 675 
f 847 401 114 
f 115 117 129 
f 336 117 115 
f 129 127 115 
f 115 127 693 
f 693 336 115 
f 116 126 630 
f 693 126 116 
f 380 336 116 
f 116 336 693 
f 630 380 116 
f 496 129 117 
f 117 291 483 
f 668 291 117 
f 117 336 668 
f 117 483 496 
f 466 291 118 
f 118 291 668 
f 118 336 380 
f 668 336 118 
f 118 380 630 
f 118 389 627 
f 630 389 118 
f 627 466 118 
f 385 284 119 
f 119 284 674 
f 483 291 119 
f 119 291 691 
f 119 357 483 
f 619 357 119 
f 691 385 119 
f 674 619 119 
f 466 125 120 
f 120 125 999 
f 120 291 466 
f 691 291 120 
f 401 325 120 
f 120 325 691 
f 675 401 120 
f 999 675 120 
f 124 123 121 
f 121 123 698 
f 690 124 121 
f 121 313 690 
f 698 694 121 
f 122 123 128 
f 698 123 122 
f 122 128 698 
f 123 124 690 
f 262 128 123 
f 690 262 123 
f 405 138 125 
f 125 138 999 
f 627 405 125 
f 125 466 627 
f 126 134 135 
f 464 134 126 
f 126 135 389 
f 126 389 630 
f 693 464 126 
f 127 129 133 
f 127 133 464 
f 127 464 693 
f 128 139 314 
f 696 139 128 
f 128 262 696 
f 128 314 698 
f 993 133 129 
f 496 406 129 
f 129 406 993 
f 130 271 370 
f 130 342 495 
f 549 342 130 
f 130 370 549 
f 542 142 131 
f 131 142 838 
f 131 536 598 
f 900 536 131 
f 598 542 131 
f 131 838 900 
f 132 536 713 
f 967 536 132 
f 713 670 132 
f 132 670 802 
f 132 802 967 
f 133 134 464 
f 615 134 133 
f 993 615 133 
f 470 135 134 
f 134 288 470 
f 615 288 134 
f 470 389 135 
f 404 288 136 
f 136 288 406 
f 136 330 405 
f 664 330 136 
f 405 404 136 
f 136 406 412 
f 136 412 664 
f 137 270 354 
f 367 270 137 
f 137 354 664 
f 412 357 137 
f 137 357 619 
f 619 367 137 
f 664 412 137 
f 354 281 138 
f 138 281 390 
f 405 330 138 
f 138 330 664 
f 664 354 138 
f 138 390 999 
f 977 314 139 
f 696 345 139 
f 139 345 977 
f 313 281 140 
f 140 281 345 
f 690 313 140 
f 140 345 696 
f 696 690 140 
f 141 216 450 
f 685 216 141 
f 317 271 141 
f 141 271 402 
f 450 317 141 
f 141 402 685 
f 804 155 142 
f 142 155 838 
f 575 177 142 
f 142 177 804 
f 542 303 142 
f 142 303 575 
f 143 420 632 
f 802 420 143 
f 632 533 143 
f 143 533 774 
f 143 774 967 
f 967 802 143 
f 144 152 216 
f 316 152 144 
f 144 216 685 
f 504 316 144 
f 144 402 504 
f 685 402 144 
f 304 191 145 
f 145 191 616 
f 616 290 145 
f 613 304 145 
f 495 356 145 
f 145 356 613 
f 146 266 315 
f 321 266 146 
f 146 315 684 
f 146 320 331 
f 684 320 146 
f 331 321 146 
f 147 282 364 
f 459 282 147 
f 624 459 147 
f 315 266 148 
f 148 266 321 
f 683 315 148 
f 148 321 706 
f 706 683 148 
f 305 276 149 
f 149 276 320 
f 695 305 149 
f 684 315 149 
f 149 315 695 
f 149 320 684 
f 150 315 683 
f 695 315 150 
f 683 678 150 
f 150 678 695 
f 151 161 170 
f 649 161 151 
f 151 170 939 
f 713 536 151 
f 151 536 900 
f 900 649 151 
f 939 713 151 
f 333 216 152 
f 152 316 352 
f 366 333 152 
f 152 352 366 
f 375 286 153 
f 153 286 462 
f 153 343 511 
f 512 343 153 
f 511 375 153 
f 153 462 512 
f 154 229 450 
f 998 229 154 
f 499 329 154 
f 154 329 998 
f 450 333 154 
f 154 333 499 
f 169 167 155 
f 155 167 838 
f 179 169 155 
f 872 179 155 
f 155 804 872 
f 178 162 156 
f 156 162 914 
f 156 164 178 
f 760 164 156 
f 914 760 156 
f 157 165 417 
f 947 165 157 
f 157 415 947 
f 985 415 157 
f 417 416 157 
f 157 416 879 
f 157 879 985 
f 161 159 158 
f 158 159 167 
f 987 161 158 
f 167 166 158 
f 158 166 975 
f 975 428 158 
f 158 428 987 
f 159 161 649 
f 838 167 159 
f 159 649 838 
f 686 462 160 
f 987 170 161 
f 178 171 162 
f 162 171 914 
f 409 361 163 
f 163 361 968 
f 853 409 163 
f 163 498 853 
f 945 498 163 
f 163 912 945 
f 968 912 163 
f 164 173 178 
f 432 173 164 
f 760 432 164 
f 165 174 922 
f 947 174 165 
f 467 417 165 
f 500 467 165 
f 922 500 165 
f 166 167 169 
f 166 169 430 
f 166 430 431 
f 166 431 506 
f 166 506 975 
f 168 273 318 
f 321 273 168 
f 324 278 168 
f 168 318 324 
f 706 321 168 
f 169 179 430 
f 188 180 170 
f 170 180 939 
f 429 188 170 
f 987 429 170 
f 171 178 185 
f 171 185 186 
f 171 186 897 
f 171 897 914 
f 877 187 172 
f 172 187 961 
f 879 416 172 
f 172 416 905 
f 172 437 921 
f 961 437 172 
f 905 877 172 
f 921 879 172 
f 181 178 173 
f 860 181 173 
f 173 432 781 
f 173 781 860 
f 174 415 895 
f 947 415 174 
f 174 502 922 
f 948 502 174 
f 174 895 948 
f 175 215 226 
f 939 215 175 
f 175 226 623 
f 623 579 175 
f 175 579 670 
f 175 670 713 
f 175 713 939 
f 176 303 635 
f 789 303 176 
f 635 524 176 
f 176 524 720 
f 176 720 856 
f 856 789 176 
f 177 575 925 
f 177 601 754 
f 925 601 177 
f 177 754 804 
f 178 181 196 
f 205 185 178 
f 178 196 207 
f 212 205 178 
f 178 207 212 
f 189 184 179 
f 179 184 430 
f 872 189 179 
f 180 188 190 
f 180 190 939 
f 860 196 181 
f 889 197 182 
f 182 197 973 
f 182 441 860 
f 973 441 182 
f 182 500 889 
f 954 500 182 
f 860 781 182 
f 182 781 954 
f 895 413 183 
f 183 413 966 
f 183 439 471 
f 966 439 183 
f 183 471 948 
f 948 895 183 
f 184 189 198 
f 184 198 955 
f 955 430 184 
f 193 186 185 
f 205 193 185 
f 186 193 906 
f 960 897 186 
f 186 906 960 
f 187 786 956 
f 970 786 187 
f 187 877 970 
f 956 928 187 
f 187 928 961 
f 476 190 188 
f 188 195 476 
f 942 195 188 
f 188 429 942 
f 200 198 189 
f 217 200 189 
f 872 217 189 
f 190 199 215 
f 476 199 190 
f 190 215 939 
f 191 304 588 
f 588 521 191 
f 191 521 590 
f 191 590 618 
f 618 616 191 
f 825 481 192 
f 510 485 192 
f 192 485 571 
f 192 571 825 
f 193 205 982 
f 982 906 193 
f 194 204 956 
f 983 204 194 
f 956 786 194 
f 194 786 960 
f 194 960 988 
f 988 983 194 
f 195 206 476 
f 477 206 195 
f 195 433 546 
f 942 433 195 
f 931 477 195 
f 195 546 931 
f 920 207 196 
f 196 860 920 
f 817 445 197 
f 197 445 979 
f 197 478 973 
f 979 478 197 
f 889 817 197 
f 198 200 202 
f 198 202 209 
f 198 209 443 
f 198 443 505 
f 198 505 955 
f 206 201 199 
f 199 201 974 
f 476 206 199 
f 974 215 199 
f 217 202 200 
f 201 206 214 
f 214 211 201 
f 201 211 600 
f 201 600 974 
f 210 209 202 
f 217 210 202 
f 203 471 952 
f 984 471 203 
f 972 475 203 
f 203 475 981 
f 203 952 972 
f 203 981 992 
f 992 984 203 
f 448 447 204 
f 204 447 956 
f 480 448 204 
f 983 480 204 
f 205 212 982 
f 721 214 206 
f 206 477 721 
f 207 208 870 
f 920 208 207 
f 870 212 207 
f 920 441 208 
f 208 441 989 
f 208 480 870 
f 989 480 208 
f 209 210 214 
f 209 214 885 
f 885 443 209 
f 210 211 214 
f 858 211 210 
f 210 217 858 
f 858 600 211 
f 212 870 982 
f 213 445 881 
f 965 445 213 
f 487 447 213 
f 213 447 965 
f 981 487 213 
f 213 881 992 
f 992 981 213 
f 214 721 885 
f 974 226 215 
f 216 333 450 
f 601 221 217 
f 217 221 602 
f 754 601 217 
f 217 602 764 
f 872 754 217 
f 217 764 858 
f 318 273 218 
f 218 273 321 
f 620 318 218 
f 331 320 218 
f 218 320 375 
f 218 321 331 
f 218 375 620 
f 229 228 219 
f 219 228 363 
f 300 229 219 
f 363 263 219 
f 219 263 997 
f 219 298 370 
f 997 298 219 
f 317 300 219 
f 338 317 219 
f 370 338 219 
f 298 222 220 
f 220 222 529 
f 383 298 220 
f 891 383 220 
f 220 529 626 
f 220 626 733 
f 733 705 220 
f 220 705 891 
f 221 566 602 
f 636 566 221 
f 221 601 925 
f 925 636 221 
f 222 298 997 
f 222 442 951 
f 997 442 222 
f 951 529 222 
f 223 337 535 
f 823 337 223 
f 223 535 578 
f 223 578 681 
f 223 681 800 
f 223 800 823 
f 224 263 363 
f 997 263 224 
f 224 279 310 
f 363 279 224 
f 224 310 352 
f 352 316 224 
f 224 316 577 
f 224 577 669 
f 224 669 997 
f 610 590 225 
f 225 590 776 
f 951 610 225 
f 800 626 225 
f 225 626 951 
f 225 776 823 
f 823 800 225 
f 552 227 226 
f 226 227 810 
f 226 337 353 
f 810 337 226 
f 226 353 623 
f 974 552 226 
f 227 552 764 
f 764 602 227 
f 227 602 816 
f 816 810 227 
f 228 229 998 
f 228 360 393 
f 998 360 228 
f 634 363 228 
f 228 393 634 
f 229 300 450 
f 230 550 828 
f 946 550 230 
f 828 740 230 
f 230 740 843 
f 230 842 946 
f 957 842 230 
f 230 843 957 
f 231 318 555 
f 556 318 231 
f 231 555 561 
f 714 556 231 
f 231 561 589 
f 231 589 792 
f 792 714 231 
f 232 559 568 
f 580 559 232 
f 232 568 836 
f 730 580 232 
f 842 730 232 
f 232 836 842 
f 422 307 233 
f 233 307 499 
f 366 310 233 
f 233 310 679 
f 499 366 233 
f 682 422 233 
f 679 474 233 
f 233 474 682 
f 310 279 234 
f 234 279 363 
f 234 309 525 
f 634 309 234 
f 679 310 234 
f 234 363 634 
f 527 474 234 
f 234 474 679 
f 234 525 537 
f 537 527 234 
f 537 525 235 
f 235 525 628 
f 235 527 537 
f 727 527 235 
f 235 628 868 
f 868 727 235 
f 236 308 472 
f 511 308 236 
f 236 421 561 
f 682 421 236 
f 236 472 682 
f 620 511 236 
f 561 555 236 
f 236 555 620 
f 237 718 787 
f 834 718 237 
f 787 731 237 
f 237 731 935 
f 957 834 237 
f 935 842 237 
f 237 842 957 
f 238 248 373 
f 374 248 238 
f 299 293 238 
f 238 293 377 
f 373 299 238 
f 377 374 238 
f 239 241 490 
f 689 241 239 
f 490 379 239 
f 239 379 677 
f 677 463 239 
f 239 463 689 
f 293 243 240 
f 240 243 451 
f 377 293 240 
f 848 377 240 
f 241 244 491 
f 689 244 241 
f 680 490 241 
f 241 491 944 
f 944 680 241 
f 242 302 322 
f 559 302 242 
f 242 312 512 
f 672 312 242 
f 242 322 328 
f 242 328 672 
f 512 462 242 
f 242 462 686 
f 652 559 242 
f 686 652 242 
f 243 246 376 
f 398 246 243 
f 243 293 299 
f 243 299 614 
f 243 376 451 
f 614 398 243 
f 244 247 491 
f 689 247 244 
f 245 563 716 
f 831 563 245 
f 716 703 245 
f 245 703 725 
f 725 719 245 
f 245 719 831 
f 454 376 246 
f 246 398 808 
f 808 454 246 
f 247 257 261 
f 463 257 247 
f 247 261 294 
f 247 294 491 
f 689 463 247 
f 374 255 248 
f 248 255 455 
f 880 373 248 
f 248 455 880 
f 309 253 249 
f 249 253 514 
f 525 309 249 
f 249 514 763 
f 763 525 249 
f 453 285 250 
f 250 285 697 
f 329 307 250 
f 250 307 453 
f 360 329 250 
f 697 360 250 
f 251 285 394 
f 697 285 251 
f 251 309 393 
f 394 309 251 
f 393 360 251 
f 251 360 697 
f 472 369 252 
f 252 369 473 
f 453 422 252 
f 252 422 472 
f 493 453 252 
f 252 473 493 
f 394 285 253 
f 253 285 493 
f 253 309 394 
f 253 493 612 
f 612 514 253 
f 254 344 457 
f 671 344 254 
f 254 457 753 
f 254 473 503 
f 612 473 254 
f 254 503 671 
f 254 514 612 
f 831 514 254 
f 254 753 831 
f 255 374 741 
f 400 378 255 
f 255 378 455 
f 741 400 255 
f 256 257 463 
f 637 257 256 
f 256 379 637 
f 677 379 256 
f 256 463 677 
f 368 261 257 
f 637 368 257 
f 258 308 343 
f 369 308 258 
f 343 312 258 
f 258 312 704 
f 399 369 258 
f 704 399 258 
f 259 312 672 
f 704 312 259 
f 259 328 381 
f 672 328 259 
f 381 344 259 
f 259 344 671 
f 671 399 259 
f 259 399 704 
f 260 292 378 
f 494 292 260 
f 260 378 400 
f 260 398 494 
f 808 398 260 
f 260 400 808 
f 261 292 294 
f 368 292 261 
f 262 690 696 
f 265 434 646 
f 667 434 265 
f 265 603 667 
f 994 603 265 
f 265 646 688 
f 265 688 715 
f 267 594 653 
f 851 594 267 
f 267 607 647 
f 875 607 267 
f 267 647 851 
f 267 653 994 
f 269 335 728 
f 971 335 269 
f 728 403 269 
f 367 314 270 
f 270 314 977 
f 270 345 354 
f 977 345 270 
f 271 317 338 
f 271 338 370 
f 272 513 531 
f 272 531 755 
f 755 666 272 
f 346 332 274 
f 275 678 683 
f 275 683 706 
f 276 286 375 
f 375 320 276 
f 454 400 277 
f 277 400 741 
f 497 454 277 
f 277 482 497 
f 741 482 277 
f 278 324 836 
f 278 568 652 
f 836 568 278 
f 278 652 686 
f 281 313 390 
f 354 345 281 
f 665 364 282 
f 282 459 995 
f 631 564 282 
f 282 564 665 
f 742 631 282 
f 995 742 282 
f 395 351 283 
f 283 364 386 
f 283 386 633 
f 633 395 283 
f 700 295 284 
f 285 453 493 
f 287 327 346 
f 410 327 287 
f 408 347 287 
f 287 347 410 
f 288 404 470 
f 615 406 288 
f 289 481 784 
f 289 515 662 
f 784 515 289 
f 616 442 290 
f 290 442 669 
f 669 577 290 
f 494 294 292 
f 292 368 378 
f 294 438 491 
f 494 438 294 
f 295 350 391 
f 414 350 295 
f 296 648 656 
f 383 370 298 
f 299 373 680 
f 299 452 614 
f 680 452 299 
f 300 317 450 
f 301 340 427 
f 458 340 301 
f 468 458 301 
f 730 372 302 
f 302 559 580 
f 302 580 730 
f 533 419 303 
f 303 419 635 
f 774 533 303 
f 303 542 774 
f 789 575 303 
f 304 358 420 
f 613 358 304 
f 420 359 304 
f 304 359 588 
f 695 678 305 
f 640 592 306 
f 306 592 807 
f 807 631 306 
f 656 640 306 
f 307 329 499 
f 307 422 453 
f 511 343 308 
f 308 369 472 
f 634 393 309 
f 366 352 310 
f 312 343 512 
f 639 324 318 
f 620 555 318 
f 318 556 639 
f 376 328 322 
f 451 376 322 
f 323 382 663 
f 324 639 836 
f 325 351 395 
f 401 351 325 
f 325 385 691 
f 573 488 326 
f 326 488 756 
f 595 560 326 
f 326 560 647 
f 647 573 326 
f 756 595 326 
f 427 346 327 
f 328 376 381 
f 329 360 998 
f 346 340 332 
f 332 340 458 
f 332 458 629 
f 629 461 332 
f 333 366 499 
f 995 459 334 
f 335 395 633 
f 633 581 335 
f 335 581 728 
f 362 353 337 
f 823 362 337 
f 810 535 337 
f 339 458 484 
f 629 458 339 
f 340 346 427 
f 342 356 495 
f 798 356 342 
f 342 435 708 
f 891 435 342 
f 342 549 891 
f 342 708 798 
f 344 381 497 
f 497 457 344 
f 663 382 347 
f 347 408 663 
f 673 469 348 
f 348 646 673 
f 743 646 348 
f 349 790 892 
f 915 790 349 
f 892 812 349 
f 349 826 915 
f 847 391 350 
f 350 396 397 
f 624 396 350 
f 350 397 847 
f 350 414 624 
f 397 396 351 
f 401 397 351 
f 353 362 579 
f 353 579 623 
f 739 583 355 
f 736 659 355 
f 798 613 356 
f 357 412 496 
f 496 483 357 
f 632 420 358 
f 358 543 632 
f 798 543 358 
f 358 613 798 
f 359 420 605 
f 605 520 359 
f 359 520 776 
f 776 588 359 
f 361 409 433 
f 429 428 361 
f 361 428 968 
f 942 429 361 
f 361 433 942 
f 362 426 579 
f 605 426 362 
f 362 516 605 
f 823 516 362 
f 723 386 364 
f 364 665 723 
f 367 619 674 
f 637 378 368 
f 369 399 503 
f 503 473 369 
f 370 383 549 
f 371 801 805 
f 910 801 371 
f 371 805 865 
f 934 834 371 
f 371 834 957 
f 371 843 910 
f 957 843 371 
f 371 865 934 
f 372 730 861 
f 372 747 852 
f 861 747 372 
f 852 848 372 
f 373 379 490 
f 880 379 373 
f 373 490 680 
f 374 377 501 
f 374 501 741 
f 375 511 620 
f 454 381 376 
f 848 501 377 
f 637 455 378 
f 379 455 637 
f 880 455 379 
f 381 454 497 
f 891 549 383 
f 384 762 866 
f 869 762 384 
f 845 832 384 
f 384 832 933 
f 882 845 384 
f 384 866 950 
f 933 869 384 
f 950 882 384 
f 386 606 633 
f 638 606 386 
f 723 638 386 
f 387 907 908 
f 387 908 941 
f 470 404 389 
f 389 404 627 
f 390 675 999 
f 791 558 392 
f 392 645 791 
f 814 645 392 
f 392 735 857 
f 857 814 392 
f 397 401 847 
f 614 494 398 
f 671 503 399 
f 400 454 808 
f 530 523 403 
f 596 530 403 
f 728 596 403 
f 404 405 627 
f 496 412 406 
f 406 615 993 
f 408 510 663 
f 899 433 409 
f 409 853 921 
f 921 899 409 
f 413 415 465 
f 895 415 413 
f 413 465 938 
f 413 938 940 
f 413 940 966 
f 498 465 415 
f 985 498 415 
f 416 417 905 
f 901 423 417 
f 417 423 905 
f 417 467 901 
f 418 423 901 
f 953 423 418 
f 418 432 760 
f 969 432 418 
f 901 467 418 
f 418 467 969 
f 418 760 796 
f 418 796 953 
f 419 533 543 
f 419 543 798 
f 871 635 419 
f 798 708 419 
f 419 708 871 
f 420 426 605 
f 802 426 420 
f 421 474 526 
f 682 474 421 
f 421 526 589 
f 589 561 421 
f 682 472 422 
f 953 436 423 
f 423 436 970 
f 423 877 905 
f 970 877 423 
f 425 569 611 
f 715 569 425 
f 425 611 645 
f 425 645 814 
f 814 715 425 
f 670 579 426 
f 802 670 426 
f 428 429 987 
f 428 912 968 
f 975 912 428 
f 955 431 430 
f 431 486 940 
f 955 486 431 
f 938 506 431 
f 940 938 431 
f 954 781 432 
f 969 954 432 
f 862 546 433 
f 899 862 433 
f 538 528 434 
f 667 538 434 
f 435 705 758 
f 891 705 435 
f 871 708 435 
f 435 758 871 
f 960 786 436 
f 436 786 970 
f 436 796 897 
f 953 796 436 
f 436 897 960 
f 437 489 899 
f 961 489 437 
f 437 899 921 
f 438 452 491 
f 494 452 438 
f 505 446 439 
f 439 446 952 
f 952 471 439 
f 439 486 505 
f 966 486 439 
f 440 540 681 
f 733 540 440 
f 440 574 636 
f 681 574 440 
f 440 636 856 
f 440 720 758 
f 856 720 440 
f 758 733 440 
f 973 478 441 
f 441 478 989 
f 920 860 441 
f 616 610 442 
f 442 610 951 
f 997 669 442 
f 885 449 443 
f 443 449 926 
f 926 505 443 
f 487 475 444 
f 444 475 972 
f 444 479 931 
f 972 479 444 
f 489 487 444 
f 862 489 444 
f 931 862 444 
f 965 448 445 
f 445 448 979 
f 445 817 881 
f 926 479 446 
f 446 479 972 
f 446 505 926 
f 972 952 446 
f 447 448 965 
f 447 487 930 
f 930 928 447 
f 447 928 956 
f 480 478 448 
f 448 478 979 
f 449 477 479 
f 721 477 449 
f 449 479 926 
f 885 721 449 
f 944 491 452 
f 452 494 614 
f 452 680 944 
f 484 468 456 
f 497 482 457 
f 457 482 852 
f 852 753 457 
f 458 468 484 
f 465 498 945 
f 465 912 938 
f 945 912 465 
f 467 500 954 
f 467 954 969 
f 660 488 469 
f 469 488 737 
f 469 515 660 
f 984 948 471 
f 612 493 473 
f 527 526 474 
f 475 487 981 
f 931 479 477 
f 478 480 989 
f 480 821 870 
f 983 821 480 
f 481 593 784 
f 825 593 481 
f 741 501 482 
f 482 501 852 
f 485 523 571 
f 955 505 486 
f 966 940 486 
f 487 489 930 
f 488 573 651 
f 488 651 726 
f 488 660 756 
f 488 726 737 
f 489 862 899 
f 961 930 489 
f 492 509 657 
f 879 853 498 
f 985 879 498 
f 922 889 500 
f 501 848 852 
f 502 817 889 
f 984 817 502 
f 502 889 922 
f 502 948 984 
f 938 912 506 
f 506 912 975 
f 611 569 507 
f 513 528 539 
f 539 531 513 
f 514 719 763 
f 831 719 514 
f 515 541 660 
f 784 541 515 
f 516 520 605 
f 776 520 516 
f 823 776 516 
f 517 534 763 
f 788 534 517 
f 725 617 517 
f 517 617 788 
f 517 719 725 
f 763 719 517 
f 592 522 518 
f 518 522 820 
f 807 592 518 
f 518 717 807 
f 902 717 518 
f 518 820 835 
f 518 835 902 
f 519 593 825 
f 913 761 519 
f 519 825 913 
f 521 588 776 
f 776 590 521 
f 522 592 744 
f 522 744 769 
f 522 769 820 
f 524 635 871 
f 758 720 524 
f 871 758 524 
f 525 534 628 
f 763 534 525 
f 526 527 768 
f 864 589 526 
f 526 768 844 
f 526 844 864 
f 527 727 768 
f 528 538 658 
f 658 539 528 
f 951 626 529 
f 530 596 799 
f 530 799 916 
f 531 539 707 
f 707 582 531 
f 531 582 755 
f 532 585 780 
f 893 585 532 
f 632 543 533 
f 788 628 534 
f 996 578 535 
f 535 810 996 
f 967 598 536 
f 538 667 734 
f 733 626 540 
f 540 626 800 
f 800 681 540 
f 756 660 541 
f 784 772 541 
f 542 598 774 
f 544 564 631 
f 544 631 807 
f 807 717 544 
f 545 562 902 
f 915 826 545 
f 902 855 545 
f 545 855 915 
f 546 862 931 
f 772 593 547 
f 625 581 548 
f 548 581 633 
f 633 606 548 
f 550 556 714 
f 946 556 550 
f 550 714 828 
f 551 557 748 
f 873 557 551 
f 748 707 551 
f 552 600 858 
f 974 600 552 
f 858 764 552 
f 751 560 553 
f 553 560 978 
f 778 587 554 
f 554 587 782 
f 765 661 554 
f 554 661 778 
f 554 702 765 
f 782 702 554 
f 946 639 556 
f 892 748 557 
f 873 803 557 
f 557 812 892 
f 652 568 559 
f 560 595 599 
f 560 599 978 
f 851 647 560 
f 560 751 851 
f 562 717 902 
f 747 716 563 
f 852 747 563 
f 831 753 563 
f 563 753 852 
f 564 567 665 
f 797 609 565 
f 565 609 839 
f 636 574 566 
f 566 574 996 
f 816 602 566 
f 996 816 566 
f 777 665 567 
f 715 688 569 
f 599 595 570 
f 570 595 756 
f 769 744 572 
f 572 744 959 
f 824 769 572 
f 572 819 824 
f 888 819 572 
f 959 876 572 
f 572 876 990 
f 990 888 572 
f 647 604 573 
f 573 604 783 
f 702 651 573 
f 783 702 573 
f 681 578 574 
f 574 578 996 
f 575 789 925 
f 625 596 581 
f 581 596 728 
f 707 608 582 
f 582 608 785 
f 785 755 582 
f 739 709 583 
f 584 585 723 
f 780 585 584 
f 655 594 584 
f 584 594 851 
f 732 655 584 
f 584 723 732 
f 584 751 780 
f 851 751 584 
f 585 638 723 
f 837 638 585 
f 893 837 585 
f 586 734 749 
f 873 734 586 
f 586 803 873 
f 745 709 587 
f 778 745 587 
f 864 792 589 
f 590 610 618 
f 592 640 744 
f 593 772 784 
f 655 653 594 
f 596 625 924 
f 986 799 596 
f 924 894 596 
f 596 894 986 
f 967 774 598 
f 734 667 603 
f 759 734 603 
f 994 759 603 
f 647 607 604 
f 608 707 748 
f 608 748 849 
f 849 785 608 
f 797 711 609 
f 610 616 618 
f 791 645 611 
f 795 712 617 
f 617 712 809 
f 617 725 795 
f 809 788 617 
f 621 653 655 
f 811 653 621 
f 621 655 732 
f 621 732 766 
f 621 766 929 
f 929 811 621 
f 788 757 628 
f 628 757 846 
f 628 846 868 
f 925 856 636 
f 638 837 903 
f 946 836 639 
f 959 744 640 
f 837 750 641 
f 641 750 866 
f 866 822 641 
f 641 822 911 
f 903 837 641 
f 911 903 641 
f 643 650 701 
f 710 650 643 
f 643 701 917 
f 910 710 643 
f 643 801 910 
f 917 801 643 
f 644 661 765 
f 778 661 644 
f 900 838 649 
f 864 701 650 
f 650 710 792 
f 650 792 864 
f 651 702 782 
f 811 759 653 
f 653 759 994 
f 904 896 654 
f 766 723 665 
f 777 766 665 
f 666 755 887 
f 666 887 959 
f 844 722 701 
f 701 722 917 
f 864 844 701 
f 783 765 702 
f 703 716 890 
f 795 725 703 
f 890 795 703 
f 705 733 758 
f 740 714 710 
f 710 714 792 
f 910 740 710 
f 797 779 711 
f 712 795 934 
f 918 809 712 
f 712 865 918 
f 934 865 712 
f 714 740 828 
f 747 731 716 
f 716 731 890 
f 890 787 718 
f 718 795 890 
f 934 795 718 
f 718 834 934 
f 844 768 722 
f 722 768 909 
f 909 878 722 
f 722 878 917 
f 766 732 723 
f 739 737 726 
f 909 768 727 
f 727 868 909 
f 730 842 935 
f 935 861 730 
f 731 747 935 
f 731 787 890 
f 759 749 734 
f 735 833 857 
f 886 833 735 
f 738 859 976 
f 910 843 740 
f 747 861 935 
f 748 813 849 
f 892 813 748 
f 749 759 811 
f 893 752 750 
f 750 752 950 
f 750 837 893 
f 950 866 750 
f 752 882 950 
f 752 893 978 
f 872 804 754 
f 755 785 887 
f 757 788 809 
f 809 794 757 
f 757 794 846 
f 914 796 760 
f 913 770 761 
f 762 793 866 
f 867 793 762 
f 869 867 762 
f 824 820 769 
f 913 806 770 
f 770 806 933 
f 933 832 770 
f 933 806 771 
f 771 806 986 
f 771 867 869 
f 986 867 771 
f 771 869 933 
f 849 830 785 
f 785 830 854 
f 785 854 887 
f 789 856 925 
f 790 850 892 
f 915 850 790 
f 793 822 866 
f 911 822 793 
f 793 867 936 
f 936 911 793 
f 794 809 918 
f 909 846 794 
f 794 878 909 
f 919 878 794 
f 794 918 919 
f 914 897 796 
f 986 916 799 
f 917 805 801 
f 918 865 805 
f 805 917 919 
f 919 918 805 
f 806 913 916 
f 806 916 986 
f 810 816 996 
f 813 841 849 
f 850 841 813 
f 892 850 813 
f 984 881 817 
f 840 827 818 
f 818 827 855 
f 818 835 883 
f 902 835 818 
f 883 840 818 
f 818 855 902 
f 883 824 819 
f 819 840 883 
f 888 840 819 
f 820 824 883 
f 883 835 820 
f 982 870 821 
f 821 906 982 
f 988 906 821 
f 821 983 988 
f 827 840 850 
f 827 850 915 
f 915 855 827 
f 849 841 830 
f 830 841 990 
f 990 854 830 
f 832 845 937 
f 875 857 833 
f 946 842 836 
f 863 850 840 
f 888 863 840 
f 841 850 863 
f 841 863 888 
f 841 888 990 
f 845 882 937 
f 909 868 846 
f 853 879 921 
f 854 876 887 
f 990 876 854 
f 867 894 936 
f 986 894 867 
f 959 887 876 
f 919 917 878 
f 881 984 992 
f 894 924 936 
f 898 903 911 
f 898 911 936 
f 936 924 898 
f 988 960 906 
f 928 930 961 
