v 22.510655762459457 129.72703073070238 -4.7141783412352929
v 33.515913844685628 109.83226752400159 6.6102476339558578
v 15.0380278375456 127.79152529069938 -0.85245708950997567
v 26.043285919771769 107.89676208399857 10.471968885681173
v 19.168832369313591 140.13961550675648 -5.9619608752682787
v 23.570935354280451 132.18171067226024 -1.4321907403055576
v 34.576193436506621 112.28694746555942 9.8922352348855771
v 39.987112851003616 102.50535400562828 15.46007888828955
v 16.098307429366596 130.24620523225721 2.4295305114197561
v 27.103565511592763 110.35144202555639 13.753956486610905
v 14.552706961232566 102.74109899160786 23.500603782147653
v 17.854284096656212 96.772670552479042 26.897931277072296
v -10.29409019452714 132.50834475787079 9.2639536685811255
v 7.2226131517392353 100.84251169587142 27.288665937214315
v 26.802849777625326 157.81332115028624 17.668363307742823
v 31.204952762592185 149.85541631578999 22.198133442705544
v 42.197530156666787 129.95919993598326 33.497293304037029
v 47.063994556307222 121.21230099520362 38.530180459378286
v 23.73232483767833 147.91991087578697 26.059854694430861
v 34.737582919904497 128.02514766908618 37.384280669622001
v 39.26123352982286 119.84824436728914 42.039489027602542
v 40.148502334401499 118.24355420915504 42.952124323025984
v 22.186724369544304 120.41480463513763 47.130927965158762
v 25.48830150496795 114.4463761960088 50.5282554600834
v -2.6600727862154052 150.18205040140055 32.894277851592243
v 14.856630560050974 118.51621733940119 50.918990120225423
v 39.827471357385235 118.89166867385163 42.655749754059414
v 47.66154871490933 120.272633431942 39.215514288314992
v 40.188920789995478 118.33712799193897 43.07723554004032
v 32.26523211555601 152.31009570436359 25.480120304277193
v 43.270490197782181 132.41533249766277 36.804546279468333
v 24.792604190642155 150.37459026436056 29.34184155600251
v 35.797862272868329 130.47982705765978 40.666267531193654
v 38.397608491216076 128.37328893525549 25.349387728267256
v 19.644109108422487 150.97613688876442 25.094767262249778
v 25.802868923381951 133.94943328677937 3.7727022443599019
v 12.679949284475548 106.29664034307444 31.566958316793297
v 9.2412686418010956 148.41335686488679 18.221121490448692
v 6.724366578891054 147.63695143814738 19.303097272662892
v 33.099289859979834 113.93220818197976 42.228484487038145
v 27.347048282525936 151.61238264376851 22.130390159394736
v 2.1547639388135096 115.29845465259999 18.113928010488252
v 35.165721234571073 141.8059894546964 32.399369325640592
v 16.004403724371212 136.57044861892382 37.044982847510632
v 9.4546893545032606 137.08785284737971 38.773955466344503
v 13.034775099482149 142.3778292460575 33.660867651885582
v 18.770251329281866 148.63768494169287 27.126062156923251
v 5.2156615896595948 138.96390479353752 5.5324636140224364
v 21.017138242450635 117.70706638548373 43.51059310541838
v 29.581987075150998 107.60514806979086 15.007298480317427
v 37.353089498318987 133.40345116663451 37.977184506551865
v 36.650487885479194 108.53714018480771 12.026687127120363
v 9.8935814748705244 119.12265027029981 12.753613252234683
v 6.4885744715682101 117.94821336119529 14.732026015638699
v 40.881350269083875 122.36617038601715 39.631963411372837
v 31.652271352602071 114.75503386869406 45.080261203294754
v 20.630068166300372 146.0268720268605 28.47792108994496
v 23.589932988491242 105.60428330704984 18.439589101053485
v 17.275790336479822 101.73723354007586 28.266769082412868
v -3.7197152375362208 147.72884551983427 29.614262454256508
v 41.072567803955302 105.01831805872206 18.819994258193837
v 27.439380334120983 148.88025156233965 24.144406445285117
v 18.774341800002528 128.75927801070088 -2.783317715372629
v 30.854919932955283 111.32309041523723 11.815323218998246
v 30.675063816677387 108.90640443793406 13.680926965139548
v 38.414209863287539 103.18104883571426 18.175712513344315
v 26.49555606136726 117.54710567997657 47.883739095684945
v 24.834290328792271 110.08232473239553 9.2279107298355143
v 32.149315522422704 102.78415222048464 23.56676853996391
v 30.672390920095182 111.96972143508749 41.139284912611998
v 38.118644580457513 139.69055138471717 30.481821748056298
v -0.67580953197077065 142.00553012026384 16.601419876428739
v 37.660115372507462 113.68066538472887 37.354290744949274
v 21.183337920061845 154.71533153839329 17.686943370312715
v 39.591714396787047 134.201000157506 36.657467210038305
v -2.4110210912224161 147.25707537309526 31.910199980433546
v 40.286210116751278 115.17952802334381 37.43541334382062
v 6.7576791841698594 138.2306512530115 38.790524852217295
v 34.577525518963661 122.47581548181941 15.001501891741166
v 9.6261839235802764 116.87262236378484 14.52285044708537
v -7.2719861576940481 133.5174788298059 15.617660190664889
v -2.6250482764900198 143.02920001976631 20.294105562338849
v 32.591181840145808 110.91107239069675 9.404162469489739
v 25.855975502815262 113.35166149855019 6.4526268382145524
v 38.021135313274684 112.10522341618666 16.467293175838162
v 5.7489111401267472 126.89210854275295 8.2816207306148986
v 12.701726746492659 107.59238236224931 20.470186655844053
v 19.273981802079621 109.78089224304834 16.710111751696367
v 13.180706244544361 146.08862359144433 30.838327963081255
v 10.070089916564021 141.13079008792033 35.551330980169034
v 17.786451791968656 122.56473802668366 7.6293181189983841
v 25.067193094223786 120.01497100793264 46.49940863266378
v 28.565254135890047 122.52638823462118 3.392796791360368
v -6.4680953687963374 131.38409513289778 8.8687811737056155
v 8.7791451860731975 140.53063663654436 4.821849438705982
v 33.315517305042746 103.37313941465625 16.966367688328951
v 17.013988995610873 122.52014979589796 47.22739305070882
v 6.7105913843850846 146.72571473901831 32.452068332048626
v -4.621714114924572 128.49285056437219 10.434722399333904
v -4.6873944206557425 139.85035664871452 16.713731187897057
v 23.084687793014862 139.14106614995839 1.1149437212691815
v 38.220379849759382 126.76065440171514 37.204873456942536
v 39.859164139482928 116.18407267242965 39.615208520283801
v 14.182700157376679 116.95598411958659 48.832907126146608
v 22.990089555040143 135.95989825758954 -0.6625189044741262
v 7.967825626228155 102.56777183238404 29.595395332175379
v 16.949810924418095 141.59475445710447 32.981756430193691
v -3.1663979674782503 144.92226509040751 29.278293718861754
v 33.386743419407175 146.00135527391302 29.836268097036076
v 15.529566433242028 120.6992548341822 49.068843422128161
v 19.94388193216427 119.83387998824793 48.289989060095003
v 21.670219841697893 125.94184862803502 -1.6116353472600657
v 24.770162897134835 128.05430593729997 -1.1802909153207573
v 22.736942486768044 125.60344251360091 43.072463405073201
v 29.372725049070731 112.01571511733117 6.3156924426251173
v 17.270553718669518 125.90128164472611 2.5201991779117634
v 24.870542916928006 112.14879458142319 10.333781780196997
v 10.846609679150715 119.34028299518462 43.572418836309168
v 16.961601798308358 140.80031812048276 -2.656215911855849
v 21.536503829420365 139.2849030963273 -1.8087798701333
v 23.638676087549769 117.81483118185037 48.606444785540603
v 10.726887574465787 134.45567254012337 1.0164574965505402
v 25.254924456699534 130.76422241877935 1.1159651530900234
v 37.753620368762867 101.92685111574531 16.614308092647711
v 34.316513063514606 107.49880829131085 13.557295695469797
v 43.820389448763358 115.47540561940765 34.520639472004376
v 36.811437819100206 110.85792636709897 13.501317966115735
v 36.314151164299098 104.33205563666642 15.28043118492832
v 17.080441891398493 133.31617365951715 -0.18386359271934083
v 13.601411111126311 133.4294961377467 0.8553161166847616
v 10.075986903404262 132.17941944278141 2.9292037592131557
v 10.882141013392786 129.58415133432797 4.60983284402122
v 27.839920766219681 115.05547542036516 49.312980436571905
v 12.279087753502868 126.73401900259107 6.2902196146897502
v 22.610929298628246 113.44272279634738 12.893302896420106
v 22.022583448761122 110.31981403584723 15.419074958725696
v 19.385053582926414 104.81561807662743 20.387880599686635
v 16.438469237971283 106.41796464370502 20.141370000175201
v 39.515363884485907 105.15852108178881 15.876995258852771
v 10.621675738076593 104.38773069515581 23.539006842188257
v 12.277030426754056 103.25131410290193 26.608489027225957
v 13.060742508377647 104.92889762804147 28.794045568979868
v 21.311603834252612 99.69252808041837 23.597174972220955
v -7.7093644629933209 131.23503595432413 13.627344101307598
v -6.0093306842403358 136.22789430020009 11.634464386569325
v 41.723879165278738 132.45492077094258 33.831616664975215
v -3.2124951003047961 124.59650602522136 12.893632549316907
v 6.7021860963962521 104.21664844022786 27.972739723275158
v 7.4321589239123291 106.02076696995674 30.289503668893534
v 25.608362922780437 155.06279344355221 20.111442380630908
v 31.835851106987541 146.18982912428748 21.581751469826379
v 40.36916361776268 134.38393371393337 32.176999521691279
v 40.001913108464358 128.5782916975657 28.556547084746285
v 18.798204657502104 117.90433942723763 46.013557695812011
v 29.429291036284212 149.87567199754628 18.77228948437509
v 43.997162498689818 124.06271265240386 34.024337993861181
v 41.947653914312255 125.53625301822444 36.916499696166994
v 45.051123900750888 119.84349085610073 33.949121447775326
v 25.956226072850445 146.01832922582213 29.410139192127406
v 34.514032597996199 119.63603665271947 13.455334792363777
v 36.969096588058349 137.49755296557709 27.158250738507114
v 30.585870631963779 130.70359645896346 36.722255405306527
v 40.579475922434099 130.99534223004247 30.885593093029463
v 36.388720100268266 123.60926005222039 40.15361584294282
v 22.584527101576644 114.28386890135241 44.827854521656135
v 27.351916794286691 120.70161383873709 45.247748116105804
v 28.033835908710394 112.2941401913023 44.27341403111221
v 38.881044172874688 129.86328873608184 27.03165251935291
v 14.641889042840685 152.51221853947388 20.173596712044322
v 28.174193990042479 151.98265654947289 17.39963909652063
v -0.63987957740408419 149.45140403134553 29.647421521782643
v 23.825527714820304 115.02566133828739 47.601042547491971
v 2.3648029305055189 148.31875445022763 32.664545729163621
v 16.428004969333522 115.86585602169211 44.735745874611453
v 19.877374469430983 122.67617571238256 46.185651495074197
v 13.288620761927113 119.20382970720841 48.229444280826925
v 27.05034146580261 154.14916886227692 16.310789043716998
v 7.8886567240897776 102.83907048115174 25.580217919980154
v 19.784387421177929 109.34119746024635 36.932160491903844
v 24.050552333003637 155.68076631333577 16.596615403177108
v 20.580650188275168 142.4610215521524 31.160874098644712
v 30.789955711168812 146.33928348505464 19.632797383698517
v 37.556121810452829 103.95290374972983 20.365611699167765
v -3.2439732135775436 138.99615115608916 26.157996855681635
v 34.914550795181199 134.40945073193052 38.01256729307481
v 14.816729071642705 108.76780837751845 18.907783293008567
v 10.080930583537299 117.98230303581924 41.410167330859416
v 25.88165922218111 119.78625017420759 1.6317409600000694
v 22.993222075966138 122.49855847082016 0.53627740260946766
v 13.16437936933626 113.01256123137203 16.266835771798434
v 0.85746623662232579 131.28079493904539 6.5794445068285192
v 8.5061467293997755 111.04633681664339 19.242313385043662
v 30.003575920465551 118.29544517479201 4.0554624932530565
v 16.271436246975469 128.39413962014254 43.073979591926168
v 19.820468863643665 124.56081257332868 0.018856709602598443
v 20.63963654007236 121.86295454512822 1.7720111748320697
v 18.100206223688083 124.07477324692762 0.93812598234064737
v 22.854930567573039 118.7194266693445 3.4074603074405374
v 24.603514399307095 115.995349720899 4.8799671785403653
v 18.261963095349962 123.92044315699185 3.4458252113365511
v 19.291924773161785 122.41262230123579 4.6831296708977241
v 20.665328348135574 119.83417645250768 6.0484115221456918
v 21.929631396474104 117.70159626790982 7.4260473920727534
v 23.414917856137627 115.00000670649717 8.9461083699555992
v 26.798841692040494 124.77754124171135 1.1029826160434197
v 6.185879781485367 107.30361472405107 28.520856718484907
v 6.9850322274974292 108.91522514986293 30.87500116290736
v 18.96491239009335 136.63843620879311 -3.2774635955271378
v 38.964094879986618 108.00152250861188 16.235181798021937
v 13.036899680002904 136.2865959664579 -1.099208540562195
v 28.34299074606529 108.49241481104687 9.2835223191414258
v 26.187632705931946 151.7511328764314 13.439501205152665
v 31.102934250577885 105.01115672305545 16.456051448097114
v 38.097567099161843 131.07547978470808 39.477820964653901
v 24.286465622765039 134.44050690042081 1.0845118436833907
v 27.092309016935673 150.9702429914089 28.153394989462761
v 24.985102281914514 122.32641234850824 44.797144589908626
v 32.77505132822408 148.87186221614357 24.743394334235127
v 26.628776635092894 107.1169729550673 16.326481532928419
v 29.983881498528245 102.43873504274323 18.741550848806405
v 20.095762946397294 147.40067703829391 5.8934735518919403
v 7.9380087115985081 134.48783699052549 1.8933766873209628
v -1.4680965486831781 120.51833490791731 20.333276000863137
v 39.634404940578662 126.50727015054686 26.807398239376578
v 4.5757266641688865 109.22412004982102 26.367690785405497
v 14.826447925085123 123.67016469088111 7.758801555248656
v 16.431241394507296 124.9600033206753 6.2756543380747551
v 4.4288504423177315 119.11113148288196 31.038875441494106
v 19.120720529693223 124.78243577818681 5.5395978233690002
v 16.48726039149852 120.1626620056568 9.8456074043811128
v 19.113643680389313 120.74752320163169 8.5596952800726136
v -7.2009230832310784 134.50109383348072 9.75882807993246
v 20.056981220958537 118.77994102251159 9.7265439802029015
v 1.8502630105557749 137.99166665592898 7.0949827583139928
v -1.135456807713112 137.62607170510006 9.3542753918664818
v 11.023159489862753 140.44332934714237 2.4876989519448856
v 21.470525497864305 120.53457415836769 7.9575504256043033
v 13.830295169868812 141.18283030127475 1.0588356883986449
v -3.2224678796816555 144.9546464422358 24.257313733512223
v 18.913054420650489 115.14688361499324 12.813354967178368
v 21.00980658345615 116.5424631146318 11.092189253346525
v 32.448033763950683 111.76272850734608 5.5113975357291878
v 19.504471678943155 112.22784682730469 14.805511610408187
v 29.605566564542912 126.53316669304992 7.4140630081345904
v 22.902065041135668 108.03976186955133 16.840257029375131
v 25.925285857324006 104.36817468915035 18.609645820116825
v 26.241489750861795 156.51370243809146 15.930730459098388
v 41.685401580808595 110.83093690954107 22.919159674029135
v 6.2302119413072035 133.15294769167446 3.4434946850752226
v 15.015254952797219 109.43230703416816 34.80621342906521
v 35.617050946866321 114.49068043078329 13.010864792856497
v 7.6459622380580843 128.31670359786602 6.6032690303079491
v 9.1848353450034992 125.5024067766128 8.2110027723638623
v 10.555754691521392 122.55983081839244 9.9689388396341805
v 12.484739183755268 120.08828830197699 11.194288669888991
v 24.021862312622773 126.99514600366719 -3.1591446852606637
v 14.650294854055474 117.41803044568971 12.491835898659055
v 43.38016966435621 123.01022774350744 38.342987827217819
v 16.449433295432698 113.79568175560557 14.619850305735561
v 38.424918839743341 107.84407439374513 26.357313457807319
v 39.672334331814099 124.63519946524418 38.325485214471072
v 22.681762950519918 102.97932134141138 20.69625687136169
v 24.276164586651014 100.46038692755248 22.065142683901236
v 2.4224443633618797 133.43938805537624 4.4593970111892176
v 4.5882611798280539 130.30543284778466 6.1036706258016693
v 16.55715394875067 114.56018839670008 42.316438605931026
v 31.005324504750558 113.29207016120735 43.138838338902261
v 30.010005096113371 116.1700765836358 3.002662623014384
v 29.021044835083895 133.36378223913471 35.238169415207956
v 12.407235714919199 116.0196780899724 14.262341462311129
v 3.462921070705324 126.31022927434368 9.4553350935803042
v 15.95135030887041 110.883768176991 16.958653498193062
v 16.063571302918739 147.26904465017441 29.024122790234575
v 18.920243159222146 99.442571143071405 24.556677439532177
v 2.241633532241373 128.61592624351155 8.1253965382024766
v 5.3731597891851326 123.1135402358933 11.229096009594253
v -5.0549004881965054 123.03719580128514 14.655087211841307
v 25.431745423953814 139.2762669487376 31.975635241148332
v 6.7688811790099894 120.48578888880239 12.743554387254875
v 9.1725285855725378 114.8996201175313 16.145065757596949
v 9.5772060226125415 112.69987000966481 17.659578255160184
v 12.204174958385574 110.63821082480968 18.352875175538525
v -2.9865097391164035 131.05870013756439 7.9873903904560706
v -1.3392972086627459 126.06265371540238 11.191908624212278
v 0.6462186887622714 122.75316964373671 13.025712682656023
v 3.2267033967254228 120.14920842767211 14.139627949055324
v 4.5751348078368714 115.93727014876643 16.854216541533162
v 9.3374540765735752 108.42093925477388 20.93735102547252
v 1.0378803380594306 117.45268873975797 16.86354354417119
v 3.8731840829664534 113.45091374851401 18.940596517303891
v 5.3900232324582298 111.00158627010781 20.282478929053816
v 20.923231571501471 126.43338096290407 43.037669673591822
v 7.2887056234625351 105.76319886639263 23.587010089502073
v 10.55541058175608 137.90862998273812 -1.5106976381162447
v 31.709584300959534 101.44043999255604 21.633471341365365
v 28.530851345482347 104.69168331843963 17.525931166692445
v 26.909020831607709 101.79444280500823 20.21679811784756
v 20.718647307158925 106.61156059295361 18.613819576740749
v 30.494153722408072 120.37727893772323 6.0481764810987073
v 31.75341905161546 117.09885979398629 6.8417664314942463
v 34.909195281548669 102.89552803463604 21.080338442996226
v 10.859336740388128 139.11409344559542 0.31170151742605157
v 28.745023548561115 100.6725811454219 23.165503629685109
v 2.2493936238703505 137.00038059667159 4.9656088827726599
v -1.513944437775816 136.17284401492546 7.1690638159431579
v -3.9419869467602489 135.7659020154494 8.8137581932435989
v 9.0915748980950255 144.0463422362692 33.686836467450192
v 17.254521389450453 134.09311345295527 38.493980001373515
v 19.608053056071789 139.2143882835386 33.903319088336261
v 13.810171184276481 105.36351600736788 21.779116804292496
v 13.874990743083959 140.06063017590643 -0.95608251876578976
v -5.8540046609401344 138.47806767085996 20.847787768648224
v 28.383096714497174 127.25299293146215 5.4093003041837591
v 29.744212192842305 124.12387883774451 6.4748076035247841
v 31.348313123524484 122.23172690428292 8.6304730453920904
v 30.076087568958407 151.89612318080225 21.036529577920067
v 34.268762169693403 117.27220726043632 11.795966111408035
v 28.293886389997915 110.82107576429641 41.432811717587029
v 7.94812834583729 139.06639721085705 3.0570675505754537
v 27.839114298945127 101.40159732148571 25.326617079617009
v 31.155602746641698 149.37934134234544 28.030581286534691
v 41.792353960658815 135.08743434253515 35.283542021913931
v 25.285792002092776 100.80486662071704 26.759639370508626
v 29.470565195233789 118.07598312713357 46.527071468440695
v 32.486743028988357 120.01064774283361 9.7201820192295507
v 3.4523565692325775 141.67339536076256 12.006107420235603
v 22.29785708813959 99.78077659721427 27.86423984813289
v -0.38739125865263802 143.42726997153309 18.818844424396747
v 1.360516285429167 142.52173085809741 15.52934790207342
v 29.012364546657807 109.65082246117298 10.66810591758942
v -5.791862211421094 128.6522876277117 16.043328276938716
v 17.728874079276618 129.58105442228796 -0.32361783640087083
v -4.182016814112405 125.37191312909289 17.514328541616312
v -2.9291372249539336 123.03829114172177 18.769096723257555
v -0.13680231652392294 117.5972685400112 21.445351764461886
v 1.6547426090134927 115.11562801809697 23.668277591947863
v 3.1895824367098484 112.05814508015587 25.105852117849228
v 37.885651758953713 107.87694679032317 14.085901562325597
v 33.008850201952434 125.33442494364974 13.398778025527536
v 22.187093688721085 141.71816128420645 0.66970052395836888
v 33.809223878906465 125.04862235395944 39.910413653575034
v 24.483074175322891 137.1894956037913 2.8427602276048276
v 16.24994285695098 139.38358609023621 -4.4535306717855043
v 27.756667428647056 131.75681428041733 6.4544554265204077
v 29.406366647497215 129.06347707908924 8.2967995994398471
v 30.828036414588652 125.81334045463768 9.4188257120854235
v 32.647859750835856 122.94949412847409 11.504909096179846
v -7.8144900977076617 133.15059264237007 7.982540424688306
v 15.193913543371941 126.91537179123387 44.528091441357233
v 36.589186884463331 116.19403474332218 15.745723422943495
v 34.092778163315749 144.14020025357149 31.000180375497166
v 20.758084486792342 97.524791694902461 25.397298863678547
v 39.554571539033518 110.65237267213776 18.70639778215785
v 18.596027673862736 143.63809279213922 0.74082837401882884
v 10.621544007094235 136.42191228820431 -0.42010967206358529
v 16.218116358836706 142.9381018493371 1.8219757709328661
v 41.969379445569579 126.91928143051157 31.532194405210554
v 8.3227606206322164 107.36719184457316 32.687695349383802
v 14.792901442565221 107.3385277410617 31.34394650588963
v 33.337555909765193 130.55604750274756 35.943650915995768
v 38.88349526848102 105.85800106962972 22.422525898533063
v 13.5611474686308 142.28364374811252 3.2543079205823631
v 35.108112999464431 104.82560608413949 24.277790130336189
v 31.961756819046997 104.10628098197168 26.071758253077491
v 8.2544793684439153 141.63810435800528 7.2773284950731423
v 10.738704762187279 142.13794256721789 5.7412348496443819
v 28.961460877854208 103.22645885480452 27.441821363195899
v 4.9621394193329831 140.61760025051836 8.68405438999892
v 1.6588447462002875 139.36552503437593 9.6946018987562255
v 17.64934483315696 104.53365300050737 30.391189336173284
v 22.67064416540391 101.75091105973519 30.963093661922741
v 18.201453436533054 111.1884036967446 34.794927263660057
v 23.272683596733369 109.31694346953418 43.670035647764891
v 25.674851126710934 102.67075956037324 29.659548134077831
v 13.975514684215629 148.92710623835458 14.522860979889728
v 28.166938132819823 144.97744077444113 13.874564997454515
v 15.043652319162245 147.56548871064115 11.092736687764424
v -3.6059183225982103 137.90431705397049 12.243931075461404
v 21.314724572678951 113.98634796569296 42.221603430499776
v -5.9935934581056962 132.225503799498 17.443873898681794
v -4.5369728232796511 129.6243018549128 18.958779593882358
v -3.1313905712460475 126.91479274419912 20.320639557606032
v -0.40703692130657743 121.94107985660321 23.0995643197517
v 1.1179687586268336 119.18419065563931 24.668767684925719
v 2.5418088937362597 117.00141803530148 26.329959380316041
v 3.9141381230460297 114.24589062067706 27.60440854410118
v 5.4172372931007455 111.29300644393368 29.032988466024669
v -6.0722284687526979 138.21520263900206 15.186894793078018
v -7.0549728346800258 136.08443697043106 17.32415862323009
v 38.899211559683167 140.31751459695781 32.306494440590143
v -1.8900065698571389 124.2589719987904 21.391676275251235
v 22.579857006730961 144.4638164273801 2.8058476113074917
v 24.123266547595087 141.5953673032212 4.3547492436523854
v 25.660060381844204 138.97042830600088 6.0128970990908286
v 26.590110355935412 136.23127186742207 6.439718485884196
v 28.155347959123379 134.8714162805237 8.7869698139280192
v 29.888925211380609 131.70304387575811 10.55353330081504
v 31.473431380604701 128.00966666026673 11.768502753278558
v 36.049862259614571 120.27182164182196 16.745900862279701
v 37.502459623476469 117.83388655467428 18.334851125989339
v 38.720389978043613 114.73818264236182 19.140033171127904
v 40.233638040346847 112.70185231839474 21.047631060208179
v 17.348757560441161 144.95696481478925 4.2699411232716145
v 12.570322000305801 152.18069937109991 21.604365443275704
v 37.203602222614613 135.04648443327875 26.38354875207753
v 37.701383145079959 130.80548496740656 25.221179533031467
v 20.358117603618645 146.40225432489504 3.8844830542810342
v 41.284955478324491 109.29307216488843 26.123484935807515
v 36.398592182440183 129.44160958083674 38.258527076115755
v 14.022031886707932 143.99871607069997 5.8194539012145121
v 35.117181744774271 106.82641985857678 27.784008676645172
v 32.339625425351819 116.22095601617008 46.987613071401199
v 32.07749514549208 105.86484836240658 29.048734882012436
v 15.372280401067604 104.63851406864563 26.037509979663181
v 12.062303453060956 144.98500606922681 9.4566645861027627
v 36.981221052943674 117.43556516967638 44.579661913655514
v 29.367377256847554 105.08548776916399 30.313289250946255
v -8.4460730344877426 133.79302826549957 13.483848241822896
v 8.6381203244709539 143.3484817161706 9.9092927878424231
v 6.4083478674347667 143.07100093613747 11.588742764628702
v 18.49930602053302 106.43794551601017 32.990344369050803
v 23.495141789575914 103.48988035195936 33.21685674062023
v 26.530031736631567 104.71573496582052 32.421084851640259
v -0.055650778750916174 140.65800432991909 13.631404997206609
v -2.9999360048751846 139.69572698781155 14.802178593133281
v 18.33122196478968 115.91575075181473 42.973824305771373
v -5.4637369126832596 134.75308048930793 19.736001857611861
v -3.9354221640487417 132.14725793864574 21.387323465396406
v -2.4587945647161717 129.14162794306407 22.73824319427527
v -1.1006970383260573 126.22287482654433 23.903344109676471
v 0.65251750212575033 123.57876545862626 25.970668845818437
v 2.0976416888182818 120.74225081220229 27.345388945378545
v 3.5185557350399641 118.50456287875427 28.973394801490457
v 5.0856907372816256 115.66070112237678 30.580529670948746
v 6.7683564476637947 112.33915635766844 32.171806309997919
v 12.121005125639327 107.58557375590971 34.374548726122697
v 8.37875518061335 109.89765353745126 34.064322127525273
v 25.060724758580726 109.20609086434683 15.270553587651136
v 42.735155342841765 117.76899825103155 39.604673209363014
v 24.603911578963672 144.21094869437641 6.5957586098413969
v 26.219957507160704 141.42825929088366 8.3281983735090819
v 27.599156454427426 138.68362924288871 9.6214025830143388
v 29.275607916982413 135.88579644204628 11.463140228999039
v 30.907006805914229 133.23260451179115 13.290193250128452
v 32.067357958449094 130.51613994416692 14.174032412626522
v 33.644681014287066 128.1377986864679 16.034201855979219
v 34.981912600767131 125.04517956496572 17.07178398594079
v 36.399050027061065 122.84267538172158 18.710116083069618
v 37.953549081039711 120.19863014653228 20.392948343628721
v 39.394392760701948 116.84759294219212 21.501505305246347
v 41.143222298725298 114.55179741419828 23.734920703710817
v 13.85563151146196 121.38491976162067 9.7816250778881617
v 28.189587395423327 148.96546270391363 29.298332918729702
v 35.119354552788657 118.76619998127832 44.185942105450799
v 26.68891923026262 113.53797164500855 47.765589923521901
v 21.906445190142342 127.75659570916729 -3.045244716701184
v 18.379685027521862 126.79323577851254 -1.1853680607920154
v 42.206288468579316 111.25846832604527 28.680928815046819
v 15.513497530806379 146.2112200608039 8.2569530471661938
v 18.871397642953315 148.04433177148087 8.2141046119141325
v 33.570424068261552 107.88025141897872 31.138544867517318
v 36.439621414763856 109.4384682770397 31.087690027497558
v 30.466769202775833 107.08756213148988 32.762128893941977
v 24.151271669263487 111.42350609535312 13.905901832700691
v 9.6243049455960321 145.55538929974554 12.828000331562684
v 4.4740197056749587 143.20387120095907 13.701980393109798
v 6.9182348889509875 144.67840786435892 13.917120556754936
v 24.261305091462795 105.45523229443839 35.92501931859465
v 20.549901172295172 105.94388284442105 36.710725170427615
v 27.317952406186627 106.7711604450981 35.266344554256641
v 4.1202516642036144 144.16323205130362 15.731183956748433
v -2.445614998291088 141.83446534444744 18.020818328900262
v -4.794049673392248 141.12295251459173 19.053078193182799
v 15.622925408689849 137.47793675418916 -2.8256838744876802
v -4.4401093913465886 136.5923961230223 22.638643525645143
v -3.0662444004068519 133.95559328012814 23.97556955245614
v -1.6691935738413051 131.20537226538448 25.30051585239551
v -0.15947120306437057 128.06947698948053 26.650186333819928
v 1.3951098939694511 125.56903147906206 28.405149933630302
v 2.7004736821461854 123.07507120536451 29.681115726502142
v 5.8659766848571024 117.79038315227764 33.157825406930073
v 7.2449671600922656 114.50211957644399 34.178155575111504
v 13.298747387958644 109.78294865691183 37.090350467243383
v 9.061554737736973 111.90046046976055 36.38938656515905
v 41.912778235160147 116.50918655541822 26.205099644554494
v 3.9668371219407064 122.76681388262784 31.977094255314814
v 33.579003456325921 115.18446799741731 9.4148670303349284
v 24.315079045677713 148.44604211400838 8.1594935107135012
v 25.431960158571989 146.27776436993099 9.2339686873124176
v 26.989409215056135 144.13912213041468 11.175818741600974
v 28.343932493685813 141.14112231711397 12.294284639970193
v 29.862756662721456 138.34567786419734 13.832202466139046
v 31.532029600653232 135.41977733734348 15.595861399474986
v 33.084411469574292 132.33296563290912 17.052681012003546
v 34.647526083281292 130.03651780161078 18.926401607148541
v 35.914220307068625 126.94123458631287 19.826155085183444
v 37.559690347129902 124.2101982271452 21.641420658229144
v 39.195352689091429 121.42656744795056 23.41134736464975
v 40.548202118302584 118.33026486304875 24.477304656133462
v 42.908077529139774 114.34886024197451 27.048293068868148
v 15.990075203925663 117.34531287040393 47.760444331283352
v 10.036468214619489 103.12791191481617 28.569110089283324
v 38.141012397332304 116.70837594438699 42.206032360287615
v 35.208421470251189 115.72245850977542 43.323910310737446
v 32.971795786894937 113.13739127047586 7.2138886132331805
v 42.774401079028138 113.07374729946872 31.31791187255687
v 17.482378394001515 148.54188177144121 10.438072061016936
v 38.623395801490631 121.16007863152126 41.263484589933242
v 39.887246392626437 112.06188047059871 32.346046235886377
v 12.464714308940234 147.00689680432384 12.617655011485637
v 34.393909405609399 109.98818128723869 34.041482022384223
v 30.559447370512249 108.81906775573452 35.7139736323969
v 7.6911154645472397 146.68170583235369 16.685418797497807
v 24.854410150978733 107.16835101161628 38.358239071519847
v 21.158153899484113 108.36020271735097 39.09879152019851
v 28.444507225064132 109.4218054873066 38.828196521199246
v 2.2868774606792392 144.16212554236932 17.510942381767162
v 4.7836865136103981 146.10716048588003 18.501542845307998
v 1.7321779301292928 145.06124452834763 19.629581407271868
v -4.4236523572237481 142.87435625371103 21.769988055026044
v -4.6422615910795777 139.9412599132765 23.925928543650418
v -2.8744617162333803 136.41768155739277 25.580684342373623
v -1.1375042103249129 133.59489647231737 27.526998119309106
v 0.48170583811801393 130.82114125393198 29.270038455756684
v 1.9228395835414851 127.88170702111778 30.58545326441865
v 5.3565644398909402 121.73451073344533 34.148894407749069
v 6.7844449313522492 119.20308349329372 35.643157733220868
v 8.0201944162050367 116.21546547529988 36.536993656952703
v 13.539663823586586 111.45935445638796 39.801335459845923
v 9.8271548915416655 113.78817698456295 38.816990750218899
v 20.291234487895824 111.4976545430824 38.993757753959507
v 16.63986241564735 112.97431747755962 39.450001533748392
v 7.2573065257788265 109.76074962364343 20.607286511650372
v 22.317117179564288 133.08661320525022 37.611243263470747
v 16.186340816273066 130.91450342460115 41.216427928423542
v 4.1813231387485921 126.41206513992424 34.219145732621435
v 12.336904511064416 118.48631828106956 12.440201287766564
v 26.656925797214363 147.87378517377726 12.404269853175084
v 29.762990303768206 142.12394518580143 15.532827562250054
v 31.189620742783255 139.60200444785914 17.029426633682618
v 6.4642930336190432 113.30195733465382 18.214920521874191
v 32.559824143197773 136.93571146726254 18.344486756650813
v 33.863569127909145 134.04245735483397 19.417192898750848
v 8.1429070595281505 122.86057269722642 10.523501582132143
v 35.51716985450058 131.80655353426954 21.496353572134975
v 36.907376650022925 128.5462528886263 22.552402991578571
v 38.527082201601516 126.03204685983904 24.426488928160499
v 39.975423767362969 123.89611126689124 26.158566992181196
v 22.060566060784964 130.72717421327008 39.458807672527605
v 41.435426026853982 120.08041763375155 27.071309689186659
v 43.389026000820259 116.88850182903484 29.251828366382369
v 14.463183459629114 143.96201397086475 32.014554698349016
v 19.726293147712411 150.39964931444916 11.521127785784252
v 22.589943372019125 152.2253231845759 11.945532481760988
v 10.050358739731477 143.19052237545108 8.2593538015829306
v 16.732281509413347 149.84950468067947 13.464261469609974
v 37.76564677988025 112.33759212206003 34.89222114733375
v 41.253033986678929 114.16455463248768 34.712732163481604
v 34.872011825137243 111.52533099963857 36.277320649460918
v 10.886253481503813 147.94362125810522 15.797266945495458
v 31.830262267417702 110.90864328328472 38.149943850082082
v 25.442968533896046 109.09700171810957 41.174524178025585
v 22.01010310545545 110.3409972877822 41.740136513494051
v 5.2934314255761894 148.26966519549316 21.805255095342062
v -0.1286611313478403 145.02022792041564 21.365916517039985
v 2.3987981717097639 146.68525243706199 21.834807971776065
v -3.8617943008389908 142.20710448342504 26.571820231118156
v -0.42996780627412079 146.27519428977234 23.86345736654058
v 34.357320863116755 133.08396682633452 39.183948403641736
v -1.7220591728066275 137.74188148812158 28.474334833417551
v -0.089523593136316748 135.08655745843848 30.30251879503394
v 1.3876104688648354 132.57776760675674 31.903436218070304
v 2.6061332354530862 129.7557361269314 32.846929995634149
v 6.1109597537376938 123.8890351156203 36.688541500768125
v 7.4543336225507808 121.08984566147397 37.88507702687027
v 8.8344629076818642 118.15733674223345 39.085916074469239
v 14.561117940862712 113.18252938891715 41.835945524593626
v 10.588985844101154 115.54651589714227 41.172456923952204
v 28.660557710547014 147.4262501701939 16.057094185456577
v 30.21824907399386 144.36709330830303 17.538048625221627
v 32.986686335935104 139.24260004395947 20.326705884402923
v 34.59655014372548 136.32777088654035 21.980954116764135
v 36.154316751708066 133.96192099810517 23.809541543383094
v 41.825451232901472 122.67255249289691 29.125213596332863
v 44.572260952679812 117.85344946664173 32.025082893782887
v 43.518369347546553 120.60753896768237 31.366106116084385
v 27.507129542228853 150.16654813472005 15.198596715991162
v 32.418492400707187 142.66606106146548 20.943069780374671
v 42.525445591592103 124.06004726498836 31.175154686165683
v 17.897851517136914 151.60016280975498 15.407099917593317
v 21.048614349445451 153.20720699580676 15.168395140224687
v 42.512875018047048 116.11138981482414 36.908600573655377
v 14.989115925394358 151.03009686584932 17.2323631988545
v 11.888282676747945 150.4768635651009 19.273881656875922
v 35.848564170082931 114.60212554218877 40.733607297749359
v 8.8503901857531897 149.69184857711747 20.847038974415995
v -9.0993750450254041 131.74023909698252 11.190811828012887
v 6.8772721025451542 149.98361128532085 23.277115676312491
v 2.2602709891748383 148.24790224880959 24.714695698214605
v -2.1237415885333526 146.79051520006598 26.414810093444455
v -2.2594830644587631 141.86588225330854 29.501352807215731
v -0.5784563580339217 139.20896468832186 31.422570892278255
v 1.0190858124000677 136.43119034111137 33.121668379170735
v 2.4303099926937115 134.03015996724892 34.649056163858077
v 3.5476390654829899 131.48084420950732 35.53342085271882
v 5.02423821730744 129.0290450503602 37.161867090958765
v 6.715337047630392 126.37617152667748 39.104602135126129
v 7.8821141848615444 123.54885588153711 39.94531703773572
v 9.5728753229734451 120.41809017449623 41.64787773776662
v 27.006238601851031 110.02567446240025 8.5686108146375375
v 11.739556077760659 116.98214114088739 44.118408479003008
v 21.003773267854044 134.01501836136367 -1.9740191254913171
v 35.427818178473522 140.64553703024939 25.753576644308598
v 25.950762050841909 112.43542331015198 12.567720111445723
v 34.059535127347836 141.23913528805184 23.403392131166871
v 35.725893122978491 138.06968243333776 25.039341397597838
v 38.737848686484213 132.75211555044376 28.202449977113737
v 17.664041870184818 153.07164310131481 18.219417958304803
v 37.204014892704635 111.09282101486986 33.251208825894423
v 10.101091935918042 152.4082825771508 24.403821078963926
v 4.3934810339680528 150.20499472102122 26.079830165567515
v 2.1041953548628136 150.14005198839752 28.190503102749183
v -1.4053106838715337 144.74125310500813 32.595363879096901
v 0.27376864280057589 141.60814628949055 34.274146307060683
v 1.5560363035119416 138.50699179724191 35.201092480870983
v 2.9856519447967109 135.88940218938959 36.655528591389142
v 4.4408892709156795 133.02290261553128 38.034789603349743
v 6.0316665975983543 130.13618123174155 39.666192213979912
v 7.7568845269666422 127.77911200792065 41.823207396437468
v 19.952996608669306 137.37936890911732 35.164338063679175
v 9.0384080467700336 124.80507701475895 42.812426266335478
v 10.52170488438739 121.98530233008414 44.269402511172231
v 12.094186290145405 119.22118679422734 45.926851972281796
v -0.11458472106210138 143.89033680400655 34.666502944339371
v 1.5557562415707196 140.82141657679279 36.360546688140715
v 4.2248301382041475 135.68284517067707 38.949874754943359
v 5.6374860827681132 133.25510007331383 40.466643582869551
v 7.1176018850212692 130.63437276548817 42.017227461052599
v 9.0239742337126838 127.22587397440887 43.997806274792779
v 10.270095357524399 124.91289666687986 45.249843651683825
v 11.566151042985014 122.55634245791659 46.576666092329098
v 33.373811444006478 145.17911980680856 24.051212976224555
v 38.212300053138215 136.92542349781641 29.27716007941638
v 14.359346632537301 128.2781194622855 4.4632997141976567
v 24.009770220962981 152.69390042811111 22.399637919195218
v 35.372430829806632 143.65037642836782 27.152433164738451
v 36.735965504688721 140.95205895001487 28.438538195671477
v 26.328326952402705 127.91915072225862 1.7670959712778433
v 18.843257131248279 154.7115924501577 19.954502432056948
v 20.251704014112846 153.76209971879453 22.814786815864554
v 27.87699074313344 155.8715420479939 18.773655865167012
v 32.508971531935252 109.6040649462135 12.566666759395437
v 15.263082748618572 153.86036833127054 21.938341686102955
v 17.3743744394876 152.93670251149936 24.361672548779953
v 24.497715028326034 141.8618689564338 30.343547412114013
v 22.282632676103553 139.24985146271447 33.012745052779586
v 27.280989474117156 136.23019010696083 33.656454509236355
v 19.067186222535149 144.9531850514326 2.5933044036010386
v -0.30170541529992434 148.18120287304328 27.087287766348933
v 25.134830950102302 133.94425653803347 36.059499347361609
v 29.553995206880714 128.66083159516003 38.583447808740416
v 12.697752503675511 153.26510071848637 23.385603847265418
v 14.375746088517174 152.4197953385688 25.717017740141941
v -2.28543946322851 144.31286899875789 22.219219275267356
v 22.529659955567013 111.99289290520827 43.573440244934062
v 27.158701679012719 128.13872648512896 39.74776719371156
v 32.443287067293035 123.3739235779545 41.604242239980039
v 33.926742372263064 120.75515452135843 43.083639203023083
v 32.651615878660344 118.69362806673317 45.037448606050745
v 14.198964725403323 149.82494529314965 27.714881482072986
v 28.104093969261534 114.58119997059646 4.8067468985266792
v 27.159698663887099 117.1222995983141 3.2112919933115656
v 34.114814431345749 131.27603028150102 37.808543239595842
v 13.302362317315358 130.78976965048875 2.926243804096508
v 10.83122249969774 150.91198641083733 27.989839963006094
v 10.826226169646148 151.3784419388009 21.889898952631757
v 25.627238955868741 110.5937156499887 43.624875813769904
v 17.301471512771204 144.44124733630389 30.739186251881129
v 9.7388695694748577 145.79223103772225 32.171927773198163
v 22.419948798413991 136.64919085768548 34.913482257905969
v 22.587280936289297 143.98220800777432 29.374878469421738
v 19.721603648620928 135.06385079513117 36.970925358605669
v 33.560440183409426 149.9686823889441 26.812891219533121
v 24.898158364001162 130.58720410684973 38.646781632086196
v 32.353571019918199 141.76144472148582 33.341179265437411
v 22.389369555785329 117.00110040775094 45.812098693667757
v -0.99595883979230138 120.80002290811815 15.017041788428415
v 29.069004307602533 122.87490389369353 43.067567925662303
v 25.710633731400762 124.80923554587807 42.705789190458489
v 33.894189646689256 112.59354504430897 39.104223397138057
v 6.7431850327914784 151.40430931468251 25.903307392842613
v 37.469599296487431 108.61296307366138 28.636492676278635
v 7.6438243581084286 150.72891876789552 29.156482296002153
v 10.247981583758589 147.84445221464617 30.472546814003998
v 11.888300821774255 144.85690073040658 32.177088808315659
v 17.37957145159347 138.27356452888111 35.3269182401893
v 19.573256041711858 131.64073071893725 39.57908698793463
v 23.355628796225076 127.6280157195762 41.358361954785678
v 45.336696746906242 122.51816986143811 35.842276057679832
v 5.9685815048748267 108.26176018509707 22.144753668781306
v -1.6081058984448795 128.58195344358413 9.3945032531534096
v 3.9705190321637325 118.02161502806332 15.490610598173761
v 10.346579846381282 106.26191346920994 22.226131589001756
v 4.9380657388899358 149.37816157323621 31.040870047572071
v 18.085357513576692 107.97502110501748 18.444764781278888
v 13.96808841950542 139.62098956932243 35.42126004000437
v 11.360576645554232 138.39809803139559 37.178274248884904
v 13.039699776133673 135.81951653847921 38.564401448005775
v 14.532011853909431 133.1217883074805 40.099992665439224
v 19.191683115893198 128.84582369463925 41.792738311614919
v 21.891968919374495 123.88382420572415 44.631585930449809
v 16.242035564396868 124.83953185068921 45.742057110874072
v 6.2366560918199863 142.6083606931596 35.684649193782079
v 7.8332560924069377 139.93776551859401 37.166255647361034
v 11.256255613745108 135.0522772231302 39.71439860376146
v 12.11786576694073 132.06713810828975 41.668706244839242
v 40.446325250563262 118.01317071891881 42.25795730234293
v 39.832225083353478 117.73481925516562 42.36574151776783
v 18.376567699958432 125.71769350294366 44.395675834660693
v 1.2783910797865836 146.15849562112552 34.631233332788767
v 2.9283456764858293 143.60364180197928 36.009037208671273
v 4.5062747347035526 145.43928839691196 34.126345496981266
v 4.5041548403985736 140.87046248023074 37.544168590413349
v 38.343611780365151 119.30588435541927 42.740669568829105
v 2.7747288358297979 138.62506520302063 37.618503515889621
v 39.593952961279435 117.22621297621706 41.703778138403578
v 39.175062555880004 119.14285827139113 42.593992162025003
v 7.5029056575146882 135.70388295015732 40.439604528043887
v 39.215219421573629 117.57836202686164 42.690493257507597
v 37.189315362265312 118.70057171497795 43.566305147439593
v 9.462068022335707 132.40560721872515 42.273539368469542
v 10.570449534417648 129.71605106821153 43.927051171990627
v 12.277505243497947 127.20785146009177 45.251514108963335
v 12.958467950028027 129.41978443521361 43.377162613886291
v 14.152877461545426 124.72657616400848 46.501463318933766
v 39.544905004625107 118.08721484272431 43.264052691372939
v 39.692615456404965 119.25070118682497 42.383232243284553
v 40.081535454014869 119.12830576861474 42.371446752318363
v 40.64475435338214 118.45519466815195 42.841668858992143
v 30.690406395078085 147.26175149730824 29.764665691119177
v 31.568734882372272 144.53788625430258 31.518159093680861
v 40.475909210588654 119.45897449200791 41.97394239987436
v 39.930877083631373 118.59379755272801 42.760474696471022
v 36.713851024387012 139.13458077870396 33.897243013413707
v 39.711919923573987 118.45880217458127 42.93217743388297
v 38.402659058502266 136.51629871921153 35.309934444175873
v 35.709014493204222 136.40019613115106 36.266979819176747
v 39.915271450208408 119.61878397228297 42.011032553700929
v 40.960975309892589 119.0929176399583 42.152683188700621
v 40.028857376649654 118.61974987249785 42.855815253028922
v 39.713251832861346 118.94404089630102 42.568825069915974
v 29.816458733505272 139.2275624721172 33.47633541902254
v 31.364282586387557 136.42830461221848 35.068457824891112
v 33.671769255061136 139.07909261239701 34.921519553807144
v 32.946338248711527 133.48618415766379 36.655217400916406
v 43.3589701371438 119.15821099220817 41.439010399446062
v 31.27429299379213 113.88455922806929 4.3036166398689488
v 30.642695572358804 109.08806753809519 8.0950757526016659
v 16.568128860096465 125.0254840676277 0.72201900500579796
v 40.408748972095054 118.79150878896678 42.581893214703356
v 20.516692935805004 143.26008139340144 -1.7897956264687203
v 20.69771708195363 131.43751068635385 0.052637378340246954
v 38.140554535318202 105.8220757829248 13.57596990522163
v 10.409319360757998 101.66790903469561 25.641832826556705
v 16.399016322465769 99.403431917050767 25.400458699894241
v 19.202144663147628 99.893136439123992 31.070096525871854
v 39.188644678229863 118.55854302675738 43.026628185087844
v 11.52266916458818 143.52961520273536 7.4242576369290951
v -8.9462296280357272 135.62881064451574 13.436118917380696
v 8.6094809361235338 104.05328417341585 31.5815740603074
v 25.515623832350947 154.83323199975274 13.683886359799448
v 39.336992572491539 129.21645312318279 35.007387536542502
v 44.676764799460123 125.51499096472386 36.067289100428198
v 46.214226924313898 116.92190236462744 34.735476939740259
v 25.2624258602292 145.15386965271531 27.634330788946631
v 30.91941918962744 126.21514076383008 39.971526496952904
v 17.701039494784165 119.25295534135822 49.449050155031294
v 24.140440699619361 111.32590975637959 46.356089471925785
v -1.2048050120249592 147.55128903682882 34.391750428770294
v 13.508769754702382 115.395750899772 46.746824132067779
v 29.392013843229194 151.5658957184572 26.964948422923012
v 27.437862813733325 126.22178066666604 3.0633779550016556
v 40.397271925455357 131.67113251175638 38.289374398114163
v 26.322705213193018 147.60854904128891 30.91631765051828
v 42.141623757225162 118.32770357757751 41.163010779168189
v 25.335065197090003 124.64355021665908 -1.7966563635688395
v 27.025380940561849 121.56553304563326 -0.068519811852560508
v 28.517693018337603 118.86780481463454 1.4670714055809171
v 17.21494044495633 123.85620996028803 1.3875890314344694
v 18.060440937872229 122.32775583662897 2.2576102224392791
v 18.707252522732087 121.15848172928929 2.9231802488679435
v 20.199564600507848 118.46075349829057 4.458771466301414
v 21.045065093423752 116.93229937463153 5.3287926573062308
v 22.537377171199513 114.23457114363279 6.8643838747397048
v 23.625294737812784 112.2678873807925 7.9838525739898785
v 21.438040479466189 136.03745291493846 -3.6269425527785302
v 13.637646036707876 138.70696807080748 -3.1035421205137688
v 35.520127886522033 101.34834822586234 17.768537297005896
v 32.555567134123628 100.5804893787282 19.30056958532564
v 7.4019318397916347 137.09183897944774 0.11896410833668014
v 18.16696883154065 126.50658109590353 4.5581859906119782
v 20.287395887256501 122.67337756216003 6.7401083997763536
v 22.830081123660698 118.0768364988356 9.3565350680772621
v 24.401607118367437 115.2359092525805 10.973637516940979
v 29.453284219898549 99.776958744359007 20.903774238241034
v 4.4373710873932186 136.32398013231364 1.6509963966564243
v 26.62644562932681 99.044771684459988 22.3646341619651
v 1.3758434445901138 135.53100563031697 3.2331394499108193
v 23.661884876928394 98.276912837325852 23.896666450284844
v -1.4917504174035869 134.78826243804539 4.7150609732958983
v 41.059265310850279 118.56255826515985 42.627456965985814
v -4.4563111698019178 134.02040359091131 6.2470932616155892
v -6.5472125659722629 125.73492403228386 13.119495994407831
v -3.5625884104207444 120.3394675702864 16.190678429274794
v -1.943911639464698 117.4133034743833 17.856299092915346
v -0.36820283100554718 114.56481474356143 19.477705662986704
v 0.91434782290653871 112.24628287729021 20.797452081575216
v 2.4066599006822997 109.54855464629149 22.33304329900869
v 3.9637518760796553 106.75338629356128 23.945149667845797
v 5.417065437798378 104.1064918732438 25.430754811602384
v 21.33974227521696 145.16554361294405 0.75786986454026462
v 42.23760115348523 107.71551605856801 22.426236458196854
v 16.38630127728446 106.98609929462879 29.176308432920095
v 20.056494663034705 101.87106360472279 33.714650026772489
v 40.367326067794146 120.6186924000031 41.105006310603358
v -8.0701600998801482 137.65702123610149 16.14790300823622
v 22.162791614628915 147.07100583248663 3.3055353555492459
v 17.378404097121098 109.282941477202 32.247261772651044
v 9.6071720356772268 106.36306392286772 34.669825351336662
v 20.89501630161832 103.8123461330966 36.310208445676132
v -7.300130949211816 139.43973508360097 18.531449899398666
v 10.216572397054561 107.77390202160159 36.556162168031847
v 43.572158122896901 110.80822016063847 26.562558423468424
v 22.985840954040871 148.97646805202925 5.8532008465582273
v 5.567846824868516 126.40990652808165 36.901058003182911
v 40.740663142853329 117.7040197595379 41.428798312685657
v 21.704312827527069 105.63444878714952 38.724792970129059
v -6.5797302331088439 141.10755289443401 20.76137702068764
v 11.039621736466517 109.67936424114419 39.103827659040824
v 44.340967330843839 112.62827241335881 28.958644635531197
v 23.80889029345283 150.88193027157183 8.4008663375672139
v 19.02450277594501 113.09386591628721 37.342592754669013
v 22.49434202079545 107.5149853172944 41.260758489907786
v -5.6540322703879013 143.25065952268616 23.626780881416632
v 11.862671075878474 111.58482646068677 41.651493150049838
v 24.545176519980689 152.5865250269978 10.679965440144066
v 45.226020398591643 114.6340805905227 31.676584182021479
v 19.847552115356965 114.99932813582981 39.890258245678019
v -4.8309829309759493 145.15612174222875 26.174446372425614
v 12.685720415290429 113.49028868022938 44.199158641058787
v 28.951131708641547 153.92976294570153 19.878948422591201
v 22.558837731836682 156.71406818538543 19.861593276434082
v 19.684879036475646 155.96967642051919 21.346804032539591
v 16.766638511097256 155.21381509986173 22.854898851087619
v 26.914236253914588 142.17463214509891 29.337466163755305
v 28.247050015780722 139.75841319071785 30.70551322381359
v 30.188543863609901 136.24867629211576 32.703313111536275
v 31.866493069990064 133.21536240848059 34.429925194216224
v 13.665155474641546 154.41049164398308 24.45769014139325
v 34.730526084615633 116.84022962098632 45.752038119802151
v 10.70059472224313 153.64263279684897 25.98972242971298
v 38.913111285382271 123.05057875927055 39.755937103555794
v 7.7360339698448257 152.87477394971489 27.521754718032671
v 30.221671995169174 115.67237920664844 48.082133747886658
v 4.7623436722948895 152.10455043455727 29.058504992967613
v 1.9980507133877303 151.38856348679437 30.487042446279865
v 42.092967551564044 120.97538959725456 40.280737534396621
v -0.23092142768956236 145.790750287398 35.393878000596317
v 0.9805212225765807 143.60076396581712 36.640454183874077
v 42.327915381523653 119.88453155321625 41.062028681891356
v 2.4728333003523453 140.90303573481839 38.176045401307576
v 4.1123657459070664 137.97220200634615 39.838420960443251
v 5.4287951796549319 135.56100581448061 41.21652844121995
v 6.646772375691226 133.35759437191439 42.471034553808352
v 8.4420816114553823 130.11212281082348 44.318410271041472
v 9.7956780938032537 127.6651577971428 45.711262946562442
v 11.30216241026883 124.94180969146817 47.261437417450438
v 12.919017844782665 122.0189381178273 48.925183923341905
v 34.848625355231754 147.6399647188716 28.138435564940249
v 36.535623705394791 144.5902890795528 29.874361592316433
v 37.941326890905323 142.04913129529237 31.320829775273094
v 39.965173608583051 138.39052093704146 33.403370881373078
v 27.58916843374827 145.31909924422919 32.219510077658434
v 28.801979501520151 143.12663916491894 33.467494364465537
v 30.799641446520305 139.51536434829271 35.523091302818713
v 38.732235739883947 117.87672319257999 43.684025718507286
v 33.017050158727791 135.55877428227652 37.765966646300221
v 31.910557656122656 137.50710477206172 36.666225637905285
v 44.788330442582513 119.52843344603559 40.700342406960829
v 44.12235634241155 120.52133390171512 39.991163594154806
v 21.396779036398247 148.71938944945481 26.216426745534051
v 32.921951868752224 117.18458348905592 9.145902089831452
v 13.627379642284165 137.30567616388996 37.26300981878623
v 32.768008427077319 106.1155399090915 15.092136660150056
v 39.771668176263432 110.36347370826566 29.474604245205821
v 6.4525302635539994 124.94430204336577 9.5111221906307026
v 12.809813938825467 148.27165678101377 29.325403831903131
v 27.707727371018045 131.29172407354977 37.212193728919047
v 24.584350947128204 136.85240728748673 34.062259444019688
v 18.98359405261397 134.37540214386013 -1.5909195820235027
v 45.268578917046355 118.46276328016226 38.361458822963655
v 46.068924823511324 120.5288084350028 36.262101312784168
v 28.53634604395581 125.38193299023625 41.364579362194675
v 17.936269580230579 117.96370759123451 11.022142751807426
v 8.0900925956234797 130.84324553984229 4.5701247920974772
v 22.370560524769736 154.57617529986558 21.521401272661656
v 30.676920200472644 120.45920956902522 44.354871995893021
v 28.904072541029269 114.02726853591611 46.472465828191609
v 16.235103252482524 135.7086832233432 -1.7001855702548276
v 7.456576783826538 148.51937249494375 30.869549004784041
v 10.789816138209023 105.57300809273707 32.132542023134818
v 15.417975091732369 111.34824916475232 37.780772670797859
v 43.44348782213924 127.73782203690652 34.794924259162457
v 22.014481885252732 151.2053552718649 24.157556028836545
v 16.770821663398365 150.36552192813349 26.479706173652978
v 12.121208460096817 124.10638123882509 8.3064995979813379
v 29.115233772504524 106.05845327514996 16.314899303706362
v 40.313976281539269 107.75278950221036 18.722605602957145
v -2.1244472342640819 132.95306346151196 6.2920509770744601
v 36.684590857223235 120.19616866243176 42.610767492607025
v 46.937705748978956 118.63047373241288 37.034008596744286
v 45.870379677883676 123.36364597996375 37.298734779903242
v 40.873604383875545 125.39635052067231 28.648516464653238
v 32.144062515167995 128.82057584104848 37.627223445280784
v 5.1911472636945355 106.49634967188345 26.191394982674904
v 26.829711441302834 129.54591762736382 3.5526406747546098
v 11.109509164124283 104.66930323382188 30.234229607013869
v 25.532044447051231 150.28575642798475 11.436453674282173
v 23.88594576822732 146.47483198889955 6.3411226922642072
v 19.900436876604171 141.83337149626408 -3.6973535582603709
v -9.6201599112814336 134.06857770119328 11.350036292980919
v 41.156803611180024 130.78789830968475 35.999582616516562
v 30.298483302910689 150.7106560171236 24.581540932814281
v 23.534173232295782 144.84103181656926 4.841559668636922
v 41.167919120748152 119.78970675604825 41.489920987564616
v 24.662841079974346 149.83681444938145 24.32554219064356
v 18.893464375312075 108.71483186228576 34.89424269805636
v 18.512963995595801 102.5411167257158 31.063671812558262
v 19.293409942130928 104.20315168132672 33.406891139427458
v 38.341071798362726 110.77334838267078 31.584948910300927
v 32.291593137696509 147.63136932313833 23.18613954401053
v 41.929609831705086 118.78798853838073 42.177678391931288
v 37.037287746198018 128.62080039613448 36.195834103082262
v 40.904165137210946 109.46517263598906 20.722902385437788
v 31.43024924447565 141.59882422695239 18.49586670982411
v 30.176512450434728 102.4355912148155 24.871617749462949
v -8.5785901787693746 129.41190049277179 11.031587363044871
v 40.218417093161719 107.46247219684389 23.94396406992044
v 28.529955666671682 125.03123923984646 4.5799307457270935
v -0.42658016058369341 150.76055332842361 31.740048573132185
v 3.3549509883724546 120.65669716059163 29.735466950069902
v 35.788790958982695 121.75408248177462 41.734962400673517
v 42.357995835480565 112.48495056417561 25.049660168415429
v 21.144888469384508 149.56768040203266 8.6809103471639446
v 36.56756230697637 125.66806213038439 38.55600989667105
v 9.4419019222067497 150.95783044078701 22.496276659775191
v 17.936466859774416 146.63444087214856 6.6457875006976188
v 22.476301416671564 134.19158500551953 -2.54300872647487
v 18.129567538221874 103.15239903921447 22.037440957269141
v 24.680843754731004 157.26369466783584 18.764978292088458
v 17.247445155368929 142.14522849780769 -0.57126311801907192
v 1.9268422327851873 124.75634542507861 11.113769317413025
v 0.81218355012753918 126.89203647405543 9.8765348668411264
v 3.0029707376790498 125.44884481213224 31.456204922945595
v 5.913112395333977 145.35629323738991 16.084824374857689
v 16.206787774142573 145.43693185155155 6.2229321898546104
f 1 6 113 
f 762 6 1 
f 456 63 1 
f 1 63 762 
f 1 113 256 
f 1 256 456 
f 2 7 83 
f 505 7 2 
f 2 83 758 
f 2 115 242 
f 758 115 2 
f 2 242 505 
f 116 9 3 
f 3 9 332 
f 332 63 3 
f 3 63 457 
f 759 116 3 
f 3 457 759 
f 330 10 4 
f 4 10 614 
f 117 68 4 
f 4 68 610 
f 614 117 4 
f 4 211 330 
f 610 211 4 
f 343 119 5 
f 5 119 930 
f 5 120 796 
f 930 120 5 
f 5 208 343 
f 796 208 5 
f 6 105 215 
f 958 105 6 
f 123 113 6 
f 215 123 6 
f 762 612 6 
f 6 612 958 
f 127 52 7 
f 7 52 652 
f 7 64 83 
f 652 64 7 
f 251 127 7 
f 487 251 7 
f 505 487 7 
f 8 61 66 
f 139 61 8 
f 8 66 124 
f 8 124 128 
f 8 128 763 
f 763 139 8 
f 9 116 801 
f 130 129 9 
f 9 129 762 
f 674 130 9 
f 762 332 9 
f 9 644 674 
f 801 644 9 
f 65 50 10 
f 10 50 219 
f 10 64 65 
f 330 64 10 
f 10 219 438 
f 10 438 464 
f 10 464 614 
f 11 140 310 
f 764 140 11 
f 414 141 11 
f 11 141 764 
f 11 310 959 
f 765 414 11 
f 959 765 11 
f 12 59 765 
f 766 59 12 
f 12 274 352 
f 765 274 12 
f 352 327 12 
f 12 327 766 
f 348 94 13 
f 13 94 947 
f 13 232 348 
f 931 232 13 
f 13 597 931 
f 947 597 13 
f 14 106 148 
f 502 106 14 
f 14 148 820 
f 14 178 764 
f 820 178 14 
f 764 502 14 
f 15 150 651 
f 960 150 15 
f 15 177 247 
f 651 177 15 
f 247 180 15 
f 15 180 960 
f 16 30 218 
f 933 30 16 
f 16 41 62 
f 316 41 16 
f 16 62 933 
f 16 151 182 
f 941 151 16 
f 182 155 16 
f 16 155 316 
f 16 218 941 
f 146 31 17 
f 17 31 932 
f 163 146 17 
f 357 163 17 
f 913 357 17 
f 17 772 913 
f 932 772 17 
f 890 28 18 
f 18 28 921 
f 18 258 890 
f 922 258 18 
f 902 699 18 
f 18 699 922 
f 921 902 18 
f 159 32 19 
f 19 32 216 
f 19 57 681 
f 891 57 19 
f 216 62 19 
f 19 62 936 
f 775 159 19 
f 19 681 775 
f 914 891 19 
f 936 914 19 
f 409 33 20 
f 20 33 673 
f 20 102 943 
f 955 102 20 
f 776 341 20 
f 20 341 955 
f 673 360 20 
f 20 360 924 
f 943 409 20 
f 924 776 20 
f 21 508 724 
f 825 508 21 
f 21 724 727 
f 21 727 737 
f 21 737 748 
f 21 748 825 
f 739 29 22 
f 22 29 750 
f 718 717 22 
f 22 717 739 
f 729 718 22 
f 736 729 22 
f 745 736 22 
f 22 743 745 
f 750 743 22 
f 154 49 23 
f 23 49 686 
f 121 92 23 
f 23 92 217 
f 23 111 154 
f 175 111 23 
f 686 121 23 
f 711 175 23 
f 23 217 711 
f 24 67 121 
f 133 67 24 
f 24 121 172 
f 455 133 24 
f 24 172 778 
f 778 455 24 
f 25 60 76 
f 171 60 25 
f 25 76 779 
f 950 171 25 
f 25 779 950 
f 176 104 26 
f 26 104 501 
f 777 110 26 
f 26 110 878 
f 878 176 26 
f 26 501 777 
f 738 737 27 
f 27 737 751 
f 760 738 27 
f 27 743 750 
f 751 743 27 
f 27 750 760 
f 890 889 28 
f 28 889 901 
f 28 901 921 
f 29 739 760 
f 760 750 29 
f 683 218 30 
f 30 321 683 
f 781 321 30 
f 933 781 30 
f 322 75 31 
f 31 75 783 
f 31 146 322 
f 31 783 932 
f 32 159 784 
f 453 216 32 
f 784 453 32 
f 214 51 33 
f 33 51 569 
f 409 214 33 
f 33 569 673 
f 168 153 34 
f 34 153 224 
f 406 168 34 
f 34 224 547 
f 546 406 34 
f 547 546 34 
f 35 47 891 
f 915 47 35 
f 35 650 654 
f 914 650 35 
f 35 654 915 
f 35 891 914 
f 36 123 215 
f 926 123 36 
f 36 215 342 
f 36 342 395 
f 395 344 36 
f 36 344 926 
f 37 142 359 
f 927 142 37 
f 37 359 436 
f 37 436 911 
f 37 911 927 
f 513 39 38 
f 38 39 596 
f 560 513 38 
f 594 560 38 
f 596 594 38 
f 39 513 518 
f 39 518 564 
f 39 564 596 
f 40 56 267 
f 504 56 40 
f 267 70 40 
f 40 70 690 
f 595 504 40 
f 690 595 40 
f 936 62 41 
f 41 150 645 
f 851 150 41 
f 41 316 851 
f 41 645 936 
f 289 287 42 
f 42 287 290 
f 816 289 42 
f 42 290 816 
f 43 351 685 
f 880 351 43 
f 43 685 754 
f 754 744 43 
f 43 744 881 
f 881 880 43 
f 44 308 682 
f 708 308 44 
f 44 682 696 
f 44 696 706 
f 44 706 893 
f 893 708 44 
f 714 78 45 
f 45 78 728 
f 45 707 714 
f 715 707 45 
f 728 715 45 
f 307 90 46 
f 46 90 706 
f 46 107 552 
f 706 107 46 
f 695 307 46 
f 46 552 695 
f 273 57 47 
f 47 57 891 
f 915 273 47 
f 48 95 319 
f 365 95 48 
f 304 234 48 
f 48 234 368 
f 806 304 48 
f 48 319 806 
f 368 365 48 
f 49 154 426 
f 379 165 49 
f 49 165 686 
f 848 379 49 
f 49 426 848 
f 50 65 894 
f 894 213 50 
f 50 213 917 
f 917 219 50 
f 51 75 746 
f 783 75 51 
f 51 185 569 
f 747 185 51 
f 51 214 783 
f 51 746 747 
f 52 125 652 
f 763 125 52 
f 52 127 338 
f 52 338 763 
f 80 54 53 
f 53 54 279 
f 270 80 53 
f 53 254 255 
f 544 254 53 
f 53 255 537 
f 537 270 53 
f 53 279 544 
f 54 80 280 
f 286 279 54 
f 54 280 287 
f 702 286 54 
f 54 287 702 
f 55 258 261 
f 867 258 55 
f 55 261 862 
f 55 508 825 
f 862 508 55 
f 55 825 867 
f 56 167 267 
f 908 167 56 
f 860 412 56 
f 56 412 864 
f 56 504 860 
f 56 864 908 
f 678 181 57 
f 57 181 681 
f 57 273 678 
f 245 219 58 
f 58 219 246 
f 298 245 58 
f 58 246 262 
f 58 262 298 
f 59 370 414 
f 938 370 59 
f 59 414 765 
f 59 766 938 
f 108 76 60 
f 849 108 60 
f 60 171 659 
f 659 600 60 
f 60 600 849 
f 183 66 61 
f 61 139 209 
f 361 183 61 
f 61 209 918 
f 822 361 61 
f 918 822 61 
f 62 216 781 
f 62 781 933 
f 456 112 63 
f 63 112 457 
f 63 332 762 
f 652 65 64 
f 758 83 64 
f 64 330 758 
f 652 125 65 
f 65 125 894 
f 798 124 66 
f 66 183 798 
f 67 92 121 
f 166 92 67 
f 67 133 864 
f 324 166 67 
f 864 324 67 
f 68 117 795 
f 795 610 68 
f 69 295 301 
f 303 295 69 
f 69 301 363 
f 946 303 69 
f 69 363 364 
f 69 364 946 
f 267 167 70 
f 70 167 318 
f 70 318 516 
f 70 516 561 
f 70 561 690 
f 881 390 71 
f 71 390 882 
f 71 643 647 
f 882 643 71 
f 71 647 881 
f 472 328 72 
f 72 328 517 
f 72 329 424 
f 517 329 72 
f 72 424 425 
f 72 425 472 
f 73 77 103 
f 558 77 73 
f 73 103 595 
f 73 557 558 
f 559 557 73 
f 690 559 73 
f 73 595 690 
f 74 180 591 
f 852 180 74 
f 74 591 618 
f 74 618 649 
f 74 649 852 
f 75 322 746 
f 76 108 623 
f 76 623 779 
f 592 103 77 
f 77 558 592 
f 78 714 723 
f 78 723 872 
f 872 728 78 
f 79 160 347 
f 399 160 79 
f 347 339 79 
f 79 339 447 
f 448 399 79 
f 79 447 448 
f 80 270 280 
f 81 144 380 
f 418 144 81 
f 81 380 389 
f 81 389 769 
f 769 418 81 
f 82 328 472 
f 565 328 82 
f 82 472 473 
f 82 473 520 
f 82 520 664 
f 664 565 82 
f 84 115 610 
f 671 115 84 
f 84 199 671 
f 794 199 84 
f 84 610 795 
f 795 794 84 
f 209 127 85 
f 85 127 251 
f 353 209 85 
f 85 251 350 
f 85 350 401 
f 401 353 85 
f 86 252 253 
f 265 252 86 
f 86 253 896 
f 275 265 86 
f 86 271 275 
f 896 271 86 
f 186 138 87 
f 87 138 310 
f 282 186 87 
f 288 282 87 
f 703 288 87 
f 87 310 703 
f 243 136 88 
f 88 136 245 
f 272 243 88 
f 88 245 298 
f 705 272 88 
f 88 298 705 
f 678 273 89 
f 89 273 897 
f 89 552 678 
f 695 552 89 
f 89 694 695 
f 897 694 89 
f 90 307 713 
f 707 706 90 
f 714 707 90 
f 90 713 714 
f 91 226 227 
f 230 226 91 
f 91 227 229 
f 91 229 802 
f 231 230 91 
f 802 231 91 
f 92 166 217 
f 299 193 93 
f 93 193 788 
f 93 205 782 
f 787 205 93 
f 314 299 93 
f 949 314 93 
f 93 782 949 
f 788 787 93 
f 283 99 94 
f 94 99 947 
f 812 283 94 
f 94 348 812 
f 95 236 319 
f 366 236 95 
f 95 365 366 
f 96 128 798 
f 894 128 96 
f 220 213 96 
f 96 213 894 
f 799 220 96 
f 96 798 799 
f 97 110 777 
f 878 110 97 
f 97 111 175 
f 777 111 97 
f 97 175 719 
f 719 712 97 
f 97 712 735 
f 97 735 878 
f 704 173 98 
f 98 173 722 
f 98 307 679 
f 722 307 98 
f 98 679 694 
f 98 694 910 
f 910 704 98 
f 284 147 99 
f 99 147 813 
f 99 283 701 
f 701 284 99 
f 99 813 947 
f 425 388 100 
f 100 388 831 
f 472 425 100 
f 473 472 100 
f 831 473 100 
f 101 105 120 
f 342 105 101 
f 101 120 340 
f 101 340 393 
f 393 342 101 
f 261 157 102 
f 102 157 772 
f 955 261 102 
f 102 772 943 
f 592 439 103 
f 103 439 836 
f 103 503 595 
f 726 503 103 
f 836 726 103 
f 104 176 780 
f 780 501 104 
f 796 120 105 
f 342 215 105 
f 958 796 105 
f 770 148 106 
f 106 502 770 
f 309 181 107 
f 107 181 678 
f 696 309 107 
f 678 552 107 
f 706 696 107 
f 108 567 601 
f 849 567 108 
f 108 601 623 
f 741 351 109 
f 109 351 880 
f 109 740 741 
f 879 740 109 
f 880 879 109 
f 777 154 111 
f 112 189 195 
f 786 189 112 
f 112 195 457 
f 456 256 112 
f 112 256 786 
f 113 123 648 
f 648 205 113 
f 113 205 786 
f 786 256 113 
f 698 292 114 
f 114 292 711 
f 114 689 698 
f 711 689 114 
f 757 242 115 
f 758 610 115 
f 115 671 757 
f 789 200 116 
f 116 200 801 
f 116 759 789 
f 117 204 795 
f 804 204 117 
f 117 614 804 
f 609 187 118 
f 118 187 611 
f 632 609 118 
f 118 611 633 
f 633 632 118 
f 797 311 119 
f 119 311 961 
f 119 343 797 
f 119 761 930 
f 961 761 119 
f 761 340 120 
f 930 761 120 
f 686 172 121 
f 122 130 131 
f 210 130 122 
f 122 131 222 
f 355 210 122 
f 122 222 800 
f 800 355 122 
f 926 648 123 
f 798 128 124 
f 763 128 125 
f 125 128 894 
f 558 506 126 
f 126 506 847 
f 592 558 126 
f 774 592 126 
f 847 774 126 
f 127 209 338 
f 129 130 909 
f 900 762 129 
f 909 900 129 
f 674 131 130 
f 130 210 909 
f 674 132 131 
f 131 132 905 
f 249 222 131 
f 905 249 131 
f 132 134 252 
f 644 134 132 
f 132 252 905 
f 674 644 132 
f 133 455 864 
f 227 226 134 
f 134 226 916 
f 644 227 134 
f 253 252 134 
f 916 253 134 
f 135 136 243 
f 464 136 135 
f 135 240 241 
f 243 240 135 
f 135 241 804 
f 614 464 135 
f 804 614 135 
f 438 245 136 
f 464 438 136 
f 137 138 298 
f 959 138 137 
f 298 262 137 
f 137 262 959 
f 138 186 705 
f 705 298 138 
f 959 310 138 
f 763 209 139 
f 140 178 293 
f 764 178 140 
f 140 293 703 
f 703 310 140 
f 414 142 141 
f 141 142 502 
f 141 502 764 
f 823 359 142 
f 142 414 823 
f 927 502 142 
f 143 262 263 
f 959 262 143 
f 143 263 809 
f 352 274 143 
f 143 274 959 
f 809 352 143 
f 144 331 380 
f 813 331 144 
f 144 418 931 
f 931 597 144 
f 144 597 947 
f 947 813 144 
f 306 232 145 
f 145 232 769 
f 378 306 145 
f 388 378 145 
f 769 388 145 
f 163 152 146 
f 146 152 322 
f 687 277 147 
f 147 277 813 
f 147 284 285 
f 147 285 687 
f 148 149 206 
f 770 149 148 
f 148 206 925 
f 925 820 148 
f 207 206 149 
f 358 207 149 
f 770 358 149 
f 906 645 150 
f 851 651 150 
f 150 852 906 
f 960 852 150 
f 588 182 151 
f 642 588 151 
f 941 642 151 
f 152 163 617 
f 882 322 152 
f 152 617 643 
f 152 643 882 
f 153 163 357 
f 617 163 153 
f 153 168 617 
f 923 224 153 
f 153 357 923 
f 154 174 426 
f 501 174 154 
f 777 501 154 
f 587 170 155 
f 155 170 851 
f 155 182 579 
f 851 316 155 
f 155 579 587 
f 156 158 586 
f 699 158 156 
f 589 357 156 
f 156 357 913 
f 156 586 589 
f 773 699 156 
f 913 773 156 
f 261 258 157 
f 157 258 773 
f 913 772 157 
f 157 773 913 
f 158 585 586 
f 774 585 158 
f 158 699 902 
f 902 774 158 
f 159 775 855 
f 883 784 159 
f 159 855 883 
f 160 317 325 
f 350 317 160 
f 160 325 347 
f 399 350 160 
f 161 405 616 
f 643 405 161 
f 161 616 647 
f 647 643 161 
f 858 269 162 
f 162 269 898 
f 162 360 858 
f 924 360 162 
f 898 661 162 
f 162 661 924 
f 862 261 164 
f 164 261 955 
f 164 341 667 
f 955 341 164 
f 164 508 862 
f 952 508 164 
f 164 667 952 
f 165 172 686 
f 778 172 165 
f 165 379 665 
f 165 665 778 
f 688 217 166 
f 166 324 907 
f 907 688 166 
f 677 318 167 
f 167 455 778 
f 908 455 167 
f 778 677 167 
f 168 406 617 
f 594 404 169 
f 169 404 662 
f 169 593 594 
f 618 593 169 
f 653 618 169 
f 662 653 169 
f 587 177 170 
f 170 177 851 
f 171 622 659 
f 866 622 171 
f 950 866 171 
f 173 704 866 
f 173 720 722 
f 779 720 173 
f 950 779 173 
f 173 866 950 
f 174 266 426 
f 850 266 174 
f 174 501 780 
f 174 780 850 
f 175 711 719 
f 641 633 176 
f 176 633 780 
f 878 641 176 
f 587 212 177 
f 177 212 771 
f 771 247 177 
f 177 651 851 
f 820 293 178 
f 842 372 179 
f 179 372 937 
f 179 469 515 
f 937 469 179 
f 179 515 531 
f 179 531 842 
f 180 247 771 
f 771 591 180 
f 180 852 960 
f 181 309 656 
f 656 655 181 
f 181 655 681 
f 580 579 182 
f 588 580 182 
f 363 301 183 
f 183 301 798 
f 183 361 363 
f 184 521 522 
f 567 521 184 
f 184 522 570 
f 601 567 184 
f 184 570 601 
f 887 569 185 
f 185 747 887 
f 282 272 186 
f 186 272 705 
f 187 576 578 
f 609 576 187 
f 187 578 611 
f 198 189 188 
f 188 189 787 
f 672 198 188 
f 788 672 188 
f 188 787 788 
f 196 195 189 
f 198 196 189 
f 189 786 787 
f 270 259 190 
f 190 259 272 
f 280 270 190 
f 190 272 282 
f 281 280 190 
f 282 281 190 
f 191 264 265 
f 810 264 191 
f 191 265 275 
f 191 275 701 
f 701 283 191 
f 191 283 919 
f 919 810 191 
f 192 281 282 
f 541 281 192 
f 192 282 288 
f 192 288 533 
f 533 291 192 
f 192 291 541 
f 300 268 193 
f 193 268 788 
f 193 299 300 
f 194 349 719 
f 734 349 194 
f 710 535 194 
f 194 535 734 
f 719 710 194 
f 195 196 790 
f 195 197 759 
f 790 197 195 
f 759 457 195 
f 196 198 792 
f 791 790 196 
f 792 791 196 
f 789 759 197 
f 790 789 197 
f 672 199 198 
f 198 199 793 
f 793 792 198 
f 672 671 199 
f 794 793 199 
f 200 201 229 
f 791 201 200 
f 200 229 801 
f 200 789 790 
f 200 790 791 
f 791 202 201 
f 201 202 802 
f 802 229 201 
f 202 203 237 
f 793 203 202 
f 202 237 802 
f 202 791 792 
f 202 792 793 
f 794 204 203 
f 203 204 803 
f 803 237 203 
f 203 793 794 
f 204 794 795 
f 804 803 204 
f 205 648 782 
f 787 786 205 
f 206 207 387 
f 387 225 206 
f 206 225 925 
f 207 358 437 
f 435 387 207 
f 437 435 207 
f 474 343 208 
f 909 474 208 
f 796 612 208 
f 208 612 900 
f 208 900 909 
f 763 338 209 
f 209 353 918 
f 355 294 210 
f 210 294 797 
f 797 474 210 
f 210 474 909 
f 758 330 211 
f 211 610 758 
f 587 538 212 
f 212 538 928 
f 846 771 212 
f 928 846 212 
f 213 220 296 
f 213 296 917 
f 214 409 943 
f 943 783 214 
f 216 453 781 
f 217 688 689 
f 217 689 711 
f 879 642 218 
f 218 642 941 
f 218 683 879 
f 219 245 438 
f 296 246 219 
f 917 296 219 
f 220 246 296 
f 297 246 220 
f 805 297 220 
f 220 799 805 
f 407 403 221 
f 221 403 957 
f 834 407 221 
f 221 460 954 
f 957 460 221 
f 954 834 221 
f 222 249 806 
f 806 800 222 
f 391 334 223 
f 223 334 814 
f 223 335 383 
f 815 335 223 
f 223 383 391 
f 223 814 815 
f 548 547 224 
f 923 548 224 
f 387 337 225 
f 225 337 818 
f 225 818 819 
f 225 819 925 
f 226 230 452 
f 226 452 916 
f 801 229 227 
f 227 644 801 
f 228 433 434 
f 951 433 228 
f 228 434 481 
f 228 481 526 
f 526 486 228 
f 228 486 951 
f 230 231 233 
f 230 233 904 
f 257 255 230 
f 230 255 452 
f 904 257 230 
f 237 233 231 
f 802 237 231 
f 232 306 812 
f 812 348 232 
f 931 769 232 
f 233 237 803 
f 803 241 233 
f 233 241 904 
f 305 235 234 
f 234 235 369 
f 234 304 305 
f 369 368 234 
f 235 305 306 
f 235 306 378 
f 424 369 235 
f 235 378 424 
f 236 238 302 
f 362 238 236 
f 236 302 319 
f 366 362 236 
f 311 302 238 
f 961 311 238 
f 362 356 238 
f 238 356 961 
f 664 520 239 
f 239 520 844 
f 600 568 239 
f 239 568 664 
f 849 600 239 
f 239 844 849 
f 904 241 240 
f 240 243 259 
f 259 257 240 
f 240 257 904 
f 241 803 804 
f 757 505 242 
f 272 259 243 
f 314 313 244 
f 244 313 345 
f 346 314 244 
f 244 345 346 
f 297 262 246 
f 248 402 451 
f 944 402 248 
f 248 451 953 
f 833 822 248 
f 248 822 944 
f 953 833 248 
f 265 264 249 
f 249 264 806 
f 905 265 249 
f 436 359 250 
f 250 359 828 
f 828 372 250 
f 250 372 912 
f 483 436 250 
f 912 483 250 
f 251 317 350 
f 487 317 251 
f 252 265 905 
f 253 254 544 
f 916 254 253 
f 253 544 896 
f 452 255 254 
f 916 452 254 
f 255 257 537 
f 257 259 270 
f 257 270 537 
f 922 773 258 
f 258 867 890 
f 363 361 260 
f 260 361 948 
f 411 363 260 
f 260 408 895 
f 948 408 260 
f 692 411 260 
f 895 692 260 
f 297 263 262 
f 263 297 807 
f 263 807 809 
f 808 806 264 
f 810 808 264 
f 848 426 266 
f 577 532 266 
f 266 532 848 
f 850 577 266 
f 268 300 757 
f 268 671 672 
f 757 671 268 
f 268 672 788 
f 269 657 660 
f 857 657 269 
f 269 660 898 
f 858 857 269 
f 963 275 271 
f 896 276 271 
f 271 276 962 
f 271 962 963 
f 273 670 897 
f 915 670 273 
f 274 765 959 
f 963 701 275 
f 276 279 286 
f 544 279 276 
f 286 285 276 
f 276 285 962 
f 896 544 276 
f 334 333 277 
f 277 333 813 
f 814 334 277 
f 277 687 814 
f 278 655 656 
f 856 655 278 
f 278 656 899 
f 278 657 856 
f 899 657 278 
f 280 281 541 
f 541 287 280 
f 283 812 919 
f 962 285 284 
f 284 701 963 
f 963 962 284 
f 285 286 687 
f 286 289 687 
f 702 289 286 
f 287 289 702 
f 541 290 287 
f 288 293 700 
f 703 293 288 
f 700 533 288 
f 815 687 289 
f 816 815 289 
f 541 291 290 
f 290 291 817 
f 817 816 290 
f 291 533 700 
f 291 700 818 
f 818 817 291 
f 292 698 710 
f 292 710 719 
f 719 711 292 
f 819 700 293 
f 820 819 293 
f 294 302 797 
f 800 302 294 
f 294 355 800 
f 799 301 295 
f 295 303 805 
f 805 799 295 
f 297 805 807 
f 325 300 299 
f 299 314 315 
f 299 315 325 
f 300 325 892 
f 300 487 505 
f 892 487 300 
f 300 505 757 
f 799 798 301 
f 302 311 797 
f 800 319 302 
f 303 320 807 
f 946 320 303 
f 807 805 303 
f 810 305 304 
f 304 806 808 
f 304 808 810 
f 812 306 305 
f 305 810 812 
f 695 679 307 
f 722 713 307 
f 308 535 697 
f 709 535 308 
f 697 682 308 
f 308 708 709 
f 309 630 680 
f 696 630 309 
f 680 656 309 
f 312 389 427 
f 831 389 312 
f 312 427 475 
f 312 475 521 
f 312 521 838 
f 838 831 312 
f 313 314 949 
f 313 344 345 
f 926 344 313 
f 782 648 313 
f 313 648 926 
f 949 782 313 
f 346 315 314 
f 347 325 315 
f 315 346 347 
f 892 325 317 
f 317 487 892 
f 562 516 318 
f 677 562 318 
f 319 800 806 
f 367 323 320 
f 320 323 807 
f 946 367 320 
f 321 453 740 
f 781 453 321 
f 879 683 321 
f 321 740 879 
f 882 746 322 
f 374 327 323 
f 323 327 809 
f 323 367 374 
f 809 807 323 
f 324 412 669 
f 864 412 324 
f 324 669 907 
f 424 329 326 
f 326 329 466 
f 326 368 369 
f 420 368 326 
f 326 369 424 
f 466 420 326 
f 327 352 809 
f 374 371 327 
f 327 371 766 
f 519 517 328 
f 565 519 328 
f 471 466 329 
f 517 471 329 
f 331 333 381 
f 813 333 331 
f 381 380 331 
f 333 334 382 
f 382 381 333 
f 391 382 334 
f 335 336 384 
f 816 336 335 
f 384 383 335 
f 335 815 816 
f 336 337 386 
f 817 337 336 
f 385 384 336 
f 386 385 336 
f 336 816 817 
f 387 386 337 
f 337 817 818 
f 347 346 339 
f 339 346 398 
f 339 398 446 
f 339 446 447 
f 340 392 393 
f 821 392 340 
f 340 761 821 
f 776 667 341 
f 342 393 394 
f 342 394 395 
f 343 474 797 
f 397 345 344 
f 344 395 396 
f 344 396 397 
f 398 346 345 
f 345 397 398 
f 349 712 719 
f 735 712 349 
f 734 733 349 
f 349 733 735 
f 350 399 400 
f 350 400 401 
f 741 685 351 
f 353 401 402 
f 353 402 944 
f 944 918 353 
f 354 356 658 
f 961 356 354 
f 354 658 821 
f 821 761 354 
f 354 761 961 
f 356 362 410 
f 410 403 356 
f 356 403 658 
f 357 589 923 
f 829 437 358 
f 358 770 829 
f 359 823 828 
f 360 673 755 
f 360 755 858 
f 361 822 948 
f 362 366 410 
f 411 364 363 
f 413 367 364 
f 364 367 946 
f 364 411 413 
f 555 366 365 
f 365 368 419 
f 365 419 555 
f 768 410 366 
f 366 555 768 
f 417 374 367 
f 367 413 417 
f 420 419 368 
f 823 414 370 
f 370 421 823 
f 939 421 370 
f 370 938 939 
f 371 374 422 
f 371 422 824 
f 824 766 371 
f 372 828 937 
f 372 842 912 
f 373 562 677 
f 843 562 373 
f 665 563 373 
f 373 563 843 
f 778 665 373 
f 373 677 778 
f 374 417 423 
f 423 422 374 
f 375 377 510 
f 556 377 375 
f 375 510 560 
f 593 556 375 
f 375 560 594 
f 594 593 375 
f 491 490 376 
f 376 490 538 
f 539 491 376 
f 376 538 579 
f 580 539 376 
f 376 579 580 
f 459 415 377 
f 377 415 510 
f 507 459 377 
f 556 507 377 
f 378 388 425 
f 425 424 378 
f 379 531 563 
f 848 531 379 
f 379 563 665 
f 380 381 428 
f 427 389 380 
f 428 427 380 
f 381 382 429 
f 429 428 381 
f 382 391 430 
f 430 429 382 
f 383 384 431 
f 430 391 383 
f 431 430 383 
f 384 385 432 
f 432 431 384 
f 385 386 433 
f 433 432 385 
f 386 387 434 
f 434 433 386 
f 435 434 387 
f 388 769 826 
f 388 826 831 
f 826 769 389 
f 831 826 389 
f 881 744 390 
f 390 744 882 
f 934 393 392 
f 392 821 827 
f 392 827 934 
f 441 394 393 
f 393 440 441 
f 934 440 393 
f 442 395 394 
f 394 441 442 
f 442 396 395 
f 443 397 396 
f 396 442 443 
f 445 398 397 
f 397 443 444 
f 397 444 445 
f 398 445 446 
f 449 400 399 
f 399 448 449 
f 450 401 400 
f 400 449 450 
f 450 402 401 
f 402 450 451 
f 403 407 658 
f 403 410 966 
f 966 957 403 
f 404 594 676 
f 404 620 662 
f 676 620 404 
f 405 406 583 
f 617 406 405 
f 405 583 616 
f 643 617 405 
f 546 545 406 
f 406 545 583 
f 821 658 407 
f 827 821 407 
f 834 827 407 
f 833 458 408 
f 408 458 895 
f 408 822 833 
f 948 822 408 
f 410 415 459 
f 768 415 410 
f 410 459 966 
f 461 413 411 
f 462 461 411 
f 692 462 411 
f 860 669 412 
f 463 417 413 
f 413 461 463 
f 415 419 465 
f 555 419 415 
f 415 465 510 
f 768 555 415 
f 730 454 416 
f 416 454 860 
f 504 503 416 
f 416 503 886 
f 860 504 416 
f 886 730 416 
f 463 423 417 
f 418 769 931 
f 419 420 465 
f 467 465 420 
f 420 466 467 
f 421 469 937 
f 939 469 421 
f 828 823 421 
f 937 828 421 
f 422 423 468 
f 422 468 830 
f 830 824 422 
f 423 463 470 
f 470 468 423 
f 427 428 475 
f 428 429 477 
f 476 475 428 
f 477 476 428 
f 429 430 478 
f 478 477 429 
f 430 431 478 
f 431 432 480 
f 479 478 431 
f 480 479 431 
f 432 433 951 
f 951 480 432 
f 434 435 482 
f 482 481 434 
f 435 437 482 
f 436 483 832 
f 832 829 436 
f 436 829 911 
f 484 482 437 
f 832 484 437 
f 437 829 832 
f 439 592 901 
f 439 756 785 
f 889 756 439 
f 439 785 836 
f 901 889 439 
f 489 441 440 
f 929 489 440 
f 934 929 440 
f 491 442 441 
f 441 489 490 
f 441 490 491 
f 492 443 442 
f 442 491 492 
f 493 444 443 
f 443 492 493 
f 494 445 444 
f 444 493 494 
f 494 446 445 
f 496 447 446 
f 446 494 495 
f 446 495 496 
f 496 448 447 
f 497 449 448 
f 448 496 497 
f 498 450 449 
f 449 497 498 
f 499 451 450 
f 450 498 499 
f 499 485 451 
f 451 485 500 
f 451 500 953 
f 784 740 453 
f 454 668 669 
f 920 668 454 
f 454 669 860 
f 454 730 920 
f 908 864 455 
f 840 506 458 
f 458 506 895 
f 458 833 840 
f 507 460 459 
f 459 460 957 
f 459 957 966 
f 460 507 553 
f 460 553 954 
f 461 462 511 
f 511 463 461 
f 619 511 462 
f 940 619 462 
f 462 692 895 
f 462 895 940 
f 512 470 463 
f 463 511 512 
f 465 467 513 
f 560 510 465 
f 465 513 560 
f 471 467 466 
f 467 471 965 
f 965 513 467 
f 468 470 514 
f 468 514 837 
f 837 830 468 
f 837 515 469 
f 469 830 837 
f 939 830 469 
f 470 512 516 
f 516 514 470 
f 471 517 518 
f 471 518 965 
f 838 520 473 
f 473 831 838 
f 475 476 522 
f 522 521 475 
f 476 477 523 
f 523 522 476 
f 477 478 524 
f 524 523 477 
f 478 479 525 
f 525 524 478 
f 479 480 964 
f 964 525 479 
f 951 486 480 
f 480 486 964 
f 481 482 528 
f 527 526 481 
f 528 527 481 
f 482 484 528 
f 483 529 839 
f 912 529 483 
f 839 832 483 
f 530 528 484 
f 839 530 484 
f 484 832 839 
f 485 499 550 
f 551 500 485 
f 485 550 551 
f 486 526 536 
f 486 536 964 
f 928 489 488 
f 488 489 929 
f 488 834 841 
f 929 834 488 
f 488 841 928 
f 538 490 489 
f 928 538 489 
f 539 492 491 
f 540 493 492 
f 492 539 540 
f 543 494 493 
f 493 540 542 
f 493 542 543 
f 543 495 494 
f 546 496 495 
f 495 543 545 
f 495 545 546 
f 546 497 496 
f 547 498 497 
f 497 546 547 
f 550 499 498 
f 498 547 548 
f 498 548 550 
f 500 551 840 
f 840 833 500 
f 500 833 953 
f 927 770 502 
f 503 504 595 
f 503 726 729 
f 503 729 886 
f 558 509 506 
f 506 509 895 
f 506 840 847 
f 556 553 507 
f 920 724 508 
f 952 920 508 
f 558 557 509 
f 509 557 619 
f 509 619 940 
f 940 895 509 
f 559 512 511 
f 511 557 559 
f 619 557 511 
f 561 516 512 
f 512 559 561 
f 965 518 513 
f 514 516 562 
f 514 562 843 
f 843 837 514 
f 563 531 515 
f 843 563 515 
f 515 837 843 
f 519 518 517 
f 518 519 566 
f 566 564 518 
f 519 565 566 
f 520 838 844 
f 521 567 844 
f 844 838 521 
f 522 523 570 
f 523 524 571 
f 571 570 523 
f 524 525 573 
f 572 571 524 
f 573 572 524 
f 525 536 573 
f 964 536 525 
f 526 527 575 
f 574 536 526 
f 575 574 526 
f 527 528 576 
f 576 575 527 
f 528 530 576 
f 529 532 577 
f 912 532 529 
f 529 577 845 
f 845 839 529 
f 578 576 530 
f 845 578 530 
f 530 839 845 
f 848 842 531 
f 532 842 848 
f 912 842 532 
f 534 549 684 
f 697 549 534 
f 534 660 680 
f 684 660 534 
f 534 680 682 
f 534 682 697 
f 710 697 535 
f 535 709 716 
f 535 716 734 
f 605 573 536 
f 536 574 835 
f 606 605 536 
f 835 606 536 
f 587 579 538 
f 945 540 539 
f 539 580 945 
f 581 542 540 
f 945 581 540 
f 582 543 542 
f 542 581 582 
f 582 545 543 
f 545 582 583 
f 584 550 548 
f 923 584 548 
f 698 684 549 
f 549 697 710 
f 710 698 549 
f 586 551 550 
f 550 584 586 
f 586 585 551 
f 551 585 847 
f 847 840 551 
f 591 554 553 
f 553 554 954 
f 553 556 590 
f 553 590 591 
f 554 591 771 
f 554 771 846 
f 846 841 554 
f 554 841 954 
f 593 590 556 
f 690 561 559 
f 564 566 599 
f 598 596 564 
f 599 598 564 
f 568 566 565 
f 664 568 565 
f 566 568 599 
f 849 844 567 
f 659 599 568 
f 568 600 659 
f 755 673 569 
f 887 755 569 
f 570 571 602 
f 602 601 570 
f 571 572 603 
f 603 602 571 
f 572 573 605 
f 604 603 572 
f 605 604 572 
f 574 575 608 
f 608 607 574 
f 574 607 835 
f 575 576 609 
f 609 608 575 
f 850 845 577 
f 850 611 578 
f 578 845 850 
f 580 588 945 
f 615 582 581 
f 581 588 615 
f 945 588 581 
f 616 583 582 
f 582 615 616 
f 589 586 584 
f 923 589 584 
f 585 774 847 
f 642 615 588 
f 618 591 590 
f 590 593 618 
f 592 774 901 
f 594 596 676 
f 596 598 956 
f 956 676 596 
f 598 599 621 
f 691 620 598 
f 598 620 956 
f 598 621 691 
f 622 621 599 
f 659 622 599 
f 601 602 624 
f 624 623 601 
f 602 603 625 
f 625 624 602 
f 603 604 626 
f 626 625 603 
f 604 605 627 
f 627 626 604 
f 605 606 627 
f 606 607 628 
f 835 607 606 
f 628 627 606 
f 607 608 629 
f 629 628 607 
f 608 609 631 
f 631 629 608 
f 632 631 609 
f 780 633 611 
f 850 780 611 
f 612 762 900 
f 612 796 958 
f 616 615 613 
f 613 615 646 
f 647 616 613 
f 613 646 647 
f 615 642 646 
f 653 649 618 
f 861 662 620 
f 620 676 956 
f 620 691 863 
f 863 861 620 
f 621 622 865 
f 865 691 621 
f 866 865 622 
f 623 624 634 
f 623 634 868 
f 868 779 623 
f 624 625 635 
f 869 634 624 
f 624 635 869 
f 625 626 725 
f 725 635 625 
f 626 627 636 
f 626 636 725 
f 627 628 637 
f 637 636 627 
f 628 629 638 
f 638 637 628 
f 629 631 639 
f 875 638 629 
f 629 639 875 
f 682 680 630 
f 696 682 630 
f 631 632 640 
f 640 639 631 
f 632 633 641 
f 641 640 632 
f 869 868 634 
f 635 725 871 
f 871 869 635 
f 636 637 873 
f 872 725 636 
f 873 872 636 
f 637 638 874 
f 874 873 637 
f 875 874 638 
f 639 640 876 
f 876 875 639 
f 640 641 877 
f 877 876 640 
f 878 877 641 
f 879 646 642 
f 906 650 645 
f 645 650 914 
f 645 914 936 
f 880 647 646 
f 646 879 880 
f 647 880 881 
f 649 653 854 
f 853 852 649 
f 854 853 649 
f 854 654 650 
f 650 853 854 
f 906 853 650 
f 653 662 859 
f 859 854 653 
f 859 663 654 
f 654 663 915 
f 654 854 859 
f 775 681 655 
f 855 775 655 
f 856 855 655 
f 656 680 899 
f 899 660 657 
f 857 856 657 
f 899 680 660 
f 660 684 898 
f 661 666 776 
f 898 666 661 
f 661 776 924 
f 861 859 662 
f 675 670 663 
f 663 670 915 
f 861 675 663 
f 663 859 861 
f 666 684 698 
f 898 684 666 
f 698 689 666 
f 666 689 903 
f 903 776 666 
f 907 668 667 
f 667 668 952 
f 903 688 667 
f 667 688 907 
f 667 776 903 
f 907 669 668 
f 668 920 952 
f 670 675 897 
f 675 693 694 
f 863 693 675 
f 675 694 897 
f 675 861 863 
f 695 694 679 
f 685 741 884 
f 885 754 685 
f 685 884 885 
f 815 814 687 
f 903 689 688 
f 865 863 691 
f 910 694 693 
f 865 704 693 
f 693 704 910 
f 693 863 865 
f 699 773 922 
f 819 818 700 
f 704 865 866 
f 706 707 893 
f 715 708 707 
f 707 708 893 
f 715 709 708 
f 709 715 716 
f 723 714 713 
f 722 721 713 
f 713 721 723 
f 731 716 715 
f 715 728 731 
f 716 731 732 
f 716 732 734 
f 717 718 726 
f 717 726 836 
f 811 739 717 
f 836 811 717 
f 729 726 718 
f 720 721 722 
f 869 721 720 
f 720 779 868 
f 720 868 869 
f 871 723 721 
f 721 869 871 
f 723 871 872 
f 767 727 724 
f 724 730 886 
f 920 730 724 
f 886 767 724 
f 872 871 725 
f 751 737 727 
f 767 751 727 
f 874 731 728 
f 728 872 873 
f 728 873 874 
f 729 736 886 
f 875 732 731 
f 731 874 875 
f 732 733 734 
f 876 733 732 
f 732 875 876 
f 877 735 733 
f 733 876 877 
f 735 877 878 
f 736 745 767 
f 736 767 886 
f 737 738 748 
f 738 742 748 
f 760 742 738 
f 811 760 739 
f 883 741 740 
f 740 784 883 
f 741 883 884 
f 825 748 742 
f 760 749 742 
f 742 749 935 
f 935 825 742 
f 751 745 743 
f 747 746 744 
f 744 746 882 
f 754 747 744 
f 745 751 767 
f 747 754 888 
f 888 887 747 
f 749 760 811 
f 749 811 942 
f 942 935 749 
f 857 753 752 
f 752 753 885 
f 752 856 857 
f 884 856 752 
f 885 884 752 
f 858 755 753 
f 753 755 887 
f 753 857 858 
f 888 885 753 
f 753 887 888 
f 754 885 888 
f 942 785 756 
f 890 870 756 
f 756 870 942 
f 756 889 890 
f 766 824 938 
f 911 829 770 
f 927 911 770 
f 932 783 772 
f 772 783 943 
f 921 901 774 
f 774 902 921 
f 942 836 785 
f 919 812 810 
f 811 836 942 
f 819 820 925 
f 822 918 944 
f 824 830 939 
f 939 938 824 
f 935 867 825 
f 827 834 929 
f 827 929 934 
f 954 841 834 
f 841 846 928 
f 852 853 906 
f 855 856 884 
f 884 883 855 
f 867 870 890 
f 935 870 867 
f 870 935 942 
