v -50.545270000000002 1.0216601339696469 15.90435405660511
v -50.545270000000002 -13.729284815439557 8.5111393904738009
v -50.545270000000002 -0.90505686345940073 19.74854060408417
v -50.545270000000002 -15.656001812868606 12.355325937952863
v -36.545270000000002 15.772605083378851 23.297568722736418
v -36.545270000000002 13.845888085949802 27.14175527021548
v -27.545269999999999 24.463113848080464 5.9582620531044252
v -27.545269999999999 9.7121688986712567 -1.4349526130268835
v -27.545269999999999 8.3711739032704209 -2.1070630372206374
v -27.545269999999999 15.772605083378851 23.297568722736418
v -27.545269999999999 -13.729284815439557 8.5111393904738009
v -27.545269999999999 13.845888085949802 27.14175527021548
v -27.545269999999999 -15.656001812868606 12.355325937952863
v -27.545269999999999 5.1553797693218097 44.481061045850808
v -27.545269999999999 -9.5955651800873962 37.087846379719494
v -27.545269999999999 -10.936560175488232 36.415735955525747
v -26 23.77071913128454 7.3397282774664578
v -26 9.0197741818753343 -0.053486388664850892
v -26 5.8477744861177321 43.099594821488772
v -26 -8.9031704632914739 35.706380155357465
v -18.613890000000001 -6.0089808902701156 -6.8924141833971753
v -18.613890000000001 -14.296504656264318 9.6428566507000575
v -18.613890000000001 -15.013353573156191 11.073113905173754
v -18.613890000000001 -23.300881058161405 27.608392159443291
v -16.46594 6.4385293399736012 1.7489501921211943
v -16.46594 0.075885335160231993 14.443700133259128
v -16.46594 -2.5658433429124745 19.714478280692123
v -16.46594 -8.9284868996522277 32.409227327833392
v -14.60425 -5.123604793644609 -1.9635885527703216
v -14.60425 -7.8055947844462823 -3.307809401157833
v -14.60425 -9.8179004576349485 7.4024720910505621
v -14.60425 -12.499890448436622 6.0582512426630508
v -14.60425 -14.127977476530685 16.001939535800606
v -14.60425 -16.809967467332356 14.657718687413094
v -14.60425 -18.822272692447406 25.367999285624826
v -14.60425 -21.504262683249078 24.023778437237318
v -4.1276320000000002 -5.123604793644609 -1.9635885527703216
v -4.1276320000000002 -7.8055947844462823 -3.307809401157833
v -4.1276320000000002 -9.8179004576349485 7.4024720910505621
v -4.1276320000000002 -12.499890448436622 6.0582512426630508
v -4.1276320000000002 -14.127977476530685 16.001939535800606
v -4.1276320000000002 -16.809967467332356 14.657718687413094
v -4.1276320000000002 -18.822272692447406 25.367999285624826
v -4.1276320000000002 -21.504262683249078 24.023778437237318
v -2.2659419999999999 6.4385293399736012 1.7489501921211943
v -2.2659419999999999 0.075885335160231993 14.443700133259128
v -2.2659419999999999 -2.5658433429124745 19.714478280692123
v -2.2659419999999999 -8.9284868996522277 32.409227327833392
v -0.1179886 -6.0089808902701156 -6.8924141833971753
v -0.1179886 -14.296504656264318 9.6428566507000575
v -0.1179886 -15.013353573156191 11.073113905173754
v -0.1179886 -23.300881058161405 27.608392159443291
v 1.086109 -6.0089808902701156 -6.8924141833971753
v 1.086109 -14.296504656264318 9.6428566507000575
v 1.086109 -15.013353573156191 11.073113905173754
v 1.086109 -23.300881058161405 27.608392159443291
v 3.2340580000000001 6.4385293399736012 1.7489501921211943
v 3.2340580000000001 0.075885335160231993 14.443700133259128
v 3.2340580000000001 -2.5658433429124745 19.714478280692123
v 3.2340580000000001 -8.9284868996522277 32.409227327833392
v 5.0957489999999996 -5.123604793644609 -1.9635885527703216
v 5.0957489999999996 -7.8055947844462823 -3.307809401157833
v 5.0957489999999996 -9.8179004576349485 7.4024720910505621
v 5.0957489999999996 -12.499890448436622 6.0582512426630508
v 5.0957489999999996 -14.127977476530685 16.001939535800606
v 5.0957489999999996 -16.809967467332356 14.657718687413094
v 5.0957489999999996 -18.822272692447406 25.367999285624826
v 5.0957489999999996 -21.504262683249078 24.023778437237318
v 15.572369999999999 -5.123604793644609 -1.9635885527703216
v 15.572369999999999 -7.8055947844462823 -3.307809401157833
v 15.572369999999999 -9.8179004576349485 7.4024720910505621
v 15.572369999999999 -12.499890448436622 6.0582512426630508
v 15.572369999999999 -14.127977476530685 16.001939535800606
v 15.572369999999999 -16.809967467332356 14.657718687413094
v 15.572369999999999 -18.822272692447406 25.367999285624826
v 15.572369999999999 -21.504262683249078 24.023778437237318
v 17.434059999999999 6.4385293399736012 1.7489501921211943
v 17.434059999999999 0.075885335160231993 14.443700133259128
v 17.434059999999999 -2.5658433429124745 19.714478280692123
v 17.434059999999999 -8.9284868996522277 32.409227327833392
v 19.58201 -6.0089808902701156 -6.8924141833971753
v 19.58201 -14.296504656264318 9.6428566507000575
v 19.58201 -15.013353573156191 11.073113905173754
v 19.58201 -23.300881058161405 27.608392159443291
v 26 23.77071913128454 7.3397282774664578
v 26 9.0197741818753343 -0.053486388664850892
v 26 5.8477744861177321 43.099594821488772
v 26 -8.9031704632914739 35.706380155357465
v 27.545269999999999 24.463113848080464 5.9582620531044252
v 27.545269999999999 9.7121688986712567 -1.4349526130268835
v 27.545269999999999 8.3711739032704209 -2.1070630372206374
v 27.545269999999999 15.772605083378851 23.297568722736418
v 27.545269999999999 -13.729284815439557 8.5111393904738009
v 27.545269999999999 13.845888085949802 27.14175527021548
v 27.545269999999999 -15.656001812868606 12.355325937952863
v 27.545269999999999 5.1553797693218097 44.481061045850808
v 27.545269999999999 -9.5955651800873962 37.087846379719494
v 27.545269999999999 -10.936560175488232 36.415735955525747
v 36.545270000000002 15.772605083378851 23.297568722736418
v 36.545270000000002 13.845888085949802 27.14175527021548
v 50.545270000000002 1.0216601339696469 15.90435405660511
v 50.545270000000002 -13.729284815439557 8.5111393904738009
v 50.545270000000002 -0.90505686345940073 19.74854060408417
v 50.545270000000002 -15.656001812868606 12.355325937952863
v -14.626677015984191 -2.9163996895263438 -4.745469089785324
v 4.7504897478036234 6.9164937658954555 4.1429795642877298
v -0.93017470707858263 -12.473337692482046 18.663491678772054
v -27.545269999999999 14.900189195064105 15.076794209033363
v -12.80804661513554 -16.906717228365423 29.744245535573956
v -26 10.515173237212615 33.735689805172527
v 7.3388411224232248 3.922918553371523 0.0025519942554552699
v 19.086125354590258 -16.599412939051231 21.966176600007522
v 42.089042373889747 -12.5229238112712 13.925633352900611
v -26 12.921118337497518 6.3993254314722261
v -8.7119550960502536 0.054167192409708798 17.834696372414061
v -40.430562985657282 -4.2796637825130075 18.05717822344058
v -36.209256663954058 10.281312938241872 20.545317815240189
v -17.539915000000001 -16.114683978906815 30.008809743638341
v -1.1919652999999999 -7.1103096605520433 12.043278391979591
v -1.1977103988335971 -8.7563052885898909 15.416909020985512
v 1.9155490017315191 -8.7465427254301886 11.496723584452461
v 2.1600834999999998 -8.7895984580343338 15.39379609293294
v -26 8.3854239674151039 7.3166138736346973
v -17.9719030625023 -13.348235398820515 17.756487269510046
v 5.8800188390376267 -1.4855926675243993 -3.7521680521104948
v 18.098638725620699 -2.072161639252879 8.3717646447410701
v -27.545269999999999 12.547387770568562 9.9471996887845417
v 10.248716819046139 -16.460025938909123 20.654843589227667
v -9.8989479416689115 -7.3249952639158451 2.428626620946142
v 18.827227422030099 -6.1801036078977276 5.2125919946393395
v 26 7.0848731453863181 11.740558114208408
v -9.3659409999999994 -8.9284868996522277 32.409227327833392
v 6.3502049363464863 -0.062976245077705051 18.06842100717644
v -12.771092109843289 5.1553797693218097 44.481061045850808
v -17.83054984940399 -16.551150442480282 26.349989866960112
v -32.045270000000002 15.772605083378851 23.297568722736418
v -31.569455278667839 13.845888085949802 27.14175527021548
v -17.791398613834879 -6.5084019350012996 6.9228812436614398
v -27.522356306818651 13.314430333280153 5.257021221674119
v -7.8464666015397206 2.2008188440831908 13.55169611212763
v -11.836789241018851 -6.0089808902701156 -6.8924141833971753
v 26 8.2225239952370917 38.361493622002506
v -7.8576163726089554 -7.0670453749122428 32.042942622157334
v -36.129032322882168 5.6549775277334975 18.226585630643228
v -17.934377742731829 -4.4200986068088728 0.52791186591034744
v 7.07403333303927 -6.6123029981085759 16.905327561825889
v -12.14777795776696 -8.2683597843648506 15.755652658822399
v -26 -2.2647818240187227 32.529875968247943
v -26 16.425091881904603 10.610881598034688
v -7.2257779194487544 -12.837599394510379 12.583575379111988
v -9.8471798391774605 4.3747013403362303 9.2143648595112815
v -33.65020487925473 6.702303046635488 23.561370565198324
v 23.891138003786171 -7.0930381785163865 38.342119878390875
v 3.4880440283587291 -1.8551015617817128 21.644070177793104
v -42.211673790700239 -10.570844929920026 10.094158252235083
v 31.279536432393371 15.772605083378851 23.297568722736418
v -15.127658769749759 -20.259949089822172 28.624159816333034
v -50.545270000000002 -2.9767181342872959 13.900355739548012
v -17.986149212045358 -7.1738571140356209 32.256053448084977
v 15.94523038548704 4.7969769211670661 8.3718404465721257
v 14.45908513965554 3.498753307445976 -0.29191383687664185
v 26 5.932117648370113 15.092916815742369
v 12.513705155667081 3.98732536291541 9.9872575693408727
v 27.545269999999999 9.2299754230367874 17.05161228387194
v -16.243993252393501 5.0220775189274836 7.9227196411322183
v -42.290579474427403 -2.5635636066941148 14.107429938743827
v -1.6748431430570869 3.0130783646953296 -0.62908119570878895
v -7.4813631583405424 -18.030951698308666 29.368715591064017
v 0.4840580000000001 5.022807746586885 4.5735984988184786
v -46.201470079023423 -3.6500297259231123 18.372752565114371
v -31.31945714801051 10.380603769168676 25.404945125441188
v -17.44539744230033 -5.1983663458940716 28.314553453175382
v -23.55073896514747 6.2229781248170637 5.5266822572401999
v -23.993820914399691 21.180569450626738 4.3130416645316902
v 27.545269999999999 17.735815590694532 19.380570309288618
v -26 9.7710082902596813 19.130102387865371
v 2.6429603539003805 3.0130783646953296 -0.62908119570878895
v -33.798224450815809 -10.045592276162878 10.357416344275979
v 27.545269999999999 7.233831777478934 19.017911775167224
v -26 9.6353562467275822 24.28150537874788
v -24.023571357204599 -9.623832559981734 37.073678690237593
v -23.633347529716641 -9.4705463577924434 33.490744582156125
v -13.72616598030538 1.2794309861009654 42.538424727461603
v -24.098505880216919 6.1946098682765687 2.2356184225967279
v -23.669111640498361 1.7877719415614701 42.793206629244537
v 36.410760794683767 -5.4933050344138215 12.639035380586567
v -22.335971740621989 1.4928919749650287 40.91691558560548
v 18.919504751071258 -18.867916338458841 29.089142874450687
v 5.1280345259292863 9.7121688986712567 -1.4349526130268835
v -14.60425 -14.296504656264318 9.6428566507000575
v 0.4840580000000001 -7.5504796625351061 29.659826720311372
v -15.515557372701281 6.8792555680151324 4.2172772320484437
v -16.581263825063811 9.0197741818753343 -0.053486388664850892
v -18.691618423870171 1.0050653884447931 15.937463899716789
v -21.90212614331897 3.8637337838333625 10.233847538870842
v -22.85343220547367 1.2764200764939471 15.396056914266477
v -14.582019886245799 2.9506156408055184 12.055701234234821
v -22.922308508601901 -0.75539568036074489 19.44993654987416
v -17.08601675459737 -2.3175137856651937 22.566675237495552
v -0.71856281544409661 -12.516385793380813 15.451332286567549
v -17.243127417481169 -10.300635584301922 23.034168689931821
v -27.545269999999999 0.52401116997419117 37.583889951906656
v 13.46783401822103 -20.575189437451513 28.518859548979982
v -10.98049113534975 -3.8951338955428194 25.714343531031403
v -13.554092343225109 -1.2449790038761215 17.079089206975627
v -16.46594 -6.1724724254179844 26.910426112789352
v -16.815659695773959 -9.4001234087307353 27.899718271299527
v -17.143761660052569 -4.8575500182509854 37.734056382911405
v -8.7897072188872567 3.4335739404545254 -0.33716293886735471
v -10.45749756595619 -6.143168081911762 37.089701031040825
v -6.0264975920160406 -7.2341366591757108 12.00191616623551
v 18.582690179294168 -6.0948091459962974 8.8536211414072525
v -7.6045238787419862 -3.1388712662785645 -4.8999142697732978
v -11.453872583867049 -0.020221965953226451 -2.7348720673505262
v -18.613890000000001 -11.45766435909654 3.9788013195975367
v -6.8154017518079337 -10.957058612523836 10.758339725123651
v -27.545269999999999 -3.4583097127906322 35.584011963210358
v -8.4947095873062715 -14.296504656264318 9.6428566507000575
v -33.471416102326778 -13.729284815439557 8.5111393904738009
v -9.4405608305572102 -16.291180673926227 20.317963446934382
v -9.5869169519235449 -6.6628058316942358 12.19275915624177
v -4.1276320000000002 -14.296504656264318 9.6428566507000575
v -11.256446344186729 -23.288836730496694 27.584361311921889
v -27.545269999999999 18.41174658436822 18.031952512086548
v 27.545269999999999 11.34257692560098 32.136362729228942
v 2.023342048781775 -3.1612727547579897 2.0329882703864417
v 2.78304355257261 1.6971894320163108 4.1796334715141121
v -5.9254756606605614 -0.43773591553710156 -3.0247204067758808
v 1.086109 -7.8055947844462823 -3.307809401157833
v 1.086109 -9.8463253653647325 0.76385709509662192
v 11.302476981004331 0.42612453000053702 17.092566939128961
v 1.5208097253756581 -10.002899816464542 7.8512386986211364
v 2.043355626004816 -5.6042367569565084 7.2191106384236594
v 1.086109 -12.499890448436622 6.0582512426630508
v 1.597217192459053 -14.388169078434329 17.79157058890447
v -2.8779651371087995 -12.393318186728948 12.892006200265815
v 7.2452521720933696 -8.9284868996522277 32.409227327833392
v 2.2017404901610989 -12.099231965490583 22.646419038660959
v 2.1481033019813962 -14.254026076957912 26.109708166027318
v 3.8978257386985646 -10.888903327622609 10.781105796425312
v -33.381452815161353 -15.656001812868606 12.355325937952863
v 2.32940631520189 -9.6019540980052831 19.653572013410837
v 1.4555540697994309 -13.808630692299545 14.427399090148269
v 1.3815623955155361 5.1553797693218097 44.481061045850808
v 1.086109 -16.809967467332356 14.657718687413094
v 1.086109 -18.850697853461728 18.729384795024306
v 1.583488693499705 -18.133410717296393 25.050114118410846
v -5.9019828296426899 -12.996052855163702 31.050531381034276
v 2.7665625262017235 -10.498516796612119 28.255648196263479
v -10.03817142427347 -12.569360316373025 31.193060212607058
v 1.086109 -21.504262683249078 24.023778437237318
v 26 10.069398709016767 34.676608431772323
v -3.5505449206608306 7.6779184257363413 2.6237847691076759
v 9.9283645377185259 -2.1284371042785946 22.189429364854046
v 34.445182776430833 -13.002860154289076 13.685087921934761
v 32.164562250278728 -10.474066575358965 10.142663832912039
v 31.55327800977302 10.076819796196002 25.252687752641002
v -6.6662406402743004 -3.2184214503965975 13.343295032198892
v -2.0663514506836371 2.4243198449512513 13.10576682306672
v 2.7426359188191487 -0.91995248311210909 8.7715870099367752
v 0.4840580000000001 -1.2449790038761215 17.079089206975627
v 26 -4.3061630425754922 33.119344992233856
v 0.91653715868077157 -0.2311597972309975 18.403980899759336
v -9.0009704270128736 15.071216163521346 1.2510167923817797
v 2.7415629812246829 -8.4208860641248062 23.720730622347354
v -10.185033181437401 1.2510593492456783 42.524204784100675
v -11.26533756934975 -1.6600906328869749 21.254984292077211
v -16.895257639866461 -1.2203525794000645 10.338871010477643
v -20.801405216192251 6.9684506028619531 0.69165106996844372
v -3.4714567261191611 -2.0519682510845145 22.036858677440126
v 2.0272926117600818 -5.3356557694535285 37.494428449658635
v -1.8206572320108829 2.5063454955890649 2.6545185155787561
v -4.360897584920771 -7.330871535238189 32.569328685990982
v -12.356657984398289 9.0197741818753343 -0.053486388664850892
v -5.2042676110043686 -5.5182459082639044 37.402913763869108
v -44.103667209342802 -15.644187176369842 12.361247466650669
v -3.2091764386397852 -6.4410918263259109 36.940380821105421
v 15.51231252464509 -3.7580847111089932 25.440902941756232
v -3.9751515232106289 -4.5876943001187103 39.597805203568221
v 7.456269285427485 0.075885335160231993 14.443700133259128
v -1.119708882175132 -7.4309461730342887 38.172759451012098
v -44.882083469628228 1.2628518028743716 16.025239992388261
v 5.0957489999999996 -15.013353573156191 11.073113905173754
v 21.140545677956979 -2.4191750626499848 22.769509859241225
v 9.9934935561108045 1.6031074960851361 -1.6079172688797172
v 3.4504019611360226 2.354434098868063 13.245202892459377
v 6.4199909461577471 -16.16899632871802 29.990667697422804
v 36.477392930101587 3.4714232972590602 17.132182172667932
v 5.1263682496550089 -7.2707865191377747 38.253031915330233
v 5.5627062727037444 -3.9300204106838152 38.198936803891577
v 6.6998130465112986 -6.8564765443591842 31.622815604639662
v 10.75659416425634 -13.471682598593882 30.891655972093439
v 9.0205006854910721 -5.7133135051779655 37.305145341348506
v 8.8485521755848549 -2.6573034736918766 -4.5655981944874355
v -37.427154739173012 -2.5865039884298984 14.095932155566048
v 7.1148277146990271 -10.495842479694163 14.209279990356194
v 9.4628270754261798 -15.013353573156191 11.073113905173754
v 13.07827078486407 -11.200706152632366 13.71994648347335
v 15.572369999999999 -15.013353573156191 11.073113905173754
v 8.2624796576265496 -19.253469270206573 28.960355975511206
v 10.61260999529366 -23.300881058161405 27.608392159443291
v -17.251123769801101 -5.1779461574342616 12.688750351438891
v 19.021143618810481 -5.3144033558835462 0.46308662780015908
v 14.75479663561117 -0.57471434419086131 -3.1198141638155015
v 18.131353507016481 0.18561876216149203 3.3571675775349519
v -5.6872174720933648 -23.29485889432905 27.59637673568259
v 18.262116805846841 -5.4648187541733915 12.592925618238525
v 18.534285092070171 -8.9417194522792158 15.288189998531648
v 18.745059667040461 -12.391461613875983 18.886112688118821
v 15.3699593910359 -17.102187552917918 29.678952251926241
v 18.68960101405467 -15.428359311783669 25.809677052001788
v 25.26004520016204 9.7121688986712567 -1.4349526130268835
v 24.774656457982658 7.1744196002044323 0.28070164156860855
v 27.545269999999999 -4.6256227833053956 39.578795342225668
v 26 -3.9332280665094737 38.197329117863632
v 16.5779477714065 7.0242774245249322 3.9279295641608858
v 20.84876278946177 13.361224629422749 2.1224606595529263
v 22.06182786234935 6.0170011327329993 5.9376476367517395
v 21.634585007301339 0.31009997662337579 17.32405917585335
v 19.21366945606739 -9.9157327153270138 6.6430702929538405
v 10.03886208153089 2.3514310613848766 13.251194554083707
v 17.434059999999999 3.6070861532001728 7.3982468055157575
v 22.711730488460539 -2.1254038854677777 39.103415629263679
v 16.616209423134549 2.2088537952919038 13.535664774163932
v 27.545269999999999 -4.6535791967171471 34.186550323438105
v 11.678480570854971 0.075885335160231993 14.443700133259128
v 15.45128161471497 -1.0842639740010502 20.10609470490752
v 22.269788806189549 -6.9016290658305186 31.712903934091511
v -18.613890000000001 -20.828729852350918 22.675955054569108
v 21.02056351943089 -4.5295493573435568 26.98012952192752
v -8.3228649719313204 -5.459279351772139 28.83512719005379
v 2.4625255986039658 -14.090978084929398 30.684791651672299
v 25.05910510022316 -9.805219686593869 34.158484945735836
v 14.628670184127801 -7.503225566774347 32.913209520757675
v 18.4949078863613 -6.4081993028328395 30.728412667562729
v 14.20179791342464 -5.3851774699329606 37.469608035540631
v -50.545270000000002 -10.76550053655501 14.806458789765431
v -47.036465521277528 -2.8943046879001564 13.941661588265198
v 27.545269999999999 18.412864688835295 8.5917746141309301
v 27.545269999999999 12.750787780545579 4.5008468368713217
v 7.2452521720933696 6.4385293399736012 1.7489501921211943
v 27.545269999999999 -2.0834285680959979 28.95986627544265
v 35.453700853445639 10.333031424630144 25.381101733946554
v 27.545269999999999 14.14797222125256 16.669244402940031
v 27.545269999999999 8.0892220425073145 28.345342253174699
v -27.545269999999999 6.5089735699890685 36.673621938627882
v 46.923560742603293 -0.21279528165239381 20.095504035712992
v 45.251461830951882 -3.2055186094187 18.595542773949802
v -26 7.6610188616663644 32.147496690149538
v 33.318617709214152 -7.5356469752991639 11.615407915200809
v -44.85344778179828 -6.9340869495089068 11.91691147449712
v 35.230680669053918 -15.656001812868606 12.355325937952863
v -16.44870786129605 2.8154051372412376 43.308259247213073
v -39.742482740220943 1.5105647974006411 16.149394434724261
v -39.397562204653553 -7.4124050444004954 11.677177113996365
v -34.689975895350223 -5.1567333234981394 12.807726058904525
v -31.51005109991646 8.9411149177553995 19.873606837091799
v -33.04905107470708 -1.4626160823992524 14.659227902275902
v -23.612857211923149 -10.936560175488232 36.415735955525747
v -27.545269999999999 17.662142517132388 12.073805892317866
v 7.99814710571225 8.0384069491376895 1.9045379186209619
v -33.048488839534883 2.9040261844406459 21.657663629817833
v -26 6.4049634856134938 13.992270104718584
v -26 3.946752395038132 18.07178651951963
v -30.088264989341759 -3.0229255884760664 13.877196434895689
v -30.66846453692358 -1.494087047105878 19.453317036545634
v -30.90092553330949 -6.7403319035132574 12.01402204284409
v -37.001728114785713 -11.860779925113718 14.257501711640893
v -26 0.067440618772920846 27.221984185682658
v -30.624098765089649 -5.6722419972822067 17.359214146123694
v -26 4.2375035497530282 34.343637461717194
v -34.934096235880048 1.9823934496853817 16.38587626852788
v 18.538838085221919 -12.606515639396093 22.529232680439335
v -43.033121575421163 0.36625485206796576 20.385725574450284
v -30.106791109868361 -8.7445409738593298 15.819369347687243
v 27.545269999999999 7.3301250236361337 3.3177023083413157
v -23.12023252423845 -2.3132685480820379 40.737753721080495
v -21.682714395644162 18.443525485648259 4.6697239946684874
v -27.545269999999999 7.3301250236361337 3.3177023083413157
v 27.545269999999999 -7.2135213050522706 32.335191458351304
v -27.545269999999999 -7.2135213050522706 32.335191458351304
v -21.103742292946659 14.31816307170411 2.6020808703478124
v -27.545269999999999 7.5481186938602356 39.631300283561359
v -19.66268975005444 20.306103187727292 3.8747567395944476
v -17.696072019256391 17.95775415867395 4.426254053502694
v -8.5322980453054686 1.7840098224368572 41.062824661050001
v -18.89616713522458 0.023934305281683499 41.909166296510435
v -19.23688178231755 -5.4212506473367492 39.180024442238349
v -27.545269999999999 16.487630441232259 6.583088885668964
v 19.58201 -20.936596743797228 22.891171120846405
v -40.834487809200432 5.8423371095524486 18.320490774543828
v -16.884669516280091 24.463113848080464 5.9582620531044252
v -13.092285803293841 24.463113848080464 5.9582620531044252
v -15.12321254926484 21.02529739281308 5.963715260592183
v -15.090684166071339 15.655120817546623 3.2721678138257353
v -12.529732918399221 19.106827456257324 5.0021727885592924
v -15.141921458407079 20.281967623434319 3.8626599275923592
v -11.89617785253272 21.918569996464655 6.4114259758595882
v -9.2367145591468436 15.485861234101401 3.1873344394892253
v -14.05768624652719 -2.4288287082787567 40.679834647142044
v -13.92588472683817 -6.9828418536717942 38.397350583121252
v 10.4421517098279 -21.504262683249078 24.023778437237318
v 10.3340595 -18.822272692447406 25.367999285624826
v 10.560972433048271 -16.809967467332356 14.657718687413094
v 10.3340595 -14.127977476530685 16.001939535800606
v -11.43637291851757 5.8477744861177321 43.099594821488772
v 10.3340595 -12.499890448436622 6.0582512426630508
v 10.361672600174129 -9.8275079983218045 7.3976567649168707
v 10.3340595 -7.8055947844462823 -3.307809401157833
v -10.942504220502331 -4.1623977988966621 39.810964993742552
v 10.3340595 -5.123604793644609 -1.9635885527703216
v -10.96024890816523 -6.7642328168602583 38.506918040843246
v -9.3659409999999994 -18.822272692447406 25.367999285624826
v -9.3659409999999994 -21.504262683249078 24.023778437237318
v -8.7995362684824556 -16.809967467332356 14.657718687413094
v -9.9616839845886638 24.463113848080464 5.9582620531044252
v -8.4579981945189715 22.253972329160987 4.8510341749413257
v -11.54644611747856 20.999420343280761 4.2222492277230561
v -8.958737431975802 21.164691554521724 6.0335800024274988
v -8.8530209358676331 -14.145408681547636 16.036718283235714
v -11.602590785719761 12.573355966370766 1.7275786926932728
v -9.2655456965765381 -12.499890448436622 6.0582512426630508
v -9.3659409999999994 -9.8179004576349485 7.4024720910505621
v -9.0306578111341889 -7.8055947844462823 -3.307809401157833
v -9.6324203610925831 -5.123604793644609 -1.9635885527703216
v -4.1276320000000002 -9.8994369403095135 0.86982533131947903
v -4.1276320000000002 -7.4707526256397792 2.7194417691401203
v -0.1179886 -10.152742616441452 1.3752209207526089
v -6.4002437855981356 24.463113848080464 5.9582620531044252
v -5.3441436522462933 21.241968970662167 4.3438152748716519
v -8.6148574809973795 19.653174489768148 3.5475070588285433
v -5.9878584726406956 21.501656949475265 6.2024679962810048
v 15.572369999999999 -10.323169053911933 1.715255819044895
v -6.1682672525237727 12.885379316476351 1.8839656642457925
v 15.572369999999999 -7.4707526256397792 2.7194417691401203
v -14.60425 -10.521655252635446 2.1112755645556938
v -14.60425 -7.7145391119975422 3.2058446672119274
v 5.0957489999999988 -10.122010000289981 1.313903192338957
v 5.0957489999999996 -7.7838310969907045 3.344096064233014
v -4.1276320000000002 -19.011723390334662 19.050663012569235
v -4.1276320000000002 -16.475125084489044 20.684969410712718
v 15.572369999999999 -19.157115075290719 19.340748562325206
v 15.572369999999999 -16.591338103237991 20.916837673624578
v -14.60425 -19.157115075290719 19.340748562325206
v -14.60425 -16.475125084489044 20.684969410712718
v 5.0957489999999996 -19.19366900519239 19.413680978332856
v 5.0957489999999996 -16.475125084489044 20.684969410712718
v -7.3813771037022367 -6.2830518256455994 37.019590909331789
v -8.2976615547448027 -2.0128994568897935 40.888299545627419
v -8.0857899917535114 -4.8461773241423254 39.468252792471063
v -7.1091764145480738 -7.1674913148870951 38.3048037592105
v -2.7490755739120081 18.97969279684915 4.9384525433998263
v -27.545269999999999 5.6863710492808455 33.619711803923778
v 1.426815425060395 20.719684020549494 5.8105409877754788
v -26 10.054127173194608 15.259340112416645
v 6.4903811280653123 -1.7324578816620595 21.399371456663633
v 1.4968438749152919 2.333735396611496 43.066845032539447
v 0.13335283121385991 -1.3003218555770752 41.24544542277971
v 2.1315598347949072 14.488990948035331 2.6877002774439411
v 4.9054329915380954 18.239997550413499 4.5677152270332098
v 2.5439791317969496 -4.494244273238464 39.644642617147554
v 5.0572808134371314 -0.55852866339778406 41.617234235392417
v 8.9160110083816324 20.098503526174547 5.4992035950132951
v 7.8256992604887454 15.37374553329736 3.1311417381856241
v 11.522190899364499 17.001939952631069 3.9471973130397089
v 12.19940421470262 12.765894504718377 1.8240795440210409
v 9.2358857136720083 1.414873588184931 42.60630893661434
v -22.307881168361149 -3.9021250654337503 25.72829231607961
v 8.227993113755069 -4.2060545297155212 39.789084118742863
v -26 5.5440117168428493 28.839657287702309
v 12.378398292718011 2.1002984542779846 41.221349403680279
v 11.79388758213001 -6.9358263605779591 38.420914879121867
v 13.47394476570082 24.463113848080464 5.9582620531044252
v 11.36856800054446 21.330321519765086 4.388097818400766
v 14.51602756070119 20.34770348147579 5.6241033062284878
v 17.374625618682931 24.463113848080464 5.9582620531044252
v 16.125363061860231 15.715298982861627 3.302329277780327
v 15.334952784104811 0.74392088662506461 42.270025575076097
v 13.153285693771631 -2.9302955658402183 40.428498062359346
v 16.884669516280098 -2.2684037129389947 40.760240101330083
v 16.406963408015699 -6.6535504492092743 38.562392351581025
v 17.483272019622529 21.525727470504531 4.4860358248004228
v 20.361509911864399 20.809247205481476 5.8554303053517796
v -35.896368459704433 9.8655426021050925 25.146795034897888
v 22.886006698482781 18.040436073439835 4.4676944593185564
v 21.020662765267279 -0.34201769625857892 41.725750134754918
v 21.863578860704418 3.4078412037421848 41.876693469100275
v 19.44845306627019 2.5512596322755474 43.17586878490691
v 20.184097992358161 -4.8281651938375667 39.477280522314416
v -38.506979442560663 -8.2777838721714474 16.053309306215663
v 20.233928691608948 1.0897836904268479 40.714876591391345
v 24.557367154226078 1.9835417636621193 42.891327008983211
v 27.545269999999999 16.523358808771032 5.7382559457313889
v 27.545269999999999 13.764755774902179 10.347824334814373
v 27.545269999999999 9.6070698613329224 7.6867340143705931
v 27.545269999999999 7.6519119286305015 13.13490601252542
v 31.120036419733399 -2.8971312319056173 13.940244916542314
v 21.002825433797149 -9.5086722054909245 33.566813289199928
v 26 0.023778196971132814 24.281905070089678
v -20.235658882663682 4.8059647189421231 5.0062437969597919
v 27.545269999999999 0.53810693815138388 24.098714782294095
v -16.751188660838579 17.060480704752671 2.2480417173263625
v 26 2.2822398303055067 21.751648642301671
v 31.687162726999929 -0.32517881307326324 20.03917709695876
v -6.1284118182574483 9.7121688986712567 -1.4349526130268835
v 26 -0.68477052678180028 28.606820193323053
v 27.545269999999999 2.3320404958309342 27.263694180184487
v 27.545269999999999 3.1345109211197135 31.388011177240696
v -1.6735570696135591 -1.675786013321553 8.7060990175645596
v 24.15959847255079 -2.0450313595704408 40.872194946568584
v 27.545269999999999 -0.62228529307162717 36.197139279580071
v 27.545269999999999 3.791668628284496 38.2673044910429
v 31.68599497381275 -10.209454414749036 15.085150653702323
v 34.656251239702499 -5.3216475424051035 17.534933062745743
v -27.545269999999999 6.7073799214643488 29.224440126839589
v 35.835032651009882 0.33568870338182449 20.37040573565158
v -22.115255244814801 -6.3970030952554717 30.706073989589193
v 21.55814768707268 2.2760514809467045 13.401591924046032
v 37.248414827048371 5.1748762271473119 22.795819991861354
v 40.560599648564683 1.4769191864416147 20.942393630239422
v -27.545269999999999 19.811209539692751 7.8895443116553068
v 6.7554348925439216 -23.300881058161405 27.608392159443291
v -13.09164348834107 -3.7580033063739711 13.163057226369681
v 19.09156894814436 -18.898393316794614 26.4682626600102
v 18.005904338725639 -5.8797185524817532 17.413905503390239
v 5.1024273622446339 2.1202889247974563 -1.2488773411280931
v 40.256902310862827 -3.4206895203839527 18.487698514471575
v -13.46401784297959 -8.6316856587875321 11.535089562563705
v 14.93214629017158 -6.531676210877615 16.961300638690474
v 44.812480221627418 1.6059347152631558 21.007056572384041
v 42.098822572887173 -7.8008221303411496 16.292363858786853
v 47.029925436054867 -8.5390889631566758 15.922342467302462
v -41.15511032332067 8.988780883459091 24.707359621151344
v -26 15.476790888828706 23.887777325639917
v -27.545269999999999 10.961544927533648 20.886251981617448
v -31.31680510247913 -12.320600312775822 14.027038453489705
v -27.545269999999999 -10.844941657023405 14.766642679071833
v -27.545269999999999 9.9194675193920556 34.975751203114413
v -26 12.664219543296021 29.499420833611818
v 27.545269999999999 7.3822030212199907 32.874846724742284
v 10.86028165570429 -6.7239785460447035 16.827799680048617
v -27.545269999999999 -5.8262936473235722 38.977015763256304
v -18.424065487699799 8.3711739032704209 -2.1070630372206374
v -19.84325941566323 9.7121688986712567 -1.4349526130268835
v -27.545269999999999 5.4423117866877728 3.736603865086165
v -25.618174907387129 4.06482093024721 6.4849741896694599
v -27.545269999999999 4.9480811486010099 8.0703572297095132
v -11.265091318134351 -11.604644021847152 10.542025236468309
v 15.417253369322649 12.596973215421986 0.010919340035663083
v -19.167522260846422 -8.9031704632914739 35.706380155357465
v -19.412924490664231 -10.926867296719731 36.396396719811349
v -27.534850732440649 -8.2800809722637627 31.115527554229661
v -27.545269999999999 -4.8314774300171468 27.582536536983106
v -27.545269999999999 -1.5830879795373394 29.619390085763115
v -21.096447944886151 -7.3177557670315894 29.195495908072047
v -18.036307539602198 -10.431777650028749 10.933800569618656
v -27.545269999999999 9.9569945572554044 6.5859336432456406
v -17.449141969159331 0.74080985418178713 -2.2065452664476481
v 8.197311731900971 -1.2658555966664948 17.120742193516481
v -1.2940603342678501 -1.4179183051280753 2.2770053854238483
v -16.46594 3.6070861532001728 7.3982468055157575
v -14.7348977103831 12.878024954659292 0.15178325401523551
v -11.256446344186729 9.7121688986712567 -1.4349526130268835
v 5.8494996903692247 12.022710471513555 1.4515936380150976
v -11.669930873638251 6.335974821398124 5.3012312016434997
v -11.256446344186729 6.4385293399736012 1.7489501921211943
v -22.0879301769527 -1.5328184641247031 17.653386616713394
v -22.512892688373459 2.7144826565904725 9.1791696698899479
v -22.504592041585479 0.393177522236623 13.810638630813857
v -21.924286278193719 -4.2869161965485487 23.148363547707234
v -11.256446344186729 -2.5658433429124745 19.714478280692123
v -11.913928800633331 -6.6807214038890228 31.272148875925879
v -1.526788909019277 -11.846206698902041 26.710690923190796
v -14.138507262582181 -8.9031704632914739 35.706380155357465
v -14.4287795482674 -10.936560175488232 36.415735955525747
v -11.256446344186729 -8.9031704632914739 35.706380155357465
v -18.613890000000001 -8.9591908293253759 -1.006154096893269
v -11.862951733477161 -11.616118313297768 13.431557257039204
v -10.237173175094791 -15.013353573156191 11.073113905173754
v -18.613890000000001 -18.182082772470608 17.395363709822171
v -4.1276320000000002 -15.013353573156191 11.073113905173754
v -15.62637995693593 12.662308641804309 1.7721620212096756
v -0.5626229214564602 -5.1977632134113829 -1.5811669708082654
v -0.56812555477696136 -8.0839653789452051 4.2631453390400793
v -1.067181613365292 -5.7992736448444182 7.4826992481780685
v -11.74514688271997 -19.736795219856319 28.798909789769056
v 2.0518627078007619 -0.41237261058293229 -3.0071125835387633
v -0.1179886 -7.8055947844462823 -3.307809401157833
v 21.298187053092231 3.6583533871353406 7.2959583992355324
v -5.0596884820376982 -6.0089808902701156 -6.8924141833971753
v -0.1179886 -12.499890448436622 6.0582512426630508
v -0.69770632543524991 -16.114996896979946 22.306226593891484
v -6.2265197169868021 -6.433089907381512 17.029741648594236
v -1.5731890045685151 -8.6626196620081295 21.081959270256274
v -0.1179886 -16.809967467332356 14.657718687413094
v -0.1179886 -19.46353056666926 19.952108877030668
v -0.53480594726949149 -19.332541085132615 26.187009915342898
v 11.93612128087516 8.3478677660282425 -2.060562622588062
v 1.690993197207932 -19.253469270206573 28.960355975511206
v -0.1179886 -21.504262683249078 24.023778437237318
v -1.0003772923281671 9.7121688986712567 -1.4349526130268835
v 2.041138431443251 4.7206604799471554 8.524107041552357
v -6.5517737623299146 6.2514977228226423 5.4697799435434575
v -6.1030678369697657 12.639173784930422 0.032070382933518715
v -22.45983814953507 -6.0782045799224127 37.122260919056004
v -5.6282231720933664 9.0197741818753343 -0.053486388664850892
v -2.0294787886007128 8.3487044735706668 -2.0622320218216039
v 18.12094867058239 -10.98251430120013 25.801994719658371
v -2.2659419999999999 3.6070861532001728 7.3982468055157575
v -10.642244686450219 0.075885335160231993 14.443700133259128
v 3.2340580000000001 3.4018669875683973 7.8077001693773074
v -27.545269999999999 14.686645755950934 19.459102246851998
v 2.1594628970614198 -4.7866215180084577 27.493040002853391
v -4.6701236376659132 -4.5420461186138734 27.005063065165324
v -2.2659419999999999 -6.1724724254179844 26.910426112789352
v 3.2340580000000001 -6.3326408836891792 27.229994286754795
v -2.6164200253442473 -10.936560175488232 36.415735955525747
v 2.1616561579504778 -10.936560175488232 36.415735955525747
v 20.971879785127921 3.8633499108200438 10.234613442465252
v -16.84760427443803 2.6159102823582829 3.4274541292982725
v -3.768100134620477 -8.9031704632914739 35.706380155357465
v -2.1498562893745143 -8.9031704632914739 35.706380155357465
v 5.0957489999999996 -14.296504656264318 9.6428566507000575
v 17.487191141739089 -20.09281540486856 28.679987764251706
v -3.7063404670048739 4.1688710798872135 9.6250374800040905
v 5.9515369497203441 13.753644569954098 0.59064624238325081
v 7.5512340390710087 8.3623284141531915 -2.0894145136877604
v 11.25644634418674 9.7121688986712567 -1.4349526130268835
v 11.25644634418674 9.0197741818753343 -0.053486388664850892
v 11.048961238813799 6.5180716460654695 4.9379115420054003
v 11.25644634418674 6.4385293399736012 1.7489501921211943
v -4.3298061604520237 0.63528375900227396 42.21557634433313
v -39.677733429065547 12.45083261721817 21.685828217253267
v 6.0794905575608604 -3.5568053605972931 25.039310298646278
v 3.3869887007375645 -8.9031704632914739 35.706380155357465
v -0.65497695 -10.703407158408181 10.843067521339824
v -1.72895365 -3.5172121626959054 13.243489262619359
v -0.65497695 -11.901476015595263 13.233454999053347
v 6.8182008165871366 -8.9031704632914739 35.706380155357465
v 7.3447136592841282 -10.936560175488232 36.415735955525747
v 11.84131756316909 -5.3848821199677044 28.686689802490434
v 1.428190609789193 7.7094489214024753 2.5608751111574737
v 11.25644634418674 -8.9284868996522277 32.409227327833392
v 11.25644634418674 -8.9031704632914739 35.706380155357465
v 7.7599845896465496 -9.5955651800873962 37.087846379719494
v 21.649065438619459 7.0673694348324752 0.49428817564569627
v 7.2302796257193851 -6.0089808902701156 -6.8924141833971753
v 11.25644634418674 -6.0089808902701156 -6.8924141833971753
v 9.9037016638933615 -7.3139295365571524 11.97526276234375
v 11.205291162172539 -14.296504656264318 9.6428566507000575
v 15.578463573695201 -11.031329721242164 10.733530770701627
v 14.22444561158377 -6.2876478555093422 12.318074063920449
v 15.572369999999999 -14.296504656264318 9.6428566507000575
v -6.9920133802109774 -8.5851632537913485 4.9429143137973757
v 19.57366809244526 -8.7574556679531828 -1.4086561740199635
v 15.463200039178581 12.591193914307157 1.7365191218487812
v 18.25197993703717 1.6986300016321796 -1.5416032220361267
v 18.866145213545199 -1.8604978004089379 -4.012436314564777
v 19.58201 -10.941779278292007 2.9495071937242496
v 19.58201 -18.572312429433055 18.173950082249526
v 18.361394226217921 -15.133479108912246 30.336563268577446
v -27.545269999999999 10.839305378874545 3.3013159110707271
v 19.987843875591199 8.3711739032704209 -2.1070630372206374
v 19.666718446817629 9.0197741818753343 -0.053486388664850892
v 14.718376661700351 9.0197741818753343 -0.053486388664850892
v 16.20535538284313 8.3711739032704209 -2.1070630372206374
v 18.974724818317931 14.01898442267345 0.72363531510787027
v 19.613737176789019 9.7121688986712567 -1.4349526130268835
v 23.766556937795599 8.3711739032704209 -2.1070630372206374
v 21.570526288415749 1.2114197441672563 12.17808141233167
v 17.434059999999999 -6.1724724254179844 26.910426112789352
v 22.73245520225105 -2.1786005399964403 18.941851280689377
v 23.12158763572269 -4.4434768681422296 23.460733464206548
v 19.70311765661074 -8.9031704632914739 35.706380155357465
v 21.57007153321036 -10.919609649733111 36.381916259551978
v 13.94888517351967 -9.5955651800873962 37.087846379719494
v 15.046797427751381 -10.936560175488232 36.415735955525747
v 8.9956329679142257 12.103783877971827 1.4922278549900927
v 23.238899467893681 -6.6112279512537953 27.785831318795605
v 24.107393971965909 19.681369864168744 3.5616386589565696
v 26 17.7133241945095 8.3360001101638268
v 24.093499864540298 13.819807492866174 0.62380728350334991
v 26 10.471856001203614 5.0004159398753689
v 24.837055872282569 3.5772509682141611 7.457773978898155
v 26 4.9480811486010099 8.0703572297095132
v 27.545269999999999 6.1605547462906589 2.3035652160208198
v 26 3.16979593130766 36.407375282545189
v -4.5767883166458709 15.917253563220934 3.4035494755727829
v 26 -4.8314774300171468 27.582536536983106
v -1.7396699841541159 -12.449880262436654 31.232970337429194
v 27.545269999999999 -8.4706057201389147 31.495662609726033
v 27.545269999999999 19.527636664341912 3.4845871513054227
v 27.545269999999991 15.14181486911191 1.2864010601268063
v 26 11.537083791659137 26.123521817222013
v 26 15.016773961046981 24.805603289572783
v 27.545269999999999 9.3381975626182268 24.882488233305352
v 34.86601786257561 10.25794478741415 20.533605633002889
v 26 17.30564538298314 20.238846085034094
v 26 19.699026098010215 15.46357189584082
v -18.370112617876451 7.9938165117397793 1.9935047776978205
v 26 15.197100901014172 12.39117657008935
v 26 11.736370224814971 21.355779081097133
v 31.063799133454289 -15.656001812868606 12.355325937952863
v 27.545269999999999 -8.9182246595943582 10.922456131592771
v 26 7.553297008201393 27.686389635177044
v 26 12.664219543296017 29.499420833611826
v 26 6.4804936742786614 33.470389969807286
v 40.191851525292677 10.003707847869457 25.21604384064139
v 41.111407451725107 10.961544927533648 20.886251981617448
v 48.240482467104343 1.5233569949569261 20.965668389121372
v 43.446481178640603 -1.5362301031539491 14.622332350177842
v 48.028629985405637 3.6732900134526263 17.233358332695957
v 47.362931987825597 -3.9501801987263474 13.41245384333617
v 45.15526193845249 -13.729284815439559 8.5111393904738009
v -45.828338725862572 4.0648855333225979 22.23948956659034
v -42.855435695263218 9.123968883916115 19.965253753883651
v -3.0304367292230356 19.585277229372771 3.513476762934495
v -43.587228345860439 -11.47281826954935 14.451949173254526
v -38.866609689267293 4.4097247049238391 22.412323919215389
v 3.2340580000000001 1.7388761613643149 11.125700151318217
v -39.304378088284857 -15.656001812868606 12.355325937952863
v -34.157819449164514 -6.9840738011853869 16.701720394680812
v -26 9.8006144084621347 3.8992410247744491
v -27.545269999999999 21.197789882365345 12.473237775492681
v -27.545269999999999 6.6031023532149975 11.628496200583314
v -27.545269999999999 8.8714465769060862 19.838688870744647
v -27.545269999999999 10.142002696375448 15.748721411296831
v 16.51267211691767 -13.126096825268515 12.383293445257884
v -27.545269999999999 6.8129343952437473 23.61681930504988
v -27.545269999999999 1.8429919984617487 21.125870342543713
v -25.226021578528389 1.7975829818116058 11.008568278962347
v -27.545269999999999 2.5031915039464696 12.948402056527911
v -25.929418376851 0.49786054711371591 13.601775016427876
v 7.5749450582471836 9.0197741818753343 -0.053486388664850892
v -27.545269999999999 2.6073824656931528 25.647382028681065
v -27.545269999999999 -0.63551763657601534 24.20383460915145
v -26 -5.4204941139374174 34.523986983440068
v 23.886038184938471 -8.1319129339293426 30.819902623068735
v -25.59087009677565 -3.8098738447111291 22.196568450680427
v -27.545269999999999 -2.7079467650177231 23.278848711763978
v -27.545269999999999 -2.8959716086917564 13.940826122924772
v -27.545269999999999 -4.8226886061208045 17.785012670403834
v -27.545269999999999 -0.90505686345940073 19.74854060408417
v -27.545269999999999 1.722752222214728 33.608786042750005
v -27.545269999999999 -1.1230812584535839 41.334278903385965
v -27.545269999999999 -7.129668754452827 16.628747798857066
v -25.216583982591871 -1.0008122858003066 16.591927670423225
v -22.125645961242881 -2.5723624485917131 38.879398753370367
v -19.430396893466121 14.735287960432087 1.0826486419775492
v 20.262977500762801 -7.7802450166215591 30.118254649495835
v -18.75714923091434 5.8477744861177321 43.099594821488772
v -0.4665587360319785 -15.857508440540865 18.189965520366943
v 7.6722329095230686 -15.294001707719904 18.328391562514135
v -15.081318674787029 23.77071913128454 7.3397282774664578
v -12.884773916683461 16.933959655264481 2.1846290151667045
v -14.12244768718995 0.90349444531985701 40.62150790322994
v -13.43452985871744 -4.2430666597678872 38.042037152523918
v -20.362871317629871 -9.6096988700345634 37.080762534978547
v -10.98374961721942 -2.8708698916272613 38.729785992061252
v -9.1015566003263402 23.77071913128454 7.3397282774664578
v -8.1320521437327784 9.0197741818753343 -0.053486388664850892
v -5.3448957821296741 16.984344162835509 2.2098818706005421
v -26 20.30082249654911 5.6006064260956325
v -8.7526173725473129 -8.9031704632914739 35.706380155357465
v -7.7211159645318794 -3.0002922937218499 38.664919123899701
v -5.808149746424208 5.8477744861177321 43.099594821488772
v -3.1387113637727708 24.463113848080464 5.9582620531044252
v -0.71597767631639542 22.18621029591003 4.8170716552684478
v -1.7763568394002505e-15 17.294834621868858 2.3655005528810378
v -0.071192179732793903 5.8477744861177321 43.099594821488772
v -2.2367050897671064 0.56725275998532276 40.452982634651832
v -1.11673153618709 -4.0493621937637396 38.139122370038365
v 2.1425349035676202 2.616482064658507 41.480062065938213
v 1.7322317787471351 24.463113848080464 5.9582620531044252
v 5.5114976022153623 21.800865654345134 4.6239358483554938
v 5.8028383573759008 17.885431509193026 2.6615093566635668
v 4.6852219969112703 5.8477744861177321 43.099594821488772
v -20.04964376485832 -9.1995166287223373 32.949985954994759
v 6.0458926318228858 1.4673392371091998 40.904108482269159
v 23.774537399246491 7.7549089105851463 2.4701733220012265
v 10.58409916671186 24.463113848080464 5.9582620531044252
v 10.37899067235111 17.309338219505261 2.3727697963854268
v 11.25506402144733 13.497928885524285 0.46248082959306913
v 12.19807821559918 -3.1017300933839249 38.614078216369109
v 9.2040400552216539 5.8477744861177321 43.099594821488772
v 9.3839666295524964 -0.61675889499292624 39.859552697622192
v -26 7.5089187251034852 10.606555673445879
v 12.371943474627381 23.747226279762856 7.3279535948942538
v 24.02371143178128 -9.5603445847171287 37.105499040151386
v 14.57720702421736 17.718439381412853 2.5778124374175686
v 14.18045783087017 -0.70814876046629938 39.813747842674204
v 17.795960388743541 -2.1390225108715999 39.096589936305463
v 18.577222656583501 23.77071913128454 7.3397282774664578
v 20.13660965589991 18.453572605711628 2.9462632555913419
v 19.648821120942529 5.83209406376724 43.09173575016213
v 26 14.401816493537273 6.2843643204982751
v 26 11.678337742577929 9.9160336503059714
v 26 10.654079365975374 15.329932406533224
v 26 7.2077627178968564 19.726520669883239
v 26 1.37819604411815 15.192993461709776
v 26 2.6980902289443702 12.559540040073239
v 27.545269999999999 6.2867790681834457 23.353108790636963
v 25.305495154695031 -0.29197709154724938 15.177659398661817
v 27.545269999999999 -4.4460485919285695 13.16392322447297
v 26 3.4711085355613025 25.697018414711923
v 17.773936455022561 11.104342145173877 0.99130487668547573
v 27.545269999999999 1.8429919984617487 21.125870342543713
v 26 3.1364010902946657 30.552182207443934
v 26 -3.5115832451909279 24.949083115346571
v -2.1228103000000003 -18.13674901700081 17.304913782221881
v 34.77961712015103 -1.6812860497639861 14.549629905991049
v 5.2783318133832786 -7.6161007304478323 11.874327802488587
v 33.562468301490483 5.7189450875301242 18.258646349659333
v -23.71419847850424 20.999252703278746 5.9506615897053017
v 38.508492177547119 -9.1181934675883447 10.822231208436971
v 34.102234961972528 -13.737778041871898 8.528085079352584
v 40.687993412340568 6.2037587647416803 18.501636314098533
v 39.517861405121117 0.90892064901011582 15.847848712946547
v 39.941732589625083 -4.4407827971337577 13.16656245548084
v 38.935937890267567 -13.729284815439557 8.5111393904738009
v -5.8159414999999992 -8.9284868996522277 32.409227327833392
v 43.977014200722898 -6.7495291389555252 12.009412362841022
v 45.130959794286852 6.7263881185053043 18.763579600881034
v 44.388339053658576 2.4483492986173574 16.619414636944846
v -50.545270000000002 -5.8620927024263905 17.264060444278744
v -45.025785376746917 -13.729284815439557 8.5111393904738009
v -26 19.699026098010215 15.46357189584082
v -4.1177728158776006 -8.975203448841274 11.420343501226196
v -27.545269999999999 -8.9182246595943582 10.922456131592771
v 7.8685336142181548 -6.3303402047349833 0.4440904368634726
v -21.33315959824041 24.463113848080464 5.9582620531044252
v -27.545269999999999 3.3759960028144067 7.8593179688227011
v -26 4.9480811486010099 8.0703572297095132
v -16.46594 1.8414857441802017 10.920973469387443
v -2.2659419999999999 1.8414857441802017 10.920973469387443
v -26 -4.8314774300171468 27.582536536983106
v -6.5242802953186736 -15.237847233222729 18.21635213185003
v -17.73427122538568 -9.9159054501895678 14.611886382647292
v -16.70217127805514 -9.5955651800873962 37.087846379719494
v -16.957540984579669 3.5896695970776951 -0.22879753716323137
v -0.72721551187334299 -2.4784768215676865 -4.4414523827969496
v -1.0837442861141739 -0.41237261058293229 -3.0071125835387633
v -1.2133979683082321 -15.971273625221068 30.056713347024989
v -5.6282231720933664 -10.936560175488232 36.415735955525747
v -3.7405470454146554 -9.5955651800873962 37.087846379719494
v 3.8934437723076281 9.0197741818753343 -0.053486388664850892
v 11.25644634418674 -2.5658433429124745 19.714478280692123
v 1.815688149332674 -9.5955651800873962 37.087846379719494
v -18.509917870715071 -0.63031899197395991 39.852756339272396
v 10.93470154017497 -10.936560175488232 36.415735955525747
v 18.984751166523392 -10.300118855594325 10.977778868673944
v 20.949282591675491 7.7270515591706621 2.525754321026433
v -27.545269999999999 14.837475077714569 1.135064479914238
v 20.299344367009251 -9.5955651800873962 37.087846379719494
v 2.6099494666053769 -6.2022182113459863 17.242794485877894
v 26 8.1836036186878847 8.6535972108901493
v 42.978687682763741 -10.238636013872989 10.26066228562156
v 26 21.878297074376867 11.115489545480617
v 17.777504335291191 -9.9555006004261806 29.105611023745887
v 27.545269999999999 4.9480811486010099 8.0703572297095132
v 22.463196934644309 5.1177305651555738 44.46219115993064
v 27.545269999999999 -4.8314774300171468 27.582536536983106
v 27.545269999999999 19.699026098010215 15.46357189584082
v 27.545269999999999 10.961544927533648 20.886251981617448
v 27.545269999999999 -10.844941657023405 14.766642679071833
v -0.86738969989286874 9.0197741818753343 -0.053486388664850892
v 27.545269999999999 -0.24768692572893355 41.773028979502769
v -0.59254051864895785 -9.4550067463513372 7.3791638113158253
v 45.025785376746917 -15.656001812868606 12.355325937952863
v 50.545270000000002 -10.844941657023405 14.766642679071833
v -50.545270000000002 -7.3894496358001174 11.688682428680503
v -24.078582298722829 13.078850734107231 0.25243769364903201
v -7.514721450514311 -9.7814071975878587 14.705258341143697
v -46.270801032848233 5.5254070212849173 18.161644532167223
v -12.9918024393808 3.3588366368951834 -0.3890473929110918
v 8.6987233589569932 11.789709971081887 -0.39368324494808604
v -24.731816202279731 -6.388987708355919 27.3424174945565
v -39.256964420516383 -13.729284815439557 8.5111393904738009
v -27.545269999999999 18.898650047259697 3.169337308114951
v -26 16.830925861813675 3.8614845747248054
v -26 21.371172958336853 12.127303790844394
v -4.5635596311978066 2.851513486511239 -0.74124346405405106
v -18.705688325892179 11.423232703991117 1.1511337123583303
v -27.545269999999999 3.9015041801240828 17.347739908238474
v -27.545269999999999 1.0216601339696469 15.90435405660511
v -27.545269999999999 1.6599186433466582 11.283236223813985
v -26 3.6281869637747892 10.703810651346048
v -26 2.5031915039464696 12.948402056527911
v -26 -2.5814865103605098 23.09335372661938
v -27.545269999999999 -3.3053197586649521 21.189881930219741
v -26 1.2692261919698324 20.838297323321608
v -26 8.3661269311292106 37.971958776733238
v -27.545269999999999 -5.4911253176647783 25.55100208254326
v -13.8431411336636 8.3711739032704209 -2.1070630372206374
v -27.545269999999999 -6.3139264290582666 12.228664584924992
v -21.2906319125319 9.0197741818753343 -0.053486388664850892
v -20.64041297373922 23.77071913128454 7.3397282774664578
v -19.73403447326238 5.1553797693218097 44.481061045850808
v -27.545269999999999 2.8583514243669561 38.747560972470929
v -8.0729604446184347 8.3711739032704209 -2.1070630372206374
v -10.60127787939841 -10.936560175488232 36.415735955525747
v -7.8231279003014933 5.1553797693218097 44.481061045850808
v -3.0730968488166406 23.77071913128454 7.3397282774664578
v -2.6851718067314545 5.1553797693218097 44.481061045850808
v 1.0020218444337381 23.77071913128454 7.3397282774664578
v 5.6282231720933691 23.77071913128454 7.3397282774664578
v 5.4482965977625248 5.1553797693218097 44.481061045850808
v -4.3243155893918868 0.1025374492720284 17.738188015983745
v 3.2340580000000001 4.9201981637710004 4.7783251807492473
v 0.73297856323341648 7.6009627953912542 -0.57033751729276005
v 11.076519769855899 5.1553797693218097 44.481061045850808
v 16.01150551098949 5.1553797693218097 44.481061045850808
v 20.597846644302741 5.4287215248883323 3.7637191610304264
v 7.4019534976836354 -11.439970372034237 10.597031565890571
v -3.4386099971049644 10.979670389569092 0.92881904576746877
v 27.545269999999999 2.5031915039464696 12.948402056527911
v 0.17702508784364571 -3.115186997191457 24.158193157940225
v 27.545269999999999 -5.8749992602414078 17.257591641577999
v 27.545269999999999 -2.3865877853626083 22.704491710164707
v 22.58021911464478 10.749750571991624 0.81358259324338533
v 27.545269999999999 3.5061186274242178 17.149571568717004
v 27.545269999999999 1.0216601339696469 15.90435405660511
v 27.545269999999999 -2.2460518588602376 19.076430179890416
v 27.545269999999999 -0.90505686345940073 19.74854060408417
v 0.64328839134229199 11.593270775479747 1.2363572670690246
v 27.545269999999999 8.5676055320446771 37.672986797518561
v -10.15251705258812 7.7368904141000945 2.5061238336155753
v 39.397562204653568 -15.656001812868606 12.355325937952863
v 44.722078755138078 5.2242874045766925 22.82058501151905
v 24.65226636926878 -10.936560175488232 36.415735955525747
v 46.743617379078877 3.1005123171109328 21.756143026407784
v 50.545270000000002 -4.0443026776966686 13.365279394897605
v 50.525272522887803 -7.7376499694503087 16.32402592165748
v 50.545270000000002 -7.5084254592848039 11.629051414795033
v -26 1.0367143302725284 40.688278080369798
v -26 -3.9332280665094737 38.197329117863632
v -11.256446344186729 -9.5955651800873962 37.087846379719494
v 27.545269999999999 3.6070861532001728 7.3982468055157575
v 27.522133209821249 -6.2920341257087404 27.148975666493786
v 26 18.959658975439339 4.9284115363474879
v 26 1.0367143302725284 40.688278080369798
v -27.545269999999999 -0.31933486143118972 15.232243632411354
v -26 0.98839859412234699 15.970717494619123
v -25.09168676758722 -2.5361408895112625 19.655215933422429
v -27.545269999999999 -2.2460518588602376 19.076430179890416
v -26 -0.90505686345940073 19.74854060408417
v -9.2839231512254443 -9.5955651800873962 37.087846379719494
v 26 16.118449692282997 3.504389535464
v -26 -0.071616976860266912 36.462889322832581
v 27.545269999999999 1.5847092862586194 11.433293964077956
v 27.506362124103109 -3.6744627943287735 21.926396267139999
v 27.545269999999999 -0.31933486143118972 15.232243632411354
v 26 -0.87179487553848778 19.682176272073498
v 0.34549817293107671 1.8435172061856882 10.916920295556711
v 26 14.376311909610591 16.634208200965539
v -26 14.02309086346979 16.503297799799679
v 27.545269999999999 10.833018267872921 1.7486857576964638
v -27.545269999999999 6.9067428449790942 0.8147704139327665
v 15.33250323222714 5.8477744861177321 43.099594821488772
v -9.6965323203153364 12.686944172829307 0.056013034311590104
v -17.260258296691461 -1.9299913992872626 6.0660645003529989
v 2.6888916827301834 8.3711739032704209 -2.1070630372206374
v -7.2588758030711524 7.709250750272477 2.5612705022777327
v -44.77442014865381 -7.5410061065259422 16.422584373089798
v -1.4298382755001491 -4.4492183324989929 10.441205486583495
v 21.81572651166595 11.947009167749393 -0.3148444497548688
v -26 2.2545087422604091 30.789254823385235
v -27.545269999999999 -4.2154117778716129 31.179552171105431
v 17.124114770264459 -9.5955651800873962 37.087846379719494
v -27.545269999999999 -2.4645629058588221 32.573951545669388
v 22.83335922340882 9.0197741818753343 -0.053486388664850892
v 10.755119266269119 -7.582294277778451 2.9419897194655871
v 26 7.7317875585688833 6.1388877658348537
v -27.545269999999999 -6.5652933347249105 35.86144396962117
v 0.24612108601535351 -9.7451388729240609 34.038611681536025
v 22.851558828305372 -8.9031704632914739 35.706380155357465
v 2.9875399486996121 11.70579774505096 1.2927560974234513
v -25.97297055523374 6.8738603781542533 4.2280417170828102
v 26 6.9839276652381725 4.008435420522332
v -26 -6.8673239466543095 31.644458346170286
v 26 -6.8673239466543095 31.644458346170286
v 2.3411420834394709 -4.7794869227666164 10.214690146544964
v -47.579035082416922 -10.344840352243526 10.207432375623201
v -27.54006036622032 -6.8856031449642687 28.333264818386453
v -17.10010561269284 -6.2408743965510194 17.163182331669709
v -17.28907856302316 11.295096926665275 -0.64158467950582221
v 1.6836860505573159 -7.812813268445872 33.530899030747307
v 7.7269257393466262 -3.2891016932838051 13.319685543198581
v -5.4670445179847427 8.3711739032704209 -2.1070630372206374
v 10.85443488158311 -9.5955651800873962 37.087846379719494
v 6.7518717152178596 -12.272075064900427 31.292362908773967
v -24.72506949975957 7.7612669245064483 2.4574878100046185
v 32.045270000000002 13.845888085949802 27.14175527021548
v -0.79898851840316309 -7.6675967506482596 33.24116297457806
v -11.57295773367834 14.351536651155694 0.89031141764244381
v -23.117036902500729 4.3471353292725565 5.921700384361765
v 8.1922404350580127 9.7121688986712567 -1.4349526130268835
v -6.761194172093365 -2.5658433429124745 19.714478280692123
v -6.761194172093365 6.4385293399736012 1.7489501921211943
v -29.727715620902028 -0.097912362140545495 15.343221205358814
v 2.06382861680056 9.7121688986712567 -1.4349526130268835
v -26 5.4021982946118356 22.966620580838299
v -18.141751265259071 21.344023616376315 6.1234617309783221
v -8.3130387404659167 11.092524015595695 -0.74311478637131856
v -25.320145805819081 7.5416649209568956 -0.45202637377825283
v 4.7878363694896118 -9.5955651800873962 37.087846379719494
v -27.54006036622032 -9.6083205738759947 33.765631754877703
v 1.5008290008657601 -11.521523690847253 10.569790117576259
v 7.6266674952907643 4.6894814914319669 8.5863153722900982
v -0.89188318461358662 6.2901981010276211 5.3925649329962688
v 32.261523356386313 2.9660672801160679 21.688758799654309
v 32.71428834314213 6.7214120805946758 23.570948066206373
v -8.9471063876754542 12.785102530434575 1.8337066599732381
v 30.562846276180402 -3.0049467127177056 18.696069966844178
v 27.514247666962181 -4.9832484600187579 24.537685966816895
v 17.963917381555621 -10.936560175488232 36.415735955525747
v -20.925910717043958 7.8214758407630081 2.3373589554709184
v 1.776278687551903 -15.410376568759906 22.621824218282484
v -3.4809852652542519 15.016159724017562 1.2234223516594831
v 18.08106294318571 -8.0576062884125204 20.587851728170474
v 26 0.22866888777046851 33.657371499001641
v -18.222219924701999 -17.453864544510349 22.046753908327517
v 27.545269999999999 -7.1245721884022704 35.637198351578803
v 22.436891188475531 9.7121688986712567 -1.4349526130268835
v 0.054116446314608879 -7.0775118646257766 36.621405326510619
v -11.030957325428689 8.3711739032704209 -2.1070630372206374
v -3.8578492843126426 -7.0916297401030484 38.342825791643861
v -3.9470825860466832 -9.9325235375702299 34.412481641679562
v -26 -3.9270653030913953 30.08080293947647
v 26 -6.4181992649004691 36.951854636610548
v 26 11.50474538026633 1.1919880925882325
v -0.96242944804099051 -9.5955651800873962 37.087846379719494
v -6.5122350983200494 -9.5955651800873962 37.087846379719494
v 0.61856620568152509 -8.9031704632914739 35.706380155357465
v 27.545269999999999 16.712944232460504 13.052413603234468
v -9.9963855857700921 10.515029050017844 0.69593951311090052
v 27.545269999999999 -9.7035829478135742 33.955699282625886
v -17.36230243533371 -0.46293767096692118 1.5486004341964144
v 27.545269999999999 8.5211469611536916 0.94137484765721879
v 27.545269999999999 6.1391030861185696 5.694029769025418
v -27.545269999999999 -6.0224993675347109 29.958863997667208
v 27.545269999999999 -6.0224993675347109 29.958863997667208
v 27.545269999999999 -8.4045432425698312 34.711518919035399
v 22.59728929406155 -5.7038369703023566 37.309895007004954
v -27.545269999999999 12.037238052161804 30.750374563169743
v -3.5643945552928074 9.7121688986712567 -1.4349526130268835
v -8.3902905936713843 9.7459642323687099 -1.4180142977124568
v -26 12.925350021844507 1.9039990930299791
v 27.533701604910629 -7.3813199229238284 29.322319138109911
v -24.090873813016039 17.058717552486232 2.2471580205028996
v 20.336479733946842 -5.4901929177095115 25.549141757768169
v 2.1847906100009178 -1.5838479588964909 39.374844967017225
v 26 18.515940842414885 11.818891111872134
v 17.013790335704218 2.7482117803782113 41.546085366110802
v 1.6480397419227379 -11.756926787058509 13.333804589524156
v 2.0206037221754731 12.586483235589146 0.0056617329458426013
v 6.1883887635640278 24.463113848080464 5.9582620531044252
v -15.54985287992498 9.7121688986712567 -1.4349526130268835
v -32.284209974822808 4.4838488807885843 17.639612693098204
v -30.799583744551288 1.8996115663222353 16.34438575817282
v 12.420375466501209 -2.4185266948256348 -4.3998335465836043
v -27.545269999999999 -1.3702714054833978 17.329072658309023
v -27.545269999999999 -6.0880562410900758 14.811126343341908
v -1.6170747483788299 13.047975285199609 0.23696283271841878
v 15.24903786138109 -12.537704961867547 31.20363410429843
v 24.185296376479869 5.4824429876441565 3.6565340763955767
v -13.620626171422151 0.2996787515773634 17.344851608360869
v -7.2763035288464479 -1.9758877010095361 21.885062732569498
v -27.545269999999999 2.3398400468643543 29.170648358648762
v 31.647790199423099 1.4368067482140097 16.11242669517523
v 46.661103275917547 4.1725853121597458 19.834180015710238
v 15.479782000398741 -8.9031704632914739 35.706380155357465
v -19.350325877298591 1.8393643007548668 10.925206174184147
v -14.4255315875474 -15.013353573156191 11.073113905173754
v -6.4540933432251091 0.075885335160231993 14.443700133259128
v 27.545269999999999 21.573092412895509 11.724434011876102
v -1.8786760495930632 13.950241826590615 2.4176777182322375
v 15.435091760487881 9.7121688986712567 -1.4349526130268835
v 0.28966339655402962 -6.5380049921388137 30.987401032372983
v 14.750613579333869 -23.300881058161405 27.608392159443291
v 15.419228172093369 -6.0089808902701156 -6.8924141833971753
v 11.25745715491635 -17.223082271996972 29.638569584109987
v 30.49897994485698 7.9293396139224557 19.366502238655428
v 31.29314433183422 13.14259855332531 21.979402129565603
v -26 10.797349723027219 11.167095780727873
v -2.2659419999999999 -4.3691578841652294 23.312452196740736
v 17.434059999999999 -4.3691578841652294 23.312452196740736
v -23.19660810854586 8.3711739032704209 -2.1070630372206374
v 7.2452521720933696 -2.5658433429124745 19.714478280692123
v -17.24266500859488 -12.762981976144097 27.954250049513611
v -14.28207872701247 -13.042029363613937 31.035173770029921
v 22.620635519374559 24.463113848080464 5.9582620531044252
v -23.258549911120831 -5.4258229542329461 39.177732789295504
v 18.293893586445421 -5.591462652267742 37.366217327984351
v 37.12878947612915 -10.09148422249908 15.144277642413893
v 8.7974567288801993 19.624146902183401 3.5329583511362586
v -19.62166516718451 6.5336498632233049 4.9068298767106171
v -0.66569328415411611 -19.636077341691241 28.832552753234147
v -7.1225220053586984 18.615005111951731 4.7556700606647766
v -22.65684481973015 11.168733562009935 1.0235780340295015
v -35.906309312602943 -1.36250738113046 19.519265131368744
v -23.694264707831611 9.7121688986712567 -1.4349526130268835
v -26 17.630958013322331 19.589782190884794
v 27.545269999999999 18.862677521622704 12.128698405060288
v 2.6218441617228265 -4.0205694884256413 13.075351622458619
f 825 3 1 
f 1 3 874 
f 338 158 1 
f 1 158 825 
f 1 282 338 
f 874 282 1 
f 2 4 337 
f 826 4 2 
f 2 337 871 
f 983 826 2 
f 2 871 983 
f 3 170 374 
f 825 170 3 
f 3 374 715 
f 3 715 874 
f 4 276 718 
f 826 276 4 
f 718 337 4 
f 5 6 136 
f 633 6 5 
f 136 117 5 
f 5 117 633 
f 137 136 6 
f 171 137 6 
f 484 171 6 
f 533 484 6 
f 633 533 6 
f 724 17 7 
f 7 17 897 
f 831 174 7 
f 7 174 879 
f 7 521 724 
f 879 521 7 
f 897 831 7 
f 8 9 958 
f 1102 9 8 
f 8 379 662 
f 958 379 8 
f 8 662 853 
f 8 853 872 
f 8 872 1102 
f 1005 958 9 
f 1088 1005 9 
f 1102 1088 9 
f 136 12 10 
f 10 12 534 
f 535 136 10 
f 10 224 612 
f 1103 224 10 
f 10 534 1103 
f 612 535 10 
f 11 13 219 
f 829 13 11 
f 219 178 11 
f 11 178 829 
f 12 136 137 
f 12 137 171 
f 12 171 729 
f 729 515 12 
f 12 515 1045 
f 539 534 12 
f 1045 539 12 
f 241 219 13 
f 536 241 13 
f 537 536 13 
f 829 537 13 
f 14 19 892 
f 898 19 14 
f 745 185 14 
f 14 185 898 
f 892 383 14 
f 14 383 899 
f 899 745 14 
f 15 16 181 
f 1007 16 15 
f 15 181 542 
f 974 381 15 
f 15 381 1007 
f 15 542 974 
f 359 181 16 
f 16 182 359 
f 1007 182 16 
f 17 724 881 
f 17 763 814 
f 881 763 17 
f 17 814 897 
f 18 723 978 
f 1048 723 18 
f 992 896 18 
f 18 896 1100 
f 18 978 992 
f 1100 1048 18 
f 751 187 19 
f 19 187 935 
f 898 751 19 
f 935 892 19 
f 605 550 20 
f 20 550 980 
f 936 605 20 
f 20 737 936 
f 980 737 20 
f 141 30 21 
f 21 30 577 
f 21 105 141 
f 558 105 21 
f 21 145 558 
f 577 145 21 
f 22 32 190 
f 215 32 22 
f 22 190 556 
f 556 215 22 
f 23 34 580 
f 1074 34 23 
f 580 124 23 
f 23 124 838 
f 23 838 1074 
f 24 36 223 
f 329 36 24 
f 24 118 135 
f 157 118 24 
f 24 135 329 
f 223 157 24 
f 500 269 25 
f 25 269 543 
f 561 500 25 
f 25 543 894 
f 620 561 25 
f 25 566 875 
f 894 566 25 
f 840 620 25 
f 875 840 25 
f 205 27 26 
f 26 27 567 
f 610 205 26 
f 26 268 302 
f 834 268 26 
f 26 302 523 
f 26 523 610 
f 26 567 569 
f 26 569 1073 
f 1073 834 26 
f 27 201 206 
f 985 201 27 
f 27 205 571 
f 27 206 570 
f 570 567 27 
f 27 571 985 
f 1090 118 28 
f 28 118 1091 
f 250 132 28 
f 28 132 901 
f 28 206 207 
f 555 206 28 
f 28 207 1090 
f 1091 250 28 
f 575 551 28 
f 28 551 778 
f 778 555 28 
f 901 575 28 
f 29 30 424 
f 436 30 29 
f 425 129 29 
f 29 129 437 
f 29 424 425 
f 437 436 29 
f 30 141 424 
f 30 436 577 
f 423 32 31 
f 31 32 436 
f 31 129 423 
f 437 129 31 
f 31 436 437 
f 218 190 32 
f 32 215 436 
f 422 218 32 
f 423 422 32 
f 33 34 420 
f 444 34 33 
f 420 220 33 
f 33 220 445 
f 445 444 33 
f 34 415 420 
f 579 415 34 
f 34 444 580 
f 1074 579 34 
f 414 36 35 
f 35 36 444 
f 35 220 413 
f 445 220 35 
f 35 413 414 
f 35 444 445 
f 414 223 36 
f 36 329 444 
f 424 38 37 
f 37 38 427 
f 37 129 425 
f 427 129 37 
f 425 424 37 
f 38 49 588 
f 590 49 38 
f 38 424 590 
f 38 426 427 
f 428 426 38 
f 588 428 38 
f 39 40 423 
f 427 40 39 
f 39 423 654 
f 654 427 39 
f 40 50 222 
f 591 50 40 
f 222 218 40 
f 40 218 422 
f 40 422 423 
f 427 426 40 
f 40 426 428 
f 40 428 591 
f 420 42 41 
f 41 42 440 
f 837 420 41 
f 41 440 441 
f 41 441 837 
f 581 51 42 
f 42 51 595 
f 420 415 42 
f 42 415 581 
f 810 440 42 
f 42 595 810 
f 43 44 414 
f 440 44 43 
f 414 413 43 
f 43 413 441 
f 441 440 43 
f 44 52 306 
f 600 52 44 
f 44 306 414 
f 44 440 596 
f 44 596 600 
f 45 57 169 
f 910 57 45 
f 272 167 45 
f 45 167 882 
f 45 169 609 
f 609 272 45 
f 45 607 910 
f 999 607 45 
f 45 882 999 
f 261 47 46 
f 46 47 998 
f 46 58 261 
f 954 58 46 
f 46 258 637 
f 1075 258 46 
f 637 509 46 
f 46 509 835 
f 46 835 954 
f 46 998 1075 
f 261 59 47 
f 47 59 1086 
f 47 120 593 
f 594 120 47 
f 47 593 998 
f 1086 594 47 
f 191 60 48 
f 48 60 975 
f 615 191 48 
f 48 248 690 
f 821 248 48 
f 48 573 615 
f 690 573 48 
f 975 617 48 
f 48 617 1028 
f 1028 821 48 
f 49 583 588 
f 841 583 49 
f 49 590 841 
f 636 222 50 
f 50 591 636 
f 51 200 595 
f 638 200 51 
f 581 236 51 
f 51 236 638 
f 1098 306 52 
f 600 597 52 
f 52 597 1098 
f 53 62 229 
f 647 62 53 
f 587 125 53 
f 53 125 647 
f 53 229 587 
f 54 232 234 
f 1008 232 54 
f 54 234 623 
f 623 240 54 
f 54 240 1008 
f 55 66 245 
f 283 66 55 
f 245 243 55 
f 55 243 1055 
f 1055 283 55 
f 251 68 56 
f 56 68 522 
f 56 247 251 
f 599 247 56 
f 522 300 56 
f 56 300 599 
f 341 111 57 
f 57 111 526 
f 909 169 57 
f 57 177 227 
f 526 177 57 
f 57 227 909 
f 962 341 57 
f 57 910 962 
f 58 59 261 
f 559 59 58 
f 720 260 58 
f 58 260 1105 
f 58 280 559 
f 988 280 58 
f 954 720 58 
f 1105 988 58 
f 59 146 855 
f 1089 146 59 
f 59 242 265 
f 855 242 59 
f 59 265 616 
f 59 559 1089 
f 59 616 1086 
f 60 191 616 
f 60 237 618 
f 991 237 60 
f 60 249 332 
f 616 249 60 
f 60 332 991 
f 60 618 975 
f 61 62 411 
f 438 62 61 
f 61 411 830 
f 439 438 61 
f 830 439 61 
f 230 229 62 
f 438 230 62 
f 62 409 411 
f 648 409 62 
f 62 647 648 
f 408 64 63 
f 63 64 438 
f 972 408 63 
f 63 438 439 
f 63 439 972 
f 234 230 64 
f 64 230 438 
f 623 234 64 
f 408 407 64 
f 64 407 623 
f 65 66 405 
f 447 66 65 
f 65 405 753 
f 753 447 65 
f 246 245 66 
f 446 246 66 
f 66 283 297 
f 66 297 404 
f 66 404 405 
f 447 446 66 
f 403 68 67 
f 67 68 447 
f 67 128 403 
f 447 128 67 
f 251 246 68 
f 68 246 446 
f 402 301 68 
f 68 301 522 
f 403 402 68 
f 68 446 447 
f 411 70 69 
f 69 70 435 
f 972 411 69 
f 69 435 972 
f 70 81 655 
f 1081 81 70 
f 411 409 70 
f 70 409 648 
f 70 433 435 
f 655 433 70 
f 70 648 1081 
f 71 72 408 
f 435 72 71 
f 71 408 972 
f 972 435 71 
f 72 82 653 
f 659 82 72 
f 72 407 408 
f 650 407 72 
f 435 433 72 
f 72 433 659 
f 653 650 72 
f 405 74 73 
f 73 74 442 
f 73 128 405 
f 443 128 73 
f 73 442 443 
f 299 83 74 
f 74 83 660 
f 74 297 299 
f 404 297 74 
f 405 404 74 
f 660 442 74 
f 75 76 403 
f 442 76 75 
f 403 128 75 
f 75 128 443 
f 443 442 75 
f 390 84 76 
f 76 84 1080 
f 76 301 402 
f 1080 301 76 
f 442 390 76 
f 76 402 403 
f 77 161 631 
f 657 161 77 
f 322 305 77 
f 77 305 657 
f 913 322 77 
f 77 631 666 
f 663 646 77 
f 77 646 913 
f 666 663 77 
f 78 79 326 
f 672 79 78 
f 307 126 78 
f 78 126 322 
f 652 307 78 
f 78 322 670 
f 78 326 652 
f 78 670 672 
f 847 326 79 
f 79 525 529 
f 1020 525 79 
f 79 529 847 
f 79 672 673 
f 79 673 1087 
f 1087 1020 79 
f 750 498 80 
f 80 498 1016 
f 677 643 80 
f 80 643 1065 
f 80 661 859 
f 1065 661 80 
f 80 671 750 
f 859 671 80 
f 1016 677 80 
f 81 303 655 
f 658 303 81 
f 1081 658 81 
f 659 320 82 
f 82 320 851 
f 82 651 653 
f 851 651 82 
f 83 299 728 
f 83 308 309 
f 728 308 83 
f 83 309 660 
f 524 188 84 
f 84 188 624 
f 624 203 84 
f 84 203 1080 
f 84 390 524 
f 858 89 85 
f 85 89 1092 
f 85 483 485 
f 793 483 85 
f 85 485 940 
f 85 681 858 
f 940 681 85 
f 1092 793 85 
f 979 683 86 
f 86 683 1031 
f 971 780 86 
f 86 780 979 
f 86 920 971 
f 1031 920 86 
f 861 96 87 
f 87 96 926 
f 87 142 687 
f 926 142 87 
f 87 487 795 
f 941 487 87 
f 87 687 941 
f 87 795 861 
f 88 262 981 
f 1030 262 88 
f 981 976 88 
f 88 976 1044 
f 1044 1030 88 
f 89 339 692 
f 1076 339 89 
f 692 680 89 
f 89 680 1092 
f 89 858 1076 
f 90 91 312 
f 1039 91 90 
f 90 312 682 
f 90 682 693 
f 90 693 957 
f 90 957 1039 
f 669 312 91 
f 91 313 669 
f 686 313 91 
f 1039 686 91 
f 695 94 92 
f 92 94 993 
f 993 156 92 
f 92 156 1084 
f 344 175 92 
f 92 175 698 
f 864 344 92 
f 698 695 92 
f 1084 864 92 
f 703 95 93 
f 93 95 704 
f 704 256 93 
f 93 256 816 
f 816 703 93 
f 94 225 345 
f 706 225 94 
f 94 345 696 
f 94 695 706 
f 94 696 993 
f 95 703 865 
f 865 704 95 
f 861 492 96 
f 96 492 867 
f 867 512 96 
f 96 512 926 
f 789 98 97 
f 97 98 1037 
f 314 153 97 
f 97 153 789 
f 1023 314 97 
f 1043 1023 97 
f 97 1037 1043 
f 930 333 98 
f 98 333 1037 
f 98 789 930 
f 99 100 708 
f 993 100 99 
f 99 156 993 
f 1084 156 99 
f 709 697 99 
f 99 697 1084 
f 99 708 709 
f 100 343 708 
f 993 343 100 
f 712 103 101 
f 101 103 932 
f 713 711 101 
f 101 711 824 
f 824 712 101 
f 932 713 101 
f 102 104 869 
f 870 104 102 
f 869 714 102 
f 102 714 934 
f 934 870 102 
f 103 347 348 
f 710 347 103 
f 103 348 532 
f 103 532 933 
f 712 710 103 
f 933 932 103 
f 870 869 104 
f 214 141 105 
f 558 214 105 
f 630 361 106 
f 106 361 846 
f 106 602 1009 
f 1010 602 106 
f 1009 630 106 
f 846 642 106 
f 106 642 1010 
f 200 120 107 
f 107 120 594 
f 595 200 107 
f 107 573 592 
f 594 573 107 
f 107 592 752 
f 752 595 107 
f 360 127 108 
f 108 127 727 
f 108 224 360 
f 612 224 108 
f 727 612 108 
f 109 118 157 
f 1091 118 109 
f 109 157 586 
f 109 168 250 
f 586 168 109 
f 109 250 1091 
f 110 349 539 
f 892 349 110 
f 539 538 110 
f 110 538 892 
f 111 285 526 
f 631 285 111 
f 111 341 631 
f 112 309 373 
f 660 309 112 
f 373 311 112 
f 112 311 390 
f 112 390 660 
f 532 531 113 
f 113 531 1095 
f 869 532 113 
f 928 869 113 
f 1095 928 113 
f 114 123 723 
f 1085 123 114 
f 880 149 114 
f 114 149 1085 
f 114 723 1048 
f 1048 880 114 
f 908 140 115 
f 115 140 1067 
f 1067 267 115 
f 115 267 1068 
f 1068 908 115 
f 374 170 116 
f 116 170 964 
f 1101 374 116 
f 116 490 722 
f 964 490 116 
f 116 722 1101 
f 117 136 357 
f 357 144 117 
f 117 144 391 
f 117 391 716 
f 716 633 117 
f 1090 135 118 
f 637 211 119 
f 119 211 828 
f 636 585 119 
f 119 585 965 
f 828 636 119 
f 965 637 119 
f 120 200 638 
f 638 236 120 
f 120 236 873 
f 873 593 120 
f 233 232 121 
f 121 232 1008 
f 982 233 121 
f 121 240 812 
f 1008 240 121 
f 121 812 1105 
f 1105 982 121 
f 122 146 296 
f 855 146 122 
f 122 235 242 
f 243 235 122 
f 122 242 855 
f 1055 243 122 
f 122 296 1055 
f 978 723 123 
f 123 787 833 
f 1085 787 123 
f 123 833 978 
f 124 201 985 
f 1022 201 124 
f 124 580 1022 
f 985 838 124 
f 125 285 294 
f 526 285 125 
f 125 294 647 
f 587 526 125 
f 212 130 126 
f 126 130 305 
f 307 212 126 
f 126 305 322 
f 389 139 127 
f 127 139 557 
f 127 360 389 
f 127 557 725 
f 127 725 727 
f 753 405 128 
f 128 447 753 
f 654 423 129 
f 129 427 654 
f 130 212 851 
f 130 303 305 
f 659 303 130 
f 130 320 659 
f 851 320 130 
f 131 162 798 
f 801 162 131 
f 131 685 801 
f 856 685 131 
f 798 797 131 
f 131 797 856 
f 250 248 132 
f 132 248 821 
f 132 821 844 
f 132 844 901 
f 263 154 133 
f 133 154 456 
f 254 231 133 
f 133 231 321 
f 456 254 133 
f 286 263 133 
f 321 286 133 
f 134 183 266 
f 353 183 134 
f 134 266 902 
f 898 353 134 
f 134 406 751 
f 902 406 134 
f 134 751 898 
f 135 201 1022 
f 1090 201 135 
f 1022 329 135 
f 535 357 136 
f 138 145 215 
f 961 145 138 
f 138 215 556 
f 556 302 138 
f 138 302 961 
f 139 389 853 
f 662 557 139 
f 853 662 139 
f 140 151 197 
f 625 151 140 
f 140 197 1067 
f 140 259 625 
f 908 259 140 
f 214 213 141 
f 141 213 590 
f 590 424 141 
f 142 252 707 
f 926 252 142 
f 707 687 142 
f 143 273 614 
f 764 273 143 
f 143 331 572 
f 614 331 143 
f 143 572 764 
f 372 354 144 
f 144 354 391 
f 144 357 1059 
f 1059 372 144 
f 577 215 145 
f 1038 558 145 
f 145 961 1038 
f 541 296 146 
f 847 541 146 
f 1089 847 146 
f 147 571 593 
f 985 571 147 
f 147 578 838 
f 873 578 147 
f 147 593 873 
f 147 838 985 
f 148 369 967 
f 1029 369 148 
f 148 371 949 
f 967 371 148 
f 936 737 148 
f 148 737 980 
f 949 936 148 
f 148 980 1029 
f 880 763 149 
f 149 763 881 
f 881 827 149 
f 149 827 956 
f 149 956 1085 
f 150 236 581 
f 873 236 150 
f 579 578 150 
f 150 578 873 
f 581 579 150 
f 151 165 197 
f 565 165 151 
f 603 565 151 
f 625 603 151 
f 152 171 484 
f 729 171 152 
f 719 362 152 
f 152 362 729 
f 152 484 719 
f 153 314 510 
f 510 489 153 
f 153 489 854 
f 854 789 153 
f 154 263 917 
f 634 456 154 
f 917 634 154 
f 155 351 355 
f 826 351 155 
f 155 355 878 
f 878 826 155 
f 157 223 586 
f 158 338 871 
f 871 825 158 
f 159 172 517 
f 572 172 159 
f 159 517 550 
f 159 550 574 
f 574 572 159 
f 160 163 324 
f 630 163 160 
f 318 316 160 
f 160 316 630 
f 619 318 160 
f 160 324 619 
f 304 285 161 
f 161 285 631 
f 657 304 161 
f 799 798 162 
f 800 799 162 
f 801 800 162 
f 163 321 324 
f 1009 321 163 
f 163 630 1009 
f 864 179 164 
f 164 179 921 
f 496 344 164 
f 164 344 864 
f 921 496 164 
f 565 192 165 
f 165 192 1097 
f 165 195 197 
f 1097 195 165 
f 338 282 166 
f 166 282 354 
f 354 295 166 
f 166 295 355 
f 351 338 166 
f 355 351 166 
f 167 272 560 
f 167 560 842 
f 167 842 882 
f 168 223 306 
f 586 223 168 
f 168 248 250 
f 843 248 168 
f 168 306 1098 
f 1098 843 168 
f 611 609 169 
f 909 611 169 
f 170 825 964 
f 204 199 172 
f 172 199 468 
f 572 204 172 
f 172 468 517 
f 833 195 173 
f 173 195 1097 
f 978 833 173 
f 992 978 173 
f 1097 992 173 
f 831 384 174 
f 174 384 1050 
f 1050 879 174 
f 175 344 863 
f 863 698 175 
f 534 180 176 
f 176 180 1002 
f 364 363 176 
f 176 363 455 
f 1002 364 176 
f 176 455 956 
f 956 534 176 
f 177 226 227 
f 587 226 177 
f 177 526 587 
f 178 219 878 
f 178 355 356 
f 878 355 178 
f 178 356 367 
f 178 367 829 
f 179 864 1083 
f 1083 921 179 
f 539 470 180 
f 180 470 1002 
f 180 534 539 
f 181 359 551 
f 1093 542 181 
f 181 551 758 
f 181 758 1093 
f 551 359 182 
f 778 551 182 
f 182 552 877 
f 1007 552 182 
f 182 555 778 
f 877 555 182 
f 400 266 183 
f 183 353 387 
f 183 387 400 
f 184 269 500 
f 1088 269 184 
f 184 500 996 
f 546 545 184 
f 184 545 958 
f 996 546 184 
f 184 958 1005 
f 184 1005 1088 
f 185 377 387 
f 745 377 185 
f 185 387 898 
f 186 350 811 
f 815 350 186 
f 186 811 819 
f 819 815 186 
f 849 748 187 
f 187 748 935 
f 187 751 849 
f 188 310 624 
f 661 310 188 
f 524 311 188 
f 188 311 661 
f 189 626 876 
f 1056 626 189 
f 189 627 962 
f 997 627 189 
f 189 876 997 
f 189 962 1001 
f 189 1001 1056 
f 190 218 548 
f 548 528 190 
f 190 528 556 
f 191 615 616 
f 274 193 192 
f 192 193 700 
f 565 274 192 
f 192 700 1097 
f 193 274 582 
f 193 582 883 
f 896 700 193 
f 193 883 896 
f 194 195 196 
f 197 195 194 
f 194 196 198 
f 1067 197 194 
f 194 198 199 
f 194 199 1067 
f 888 196 195 
f 195 833 887 
f 195 887 888 
f 943 198 196 
f 196 888 943 
f 468 199 198 
f 889 468 198 
f 946 889 198 
f 198 943 946 
f 199 204 267 
f 199 267 1067 
f 207 206 201 
f 1090 207 201 
f 744 217 202 
f 202 217 745 
f 899 744 202 
f 202 745 899 
f 203 300 301 
f 1082 300 203 
f 203 301 1080 
f 624 310 203 
f 203 310 1082 
f 1068 267 204 
f 572 331 204 
f 204 331 614 
f 204 614 1068 
f 610 571 205 
f 206 555 570 
f 574 550 208 
f 208 550 605 
f 757 574 208 
f 208 605 748 
f 208 748 849 
f 208 756 757 
f 849 756 208 
f 228 214 209 
f 209 214 875 
f 882 228 209 
f 875 566 209 
f 209 566 999 
f 999 882 209 
f 210 448 764 
f 765 448 210 
f 576 574 210 
f 210 574 757 
f 764 576 210 
f 210 757 759 
f 210 759 765 
f 221 216 211 
f 211 216 828 
f 258 221 211 
f 637 258 211 
f 212 307 851 
f 213 214 228 
f 213 228 841 
f 841 590 213 
f 214 558 875 
f 577 436 215 
f 216 218 222 
f 548 218 216 
f 216 221 528 
f 216 222 636 
f 216 528 548 
f 216 636 828 
f 968 381 217 
f 217 381 974 
f 217 542 745 
f 974 542 217 
f 217 744 970 
f 970 968 217 
f 219 241 721 
f 219 721 878 
f 441 413 220 
f 220 420 837 
f 837 441 220 
f 221 258 523 
f 221 523 528 
f 414 306 223 
f 724 360 224 
f 827 724 224 
f 1103 827 224 
f 706 252 225 
f 225 252 926 
f 540 345 225 
f 926 540 225 
f 260 227 226 
f 226 229 230 
f 587 229 226 
f 226 230 233 
f 226 233 260 
f 227 260 611 
f 227 611 909 
f 842 841 228 
f 882 842 228 
f 230 232 233 
f 234 232 230 
f 231 254 327 
f 324 321 231 
f 327 324 231 
f 982 260 233 
f 235 238 242 
f 1018 238 235 
f 235 243 245 
f 235 245 246 
f 235 246 1018 
f 640 618 237 
f 643 640 237 
f 991 643 237 
f 238 239 265 
f 1018 239 238 
f 265 242 238 
f 239 247 599 
f 1018 247 239 
f 239 249 265 
f 332 249 239 
f 599 332 239 
f 240 623 914 
f 914 812 240 
f 536 368 241 
f 241 368 721 
f 904 457 244 
f 244 457 907 
f 244 770 904 
f 907 770 244 
f 251 247 246 
f 246 247 1018 
f 843 690 248 
f 616 265 249 
f 252 706 707 
f 963 603 253 
f 253 603 1010 
f 866 606 253 
f 253 606 963 
f 253 642 866 
f 1010 642 253 
f 254 278 327 
f 641 278 254 
f 254 456 634 
f 254 634 641 
f 703 352 255 
f 255 352 928 
f 255 513 703 
f 1095 513 255 
f 255 928 1095 
f 704 350 256 
f 256 350 815 
f 256 815 816 
f 257 343 993 
f 1012 343 257 
f 993 696 257 
f 257 696 1012 
f 610 523 258 
f 1075 610 258 
f 259 263 286 
f 908 263 259 
f 259 286 602 
f 259 602 625 
f 720 611 260 
f 260 982 1105 
f 262 315 1021 
f 1030 315 262 
f 262 506 689 
f 1021 506 262 
f 262 689 981 
f 908 270 263 
f 263 270 917 
f 755 431 264 
f 264 431 762 
f 762 604 264 
f 264 604 960 
f 995 755 264 
f 264 960 995 
f 266 400 449 
f 266 449 632 
f 266 632 902 
f 961 302 268 
f 834 561 268 
f 268 561 961 
f 1088 543 269 
f 270 614 917 
f 1068 614 270 
f 270 908 1068 
f 271 290 635 
f 1052 290 271 
f 271 635 1025 
f 1025 772 271 
f 271 772 1052 
f 609 560 272 
f 1079 614 273 
f 273 621 622 
f 764 621 273 
f 273 622 994 
f 273 994 1079 
f 274 421 582 
f 1036 421 274 
f 274 565 927 
f 927 761 274 
f 274 761 1036 
f 275 277 621 
f 772 277 275 
f 621 448 275 
f 275 448 765 
f 275 765 772 
f 721 718 276 
f 826 721 276 
f 622 621 277 
f 1025 622 277 
f 277 772 1025 
f 278 284 327 
f 330 284 278 
f 335 330 278 
f 641 335 278 
f 279 281 461 
f 1027 281 279 
f 279 449 450 
f 632 449 279 
f 279 450 451 
f 279 451 1027 
f 461 458 279 
f 279 458 632 
f 280 326 559 
f 988 326 280 
f 848 461 281 
f 1027 845 281 
f 281 845 1032 
f 1032 848 281 
f 391 354 282 
f 874 391 282 
f 283 296 297 
f 1055 296 283 
f 284 319 327 
f 953 319 284 
f 284 330 809 
f 284 809 953 
f 1061 294 285 
f 285 304 1061 
f 286 321 1009 
f 1009 602 286 
f 287 292 991 
f 1082 292 287 
f 599 300 287 
f 287 300 1082 
f 287 332 599 
f 991 332 287 
f 818 811 288 
f 288 811 1070 
f 288 813 817 
f 1070 813 288 
f 288 817 818 
f 469 461 289 
f 289 461 848 
f 645 469 289 
f 1006 645 289 
f 289 848 1006 
f 290 293 639 
f 786 293 290 
f 639 635 290 
f 290 779 786 
f 1052 779 290 
f 291 334 641 
f 644 334 291 
f 634 613 291 
f 291 613 1079 
f 641 634 291 
f 291 635 639 
f 987 635 291 
f 291 639 644 
f 1079 987 291 
f 292 310 1065 
f 1082 310 292 
f 292 643 991 
f 1065 643 292 
f 293 336 644 
f 784 336 293 
f 644 639 293 
f 786 784 293 
f 648 647 294 
f 1061 648 294 
f 295 354 372 
f 356 355 295 
f 358 356 295 
f 372 358 295 
f 298 297 296 
f 541 298 296 
f 297 298 299 
f 728 299 298 
f 529 308 298 
f 298 308 728 
f 541 529 298 
f 522 301 300 
f 528 523 302 
f 556 528 302 
f 658 305 303 
f 659 655 303 
f 304 657 658 
f 304 658 1081 
f 1081 1061 304 
f 658 657 305 
f 307 652 851 
f 1020 309 308 
f 529 525 308 
f 308 525 1020 
f 1020 373 309 
f 310 661 1065 
f 311 373 608 
f 524 390 311 
f 311 608 661 
f 312 669 1024 
f 966 682 312 
f 1024 966 312 
f 313 646 669 
f 1066 646 313 
f 313 686 1066 
f 314 325 511 
f 1023 325 314 
f 867 510 314 
f 314 511 867 
f 315 323 941 
f 1044 323 315 
f 941 687 315 
f 315 687 1021 
f 315 1030 1044 
f 316 318 852 
f 665 630 316 
f 316 664 665 
f 852 664 316 
f 485 477 317 
f 317 477 656 
f 948 485 317 
f 317 656 806 
f 806 664 317 
f 317 664 920 
f 317 920 1031 
f 1031 948 317 
f 318 619 685 
f 318 685 979 
f 318 780 852 
f 979 780 318 
f 319 324 327 
f 518 324 319 
f 800 518 319 
f 953 800 319 
f 322 589 670 
f 913 589 322 
f 792 491 323 
f 323 491 941 
f 1044 792 323 
f 324 518 619 
f 325 342 511 
f 1042 342 325 
f 1023 380 325 
f 325 380 1042 
f 847 559 326 
f 988 652 326 
f 328 330 335 
f 689 330 328 
f 328 335 674 
f 328 674 976 
f 981 689 328 
f 328 976 981 
f 580 444 329 
f 1022 580 329 
f 330 689 809 
f 675 498 333 
f 333 498 738 
f 930 675 333 
f 738 691 333 
f 333 691 1037 
f 334 335 641 
f 674 335 334 
f 334 644 1072 
f 1072 674 334 
f 1072 644 336 
f 336 784 791 
f 336 791 792 
f 336 792 1094 
f 1094 1072 336 
f 337 718 964 
f 337 825 871 
f 964 825 337 
f 338 351 871 
f 494 493 339 
f 339 493 692 
f 1035 494 339 
f 1104 1035 339 
f 339 1076 1104 
f 495 376 340 
f 340 376 957 
f 340 493 494 
f 693 493 340 
f 340 494 495 
f 957 693 340 
f 341 627 631 
f 962 627 341 
f 342 501 507 
f 919 501 342 
f 342 507 508 
f 342 508 511 
f 342 862 919 
f 1042 862 342 
f 343 519 708 
f 1012 519 343 
f 496 494 344 
f 344 494 1035 
f 1035 863 344 
f 508 507 345 
f 345 507 802 
f 540 508 345 
f 802 696 345 
f 346 383 538 
f 899 383 346 
f 538 453 346 
f 346 453 899 
f 530 348 347 
f 710 530 347 
f 348 520 527 
f 530 520 348 
f 348 527 531 
f 348 531 532 
f 349 371 470 
f 892 371 349 
f 349 470 539 
f 804 497 350 
f 350 497 811 
f 350 704 804 
f 351 826 983 
f 983 871 351 
f 352 703 816 
f 352 816 928 
f 898 387 353 
f 356 358 365 
f 356 365 367 
f 357 535 726 
f 357 726 884 
f 357 884 1059 
f 1000 365 358 
f 358 372 1060 
f 1060 1000 358 
f 521 389 360 
f 724 521 360 
f 630 629 361 
f 361 629 734 
f 361 734 846 
f 362 366 730 
f 1101 366 362 
f 362 719 1101 
f 730 729 362 
f 363 364 888 
f 1085 455 363 
f 833 787 363 
f 363 787 1085 
f 887 833 363 
f 888 887 363 
f 943 888 364 
f 364 891 943 
f 1002 891 364 
f 895 367 365 
f 365 741 895 
f 942 741 365 
f 1000 942 365 
f 722 370 366 
f 366 370 742 
f 1101 722 366 
f 743 730 366 
f 366 742 945 
f 945 743 366 
f 895 829 367 
f 368 490 718 
f 722 490 368 
f 368 536 722 
f 368 718 721 
f 369 470 967 
f 1002 470 369 
f 369 836 889 
f 1029 836 369 
f 369 889 891 
f 369 891 1002 
f 722 375 370 
f 370 375 746 
f 746 742 370 
f 967 470 371 
f 371 892 935 
f 371 935 949 
f 372 1059 1060 
f 1020 608 373 
f 719 715 374 
f 1101 719 374 
f 375 536 537 
f 722 536 375 
f 375 537 746 
f 376 495 1040 
f 376 686 1039 
f 1040 686 376 
f 1039 957 376 
f 388 387 377 
f 1093 388 377 
f 745 542 377 
f 377 542 1093 
f 378 382 385 
f 880 382 378 
f 378 385 1003 
f 814 763 378 
f 378 763 880 
f 897 814 378 
f 1003 897 378 
f 379 545 547 
f 958 545 379 
f 379 547 557 
f 379 557 662 
f 1037 691 380 
f 380 691 1042 
f 380 1023 1043 
f 1043 1037 380 
f 381 552 1007 
f 1041 552 381 
f 381 968 1041 
f 395 385 382 
f 582 395 382 
f 883 582 382 
f 382 880 1048 
f 1100 883 382 
f 382 1048 1100 
f 892 538 383 
f 384 392 397 
f 831 392 384 
f 384 397 502 
f 384 502 749 
f 384 749 1050 
f 396 394 385 
f 385 394 1003 
f 385 395 396 
f 756 406 386 
f 386 406 766 
f 759 756 386 
f 765 759 386 
f 771 765 386 
f 386 766 771 
f 387 388 400 
f 401 400 388 
f 839 401 388 
f 388 758 839 
f 1093 758 388 
f 389 521 879 
f 879 853 389 
f 390 442 660 
f 874 716 391 
f 392 393 397 
f 754 393 392 
f 897 754 392 
f 392 831 897 
f 418 397 393 
f 393 416 418 
f 760 416 393 
f 393 754 760 
f 394 396 398 
f 394 398 754 
f 394 754 1003 
f 399 396 395 
f 421 399 395 
f 582 421 395 
f 419 398 396 
f 396 399 1099 
f 1099 419 396 
f 397 418 755 
f 755 502 397 
f 398 419 760 
f 760 754 398 
f 399 421 1013 
f 399 434 688 
f 1013 434 399 
f 399 688 1099 
f 400 401 410 
f 400 410 449 
f 412 410 401 
f 937 412 401 
f 401 839 937 
f 756 751 406 
f 902 766 406 
f 650 623 407 
f 410 412 450 
f 450 449 410 
f 972 830 411 
f 451 450 412 
f 947 451 412 
f 412 937 947 
f 415 579 581 
f 416 417 418 
f 429 417 416 
f 760 429 416 
f 431 418 417 
f 417 429 430 
f 417 430 431 
f 418 431 755 
f 419 432 760 
f 1099 432 419 
f 1036 1013 421 
f 428 583 584 
f 588 583 428 
f 428 584 591 
f 767 430 429 
f 429 760 903 
f 903 767 429 
f 762 431 430 
f 430 717 762 
f 768 717 430 
f 430 767 768 
f 432 452 903 
f 1099 452 432 
f 903 760 432 
f 433 655 659 
f 761 606 434 
f 434 606 915 
f 1077 688 434 
f 1013 761 434 
f 434 915 1077 
f 439 830 972 
f 810 596 440 
f 448 621 764 
f 451 845 1027 
f 1033 845 451 
f 451 947 1033 
f 459 454 452 
f 452 454 903 
f 1077 459 452 
f 452 688 1077 
f 1099 688 452 
f 538 515 453 
f 453 515 744 
f 453 744 899 
f 454 459 460 
f 454 460 906 
f 905 903 454 
f 906 905 454 
f 1085 956 455 
f 457 458 462 
f 632 458 457 
f 457 462 907 
f 904 632 457 
f 458 461 462 
f 464 460 459 
f 564 464 459 
f 977 564 459 
f 459 925 977 
f 1077 925 459 
f 464 463 460 
f 460 463 906 
f 469 462 461 
f 469 467 462 
f 462 467 907 
f 463 464 465 
f 463 465 475 
f 463 475 788 
f 463 788 906 
f 466 465 464 
f 678 466 464 
f 464 564 678 
f 465 466 477 
f 477 475 465 
f 656 477 466 
f 466 629 665 
f 678 629 466 
f 665 656 466 
f 467 469 479 
f 479 478 467 
f 467 478 911 
f 911 907 467 
f 836 517 468 
f 889 836 468 
f 469 472 479 
f 645 472 469 
f 786 785 471 
f 471 785 959 
f 791 786 471 
f 1054 791 471 
f 471 959 1054 
f 481 479 472 
f 676 481 472 
f 472 645 990 
f 990 676 472 
f 482 474 473 
f 473 474 781 
f 473 476 482 
f 793 476 473 
f 473 781 788 
f 473 788 793 
f 474 482 790 
f 474 775 781 
f 1096 775 474 
f 790 782 474 
f 474 782 1096 
f 475 477 483 
f 475 483 793 
f 793 788 475 
f 1092 482 476 
f 476 793 1092 
f 485 483 477 
f 478 479 480 
f 478 480 486 
f 478 486 488 
f 478 488 912 
f 912 911 478 
f 481 480 479 
f 480 481 489 
f 489 486 480 
f 854 489 481 
f 481 676 969 
f 969 854 481 
f 794 790 482 
f 1092 794 482 
f 484 533 719 
f 948 940 485 
f 492 488 486 
f 486 489 510 
f 510 492 486 
f 941 491 487 
f 487 491 1054 
f 1054 795 487 
f 488 492 861 
f 488 861 912 
f 964 718 490 
f 491 792 1054 
f 492 510 867 
f 693 692 493 
f 496 495 494 
f 495 496 860 
f 495 860 1040 
f 916 860 496 
f 921 916 496 
f 497 804 952 
f 1070 811 497 
f 497 952 1070 
f 498 675 1016 
f 750 738 498 
f 805 503 499 
f 499 503 953 
f 499 506 805 
f 809 506 499 
f 953 809 499 
f 500 561 568 
f 500 568 996 
f 802 507 501 
f 807 802 501 
f 924 807 501 
f 501 919 924 
f 502 562 749 
f 755 562 502 
f 503 799 800 
f 805 799 503 
f 503 800 953 
f 504 514 516 
f 1014 514 504 
f 504 516 1011 
f 504 807 924 
f 1011 807 504 
f 504 924 1014 
f 1004 604 505 
f 505 604 1046 
f 505 607 989 
f 1046 607 505 
f 989 900 505 
f 505 900 1047 
f 1047 1004 505 
f 809 689 506 
f 808 805 506 
f 1021 808 506 
f 512 511 508 
f 540 512 508 
f 585 560 509 
f 509 560 609 
f 965 585 509 
f 509 609 835 
f 509 637 965 
f 511 512 867 
f 512 540 926 
f 513 514 918 
f 1095 514 513 
f 865 703 513 
f 918 865 513 
f 527 516 514 
f 531 527 514 
f 1095 531 514 
f 1014 918 514 
f 515 538 1045 
f 515 729 735 
f 515 735 1069 
f 1069 744 515 
f 520 519 516 
f 516 519 1011 
f 527 520 516 
f 980 550 517 
f 517 836 980 
f 801 619 518 
f 518 800 801 
f 519 520 929 
f 929 708 519 
f 1012 1011 519 
f 520 530 929 
f 529 541 847 
f 530 710 931 
f 931 929 530 
f 532 869 870 
f 532 870 933 
f 533 633 716 
f 716 715 533 
f 533 715 719 
f 534 956 1103 
f 535 612 727 
f 727 726 535 
f 1063 746 537 
f 537 829 895 
f 537 895 1063 
f 538 539 1045 
f 543 544 1058 
f 1088 544 543 
f 1058 894 543 
f 872 749 544 
f 544 749 986 
f 1102 872 544 
f 544 986 1058 
f 544 1088 1102 
f 545 546 832 
f 832 547 545 
f 546 568 731 
f 996 568 546 
f 546 731 832 
f 725 557 547 
f 732 725 547 
f 886 732 547 
f 547 832 886 
f 549 628 783 
f 1078 628 549 
f 549 667 668 
f 790 667 549 
f 549 668 1078 
f 549 783 790 
f 551 575 839 
f 839 758 551 
f 984 877 552 
f 1041 984 552 
f 553 554 736 
f 968 554 553 
f 553 736 740 
f 553 740 893 
f 553 893 984 
f 1041 968 553 
f 553 984 1041 
f 554 735 736 
f 1069 735 554 
f 970 744 554 
f 554 744 1069 
f 554 968 970 
f 877 570 555 
f 558 620 840 
f 1038 620 558 
f 558 840 875 
f 559 847 1089 
f 584 583 560 
f 560 583 842 
f 585 584 560 
f 1073 568 561 
f 561 620 961 
f 561 834 1073 
f 960 563 562 
f 562 563 1058 
f 986 749 562 
f 562 755 995 
f 995 960 562 
f 1058 986 562 
f 1026 894 563 
f 563 894 1058 
f 563 900 1026 
f 1047 900 563 
f 563 960 1004 
f 563 1004 1047 
f 734 678 564 
f 846 734 564 
f 977 846 564 
f 565 603 927 
f 566 894 1026 
f 566 900 999 
f 1026 900 566 
f 747 569 567 
f 567 570 944 
f 944 747 567 
f 568 569 731 
f 1073 569 568 
f 733 731 569 
f 747 733 569 
f 893 739 570 
f 570 739 944 
f 570 877 893 
f 998 593 571 
f 571 610 998 
f 572 574 576 
f 572 576 764 
f 843 592 573 
f 573 594 615 
f 573 690 843 
f 937 839 575 
f 575 901 937 
f 578 579 1074 
f 1074 838 578 
f 583 841 842 
f 584 585 868 
f 868 591 584 
f 585 636 868 
f 684 670 589 
f 1066 684 589 
f 589 913 1066 
f 868 636 591 
f 600 596 592 
f 592 596 752 
f 592 597 600 
f 843 597 592 
f 1086 615 594 
f 752 596 595 
f 595 596 810 
f 597 843 1098 
f 598 627 628 
f 631 627 598 
f 598 628 666 
f 666 631 598 
f 962 607 601 
f 601 607 1046 
f 1001 962 601 
f 1056 1001 601 
f 601 1046 1064 
f 1064 1056 601 
f 1010 625 602 
f 603 625 1010 
f 963 927 603 
f 604 762 1019 
f 1004 960 604 
f 604 1019 1064 
f 1064 1046 604 
f 936 748 605 
f 606 761 963 
f 606 866 915 
f 962 910 607 
f 999 989 607 
f 859 661 608 
f 608 671 859 
f 1020 671 608 
f 609 611 954 
f 954 835 609 
f 1075 998 610 
f 611 720 954 
f 917 614 613 
f 613 614 1079 
f 613 634 917 
f 1086 616 615 
f 975 618 617 
f 617 618 1032 
f 845 844 617 
f 617 844 1028 
f 1032 845 617 
f 618 640 1006 
f 1006 848 618 
f 618 848 1032 
f 801 685 619 
f 1038 961 620 
f 622 987 994 
f 1034 987 622 
f 622 1025 1034 
f 623 650 914 
f 626 769 776 
f 1056 769 626 
f 626 776 782 
f 626 782 783 
f 626 783 876 
f 997 628 627 
f 1078 666 628 
f 876 783 628 
f 997 876 628 
f 629 630 665 
f 629 678 734 
f 904 902 632 
f 635 987 1034 
f 1034 1025 635 
f 640 643 850 
f 850 645 640 
f 640 645 1006 
f 642 846 866 
f 643 677 850 
f 645 850 990 
f 646 663 669 
f 1066 913 646 
f 648 1061 1081 
f 649 651 652 
f 914 651 649 
f 649 652 988 
f 649 812 914 
f 988 812 649 
f 653 651 650 
f 650 651 914 
f 851 652 651 
f 656 665 806 
f 663 666 668 
f 663 668 1024 
f 1024 669 663 
f 806 665 664 
f 664 852 971 
f 971 920 664 
f 1078 668 666 
f 966 668 667 
f 794 682 667 
f 667 682 966 
f 667 790 794 
f 668 966 1024 
f 803 672 670 
f 670 684 950 
f 950 803 670 
f 671 679 750 
f 1051 679 671 
f 671 1020 1087 
f 1087 1051 671 
f 951 673 672 
f 672 803 923 
f 672 923 951 
f 1015 679 673 
f 673 679 1051 
f 673 951 1015 
f 673 1051 1087 
f 1044 976 674 
f 1094 1044 674 
f 674 1072 1094 
f 675 789 854 
f 930 789 675 
f 675 854 1016 
f 850 677 676 
f 676 677 969 
f 990 850 676 
f 1016 969 677 
f 679 738 750 
f 1049 738 679 
f 1015 939 679 
f 679 939 1049 
f 693 682 680 
f 680 682 794 
f 680 692 693 
f 680 794 1092 
f 797 701 681 
f 681 701 1053 
f 681 796 797 
f 940 796 681 
f 1053 858 681 
f 797 796 683 
f 683 796 948 
f 856 797 683 
f 973 856 683 
f 683 948 1031 
f 979 973 683 
f 684 686 938 
f 1066 686 684 
f 684 938 950 
f 685 856 973 
f 685 973 979 
f 1040 938 686 
f 687 707 808 
f 687 808 1021 
f 691 738 1049 
f 1049 1042 691 
f 694 695 702 
f 706 695 694 
f 694 702 705 
f 694 705 706 
f 695 698 702 
f 696 802 1012 
f 697 709 817 
f 817 813 697 
f 697 813 1083 
f 1083 864 697 
f 697 864 1084 
f 863 699 698 
f 698 699 955 
f 955 702 698 
f 699 701 955 
f 1053 701 699 
f 863 858 699 
f 699 858 1053 
f 700 896 1017 
f 700 1017 1097 
f 701 797 798 
f 701 798 955 
f 799 705 702 
f 702 798 799 
f 955 798 702 
f 918 804 704 
f 704 865 918 
f 707 706 705 
f 808 707 705 
f 705 799 805 
f 705 805 808 
f 929 709 708 
f 823 817 709 
f 929 823 709 
f 710 712 1071 
f 1071 931 710 
f 711 713 822 
f 819 818 711 
f 711 818 824 
f 822 819 711 
f 824 823 712 
f 712 823 1071 
f 934 822 713 
f 713 932 934 
f 714 820 857 
f 928 820 714 
f 714 857 934 
f 714 869 928 
f 715 716 874 
f 769 762 717 
f 717 768 769 
f 721 826 878 
f 724 827 881 
f 884 727 725 
f 725 732 884 
f 726 727 884 
f 729 730 735 
f 736 735 730 
f 743 736 730 
f 731 733 886 
f 886 832 731 
f 885 884 732 
f 942 885 732 
f 732 886 942 
f 733 747 942 
f 942 886 733 
f 743 740 736 
f 893 890 739 
f 739 890 944 
f 740 743 890 
f 740 890 893 
f 1062 742 741 
f 741 742 1063 
f 1063 895 741 
f 741 942 1062 
f 742 746 1063 
f 1062 945 742 
f 945 890 743 
f 1062 942 747 
f 747 944 1062 
f 936 935 748 
f 749 872 1050 
f 751 756 849 
f 754 897 1003 
f 759 757 756 
f 761 927 963 
f 761 1013 1036 
f 762 769 1019 
f 765 771 772 
f 766 770 771 
f 904 770 766 
f 766 902 904 
f 774 768 767 
f 903 774 767 
f 775 769 768 
f 768 774 775 
f 769 775 776 
f 1064 1019 769 
f 769 1056 1064 
f 773 771 770 
f 777 773 770 
f 907 777 770 
f 1052 772 771 
f 771 773 1052 
f 773 777 779 
f 773 779 1052 
f 1057 775 774 
f 774 903 905 
f 774 905 906 
f 774 906 1057 
f 1096 776 775 
f 1057 781 775 
f 1096 782 776 
f 785 779 777 
f 907 785 777 
f 779 785 786 
f 971 852 780 
f 906 788 781 
f 1057 906 781 
f 790 783 782 
f 784 786 791 
f 785 907 911 
f 785 911 912 
f 785 912 959 
f 1054 792 791 
f 792 1044 1094 
f 912 861 795 
f 959 912 795 
f 1054 959 795 
f 796 940 948 
f 802 807 1011 
f 802 1011 1012 
f 952 923 803 
f 803 950 952 
f 804 918 952 
f 811 818 819 
f 812 988 1105 
f 1070 921 813 
f 813 921 1083 
f 820 816 815 
f 815 819 822 
f 857 820 815 
f 815 822 857 
f 816 820 928 
f 824 818 817 
f 817 823 824 
f 1028 844 821 
f 934 857 822 
f 823 929 1071 
f 1103 956 827 
f 1029 980 836 
f 844 845 1033 
f 947 901 844 
f 1033 947 844 
f 925 866 846 
f 977 925 846 
f 1050 872 853 
f 853 879 1050 
f 854 969 1016 
f 858 863 1076 
f 860 916 950 
f 950 938 860 
f 860 938 1040 
f 1015 919 862 
f 862 939 1015 
f 1042 939 862 
f 863 1035 1104 
f 1104 1076 863 
f 1077 915 866 
f 866 925 1077 
f 934 933 870 
f 984 893 877 
f 1100 896 883 
f 884 885 1060 
f 1060 1059 884 
f 885 942 1000 
f 885 1000 1060 
f 946 891 889 
f 945 944 890 
f 946 943 891 
f 896 992 1017 
f 900 989 999 
f 947 937 901 
f 916 921 922 
f 916 922 952 
f 952 950 916 
f 918 923 952 
f 1014 923 918 
f 951 924 919 
f 1015 951 919 
f 1070 922 921 
f 1070 952 922 
f 923 924 951 
f 1014 924 923 
f 929 931 1071 
f 932 933 934 
f 935 936 949 
f 939 1042 1049 
f 944 945 1062 
f 1079 994 987 
f 1097 1017 992 
