v 0 15.946360681026253 -3.4524193437665054
v 0 10.269481867162712 -6.2976868061867357
v 0 13.101093218606028 2.2244594700970275
v 0 7.4242144047424858 -0.62080799232320283
v -1.7763568394002505e-15 10.255825756185793 7.9013382839605786
v -1.7763568394002505e-15 4.5789469423222506 5.0560708215403478
v -1.7763568394002505e-15 7.4105582937655612 13.578217097824121
v -1.7763568394002505e-15 1.7336794799020199 10.732949635403891
v 6.3499999999999899 13.101093218606028 2.2244594700970275
v 6.3499999999999899 7.4242144047424858 -0.62080799232320283
v 6.3499999999999899 10.255825756185793 7.9013382839605786
v 6.3499999999999899 4.5789469423222506 5.0560708215403478
v 12.699999999999999 15.946360681026253 -3.4524193437665054
v 12.699999999999999 10.269481867162712 -6.2976868061867357
v 12.699999999999999 13.101093218606028 2.2244594700970275
v 12.699999999999999 7.4242144047424858 -0.62080799232320283
v 19.050000000000001 15.946360681026253 -3.4524193437665054
v 19.050000000000001 10.269481867162712 -6.2976868061867357
v 19.050000000000001 13.101093218606028 2.2244594700970275
v 19.050000000000001 7.4242144047424858 -0.62080799232320283
v 19.050000000000001 10.255825756185793 7.9013382839605786
v 19.050000000000001 4.5789469423222506 5.0560708215403478
v 19.050000000000001 7.4105582937655612 13.578217097824121
v 19.050000000000001 1.7336794799020199 10.732949635403891
v 25.399999999999999 15.946360681026253 -3.4524193437665054
v 25.399999999999999 10.269481867162712 -6.2976868061867357
v 25.399999999999999 10.255825756185793 7.9013382839605786
v 25.399999999999999 4.5789469423222506 5.0560708215403478
v 10.7430765065917 13.191672516489795 2.0437356176218011
v 20.647979565188571 7.9588847563704483 -1.6875824982868397
v 21.05793111331155 7.0715745826560621 0.082779126064670638
v 8.0608035651443544 5.0952518178324251 4.0259391210973225
v 10.31351021740571 7.0668965625001494 0.092112713808065738
v 0 14.310879528103523 -3.497697217533529
v 0.88083478860171027 14.884004202186128 -3.9848753679031153
v 0 14.745612309907738 -2.5771042692978852
v 0.93102650613678328 15.364957704923896 -2.2924038861879814
v 0.99435833676037433 11.500517097311423 -5.6806885223971744
v 1.0154236481905343 2.6514492495168245 11.192938398436993
v 24.288476561677719 14.942473757805832 -3.9555702638835188
v 17.86149727221197 12.037005485739325 1.6911357366235595
v 1.5630476812266689 9.9202136534966723 -5.6008267223090158
v 0 12.735370476639419 0.55556826826305894
v 0.94506253139931928 13.829915072162354 0.7703138074550715
v 8.3299856061420314 5.8209093452671272 2.5781069232375922
v 20.888825717699468 14.055025620731147 0.32117314815819187
v 10.706041640273209 8.6742264362636501 -3.114832512879492
v 1.5630476812266689 13.466460689424647 1.4954781417122338
v 1.5630476812266689 12.409566670036794 1.8778644391728565
v 0 8.7882597485965785 -1.0647959019206845
v 8.3299856061420314 7.0715745826560621 0.08277912606466975
v 0.82507035694192687 8.8525875690034184 0.095096613309892941
v 1.291831810190132 7.8714274051455693 -1.5130875550723206
v -1.7763568394002505e-15 7.7127095000759143 8.4400668226897348
v -1.7763568394002505e-15 8.9269847553553685 8.7860569055366646
v 20.549069406798608 13.417648953015636 1.5928673383160938
v 0.71320106944813944 9.605252863519592 9.1993615875796912
v 1.5216147393603006 8.9449075108991085 7.2443024106390652
v 1.5630476812266689 9.8904582853671652 8.6303196123453851
v -1.7763568394002505e-15 5.6218437490774127 6.4948392423678616
v 20.698991482103811 7.5501196509097461 -0.87201419137530189
v 0.76306266046203142 5.9887979494735708 5.7626920704759019
v 19.050000000000001 7.0328117328949151 7.9975347886465258
v 20.647979565188571 12.927112317640772 2.5715862354192662
v 1.5630476812266689 4.2135794715036239 5.7850521499251553
v -1.7763568394002505e-15 7.2400549250193471 11.900791564161331
v 0.79840308553796469 8.0725399861207876 12.257430952362663
v -1.7763568394002505e-15 6.3515622298578149 12.171569921503691
v 0.77849971008901697 5.6474340673504688 12.694534328099897
v -1.7763568394002505e-15 3.0315118120559177 9.9786381287808172
v -1.7763568394002505e-15 3.4943854302969122 10.739544956954568
v 0.77798483549168473 2.4349343097867093 9.3338057097549374
v 1.428642939464849 2.0810754612563835 10.039825030206178
v 5.2071141164203976 13.784071060401047 0.86178179861850923
v 4.6034828673416639 13.436502564873718 1.5552506041652334
v 7.9667024005991909 4.4376367737755755 5.3380129280738888
v 17.40761950604594 4.2488175827086341 5.714745055923478
v 6.3499999999999899 10.981937752993719 2.9330427690639818
v 7.4568204370719462 12.350369465883585 3.7223038109833619
v 7.9641378153661888 10.542051094732241 7.3302613705082607
v 7.8368314688359337 9.9157455053525787 8.5798665406068899
v 4.8308588600497568 7.8875450307807187 -1.5452454483833882
v 22.648924301707741 7.0715745826560621 0.082779126064670638
v 4.9378807940194802 8.1389286773097744 -0.26259120959095616
v 5.5360422256506059 8.8340654118938051 0.085813256612350841
v 7.9340068116038047 12.927112317640772 2.5715862354192662
v 6.3499999999999899 7.4167399776612593 1.1461557207666226
v 6.3499999999999899 8.4845579646741029 0.78315065937494976
v 17.541125015994449 4.8466898902619304 4.5218699814452492
v 1.5770204348114287 7.0582241199629774 6.2986914437447705
v 4.7450340580190504 8.8459747490344736 7.1947170350250245
v 19.050000000000001 12.758022783606782 -2.4094296360647918
v 5.5300969037540337 9.5384716691485156 9.3326034541166223
v 7.1210900921502223 9.5384716691485156 9.3326034541166223
v 4.7450340580190504 5.9887979494735708 5.7626920704759019
v 4.7450340580190504 5.2704734908914812 5.4026658524645166
v 6.3499999999999899 5.9846003991304979 4.1751423169267792
v 6.3499999999999899 6.7306594813979128 5.0287816030827166
v 4.6963047253920731 4.2150404141406757 5.7821372765734971
v -1.7763568394002505e-15 3.8636052624290489 6.4833208361330001
v 7.1419575890764442 5.2882514007832366 3.6408662736378448
v 11.109006811603811 15.597092467360213 -2.7555592598887864
v 12.699999999999999 14.266375516673484 -2.5946927968806475
v 11.89406965733879 9.5682270372780192 -4.8985428805377769
v 12.699999999999999 10.325699313222287 -4.3049088273100899
v 12.699999999999999 12.92602937917966 0.365201322265853
v 11.89406965733879 12.391788760145038 3.6396640179995359
v 13.421156488763829 12.42768458174921 3.5680446599383391
v 10.82633209499599 7.8125095566534295 -1.3955346394743811
v 11.89406965733879 8.1415684917797577 -2.0520731624792359
v 12.699999999999999 8.7102656278611796 -1.2416880831960051
v 12.168682223313541 6.5208277743693053 1.1816293849807802
v 14.225835389357499 7.0333031607974243 0.15913828273281938
v 20.238863366387509 14.323969274083616 -4.2655664326581988
v 19.86990309624596 15.245105851141561 -2.0532754181175474
v 20.48789994347603 15.265407260891664 -3.7937150932901971
v 20.44837374935776 15.604809081318775 -2.7709554512397605
v 19.050000000000001 10.86343534325658 -4.887807023855979
v 20.72939526092069 9.8834471950393734 -5.5274702692395774
v 21.46089628464215 6.3629233300628432 1.496680397350546
v 19.050000000000001 12.1921939753943 0.31138803716566432
v 12.951757745388649 5.2016091051689672 12.471085616154177
v 13.67662422474301 6.5161086707422307 1.1910449424827729
v 17.552145153563099 12.525484957364712 3.3729133101961692
v 8.104321086053794 12.596619659792239 -5.1313188672116699
v 17.713405434039839 8.355592387749553 -0.15399875486106795
v 25.399999999999999 5.2902638079273077 3.6368511180744632
v 18.270304097446491 6.6400009779013596 0.94385496016944925
v 19.050000000000001 3.9939523516311208 8.3972990482569738
v 16.007350870865579 12.037005485739325 1.6911357366235595
v 24.034987215307769 9.3348803926407697 7.4397579044107651
v 18.188784744051389 10.983551711952869 6.4493791570394698
v 17.47297956518857 9.8998143256789923 8.6116524368585914
v 19.050000000000001 8.3281598309765155 8.3153550333115742
v 19.84716759763036 8.8038882248425541 7.1736231519572389
v 20.654965941980951 10.613143598428127 7.1884175778293127
v 20.481649647195301 9.5439781637952805 7.5445582893119916
v 19.050000000000001 5.2691785632815424 6.5705506215950784
v 19.930755543915421 5.8122861599820643 5.6742238702833472
v 19.977262917121649 5.2552025970088998 3.7068052605513899
v 17.47297956518857 7.7598265074316046 12.881357013946397
v 17.47297956518857 6.0007072866142419 12.871595848888568
v 17.51576913947147 2.5048919089432262 9.1942262790807554
v 18.07940514753227 3.1945777240736897 11.46515590161791
v 19.050000000000001 3.6827970538846264 10.211983912704657
v 24.014025220393869 15.49133700495012 -2.5445559176948946
v 25.399999999999999 14.185654730631361 -3.4590146653171847
v 25.399999999999999 14.010043774444496 -2.5458254044355653
v 24.377778645630411 11.453800696965539 -5.7041029122800317
v 25.399999999999999 10.611475061915199 -4.5271451190951488
v 24.245458884782821 10.726722929031027 6.9618040505920717
v 25.399999999999999 9.3892402409035505 6.2254746594355819
v 23.836952318773331 4.9362647845645853 4.3431501154090828
v 24.12038752643689 5.3512100853315836 5.4431312583185303
v 0 12.709626004148346 -4.0752201549632119
v 0 12.055318579198028 -4.5267450739509343
v 1.0590689077497029 13.927009761659752 -4.4645236451742676
v 0.7810163667282044 12.405717850279849 -5.2269993854915882
v 0 14.044542774634236 -1.9133479576477312
v 0 10.627678157788219 -3.4928036333381418
v 5.7147474913269622 3.9845994750346811 6.2419131332674311
v 0 13.352577405151688 -0.21710352745681982
v 18.671441330717261 6.0015806735323656 2.2176314146085776
v 0.97902438196622832 14.420355648695372 -0.40773347422807893
v 1.0463612467692585 14.912538093422983 -1.3897360908302692
v 11.81696711497816 13.688238782856789 1.0529863982776666
v 0 10.991589419807777 -2.4043922166575808
v 11.90568377917935 6.3192790479086778 13.031264902355657
v 3.1495524430563204 9.1891973824929885 0.26380638874394036
v 18.261489782594278 4.0395985705383728 6.1321789152473851
v 0 11.706848546839099 -0.26514487535374798
v 0 10.109096814395699 -0.36021038098325242
v -1.7763568394002505e-15 6.3486843972049805 6.8591337982832332
v 13.80199980748324 9.6654578278358851 0.5025094495636715
v 6.3499999999999899 7.5976034104229972 2.5684632483632202
v -1.7763568394002505e-15 8.3206085447244398 9.4930232402158392
v 11.09554153190418 12.04252536229694 -5.4090324713713844
v 4.8447162024868824 12.129283321668627 -5.3655491406539131
v -1.7763568394002505e-15 6.2691263210825152 8.3447864858266723
v -1.7763568394002505e-15 4.7586253435992409 7.8791283928703635
v 19.853205134124082 9.6513045920435516 -5.0642992520512191
v 7.1880526760907166 10.91511181256481 6.5859304725100163
v -1.7763568394002505e-15 7.674377325390469 11.155070807421913
v 19.938248599733591 12.478927183708976 3.4658053993855944
v 7.1389852979092909 11.402475914471669 -5.7298270361223409
v 0.8877727788552594 8.8375923741540401 10.730998112397819
v -1.7763568394002505e-15 6.7135436375951834 9.6974991378511479
v 20.277534413306071 11.144468608026976 -5.8591410162448376
v -1.7763568394002505e-15 5.2754645823597528 9.0633209787338931
v 7.3136813486522643 8.0663499365121183 -1.901997070003532
v 23.545291796524161 7.3987513323533278 -0.57000405979626789
v 23.433987147442721 8.136890471623845 -2.0427395747358399
v -1.7763568394002505e-15 4.2429410507493479 9.5477601687437446
v -1.7763568394002505e-15 3.5059669513931606 8.9645921715661103
v 19.050000000000001 8.8418274397225591 -0.8056989110593249
v 0.76235639546204581 3.0421305588683758 8.1223275032958977
v 0.76485162338827273 3.5933938013608158 7.022446854639731
v 0.91581272995914098 8.4620463567536266 11.480287681118288
v -1.7763568394002505e-15 6.342425041386953 10.785906831720141
v 13.761825675305969 8.3491924501424784 -0.15720642140319319
v -1.7763568394002505e-15 4.922973830077364 11.45555743922913
v 6.3499999999999899 9.4525037244480288 6.5212755243076543
v 11.41072271253336 4.8122755391107317 4.5905335090479999
v 2.0340079776040909 9.3582100663263379 -4.4795169335242573
v 9.9209787945382217 2.4349343097867147 9.3338057097549267
v 1.7087994374438136 8.6503207875065051 -3.0671359526251316
v 1.6516080672102547 10.987229793480079 1.1649852377383976
v 1.5630476812266689 9.5523898704758921 0.44583947462373397
v 16.469728882515351 3.0685067333692935 8.06970174905919
v 15.20667144774767 12.569663197424772 3.2847688674177022
v 18.131501101920229 5.197860287866841 3.8212146593885992
v 1.8656987623891172 3.5192972007212973 7.1702844227789271
v 1.6389015231319135 2.7890967559511184 8.6271806511790299
v 1.0829786698887549 4.0569231081679407 11.897365808360977
v 1.9753972262078339 5.279024567152808 12.509886461177139
v 2.2292364593490728 14.988422331311618 -3.9325407109500712
v 24.200104894306801 9.8308269492587623 -5.4224823331676024
v 1.465213097263689 7.7573178639918368 12.886362260371504
v 2.0739194785246848 11.119286180620501 -5.871762518953231
v 2.3695329821269659 15.478623665464536 -2.5191902575127156
v 2.1822012312635177 14.9681877320041 -1.5007682726665528
v 3.1540408696228575 13.834306250060301 -4.5109869032170273
v 3.411099732961862 9.8175783733487023 -5.3960487690506795
v 3.1540408696228575 12.405717850279849 -5.2269993854915882
v 2.3040785303926175 14.490921879437566 -0.54852724689288879
v 3.1540408696228575 9.2068843807475407 -4.177591863279746
v 2.2635798050199529 13.871261718878092 0.68781896088440142
v 2.559122647710117 12.153100300379528 1.7493227808572318
v 3.2258191194239263 14.223702304335976 -0.015370640500085297
v 2.8501981811770225 7.8976871428158457 -1.5654809944965353
v 2.4883638806364825 8.334521844465657 -0.16455936980228847
v 3.1540408696228575 8.4935551079984108 -2.7543570042504757
v 3.1790226397354715 13.468218761720415 1.4919704351430272
v 3.1540408696228575 10.980978270256342 1.1618519568982952
v 2.3630327019913064 9.5642992076165623 7.5547432530364098
v 2.2551421574113046 5.6563865703904277 5.5960865620521947
v 2.6340951449601384 9.8295503748267805 8.7518431005623043
v 2.3481105269616531 9.1771290126180372 10.053554471374653
v 3.1540408696228575 8.1276502904523849 6.8346908170136391
v 3.1540408696228575 4.2135794715036239 5.7850521499251553
v 3.1540408696228575 6.699061890671933 6.1186783347390783
v 3.1540408696228575 3.5002501987544949 7.2082870089544215
v 2.3481105269616531 8.1118131236502506 12.179073172175167
v 2.1939782562450159 6.4972597423572811 13.120469321801229
v 3.1666640782423467 8.594328172870604 11.216358947074042
v 2.368978023887875 2.0829476935680624 10.036089551526167
v 2.445739812054839 2.5927459042636203 11.163516118402361
v 3.1540408696228575 5.2743223106484258 12.507529677128975
v 2.732043460403613 3.803192182403734 11.770195162138334
v 3.8440955116740785 14.958496952070192 -3.9475393943195809
v 4.0185656792345172 11.226996643150253 -5.8177777353341558
v 4.0425711235167414 15.480038677765567 -2.5220134906390119
v 3.8174920328603097 14.797691752878965 -1.1605946248362371
v 4.7450340580190504 9.2068843807475407 -4.177591863279746
v 3.9010430574333004 13.837005108228027 0.75616776457426571
v 4.1788457373879773 12.171710595977947 1.758650312810687
v 4.7078350627976908 14.244171027914106 -0.056209846220547366
v 3.8690772407384486 8.3705299354652389 -0.14651201436909211
v 4.7450340580190504 8.4935551079984108 -2.7543570042504757
v 4.5246668363805904 10.922339343921848 1.1324619638050226
v 4.5114167132859606 9.6397003771657506 0.48959974359502256
v 3.7178594853275584 5.4030767311508683 5.4691269655677486
v 3.8560161707724863 9.6962740705844048 9.0177560377242862
v 4.8220033430302136 7.9576976844392266 6.7495100978371347
v 3.9599712122840636 3.8615928552849734 6.4873359916963915
v 4.5657412765676559 9.1322056863059 10.143185510550392
v 3.9419681557306205 2.9125645448108823 8.380837667951587
v 4.7450340580190504 3.5002501987544949 7.2082870089544215
v 3.8538347767509045 8.0741371636318284 12.254244263134266
v 3.879027588780068 6.3839647511600797 13.063685556870162
v 4.4478992723104662 8.5061149069457347 11.392362091609574
v 3.9630027435205815 4.572118886833791 12.155583366614007
v 3.925451447841783 2.2079159250659179 9.7867528845287115
v 3.9509785629676255 2.6997090019937993 11.21712632070369
v 5.1377397767199442 5.3179471619414382 12.529394574021579
v 4.5373253016065007 3.7164719384881222 11.726730734512424
v 5.5731235193324036 15.134632589159221 -3.8592597227581229
v 5.4049352375841151 12.918008069706472 -4.9702381016165358
v 5.3217958998918702 13.83424323318286 -4.5110184874514001
v 5.495553793910906 11.288271477523615 -5.7870666177950678
v 5.6113906769596031 15.526768128131071 -2.6152481092705275
v 5.5300969037540337 14.883763194611083 -1.3323244008595156
v 5.5754011918515269 9.5680641230964625 -4.8982178340955809
v 6.3529072192447096 12.233569516077768 -5.3132806097479275
v 5.7293751648851678 8.9896259344957521 -3.7441177217624566
v 6.1010102136597792 14.300511956628021 -0.16862129041474327
v 6.092956946076395 8.4530239439882386 -2.6734892091101004
v 6.3499999999999899 8.9813099872048525 1.8566418117087891
v 7.3327027122371913 11.718594238878305 4.982822004327252
v 6.3499999999999899 9.5708977224188132 3.8125919955114029
v 6.3499999999999899 7.801917904123286 4.0898230831925355
v 6.3499999999999899 6.3498784434042861 3.274758293685252
v 6.3499999999999899 8.8472582317239006 5.4246504033742848
v 5.4735266250924459 8.9470134574422424 10.512681121916925
v 5.5300969037540337 8.4637997398689073 11.476789330403921
v 6.5184170731791777 9.1986101972736165 10.010695202895118
v 5.5509644006802539 2.7962769663171922 8.6128546924968976
v 5.5426718174827396 6.4397841350585239 13.091662387446627
v 5.6496047685502466 2.1768036694514104 9.8488280697555055
v 5.7342353226647891 3.7729375440003912 11.755031453160418
v 5.489544000289909 2.6642205103974481 11.199339389937636
v 7.1128167171353276 15.157589755557972 -3.8477535270605485
v 7.0230339613710839 13.638871074111737 -4.6089395573728371
v 7.1964876096809158 15.527466385291326 -2.6166412722444963
v 7.1210900921502223 14.883763194611083 -1.3323244008595156
v 6.8552497469020697 9.4509462756122122 -4.6645442565180648
v 7.1210900921502223 14.170433921861953 0.090910458169755071
v 7.091786342218886 8.8840841863672466 -3.5335407823912814
v 8.319246599906398 9.2941121929564616 -4.3516288301550077
v 7.9222313452353132 8.4605953395275453 -2.6885956606111177
v 7.744973484410461 6.4006624727526509 1.4213832442994572
v 7.9270204348114284 11.326472871177256 5.7651827188000455
v 7.1419575890764442 3.5096062390663212 7.1896198334676287
v 7.1210900921502223 8.4637997398689073 11.476789330403921
v 7.9884691232921092 9.2314297333950091 9.945213650897232
v 7.141939752856894 2.7955608750927494 8.6142834380030848
v 7.0849558179656107 6.4943140253685643 13.118992920247434
v 7.1449891203129621 5.2985038627996071 12.519649538373599
v 7.1801899507578879 2.1626133311248728 9.8771406386339855
v 7.0366464421516 2.9452319726709755 11.340183116990854
v 8.6019220743880673 14.931031931994088 -3.961304938827316
v 8.689849757040113 11.311412239528876 -5.7754684034684942
v 8.7087915372225257 15.506952378035662 -2.5757117165119525
v 8.7120832805464126 14.883763194611083 -1.3323244008595156
v 9.4007117345982181 13.804102590771752 -4.5261250613207125
v 9.607065158991567 12.487826613559092 -5.1858462447961298
v 10.06840932951828 9.6922945023177967 -5.1460823379267708
v 8.8913660838439625 8.7605834961253244 -3.2871321543125958
v 9.5180136232076187 9.2068843807475407 -4.177591863279746
v 8.7120832805464126 13.457104649112821 1.5141453171990258
v 9.524160763975221 14.18279137919842 0.06625485419819066
v 8.7583100915488004 7.7702486320780357 -1.3112156253412537
v 9.5180136232076187 8.1415684917797577 -2.0520731624792359
v 8.7120832805464126 12.391788760145038 3.6396640179995359
v 9.3798432102424361 12.836808387597069 2.7517606738664888
v 8.7609616645844177 11.744078418376448 4.9319759588877696
v 9.5926079005228466 6.3537660620722143 1.5149509822201512
v 9.5165872798185855 11.294938199459594 5.8281007088099752
v 9.5180136232076187 5.6402380170018871 2.9385824318666089
v 9.5180136232076187 10.613143598428127 7.1884175778293127
v 9.3737837896344232 4.9069674978968756 4.4016040738450801
v 9.5180136232076187 9.8998143256789923 8.6116524368585914
v 9.12183012980074 4.2039651692153273 5.8042346098138591
v 9.5180136232076187 9.1864850529298625 10.034887295887859
v 8.7329507774726345 2.7962769663171922 8.6128546924968976
v 9.390293519114028 3.4404861481859745 7.3275282672839683
v 8.7613434818420544 8.1353153586898728 12.132181503136302
v 8.676236100470577 6.4206975355637699 13.082096130654595
v 8.7359823087091506 4.572118886833791 12.155583366614007
v 8.8584158405740716 2.2001848255391607 9.8021779774913202
v 8.651041069152285 2.7876432278084229 11.261199199436358
v 9.5038176171473179 5.3367902912539851 12.538838802880619
v 9.75697387606969 3.6927566361805084 11.714844558987146
v 10.48292000864741 15.068940078838141 -3.892184991778278
v 10.30004493770608 10.977129450499397 -5.943011867766149
v 10.0703872228472 15.499760831841259 -2.561363140580466
v 11.42052443426666 14.909668156380789 -1.3840099912606703
v 11.109006811603811 14.179789962173778 0.072243282682962207
v 10.23108966057919 12.184721344230178 4.0528050115877612
v 10.29676992001276 11.673649755786487 5.0724952555185343
v 10.95405089362478 11.241315489074664 5.9350887626737121
v 11.109006811603811 5.6402380170018871 2.9385824318666089
v 10.323943965868819 4.2229355118154501 5.7663849744383615
v 10.844137281782031 9.7680496747091095 8.8745493227881767
v 10.28433006100131 8.7406123774924129 10.924492641713053
v 10.2343634654769 8.0386763721022625 12.324995649011287
v 10.291106787121871 6.4056116210506655 13.074535028310791
v 11.27327498435052 8.4562098406209483 11.491932700512068
v 10.323943965868819 2.0829476935680624 10.036089551526167
v 10.3374699682424 2.5560565117712208 11.145127292764643
v 11.16168696910769 2.7735891162180319 8.6581215003668603
v 11.372883049329131 5.1798352570850525 12.460172502889622
v 11.06230290245972 3.8718661424908865 11.804614742079751
v 11.725991555379521 12.875151481554299 -4.9917179428845806
v 12.699999999999999 13.120960644100016 -3.117902908190382
v 12.699999999999999 11.924964332822846 -4.0409793829927221
v 11.585440212976041 9.1229047149035445 -4.0100355993706938
v 12.699999999999999 12.265386108284744 -1.3260230060045495
v 12.699999999999999 13.751836872116023 -1.0493847297231853
v 12.699999999999999 11.000065094978467 -2.4901745155301618
v 12.699999999999999 9.5122448950999701 -2.407700869667257
v 12.699999999999999 11.540373099310463 0.25546629350257044
v 12.699999999999999 10.136543270351741 -0.68989142786710556
v 13.491008167631559 10.972917752872624 1.1578120031500911
v 11.96340527064398 11.631657589171866 5.1562780436575464
v 11.766214783044051 10.628281523705699 7.1582143830755243
v 11.91493715426502 5.2882514007832366 3.6408662736378448
v 12.699999999999999 5.6402380170018871 2.9385824318666089
v 12.699999999999999 9.8998143256789923 8.6116524368585914
v 12.01595814611197 3.5760198391439513 7.0571113912165089
v 12.699999999999999 4.2135794715036239 5.7850521499251553
v 11.89406965733879 8.8251423963993858 10.75583831314589
v 12.699999999999999 9.1864850529298625 10.034887295887859
v 11.89406965733879 8.1118131236502506 12.179073172175167
v 12.758553210044649 8.5382599018333902 11.328226384559292
v 11.815779024594759 2.1571959260711644 9.887949447430243
v 11.915481609224649 2.7585267706036909 11.246605950043179
v 12.69509389718502 3.8654803206528063 11.801414150400337
v 13.48506284573498 11.678459487395909 5.0628988770288057
v 14.29099318839619 12.039802143926385 4.3419478597707766
v 14.065011290103399 6.0212265456287817 2.1784339625036182
v 13.2889196625495 4.95722218567865 4.3013359000674871
v 13.843482095206539 10.740040210362748 6.9352334053895293
v 13.98527539076396 9.9276333786159761 8.5561478509714792
v 13.73849405625826 3.5104101598169271 7.1880158504546383
v 14.29099318839619 4.2135794715036239 5.7850521499251553
v 13.505930342661211 2.7962769663171922 8.6128546924968976
v 13.436288613126971 8.0323391336563628 12.337639709770807
v 13.491267590604821 6.4457341888063446 13.094644570946297
v 14.29099318839619 8.4731557801807345 11.458122154917127
v 13.437205920591079 2.1694177361553395 9.8635644869123684
v 13.5295891694772 2.5866055102856231 11.160438535849538
v 14.29099318839619 5.2743223106484258 12.507529677128975
v 13.980937990786799 3.9162002399511717 11.826835115125494
v 14.96557797844206 11.070643980135284 1.2067926602633778
v 15.24661742567976 8.7980256948432594 0.067750050114383953
v 14.86251186356157 6.6260200666856548 0.97174967999007089
v 15.88198637679238 7.0668965625001494 0.092112713808065738
v 15.25115435819332 11.190545169974715 6.0363857242698744
v 15.096923531057399 5.6495940573137142 2.9199152563798152
v 15.78235586490908 6.4033355097810993 1.4160499997184499
v 15.07605603413117 10.251800941897649 7.9093685950873436
v 15.81742812316447 4.8971982002530128 4.4210957805310995
v 15.653296139485221 9.8085323634623816 8.7937782455003504
v 15.854982275805011 4.1427943933305924 5.9262825670741801
v 15.675962940124981 9.1822731753063245 10.043290835858514
v 15.204360968613789 2.8019283033480686 8.6015791425233648
v 15.40522642165444 3.528940977588177 7.1510431551988853
v 14.99930293005094 8.0289263538455842 12.344448889456048
v 14.92472845061423 6.5297330275257579 13.136745022713168
v 15.88198637679238 8.4731557801807345 11.458122154917127
v 14.95459788339109 2.1211146887713719 9.9599387469637737
v 14.904571403380791 2.6498842624553784 11.192154022565843
v 15.849582298843099 7.7639744642095891 12.87308100887314
v 15.99555464495098 2.1704488916413638 9.8615071250616015
v 16.166477260095132 6.4919172828720173 13.117791666237119
v 15.407278591116629 5.0830484733379553 12.411662697481164
v 15.520088585741791 3.7021692595452338 11.719562192016454
v 15.917722197525871 2.5412555966983144 11.137709032933529
v 16.67299454442394 10.262653811674257 0.80182573888691211
v 16.52845498394527 8.2256401352569579 -0.21913118551687649
v 16.48813300872483 12.659954389871633 3.1046198430289529
v 4.8431428287146741 7.4242144047424858 -0.62080799232320283
v 5.0191677401763144 13.101093218606028 2.2244594700970275
v 16.49671757008603 12.16094291827779 4.1002477368496297
v 12.699999999999999 13.747097305011536 0.93555185061254775
v 12.699999999999999 8.0652331803469721 -1.8997689176424974
v 12.699999999999999 12.865792948772544 -4.9964084655631513
v 16.66959375266147 11.594570464479473 5.2302742901314261
v 20.487310419201059 15.946360681026253 -3.4524193437665054
v 17.47297956518857 12.039802143926385 4.3419478597707766
v 16.687916719453579 6.0015806735323665 2.2176314146085758
v -1.7763568394002505e-15 9.6164782400754056 9.1769647116483384
v 6.3499999999999899 5.7608162343003295 5.6484270002712922
v 16.609057238609491 11.004767972119133 6.407048466010222
v 14.020853598653609 13.101093218606028 2.2244594700970275
v 14.175525350941919 7.424214404742485 -0.62080799232320238
v 17.500456209938189 5.6229706010085145 2.9730343873743581
v 16.918583687943681 10.312514959864766 7.788231961412535
v 19.050000000000001 14.855074718369956 -3.9993749057135317
v 6.3499999999999899 12.511268030133367 3.4012789292684822
v 6.3499999999999899 6.8343892162698259 0.55601146684825142
v 19.050000000000001 3.0023370031038734 11.368804317188831
v 19.050000000000001 9.6815932430670522 -5.1247311810585412
v 17.00809286688634 9.004323850697654 10.398335401669911
v 0 14.773451452294754 -4.0402847138590019
v 17.739125062516461 1.7336794799020199 10.732949635403891
v 17.739125062516461 7.4105582937655612 13.578217097824121
v 1.4096272185845926 4.5789469423222506 5.0560708215403478
v 17.47297956518857 3.5002501987544949 7.2082870089544215
v 16.993620300563599 8.2987568717948168 11.806082928817379
v 19.050000000000001 2.3194798540865325 9.5641604873592083
v 24.093119154931149 4.5789469423222506 5.0560708215403478
v 23.98226616766943 10.255825756185793 7.9013382839605786
v 0 15.301704075760281 -2.1662002192070733
v 16.690948250690099 4.572118886833791 12.155583366614007
v 0 9.7398364761171141 -5.2409381036483644
v 1.303888560691151 10.269481867162712 -6.2976868061867357
v 3.6823901584560659 9.1917380233190897 7.3680145504871088
v 19.050000000000001 9.6765725468370132 -2.4711826928628953
v 16.690948250690099 3.1435304870533392 11.439570884339446
v 19.050000000000001 13.474484431222635 -3.8389142107193366
v -1.7763568394002505e-15 5.4561259959702078 10.111787128585505
v 19.050000000000001 12.045896031442183 -4.5549266929938987
v 17.86318016070846 6.1136461176906369 1.9940383942296951
v 18.23581284558394 11.609060525729308 5.2013637139528299
v 19.050000000000001 14.196025256757849 -1.6808791233868665
v 19.521395581811941 11.129312753572581 6.1585566667159188
v 10.71647538873632 3.6809215270197333 6.8478115003254079
v 17.033517526369991 6.635332519883157 0.95316946953174408
v 19.050000000000001 10.972769747451764 -2.4138246888247177
v 11.50846703254256 11.414479939565265 -5.7238105853336663
v 19.050000000000001 11.94379393467389 -1.2337397336628917
v 19.050000000000001 11.298263498525852 -3.6811337128209272
v 19.050000000000001 5.3137851050375078 7.7412138865247737
v 7.6323417284435777 7.5302047708820687 -0.832280014535002
v 19.987888579134161 8.8418851944729564 -3.4493453363690239
v 18.039002238239849 10.873985588825054 1.1082269271636278
v 18.13142441004609 9.5236977742418016 0.43145891613019716
v 19.050000000000001 10.07826917340957 -0.73056316570206814
v 19.050000000000001 14.207659182810652 -2.905807994235325
v 19.050000000000001 13.218865882772326 -0.62419624369651672
v 19.063972753584761 12.039802143926385 4.3419478597707766
v 19.063972753584761 5.6402380170018871 2.9385824318666089
v 13.891000678013871 12.046374182053892 1.6958313532930633
v 19.050000000000001 6.2189880726316034 6.8343135007282747
v 6.3499999999999899 10.802517473751012 4.1747750973974176
v 6.3499999999999899 8.3947553567386812 3.1939534246851702
v 20.25601791231151 6.8727677199001445 6.2057401798376155
v 4.359322319457366 13.027326497207319 -4.9154474014783691
v 10.70452587465495 13.471113762077392 -4.6930199890968236
v 6.5122813615518371 13.738234070209399 0.95323578034326983
v 7.2010064922788199 5.9078976236999843 2.4045478742510698
v 19.050000000000001 6.5760913909092427 9.5159732112214499
v 19.050000000000001 7.0554943780067774 10.767084209350248
v 1.9383990739612109 8.6535603775240766 11.098178827933429
v 13.102965171330601 6.8909032543908229 0.44325463469368565
v 19.050000000000001 5.2661355654587192 8.9720541834094494
v 0 11.874327875329342 -3.2897096821246623
v 19.050000000000001 5.5870222002715852 11.111664466247881
v 18.255010879687031 4.572118886833791 12.155583366614007
v 20.01728006619609 13.211750155830618 -4.8230137504552211
v 20.406233217138791 12.308117546075572 -5.2759169296175212
v 20.40813402019716 9.2508517467024163 -4.2653155699566252
v 20.489696726753639 8.4708868695425892 -2.7091293255393851
v 19.842028530999158 6.403698119519186 1.4153265206195487
v 20.69234178016227 12.082533538239362 4.2566901642232935
v 20.644541016541101 11.35197449181732 5.7143018747870116
v 20.949760687821041 8.3099082911105153 6.9260390342367977
v 21.316812588690759 14.980926200763509 -3.9362977924453646
v 21.436997256479419 13.810124697909117 -4.5231067644616534
v 21.429245621736509 11.452278961879236 -5.704865610140855
v 21.338546475747329 15.504046802682327 -2.5699145113692761
v 21.364927125138291 14.899954990475401 -1.3646302786423941
v 22.234057749380941 15.107985156086995 -3.872615490383859
v 22.228463549310391 15.500790600543519 -2.5634177355196939
v 22.245959130377141 12.405717850279849 -5.2269993854915882
v 21.422547936249391 9.0610352177517086 -3.8865935531502358
v 22.245959130377141 14.179789962173778 0.072243282682962207
v 22.245959130377141 8.4935551079984108 -2.7543570042504757
v 22.354046068917761 13.487804024381752 1.4528939110079171
v 22.245959130377141 7.7802258352492801 -1.331122145221205
v 22.078910939939281 12.802534709185096 2.8201435311619498
v 22.325746854142459 12.081903285271387 4.2579476452047924
v 21.504359346472832 5.7342158175311955 2.7510778855121094
v 21.83371268409747 9.3451494260745882 7.4449047725504194
v 22.245959130377141 11.326472871177256 5.7651827188000455
v 21.574017680493519 5.059238188191042 4.0977935298029244
v 21.250789875853641 5.4709252968595852 5.5031328555493086
v 22.245959130377141 10.613143598428127 7.1884175778293127
v 22.563320225365182 6.650922565211312 6.0945507708281728
v 23.202017283050679 15.094739148068404 -3.8792544264714528
v 22.97330095920449 13.928624661854709 -4.4637142527016742
v 22.982581748833589 11.151479124812461 -5.8556273257190199
v 23.031021976112122 15.597092467360213 -2.7555592598887864
v 23.031021976112122 14.883763194611083 -1.3323244008595156
v 23.017663129784371 9.719295969365005 -5.1999556761095906
v 23.05188947303834 8.8548977645288893 -3.4753080215085075
v 23.836952318773331 14.179789962173778 0.072243282682962207
v 23.836952318773331 13.466460689424647 1.4954781417122338
v 23.836952318773331 12.753131416675517 2.9187130007415041
v 22.9531141232377 6.3671299239925361 1.4882873994080317
v 24.006390605172101 12.060904281207746 4.2998448667685309
v 23.716044692582461 5.7154738133420251 2.7884719399959503
v 23.122639596175151 10.874835301764543 6.6662901834610171
v 23.836952318773331 11.326472871177256 5.7651827188000455
v 22.862161547802788 5.1692557195236679 3.878286505937937
v 23.054867985150551 5.5901984464582961 5.5629128901107006
v 24.35899637989883 13.771405657084101 -4.5425128554929604
v 24.463636703760219 12.492847897950943 -5.1833295630827898
v 25.399999999999999 13.180355767274483 -3.7574944575544245
v 24.335033045619351 14.894784136166582 -1.3543133879939693
v 25.399999999999999 12.030225682723342 -4.5393217035071167
v 25.399999999999999 12.557463499792821 -2.2368656189667919
v 24.622015164508309 9.2068843807475407 -4.177591863279746
v 25.399999999999999 13.317111157409474 -0.18989466571509572
v 25.399999999999999 10.966496523333092 -2.4169688462137633
v 24.195425218801759 8.5071047311548575 -2.7813912179574847
v 25.399999999999999 9.4674849889220845 -2.3978137412389438
v 25.399999999999999 11.63960152192668 -0.2956013472710195
v 25.399999999999999 12.586984182833088 1.0958046759309754
v 25.399999999999999 10.300726721948585 -1.3201073669496481
v 24.404089509474939 7.7480589579262276 -1.2669427783267984
v 25.399999999999999 8.784691965899869 -0.82341000055608449
v 25.399999999999999 10.968426377615282 1.1455133541193394
v 25.399999999999999 11.826253804610584 2.486284826177251
v 25.399999999999999 9.5398379778348303 0.42950087184477859
v 24.393025514437689 7.0213361119297666 0.1830149435664854
v 25.399999999999999 9.1819553230745754 1.4352606910327792
v 25.399999999999999 8.0215497496084467 0.54948188533384323
v 25.399999999999999 10.313903144946471 2.6699257024452603
v 25.399999999999999 11.172108742126897 3.9541632376899032
v 24.364343573269529 6.32641756440424 1.569516716040569
v 25.399999999999999 8.65879419628906 2.8788199441616587
v 25.399999999999999 7.4534392698539031 1.8413915172321234
v 25.399999999999999 10.46222600112905 5.4371220211123763
v 25.399999999999999 9.2188393250462202 4.6231091012198
v 25.399999999999999 7.7668550486451036 4.1311832678646976
v 24.30026170648966 6.5887879797349189 6.0634087436432313
v 25.399999999999999 8.1431716721748213 5.6655653118509779
v 25.399999999999999 7.04945027294632 5.3983234471966739
v 1.6575803803564302 15.946360681026253 -3.4524193437665054
v 0 13.8184473056433 0.79319429994099444
v 0 8.8340654118938051 0.085813256612350841
v -1.7763568394002505e-15 8.8459747490344736 7.1947170350250245
v -1.7763568394002505e-15 5.9887979494735708 5.7626920704759019
v -1.7763568394002505e-15 8.1118131236502506 12.179073172175167
v -1.7763568394002505e-15 5.8773430427474107 12.809765346492924
v -1.7763568394002505e-15 2.4348998028637894 9.3338745579817708
v 12.699999999999999 11.679332874314031 -5.5910655572511807
v 12.699999999999999 11.691242211454707 1.5178382211614738
v 12.699999999999999 8.8340654118938051 0.085813256612350841
v 19.050000000000001 15.245105851141561 -2.0532754181175474
v 19.050000000000001 13.8184473056433 0.79319429994099444
v 19.050000000000001 8.8340654118938051 0.085813256612350841
v 19.050000000000001 8.8459747490344736 7.1947170350250245
v 19.050000000000001 9.5384716691485156 9.3326034541166223
v 19.050000000000001 5.9887979494735708 5.7626920704759019
v 19.050000000000001 6.0007072866142419 12.871595848888568
v 25.399999999999999 11.679332874314031 -5.5910655572511807
v 25.399999999999999 10.965130214646779 6.4861337360580755
v 25.399999999999999 5.9887979494735708 5.7626920704759019
v 0 13.107921274094483 -4.8750530749766199
v 0 13.863799099400355 -4.4962050050379805
v 0 11.656737391773635 -5.6023904759922445
v 0 14.347282287137332 -0.26193747312603888
v 0 14.776848182568379 -1.1190075247606672
v 0 9.0999693687048389 -3.964274987180898
v 0 8.3866400959557073 -2.5410401281516273
v 0 11.234461514972256 1.2888984646901436
v 0 10.262653811674257 0.80182573888691211
v -1.7763568394002505e-15 7.322106027941528 6.4309497905072863
v 0 8.6108013949080107 11.183491567674608
v -1.7763568394002505e-15 9.1483874000849372 10.110899748548222
v -1.7763568394002505e-15 3.1482635825358436 7.9105708507256605
v -1.7763568394002505e-15 4.572118886833791 12.155583366614007
v -1.7763568394002505e-15 3.4079237182016424 11.572085507697846
v 2.3861981505352841 10.269481867162712 -6.2976868061867357
v 3.1540408696228575 15.946360681026253 -3.4524193437665054
v 3.5534444319417311 10.269481867162712 -6.2976868061867357
v 2.0973422919564459 13.101093218606028 2.2244594700970275
v 1.911320459752206 7.4242144047424858 -0.62080799232320283
v 2.1063191450895307 10.255825756185793 7.9013382839605786
v 2.619746258893084 4.5789469423222506 5.0560708215403478
v 2.1093114294672244 7.4105582937655612 13.578217097824121
v 1.9939329069469629 1.7336794799020199 10.732949635403891
v 3.1540408696228575 7.4105582937655612 13.578217097824121
v 3.1540408696228575 1.7336794799020199 10.732949635403891
v 4.7450340580190504 15.946360681026253 -3.4524193437665054
v 4.7450340580190504 10.269481867162712 -6.2976868061867357
v 3.6905490409173662 13.101093218606028 2.2244594700970275
v 3.6883354803526363 7.4242144047424858 -0.62080799232320283
v 4.2107394472892743 10.255825756185793 7.9013382839605786
v 4.2107394472892743 4.5789469423222506 5.0560708215403478
v 4.7450340580190504 7.4105582937655612 13.578217097824121
v 4.7450340580190504 1.7336794799020199 10.732949635403891
v 6.3360272464152398 15.946360681026253 -3.4524193437665054
v 6.3360272464152398 10.269481867162712 -6.2976868061867357
v 6.3499999999999899 11.216541388479097 1.2799168474132481
v 6.3499999999999899 9.7837267283198148 0.56178615167352719
v 6.3499999999999899 11.921442841660708 4.578098388439936
v 6.3499999999999899 6.2445640277971659 1.7328309260197055
v 6.3499999999999899 11.208113568911577 6.0013332474692103
v 6.3499999999999899 8.5405597713076489 7.0416421981023527
v 6.3499999999999899 6.9426855262784084 6.2407831790022357
v 6.3499999999999899 5.4954240192447639 3.2275153798851441
v 6.3360272464152398 7.4105582937655612 13.578217097824121
v 6.3360272464152398 1.7336794799020199 10.732949635403891
v 7.9270204348114284 15.946360681026253 -3.4524193437665054
v 7.9270204348114284 10.269481867162712 -6.2976868061867357
v 7.9270204348114284 7.4105582937655612 13.578217097824121
v 7.9270204348114284 1.7336794799020199 10.732949635403891
v 9.5180136232076187 15.946360681026253 -3.4524193437665054
v 9.5180136232076187 10.269481867162712 -6.2976868061867357
v 9.5180136232076187 7.4105582937655612 13.578217097824121
v 9.5180136232076187 1.7336794799020199 10.732949635403891
v 10.8322863809232 15.946360681026253 -3.4524193437665054
v 10.56274306336325 10.269481867162712 -6.2976868061867357
v 11.109006811603811 7.4105582937655612 13.578217097824121
v 11.109006811603811 1.7336794799020199 10.732949635403891
v 12.699999999999999 14.052253023231057 -4.4017513738751202
v 12.699999999999999 15.004210746787908 -1.5726414066121932
v 12.699999999999999 9.3852257804218109 -4.5334186974236435
v 12.699999999999999 14.290881474038779 -0.14940654758292338
v 12.699999999999999 8.6140026601752364 -2.9946740100031541
v 12.699999999999999 10.262653811674257 0.80182573888691211
v 12.699999999999999 7.4105582937655612 13.578217097824121
v 12.683365799773069 1.7430305491034623 10.737636417315235
v 8.3180360920606624 13.822215473984709 -4.5170468338393395
v 14.29099318839619 7.4105582937655612 13.578217097824121
v 14.29099318839619 1.7336794799020199 10.732949635403891
v 15.341707197307221 13.101093218606028 2.2244594700970275
v 15.341707197307221 7.4242144047424858 -0.62080799232320283
v 15.88198637679238 7.4105582937655612 13.578217097824121
v 15.88198637679238 1.7336794799020199 10.732949635403891
v 16.932700385703409 13.101093218606028 2.2244594700970275
v 17.01440160861922 7.424214404742485 -0.62080799232320238
v 16.720590946648581 7.4105582937655612 13.578217097824121
v 16.428250125032928 1.7336794799020199 10.732949635403891
v 19.050000000000001 13.587995775325915 -4.6344383987295874
v 19.050000000000001 12.159407375545463 -5.3504508810041482
v 19.050000000000001 14.531776578392432 -0.63004055908827672
v 19.050000000000001 9.0937046189713939 -3.9517755559303454
v 19.050000000000001 11.213550767910018 1.2784179400599918
v 19.050000000000001 10.262653811674257 0.80182573888691211
v 8.437691439115639 14.12932723101131 0.17292654469947655
v 19.050000000000001 8.3803753462222623 -2.5285406969010737
v 19.050000000000001 7.4173863492540217 6.4787045527504628
v 9.9105450460751108 14.888441214766996 -1.3416579886029125
v 19.050000000000001 3.6186095010201749 6.9721364802852586
v 2.9488667802835753 2.7518173132138184 8.7015606106953847
v 19.050000000000001 8.5821590421345881 11.240638801734756
v 5.9434958235477469 3.5049282189104103 7.1989534212110211
v 19.050000000000001 2.9052802282710459 8.3953713393145257
v 19.050000000000001 4.0836800867774672 11.910776480514915
v 21.465952231908361 15.946360681026253 -3.4524193437665054
v 21.699695382136579 10.269481867162712 -6.2976868061867357
v 22.245959130377141 15.946360681026253 -3.4524193437665054
v 21.195245121466119 10.255825756185793 7.9013382839605786
v 21.041114359819041 4.5789469423222506 5.0560708215403478
v 23.565326049842191 15.946360681026253 -3.4524193437665054
v 23.290688570532769 10.269481867162712 -6.2976868061867357
v 22.920501259379911 10.255825756185793 7.9013382839605786
v 22.786238309862309 4.5789469423222506 5.0560708215403478
v 25.399999999999999 14.321220615693642 -4.2669440678938155
v 25.399999999999999 15.185672054108352 -1.9346930817777879
v 25.399999999999999 13.107921274094483 -4.8750530749766199
v 25.399999999999999 9.5268425030200525 -4.8159724407272364
v 25.399999999999999 14.531776578392432 -0.63004055908827672
v 25.399999999999999 8.9007951026406644 -3.5668824094283837
v 25.399999999999999 13.8184473056433 0.79319429994099444
v 25.399999999999999 8.2638001628573701 -2.2959498429981902
v 25.399999999999999 13.105118032894168 2.2164291589702652
v 25.399999999999999 7.5695749307413944 -0.91083137371503353
v 25.399999999999999 12.391788760145038 3.6396640179995359
v 25.399999999999999 6.9057925027993745 0.41354760013147285
v 25.399999999999999 11.678459487395909 5.0628988770288057
v 25.399999999999999 5.9562550755955215 2.3080650662957547
v 25.399999999999999 8.6275557590744985 7.0852448293140036
v 15.187677002957351 9.9287126960613943 0.63445352225667229
v 25.399999999999999 7.4173863492540217 6.4787045527504628
v 4.7620381616983254 6.9908704700269961 6.2649336069260446
v 6.3499999999999899 9.9136330652177147 2.3976054860525831
v 0 12.652294594029854 -2.3481367235364945
v 23.400049481820702 8.1587510587366854 6.8502786086429932
v 6.3499999999999899 6.8833092105327722 2.2104570072259397
v 9.8242535162507991 2.8423709994219966 8.5208878586458514
v 16.284951548122979 5.6449160371577989 2.9292488441232152
v 15.41822724201022 12.038908936894897 4.3437299868081896
v 23.433987147442721 7.7802258352492801 -1.331122145221205
v 0 10.120863776005493 -1.4251035456438621
v 18.488043809991471 12.586589600700373 3.2509973006250203
v 19.056986376792381 5.1095924796620693 3.9973266267034777
v 12.699999999999999 9.7645687802439749 -3.4544672545369379
v 5.8690583498006612 13.524199212838024 1.3802782159975706
v -1.7763568394002505e-15 4.5558198968078623 10.4041835343904
v 21.38768659490237 12.473564807474597 3.4765044146588417
v 23.041455724575229 12.396466780300951 3.6303304302561403
v 2.3585442754247641 3.1435855623799327 7.919904438469052
v 17.471146868305961 6.3468454527090774 1.5287589848742134
v 16.740984685601891 5.2158874095963697 3.7852469386829144
v 25.399999999999999 6.3498415407334594 3.2825594685909918
v 25.399999999999999 9.9209825259327182 -3.5598333752495868
v 25.399999999999999 13.628729569100052 -1.4063327663932763
f 1 34 36 
f 466 34 1 
f 1 35 466 
f 602 35 1 
f 1 36 475 
f 475 37 1 
f 1 37 602 
f 2 38 478 
f 625 38 2 
f 2 42 477 
f 478 42 2 
f 2 477 625 
f 603 43 3 
f 3 43 630 
f 48 44 3 
f 3 44 603 
f 641 48 3 
f 630 49 3 
f 3 49 641 
f 604 50 4 
f 4 50 629 
f 4 52 604 
f 642 52 4 
f 629 53 4 
f 4 53 642 
f 5 55 453 
f 605 55 5 
f 5 57 59 
f 453 57 5 
f 5 58 605 
f 643 58 5 
f 5 59 643 
f 100 60 6 
f 6 60 606 
f 6 62 469 
f 606 62 6 
f 6 65 100 
f 469 65 6 
f 7 66 68 
f 607 66 7 
f 218 67 7 
f 7 67 607 
f 7 68 608 
f 7 69 244 
f 608 69 7 
f 645 218 7 
f 7 244 645 
f 8 39 637 
f 646 39 8 
f 71 70 8 
f 8 70 609 
f 637 71 8 
f 8 72 73 
f 609 72 8 
f 8 73 646 
f 9 75 444 
f 755 75 9 
f 9 78 461 
f 659 78 9 
f 9 79 86 
f 461 79 9 
f 9 86 330 
f 9 330 512 
f 9 444 659 
f 9 512 755 
f 10 51 462 
f 496 51 10 
f 10 82 287 
f 443 82 10 
f 85 84 10 
f 10 84 443 
f 660 85 10 
f 10 87 88 
f 462 87 10 
f 10 88 660 
f 287 190 10 
f 10 190 496 
f 81 80 11 
f 11 80 182 
f 94 81 11 
f 11 91 653 
f 664 91 11 
f 11 93 94 
f 653 93 11 
f 11 182 663 
f 663 202 11 
f 11 202 664 
f 12 32 76 
f 101 32 12 
f 12 76 313 
f 12 96 454 
f 654 96 12 
f 98 97 12 
f 12 97 666 
f 454 98 12 
f 161 99 12 
f 12 99 654 
f 666 101 12 
f 313 161 12 
f 13 102 357 
f 677 102 13 
f 13 103 681 
f 682 103 13 
f 13 354 677 
f 681 354 13 
f 13 357 682 
f 14 104 678 
f 683 104 14 
f 610 105 14 
f 14 105 683 
f 14 355 492 
f 678 355 14 
f 14 492 610 
f 15 29 107 
f 166 29 15 
f 15 106 446 
f 611 106 15 
f 15 107 108 
f 15 108 456 
f 446 166 15 
f 15 456 505 
f 15 505 611 
f 16 33 109 
f 112 33 16 
f 16 109 110 
f 16 110 447 
f 447 111 16 
f 16 111 612 
f 517 112 16 
f 457 113 16 
f 16 113 517 
f 16 200 457 
f 612 200 16 
f 17 115 117 
f 613 115 17 
f 450 116 17 
f 17 116 460 
f 17 117 450 
f 17 460 501 
f 17 501 613 
f 464 118 18 
f 18 118 701 
f 18 119 181 
f 717 119 18 
f 18 181 464 
f 701 188 18 
f 18 188 717 
f 19 41 696 
f 704 41 19 
f 64 56 19 
f 19 56 614 
f 184 64 19 
f 752 184 19 
f 19 614 704 
f 19 696 752 
f 20 30 61 
f 707 30 20 
f 61 31 20 
f 20 31 526 
f 20 126 615 
f 697 126 20 
f 526 128 20 
f 20 128 697 
f 615 195 20 
f 20 195 707 
f 21 132 459 
f 488 132 21 
f 459 133 21 
f 21 133 617 
f 21 134 616 
f 617 134 21 
f 21 135 137 
f 616 135 21 
f 21 136 488 
f 719 136 21 
f 21 137 719 
f 22 77 89 
f 170 77 22 
f 22 89 211 
f 618 138 22 
f 22 138 710 
f 549 139 22 
f 22 139 618 
f 22 140 720 
f 753 140 22 
f 710 170 22 
f 22 211 753 
f 720 549 22 
f 23 141 468 
f 712 141 23 
f 23 468 619 
f 619 515 23 
f 23 515 712 
f 467 143 24 
f 24 143 472 
f 463 144 24 
f 24 144 467 
f 24 145 463 
f 472 145 24 
f 25 40 721 
f 725 40 25 
f 721 146 25 
f 25 146 726 
f 148 147 25 
f 25 147 725 
f 726 148 25 
f 554 149 26 
f 26 149 620 
f 620 150 26 
f 26 150 728 
f 26 217 722 
f 728 217 26 
f 722 554 26 
f 474 131 27 
f 27 131 739 
f 27 151 474 
f 621 151 27 
f 27 152 621 
f 739 152 27 
f 153 127 28 
f 28 127 622 
f 473 153 28 
f 28 154 473 
f 622 154 28 
f 359 107 29 
f 29 166 358 
f 331 330 29 
f 29 330 335 
f 358 331 29 
f 29 335 359 
f 542 61 30 
f 30 525 540 
f 707 525 30 
f 30 540 542 
f 31 61 542 
f 31 83 120 
f 542 83 31 
f 31 120 526 
f 101 45 32 
f 32 45 339 
f 341 76 32 
f 32 339 341 
f 33 51 332 
f 337 51 33 
f 332 109 33 
f 33 112 337 
f 159 36 34 
f 624 155 34 
f 34 155 744 
f 744 159 34 
f 34 466 624 
f 216 157 35 
f 35 157 624 
f 602 216 35 
f 624 466 35 
f 36 159 627 
f 627 475 36 
f 37 165 221 
f 627 165 37 
f 221 220 37 
f 37 220 602 
f 37 475 627 
f 38 158 224 
f 625 158 38 
f 224 219 38 
f 38 219 478 
f 249 214 39 
f 39 214 637 
f 39 247 249 
f 646 247 39 
f 553 552 40 
f 40 552 721 
f 569 553 40 
f 725 569 40 
f 440 130 41 
f 41 130 696 
f 498 440 41 
f 704 498 41 
f 223 204 42 
f 42 204 628 
f 638 223 42 
f 628 477 42 
f 42 478 638 
f 43 162 171 
f 603 162 43 
f 43 171 630 
f 44 48 227 
f 227 164 44 
f 44 164 603 
f 45 101 513 
f 45 311 337 
f 513 311 45 
f 45 337 339 
f 46 56 541 
f 614 56 46 
f 539 534 46 
f 46 534 702 
f 541 539 46 
f 702 614 46 
f 110 109 47 
f 47 109 333 
f 685 110 47 
f 47 328 329 
f 333 328 47 
f 47 329 377 
f 47 377 685 
f 233 227 48 
f 641 233 48 
f 49 207 228 
f 630 207 49 
f 49 228 641 
f 604 172 50 
f 50 172 751 
f 751 629 50 
f 337 311 51 
f 51 311 462 
f 496 332 51 
f 231 208 52 
f 52 208 631 
f 642 231 52 
f 631 604 52 
f 53 206 230 
f 629 206 53 
f 53 230 642 
f 176 55 54 
f 54 55 605 
f 54 173 179 
f 632 173 54 
f 187 176 54 
f 54 179 187 
f 54 605 632 
f 55 176 634 
f 634 453 55 
f 56 64 543 
f 543 541 56 
f 238 59 57 
f 57 186 238 
f 634 186 57 
f 57 453 634 
f 239 90 58 
f 58 90 605 
f 58 235 239 
f 643 235 58 
f 238 237 59 
f 59 237 643 
f 60 100 180 
f 180 173 60 
f 60 173 606 
f 62 90 236 
f 632 90 62 
f 62 236 469 
f 62 606 632 
f 63 134 514 
f 708 134 63 
f 63 495 506 
f 518 495 63 
f 63 506 708 
f 63 514 518 
f 64 184 527 
f 64 527 757 
f 757 543 64 
f 197 100 65 
f 212 197 65 
f 240 212 65 
f 644 240 65 
f 65 469 644 
f 199 68 66 
f 66 183 199 
f 607 183 66 
f 243 198 67 
f 67 198 607 
f 67 218 243 
f 68 199 201 
f 68 201 608 
f 69 214 215 
f 636 214 69 
f 69 215 244 
f 69 608 636 
f 70 71 193 
f 70 193 194 
f 70 194 609 
f 756 193 71 
f 636 201 71 
f 71 201 756 
f 637 636 71 
f 213 73 72 
f 72 196 213 
f 609 196 72 
f 73 213 246 
f 73 246 646 
f 255 75 74 
f 74 75 755 
f 257 255 74 
f 286 257 74 
f 512 286 74 
f 755 512 74 
f 255 233 75 
f 75 233 651 
f 651 444 75 
f 343 313 76 
f 76 341 343 
f 423 89 77 
f 77 170 470 
f 425 423 77 
f 470 425 77 
f 78 290 507 
f 743 290 78 
f 661 461 78 
f 78 507 661 
f 78 659 743 
f 334 86 79 
f 79 289 336 
f 661 289 79 
f 336 334 79 
f 79 461 661 
f 80 81 342 
f 312 182 80 
f 340 312 80 
f 342 340 80 
f 81 94 315 
f 81 315 342 
f 82 230 232 
f 652 230 82 
f 82 232 259 
f 82 259 287 
f 82 443 652 
f 562 120 83 
f 542 191 83 
f 83 191 588 
f 588 562 83 
f 84 85 261 
f 261 258 84 
f 84 258 652 
f 652 443 84 
f 660 261 85 
f 335 330 86 
f 86 334 335 
f 288 88 87 
f 87 175 288 
f 746 175 87 
f 87 462 662 
f 87 662 746 
f 88 288 660 
f 458 211 89 
f 89 423 761 
f 761 458 89 
f 241 236 90 
f 90 239 241 
f 632 605 90 
f 264 239 91 
f 91 239 479 
f 664 264 91 
f 91 479 653 
f 92 482 484 
f 501 482 92 
f 92 484 494 
f 92 487 501 
f 502 487 92 
f 92 491 493 
f 494 491 92 
f 92 493 502 
f 296 94 93 
f 93 263 266 
f 653 263 93 
f 93 266 294 
f 93 294 296 
f 94 296 315 
f 95 96 262 
f 454 96 95 
f 262 241 95 
f 95 241 742 
f 665 454 95 
f 742 665 95 
f 654 262 96 
f 97 98 291 
f 97 291 292 
f 97 292 666 
f 293 291 98 
f 665 293 98 
f 98 454 665 
f 99 161 268 
f 265 240 99 
f 99 240 654 
f 268 265 99 
f 635 180 100 
f 100 197 635 
f 666 513 101 
f 102 356 357 
f 677 356 102 
f 378 375 103 
f 103 375 681 
f 379 378 103 
f 682 379 103 
f 377 327 104 
f 104 327 678 
f 683 377 104 
f 105 376 380 
f 610 376 105 
f 105 380 754 
f 754 683 105 
f 106 378 379 
f 382 378 106 
f 106 379 684 
f 611 382 106 
f 684 446 106 
f 385 108 107 
f 107 359 385 
f 400 210 108 
f 108 210 692 
f 108 385 399 
f 108 399 400 
f 692 456 108 
f 109 332 333 
f 685 447 110 
f 111 381 383 
f 685 381 111 
f 111 383 612 
f 111 447 685 
f 112 123 401 
f 517 123 112 
f 362 337 112 
f 388 362 112 
f 401 388 112 
f 417 123 113 
f 113 123 517 
f 418 417 113 
f 693 418 113 
f 113 457 693 
f 460 116 114 
f 114 116 530 
f 700 460 114 
f 531 522 114 
f 114 522 700 
f 114 530 531 
f 534 117 115 
f 702 534 115 
f 115 613 702 
f 116 450 716 
f 716 530 116 
f 716 450 117 
f 534 533 117 
f 117 533 716 
f 118 464 703 
f 494 484 118 
f 118 484 701 
f 703 494 118 
f 524 181 119 
f 538 524 119 
f 717 538 119 
f 545 526 120 
f 562 545 120 
f 121 493 500 
f 502 493 121 
f 121 500 705 
f 614 502 121 
f 704 614 121 
f 705 704 121 
f 122 168 372 
f 409 168 122 
f 122 372 398 
f 122 398 414 
f 413 409 122 
f 414 413 122 
f 417 401 123 
f 124 442 445 
f 696 442 124 
f 124 445 451 
f 124 451 752 
f 752 696 124 
f 125 185 284 
f 322 185 125 
f 125 284 303 
f 125 303 689 
f 326 322 125 
f 125 325 326 
f 689 325 125 
f 126 441 499 
f 697 441 126 
f 126 499 615 
f 127 153 564 
f 127 564 738 
f 762 622 127 
f 127 738 762 
f 128 163 485 
f 526 163 128 
f 128 485 760 
f 128 490 697 
f 760 490 128 
f 518 145 129 
f 129 145 714 
f 129 495 518 
f 710 495 129 
f 714 710 129 
f 440 415 130 
f 130 415 692 
f 130 692 696 
f 131 474 723 
f 723 546 131 
f 131 546 745 
f 745 739 131 
f 132 449 455 
f 486 449 132 
f 132 455 459 
f 488 486 132 
f 133 424 426 
f 459 424 133 
f 133 426 465 
f 133 465 617 
f 515 514 134 
f 617 515 134 
f 708 616 134 
f 529 137 135 
f 708 529 135 
f 135 616 708 
f 528 488 136 
f 547 528 136 
f 550 547 136 
f 719 550 136 
f 137 529 546 
f 137 546 719 
f 506 495 138 
f 138 495 710 
f 618 506 138 
f 549 509 139 
f 139 509 618 
f 140 504 545 
f 753 504 140 
f 140 545 548 
f 140 548 720 
f 471 434 141 
f 141 434 698 
f 698 468 141 
f 712 471 141 
f 142 436 437 
f 698 436 142 
f 142 437 476 
f 619 468 142 
f 142 468 698 
f 142 476 521 
f 142 521 619 
f 435 209 143 
f 143 209 470 
f 699 435 143 
f 143 467 699 
f 143 470 714 
f 714 472 143 
f 144 463 715 
f 481 467 144 
f 521 481 144 
f 715 521 144 
f 715 463 145 
f 145 472 714 
f 145 518 520 
f 145 520 715 
f 146 555 556 
f 721 555 146 
f 146 556 572 
f 146 572 726 
f 147 148 571 
f 147 571 725 
f 574 571 148 
f 764 574 148 
f 148 726 764 
f 554 537 149 
f 149 537 570 
f 149 570 620 
f 150 573 577 
f 620 573 150 
f 150 577 763 
f 763 728 150 
f 723 474 151 
f 566 565 151 
f 151 565 723 
f 737 566 151 
f 151 621 737 
f 597 596 152 
f 152 596 621 
f 600 597 152 
f 739 600 152 
f 153 473 724 
f 567 564 153 
f 724 567 153 
f 724 473 154 
f 599 568 154 
f 154 568 724 
f 622 599 154 
f 155 156 519 
f 623 156 155 
f 155 519 744 
f 624 623 155 
f 477 160 156 
f 156 160 519 
f 625 477 156 
f 156 623 625 
f 224 158 157 
f 157 158 623 
f 157 216 222 
f 157 222 224 
f 157 623 624 
f 625 623 158 
f 171 162 159 
f 159 162 626 
f 744 171 159 
f 159 626 627 
f 160 167 519 
f 629 167 160 
f 160 477 628 
f 160 628 629 
f 713 268 161 
f 161 313 713 
f 162 603 626 
f 163 458 485 
f 504 458 163 
f 526 504 163 
f 221 165 164 
f 164 165 627 
f 225 221 164 
f 227 225 164 
f 626 603 164 
f 627 626 164 
f 684 358 166 
f 166 446 684 
f 167 171 744 
f 751 171 167 
f 744 519 167 
f 167 629 751 
f 168 367 372 
f 679 367 168 
f 168 409 687 
f 687 679 168 
f 169 208 231 
f 234 208 169 
f 169 231 258 
f 261 234 169 
f 169 258 261 
f 710 470 170 
f 171 172 631 
f 751 172 171 
f 631 630 171 
f 172 604 631 
f 180 179 173 
f 632 606 173 
f 416 200 174 
f 174 200 612 
f 174 384 415 
f 686 384 174 
f 174 415 740 
f 740 416 174 
f 174 612 686 
f 508 288 175 
f 292 291 175 
f 175 291 508 
f 746 292 175 
f 187 183 176 
f 176 183 634 
f 355 326 177 
f 177 326 511 
f 492 355 177 
f 511 374 177 
f 177 374 610 
f 610 492 177 
f 251 224 178 
f 178 224 510 
f 280 251 178 
f 178 278 284 
f 510 278 178 
f 284 280 178 
f 179 180 189 
f 189 187 179 
f 193 189 180 
f 194 193 180 
f 635 194 180 
f 703 464 181 
f 181 524 703 
f 182 312 663 
f 183 187 199 
f 183 607 633 
f 183 633 634 
f 184 503 527 
f 752 503 184 
f 185 280 284 
f 658 280 185 
f 185 322 670 
f 670 658 185 
f 186 198 516 
f 633 198 186 
f 516 238 186 
f 634 633 186 
f 187 189 483 
f 483 199 187 
f 188 523 532 
f 701 523 188 
f 188 532 717 
f 189 193 483 
f 190 287 310 
f 190 310 332 
f 190 332 496 
f 191 542 750 
f 191 583 588 
f 750 583 191 
f 542 540 192 
f 192 540 578 
f 750 542 192 
f 192 578 583 
f 192 583 750 
f 756 483 193 
f 635 609 194 
f 615 500 195 
f 195 500 707 
f 196 197 212 
f 635 197 196 
f 196 212 213 
f 196 609 635 
f 198 243 516 
f 633 607 198 
f 483 201 199 
f 200 416 693 
f 693 457 200 
f 201 483 756 
f 636 608 201 
f 663 293 202 
f 202 293 664 
f 203 341 362 
f 363 341 203 
f 203 362 387 
f 391 363 203 
f 203 387 402 
f 402 391 203 
f 226 206 204 
f 204 206 628 
f 204 223 226 
f 350 345 205 
f 205 345 747 
f 369 350 205 
f 371 369 205 
f 747 371 205 
f 206 226 232 
f 232 230 206 
f 629 628 206 
f 207 208 234 
f 631 208 207 
f 234 228 207 
f 207 630 631 
f 209 427 428 
f 435 427 209 
f 209 428 470 
f 210 400 749 
f 445 442 210 
f 210 442 692 
f 749 445 210 
f 211 458 504 
f 211 504 753 
f 759 213 212 
f 212 240 242 
f 212 242 759 
f 711 246 213 
f 759 711 213 
f 249 215 214 
f 214 636 637 
f 248 244 215 
f 249 248 215 
f 250 222 216 
f 639 250 216 
f 216 602 639 
f 575 557 217 
f 217 557 722 
f 728 575 217 
f 645 243 218 
f 219 224 251 
f 219 251 638 
f 638 478 219 
f 220 221 253 
f 253 252 220 
f 220 252 639 
f 639 602 220 
f 221 225 253 
f 510 224 222 
f 222 250 279 
f 222 279 510 
f 254 226 223 
f 283 254 223 
f 650 283 223 
f 223 638 640 
f 223 640 650 
f 225 227 229 
f 225 229 253 
f 259 232 226 
f 226 254 259 
f 255 229 227 
f 227 233 255 
f 228 234 256 
f 228 256 651 
f 651 641 228 
f 257 253 229 
f 229 255 257 
f 652 642 230 
f 652 258 231 
f 231 642 652 
f 233 641 651 
f 260 256 234 
f 261 260 234 
f 479 239 235 
f 653 479 235 
f 235 643 653 
f 236 241 262 
f 236 262 644 
f 644 469 236 
f 237 238 263 
f 237 263 653 
f 653 643 237 
f 238 245 266 
f 516 245 238 
f 266 263 238 
f 742 241 239 
f 239 264 742 
f 265 242 240 
f 240 644 654 
f 242 265 268 
f 268 267 242 
f 242 267 711 
f 242 711 759 
f 269 245 243 
f 243 245 516 
f 647 269 243 
f 243 645 647 
f 244 248 270 
f 244 270 647 
f 647 645 244 
f 271 266 245 
f 245 269 271 
f 246 273 648 
f 711 273 246 
f 648 646 246 
f 274 249 247 
f 648 274 247 
f 247 646 648 
f 248 249 272 
f 275 270 248 
f 248 272 275 
f 276 272 249 
f 249 274 276 
f 250 277 279 
f 649 277 250 
f 250 639 649 
f 251 280 650 
f 640 638 251 
f 650 640 251 
f 252 253 282 
f 282 281 252 
f 252 281 649 
f 649 639 252 
f 253 257 282 
f 285 259 254 
f 254 283 285 
f 256 260 659 
f 256 444 651 
f 659 444 256 
f 286 282 257 
f 259 285 287 
f 260 261 660 
f 660 659 260 
f 654 644 262 
f 264 664 665 
f 264 665 742 
f 266 271 294 
f 267 268 297 
f 297 273 267 
f 267 273 711 
f 713 297 268 
f 655 271 269 
f 269 647 655 
f 270 275 298 
f 270 298 655 
f 655 647 270 
f 295 294 271 
f 655 295 271 
f 276 275 272 
f 273 297 299 
f 273 299 656 
f 656 648 273 
f 301 276 274 
f 656 301 274 
f 274 648 656 
f 275 276 300 
f 318 298 275 
f 275 300 318 
f 301 300 276 
f 303 279 277 
f 277 302 303 
f 657 302 277 
f 277 649 657 
f 278 279 303 
f 510 279 278 
f 303 284 278 
f 658 650 280 
f 281 282 305 
f 305 304 281 
f 281 304 657 
f 657 649 281 
f 282 286 305 
f 306 285 283 
f 658 306 283 
f 283 650 658 
f 308 287 285 
f 285 306 308 
f 307 305 286 
f 512 307 286 
f 287 308 310 
f 508 290 288 
f 288 290 743 
f 743 660 288 
f 289 312 336 
f 663 312 289 
f 289 661 663 
f 290 291 293 
f 508 291 290 
f 290 293 663 
f 663 507 290 
f 292 662 666 
f 746 662 292 
f 665 664 293 
f 294 295 314 
f 314 296 294 
f 667 314 295 
f 295 655 667 
f 296 314 315 
f 319 299 297 
f 297 316 319 
f 713 316 297 
f 318 317 298 
f 298 317 667 
f 667 655 298 
f 299 319 668 
f 668 656 299 
f 300 301 320 
f 320 318 300 
f 668 320 301 
f 301 656 668 
f 321 303 302 
f 669 321 302 
f 302 657 669 
f 303 321 689 
f 304 305 324 
f 324 323 304 
f 304 323 669 
f 669 657 304 
f 305 307 324 
f 309 308 306 
f 670 309 306 
f 306 658 670 
f 706 324 307 
f 512 330 307 
f 307 330 706 
f 308 309 328 
f 328 310 308 
f 309 327 329 
f 674 327 309 
f 329 328 309 
f 309 670 674 
f 310 328 333 
f 333 332 310 
f 662 462 311 
f 311 513 662 
f 338 336 312 
f 340 338 312 
f 345 316 313 
f 313 316 713 
f 313 343 346 
f 346 345 313 
f 347 315 314 
f 671 347 314 
f 314 667 671 
f 344 342 315 
f 347 344 315 
f 350 319 316 
f 316 345 350 
f 317 318 348 
f 317 348 671 
f 671 667 317 
f 318 320 349 
f 352 348 318 
f 318 349 352 
f 319 350 672 
f 672 668 319 
f 351 349 320 
f 672 351 320 
f 320 668 672 
f 354 325 321 
f 321 325 689 
f 673 354 321 
f 321 669 673 
f 322 326 355 
f 322 355 674 
f 674 670 322 
f 323 324 356 
f 323 356 673 
f 673 669 323 
f 706 331 324 
f 324 331 709 
f 709 356 324 
f 511 326 325 
f 325 354 511 
f 377 329 327 
f 327 674 678 
f 330 331 706 
f 331 358 709 
f 359 335 334 
f 334 336 359 
f 336 338 360 
f 360 359 336 
f 362 339 337 
f 338 340 361 
f 361 360 338 
f 362 341 339 
f 340 342 364 
f 386 361 340 
f 340 364 386 
f 363 343 341 
f 342 344 364 
f 363 346 343 
f 344 347 365 
f 365 364 344 
f 345 346 747 
f 346 363 489 
f 489 371 346 
f 346 371 747 
f 366 365 347 
f 675 366 347 
f 347 671 675 
f 348 352 367 
f 348 367 675 
f 675 671 348 
f 349 351 353 
f 353 352 349 
f 350 369 676 
f 676 672 350 
f 370 353 351 
f 676 370 351 
f 351 672 676 
f 352 353 373 
f 372 367 352 
f 373 372 352 
f 353 370 373 
f 681 511 354 
f 354 673 677 
f 678 674 355 
f 709 357 356 
f 677 673 356 
f 357 358 684 
f 709 358 357 
f 684 682 357 
f 359 360 385 
f 360 361 385 
f 386 385 361 
f 388 387 362 
f 391 390 363 
f 363 390 489 
f 364 365 392 
f 389 386 364 
f 393 389 364 
f 364 392 393 
f 365 366 368 
f 365 368 392 
f 394 368 366 
f 679 394 366 
f 366 675 679 
f 679 675 367 
f 395 392 368 
f 368 394 395 
f 369 371 396 
f 369 396 680 
f 680 676 369 
f 397 373 370 
f 680 397 370 
f 370 676 680 
f 371 390 407 
f 489 390 371 
f 411 396 371 
f 371 407 411 
f 372 373 398 
f 373 397 398 
f 374 448 610 
f 681 448 374 
f 374 511 681 
f 380 376 375 
f 375 376 681 
f 375 378 380 
f 610 448 376 
f 376 448 681 
f 377 683 685 
f 383 380 378 
f 378 382 383 
f 379 682 684 
f 383 381 380 
f 380 381 754 
f 381 685 754 
f 686 383 382 
f 382 611 686 
f 686 612 383 
f 505 415 384 
f 611 505 384 
f 686 611 384 
f 385 386 403 
f 403 399 385 
f 386 389 403 
f 387 388 402 
f 388 401 402 
f 389 393 404 
f 404 403 389 
f 390 391 405 
f 390 405 407 
f 391 402 406 
f 406 405 391 
f 395 393 392 
f 393 395 410 
f 426 404 393 
f 393 410 426 
f 408 395 394 
f 687 408 394 
f 394 679 687 
f 395 408 410 
f 396 411 688 
f 688 680 396 
f 412 398 397 
f 688 412 397 
f 397 680 688 
f 398 412 414 
f 419 400 399 
f 399 403 419 
f 400 419 749 
f 420 402 401 
f 401 417 421 
f 421 420 401 
f 423 406 402 
f 402 420 423 
f 403 404 422 
f 422 419 403 
f 424 422 404 
f 426 424 404 
f 405 406 428 
f 427 407 405 
f 428 427 405 
f 406 423 425 
f 406 425 428 
f 432 411 407 
f 407 427 432 
f 429 410 408 
f 690 429 408 
f 408 687 690 
f 409 413 430 
f 409 430 690 
f 690 687 409 
f 431 426 410 
f 410 429 431 
f 411 432 691 
f 691 688 411 
f 433 414 412 
f 691 433 412 
f 412 688 691 
f 413 414 437 
f 437 430 413 
f 414 433 438 
f 438 437 414 
f 415 440 740 
f 415 505 692 
f 416 440 441 
f 740 440 416 
f 416 441 693 
f 417 418 421 
f 490 421 418 
f 697 490 418 
f 418 693 697 
f 419 422 455 
f 455 449 419 
f 419 449 749 
f 420 421 452 
f 748 423 420 
f 420 452 748 
f 490 452 421 
f 422 424 459 
f 459 455 422 
f 423 748 761 
f 470 428 425 
f 426 431 465 
f 435 432 427 
f 471 431 429 
f 429 434 471 
f 690 434 429 
f 437 436 430 
f 430 436 694 
f 694 690 430 
f 471 465 431 
f 432 435 695 
f 695 691 432 
f 439 438 433 
f 695 439 433 
f 433 691 695 
f 434 690 694 
f 434 694 698 
f 699 695 435 
f 698 694 436 
f 437 438 476 
f 438 439 481 
f 481 476 438 
f 699 481 439 
f 439 695 699 
f 499 441 440 
f 440 498 499 
f 697 693 441 
f 696 692 442 
f 445 449 451 
f 749 449 445 
f 486 451 449 
f 451 486 503 
f 451 503 752 
f 485 458 452 
f 452 458 748 
f 760 485 452 
f 452 490 760 
f 692 505 456 
f 761 748 458 
f 460 482 501 
f 700 482 460 
f 465 471 712 
f 712 617 465 
f 467 481 699 
f 470 710 714 
f 476 481 521 
f 500 491 480 
f 480 491 703 
f 707 500 480 
f 480 703 707 
f 700 484 482 
f 484 700 701 
f 486 488 503 
f 613 501 487 
f 487 502 702 
f 702 613 487 
f 527 503 488 
f 528 527 488 
f 500 493 491 
f 491 494 703 
f 497 524 538 
f 703 524 497 
f 538 525 497 
f 497 525 707 
f 707 703 497 
f 705 499 498 
f 498 704 705 
f 705 615 499 
f 500 615 705 
f 502 614 702 
f 504 526 545 
f 506 618 708 
f 663 661 507 
f 509 529 708 
f 745 529 509 
f 509 549 551 
f 509 551 745 
f 708 618 509 
f 666 662 513 
f 514 515 520 
f 520 518 514 
f 619 520 515 
f 515 617 712 
f 520 619 715 
f 715 619 521 
f 531 523 522 
f 522 523 701 
f 701 700 522 
f 523 531 537 
f 537 532 523 
f 525 538 540 
f 527 528 547 
f 547 544 527 
f 527 544 757 
f 745 546 529 
f 535 531 530 
f 716 535 530 
f 531 535 553 
f 553 537 531 
f 532 537 554 
f 532 554 717 
f 533 534 536 
f 533 536 716 
f 556 536 534 
f 534 539 556 
f 535 552 553 
f 718 552 535 
f 535 716 718 
f 556 555 536 
f 536 555 718 
f 718 716 536 
f 537 553 569 
f 537 569 570 
f 558 540 538 
f 538 557 558 
f 717 557 538 
f 539 541 559 
f 559 556 539 
f 540 558 578 
f 541 543 561 
f 560 559 541 
f 561 560 541 
f 757 544 543 
f 543 544 758 
f 758 561 543 
f 544 547 566 
f 566 563 544 
f 544 563 758 
f 567 548 545 
f 545 562 564 
f 545 564 567 
f 723 719 546 
f 547 550 565 
f 547 565 566 
f 548 567 724 
f 724 720 548 
f 568 551 549 
f 724 568 549 
f 549 720 724 
f 723 565 550 
f 550 719 723 
f 551 568 599 
f 551 599 745 
f 552 718 721 
f 722 717 554 
f 721 718 555 
f 556 559 572 
f 575 558 557 
f 557 717 722 
f 558 575 578 
f 559 560 731 
f 729 572 559 
f 731 729 559 
f 560 561 733 
f 733 731 560 
f 561 563 735 
f 758 563 561 
f 735 733 561 
f 593 564 562 
f 562 588 593 
f 563 566 737 
f 737 735 563 
f 564 593 738 
f 727 570 569 
f 569 725 727 
f 727 620 570 
f 574 573 571 
f 571 573 727 
f 727 725 571 
f 729 726 572 
f 573 574 577 
f 573 620 727 
f 580 577 574 
f 764 580 574 
f 730 578 575 
f 575 728 730 
f 581 580 576 
f 576 580 764 
f 731 581 576 
f 576 729 731 
f 764 729 576 
f 582 579 577 
f 577 579 763 
f 577 580 582 
f 732 583 578 
f 578 730 732 
f 579 582 584 
f 579 584 732 
f 732 730 579 
f 579 730 763 
f 580 581 585 
f 587 582 580 
f 580 585 587 
f 586 585 581 
f 733 586 581 
f 581 731 733 
f 587 584 582 
f 734 588 583 
f 583 732 734 
f 584 587 590 
f 584 590 734 
f 734 732 584 
f 585 586 591 
f 589 587 585 
f 591 589 585 
f 592 591 586 
f 735 592 586 
f 586 733 735 
f 587 589 590 
f 736 593 588 
f 588 734 736 
f 595 590 589 
f 589 591 594 
f 589 594 595 
f 590 595 736 
f 736 734 590 
f 591 592 597 
f 597 594 591 
f 592 596 597 
f 737 596 592 
f 592 735 737 
f 593 736 738 
f 762 595 594 
f 594 597 598 
f 594 598 762 
f 738 736 595 
f 762 738 595 
f 737 621 596 
f 600 598 597 
f 598 600 601 
f 598 601 762 
f 599 622 741 
f 599 741 745 
f 741 601 600 
f 600 739 741 
f 741 622 601 
f 601 622 762 
f 659 660 743 
f 754 685 683 
f 726 729 764 
f 763 730 728 
f 745 741 739 
