v 15.700035794908374 -9.2325718364617853 4.0545509313326775
v 16.494867503253115 -10.669429428400914 4.8724338720718556
v 13.535636196177514 -9.7931787929137517 5.1730741619324494
v 14.45733268479346 -11.459376282555235 6.1215011391954395
v 14.836969156214289 -7.4501314647506316 3.2778369652226367
v 17.570855832752596 -12.397294925767843 6.0885152673962537
v 12.672569557483429 -8.010738421202598 4.3963601958224068
v 15.428203217110024 -12.992237149635491 7.2319110897705485
v 14.041391136887441 -5.5697418814265074 2.6808093432029061
v 18.598380015439837 -13.809525688295324 7.369013070144744
v 11.87142741531653 -6.0951318955061815 3.8062165413644884
v 16.438283789421199 -14.376028182920477 8.4929086866683967
v 13.321462300727294 -3.6106964882546193 2.2695892664988939
v 19.641610125841641 -15.035948260865522 8.7730302274486238
v 11.160313570112102 -4.1801495943340665 3.3899693781801474
v 17.477210527110781 -15.596555217317489 9.8915534580483957
v 17.406800951937573 -8.0870616492338456 4.5787267236709397
v 18.262662154169238 -9.6342453526038341 5.4594090990678144
v 16.605382251146935 -6.4319391643398269 3.8574925878698991
v 19.164185230233056 -11.057617088579974 6.4905044359571402
v 15.844643100604653 -4.6260313701323064 3.2905494769172812
v 20.102116444069786 -12.342565929073535 7.6614293200987955
v 12.684572690949663 -1.5930980810556834 2.0484012690857618
v 20.698721341379613 -16.080681062967269 10.294971451074053
v 10.520173092218801 -2.1537050375076494 3.1669244996855319
v 18.534321742648753 -16.641288019419235 11.413494681673825
v 15.198125716131859 -2.8667489615561847 2.9212625460659609
v 21.066834410880897 -13.475911321837748 8.960172009804996
v 12.197389853216601 0.23651856827912354 2.0226865441218891
v 21.763168973442401 -16.938900791644066 11.924589887044112
v 9.9728569845176267 -0.098257707386662396 3.1380357907906955
v 19.623033135506741 -17.514669479381165 13.08246563254421
v 14.60975354191125 -1.0028486411610786 2.7169243563992254
v 22.048437752144569 -14.446020434384495 10.37340323977703
v 11.672764743593932 2.6071300204496817 2.195667211028848
v 22.82403370477169 -17.601804869954517 13.645167974638827
v 9.5207303263416101 1.9739494859411841 3.3017436202289048
v 20.752701959640387 -18.203394729670652 14.923241511783813
v 14.095686912114484 0.94585882539405075 2.6988767693128786
v 23.108919802080809 -15.287971861467083 12.003501789762829
v 15.711487519474247 -6.7740595174641314 8.6615587033973966
v 16.517659046765822 -8.2314166752533744 9.4911103337098695
v 14.845727679981902 -6.9983023000449176 9.1089679956373057
v 15.651899207273477 -8.4556594578341624 9.9385196259497786
v 14.964867329352652 -5.2013040069767236 8.0050799286719094
v 17.37248153681222 -9.5536703206622651 10.4825183190744
v 14.099107489860307 -5.4255467895575098 8.4524892209118185
v 16.506721697319875 -9.7779131032430513 10.929927611314309
v 13.659186984648638 2.9539311873258218 2.8606785650679001
v 24.021941623820648 -15.858492402308928 13.48429917983886
v 14.287896389127724 -3.534423491203579 7.5305517256465588
v 18.26439264355157 -10.722937452712808 11.622371938983949
v 13.415419665607207 -3.7540622865679389 7.9672710353208469
v 17.398632804059226 -10.947180235293594 12.069781231223857
v 11.332832403610043 4.6022569219492233 2.5378439215859494
v 23.870427560692374 -18.062589732985018 15.439046892245736
v 9.1919345439825531 3.9037138340912763 3.6327102451107898
v 21.836079081448347 -18.655535846551206 16.793017208058536
v 13.689729087045919 -1.795955752389538 7.2443923041013516
v 19.186918056584272 -11.728321262607912 12.903604582929283
v 12.78065388087655 -1.8688419396730458 7.6838444956010967
v 18.315572093022944 -11.947647525222202 13.342668613181555
v 13.346691359267695 4.7993578658849394 3.1809165517662699
v 24.993593223542945 -16.286363685597951 15.150044390752548
v 13.221719448610475 -0.16059281137877646 7.1584182000803693
v 20.110901047822395 -12.541547171847558 14.283967789829607
v 12.312694394673919 -0.23365424527307166 7.5978796046238806
v 19.24514120833005 -12.765789954428344 14.731377082069518
v 11.083980083750689 6.6442334048651563 3.0797462651449123
v 24.891611622872961 -18.316522432370476 17.287818451115427
v 8.9195804850198268 6.0836264484131899 4.198269495744686
v 22.727212024142101 -18.877129388822443 18.406341681715197
v 12.760987094638383 1.8010465574160719 7.2500566670632605
v 21.040526392390866 -13.166296557906827 15.769714196722745
v 11.861808651995727 1.7669960582622533 7.7281241566171186
v 20.268976238003216 -13.433982379213099 16.377650271067989
v 13.130135776711793 6.5763167722872318 3.6524871851170353
v 25.941833598539638 -16.522156077862689 16.866758160507288
v 10.941124795295083 8.6395343592568921 3.8033643752518955
v 25.877107579647081 -18.360999252394226 19.172511572380529
v 8.7795412827212491 8.0712165629724382 4.9234721820585783
v 23.677610677103548 -18.920022218111107 20.223913627478758
v 12.442971428805585 3.6109404473024673 7.5418039608736969
v 21.957638432270191 -13.589205665604263 17.332409629026561
v 11.577211589313242 3.3866976647216802 7.989213253113606
v 21.091878592777846 -13.813448448185049 17.779818921266468
v 12.987812157129586 8.508464993457153 4.3454817759891995
v 26.856939493170344 -16.563459914849744 18.616833223089756
v 12.228709646512799 5.3957892023237424 8.0217676290165798
v 22.905975012961719 -13.804874699395016 19.059395444994262
v 11.34660857499737 5.3357176059341747 8.5198388578564543
v 21.91412280203313 -14.011913430020256 19.271432274926866
v 10.90573266885459 10.56768538839601 4.7012734649190193
v 26.745030297493724 -18.20820415184944 20.928567704947952
v 8.7555513027107406 10.164212397744043 5.9051050017984892
v 24.687684747186644 -18.744048749383033 22.222761633216457
v 12.954948127797628 10.298891000888899 5.1792546985059023
v 27.729516015006773 -16.40984471445687 20.3823057404758
v 12.132498182870609 6.9475872804697314 8.6133590472494816
v 23.70504565441459 -13.809430475260681 20.603354594729442
v 11.255338300802009 6.9072161852214204 9.1308656761299023
v 22.839285814922246 -14.033673257841469 21.050763886969353
v 10.978168516128733 12.408898174125063 5.7642615032848799
v 27.70105989487503 -17.821920733143767 22.97214014591523
v 8.8156450515167855 11.861265256833521 6.8929177737989686
v 25.53666029614417 -18.382527689595733 24.090663376515
v 13.02220923707636 12.008588816008661 6.1663136851377089
v 28.550611875666668 -16.062892212864242 22.145061741730984
v 12.121552667392363 8.6613760312681407 9.4511346075972309
v 24.511713318173459 -13.603773264361234 22.267373704842669
v 11.267370514014139 8.7368220767154909 10.07115218875003
v 23.645953478681115 -13.82801604694202 22.714782997082576
v 11.157687415021652 14.144282152175753 6.9814190246435768
v 28.520801495200075 -17.243899803681398 24.848087723430286
v 8.9932878162907901 13.583675195723785 8.0999422552433504
v 26.356401896469215 -17.804506760133364 25.966610954030056
v 13.188906350352667 13.620015633827208 7.2965327225101255
v 29.311795699618902 -15.526149173477885 23.887008436736174
v 12.249864840126246 10.495073192128302 10.618479338454353
v 25.258924030890068 -13.190358623746882 23.92046917895923
v 11.364425971932798 10.138109472572049 10.961288601692974
v 24.393164191397723 -13.414601406327668 24.367878471199141
v 21.397517127455938 -0.61236074235671234 16.047307316186057
v 18.800237608978907 -1.2850890900990724 17.389535192905782
v 21.022494147382535 0.14794729781719562 15.702687195054391
v 21.812492791633588 -1.2801733190334441 16.515596906074336
v 18.425214628905501 -0.52478104992516439 17.044915071774117
v 19.215213273156554 -1.9529016667758046 17.857824782794061
v 20.698819613530002 0.97765073655567436 15.492210107766116
v 22.254812938782479 -1.8351973153314538 17.093329418013933
v 18.060039529785115 0.42357950160942237 16.813603545549469
v 19.705980495625326 -2.5530965384644957 18.506665092259105
v 20.436327927018386 1.8515373354365443 15.422269678874693
v 22.711036902166082 -2.2605694490293655 17.762948399146222
v 17.839048408541352 1.1788089876941841 16.764497555594421
v 20.113757383689048 -2.9332977967717251 19.105176275865947
v 11.442447697235297 15.756028329707544 8.3402563899631144
v 29.267611004975585 -16.467423449310608 26.682374390831079
v 9.2780480985044349 15.195421373255577 9.4587796205628845
v 27.103211406244725 -17.028030405762575 27.800897621430853
v 20.242994206369065 2.7430546430376199 15.494990007624901
v 23.167302689347025 -2.543366118521162 18.504107530965037
v 17.645714687892031 2.0703262952952599 16.837217884344629
v 20.570023170869995 -3.2160944662635225 19.846335407684766
v 13.453326703224725 15.116638116021228 8.5583109688109715
v 30.005265150611912 -14.805140506733631 25.590278805719748
v 12.434072810323801 11.737423857616049 11.597600783805584
v 25.936573126067557 -12.574774124368622 25.540287465027752
v 11.579650235289769 11.58964279397982 12.105271088372186
v 25.070813286575213 -12.799016906949408 25.98769675726766
v 20.124692596745657 3.6251201426233095 15.708164032260978
v 23.609749726684239 -2.6749943884415814 19.294292698433818
v 17.527413078268626 2.952391794880949 17.050391908980703
v 21.012470208207208 -3.3477227361839419 20.636520575153543
v 20.085018868436574 4.4709235065409629 16.055312341163031
v 24.0249298631668 -2.6514534254663666 20.109486271052269
v 17.489647948187933 3.7575057940540848 17.380839830104758
v 21.426589030347866 -3.3401271046475896 21.441668605796735
v 11.862032574143619 17.213514188720019 9.8269608668573092
v 29.933833005157254 -15.500470347932348 28.456187585565043
v 9.665129020809804 16.666991958760018 10.945356255333712
v 27.826109274837648 -15.94871256906127 29.740699035318272
v 13.812758145689372 16.483097336523567 9.9387023387205247
v 30.579075056851337 -13.972312818210375 27.118045846917486
v 12.764353563373513 13.129443019205794 12.934394793948043
v 26.599500458150462 -11.64133264727641 27.290929189291862
v 11.89859372388117 12.905200236625008 13.381804086187952
v 25.669738139736051 -11.989595977303763 27.552330971230301
v 20.125177090114921 5.2547715687274259 16.525887382387026
v 17.541731156944849 11.626667140846882 14.720399304595702
v 17.522925888964945 4.6249108375857819 17.879980167878852
v 21.802950866591484 -3.1461874450897409 22.267151085162183
v 20.255130099800517 6.047289643755569 17.230363741357188
v 24.724249858846502 -2.1464222409062699 21.715829227702116
v 17.646668118933025 5.2801189717707393 18.447819845644329
v 22.126970340369468 -2.8191505886486303 23.058057104421842
v 14.263512243694343 17.705370868820491 11.423541444699985
v 20.43772262899974 6.5439376078972202 17.776812575757724
v 24.987140579295136 -1.680275961034599 22.458170016300777
v 31.161350654696029 -12.841708661727784 28.811440828466349
v 12.314955944318132 18.543893787423766 11.425890353303013
v 30.512627745499714 -14.352960488303507 30.151320115475219
v 13.188688989533329 14.302833080292576 14.343611888294159
v 17.864085156773548 5.9245148727466779 19.191505941291613
v 22.389861060818102 -2.3530043087769594 23.800397893020502
v 27.085091242525046 -10.668912426821326 28.717951887938487
v 10.150556345587271 17.983286830971799 12.544413583902783
v 12.321004340330166 14.074860514799436 14.785427197824301
v 26.121131170043327 -11.114910938925165 28.864194123236231
v 28.361009222606732 -14.855807245982108 31.323524953225032
v 20.700612936242369 7.0100846347423449 18.519152939166826
v 25.187490061282944 -1.0505406510344524 23.161481590355468
v 18.103333417765334 6.3373562869999844 19.861380815886552
v 22.583635639201777 -1.7619132734193843 24.471618074664065
v 21.02463199681435 7.3371222381568995 19.31005853323693
v 25.299685291767943 -0.3911084279179029 23.709094359292358
v 18.427352478337315 6.664393890414539 20.652286409956655
v 22.702405773290913 -1.0638367756602634 25.051322236012084
v 13.676784550049295 15.248635915230421 15.762140749040686
v 27.473040083371391 -9.5819961848100554 30.013418161831702
v 12.871138759856185 15.116200434998751 16.371887873489936
v 26.600190497363606 -9.8354823298639129 30.432451577668441
v 14.80096377947326 18.770917045679386 12.997592335534858
v 31.6121048560025 -11.619435316174222 30.296280040743198
v 12.901418734713259 19.702535071745533 13.141440052879727
v 30.998054456924514 -13.036664507303009 31.750376812903539
v 10.713828944732565 19.100024986367234 14.194087113729029
v 28.833654858193654 -13.597271463754975 32.868900043503317
v 21.374809270079954 7.503199566712345 20.070907867569971
v 25.339844339858303 0.39273814032165433 24.17967025089547
v 18.802653826651039 6.8423867245866248 21.467724197725953
v 22.742564821381269 -0.27999020742070568 25.521898127615195
v 21.82819470675777 7.5347643626535721 20.964052215465045
v 25.300170611549216 1.2385415042393078 24.526818559797523
v 19.191068443914148 6.8644100665544894 22.230364487279502
v 22.694937981276894 0.62511214280241334 25.883377575841386
v 14.225925083902666 16.001342716346901 17.202014482490192
v 27.796824612460103 -8.2152165148697556 31.324991543239143
v 13.427970999177905 15.868736666652458 17.826559960115333
v 26.902689623823857 -8.5877520219328076 31.64316874587869
v 15.419598006032214 19.668802246967925 14.644703733190063
v 31.988341096333063 -10.157861369849149 31.756861318435796
v 22.257560518947848 7.4070277653837788 21.73087506109346
v 25.181869001925811 2.1206070038249969 24.739992584433601
v 19.660281000470814 6.7342994176414201 23.073102937813189
v 22.584589483448777 1.4478786560826369 26.082220461153327
v 13.598621219323972 20.698544470519682 14.989765164966444
v 31.349363418108876 -11.701082584399936 33.099574979042416
v 11.395570929747652 20.097751720590061 16.013356102498182
v 29.220734237487939 -12.125700058428091 34.355474103366134
v 22.713826306128794 7.1242310958919823 22.472034192912279
v 24.988535281276491 3.012124311426073 24.812712913183809
v 20.11654678765176 6.4515027481496219 23.814262069632008
v 22.391255762799457 2.3393959636837125 26.154940789903534
v 23.17004979179805 6.6988578562255761 23.141651695328409
v 24.726043117050523 3.8860098043384479 24.742771005576227
v 20.572770273321016 6.0261295084832156 24.483879572048135
v 22.128763598573492 3.2132814565960879 26.084998882295952
v 23.612370177804113 6.1438344129118097 23.719384946626082
v 24.365027881897127 4.7516898848931852 24.522927621077656
v 21.015090659327083 5.4711060651694501 25.061612823345808
v 21.81276671717184 4.0233052302622605 25.879514941856051
v 24.032543914762055 5.4654844741458621 24.192451717715247
v 21.430066562361901 4.8032940414769705 25.529903152592169
v 14.971380728005579 16.708561528193631 18.998969277559763
v 28.003932630848585 -6.7890867734323841 32.440536336240662
v 14.105620888513235 16.484318745612843 19.44637856979967
v 27.137290909069915 -7.0260623150608588 32.879857446924646
v 16.113066101248116 20.389811395062271 16.34797171992966
v 32.235955450514346 -8.7563534122428131 32.938447434155705
v 14.306783027458572 21.43483258201157 16.729124095916013
v 31.669897107636999 -9.9533493738455814 34.595792794702717
v 12.142383428727712 20.874225625559603 17.847647326515784
v 29.505497508906139 -10.513956330297546 35.714316025302487
v 15.718590407707172 17.121978036241604 20.652063688702423
v 28.108711515149004 -5.2762722994777818 33.401515655802129
v 14.852830568214827 16.897735253660816 21.099472980942334
v 27.242951675656656 -5.500515082058568 33.84892494804204
v 16.874252436690554 20.926550879078896 18.089921492835508
v 32.402655075280855 -7.1449301497940123 34.068669549428776
v 15.126522400372544 22.012856553299432 18.605068887848244
v 31.849413779118841 -8.2179623539694013 35.812947530478588
v 12.859540151424977 21.379915349130759 19.488835322842895
v 29.691358186069706 -8.6173158565681085 37.024567416100965
v 16.525256831848033 17.327637488061406 22.316081523246979
v 28.109204345968266 -3.6132519550014845 34.235979734086428
v 15.659496992355686 17.103394705480621 22.763490815486886
v 27.243444506475925 -3.8374947375822717 34.683389026326338
v 17.695346780082094 21.273507108292943 19.852676426393142
v 32.469914667291235 -5.4352286070528262 35.055727468363038
v 15.982053243053024 22.377024759136884 20.485070036470901
v 31.921850401154245 -6.3767509688155677 36.875936366074868
v 13.846377772583921 21.82589577837917 21.621943171705052
v 29.757450802423385 -6.9373579252675341 37.994459596674638
v 17.380470273965475 17.322759761284086 23.968518498019609
v 28.001593872764829 -1.8775840569566404 34.897669551933731
v 16.51471043447313 17.098516978703302 24.415927790259516
v 27.151195303431074 -2.2474225403687815 35.301830716262728
v 18.666767533024181 21.42265935785338 21.807180737732715
v 32.437050573450946 -3.644804452563037 35.889499337353143
v 18.209333396667358 17.122697173139024 25.472139062643038
v 27.787332090472042 -0.092735301935359171 35.377633220076618
v 17.406905247515095 16.883168028390585 26.034436844163665
v 26.922861884248739 -0.32772101921056151 35.822153629811474
v 16.95047535480608 22.551932932247055 22.404697625552672
v 31.886458139158076 -4.4486006794040609 37.773844822681298
v 14.747310938329889 21.984501579483652 23.444788546819357
v 29.719617385991803 -4.975111016562229 38.904733615219143
v 19.483028131280051 21.385819412661412 23.368222416624462
v 32.278901934826166 -1.5828076837396687 36.616952161348806
v 19.189778017807118 16.684502062268976 27.149724888133289
v 27.469317315559604 1.7171589469460737 35.669382417792775
v 18.324018178314773 16.460259279688191 27.5971341803732
v 26.603557476067259 1.4929161643652866 36.116791710032686
v 17.981900520140531 22.485899777569511 24.321360295529079
v 31.743604313050575 -2.4533018761839238 38.49746468433338
v 15.771573175197437 21.946847004599746 25.407915728962642
v 29.579204714319715 -3.0139088326358903 39.615987914933157
v 20.119401874312299 16.059750934754042 28.635467542725504
v 27.05184868796843 3.5276152255987649 35.768965020171137
v 19.253642034819954 15.835508152173253 29.082876834965411
v 26.186088848476082 3.3033724430179787 36.216374312411048
v 20.43126992024359 21.150023479518616 25.08493714777935
v 32.061935084972291 0.17092829731631265 37.076087576643758
v 20.917591758962068 15.357243021605717 29.827906829174928
v 26.590336623281743 5.140279371996213 35.684187354288085
v 20.140435681157683 15.055017737720984 30.407683880510504
v 25.689817901149716 5.0374947442307656 36.125211597979174
v 18.957156032362953 22.253520252692358 26.138161996242591
v 31.494751189445289 -0.41132640224188455 39.039364966902383
v 16.792756433632093 21.692913296240391 27.256685226842365
v 29.330351590714425 -0.971933358693851 40.157888197502146
v 21.96591105007489 14.241141298122209 31.297064927797841
v 25.942407304498737 7.052627336612975 35.388885141135233
v 21.15617493483769 13.943453274074093 31.816072029382692
v 25.076647465006396 6.8283845540321888 35.836294433375144
v 21.402920454696698 20.722153137192258 26.750680768955839
v 31.746187807410955 2.0241041474838415 37.393917356618879
v 22.83603565528237 13.100436845039395 32.409076248328041
v 25.265436722559571 8.7195086818624947 34.914358047147005
v 21.992062675607659 12.84763221296725 32.884328948984425
v 24.399676883067226 8.4952658992817067 35.361767339386915
v 23.712645005146399 11.74962135013914 33.428327642109039
v 24.518816532437974 10.292264192349895 34.257879272421512
v 22.846885165654054 11.525378567558354 33.875736934348943
v 23.681066505350341 10.011742391872733 34.731281782324587
v 22.304601898571796 20.158721632172075 28.213086992947005
v 31.326357692716371 3.9482973817566327 37.545935639529169
v 20.003550168983086 21.792740298508857 27.932043917345052
v 31.142453948682306 1.6563789861611826 39.393991502354751
v 17.766228116347506 21.264244765270412 28.925552808582566
v 28.978054349951442 1.0957720297092162 40.512514732954521
v 23.280108972205003 19.376352178754836 29.708617273290514
v 30.81813467703693 5.8569254122889891 37.519107819430502
v 21.064413710820549 21.129835169973045 29.652619176836435
v 30.690326101014463 3.7285851292636667 39.557696503689627
v 18.900014112089686 20.569228213521079 30.771142407436209
v 28.5259265022836 3.1679781728117011 40.67621973428939
v 24.378682173275759 18.315309659444178 31.302615081633853
v 30.226737551877306 7.7304107466648677 37.313720230832061
v 22.12886175129529 20.271612979626902 31.282237169308971
v 30.143010401725245 5.7840299977153169 39.528807351297267
v 19.961721321348357 19.695494584224992 32.387682375095309
v 27.978610802994382 5.2234230412633504 40.647330581897037
v 25.322746226796447 17.206226331721588 32.573551608404024
v 29.615643781797317 9.3932968007221298 36.964665682499401
v 26.260678515490461 15.921279979657152 33.744479819657045
v 28.819481494576582 11.295602055417008 36.37749166774428
v 27.302894394593714 14.236055707674408 34.916581698814078
v 28.018061280659559 12.950724444428207 35.656254555909641
v 23.185973354976174 19.226881076124563 32.804179594391286
v 29.506121180090521 7.8016293035136552 39.307620555341018
v 21.021573756245314 18.666274119672597 33.922702824991056
v 27.341721581359657 7.2410223470616906 40.426143785940781
v 24.224900201959812 18.006355998354046 34.202825557927518
v 28.78619245322443 9.7606766533120446 38.896401670793239
v 22.060500603228952 17.445749041902079 35.321348788527288
v 26.62179285449357 9.2000696968600781 40.014924901393009
v 25.23497998411851 16.622564839364237 35.463821562836344
v 28.04122239574351 11.519463668609797 38.338310691601507
v 23.07058038538765 16.061957882912271 36.582344793436114
v 25.802428501620721 11.129581969271838 39.396489937169719
v 26.205850034988583 15.089702857675103 36.574230023142825
v 27.127546523604529 13.423505368033624 37.522657000405815
v 24.041450436257723 14.529095901223137 37.692753253742595
v 24.963146924873669 12.862898411581657 38.641180231005585
v 16.204115638208755 1.4778131807678092 7.0454110815609869
v 22.002718635155222 -5.6604378551728818 14.688292854841373
v 17.613586247595318 0.67929949999920525 9.3725914439415678
v 19.117027736635432 -0.90562437945646668 11.487459279145687
v 27.249546592847079 6.4545106947961663 30.913218957339193
v 28.38081942823807 6.7510799378560904 33.250931022829668
v 16.84192830251822 -3.8682016741219303 12.305443414188804
v 17.81692054860358 8.5387560405008891 13.705235199090989
v 29.992929333892 -1.0935388555677279 32.438701282270181
v 20.692526239338203 -4.1654104881113128 12.902315506266662
v 22.47466336922075 -9.7830158663399516 13.535282453930822
v 30.299231535349421 -3.1604427104841375 31.995473726600309
v 24.636888993810373 -7.3198033655806611 18.953868471248096
v 15.264947116605189 13.218262094477993 17.817687447367479
v 15.732552108283105 -0.14989162103104059 5.3171013808770766
v 17.534560309209759 16.425637068361784 17.111780432883908
v 24.475205343001345 9.3293863898994687 26.985622592672435
v 19.73856545328632 16.368684963190205 21.348098439936358
v 28.554586160449968 -9.4792075828908295 25.452513247280397
v 25.339375203667124 -3.0741434627371391 29.146421504659806
v 26.828157039241709 1.8919382502521642 27.811034632924528
v 29.700067120728356 -5.0831105478828729 29.872413500217274
v 14.131438726310721 7.5403668986094186 12.778513923096391
v 14.908255560010783 14.263430885600251 10.946042803140852
v 16.343637059973794 16.149370717101949 14.668817634828992
v 18.373173756351864 18.478400312166944 19.763390950906317
v 26.227744077717137 5.5142591564562435 28.464722196597883
v 23.610337013997352 -8.6624962640274692 16.294476523852801
v 29.022084942835193 -0.70452099504975862 30.755044617729368
v 24.518889967387924 -6.026413839468189 26.079054522169809
v 30.025589935000134 -8.6949911998890173 28.692032141402432
v 18.558375223832236 -3.4377355402567447 15.842606727976392
v 19.337651087982287 -5.3192098754767052 16.407545166150832
v 25.88047922351112 -4.7457904984336601 22.650381516625202
v 28.5412498233737 -12.256852249600643 24.034543515462506
v 19.816045051668215 9.5824771117690695 18.096759157659694
v 18.43199296055311 -5.8960718274174244 14.365925601807072
v 26.756988009555101 -6.450317829073466 30.197426723055099
v 18.482788156044496 1.8649544691545623 11.648795116670499
v 25.191086147232461 -5.6375434897638268 20.869421610254967
v 27.108653690157798 11.822483664079252 33.331026985458003
v 26.575212151098267 -3.9978608552927057 31.074859411039093
v 21.309574672303629 -10.759835394848409 10.791191632207417
v 26.416541029319728 10.34517877742595 31.25132430426698
v 20.460566388803173 -5.6884489550902479 18.395379990723896
v 19.496069442588123 11.765271201622312 25.276882244661572
v 14.134315980560775 12.289047942021442 15.164133713417417
v 18.111241821771266 12.221363182294212 22.825764615043202
v 29.621301969078257 -11.780642695133029 26.363177153530206
v 22.987477185496882 -5.2607193863928572 23.499460737462808
v 23.207332971618445 -10.649433705745656 21.224054300766266
v 26.528559748571659 -2.9772501280430252 24.790847800467741
v 18.963207610228331 9.2255775730910656 16.26759609318275
v 14.362794379968719 4.6277442865554281 5.0611146078701932
v 13.465169920430268 9.6526949978345886 12.547954465496511
v 26.362046643728284 -7.3243280340873582 22.289868889038679
v 22.064244873734467 -5.5477025648097591 21.569122276668047
v 24.937018045496139 6.5573535918485462 26.48990321290194
v 16.418654327387966 -2.9370386983992449 5.2478183562706811
v 18.444184937542754 12.399518852018646 16.854048906945266
v 16.105829731985487 11.210544801968693 11.733295009839384
v 16.998307488858028 3.6931404957952578 9.6925411057584956
v 19.926884591672113 -8.8554148244433364 9.0701165724820694
v 13.317921067324828 4.4331281582460971 9.6469589834676093
v 16.108477198418935 14.420275570689881 20.052413753202138
v 23.387700231783842 -4.0746521290876725 24.868372990836836
v 15.604123558084737 15.000354213776667 12.661930955878823
v 27.0009770223865 -4.8247117861867856 24.779046436764073
v 15.346698068912008 6.4673134983864564 14.592285490078396
v 19.783085822830476 14.870016716694101 27.388380698494853
v 17.075288721701025 -1.4966280884305965 7.240377264917246
v 15.582074181504378 4.4189067411636263 7.3158133601858868
v 23.034776456736054 10.7106167180381 31.595865353762804
v 23.162312323837547 -4.5533750667932704 17.487028839243752
v 21.107265389687555 -7.4204181562079388 12.073438048846121
v 24.050752442954821 8.0869218756933545 32.246827637555555
v 25.078011415854863 -11.867573096907476 17.528108048190909
v 16.522262527525736 10.173362753927991 18.72454498158455
v 26.079353172304533 3.8166357376464406 34.031994395772514
v 23.152410699665079 11.265951614913302 25.396559254648114
v 19.848966906199045 -5.4616009321810353 10.620330839202175
v 18.83667374986695 3.5098958299436829 13.158031009942651
v 20.7604895340131 13.003781699804843 28.344344632177297
v 24.206979670144165 -14.190913246668591 14.678152567741041
v 27.762597122171844 -13.163035321754343 22.073629277745443
v 15.293900985124406 9.4778849863302064 9.2937574794005009
v 28.810370911196188 8.4865265836234229 34.951945778237992
v 15.091312973208534 -1.8485359979620122 9.9301753680322324
v 26.424685899397609 -13.695200812881334 19.217979879827439
v 26.908560833723122 -9.6548524379704315 22.179336451186604
v 18.89817474353621 5.5056601889467576 14.277321226600911
v 24.903624568103584 15.266471353442705 30.790319190906366
v 26.797418069789064 -1.7348506738875358 32.63906621837485
v 22.205591970668245 14.090216812381323 24.979946217209474
v 19.642628864731005 -7.2305021291358322 16.039747748678586
v 28.507995427224717 1.3011284449455172 30.765492221003569
v 14.188172331394599 0.057480672135439947 9.1378529431377959
v 25.737102413441281 -10.263195011103186 19.607601564956688
v 18.371932046142678 -2.861354445128407 9.0654436972038575
v 24.092593485893289 5.9857691577776446 31.27468860285537
v 14.293095292682594 12.38796984493754 8.8156899624289622
v 17.344300927033828 14.074802065139089 15.56537376077009
v 25.457047590006976 -9.5797514364871237 26.113494760314161
v 24.400230385068518 -2.4734590973473813 20.924923208442458
v 15.482006542750803 9.0388469104474538 16.142974003808749
v 15.238032089601177 16.963540883172982 12.93747988303652
v 17.115916384222245 8.3521133830531369 18.960480271306903
v 22.073901217251958 -11.51107261090845 18.598950129305209
v 20.649938029787769 10.14805874666988 19.993855765170906
v 19.006005419878822 -6.6694982249079082 8.3837558094839206
v 23.87068969081071 -2.6116456730438489 26.536245178793944
v 25.398069596953725 -7.047411380952818 27.268585214754957
v 18.224809679176133 9.0714129694714369 21.466760407347945
v 19.090619245742445 9.4842646732543656 23.349068577602281
v 21.33553096691605 11.786393832018305 22.141651231672423
v 24.094253262915924 0.66208106497942221 28.609653066237144
v 24.504703527938791 11.074683784741405 27.917450999766757
v 19.603614245313739 -3.4122833717603354 11.172684570158687
v 20.36580655852714 8.3993005581840148 25.272834145291796
v 21.581314565832525 7.0618112401751922 26.95455087316104
v 27.363836612486249 -7.2669091591325667 24.257162161922885
v 29.910627104161783 4.7243842180708455 35.195401500761008
v 19.653315599352439 19.086606801098128 22.545365607163145
v 27.370491369214548 2.534136738423058 38.122710627242569
v 11.185660230872468 0.63579527118848622 5.8527814329667542
v 22.078348479576654 12.028693906681315 30.405752307857682
v 19.611824923529799 13.285409093548022 19.557502591644592
v 21.959524645211122 -3.7621257769759793 15.556149574751299
v 27.663801694331021 1.7963681471550839 29.380149733547633
v 17.56409237818362 -1.5578002728070861 14.86084741042843
v 15.877193136182107 -10.686173578261236 9.2565350035647924
v 15.50132318706207 -3.8477019657794078 9.7215785325465642
v 16.301852444614273 -5.3926041728363572 10.496334260274731
v 23.717119376914351 16.405565248668438 29.065288055923212
v 16.562238132918402 5.5135622860254685 16.466394855941651
v 30.810390853729782 0.91053484592382139 35.024978406136661
v 26.768407008213767 -13.818345153682642 28.761737187551873
v 11.989186114410931 16.492125359908993 15.354881845970031
v 27.466440019718632 -12.337821918888794 30.854509094811267
v 17.607792264595496 -7.092195524277777 12.171554618984311
v 24.886860409460944 1.5065291918107935 30.566628142225518
v 30.460555804099538 -10.967840444068269 28.394554953973167
v 28.903009848943821 3.709415584905809 32.736905526809373
v 23.783428953120669 12.265909901250126 36.059153378561135
v 23.726357325565687 14.051959876562252 27.903530395070156
v 16.727621201878108 19.332134215023906 25.947416179061797
v 20.089656804132911 -0.19809080739242946 13.724164013911375
v 23.062993881894663 3.7252195335498648 28.149367001246272
v 20.43560207682075 -1.7937872866253639 13.593818274755542
v 19.274644825474649 7.1680577509055095 15.839008354876238
v 27.952577388641778 0.20159434102040064 38.080000072807024
v 17.899511674653155 18.857306544394405 27.977099167892256
v 20.490638974750031 -15.88300985275974 15.579119605535988
v 10.750072233626051 2.5326620096825745 5.9606112922941659
v 16.758655697678549 0.86368549771767045 14.515941690432069
v 21.282905569016712 -2.3823872502856118 14.938385882448815
v 27.516153408934549 9.0836146986988258 32.746831012479468
v 23.002694211753248 13.681017921449858 35.257647843271329
v 13.583340486437999 -6.9426388964569359 6.6940829311314918
v 24.689930824114356 10.495518844909808 36.925955888762822
v 19.427668676372516 1.3370088619867988 13.212579391497007
v 23.443746784751077 -6.3891663519895605 17.111515198298243
v 18.891341487822892 -8.5234721548351917 13.937928113925178
v 10.229657245056252 5.9278167275617104 6.6552426950082051
v 15.650393095274175 19.544921477249197 23.969574323205979
v 22.495035419314551 -16.400847113856404 19.198187657668946
v 28.318590387272426 -2.820108054960802 37.273768274058753
v 14.964972003811909 2.1257032644756739 4.9723291520312962
v 14.408124419732923 1.9406718703492909 10.507332142032849
v 27.847315961567187 -10.94066853930765 32.291780664633535
v 15.430393982864107 3.0578556316762961 13.045411587149722
v 14.167423392992383 4.8177515080196125 11.483563679814537
v 21.497749120840759 -8.1738666797610602 19.156683287425789
v 21.202908475817079 -5.2513198863658594 20.050940162733227
v 21.998928139889038 15.030916032536677 33.991881900415819
v 16.732068657089641 -11.792979372053834 10.356028669258428
v 28.288954046932297 -5.0655038808987349 36.091021803572254
v 23.732549320963759 -16.539803101755044 21.523195156442402
v 14.779135049931529 19.500404401756512 22.261333409060462
v 10.071681520625914 8.6053584892739092 7.6915429805362301
v 24.664667284306809 -10.997058095150637 23.869840342312976
v 18.458376492494452 -7.6731293040670856 6.8210431652101828
v 20.826910298997479 16.297327194652162 32.358696296982984
v 17.639851894650921 -13.023942985291624 11.495673225150535
v 12.384442455644368 -3.8554377081759426 5.9214678159421013
v 26.013916651795228 8.3243859517212382 29.459398574019211
v 13.815412531862609 19.081752933549112 20.186651817013573
v 10.135208329519383 10.284225828976338 8.655923585037808
v 28.534568306513446 -7.3577027584795101 35.417441487266117
v 24.542286631978914 -15.742694136209005 23.489591456494711
v 22.172289246642933 9.7038758719108813 29.422327221867519
v 17.768622048048744 -4.8175218746308008 6.9175714661904735
v 22.760691650345802 -12.654830674279781 12.649400216555414
v 18.558730025455084 15.269029877619079 18.513906417357205
v 18.830848259307864 -5.1555437341317649 8.8036159593480949
v 18.902320048201844 -14.531205837976879 13.183169267165688
v 11.603570780299174 -1.6620748213155383 5.5097608117585644
v 26.826712789835341 5.1566716429366366 38.384893087095776
v 19.622407611096882 17.583609629394441 30.672610392023699
v 16.391792605900619 3.4981154845419726 15.12642650611167
v 12.840216371851604 18.062544334338117 17.788767235960339
v 10.178856894111792 11.860892334147914 9.5306154284681597
v 28.21385817785017 -8.9496030437451424 33.998986148761659
v 25.606314092833724 -15.209632617892124 25.815710873167816
v 20.631773746912906 -9.5150827203772774 16.80875548184374
v 25.402071501191095 8.8410141728835967 37.474742136819103
v 22.342093560198602 5.3840326882926552 27.585789816834069
v 20.872087217215245 14.516865982491774 22.613384139521028
v 10.781861372345485 14.786096097692512 12.163580170760829
v 14.656197306462282 7.3757158707005388 7.0061552677826633
v 14.6865537227962 -8.9476748338280689 7.8239273161999758
v 13.108704366450784 6.7126838456910889 10.384633633406972
v 23.332265890417712 -8.30295540153611 22.641867338918839
v 15.854212119803204 -0.64335492515560633 12.010464302856976
v 25.91068220582477 13.908170191253085 32.058242849265994
v 24.565985820042297 -9.674336105449493 17.636568844644309
v 24.264092317392922 -5.0062232845108703 19.392060631680462
v 29.187391690392872 -2.4118055196127428 30.219225864362855
v 26.45592984176912 -0.26265694673123141 26.010866878220341
v 25.439613523258725 -5.1607864401903125 28.294556506219458
v 19.736349216198469 -4.19028622579469 17.744866089953774
v 22.479390779122927 -7.6853431077779817 14.595789658836056
v 16.837504200918897 7.0506257782169186 17.769429261918049
v 15.704474428099358 17.935244442729861 14.327090168144167
v 15.914879173036315 6.375592923063925 8.9405045830223173
v 14.629913547863016 15.951413670646046 11.253458458764642
v 26.413388448277772 -8.1602194767875424 28.675536551675144
v 23.929851561841645 -11.788602544703416 15.34594032953223
v 21.568854737851595 9.6318193502193541 21.513265922119015
v 23.089524828866338 6.212366714110388 29.447270828727021
v 31.285161606876798 -2.3600815098038326 34.304442049574988
v 16.908154233503353 11.85874010822234 20.315980969624828
v 16.258850684880905 13.491460658329965 13.172599747693351
v 21.004317741271652 17.038502979973735 24.133108441296326
v 16.432425512006731 7.7690438605680558 10.640384679756639
v 18.876832565650783 14.464620754430408 25.431548758958673
v 25.665212725334623 2.1497470538773396 32.39516222375746
v 22.538321837555181 16.96885016297005 27.066574557095649
v 18.985973918129936 6.0726645850746461 18.391215159192278
v 21.86866293010851 -2.8797302923923422 19.175221469324903
v 19.989672178977674 -0.86563264257600991 16.704917704073651
v 19.725992237575831 7.0007580642857192 19.981172471596793
v 21.463418763884253 -2.5876363391829469 18.417241123730363
v 19.295534299607215 6.5939040373538109 19.130003293749244
v 25.095662142920247 5.7591716014448995 33.102106376983727
v 25.236089126200355 12.15809911633292 29.875730280061418
v 17.209155503343109 5.9551290697456931 11.23425775565901
v 28.263967026898754 -5.8928016131842664 26.687667029911974
v 27.773135802691161 -0.19752178039128054 28.592373637876175
v 27.415819171584559 3.7445873894074344 29.876743788977038
v 21.339213676484931 18.891923804364904 25.710088862376196
v 25.238002906212948 -13.971591642688356 16.783159804880377
v 14.069783775297211 10.037859265516323 7.205688803212837
v 27.998460342306672 -3.1161257464881635 27.565575702907637
v 31.288091533808508 -5.24004047750112 32.866668157252981
v 16.838669529297071 18.430937060934468 16.770258157133437
v 25.78407227379331 -8.2805839661649774 20.692180818602353
v 29.629079649037809 0.94989386511033191 32.758807719545459
v 26.826116013886192 0.28975919403747197 33.709338307499337
v 22.657700110515837 9.2428346557473375 23.425277137883672
v 25.623850921531471 0.25664730994249485 31.366298159267217
v 23.661777309451363 7.976034579818009 24.733294094032619
v 30.96223380555368 -7.6332307907042747 31.036643158240974
v 19.92958194369012 -10.645954600241442 14.883182332432835
v 25.896777160281943 3.6732658129629234 26.901573313676145
v 20.952464267265626 10.111488709238635 27.266200252159539
v 17.177802895109775 14.915194968598408 22.369668590002416
v 25.37668873995549 -1.2040113652257682 30.155940516359976
v 24.243365218714988 3.3736379890132877 30.257232196746735
v 23.821661652009553 -6.9896986726542298 24.247081069585597
f 1 2 3 
f 17 2 1 
f 1 3 7 
f 7 5 1 
f 1 5 19 
f 19 17 1 
f 4 3 2 
f 6 4 2 
f 18 6 2 
f 2 17 18 
f 3 4 577 
f 525 7 3 
f 577 525 3 
f 4 6 8 
f 4 8 497 
f 4 497 577 
f 5 7 11 
f 11 9 5 
f 5 9 21 
f 21 19 5 
f 10 8 6 
f 20 10 6 
f 6 18 20 
f 525 11 7 
f 8 10 12 
f 8 12 542 
f 542 497 8 
f 9 11 15 
f 15 13 9 
f 9 13 27 
f 27 21 9 
f 14 12 10 
f 28 14 10 
f 10 20 22 
f 10 22 28 
f 551 15 11 
f 11 525 551 
f 12 14 16 
f 12 16 550 
f 550 542 12 
f 13 15 25 
f 25 23 13 
f 13 23 27 
f 24 16 14 
f 28 24 14 
f 551 25 15 
f 16 24 26 
f 16 26 550 
f 548 18 17 
f 17 19 548 
f 548 20 18 
f 19 21 425 
f 19 425 558 
f 558 548 19 
f 429 22 20 
f 548 429 20 
f 21 27 425 
f 409 28 22 
f 429 409 22 
f 23 25 31 
f 33 27 23 
f 31 29 23 
f 23 29 33 
f 30 26 24 
f 24 28 34 
f 34 30 24 
f 563 31 25 
f 25 551 563 
f 26 30 32 
f 26 32 562 
f 562 550 26 
f 27 33 425 
f 409 34 28 
f 29 31 37 
f 39 33 29 
f 37 35 29 
f 29 35 39 
f 36 32 30 
f 30 34 40 
f 40 36 30 
f 491 37 31 
f 563 491 31 
f 32 36 38 
f 32 38 519 
f 32 519 562 
f 33 39 381 
f 33 381 425 
f 559 40 34 
f 34 409 559 
f 35 37 57 
f 49 39 35 
f 63 49 35 
f 57 55 35 
f 35 55 63 
f 56 38 36 
f 36 40 50 
f 36 50 64 
f 64 56 36 
f 520 57 37 
f 37 491 520 
f 38 56 58 
f 38 58 519 
f 39 49 534 
f 534 381 39 
f 559 50 40 
f 43 42 41 
f 41 42 499 
f 45 43 41 
f 499 45 41 
f 42 43 44 
f 42 44 48 
f 48 46 42 
f 42 46 506 
f 506 499 42 
f 577 44 43 
f 43 45 47 
f 43 47 525 
f 43 525 577 
f 497 48 44 
f 577 497 44 
f 51 47 45 
f 498 51 45 
f 499 498 45 
f 46 48 54 
f 54 52 46 
f 46 52 529 
f 529 506 46 
f 47 51 53 
f 47 53 551 
f 551 525 47 
f 542 54 48 
f 48 497 542 
f 49 63 420 
f 49 420 534 
f 450 64 50 
f 559 450 50 
f 59 53 51 
f 454 59 51 
f 498 454 51 
f 52 54 60 
f 52 60 529 
f 53 59 61 
f 53 61 551 
f 62 60 54 
f 550 62 54 
f 54 542 550 
f 55 57 71 
f 77 63 55 
f 71 69 55 
f 55 69 77 
f 70 58 56 
f 56 64 70 
f 530 71 57 
f 57 520 530 
f 58 70 72 
f 58 72 532 
f 532 519 58 
f 65 61 59 
f 463 65 59 
f 59 454 463 
f 60 62 68 
f 68 66 60 
f 60 66 630 
f 630 529 60 
f 61 65 67 
f 61 67 563 
f 563 551 61 
f 562 68 62 
f 62 550 562 
f 63 77 420 
f 78 70 64 
f 618 78 64 
f 64 450 618 
f 73 67 65 
f 463 73 65 
f 66 68 76 
f 76 74 66 
f 66 74 630 
f 67 73 75 
f 67 75 491 
f 67 491 563 
f 519 76 68 
f 562 519 68 
f 69 71 81 
f 87 77 69 
f 81 79 69 
f 69 79 87 
f 80 72 70 
f 70 78 88 
f 88 80 70 
f 530 81 71 
f 72 80 82 
f 72 82 532 
f 83 75 73 
f 535 83 73 
f 73 463 535 
f 74 76 86 
f 86 84 74 
f 74 84 474 
f 74 474 571 
f 74 571 630 
f 75 83 85 
f 75 85 520 
f 520 491 75 
f 519 86 76 
f 77 87 576 
f 576 420 77 
f 455 88 78 
f 618 455 78 
f 79 81 95 
f 97 87 79 
f 95 93 79 
f 79 93 97 
f 94 82 80 
f 80 88 94 
f 546 95 81 
f 81 530 546 
f 82 94 96 
f 82 96 544 
f 544 532 82 
f 89 85 83 
f 430 89 83 
f 535 430 83 
f 84 86 92 
f 92 90 84 
f 84 90 474 
f 85 89 91 
f 85 91 530 
f 530 520 85 
f 532 92 86 
f 86 519 532 
f 87 97 619 
f 619 576 87 
f 98 94 88 
f 455 98 88 
f 99 91 89 
f 578 99 89 
f 89 430 578 
f 90 92 100 
f 90 100 474 
f 91 99 101 
f 91 101 530 
f 102 100 92 
f 532 102 92 
f 93 95 105 
f 107 97 93 
f 105 103 93 
f 93 103 107 
f 104 96 94 
f 94 98 108 
f 108 104 94 
f 554 105 95 
f 95 546 554 
f 96 104 106 
f 96 106 556 
f 556 544 96 
f 97 107 619 
f 451 108 98 
f 455 451 98 
f 109 101 99 
f 578 109 99 
f 100 102 112 
f 112 110 100 
f 100 110 417 
f 100 417 474 
f 101 109 111 
f 101 111 546 
f 546 530 101 
f 544 112 102 
f 102 532 544 
f 103 105 115 
f 113 107 103 
f 115 113 103 
f 114 106 104 
f 104 108 114 
f 554 115 105 
f 106 114 116 
f 106 116 556 
f 107 113 117 
f 107 117 467 
f 107 467 619 
f 118 114 108 
f 451 118 108 
f 119 111 109 
f 421 119 109 
f 578 421 109 
f 110 112 120 
f 110 120 547 
f 547 417 110 
f 111 119 121 
f 111 121 554 
f 554 546 111 
f 122 120 112 
f 556 122 112 
f 112 544 556 
f 113 115 139 
f 145 117 113 
f 139 137 113 
f 113 137 145 
f 138 116 114 
f 114 118 146 
f 146 138 114 
f 568 139 115 
f 115 554 568 
f 116 138 140 
f 116 140 570 
f 570 556 116 
f 117 145 467 
f 401 146 118 
f 451 401 118 
f 147 121 119 
f 421 147 119 
f 120 122 150 
f 150 148 120 
f 120 148 547 
f 121 147 149 
f 121 149 568 
f 568 554 121 
f 570 150 122 
f 122 556 570 
f 515 125 123 
f 123 125 607 
f 123 126 522 
f 607 126 123 
f 522 515 123 
f 124 127 496 
f 607 127 124 
f 398 128 124 
f 124 128 607 
f 496 398 124 
f 129 127 125 
f 125 127 607 
f 513 129 125 
f 515 513 125 
f 126 128 132 
f 607 128 126 
f 132 130 126 
f 126 130 494 
f 126 494 522 
f 127 129 131 
f 127 131 496 
f 398 132 128 
f 133 131 129 
f 527 133 129 
f 129 513 527 
f 130 132 609 
f 130 134 494 
f 609 134 130 
f 131 133 135 
f 131 135 521 
f 521 496 131 
f 587 136 132 
f 132 136 609 
f 132 398 587 
f 141 135 133 
f 527 141 133 
f 134 142 440 
f 609 142 134 
f 134 440 494 
f 135 141 143 
f 135 143 521 
f 411 144 136 
f 136 144 609 
f 587 411 136 
f 137 139 161 
f 159 145 137 
f 161 159 137 
f 160 140 138 
f 138 146 160 
f 575 161 139 
f 139 568 575 
f 140 160 162 
f 140 162 503 
f 140 503 570 
f 151 143 141 
f 448 151 141 
f 527 448 141 
f 142 152 440 
f 606 152 142 
f 609 606 142 
f 143 151 153 
f 143 153 566 
f 566 521 143 
f 540 154 144 
f 144 154 606 
f 144 411 540 
f 144 606 609 
f 145 159 163 
f 145 163 390 
f 145 390 467 
f 164 160 146 
f 415 164 146 
f 146 401 415 
f 165 149 147 
f 421 165 147 
f 148 150 168 
f 168 166 148 
f 148 166 469 
f 148 469 547 
f 149 165 167 
f 149 167 575 
f 575 568 149 
f 503 168 150 
f 570 503 150 
f 155 153 151 
f 457 155 151 
f 151 448 457 
f 152 154 156 
f 606 154 152 
f 152 156 583 
f 583 440 152 
f 153 155 157 
f 153 157 566 
f 158 156 154 
f 423 158 154 
f 540 423 154 
f 171 157 155 
f 155 169 171 
f 457 169 155 
f 156 158 470 
f 470 406 156 
f 156 406 583 
f 157 171 501 
f 157 501 566 
f 423 172 158 
f 158 172 470 
f 159 161 187 
f 181 163 159 
f 187 181 159 
f 182 162 160 
f 160 164 180 
f 160 180 182 
f 575 187 161 
f 162 182 190 
f 162 190 503 
f 181 177 163 
f 163 177 592 
f 592 390 163 
f 415 180 164 
f 183 167 165 
f 413 183 165 
f 421 413 165 
f 166 168 189 
f 189 186 166 
f 166 186 469 
f 167 183 188 
f 167 188 575 
f 503 189 168 
f 175 171 169 
f 169 173 175 
f 516 173 169 
f 169 457 516 
f 419 374 170 
f 170 374 427 
f 426 419 170 
f 468 426 170 
f 170 427 599 
f 599 468 170 
f 171 175 501 
f 176 174 172 
f 172 174 470 
f 416 176 172 
f 423 416 172 
f 605 175 173 
f 516 178 173 
f 173 178 605 
f 174 176 179 
f 174 179 400 
f 174 400 470 
f 175 184 589 
f 605 184 175 
f 589 501 175 
f 185 179 176 
f 416 185 176 
f 177 181 203 
f 177 203 472 
f 177 472 592 
f 402 191 178 
f 178 191 610 
f 419 402 178 
f 516 419 178 
f 610 605 178 
f 179 185 192 
f 179 192 418 
f 418 400 179 
f 206 182 180 
f 180 204 206 
f 508 204 180 
f 180 415 508 
f 181 187 207 
f 205 203 181 
f 207 205 181 
f 206 190 182 
f 199 188 183 
f 413 199 183 
f 184 193 473 
f 610 193 184 
f 184 473 589 
f 184 605 610 
f 194 192 185 
f 477 194 185 
f 185 416 432 
f 185 432 477 
f 186 189 202 
f 202 200 186 
f 186 200 593 
f 593 469 186 
f 504 207 187 
f 575 504 187 
f 188 199 201 
f 188 201 504 
f 188 504 575 
f 505 202 189 
f 189 503 505 
f 190 206 208 
f 190 208 505 
f 505 503 190 
f 402 195 191 
f 191 195 610 
f 192 194 196 
f 192 196 418 
f 193 197 473 
f 610 197 193 
f 198 196 194 
f 477 198 194 
f 475 209 195 
f 195 209 608 
f 195 402 475 
f 195 608 610 
f 196 198 210 
f 196 210 585 
f 585 418 196 
f 197 211 479 
f 608 211 197 
f 479 473 197 
f 610 608 197 
f 212 210 198 
f 477 212 198 
f 217 201 199 
f 380 217 199 
f 413 380 199 
f 200 202 220 
f 220 218 200 
f 200 218 593 
f 201 217 219 
f 201 219 504 
f 536 220 202 
f 202 505 536 
f 203 205 221 
f 203 221 590 
f 590 472 203 
f 228 206 204 
f 204 222 228 
f 397 222 204 
f 508 397 204 
f 205 207 229 
f 227 221 205 
f 229 227 205 
f 228 208 206 
f 504 229 207 
f 208 228 230 
f 208 230 536 
f 536 505 208 
f 213 211 209 
f 209 211 608 
f 595 213 209 
f 209 475 595 
f 210 212 214 
f 210 214 585 
f 211 213 215 
f 211 215 479 
f 216 214 212 
f 482 216 212 
f 212 477 482 
f 223 215 213 
f 595 223 213 
f 214 216 224 
f 214 224 585 
f 215 223 225 
f 215 225 480 
f 480 479 215 
f 226 224 216 
f 482 226 216 
f 245 219 217 
f 380 245 217 
f 218 220 248 
f 248 246 218 
f 218 246 404 
f 218 404 593 
f 219 245 247 
f 219 247 567 
f 567 504 219 
f 569 248 220 
f 220 536 569 
f 221 227 251 
f 251 249 221 
f 221 249 622 
f 622 590 221 
f 252 228 222 
f 222 250 252 
f 629 250 222 
f 222 397 629 
f 231 225 223 
f 626 231 223 
f 223 595 626 
f 224 226 234 
f 234 232 224 
f 224 232 631 
f 631 585 224 
f 225 231 233 
f 225 233 485 
f 485 480 225 
f 482 234 226 
f 227 229 253 
f 253 251 227 
f 252 230 228 
f 567 253 229 
f 229 504 567 
f 230 252 254 
f 230 254 569 
f 569 536 230 
f 235 233 231 
f 626 235 231 
f 232 234 236 
f 232 236 631 
f 233 235 237 
f 233 237 485 
f 238 236 234 
f 514 238 234 
f 234 482 514 
f 239 237 235 
f 628 239 235 
f 235 626 628 
f 236 238 240 
f 236 240 424 
f 236 424 631 
f 237 239 241 
f 237 241 485 
f 242 240 238 
f 514 242 238 
f 243 241 239 
f 424 243 239 
f 628 424 239 
f 240 242 243 
f 240 243 424 
f 241 243 244 
f 241 244 486 
f 486 485 241 
f 244 243 242 
f 573 244 242 
f 242 514 573 
f 573 486 244 
f 255 247 245 
f 431 255 245 
f 245 380 431 
f 246 248 256 
f 246 256 408 
f 408 404 246 
f 247 255 257 
f 247 257 553 
f 247 553 567 
f 258 256 248 
f 555 258 248 
f 569 555 248 
f 249 251 259 
f 249 259 622 
f 260 252 250 
f 621 260 250 
f 629 621 250 
f 251 253 263 
f 261 259 251 
f 263 261 251 
f 262 254 252 
f 252 260 262 
f 553 263 253 
f 567 553 253 
f 254 262 264 
f 254 264 555 
f 254 555 569 
f 265 257 255 
f 633 265 255 
f 255 431 633 
f 256 258 268 
f 268 266 256 
f 256 266 408 
f 257 265 267 
f 257 267 545 
f 257 545 553 
f 543 268 258 
f 555 543 258 
f 259 261 271 
f 271 269 259 
f 259 269 392 
f 259 392 622 
f 272 262 260 
f 260 270 272 
f 621 270 260 
f 261 263 273 
f 273 271 261 
f 272 264 262 
f 553 273 263 
f 264 272 274 
f 264 274 555 
f 275 267 265 
f 633 275 265 
f 266 268 278 
f 278 276 266 
f 266 276 459 
f 459 408 266 
f 267 275 277 
f 267 277 531 
f 267 531 545 
f 533 278 268 
f 543 533 268 
f 269 271 285 
f 285 279 269 
f 269 279 392 
f 286 272 270 
f 270 280 286 
f 597 280 270 
f 621 597 270 
f 271 273 287 
f 287 285 271 
f 286 274 272 
f 545 287 273 
f 553 545 273 
f 274 286 288 
f 274 288 543 
f 274 543 555 
f 281 277 275 
f 602 281 275 
f 633 602 275 
f 276 278 284 
f 284 282 276 
f 276 282 625 
f 625 459 276 
f 277 281 283 
f 277 283 512 
f 277 512 531 
f 533 284 278 
f 279 285 289 
f 279 289 489 
f 489 392 279 
f 296 286 280 
f 280 290 296 
f 597 290 280 
f 291 283 281 
f 602 291 281 
f 282 284 292 
f 282 292 625 
f 283 291 293 
f 283 293 518 
f 518 512 283 
f 294 292 284 
f 517 294 284 
f 533 517 284 
f 285 287 297 
f 295 289 285 
f 297 295 285 
f 296 288 286 
f 531 297 287 
f 545 531 287 
f 288 296 298 
f 288 298 533 
f 288 533 543 
f 289 295 309 
f 309 303 289 
f 289 303 489 
f 310 296 290 
f 290 304 310 
f 502 304 290 
f 597 502 290 
f 299 293 291 
f 436 299 291 
f 602 436 291 
f 292 294 302 
f 302 300 292 
f 292 300 603 
f 292 603 625 
f 293 299 301 
f 293 301 518 
f 490 302 294 
f 517 490 294 
f 295 297 311 
f 311 309 295 
f 310 298 296 
f 512 311 297 
f 531 512 297 
f 298 310 312 
f 298 312 533 
f 305 301 299 
f 449 305 299 
f 299 436 449 
f 300 302 308 
f 308 306 300 
f 300 306 445 
f 300 445 603 
f 301 305 307 
f 301 307 565 
f 565 518 301 
f 564 308 302 
f 302 490 564 
f 303 309 317 
f 303 317 617 
f 617 489 303 
f 330 310 304 
f 304 318 330 
f 502 318 304 
f 313 307 305 
f 449 313 305 
f 306 308 314 
f 306 314 611 
f 611 445 306 
f 307 313 315 
f 307 315 549 
f 307 549 565 
f 316 314 308 
f 564 316 308 
f 309 311 331 
f 329 317 309 
f 331 329 309 
f 330 312 310 
f 518 331 311 
f 311 512 518 
f 312 330 332 
f 312 332 517 
f 312 517 533 
f 319 315 313 
f 492 319 313 
f 313 449 492 
f 314 316 322 
f 322 320 314 
f 314 320 611 
f 315 319 321 
f 315 321 541 
f 315 541 549 
f 572 322 316 
f 316 564 572 
f 329 327 317 
f 317 327 617 
f 318 328 330 
f 488 328 318 
f 502 488 318 
f 323 321 319 
f 439 323 319 
f 492 439 319 
f 320 322 326 
f 326 324 320 
f 320 324 442 
f 320 442 611 
f 321 323 325 
f 321 325 524 
f 321 524 541 
f 526 326 322 
f 572 526 322 
f 323 324 325 
f 439 324 323 
f 326 325 324 
f 324 439 442 
f 325 326 510 
f 325 510 524 
f 526 510 326 
f 327 329 335 
f 341 333 327 
f 327 333 604 
f 327 335 341 
f 327 604 617 
f 336 330 328 
f 328 334 342 
f 488 334 328 
f 342 336 328 
f 329 331 337 
f 337 335 329 
f 336 332 330 
f 518 337 331 
f 332 336 338 
f 332 338 490 
f 332 490 517 
f 341 339 333 
f 333 339 500 
f 333 500 604 
f 334 340 342 
f 488 340 334 
f 335 337 343 
f 343 341 335 
f 342 338 336 
f 565 343 337 
f 337 518 565 
f 338 342 344 
f 338 344 564 
f 564 490 338 
f 339 341 351 
f 355 345 339 
f 339 345 458 
f 339 351 355 
f 339 458 500 
f 352 342 340 
f 340 346 356 
f 453 346 340 
f 356 352 340 
f 488 453 340 
f 341 343 353 
f 353 351 341 
f 352 344 342 
f 549 353 343 
f 565 549 343 
f 344 352 354 
f 344 354 564 
f 355 347 345 
f 345 347 458 
f 346 348 356 
f 453 348 346 
f 363 349 347 
f 347 349 581 
f 347 355 359 
f 347 359 363 
f 581 458 347 
f 348 350 364 
f 407 350 348 
f 360 356 348 
f 364 360 348 
f 523 407 348 
f 348 453 523 
f 363 350 349 
f 349 350 407 
f 349 407 581 
f 350 363 364 
f 351 353 357 
f 357 355 351 
f 356 354 352 
f 549 357 353 
f 354 356 358 
f 354 358 572 
f 572 564 354 
f 355 357 361 
f 361 359 355 
f 360 358 356 
f 541 361 357 
f 549 541 357 
f 358 360 362 
f 358 362 572 
f 359 361 365 
f 365 363 359 
f 364 362 360 
f 524 365 361 
f 541 524 361 
f 362 364 366 
f 362 366 526 
f 362 526 572 
f 366 364 363 
f 363 365 366 
f 510 366 365 
f 524 510 365 
f 366 510 526 
f 428 369 367 
f 367 369 437 
f 437 381 367 
f 367 381 534 
f 438 428 367 
f 534 438 367 
f 441 376 368 
f 368 376 494 
f 494 440 368 
f 368 440 528 
f 588 441 368 
f 368 528 588 
f 405 370 369 
f 369 370 465 
f 428 405 369 
f 465 437 369 
f 370 376 484 
f 515 376 370 
f 370 405 527 
f 484 465 370 
f 370 513 515 
f 527 513 370 
f 371 372 509 
f 523 372 371 
f 371 393 552 
f 616 393 371 
f 371 509 616 
f 552 523 371 
f 372 453 488 
f 523 453 372 
f 372 488 509 
f 403 398 373 
f 373 398 496 
f 506 403 373 
f 373 454 498 
f 580 454 373 
f 373 496 580 
f 373 498 499 
f 373 499 506 
f 374 419 516 
f 601 427 374 
f 516 457 374 
f 374 457 613 
f 613 601 374 
f 375 378 584 
f 597 378 375 
f 584 395 375 
f 375 395 624 
f 375 502 597 
f 624 502 375 
f 376 441 447 
f 376 447 484 
f 522 494 376 
f 376 515 522 
f 588 394 377 
f 377 394 594 
f 377 409 441 
f 559 409 377 
f 377 441 588 
f 594 559 377 
f 378 388 584 
f 621 388 378 
f 378 597 621 
f 379 394 528 
f 582 394 379 
f 583 406 379 
f 379 406 623 
f 379 464 582 
f 623 464 379 
f 379 528 583 
f 380 413 471 
f 598 431 380 
f 471 444 380 
f 380 444 598 
f 437 425 381 
f 468 391 382 
f 382 391 622 
f 382 392 560 
f 622 392 382 
f 560 468 382 
f 552 424 383 
f 383 424 628 
f 383 446 483 
f 628 446 383 
f 383 483 552 
f 384 392 489 
f 560 392 384 
f 384 489 600 
f 384 493 560 
f 574 493 384 
f 600 574 384 
f 385 397 415 
f 614 397 385 
f 415 401 385 
f 385 401 456 
f 385 456 487 
f 385 487 614 
f 586 408 386 
f 386 408 634 
f 386 477 586 
f 634 477 386 
f 387 495 615 
f 616 495 387 
f 615 585 387 
f 387 585 631 
f 631 616 387 
f 388 397 614 
f 629 397 388 
f 620 584 388 
f 388 614 620 
f 388 621 629 
f 471 421 389 
f 389 421 578 
f 389 435 471 
f 538 435 389 
f 578 538 389 
f 390 427 467 
f 599 427 390 
f 592 433 390 
f 390 433 599 
f 391 433 472 
f 599 433 391 
f 391 468 599 
f 391 472 590 
f 391 590 622 
f 393 424 552 
f 631 424 393 
f 393 616 631 
f 588 528 394 
f 394 582 594 
f 615 462 395 
f 395 462 624 
f 395 584 615 
f 432 416 396 
f 396 416 636 
f 477 432 396 
f 396 469 478 
f 636 469 396 
f 586 477 396 
f 396 478 586 
f 508 415 397 
f 403 399 398 
f 398 399 587 
f 399 403 461 
f 461 411 399 
f 399 411 587 
f 422 406 400 
f 400 406 470 
f 400 418 434 
f 487 422 400 
f 400 434 487 
f 401 451 456 
f 402 419 426 
f 402 426 493 
f 493 475 402 
f 529 461 403 
f 403 506 529 
f 404 408 586 
f 404 586 593 
f 405 428 448 
f 405 448 527 
f 406 422 623 
f 523 410 407 
f 407 410 612 
f 612 581 407 
f 408 459 634 
f 409 429 441 
f 410 523 552 
f 410 552 612 
f 411 461 539 
f 411 539 540 
f 412 414 480 
f 602 414 412 
f 412 449 602 
f 632 449 412 
f 412 480 485 
f 412 485 632 
f 413 421 471 
f 414 479 480 
f 598 479 414 
f 633 598 414 
f 414 602 633 
f 416 423 579 
f 416 579 636 
f 539 474 417 
f 579 539 417 
f 417 547 579 
f 620 434 418 
f 418 585 620 
f 420 438 534 
f 576 438 420 
f 487 456 422 
f 422 456 623 
f 540 539 423 
f 423 539 579 
f 425 437 558 
f 426 468 560 
f 560 493 426 
f 427 452 467 
f 601 452 427 
f 428 438 591 
f 613 448 428 
f 428 591 613 
f 447 441 429 
f 476 447 429 
f 548 476 429 
f 430 535 538 
f 430 538 578 
f 431 598 633 
f 592 472 433 
f 614 487 434 
f 620 614 434 
f 589 471 435 
f 566 501 435 
f 435 501 589 
f 538 537 435 
f 435 537 566 
f 602 449 436 
f 437 465 558 
f 438 576 591 
f 557 442 439 
f 439 492 557 
f 583 528 440 
f 596 466 442 
f 442 466 611 
f 442 557 596 
f 464 455 443 
f 443 455 618 
f 582 464 443 
f 594 582 443 
f 618 594 443 
f 444 471 473 
f 444 473 479 
f 444 479 598 
f 611 603 445 
f 481 460 446 
f 446 460 511 
f 626 481 446 
f 511 483 446 
f 628 626 446 
f 447 465 484 
f 561 465 447 
f 447 476 561 
f 613 457 448 
f 557 492 449 
f 632 557 449 
f 450 559 594 
f 450 594 618 
f 451 455 464 
f 464 456 451 
f 619 467 452 
f 591 576 452 
f 452 576 619 
f 601 591 452 
f 580 463 454 
f 456 464 623 
f 511 500 458 
f 612 511 458 
f 458 581 612 
f 459 625 627 
f 459 627 634 
f 460 481 574 
f 604 511 460 
f 460 574 600 
f 460 600 604 
f 461 529 571 
f 571 539 461 
f 615 495 462 
f 462 495 616 
f 616 509 462 
f 462 509 624 
f 580 535 463 
f 561 558 465 
f 466 596 635 
f 635 611 466 
f 593 478 469 
f 579 547 469 
f 636 579 469 
f 589 473 471 
f 474 539 571 
f 493 481 475 
f 475 481 595 
f 476 548 558 
f 476 558 561 
f 634 482 477 
f 593 586 478 
f 481 493 574 
f 626 595 481 
f 627 507 482 
f 482 507 635 
f 635 514 482 
f 634 627 482 
f 483 511 612 
f 612 552 483 
f 485 486 632 
f 596 557 486 
f 486 557 632 
f 486 573 596 
f 488 502 509 
f 617 600 489 
f 496 521 580 
f 500 511 604 
f 624 509 502 
f 627 603 507 
f 507 603 635 
f 596 573 514 
f 635 596 514 
f 566 537 521 
f 521 537 580 
f 630 571 529 
f 535 537 538 
f 580 537 535 
f 620 615 584 
f 585 615 620 
f 591 601 613 
f 617 604 600 
f 603 611 635 
f 627 625 603 
