v 0 14.255384720424622 0.83862520898354287
v 0 8.8914047388212758 -1.849816487791478
v 0 11.566943023649602 6.2026051905868904
v 0 6.202963042046254 3.5141634938118687
v 0 8.8785013268745807 11.566585172190237
v 0 3.5145213452712323 8.8781434754152144
v 6 14.255384720424622 0.83862520898354287
v 6 8.8914047388212758 -1.849816487791478
v 5.8499314043104356 11.564608286157856 6.2072634597928165
v 6 6.202963042046254 3.5141634938118687
v 5.9833525493689486 8.8785013268745807 11.566585172190237
v 6 3.5145213452712323 8.8781434754152144
v 12 16.943826417199642 -4.5253547726198047
v 12 11.579846435596295 -7.2137964693948247
v 12 14.255384720424622 0.83862520898354287
v 12 8.8914047388212758 -1.849816487791478
v 12 11.566943023649602 6.2026051905868904
v 12 6.202963042046254 3.5141634938118687
v 12 8.8785013268745807 11.566585172190237
v 12 3.5145213452712323 8.8781434754152144
v 18 16.943826417199642 -4.5253547726198047
v 18 11.579846435596295 -7.2137964693948247
v 18 14.255384720424622 0.83862520898354287
v 18 8.9099934879948748 -1.8869047678050803
v 18 11.566943023649602 6.2026051905868904
v 18 6.202963042046254 3.5141634938118687
v 12.988366325496569 7.6858358381061098 0.55553507986085515
v 11.1944096550542 8.1759168705459189 -0.42227479807849111
v 5.4366105028657188 12.180489584770955 4.9784568389286168
v 13.19521466000745 13.045326410482378 -6.4792938269940441
v 1.9414683087986297 13.355152179407213 0.38742615373622913
v 1.228452584083473 13.715269590444395 1.9162631389599998
v 13.595092092819471 8.673757247760447 -1.4155661239108239
v 13.05086640544582 14.899723282093618 -0.44695935486010141
v 2.3508886784659015 13.799096445699856 1.7490117628001838
v 4.0568760317640979 3.5145213452712323 8.8781434754152144
v 16.193055136120371 16.943826417199642 -4.5253547726198047
v 6.6484217029133834 5.6488854703989144 4.6196592931579827
v 7.4398795778620137 3.8761108445387507 8.1566999574264916
v 16.82241419683568 11.109145845001288 -6.2746544570130025
v 0 7.9157455981452678 3.2738392716484994
v 12 8.2660729604550163 10.089756091021435
v 0 9.2954264474024697 7.349052517660903
v 0 10.958434732713343 4.0792756685182736
v 12.39980036604808 7.224455467912712 1.4760813846555141
v 0 10.345347178029424 5.2172222378076079
v 0 10.964073507425562 2.8183318930990384
v 11.85225935816575 7.7812455771640048 0.36517352916386336
v 4.6210959452204063 5.8737746927231527 4.1709602240754702
v 16.686396676224842 16.243343225489419 -4.8764388980159827
v 3.0848829592854816 10.24586346138596 -1.1709580060685312
v 12 4.9706682573262073 8.5010558732255888
v 18 11.488109265221659 2.0894982892104217
v 7.5927106888345701 8.8914047388212758 -1.849816487791478
v 3.9399927020374435 6.2689962356771076 3.3824140386601633
v 7.1577572788226558 9.2981717817981835 10.729258507535043
v 12 11.536873481050824 -2.5959615011937442
v 10.751232410222761 4.2626572188922536 9.2531112576206134
v 11.05571294274846 7.7061503535623395 10.978999601267709
v 13.07691742076555 14.313948583497023 0.72177856524098116
v 1.2788532240430621 11.884045796684745 -0.34989645993258067
v 3.954862930570374 9.9536357765018018 -1.3174233351132099
v 12 5.1195905864596742 5.6757086637732677
v 0 8.4135474479340413 10.264478800484607
v 15.40491556588306 14.692338944047926 -0.033186038105804894
v 6.963560886636456 6.4570175890573838 10.352930782886482
v 2.5577064480861242 10.842597105917489 -0.87187344249274634
v 13.15345649720979 16.572531911064527 -3.7845478209283652
v 5.6037485562956721 10.832499309512437 7.6679675917771126
v 12 14.503368187290221 -2.6962436127432463
v 17.430193877704689 14.926596972044265 -0.50057775212719102
v 10.88913020540237 5.8786635113341292 10.063058109352323
v 18 8.5659853422981946 1.4604278776961239
v 2.4200031544348821 7.722486275248035 0.48241011256767496
v 16.509097225322549 8.5577088302080604 -1.1840262733741893
v 13.186978362113001 16.179052578005717 -4.9086615494801258
v 4.9230825792344497 4.301266065708452 9.2724621191079901
v 0 12.624962598303231 1.511274636526114
v 0 8.8712131243638481 0.19412121223712742
v 1.2692477377033491 8.3951327302787995 -0.85965437178011861
v 0 10.269513318759628 6.9911425110723524
v 11.28726338189967 8.5941749693573808 -1.2567835292365555
v 0 7.5797833110964392 2.2456158933076265
v 0.68310466413684168 5.2649673364892955 5.3856529121886734
v 1.3603052614216296 5.6373357377476818 4.642703324504617
v 0.99229342973785428 9.2315994512983721 10.86208364878993
v 0 4.7247647331521589 8.1365906287355507
v 0.70380477598316205 4.0810545552373778 7.747796181361104
v 1.4176968471644118 4.4427813195154195 9.3433899582067923
v 1.8842093005814293 11.332330069899436 -0.62641791783198153
v 7.278853224043063 13.223841440144755 0.32161284573017968
v 7.6851435114741546 13.760145709274909 1.8267262881710535
v 5.1704261374483877 10.048977176694315 -1.2696379599653609
v 5.8822364327574608 8.2120538197942388 -0.49437525411468908
v 7.7144718918427104 11.111890624235508 -0.73690278156552047
v 7.278853224043063 9.9229480191011419 -1.3328041245381153
v 3.9661292350755 11.761467871048319 5.8144891348722219
v 7.9904591989918927 12.318367257987223 4.7033632484932024
v 12 6.7405916887579096 7.5456788100733956
v 5.7870721584819744 6.8321549752302815 2.2587994893649959
v 5.1971602609398078 5.4096037481190944 5.0970742840845755
v 6.9177449026558957 6.8918801202996498 2.1396358553033958
v 7.4584776720521706 6.572592679891395 2.7766782880188594
v 16.519894872904089 13.937154123339344 1.4735590274653645
v 12.9787689881207 15.828188333978542 -2.2994332091018483
v 12 14.871751649400561 -0.39115034178077801
v 4.5398089684023848 3.8962113931788638 8.1165953344941251
v 14.36510846777267 8.9572026203720831 -1.9810964481840792
v 12 6.796309978727745 5.1965885253181856
v 12 12.036512232880682 -5.5987902396850275
v 9.342242721177346 6.2391852495732678 3.4418929304228785
v 5.534127102384006 12.246300999573446 -0.16833314395082155
v 14.153834841531101 11.281754498250486 -6.6190433131265118
v 18 12.642809615531931 -1.7114184461535169
v 3.5711251438072242 8.8914047388212758 -1.849816487791478
v 12 7.7407500663358695 10.996341073613955
v 12 14.078312450486671 -0.33961982983334238
v 12 13.228145405143669 0.31302557299021627
v 12 10.225749318357044 6.9681866207431202
v 10.89949418190862 13.567934507765328 2.2102261566540102
v 4.5448974450801876 13.714589363989134 1.9176203270639296
v 3.3496842446136394 7.8490414670994682 11.050617025092809
v 2.5577064480861242 4.817037705848386 9.5309683007346724
v 16.046266819941959 15.933097883134147 -2.5087487848216945
v 0.81145998353023252 6.7647275467196524 2.3933307225235456
v 14.153834841531101 14.372512446569425 0.60493192149841768
v 17.071892802504639 13.670153641691593 2.0062784985087569
v 12 10.338561124164571 -2.4434199988447256
v 11.02365409029975 9.8375637558720292 -1.37559895492541
v 10.3039163120427 8.3695745964126278 -0.80866077255506008
v 13.42612088327598 9.3505213671058129 -2.765846173796449
v 10.347791565781611 12.047216934834822 5.2443624850172732
v 18 9.0964108144687401 2.4203177128788398
v 9.9167988361562429 11.491774384601968 6.3525816901998624
v 0 8.8707378891092628 8.9680915727788886
v 12.776172963520249 10.116554692539257 -4.2942361804665063
v 12.15920041455041 12.218108349149109 4.9033998647345598
v 18 13.027717282163955 1.0805312629895305
v 10.28845871038278 6.6631596694957835 2.5959789930277233
v 10.28845871038278 6.0858353159014493 3.747856781296997
v 4.6809937272718862 11.263977127584077 6.8070828713018603
v 13.64979072555052 8.2716716237431456 4.5510059929607598
v 13.298675577323969 16.943826417199642 -4.5253547726198047
v 0 10.985040761539413 7.3636168238140467
v 0 5.621060779936065 4.6751751270390258
v 18 9.4733070009314648 -3.0108281210186369
v 10.229839010890069 9.2698974514854928 10.785671463029834
v 10.29974873328983 8.2517877137423703 11.252474564906141
v 10.51690045117498 7.8381912300975776 0.2515555389573314
v 1.9105866892953056 9.8988022497524284 9.5308803502879051
v 10.405146012660801 3.8950769168280939 8.1188588421768237
v 7.107568021589139 8.1245082440281013 -0.31970428525908234
v 8.4695583570158899 13.132305134161319 0.27573459439094394
v 17.31891677892072 16.41805517756881 -3.4763357785811273
v 18 15.804015807878969 -3.8696055626304249
v 17.137191050603271 12.544274033721289 -6.7304226728459424
v 3.1950474245438922 5.5232861068247141 9.88494196506179
v 5.0346387249694793 11.23534425250438 -0.67502747945878294
v 16.858376527047721 9.2454899264465311 -2.5562874000982196
v 3.32972433733645 6.661925332002725 2.5984417437026797
v 2.5681714606493449 4.4265240775571479 7.0585152480233146
v 3.4327723733532505 3.8025264270766588 8.3035156174789613
v 18 9.4084716165213997 -0.3457923869594941
v 16.730752262296651 12.063215032192078 5.2124430745755284
v 16.482097558146801 6.7057227483407971 2.5110571205713006
v 0 11.099059189540725 0.46127617931294917
v 0 10.062183627662211 -0.017699519378485462
v 15.58760554125487 9.0020483010833132 -2.0705725688248862
v 0 8.9540451844601847 5.1589195556024743
v 0 12.172586733553327 2.4190766696572497
v 0 10.098250277942501 2.468223220566935
v 6.0287692186300266 13.079443749057171 0.24924032104341531
v 0 10.563886823455812 1.4708005994113933
v 1.0431908138403525 7.7752790291978044 0.3770779881254871
v 7.8026063321694394 13.077864317377591 3.1880144025265937
v 0 9.2329463111412622 1.6339011716793705
v 7.1540931130064198 9.7536810104173242 9.8204263068294733
v 0 8.2657997547031101 1.6886997445788348
v 5.1346238688516754 4.9311866087127747 6.0516123578355536
v 12 5.6800719895829062 7.6189627327865468
v 0 9.4886247335499441 3.8059177438189171
v 1.3489748639536101 6.2323293528711705 3.4555718183489601
v 0 7.4813460887644858 4.4840727673774312
v 16.462975507742389 7.3068253549059126 1.3117369521731344
v 16.692785669712809 10.65676462512058 -5.3720632606317471
v 11.217095446742659 11.992456935657446 5.3536196579484967
v 1.0347047775087468 12.090867291316011 5.1572712757729686
v 11.32109033317969 10.076285475999523 9.1767657441196526
v 0 8.2283764767489558 6.2291470551804613
v 0 6.5623958981323653 5.3721708524660681
v 0 8.3456065382761206 7.7048911120746562
v 1.2788532240430621 12.434194700192014 -0.074160298221197962
v 1.2788532240430621 8.8914047388212758 -1.849816487791478
v 1.2788532240430621 14.255384720424622 0.83862520898354287
v 18 8.3186582937427893 -0.7070725444800785
v 0 6.7757094871247396 2.3714195505004705
v 0 6.5551995307611879 6.8066533875706359
v 0.9327399501524436 10.165821152962517 8.9981241245357424
v 0 7.7413720511776782 8.7874113361804014
v 7.2870688442749572 6.1063727827492578 3.7068804189765361
v 0 6.508044997958228 8.2273987524273906
v 0 5.3633160314503954 7.3479477079328408
v 15.7859393031586 13.651497139968871 -6.1754793701718365
v 0.67976112326043392 4.6590212733231526 6.5946367471937215
v 10.7422402467599 3.5145213452712323 8.8781434754152144
v 0 6.4917243429750719 9.4375105264712822
v 0 5.4391031166474075 8.8503018665732434
v 3.4396390405218709 9.3331064036762825 10.65955693556352
v 1.0656824222717756 7.4416816164118309 10.846447134090841
v 0.75651613559210773 5.3883729075201598 9.8173230940556273
v 1.3041760066210735 10.340944326540935 -1.1233032118066646
v 1.2692477377033491 13.217863739380752 2.9086874980369726
v 1.2709398769457376 7.2434805528896469 1.4381225272672373
v 1.4385739355906502 4.9188215752122515 6.0762830777727661
v 1.4460693467104182 4.3894096037060244 7.1325660615499693
v 1.1428991824624628 6.3278635384401305 10.288198413232291
v 4.474426413322405 8.2335399142529813 -0.53724431863551425
v 12 12.578627326594059 -4.4797548114740744
v 2.4484701103060651 12.406797179117405 -0.087892012041509204
v 12.90426550517482 9.064865442691076 4.9485569427773957
v 1.7790885472765705 12.578737721395875 4.18387199257341
v 12 8.5345944288861393 5.8170715945610336
v 2.5999717504310453 13.293601448581406 2.7575755894201195
v 0 7.9865902522112835 11.11955685904141
v 1.9181882341926464 6.7272895998027282 2.4680269296444228
v 2.5370425391573246 7.2040934072156189 1.516707776551764
v 1.9547299806995841 11.733876330289736 5.8695397883672076
v 18 12.431220343993585 1.706890416748426
v 1.8535978343211355 10.90398841145468 7.5253325061135534
v 2.503683692803202 6.074001647445761 3.7714673214777217
v 2.5427273580332184 10.363689090857495 8.6033379332848874
v 2.5345889657148852 4.8630351289051994 6.1875882184402293
v 2.0196708972232811 9.3567948062496384 10.612293824984604
v 2.0306249948108057 8.1775477328521831 11.215265279845887
v 1.9537331800580375 3.8126132826170425 8.2833903191469034
v 2.5577064480861242 7.2886064001747464 10.769725409646295
v 2.5577064480861242 6.1883085931602091 10.21825308622353
v 3.8536001867815282 11.340725459215996 -0.62221012533896181
v 3.2421918904408127 8.1245082440281013 -0.31970428525908234
v 3.2385335191941653 12.598917894481946 4.1436085029136471
v 3.6960017835366674 13.220974424835651 2.9024810571351081
v 4.0935332952862007 7.7744248275239443 0.3787822916572825
v 3.0438858014176331 11.252679233930827 6.8296244333759102
v 3.4070260585273964 5.5580349934021687 4.8009242023112044
v 3.9635238534001278 10.874013464567348 7.5851385324990748
v 3.1463970423641179 9.7057707691552171 9.9160168399446249
v 4.0071690616204796 4.9933012677686905 5.9276811644830154
v 3.4231492573038675 6.8525540970002758 10.551174781595925
v 18 11.031252181160772 -4.1552089525982217
v 3.7658973069147805 4.3586897535948408 7.1938583191547769
v 3.8461651584688994 6.1883085931602091 10.21825308622353
v 3.9512133638795301 5.0141786788020957 9.6297759050973433
v 4.7189679797123887 13.180857233767638 0.30006904185258199
v 18 9.5271515023470457 3.7177814072067643
v 18 10.561213542391785 0.07552912488661212
v 4.4146463292551452 12.948116427265488 3.4468874463614139
v 4.4501384264969861 12.604464004693472 4.1325429015334594
v 5.130136654910773 13.271777765976843 2.8011182099486458
v 4.5306506008235878 7.2765594041830663 1.3721235895312316
v 18 11.429358556096716 -4.8096141121496583
v 4.5220545288839604 6.7654707009999893 2.3918479807970834
v 4.3197865372830631 10.316872527247524 8.6967463602976736
v 4.4715944547614059 9.7126440097071693 9.9023033475621673
v 4.5103275236945723 7.9187902134291175 11.085575290890503
v 4.5533354431049684 5.6626621986169967 9.9547976502047302
v 5.1844315433159949 4.3617362724241309 7.1877799035307772
v 5.315976986013327 4.9665375861920031 9.6058980568778924
v 16.799789433838381 7.8127908630690337 4.3210136784712931
v 6.2726877996005674 11.361504833683465 -0.61179544501896777
v 5.7095435022996446 12.868705926841185 3.6053273095416434
v 6.5362558061391223 13.264038828069863 2.8165589420507056
v 5.832562739739406 7.2849299444869651 1.3554226840664885
v 5.5944663500389726 10.259236066232512 8.8117426510730503
v 5.8940859477352054 9.6392289338353692 10.048781137203878
v 0 9.2341238918037174 6.5756934626184957
v 5.5379392501947562 6.8470435129145546 10.548412861514109
v 5.4450714852642896 6.0005359794026036 10.124140929565652
v 11.78975536164244 6.8082135561989565 2.3065674184851459
v 6.3671103989106577 7.5786648875298717 10.91510353085172
v 6.4230825792344506 5.6463624325656365 9.9466281620913435
v 0.93661050286571879 11.21971698378003 6.8953907284640952
v 7.014898232987135 12.69871767064301 3.9444879483788027
v 7.0012186741778759 7.6176202081124504 0.69163893294324996
v 6.9365100841180727 7.2503959155739324 1.4243249927889821
v 7.8270732011426034 7.1518900315310834 1.6208639732362107
v 7.0270558472625382 10.872490943910458 7.5881762663412999
v 7.0270558472625382 10.295166590316121 8.7400540546105745
v 7.0552729327806798 4.9701887877781274 5.9737951940873417
v 6.8725244166537029 12.115446250046546 5.108231327182156
v 15.138659132512689 8.6505638763075723 4.7409078445472268
v 7.1223645492108076 4.3405239376829385 7.2301027625503034
v 7.1982899331137657 5.1081631632585944 9.67688119030149
v 7.5284311734761857 7.278022439079308 10.764420698886074
v 7.7141936964010043 6.0474751861149949 10.147666990619559
v 12.332027531384149 13.670798217618518 2.0049924403536572
v 8.5673119344258382 12.123543633130216 -0.22985947769258575
v 14.53086192109293 13.607960043679677 2.1303671908988453
v 2.0982617277182793 5.282364031631678 5.3509430188695291
v 10.85538926434695 5.7283130940148501 4.4611852657787461
v 9 13.759112711882146 1.8287873249949027
v 18 8.9219011796751975 0.8549770412205846
v 9.0780088013326026 11.323848687802689 -0.63066881014578158
v 8.2351496868557224 8.2985249585833074 -0.66690250587075184
v 8.8725562132776012 10.132612613185982 -1.2277196464065234
v 12 15.877905873552439 -5.0595971159578683
v 12 10.501022480002398 5.6683628472488259
v 12 12.645766979243497 -6.6795541260567619
v 9 13.217863739380752 2.9086874980369726
v 8.1346066424459984 7.6451946513932336 0.63662239234301898
v 12 7.2688835856934562 4.0484058371499323
v 9.2822458691393113 7.941934957498944 0.044566011282104689
v 9.0147125585153027 12.617438317265323 4.1066565477419825
v 8.5250479086113167 6.742483978131359 2.4377110997398899
v 8.3955052983904306 11.617522785368534 6.1016884291558799
v 9.1941058124392256 12.069489014246312 5.1999252229947324
v 8.2476313411646398 10.902260613774819 7.5287798087566227
v 8.1941934695201954 5.8317767615640008 4.2547545136361045
v 8.3155145576453116 10.295166590316121 8.7400540546105745
v 8.4138665969320865 5.0033218889875259 5.9076880168966133
v 8.0999671336839612 9.7348536926422078 9.8579905790151621
v 9.0874341621053976 4.5236361580464459 6.8647571850006672
v 8.622230613301415 8.0962900198026944 11.17453868789438
v 8.4250384085762384 9.2350639386682136 10.85517130216153
v 9.2104180408910654 9.7171311369326414 9.8933506294722733
v 8.3278419234005181 6.7279816183512038 10.488738708564444
v 10.84484791769064 5.1558362934010873 9.7007750958213492
v 8.3138009690050758 5.1491977344751056 9.697447831610015
v 8.8987937543154203 3.9882933811316867 7.9328733141737002
v 9.335818014004861 7.3129520627693605 10.781927523501949
v 9.0302610586710106 6.2172894763455906 10.232778385540858
v 9.6709984489256886 13.198591172682335 0.30895734139692177
v 5.9083736628999164 13.632644180826734 2.0811173902880311
v 9.8683371315961139 12.976057866366194 3.391138675549993
v 9.6781160395208854 7.5311696040709544 0.86412521376249485
v 9.6844854423546884 6.9698595368394249 1.9840512912794783
v 9.5837836406730563 10.848975612081402 7.6350940660998443
v 9.5587341217227255 5.5009100405740181 4.9148999317413065
v 6.9990035196361884 11.531016812712409 6.2742851814578557
v 17.023133409970981 16.659468205401389 -3.9580031512251299
v 16.93749080874402 8.7590520574406696 4.7952824228949851
v 10.56148094259582 10.314890110135542 8.700701679736671
v 9.760629107391205 5.1004386154399466 9.6730096254344282
v 10.28845871038278 4.3538622551184405 7.2034901461048255
v 10.42738639657526 6.6923687549168704 10.470889442287019
v 12 13.248797472486027 -5.2732079025949821
v 12 15.127637171702865 -3.5988893508843942
v 12 13.844096062219316 -3.9753482519226795
v 3.4033311098671 13.671969269784286 2.0026559565897979
v 8.9435992246325533 4.323583321444378 9.2836475898002426
v 6.0954716205421766 5.1792061908486584 5.5567635853223223
v 13.698840864512499 7.997227827126375 -0.065754344990720082
v 12 12.468437135932678 -3.3429258985722905
v 12 9.353277980535692 6.2524931190153152
v 12.76115931169053 10.710368008711463 -5.4790127536680311
v 12 11.313520680828974 -3.890818089698759
v 12 13.819417822825514 -1.7891028368792483
v 12 12.514502196340505 -1.2271573822303887
v 10.71408131772308 10.979774918141818 -0.8031195411879124
v 12 11.31931909757818 -1.66906679338598
v 12 11.344063288569739 -0.62053719597641788
v 12 10.658049607805514 -0.97511359418930077
v 3.6298211256818185 12.858442628292025 0.13847394418579073
v 10.84369647539741 12.560330723840202 4.2205976416840034
v 12 12.677067048689562 -2.3087223398638903
v 10.872243449583211 7.3002899421496439 1.3247764103983932
v 3.9609997355928872 12.218204233586452 4.9032085560656462
v 10.90381695393428 10.967544655583385 7.3985250616295497
v 13.120240966733871 11.163324370945766 -6.3827514743102585
v 7.6131117785714819 5.353380885040516 5.2092501636744837
v 2.752943146983748 12.13420117312852 5.0708114969180667
v 9.8293307513982473 4.8669829583739759 6.1797115074567976
v 12 9.1567636852527361 7.4904939038007932
v 0 9.0342497667670294 2.6106113676800158
v 16.844738107232189 7.009443936855063 3.9183739630329604
v 12 7.3101763594697733 6.4512832267501334
v 10.92533995462739 5.1986927464419983 5.5178840015699731
v 12 5.9336645979243334 6.479729030436884
v 12 9.0494457462806945 9.0359232428012994
v 10.666211726937981 9.6879582380386537 9.9515564093708662
v 12 7.6988249105732693 8.5983411414585618
v 15.054876832595991 15.387286060813787 -1.4197448119399816
v 14.498524994109831 13.345549068421199 -6.3288213952013193
v 4.9587034487821757 9.2180251205428849 10.889167159108728
v 12 6.1731134629280691 8.708213671119859
v 11.98204722007431 13.202578942920235 2.9391837302355137
v 12.191556092808179 12.703503103695102 3.9349400503806762
v 6.3847398030612998 4.0218754712036375 7.8658703142193289
v 2.8977261299255446 4.0758023826940049 7.7582753181846309
v 9.8592008667033113 12.393909463735005 4.5526414084461093
v 0 7.0758829979653761 7.7913835579380475
v 1.7422329297721042 5.4404742125079846 9.8434364131332615
v 13.02904818249989 10.109513092259951 5.4721372523928515
v 13.19740724584519 15.130523256039535 -5.4341873641052816
v 12 4.0169038016185787 7.8757897914248005
v 14.09104842207516 15.473007489761873 -5.2625333128998255
v 14.029143722653981 14.268671804475844 -5.8661497104892293
v 12.89643985021576 14.167071249654942 -5.9170721913584314
v 14.045292737752099 16.137159719622545 -2.9158930450993212
v 13.549861573503019 10.433805658405451 -4.927215438336197
v 14.153834841531101 15.527161153758101 -1.6988236550401403
v 13.64463117489403 9.8489600744959649 -3.7603312882418223
v 9.7965378089280009 11.992538092373175 -0.2955198193582369
v 4.5638306418681971 12.236712239354301 -0.17313905726182188
v 6.8509679016387572 12.308293724784757 -0.13726221752559198
v 13.45692570453366 13.814036573839127 1.7192032129782646
v 12 13.500053568807356 -2.9057702652595392
v 13.331561400846541 13.210070042828857 2.9242374846099395
v 13.452872586071109 12.612371124305879 4.1167666132234046
v 0 11.178492893297957 4.9487332963347352
v 13.06002771599182 7.2129543151713644 4.0203739310918385
v 13.833116382688489 7.2647021545427286 1.3957811789012895
v 13.804233689008409 12.025489756228106 5.2877125607295143
v 13.972656831882841 11.053400208487776 5.9452161022429042
v 14.084355541500219 9.3807574564909846 5.1068828993414721
v 0 7.3953861874406606 5.8006589538232642
v 12 16.087465358196187 -4.1472265603991181
v 15.473082056477249 15.511004915373935 -5.2434888974217815
v 15.442293551913879 12.611389715876163 -6.6967841061414619
v 14.908525384038899 15.865884687965679 -2.3746449901157352
v 15.442293551913879 10.704430144656149 -5.467165524857232
v 14.53649102373676 14.935663071579127 -0.51866643765626774
v 14.824772497378881 10.050574639743733 -4.1625927519313546
v 15.63567397930256 9.5692246197138076 -3.2022029935512011
v 14.71999572811977 13.999278585002486 1.3496082759468484
v 15.61110872586227 14.319252114086121 0.71119695882345413
v 15.442293551913879 13.795188092975089 1.7568097097676962
v 14.75971852948614 7.798522000988676 0.33070360122739473
v 15.45570300083965 13.251837845558146 2.8409023473874284
v 14.67768757267083 10.51941317463875 5.6775803145888597
v 14.838320283885791 12.063215032192078 5.2124430745755284
v 15.284690768808099 12.703076233698061 3.9357917415747297
v 14.866686949656341 6.7077043990799581 2.5071033301996737
v 14.650499137611799 7.6125733148073742 4.2206640860009994
v 15.18920690950443 7.2803990140494239 1.3644627983431559
v 6.4740471983342509 11.207966360549634 6.9188355767770862
v 16.07691742076555 14.811985329905237 -5.5938394592959328
v 16.139506060494739 16.420652913863339 -3.4815187831067798
v 16.739267036128211 15.424835859234003 -5.2866770682003557
v 16.730752262296651 14.270039169310666 -5.8654643834281197
v 16.097037135018819 15.481638846088728 -1.6079975280135379
v 16.786255486645921 10.172809774215708 -4.4064763426161688
v 16.6452252975545 14.850797262393316 -0.3493421401863519
v 16.025512263541788 7.9087915485597513 0.11069375445956897
v 16.148169656617551 12.632400066668456 4.0768048591654935
v 16.813320896848118 13.21694805722124 2.910514467459083
v 15.73807337555429 10.445520725218881 5.6405452132688438
v 15.678137919190441 9.4354633056808446 5.1343016232226049
v 15.986003499133931 8.2633551215921059 4.5468377389346717
v 18 14.88420176474895 -4.3250017900240216
v 17.187322729055779 16.054894470446627 -2.7517573860331135
v 18 15.272739250688462 -3.0570519297930421
v 18 13.899397688300002 -5.2125921114688429
v 18 14.309339412147519 -3.511380020307393
v 18 12.853132428362471 -5.6365627291468536
v 18 13.29626152358661 -4.2923160307921036
v 11.00571612031683 13.342733494997688 0.38120187454425558
v 17.12839683801084 15.473349789873456 -1.591459199636013
v 18 14.801685426683155 -1.964127656659417
v 18 13.914924571512881 -2.4511073372305114
v 18 12.00729509927989 -4.1385781509506465
v 18 12.76443950422162 -3.0537148648559516
v 18 13.988894010257457 -1.0482183530766793
v 18 11.033715696823027 -2.5052905420331886
v 18 12.803375973520291 -0.059128390965923483
v 18 11.65411992149747 -0.77855208084533034
v 18 10.532087387331993 -1.0601223468995311
v 18 11.58805803516905 0.69694492127816554
v 4.5152983508924471 4.6464614405684506 6.6196961306831694
v 18 12.452366606126278 2.7196901868301127
v 18 9.9633831895264215 1.3333065682916492
v 17.08062091178607 7.7981805641369917 0.33138483617461922
v 17.16820567927499 12.701882943515145 3.9381725946395676
v 18 11.794300837743588 3.7200024383109933
v 18 10.45136199957696 3.0291848292513448
v 18 10.611635099599063 4.4702964375411263
v 18 8.3982307217775922 3.4057711078665536
v 0 13.223841440144755 0.32161284573017968
v 1.2692477377033491 8.8785013268745807 11.566585172190237
v 0 4.0834974235170662 7.7429221695625001
v 0 4.5460646255511001 9.395155838668579
v 1.2692477377033491 3.5145213452712323 8.8781434754152144
v 7.7115412896172257 14.255384720424622 0.83862520898354287
v 3.8461651584688994 8.8785013268745807 11.566585172190237
v 7.7115412896172257 8.8785013268745807 11.566585172190237
v 14.153834841531101 11.579846435596295 -7.2137964693948247
v 10.320384569457911 14.255384720424622 0.83862520898354287
v 12 9.8564813048111137 -3.7753376500669189
v 10.28845871038278 8.8914047388212758 -1.849816487791478
v 12 5.8152108296507503 4.287806867818035
v 10.28845871038278 8.8785013268745807 11.566585172190237
v 12 9.4472177504710881 10.431881929400888
v 18 16.331582259540873 -3.303804976886938
v 18 12.611389715876163 -6.6967841061414619
v 18 15.22046128641446 -1.086895953291898
v 18 13.488488225631448 2.3687374115159385
v 16.80700778151191 11.566943023649602 6.2026051905868904
v 18 12.333839518442772 4.6724929880544996
v 16.730752262296651 6.202963042046254 3.5141634938118687
v 18 7.234506322326121 4.0311758570652323
v 0 12.375345583944734 -0.10365563908379682
v 0 11.275047776930196 -0.65512796250656269
v 0 10.174749969915657 -1.2066002859293272
v 0 13.289760267400908 2.765239515694816
v 0 7.9257802857975603 0.076797818919795091
v 0 7.3484559322032244 1.2286756071890719
v 0 12.541175406671144 4.2588163383956896
v 0 10.403138499429224 8.5246284570412048
v 0 5.039158517825876 5.8361867602661839
v 0 9.8258141458348831 9.6765062453104864
v 0 4.4483262602932605 7.0150155240411829
v 0.002224105293187506 7.0393852866016307 10.644815093846347
v 0 5.6825024462067129 9.9647416375196478
v 2.5577064480861242 14.255384720424622 0.83862520898354287
v 2.57900863514518 8.8914047388212758 -1.849816487791478
v 2.5577064480861242 3.5145213452712323 8.8781434754152144
v 3.8461651584688994 14.255384720424622 0.83862520898354287
v 3.0204337338823919 8.8785013268745807 11.566585172190237
v 4.5845438395283242 8.8914047388212758 -1.849816487791478
v 12.73559962144969 9.6131811616975504 -3.2899051042364134
v 8.6847038981750266 14.255384720424622 0.83862520898354287
v 9.1430970772031266 8.8914047388212758 -1.849816487791478
v 8.1742685754134925 3.5145213452712323 8.8781434754152144
v 9.4627272857962694 8.8785013268745807 11.566585172190237
v 9.5280041468424663 3.5145213452712323 8.8781434754152144
v 12 14.811985329905237 -5.5938394592959328
v 12 13.711687522890699 -6.1453117827186974
v 12 16.297024842839932 -3.2348560048403705
v 12 10.933044861236585 -5.9232977016153905
v 12 10.32659242275469 -4.713303546371618
v 12 15.488118578376499 -1.620925892545098
v 12 9.4351019363551956 5.1341205039107614
v 12 8.3348041293406574 4.5826481804879968
v 12 11.037914946757953 7.2581222276708406
v 12 10.460590593163614 8.4100000159401223
v 12 11.678096986554316 -4.7264494765254357
v 12 4.5192862579659314 6.8734361074343751
v 12 6.4948582887656574 10.37189664690532
v 12 5.394560481751121 9.8204243234825555
v 13.243057087638631 11.566943023649602 6.2026051905868904
v 14.153834841531101 6.202963042046254 3.5141634938118687
v 14.64199697056134 16.943826417199642 -4.5253547726198047
v 14.469130943356079 11.566943023649602 6.2026051905868904
v 15.442293551913879 6.202963042046254 3.5141634938118687
v 15.885809865030719 11.579846435596295 -7.2137964693948247
v 15.757589653738849 11.566943023649602 6.2026051905868904
v 18 15.770349004487397 -5.1135049181049235
v 18 14.811985329905237 -5.5938394592959328
v 18 13.711687522890699 -6.1453117827186974
v 18 10.803794123771418 -5.6654165769466696
v 18 15.774626255243398 -2.1925661275307613
v 18 10.055209263041654 -4.1718397542457941
v 18 12.911163872037111 3.5206151997852162
v 18 7.7459118486643028 0.43567139883132144
v 18 10.283597792555216 5.5593889887247379
v 18 9.1832999855406783 5.0079166653019733
v 18 7.1685874950699668 1.5875491871005984
v 16.80288308238746 10.553148369994876 5.6944884883992231
v 13.17702724541177 16.156768105380742 -2.9550157044468124
v 7.0673119344258382 8.0835538635246635 11.168155290918264
v 4.9616280813850144 11.676114528656537 5.9847861587956555
v 3.5307884668928491 4.1991157557881102 9.221264099452771
v 18 8.2089031539333988 4.5195462611836028
v 7.0871342877067462 3.5145213452712323 8.8781434754152144
v 0 12.077340341434022 5.1842602517534324
v 0 8.4085925123094185 -0.8865093344358419
v 0 13.772572493912765 1.8019323623391794
v 18 6.6857752685581096 2.5508563404562352
v 13.07691742076555 11.579846435596295 -7.2137964693948247
v 12 7.6840744851683276 5.3055714907094451
v 13.07691742076555 6.202963042046254 3.5141634938118687
v 4.9230825792344497 14.255384720424622 0.83862520898354287
v 18 14.737923003419542 -0.12413537215417714
v 12 9.3739430218161939 -2.8125770689291985
v 4.9230825792344497 8.8785013268745807 11.566585172190237
v 17.365376131148331 9.6671831071292154 -3.3976498080217175
v 0.93661050286571879 10.637814721669839 8.0564023616912532
v 6.1820130044511128 10.134090387144838 -1.2269789819851384
v 16.94678522497259 9.5341142112564974 5.1837457316800952
v 12 7.1746862087096241 9.4357029922632041
v 12 7.6350106888847229 7.5879599328389808
v 16.942904932515361 11.579846435596295 -7.2137964693948247
v 0 9.335665040193307 10.654451942930063
v 5.1625929957744248 8.4884092794566968 -1.0457597811492212
v 12 4.4545409135111766 9.3492838994488849
v 14.40367760535624 8.5533302428517572 4.6921740768210061
v 7.6855166898210774 4.29479746198193 9.2692200369156748
v 8.8840019192221718 7.2982671373794066 1.3288123113097861
v 6.5260477980578564 4.4601930205479814 9.3521167512276939
v 0 9.4729365008488653 -0.89076058738081798
v 18 11.83172048921435 -5.6560664529236346
v 9.8770995756061559 9.7472516073649924 -1.4208636551301783
v 12 5.9147074082390763 5.4204836832667898
v 12.87590863086025 12.007910741815492 5.3227862175317764
v 12.865376131148331 6.5907152544417578 2.7405201198057023
v 18 7.8294971828917781 2.5248997317417707
v 10.590445344396819 4.7958743655874283 6.3215874010960675
v 0 11.564910131939211 3.3076563281257272
v 15.78974460045915 7.4611133431798304 4.1447519266505957
v 12 8.3836981329860212 6.8155491774343506
v 6.6280517406933868 6.5240406029555889 2.8735494119347473
v 2.025612376239053 9.5754422362318223 -1.5069749901529175
v 12 14.545274715011647 -1.0397375600026031
v 5.3966597783981269 7.6194713653376702 10.93555585110893
v 0.68376357299399082 9.4904397850177933 -1.5495784552955252
v 15.180570757144331 14.569785280210247 -5.7152307983378732
v 8.0548732482660945 4.209099038809593 7.4923217749568281
v 8.0537840107945708 6.2391852495732678 3.4418929304228785
v 16.088575041049641 10.423165411602881 -4.9059860135297129
v 3.0429838781275729 11.795742484176719 -0.39415432594329092
v 17.280436182379859 14.526041589320473 0.29861051259555005
v 3.6144105393894144 10.089624036050406 9.1501526436078642
v 15.641843840900149 10.069443944725478 -4.2002407970090143
v 0 8.0200341208206627 5.3445223050293258
v 9.8914777357501809 13.609739407187693 2.1268170040941836
v 9.1977330711904806 8.3240454522644995 -0.71782100538322746
v 0.82527929136857558 9.6547776943134913 10.017758243888604
v 14.524850085121519 9.4521745025594068 -2.9686645515557162
v 8.0537840107945691 4.5252498793367293 6.8615374876171051
v 15.10005083073653 16.239797750477788 -3.1206764865699377
v 15.724439967728721 15.054745216905893 -0.75625918309887608
v 9.3019866340140442 10.313204280862593 8.7040652469969721
v 6.0760899647386299 4.7444498400884694 6.4241896355692036
v 3.4435305279773054 7.2503190727369944 1.4244783096489149
v 6.2399175881616076 4.3692146335329536 7.1728590743638128
v 2.6944486279471356 10.848659716364171 7.6357243413650799
v 14.292747928215061 13.073526575467305 3.1966690669740503
v 14.46293988699108 12.563199385367527 4.214874087022201
v 2.0471713734278758 11.267418938414407 6.8002157689144447
v 2.8596930821001685 11.756515164848437 5.8243707763237733
v 10.997685917917821 12.98191758219491 3.3794473681131145
v 0.72180715126573425 12.926883691265935 3.4892510099800269
v 4.5454494118265973 6.7702724487119736 10.50993499045272
v 17.066692598269199 13.462166631101839 -6.2703723481947735
v 3.3478762688302819 10.512795809024805 8.3058401477344539
v 15.152018421689609 16.257724042531272 -4.8692311924873239
v 11.446215989205429 4.8785863670111711 6.1565603817608459
v 0 11.662779395338791 1.516162276689317
v 9.9671288322209008 5.9005651485355486 10.074035270878257
v 15.46494781244049 16.683838572899692 -4.0066269185034074
v 14.29762328724258 16.516749621382143 -3.6732509735601537
v 0.93661050286571879 11.661729094249017 6.0134879834553363
v 18 9.6881982803592379 0.49239441139526408
v 18 8.7867904168097937 4.2307622942154337
v 12 8.4726992002125918 8.1575567048950788
v 0 7.3917880037550692 6.5179002213755535
v 18 13.884772915152718 -0.1007679304149014
v 5.2408077810501199 8.3846078252561593 11.319044374485713
v 5.819109311206363 7.7005338241055838 0.52620965213607507
v 8.4593306700772786 5.3674732825582723 5.1811330063380545
v 16.60598931711117 9.6877459104406523 -3.4386767216648533
v 9.3095262051938192 9.2658114155502069 10.793823923612216
v 0.89485401369542039 12.508472580054498 4.3240650315415952
v 0 9.6699132841578148 0.87672479750831878
v 12.50303178209526 8.2919118897346991 -0.65370810817804736
v 5.1321767180689966 6.4041211213482132 3.1128128110695803
v 11.357518604262831 3.7570789721815521 8.3941923982194933
v 2.5174503609228243 11.467852988051268 6.4003096704584141
v 16.16749581319446 9.8803151589859421 -3.8228909657410464
v 16.29069263928498 13.552164172245257 2.2416911365843153
v 11.06861573859049 9.205083022885276 10.91498923769003
v 14.79874131042321 8.3617365799965064 -0.79302235897072126
v 13.83713428770675 16.733991189737843 -4.1066914402922077
v 1.0655616300853676 11.173151986372213 -0.70619841634894476
v 11.071818850025529 12.124420102108553 -0.22942018900109673
v 13.895719537087979 16.45282129624081 -4.7714479058982802
v 8.587134287706748 8.8785013268745807 11.566585172190237
f 1 194 477 
f 566 194 1 
f 1 477 566 
f 193 80 2 
f 2 80 565 
f 604 193 2 
f 589 502 2 
f 2 502 604 
f 2 565 589 
f 3 46 81 
f 409 46 3 
f 3 81 144 
f 3 144 281 
f 3 187 564 
f 641 187 3 
f 3 281 641 
f 564 409 3 
f 183 41 4 
f 4 41 196 
f 4 85 145 
f 182 85 4 
f 4 125 182 
f 196 125 4 
f 4 145 183 
f 5 64 224 
f 582 64 5 
f 478 86 5 
f 5 86 582 
f 5 224 478 
f 6 87 479 
f 480 87 6 
f 479 88 6 
f 6 88 481 
f 6 89 480 
f 481 89 6 
f 7 91 172 
f 482 91 7 
f 332 92 7 
f 7 92 482 
f 7 172 253 
f 7 253 571 
f 571 332 7 
f 96 54 8 
f 8 54 152 
f 518 93 8 
f 8 93 577 
f 152 94 8 
f 8 94 583 
f 577 96 8 
f 583 518 8 
f 289 29 9 
f 9 29 560 
f 141 69 9 
f 9 69 435 
f 560 141 9 
f 338 289 9 
f 435 338 9 
f 10 38 101 
f 200 38 10 
f 101 49 10 
f 10 49 655 
f 10 100 600 
f 655 100 10 
f 600 200 10 
f 11 56 274 
f 484 56 11 
f 11 274 383 
f 11 279 559 
f 603 279 11 
f 11 383 574 
f 559 484 11 
f 11 574 647 
f 647 603 11 
f 77 36 12 
f 12 36 107 
f 387 39 12 
f 12 39 563 
f 267 77 12 
f 12 107 387 
f 588 267 12 
f 12 563 588 
f 13 68 143 
f 527 68 13 
f 143 76 13 
f 13 76 305 
f 13 305 416 
f 13 416 527 
f 307 30 14 
f 14 30 568 
f 14 110 307 
f 528 110 14 
f 14 368 528 
f 568 368 14 
f 60 34 15 
f 15 34 106 
f 405 60 15 
f 15 106 117 
f 15 117 118 
f 15 118 456 
f 15 120 295 
f 486 120 15 
f 15 295 405 
f 15 456 486 
f 131 33 16 
f 16 33 654 
f 16 82 488 
f 654 82 16 
f 361 128 16 
f 16 128 573 
f 16 129 361 
f 488 129 16 
f 573 131 16 
f 17 119 306 
f 533 119 17 
f 186 134 17 
f 17 134 367 
f 17 137 186 
f 593 137 17 
f 17 306 539 
f 17 367 533 
f 17 539 593 
f 140 139 18 
f 18 139 278 
f 299 140 18 
f 18 278 594 
f 489 299 18 
f 410 310 18 
f 18 310 489 
f 570 410 18 
f 594 570 18 
f 116 42 19 
f 19 42 491 
f 19 59 116 
f 148 59 19 
f 490 148 19 
f 660 490 19 
f 19 491 660 
f 394 52 20 
f 20 52 584 
f 20 58 205 
f 584 58 20 
f 20 205 656 
f 656 394 20 
f 50 37 21 
f 21 37 339 
f 546 50 21 
f 339 154 21 
f 21 154 492 
f 492 155 21 
f 21 155 546 
f 549 40 22 
f 22 40 581 
f 22 156 493 
f 581 156 22 
f 22 493 590 
f 590 549 22 
f 572 71 23 
f 23 71 610 
f 23 104 127 
f 610 104 23 
f 23 127 495 
f 23 138 464 
f 495 138 23 
f 23 464 646 
f 646 572 23 
f 24 75 159 
f 195 75 24 
f 159 146 24 
f 24 146 463 
f 24 163 195 
f 466 163 24 
f 24 463 466 
f 25 164 496 
f 497 164 25 
f 25 475 497 
f 554 475 25 
f 25 496 557 
f 557 554 25 
f 498 165 26 
f 26 165 567 
f 499 498 26 
f 567 499 26 
f 27 45 48 
f 411 45 27 
f 27 48 654 
f 27 351 411 
f 654 351 27 
f 28 48 149 
f 654 48 28 
f 130 82 28 
f 28 82 654 
f 149 130 28 
f 366 97 29 
f 29 97 560 
f 270 257 29 
f 29 257 366 
f 282 270 29 
f 289 282 29 
f 30 307 526 
f 396 382 30 
f 30 382 485 
f 397 396 30 
f 526 397 30 
f 30 485 568 
f 219 192 31 
f 31 192 477 
f 477 194 31 
f 31 194 513 
f 362 219 31 
f 513 362 31 
f 32 35 194 
f 212 35 32 
f 32 194 566 
f 566 212 32 
f 131 108 33 
f 33 108 661 
f 33 351 654 
f 661 351 33 
f 34 60 126 
f 400 105 34 
f 34 105 530 
f 530 106 34 
f 34 126 421 
f 421 400 34 
f 513 194 35 
f 35 212 223 
f 35 223 348 
f 35 348 516 
f 516 513 35 
f 36 77 561 
f 162 107 36 
f 515 162 36 
f 561 515 36 
f 37 50 635 
f 437 339 37 
f 639 437 37 
f 635 541 37 
f 37 541 639 
f 350 101 38 
f 38 200 317 
f 38 288 350 
f 369 288 38 
f 38 317 369 
f 387 291 39 
f 39 291 606 
f 39 328 522 
f 606 328 39 
f 39 522 563 
f 40 185 420 
f 549 185 40 
f 40 420 544 
f 40 544 581 
f 178 83 41 
f 41 83 196 
f 373 178 41 
f 183 181 41 
f 41 181 373 
f 42 116 537 
f 380 378 42 
f 42 378 491 
f 579 380 42 
f 42 537 579 
f 43 81 275 
f 507 81 43 
f 191 135 43 
f 43 135 507 
f 43 189 191 
f 275 189 43 
f 181 46 44 
f 44 46 409 
f 44 47 181 
f 597 47 44 
f 44 409 506 
f 44 506 597 
f 365 48 45 
f 45 278 365 
f 594 278 45 
f 45 411 594 
f 275 81 46 
f 181 169 46 
f 46 169 275 
f 597 170 47 
f 47 170 637 
f 173 171 47 
f 47 171 181 
f 637 173 47 
f 365 149 48 
f 244 55 49 
f 49 55 655 
f 49 101 244 
f 438 417 50 
f 50 417 635 
f 546 438 50 
f 51 62 115 
f 238 62 51 
f 51 67 238 
f 601 67 51 
f 51 115 514 
f 51 514 601 
f 52 180 384 
f 536 180 52 
f 52 384 538 
f 52 394 536 
f 52 538 584 
f 467 228 53 
f 53 228 469 
f 470 467 53 
f 53 469 473 
f 474 470 53 
f 53 473 474 
f 54 96 304 
f 303 152 54 
f 521 303 54 
f 54 304 521 
f 230 160 55 
f 55 160 261 
f 244 230 55 
f 55 261 655 
f 56 177 274 
f 320 177 56 
f 323 320 56 
f 484 323 56 
f 355 128 57 
f 57 128 359 
f 57 352 355 
f 364 352 57 
f 359 357 57 
f 57 357 364 
f 524 205 58 
f 58 326 342 
f 538 326 58 
f 58 342 349 
f 58 349 524 
f 584 538 58 
f 537 116 59 
f 59 148 329 
f 59 329 344 
f 59 344 537 
f 405 126 60 
f 219 90 61 
f 61 90 663 
f 61 192 219 
f 500 192 61 
f 501 500 61 
f 663 501 61 
f 158 93 62 
f 62 93 518 
f 518 115 62 
f 238 158 62 
f 63 376 489 
f 636 376 63 
f 63 377 536 
f 592 377 63 
f 63 489 592 
f 63 536 636 
f 64 135 199 
f 509 135 64 
f 64 199 206 
f 64 206 511 
f 511 224 64 
f 582 509 64 
f 421 126 65 
f 65 126 425 
f 620 421 65 
f 65 425 442 
f 65 442 620 
f 66 276 280 
f 293 276 66 
f 66 280 294 
f 294 293 66 
f 211 90 67 
f 67 90 609 
f 601 211 67 
f 609 238 67 
f 662 143 68 
f 558 398 68 
f 68 398 640 
f 68 527 558 
f 68 640 662 
f 69 141 245 
f 69 245 262 
f 69 262 273 
f 69 273 287 
f 287 286 69 
f 69 286 435 
f 70 346 347 
f 530 346 70 
f 70 347 406 
f 406 356 70 
f 70 356 530 
f 457 442 71 
f 71 442 610 
f 494 457 71 
f 572 494 71 
f 342 326 72 
f 72 326 538 
f 638 342 72 
f 537 344 72 
f 72 344 638 
f 538 537 72 
f 470 133 73 
f 73 133 595 
f 73 301 470 
f 553 301 73 
f 556 553 73 
f 595 556 73 
f 174 80 74 
f 74 80 239 
f 213 174 74 
f 226 213 74 
f 623 226 74 
f 74 239 242 
f 74 242 623 
f 168 159 75 
f 661 168 75 
f 75 195 471 
f 471 443 75 
f 75 443 661 
f 76 143 665 
f 393 305 76 
f 395 393 76 
f 665 395 76 
f 267 252 77 
f 77 252 561 
f 78 170 503 
f 637 170 78 
f 78 477 500 
f 566 477 78 
f 78 500 637 
f 78 503 566 
f 79 167 589 
f 653 167 79 
f 178 176 79 
f 79 176 653 
f 504 178 79 
f 565 504 79 
f 589 565 79 
f 80 174 504 
f 80 193 514 
f 514 239 80 
f 80 504 565 
f 507 144 81 
f 82 130 488 
f 83 178 505 
f 505 196 83 
f 145 85 84 
f 84 85 214 
f 508 145 84 
f 214 204 84 
f 84 204 508 
f 85 182 230 
f 298 214 85 
f 85 230 298 
f 478 233 86 
f 86 233 616 
f 616 582 86 
f 207 202 87 
f 87 202 510 
f 480 207 87 
f 510 479 87 
f 88 204 215 
f 510 204 88 
f 88 215 235 
f 88 235 481 
f 88 479 510 
f 89 123 391 
f 515 123 89 
f 391 210 89 
f 89 210 480 
f 89 481 515 
f 90 211 663 
f 90 219 609 
f 91 153 296 
f 482 153 91 
f 404 172 91 
f 91 296 404 
f 271 175 92 
f 92 175 300 
f 332 271 92 
f 92 300 520 
f 520 482 92 
f 93 158 577 
f 94 152 648 
f 94 217 583 
f 648 217 94 
f 95 96 269 
f 304 96 95 
f 95 269 404 
f 95 296 302 
f 404 296 95 
f 95 302 304 
f 577 269 96 
f 243 141 97 
f 97 141 560 
f 629 243 97 
f 97 366 370 
f 97 370 629 
f 98 175 282 
f 312 175 98 
f 98 282 289 
f 98 289 314 
f 315 312 98 
f 98 314 315 
f 99 180 377 
f 384 180 99 
f 377 375 99 
f 99 375 580 
f 99 380 384 
f 580 380 99 
f 284 102 100 
f 100 102 600 
f 261 259 100 
f 100 259 272 
f 655 261 100 
f 100 272 284 
f 101 179 247 
f 350 179 101 
f 247 244 101 
f 285 103 102 
f 102 103 600 
f 102 284 285 
f 103 200 600 
f 607 200 103 
f 103 285 313 
f 103 313 607 
f 659 127 104 
f 104 425 426 
f 610 425 104 
f 104 426 659 
f 400 398 105 
f 105 398 558 
f 105 527 530 
f 558 527 105 
f 602 117 106 
f 106 530 602 
f 107 162 250 
f 107 250 266 
f 107 266 387 
f 108 131 617 
f 617 168 108 
f 108 168 661 
f 489 310 109 
f 109 310 569 
f 109 375 377 
f 569 375 109 
f 109 377 592 
f 592 489 109 
f 110 218 345 
f 535 218 110 
f 345 307 110 
f 110 528 535 
f 111 139 140 
f 335 139 111 
f 111 140 337 
f 111 313 335 
f 607 313 111 
f 337 317 111 
f 111 317 607 
f 269 158 112 
f 112 158 403 
f 253 172 112 
f 112 172 404 
f 403 253 112 
f 404 269 112 
f 399 368 113 
f 113 368 485 
f 420 399 113 
f 544 420 113 
f 113 485 544 
f 461 459 114 
f 114 459 462 
f 463 461 114 
f 114 462 464 
f 465 463 114 
f 114 464 465 
f 115 217 239 
f 518 217 115 
f 115 239 514 
f 357 118 117 
f 117 356 357 
f 602 356 117 
f 118 357 360 
f 118 360 664 
f 664 456 118 
f 353 306 119 
f 372 353 119 
f 534 372 119 
f 119 533 534 
f 385 295 120 
f 614 333 120 
f 120 333 630 
f 630 385 120 
f 120 486 614 
f 121 241 258 
f 348 241 121 
f 121 258 332 
f 121 332 571 
f 516 348 121 
f 571 516 121 
f 122 234 236 
f 517 234 122 
f 122 236 248 
f 122 248 264 
f 122 264 483 
f 122 483 517 
f 123 157 237 
f 252 157 123 
f 123 237 391 
f 561 252 123 
f 123 515 561 
f 124 419 440 
f 619 419 124 
f 450 437 124 
f 124 437 619 
f 124 440 457 
f 457 450 124 
f 225 182 125 
f 125 196 505 
f 125 213 225 
f 505 213 125 
f 126 405 424 
f 126 424 425 
f 127 445 495 
f 659 445 127 
f 128 355 487 
f 361 359 128 
f 128 487 573 
f 129 358 361 
f 591 358 129 
f 129 488 591 
f 130 149 311 
f 130 311 615 
f 521 488 130 
f 615 521 130 
f 519 401 131 
f 131 401 617 
f 573 519 131 
f 132 134 186 
f 315 134 132 
f 132 186 363 
f 389 315 132 
f 132 363 389 
f 474 254 133 
f 133 254 476 
f 133 470 474 
f 133 476 595 
f 315 314 134 
f 134 314 336 
f 134 336 367 
f 135 191 199 
f 509 507 135 
f 136 399 401 
f 529 399 136 
f 136 401 487 
f 136 487 529 
f 363 186 137 
f 386 363 137 
f 408 386 137 
f 593 408 137 
f 138 228 467 
f 495 228 138 
f 467 464 138 
f 365 278 139 
f 139 335 365 
f 140 299 337 
f 141 243 245 
f 414 220 142 
f 142 220 532 
f 142 410 433 
f 532 410 142 
f 585 414 142 
f 142 433 585 
f 662 541 143 
f 143 541 665 
f 576 281 144 
f 144 507 576 
f 190 183 145 
f 508 190 145 
f 146 159 575 
f 551 463 146 
f 575 551 146 
f 379 324 147 
f 147 324 651 
f 660 379 147 
f 523 490 147 
f 147 490 660 
f 651 523 147 
f 148 322 329 
f 523 322 148 
f 148 490 523 
f 334 311 149 
f 365 334 149 
f 231 198 150 
f 150 198 616 
f 246 231 150 
f 150 233 246 
f 616 233 150 
f 151 205 524 
f 656 205 151 
f 151 328 343 
f 524 328 151 
f 151 343 394 
f 151 394 656 
f 309 283 152 
f 152 283 648 
f 152 303 309 
f 331 296 153 
f 520 331 153 
f 153 482 520 
f 154 339 437 
f 154 437 450 
f 154 450 492 
f 451 449 155 
f 155 449 546 
f 492 451 155 
f 418 203 156 
f 156 203 633 
f 544 418 156 
f 548 493 156 
f 581 544 156 
f 633 548 156 
f 251 237 157 
f 252 251 157 
f 158 238 403 
f 158 269 577 
f 159 168 423 
f 159 423 650 
f 650 575 159 
f 160 225 226 
f 230 225 160 
f 160 226 623 
f 623 261 160 
f 161 215 232 
f 235 215 161 
f 161 232 250 
f 388 235 161 
f 161 250 388 
f 162 235 388 
f 515 235 162 
f 388 250 162 
f 553 195 163 
f 466 255 163 
f 163 255 642 
f 163 301 553 
f 642 301 163 
f 444 430 164 
f 164 430 545 
f 472 444 164 
f 497 472 164 
f 545 496 164 
f 434 184 165 
f 165 184 556 
f 165 432 434 
f 543 432 165 
f 165 498 543 
f 165 556 567 
f 166 167 173 
f 501 167 166 
f 166 173 637 
f 166 500 501 
f 637 500 166 
f 653 173 167 
f 167 501 502 
f 167 502 589 
f 617 423 168 
f 169 181 183 
f 169 183 613 
f 169 189 275 
f 613 189 169 
f 506 503 170 
f 597 506 170 
f 171 173 176 
f 171 176 373 
f 373 181 171 
f 653 176 173 
f 174 213 505 
f 505 504 174 
f 175 271 282 
f 308 300 175 
f 312 308 175 
f 176 178 373 
f 287 274 177 
f 320 287 177 
f 178 504 505 
f 468 247 179 
f 179 266 468 
f 622 266 179 
f 179 350 622 
f 536 377 180 
f 182 225 230 
f 183 190 415 
f 183 415 613 
f 184 434 443 
f 184 443 471 
f 184 471 556 
f 608 420 185 
f 549 441 185 
f 185 441 608 
f 227 221 187 
f 187 221 652 
f 641 227 187 
f 187 506 564 
f 652 506 187 
f 188 341 379 
f 534 341 188 
f 188 379 491 
f 188 491 534 
f 645 191 189 
f 613 415 189 
f 189 415 645 
f 190 197 415 
f 508 197 190 
f 390 199 191 
f 645 390 191 
f 500 477 192 
f 193 211 601 
f 604 211 193 
f 601 514 193 
f 553 471 195 
f 202 201 197 
f 197 201 390 
f 508 202 197 
f 197 390 645 
f 645 415 197 
f 198 231 576 
f 198 507 509 
f 576 507 198 
f 198 509 616 
f 199 201 206 
f 390 201 199 
f 607 317 200 
f 201 202 207 
f 207 206 201 
f 202 508 510 
f 418 382 203 
f 203 382 605 
f 203 436 439 
f 605 436 203 
f 203 439 633 
f 204 214 215 
f 510 508 204 
f 206 207 512 
f 512 511 206 
f 207 480 512 
f 246 233 208 
f 208 233 517 
f 263 246 208 
f 383 263 208 
f 483 383 208 
f 517 483 208 
f 209 216 236 
f 511 216 209 
f 478 224 209 
f 209 224 511 
f 236 234 209 
f 209 234 478 
f 391 216 210 
f 210 216 512 
f 512 480 210 
f 502 501 211 
f 211 501 663 
f 604 502 211 
f 212 221 223 
f 631 221 212 
f 566 503 212 
f 212 503 631 
f 226 225 213 
f 232 215 214 
f 298 232 214 
f 237 236 216 
f 391 237 216 
f 216 511 512 
f 242 239 217 
f 648 242 217 
f 217 518 583 
f 347 345 218 
f 352 347 218 
f 355 352 218 
f 535 355 218 
f 219 362 609 
f 414 392 220 
f 220 392 531 
f 220 531 532 
f 240 223 221 
f 221 227 370 
f 370 240 221 
f 221 631 652 
f 531 353 222 
f 222 353 599 
f 222 375 569 
f 599 375 222 
f 532 531 222 
f 569 532 222 
f 223 240 241 
f 223 241 348 
f 227 281 628 
f 641 281 227 
f 629 370 227 
f 227 628 657 
f 657 629 227 
f 495 469 228 
f 576 231 229 
f 229 231 625 
f 625 243 229 
f 229 243 628 
f 229 281 576 
f 628 281 229 
f 230 244 298 
f 231 246 611 
f 231 611 634 
f 634 625 231 
f 232 244 247 
f 298 244 232 
f 232 247 250 
f 233 478 517 
f 517 478 234 
f 515 481 235 
f 236 237 248 
f 251 248 237 
f 238 362 403 
f 609 362 238 
f 256 241 240 
f 257 256 240 
f 366 257 240 
f 370 366 240 
f 241 256 258 
f 242 259 623 
f 648 259 242 
f 625 245 243 
f 657 628 243 
f 243 629 657 
f 634 262 245 
f 245 625 634 
f 246 263 611 
f 468 250 247 
f 248 251 632 
f 632 264 248 
f 249 260 460 
f 549 260 249 
f 249 460 463 
f 249 463 551 
f 551 549 249 
f 468 266 250 
f 251 252 265 
f 251 265 277 
f 251 277 632 
f 267 265 252 
f 403 362 253 
f 253 362 516 
f 253 516 571 
f 254 474 475 
f 254 475 555 
f 643 476 254 
f 254 555 643 
f 466 465 255 
f 255 465 467 
f 255 467 470 
f 255 470 642 
f 256 257 270 
f 270 258 256 
f 258 270 271 
f 258 271 332 
f 259 261 623 
f 648 272 259 
f 590 460 260 
f 260 549 590 
f 262 263 273 
f 611 263 262 
f 634 611 262 
f 274 273 263 
f 383 274 263 
f 574 483 264 
f 647 574 264 
f 632 603 264 
f 264 603 647 
f 265 267 277 
f 624 387 266 
f 266 622 624 
f 280 277 267 
f 588 280 267 
f 268 340 448 
f 562 340 268 
f 268 374 499 
f 598 374 268 
f 268 448 598 
f 268 499 562 
f 282 271 270 
f 272 283 284 
f 648 283 272 
f 273 274 287 
f 276 277 280 
f 632 277 276 
f 293 279 276 
f 276 279 603 
f 276 603 632 
f 279 293 559 
f 280 292 294 
f 588 292 280 
f 309 284 283 
f 309 285 284 
f 285 309 587 
f 587 313 285 
f 286 287 318 
f 318 316 286 
f 286 316 338 
f 286 338 435 
f 320 318 287 
f 618 291 288 
f 288 291 622 
f 369 319 288 
f 288 319 618 
f 622 350 288 
f 338 314 289 
f 447 414 290 
f 290 414 585 
f 290 433 448 
f 585 433 290 
f 448 447 290 
f 291 387 624 
f 618 606 291 
f 624 622 291 
f 327 294 292 
f 586 327 292 
f 588 586 292 
f 293 294 325 
f 329 322 293 
f 293 322 559 
f 293 325 329 
f 330 325 294 
f 294 327 330 
f 295 385 407 
f 407 405 295 
f 402 302 296 
f 296 331 402 
f 297 405 407 
f 424 405 297 
f 297 407 626 
f 426 424 297 
f 428 426 297 
f 626 428 297 
f 376 337 299 
f 489 376 299 
f 300 308 614 
f 300 486 520 
f 614 486 300 
f 642 470 301 
f 358 304 302 
f 402 358 302 
f 311 309 303 
f 615 311 303 
f 303 521 615 
f 304 358 591 
f 591 521 304 
f 305 346 416 
f 525 346 305 
f 305 393 525 
f 306 353 531 
f 531 392 306 
f 306 392 539 
f 307 345 526 
f 308 312 333 
f 308 333 614 
f 309 311 334 
f 309 334 587 
f 310 410 532 
f 310 532 569 
f 312 315 389 
f 389 333 312 
f 587 335 313 
f 314 316 336 
f 338 316 314 
f 316 318 621 
f 621 336 316 
f 317 337 649 
f 649 369 317 
f 318 320 324 
f 318 324 621 
f 371 321 319 
f 319 321 618 
f 319 337 371 
f 649 337 319 
f 319 369 649 
f 320 323 324 
f 343 328 321 
f 321 328 606 
f 371 343 321 
f 321 606 618 
f 322 484 559 
f 666 484 322 
f 322 523 666 
f 651 324 323 
f 323 484 666 
f 323 523 651 
f 666 523 323 
f 379 341 324 
f 324 341 621 
f 330 329 325 
f 342 330 327 
f 349 342 327 
f 586 349 327 
f 524 522 328 
f 329 330 344 
f 330 342 638 
f 638 344 330 
f 664 402 331 
f 486 456 331 
f 331 456 664 
f 520 486 331 
f 389 363 333 
f 333 363 630 
f 365 335 334 
f 334 335 587 
f 336 341 367 
f 621 341 336 
f 376 371 337 
f 340 447 448 
f 578 447 340 
f 562 555 340 
f 340 555 578 
f 534 367 341 
f 343 371 596 
f 536 394 343 
f 596 536 343 
f 345 347 525 
f 345 525 526 
f 525 347 346 
f 527 416 346 
f 530 527 346 
f 347 352 406 
f 349 522 524 
f 586 522 349 
f 427 411 351 
f 661 427 351 
f 352 364 406 
f 353 372 599 
f 354 368 399 
f 528 368 354 
f 354 399 529 
f 529 528 354 
f 529 487 355 
f 535 529 355 
f 364 357 356 
f 406 364 356 
f 602 530 356 
f 357 359 360 
f 358 360 361 
f 664 360 358 
f 358 402 664 
f 361 360 359 
f 362 513 516 
f 363 386 630 
f 534 533 367 
f 568 485 368 
f 371 376 596 
f 534 378 372 
f 372 378 644 
f 372 580 599 
f 644 580 372 
f 374 498 499 
f 543 498 374 
f 598 543 374 
f 599 580 375 
f 636 596 376 
f 378 380 644 
f 534 491 378 
f 660 491 379 
f 579 384 380 
f 380 580 644 
f 419 400 381 
f 381 400 421 
f 440 419 381 
f 381 421 620 
f 620 440 381 
f 382 396 605 
f 382 418 485 
f 383 483 574 
f 384 537 538 
f 579 537 384 
f 385 386 407 
f 630 386 385 
f 408 407 386 
f 429 413 392 
f 392 413 539 
f 392 414 429 
f 393 395 396 
f 393 396 397 
f 393 397 525 
f 605 396 395 
f 395 417 605 
f 635 417 395 
f 395 541 635 
f 665 541 395 
f 526 525 397 
f 398 400 419 
f 398 419 619 
f 398 619 640 
f 422 401 399 
f 399 420 422 
f 401 422 617 
f 519 487 401 
f 407 408 626 
f 593 412 408 
f 408 412 627 
f 627 626 408 
f 564 506 409 
f 540 433 410 
f 570 540 410 
f 411 427 434 
f 434 432 411 
f 411 432 594 
f 542 430 412 
f 412 430 627 
f 412 539 542 
f 593 539 412 
f 413 429 542 
f 542 539 413 
f 447 429 414 
f 438 436 417 
f 417 436 605 
f 544 485 418 
f 612 422 420 
f 420 608 612 
f 612 423 422 
f 422 423 617 
f 423 612 658 
f 658 650 423 
f 426 425 424 
f 610 442 425 
f 426 428 659 
f 443 434 427 
f 661 443 427 
f 428 431 444 
f 626 431 428 
f 428 444 445 
f 428 445 659 
f 447 446 429 
f 429 446 545 
f 545 542 429 
f 444 431 430 
f 430 431 627 
f 430 542 545 
f 431 626 627 
f 543 540 432 
f 432 540 594 
f 598 448 433 
f 433 540 543 
f 433 543 598 
f 436 438 439 
f 639 619 437 
f 547 439 438 
f 438 546 547 
f 439 547 548 
f 439 548 633 
f 440 442 457 
f 620 442 440 
f 441 549 551 
f 441 551 575 
f 441 575 650 
f 612 608 441 
f 658 612 441 
f 441 650 658 
f 472 445 444 
f 445 472 552 
f 552 495 445 
f 446 447 557 
f 557 545 446 
f 578 557 447 
f 449 451 453 
f 455 452 449 
f 449 452 547 
f 449 453 455 
f 547 546 449 
f 450 457 550 
f 550 492 450 
f 459 453 451 
f 451 458 459 
f 550 458 451 
f 451 492 550 
f 455 454 452 
f 452 454 548 
f 548 547 452 
f 461 455 453 
f 453 459 461 
f 454 455 460 
f 454 460 590 
f 454 493 548 
f 590 493 454 
f 461 460 455 
f 457 494 550 
f 462 459 458 
f 494 462 458 
f 550 494 458 
f 460 461 463 
f 646 464 462 
f 462 494 572 
f 462 572 646 
f 463 465 466 
f 467 465 464 
f 552 473 469 
f 469 495 552 
f 471 553 556 
f 472 497 552 
f 475 474 473 
f 497 475 473 
f 552 497 473 
f 475 554 555 
f 562 499 476 
f 476 499 595 
f 643 562 476 
f 487 519 573 
f 488 521 591 
f 496 545 557 
f 499 567 595 
f 503 506 631 
f 652 631 506 
f 509 582 616 
f 586 563 522 
f 528 529 535 
f 536 596 636 
f 540 570 594 
f 541 619 639 
f 640 619 541 
f 662 640 541 
f 578 555 554 
f 554 557 578 
f 555 562 643 
f 595 567 556 
f 563 586 588 
