v -15.75 1.0530680448114564 -0.65512350980442102
v -15.75 -1.2936731971400079 -1.831316752143493
v -15.75 -4.3109119367918911 -3.3435652065794419
v -15.75 -0.291152803576054 2.0268664809972519
v -15.75 -2.6378940455275184 0.85067323865818034
v -15.75 -5.6551327851794015 -0.66157521577776857
v -11.0625 1.0530680448114564 -0.65512350980442102
v -11.044632472082171 -1.5721863761762314 -1.9709083326845032
v -11.0625 -4.3109119367918911 -3.3435652065794419
v -12.03999512301759 0.39103734555251624 0.66576041425152654
v -9.8355643238799324 -5.4213910438613695 -1.1279368344057779
v -13.5 -0.291152803576054 2.0268664809972519
v -13.361772087715892 -2.70140361835346 0.81884206398653392
v -13.5 -5.6551327851794015 -0.66157521577776857
v -11.25 -0.291152803576054 2.0268664809972519
v -11.25 -2.6378940455275184 0.85067323865818034
v -11.25 -5.6551327851794015 -0.66157521577776857
v -11.25 -6.2669639349608177 0.55915054646795559
v -11.25 -1.6353736519635649 4.7088564717989261
v -11.25 -3.9821148939150293 3.5326632294598541
v -11.25 -6.999353633566912 2.0204147750239043
v -8.25 -0.62720801567293183 2.6973639786976706
v -6.75 1.0530680448114564 -0.65512350980442102
v -6.75 -1.2936731971400079 -1.831316752143493
v -6.75 -4.3109119367918911 -3.3435652065794419
v -6.75 0.38095762061770078 0.68587148559641564
v -6.75 -0.291152803576054 2.0268664809972519
v -6.75 -2.6378940455275184 0.85067323865818034
v -6.75 -5.6551327851794015 -0.66157521577776857
v -6.75 -1.6353736519635649 4.7088564717989261
v -6.75 -3.9821148939150293 3.5326632294598541
v -6.75 -6.999353633566912 2.0204147750239043
v -6.75 -2.8115668943026364 7.05559771375039
v -6.75 -5.1583081362541003 5.8794044714113181
v -6.75 -8.1755468759059831 4.3671560169753691
v -6.75 -4.3238153487385862 10.072836453402273
v -6.75 -6.6705565906900501 8.8966432110632017
v -6.75 -9.6877953303419329 7.3843947566272519
v -6.75 -5.6680361971260957 12.754826444203944
v -6.75 -8.0147774390775606 11.578633201864873
v -6.75 -11.032016178729442 10.066384747428925
v -6.75 -7.0122570455136062 15.436816435005618
v -6.75 -9.3589982874650701 14.260623192666547
v -6.75 -12.376237027116954 12.748374738230597
v -5.25 -5.6680361971260957 12.754826444203944
v -5.3630716320792047 -8.0620561618541533 11.554936974414586
v -4.4583326659889746 -6.4122060862122119 14.239594513661524
v -4.5 -7.0122570455136062 15.436816435005618
v -4.5732978360009273 -9.3705591117992917 14.254828875332066
v -3.7499999999999996 1.0530680448114564 -0.65512350980442102
v -3.7499999999999996 -1.5337320553149305 -1.9516349200358252
v -3.7499999999999996 -4.3109119367918911 -3.3435652065794419
v -3.7499999999999996 -1.8518834802542039 -0.39980541831896899
v -3.7499999999999996 -0.291152803576054 2.0268664809972519
v -3.7499999999999996 -2.6378940455275184 0.85067323865818034
v -3.7499999999999996 -5.6551327851794015 -0.66157521577776857
v -3.7499999999999996 -1.6353736519635649 4.7088564717989261
v -3.7499999999999996 -3.9821148939150293 3.5326632294598541
v -3.7499999999999996 -6.999353633566912 2.0204147750239043
v -3.7499999999999996 -2.9795945003510749 7.3908464626005994
v -3.7499999999999996 -5.3263357423025397 6.2146532202615274
v -3.7499999999999996 -8.3435744819544233 4.7024047658255785
v -3.7499999999999996 -4.3238153487385862 10.072836453402273
v -3.7499999999999996 -6.5462891686027351 8.95892638889684
v -3.7499999999999996 -9.6877953303419329 7.3843947566272519
v -3.7499999999999996 -10.359905754535689 8.7253897520280894
v -3.7499999999999996 -5.6680361971260957 12.754826444203944
v -3.7499999999999996 -8.0147774390775606 11.578633201864873
v -3.7499999999999996 -11.032016178729442 10.066384747428925
v -2.2499999999999996 1.0530680448114564 -0.65512350980442102
v -2.2499999999999996 -1.2936731971400079 -1.831316752143493
v -2.2499999999999996 -4.3109119367918911 -3.3435652065794419
v -1.4999999999999996 -0.12312519752761553 1.6916177321470429
v -1.4999999999999996 -5.4871051791309622 -0.99682396462797795
v -1.4999999999999996 -1.6353736519635649 4.7088564717989261
v -1.3164249940516242 -3.8161687517546383 3.6158358978018406
v -1.6309371099915935 -6.999353633566912 2.0204147750239043
v -0.7198132824124186 -9.6776230030002797 7.3640989249220672
v -2.2499999999999996 -5.6680361971260957 12.754826444203944
v -2.2499999999999996 -8.0147774390775606 11.578633201864873
v -2.2499999999999996 -11.032016178729442 10.066384747428925
v -2.2499999999999996 -6.3401466213198514 14.095821439604782
v -2.2499999999999996 -8.6868878632713162 12.919628197265711
v -2.2499999999999996 -7.0122570455136062 15.436816435005618
v -2.2499999999999996 -9.5252756518919899 14.177284514802659
v -2.2499999999999996 -12.376237027116954 12.748374738230597
v -0.75 2.3972888931989678 -3.3371135006060961
v -0.75 0.050547651247502934 -4.5133067429451685
v -0.75 -2.9666910884043793 -6.0255551973811183
v -0.75 -0.71849798466383419 -3.1069187846352686
v -0.75 -3.638801512598135 -4.6845602019802808
v -0.75 1.0530680448114564 -0.65512350980442102
v -0.75 -1.2936731971400079 -1.831316752143493
v -0.75 -4.3109119367918911 -3.3435652065794419
v -0.75 -5.6680361971260957 12.754826444203944
v -0.75 -8.0147774390775606 11.578633201864873
v -0.75 -11.032016178729442 10.066384747428925
v 3 2.3972888931989678 -3.3371135006060961
v 3 0.050547651247502934 -4.5133067429451685
v 3 -2.9666910884043793 -6.0255551973811183
v 3.0192804311990802 -3.6761053796984124 -4.6101315109648446
v 0.75 1.0530680448114564 -0.65512350980442102
v 0.75 -1.2936731971400079 -1.831316752143493
v 0.75 -4.3109119367918911 -3.3435652065794419
v 19.55074092892783 -1.509563851469355 -1.9395217489991246
v 12.75 -9.6942470363152786 14.092595586618108
v 12.75 -9.2208270036942643 12.798791872062635
v 0.75 -0.291152803576054 2.0268664809972519
v 0.75 -2.6378940455275184 0.85067323865818034
v 0.75 -5.6551327851794015 -0.66157521577776857
v 2.6010218769971689 -1.2061511474877866 3.8524715539397993
v 2.686903483124254 -6.593828614090941 1.2113110890046932
v 0.75 -1.6353736519635649 4.7088564717989261
v 0.75 -3.9821148939150293 3.5326632294598541
v 0.75 -6.999353633566912 2.0204147750239043
v 0.75 -2.9795945003510749 7.3908464626005994
v 0.75 -5.3263357423025397 6.2146532202615274
v 0.75 -8.3435744819544233 4.7024047658255785
v 0.75 -4.3238153487385862 10.072836453402273
v 0.75 -6.6705565906900501 8.8966432110632017
v 0.75 -9.6877953303419329 7.3843947566272519
v 0.75 -10.359905754535689 8.7253897520280894
v 0.75 -5.6680361971260957 12.754826444203944
v 0.75 -8.0147774390775606 11.578633201864873
v 0.75 -11.032016178729442 10.066384747428925
v 3 1.0530680448114564 -0.65512350980442102
v 2.738176481367649 -1.3006124951262215 -1.8347947476088877
v 3.0270036937201001 -4.3109119367918911 -3.3435652065794419
v 3.0087187872599461 -0.291152803576054 2.0268664809972519
v 3 -5.6551327851794015 -0.66157521577776857
v 2.9453959883571899 -3.1801821104592052 7.7910589449722067
v 3 -4.3238153487385862 10.072836453402273
v 3.2838260638936041 -6.2323767377514923 9.1162601729771122
v 3 -9.6877953303419329 7.3843947566272519
v 5.25 1.0530680448114564 -0.65512350980442102
v 5.25 -1.2936731971400079 -1.831316752143493
v 5.25 -4.3109119367918911 -3.3435652065794419
v 5.25 -0.291152803576054 2.0268664809972519
v 5.25 -2.6378940455275184 0.85067323865818034
v 5.25 -5.6551327851794015 -0.66157521577776857
v 5.25 -1.6353736519635649 4.7088564717989261
v 5.25 -3.9821148939150293 3.5326632294598541
v 5.25 -6.999353633566912 2.0204147750239043
v 5.25 -2.9795945003510749 7.3908464626005994
v 5.25 -5.3263357423025397 6.2146532202615274
v 5.25 -8.3435744819544233 4.7024047658255785
v 7.1089249270061412 -9.554075824579904 7.1175975436105663
v 5.25 -4.3238153487385862 10.072836453402273
v 5.25 -6.6705565906900501 8.8966432110632017
v 5.25 -9.6877953303419329 7.3843947566272519
v 5.25 -5.6680361971260957 12.754826444203944
v 5.25 -8.0147774390775606 11.578633201864873
v 5.25 -11.032016178729442 10.066384747428925
v 6.75 2.3972888931989678 -3.3371135006060961
v 6.75 0.050547651247502934 -4.5133067429451685
v 6.75 -2.9666910884043793 -6.0255551973811183
v 6.75 1.0530680448114564 -0.65512350980442102
v 6.75 -1.2936731971400079 -1.831316752143493
v 6.75 -4.3109119367918911 -3.3435652065794419
v 8.0625 -0.58520111416082177 2.6135517914851185
v 7.5 -1.6353736519635649 4.7088564717989261
v 7.5978783160598926 -3.8801075337794177 3.5837896022850839
v 7.5 -8.3435744819544233 4.7024047658255785
v -13.296431544899971 -2.4403728558921332 -2.4060458128111297
v 7.5798104347941617 -5.4827084689957415 2.780561552907026
v -1.4999999999999996 -6.8349551121284815 5.4585289930435525
v 15.13078549544931 -5.4272813588895206 2.8083417747669821
v 8.25 -5.6680361971260957 12.754826444203944
v 8.25 -8.0147774390775606 11.578633201864873
v 8.25 -11.032016178729442 10.066384747428925
v -9 -5.4907342637409702 2.7765390022418792
v 8.25 -8.5834648310841164 12.814400766631087
v 10.629176830329071 -10.814550483197159 13.53109638081053
v 8.25 -7.0122570455136062 15.436816435005618
v 8.25 -9.3589982874650701 14.260623192666547
v 8.25 -12.376237027116954 12.748374738230597
v 9.75 1.0530680448114564 -0.65512350980442102
v 9.75 -1.2936731971400079 -1.831316752143493
v 9.75 -4.3109119367918911 -3.3435652065794419
v 9.75 0.38095762061770078 0.68587148559641564
v 14.15094642636703 -0.55217568908084225 2.5476594497521905
v 9.75 -0.291152803576054 2.0268664809972519
v 9.75 -2.6378940455275184 0.85067323865818034
v 9.75 -5.6551327851794015 -0.66157521577776857
v 9.75 -1.6353736519635649 4.7088564717989261
v 9.75 -4.1445704660527003 3.4512400445288378
v 9.75 -6.999353633566912 2.0204147750239043
v 15.296747804074959 -5.2349603357187586 -1.4999034601401902
v 9.75 -2.9795945003510749 7.3908464626005994
v 9.75 -5.3263357423025397 6.2146532202615274
v 9.75 -8.3435744819544233 4.7024047658255785
v 9.75 -4.3238153487385862 10.072836453402273
v 9.75 -6.6705565906900501 8.8966432110632017
v 9.75 -9.6877953303419329 7.3843947566272519
v 9.75 -5.6680361971260957 12.754826444203944
v 9.75 -8.0147774390775606 11.578633201864873
v 9.75 -11.032016178729442 10.066384747428925
v 10.5 -6.3401466213198514 14.095821439604782
v 10.35057514977755 -11.648026952643422 11.295449697466813
v 10.5 -7.0122570455136062 15.436816435005618
v 10.5 -12.376237027116954 12.748374738230597
v 11.25 -0.291152803576054 2.0268664809972519
v -8.7107793982430799 -2.9264119052597533 -2.6496499371856248
v 12.75 1.0530680448114564 -0.65512350980442102
v 12.75 -1.2936731971400079 -1.831316752143493
v 12.75 -4.3109119367918911 -3.3435652065794419
v -1.50159586648553 -9.0304420915736117 6.0728433036702771
v 7.5281993261319524 -6.2716489791128298 0.56849814849126368
v -1.4999999999999996 -3.6517049245448305 8.7318414580014352
v 12.75 -0.291152803576054 2.0268664809972519
v 12.75 -2.6378940455275184 0.85067323865818034
v 12.75 -5.6551327851794015 -0.66157521577776857
v 12.75 -1.6353736519635649 4.7088564717989261
v 12.75 -3.9821148939150293 3.5326632294598541
v 12.75 -6.999353633566912 2.0204147750239043
v 12.75 -2.8115668943026364 7.05559771375039
v 12.75 -5.1583081362541003 5.8794044714113181
v 12.75 -8.1755468759059831 4.3671560169753691
v 12.75 -4.3238153487385862 10.072836453402273
v 12.75 -6.6705565906900501 8.8966432110632017
v 12.75 -9.6877953303419329 7.3843947566272519
v 12.75 -5.6680361971260957 12.754826444203944
v 12.75 -8.0147774390775606 11.578633201864873
v 12.75 -11.032016178729442 10.066384747428925
v 12.75 -6.3401466213198514 14.095821439604782
v 12.75 -11.736923421368374 11.472815968510693
v 12.75 -7.0122570455136062 15.436816435005618
v 3.4444032438725372 -8.9508064477064977 5.9139542342001405
v 12.75 -12.376237027116954 12.748374738230597
v 17.4375 1.0530680448114564 -0.65512350980442102
v 17.618751437597531 -1.2737647272701036 -1.8213385716318569
v 17.4375 -4.3109119367918911 -3.3435652065794419
v 2.5338354690303291 -7.4782520346168306 2.9759130622045711
v 15.088162295291561 -6.1495995804273456 0.32498513792421768
v 7.6361582088890732 -3.7419681326787315 8.911934648077434
v -13.476224889777331 -0.56676960911540775 -1.4669906505765424
v 17.25 -0.291152803576054 2.0268664809972519
v 17.25 -2.6378940455275184 0.85067323865818034
v 17.25 -5.6551327851794015 -0.66157521577776857
v 17.25 -0.96326322776980922 3.367861476398089
v 17.25 -1.6353736519635649 4.7088564717989261
v 17.25 -3.9821148939150293 3.5326632294598541
v 17.25 -6.999353633566912 2.0204147750239043
v 19.5 -0.291152803576054 2.0268664809972519
v 19.5 -2.6378940455275184 0.85067323865818034
v 19.5 -5.6551327851794015 -0.66157521577776857
v 21.75 1.0530680448114564 -0.65512350980442102
v 21.75 -1.2936731971400079 -1.831316752143493
v 21.75 -4.3109119367918911 -3.3435652065794419
v 21.75 -0.291152803576054 2.0268664809972519
v 21.75 -2.6378940455275184 0.85067323865818034
v 21.75 -5.6476457087910505 -0.67651343367404015
v 7.479011037275102 -4.1615618556960818 6.7984411342372031
v -1.4999999999999996 -4.1529651213268073 6.8027498414310639
v -9.0656388274607487 -3.1119400898373355 3.9687972632908739
v -8.90625 -0.12030257616427598 -1.2432201309739574
v 4.875 -1.458071718578438 -5.2694309701631425
v 1.125 -1.458071718578438 -5.2694309701631425
v 14.405330418298609 -2.5986885286066133 -2.4853940686283287
v -8.4375 -6.2432294063489371 0.51179540519796296
v 12.75 -7.423051733298017 6.631899614019285
v -6.75 -7.423051733298017 6.631899614019285
v 7.7865193240645176 -4.7143244105176274 10.85198029443487
v 3.9375 -2.0974495685967716 5.6307905311370012
v 2.8125 -2.26547717464521 5.9660392799872106
v -13.318851670184699 -4.3109119367918911 -3.3435652065794419
v 15.09375 -4.3109119367918911 -3.3435652065794419
v 15.09375 1.0530680448114564 -0.65512350980442102
v -13.40625 1.0530680448114564 -0.65512350980442102
v 10.85247287468561 -8.845465418300309 14.518007296049122
v 5.25 -6.1788085737814384 4.1674176369932221
v 5.25 -3.6218345955993252 -1.1111686036763113
v -3.7499999999999996 -5.9407143684259562 4.5474828637863638
v 0.75 -8.8512863847097467 9.4815139792460634
v 21.75 -3.6223745290214935 -1.1452351430443124
v -6.75 -3.1206608663542799 -1.3293874106001531
v -3.7499999999999996 -3.7685085201467805 -1.4401638845129017
v 17.25 -4.8186238395472154 1.4355440068410426
v 0.75 -3.4744029911597045 -1.2464459839606312
v 12.75 -3.2697771312042487 -1.3988811397265279
v 11.2039402246702 -9.3949140234296991 10.886904904342805
v -6.75 -10.195507233097256 12.163503970047737
v 9.75 -9.1680208082109846 9.41685806984629
v 11.366324503449571 -8.9899335643747627 5.9920206735051806
v 11.25 -8.1791759605159911 8.1405189838452259
v 11.12408684848042 -3.7316414109855094 8.8913307686983565
v 9.75 -6.1628446879347258 4.1175339976427159
v -9.6156552897929899 0.27665162031956658 0.89398286038704677
v -5.1308223100549935 -8.2918480635519671 8.0840474121943
v 11.25 -4.1465134153534597 0.094549011440205888
v 9.75 -3.4744029911597045 -1.2464459839606312
v -5.2646443867855819 -8.8600287765933015 5.7328345873757858
v 8.25 -2.8022925669659493 -2.5874409793614679
v 6.75 -2.1137671268001772 -3.8572491795116624
v 6.75 -9.5233968089035024 10.822508974646899
v 5.25 -8.9120892374407212 9.197353371164569
v 15.551892852734049 -0.70456132559333184 -1.5360522424020071
v 15.543953439340189 0.32179806326872207 0.80390665880515533
v 7.5716094190923506 -5.5784169488474529 6.088309417903389
v 7.5 -2.9795945003510749 7.3908464626005994
v -1.4999999999999996 -8.3435744819544233 4.7024047658255785
v 7.5 -6.999353633566912 2.0204147750239043
v -1.4109452757518688 -5.414323859739179 6.1705533308979046
v 7.3804977087961472 -5.5163551560156137 -0.93846439869064069
v -1.4999999999999996 -2.9795945003510749 7.3908464626005994
v 3.0741418035799151 -8.2528809493987243 4.5214529922858286
v 2.9764308114328202 -2.8380868966587656 0.75033602445839076
v -4.5 -12.376237027116954 12.748374738230597
v 15 -6.999353633566912 2.0204147750239043
v 15 -3.9821148939150293 3.5326632294598541
v 15 -1.6353736519635649 4.7088564717989261
v 19.581328335810412 1.0530680448114564 -0.65512350980442102
v 19.581328335810412 -4.3109119367918911 -3.3435652065794419
v -9 -6.999353633566912 2.0204147750239043
v -9 -1.6353736519635649 4.7088564717989261
v 16.2608166597972 -2.3818393626024066 -2.3767086630533556
v -8.90625 -4.3109119367918911 -3.3435652065794419
v -8.9852853079473682 -1.6302482481498441 -2.0000091045259398
v -8.90625 1.0530680448114564 -0.65512350980442102
v -8.4375 -4.8990085579614266 -2.1701945856037104
v 12.75 -4.7410617424963437 7.9761204624067954
v 12.75 -6.2975248808543425 4.5587600893788114
v -6.75 -4.8562993254674502 7.708596590031739
v -6.75 -5.7825447327750092 3.9188312519985518
v -5.2669744995718588 -6.3221583985475664 0.66927456296784937
v -5.3945689767691789 -1.0555315821962652 3.5519553351835298
v -5.2610927977673043 -11.807238475920656 11.61310859433785
v 11.33125127848349 -7.6463022421550626 3.3112069055565314
v 11.25 -6.3272432093731563 0.67941977962306765
v -5.0553559710443245 -3.6453051024088996 8.7190725302377672
v -0.75 -4.995925772932341 11.41383144880311
v 8.1532480112910246 -4.9317114700552489 -2.1049457219137069
v -5.25 -7.6714640577606676 3.3614097704247414
v 6.7534214923238087 -6.7775044834519758 5.4873234080431574
v -12.62353889475918 -4.3002671335730689 0.017487219913489671
v 4.125 -4.1465134153534597 0.094549011440205888
v 20.246942368990169 -4.0831617767647188 0.12630102903257612
v 18.375 -4.1465134153534597 0.094549011440205888
v -3.6242817032081569 -10.816878151743433 13.529929746856352
v 1.875 -4.1465134153534597 0.094549011440205888
v -5.6013849252910255 -11.026488409129863 13.424872502429242
v 8.4430463361655175 -6.9098140676019781 5.4210094761993055
v 4.875 -3.3027463005012572 -5.3550576996806996
v -14.217063261809891 0.51283855674366308 0.42274258747548776
v 1.2055678325958381 -3.5496041268508383 -4.8625268627911851
v -11.25 -2.1366338487455416 2.779764855228553
v 5.25 -3.4808546971330521 5.4617548460302263
v 5.25 -0.79241300035803119 0.09777486442687966
v -3.7499999999999996 -3.7922039787144279 5.4236656718735201
v -5.3394011221537774 -1.6166584375159179 1.3625193678805179
v -15.75 -0.79241300035803119 0.09777486442687966
v 0.75 -6.0941130553815315 11.153479077245116
v 21.75 -0.73341181114137965 -0.0024477794927206808
v 0.75 -3.6786894975716997 5.4572629452612489
v 11.22502047102714 -6.9576232784797369 12.108481809618411
v 10.98291242591084 -5.4171229092270181 9.5248676609949054
v -6.75 -7.4454683872164882 13.320790735211908
v 9.75 -3.3380045508806129 5.2820437714442887
v -5.0501037235822892 -5.4393667172903104 9.5137190024806095
v 8.25 -0.12030257616427598 -1.2432201309739574
v 6.75 0.53224082502039671 -2.6922423807183233
v 6.75 -6.8414068181018282 12.166729823034409
v 5.25 -6.1692963939080734 10.825734827633573
v 7.3713598867833294 0.18055309821100263 1.0857186713106564
v -12.28125 -4.9830223609856459 -2.0025702111786052
v -14.568693202106282 -5.0871754999194287 -1.7947638254451399
v 6.6192985789194898 -0.88645855164958043 3.2146207549434878
v -2.4203563765008442 -6.2906224362784355 0.60635399804909662
v -2.6249999999999996 -0.96326322776980922 3.367861476398089
v 1.9945912836715229 -9.160886441116352 6.3331059236481861
v 20.507516455996772 -4.9677503069355362 -2.0330410197146516
v 4.5046402308531901 -2.9666910884043793 -6.0255551973811183
v 4.9048571781974353 0.45864912215550824 -4.3087651498245414
v 4.875 2.3972888931989678 -3.3371135006060961
v 4.125 1.7251784690052121 -1.9961185052052586
v 1.125 -2.9666910884043793 -6.0255551973811183
v 1.1370558867477369 0.77554600090548487 -4.1499355521505699
v 1.125 2.3972888931989678 -3.3371135006060961
v 8.625 -9.0156849061481772 6.0433997612264143
v -9.905424224636084 -1.0622473304861999 3.5653545989398943
v -0.375 -6.3272432093731563 0.67941977962306765
v -0.63204833435704488 -0.95767931865505984 3.356720458630607
v -6.75 -3.4264170781912098 5.2302721955023568
v 12.75 -3.3968408941088328 5.2941304716051221
v 6 -10.275891951511468 8.5577653776029834
v -2.5752869013527913 -2.7374328852236474 -2.5549331263430743
v -4.853690599048246 -9.4651672920937386 10.851693770546834
v -0.75 -2.3955091456410176 -3.4881137418911474
v -0.75 -1.8083925949532387 -4.5528604573543472
v -2.2499999999999996 -10.489781186595824 12.523027046411295
v -1.0903683278678726 -9.4743220249997258 10.847105392933251
v -1.8021666543013768 -10.219363961945255 8.4449807095191733
v -11.25 -5.1546790516440923 2.1060415045414609
v -11.25 -4.531177288711131 0.75175354924084603
v -3.7499999999999996 -9.1873415968066254 10.15201147694648
v 18.66271374274212 -4.9369245757706279 -2.0945445312414974
v 18.46875 0.38095762061770078 0.68587148559641564
v 6.4172299341454231 -2.9012928333652792 4.0743742545460613
v -12.375 -1.4645234245517864 1.4387698598277163
v -2.6249999999999996 -2.8087442729392968 4.1207598506293897
v 4.0434102317272771 0.019729887112313271 -1.1730354706161514
v 20.625 -1.4645234245517864 1.4387698598277163
v 18.375 -1.4645234245517864 1.4387698598277163
v 8.6230200805819237 -2.9940093960676957 4.0279044552541698
v 14.275243581949519 -0.14151113222849876 -1.2538499183048191
v 20.331343813363539 -0.31196896532481855 -1.3392838587016445
v -8.2697292337057391 -5.5723439788920093 -0.82675547620860135
v 18.8455035267698 -0.43526179008856225 -1.4010785656440343
v 5.25 -5.4788630222384809 2.7824889015251051
v 5.25 -4.1465134153534597 0.094549011440205888
v 5.25 -2.8022925669659493 -2.5874409793614679
v -6.75 -4.1465134153534597 0.094549011440205888
v 3.0753758736352719 -7.9921706216045418 8.2342465802145934
v -3.7499999999999996 -8.1791759605159911 8.1405189838452259
v 3 -2.8022925669659493 -2.5874409793614679
v 0.75 -9.5233968089035024 10.822508974646899
v -3.7499999999999996 -4.1465134153534597 0.094549011440205888
v 0.75 -8.1791759605159911 8.1405189838452259
v 21.75 -4.1465134153534597 0.094549011440205888
v -15.75 -4.1465134153534597 0.094549011440205888
v 17.25 -4.1465134153534597 0.094549011440205888
v 17.4375 -2.8022925669659493 -2.5874409793614679
v 0.75 -4.1465134153534597 0.094549011440205888
v 12.75 -8.9037109739389209 5.8199893255259276
v 12.75 -5.9144323634720752 7.3880238412372599
v 0.75 -2.8022925669659493 -2.5874409793614679
v 12.75 -3.5676911215206113 8.5642170835763309
v 12.75 -4.1465134153534597 0.094549011440205888
v 3 -1.458071718578438 -5.2694309701631425
v 9.75 -9.5233968089035024 10.822508974646899
v -0.75 -2.8022925669659493 -2.5874409793614679
v 8.25 -10.867617657291012 13.504498965448573
v -2.2499999999999996 -9.5625884228065097 10.806400158565024
v 8.25 -9.5233968089035024 10.822508974646899
v -6.75 -8.9316711031239571 5.8757753868013101
v 6.75 -2.7701563100487849 -2.5713341979471651
v -1.4999999999999996 -5.4907342637409702 2.7765390022418792
v -6.75 -5.9821013438942519 7.2559326903256247
v -6.75 -3.5676911215206113 8.5642170835763309
v 5.25 -9.5233968089035024 10.822508974646899
v -3.7499999999999996 -9.5233968089035024 10.822508974646899
v 5.25 -8.2320439964616288 8.1140213770774317
v -5.7657480389176463 -6.2917622277249166 13.999284877559722
v -0.21685296261014697 -5.1016666045356089 -1.7658511675415851
v 8.3465684691571305 0.65665803216343033 0.13579391083439374
v -3.5914663032995988 -11.76326026591914 11.525363251614648
v 3.9375 -6.1172087018126078 0.26035884356030614
v 10.386369140449929 -0.94843120148003424 3.3382686114308462
v 1.875 -3.8197325305932694 9.0670902068516455
v 5.8520459988639164 -8.9493174789769014 5.910983443177086
v -3.7499999999999996 -6.2128466950939725 11.53457291152489
v 17.34375 -4.9830223609856459 -2.0025702111786052
v 5.25 -4.9830223609856459 -2.0025702111786052
v 0.75 -9.0156849061481772 6.0433997612264143
v -6.6195580299078838 -1.0010316272123454 3.4432170025342819
v 12.75 0.38095762061770078 0.68587148559641564
v -5.2676876996822006 -11.032016178729442 10.066384747428925
v 11.25 -5.6680361971260957 12.754826444203944
v 8.25 1.0530680448114564 -0.65512350980442102
v 6.75 -11.032016178729442 10.066384747428925
v -5.3283824937802731 -6.9966765585174535 2.0150734737817135
f 236 2 1 
f 1 2 351 
f 1 4 344 
f 351 4 1 
f 269 236 1 
f 344 269 1 
f 164 3 2 
f 2 3 420 
f 2 5 351 
f 420 5 2 
f 236 164 2 
f 366 6 3 
f 3 6 420 
f 3 164 266 
f 3 266 366 
f 4 5 12 
f 351 5 4 
f 4 12 344 
f 13 12 5 
f 420 13 5 
f 366 14 6 
f 6 14 420 
f 7 8 236 
f 256 8 7 
f 269 10 7 
f 7 10 288 
f 7 236 269 
f 319 256 7 
f 7 288 319 
f 8 9 164 
f 203 9 8 
f 8 164 236 
f 318 203 8 
f 8 256 318 
f 320 11 9 
f 9 11 365 
f 266 164 9 
f 9 203 317 
f 365 266 9 
f 9 317 320 
f 10 12 15 
f 344 12 10 
f 10 15 288 
f 10 269 344 
f 18 17 11 
f 11 17 365 
f 260 18 11 
f 407 260 11 
f 11 320 407 
f 12 13 399 
f 399 15 12 
f 335 16 13 
f 13 16 399 
f 420 335 13 
f 14 17 335 
f 365 17 14 
f 14 335 420 
f 366 365 14 
f 15 16 346 
f 399 16 15 
f 346 19 15 
f 15 19 380 
f 15 22 288 
f 380 22 15 
f 335 17 16 
f 16 17 394 
f 16 20 346 
f 393 20 16 
f 394 393 16 
f 17 18 394 
f 260 21 18 
f 18 21 393 
f 18 393 394 
f 19 20 255 
f 346 20 19 
f 19 255 315 
f 19 315 380 
f 20 21 171 
f 393 21 20 
f 20 171 255 
f 314 171 21 
f 21 260 314 
f 27 26 22 
f 22 26 288 
f 455 27 22 
f 315 30 22 
f 22 30 455 
f 380 315 22 
f 26 24 23 
f 23 24 256 
f 319 26 23 
f 23 256 319 
f 24 25 203 
f 276 25 24 
f 24 26 28 
f 24 28 276 
f 24 203 318 
f 318 256 24 
f 276 29 25 
f 25 29 320 
f 317 203 25 
f 320 317 25 
f 26 27 28 
f 319 288 26 
f 350 28 27 
f 326 54 27 
f 27 54 350 
f 455 326 27 
f 350 55 28 
f 28 55 417 
f 412 276 28 
f 417 412 28 
f 29 32 260 
f 325 32 29 
f 29 56 325 
f 417 56 29 
f 29 260 407 
f 29 276 412 
f 407 320 29 
f 29 412 417 
f 255 31 30 
f 30 31 383 
f 30 33 57 
f 383 33 30 
f 30 57 326 
f 315 255 30 
f 30 326 455 
f 171 32 31 
f 31 32 324 
f 324 34 31 
f 31 34 383 
f 255 171 31 
f 32 35 324 
f 333 35 32 
f 32 171 314 
f 314 260 32 
f 32 325 461 
f 461 333 32 
f 33 34 323 
f 383 34 33 
f 60 57 33 
f 330 60 33 
f 33 323 439 
f 439 330 33 
f 324 262 34 
f 34 262 438 
f 438 323 34 
f 35 262 324 
f 435 262 35 
f 333 292 35 
f 35 292 435 
f 323 37 36 
f 36 37 359 
f 36 63 330 
f 359 63 36 
f 439 323 36 
f 36 330 439 
f 262 38 37 
f 37 38 289 
f 289 64 37 
f 37 64 359 
f 438 262 37 
f 37 323 438 
f 38 65 289 
f 292 65 38 
f 38 262 435 
f 435 292 38 
f 46 40 39 
f 39 40 357 
f 357 42 39 
f 39 42 443 
f 39 45 46 
f 443 45 39 
f 46 41 40 
f 40 41 282 
f 282 43 40 
f 40 43 357 
f 41 44 282 
f 327 44 41 
f 41 46 387 
f 457 327 41 
f 41 387 457 
f 42 43 49 
f 357 43 42 
f 48 47 42 
f 42 47 443 
f 49 48 42 
f 282 44 43 
f 43 44 341 
f 341 49 43 
f 327 308 44 
f 44 308 341 
f 68 46 45 
f 45 47 67 
f 443 47 45 
f 45 67 68 
f 46 68 387 
f 47 48 82 
f 82 67 47 
f 48 49 85 
f 84 82 48 
f 85 84 48 
f 339 85 49 
f 341 339 49 
f 50 51 53 
f 70 51 50 
f 50 53 54 
f 50 54 70 
f 51 52 277 
f 386 52 51 
f 277 53 51 
f 51 70 71 
f 51 71 386 
f 72 56 52 
f 52 56 277 
f 386 72 52 
f 55 54 53 
f 417 55 53 
f 53 277 417 
f 54 55 350 
f 326 57 54 
f 54 57 369 
f 73 70 54 
f 369 73 54 
f 56 59 325 
f 368 59 56 
f 56 72 74 
f 56 74 368 
f 417 277 56 
f 349 58 57 
f 57 58 400 
f 57 60 349 
f 57 75 369 
f 400 75 57 
f 273 59 58 
f 58 59 437 
f 58 76 400 
f 437 76 58 
f 349 273 58 
f 273 62 59 
f 59 62 333 
f 368 77 59 
f 59 77 437 
f 461 325 59 
f 59 333 461 
f 254 61 60 
f 60 61 349 
f 60 63 209 
f 330 63 60 
f 60 209 305 
f 305 254 60 
f 166 62 61 
f 61 62 273 
f 303 166 61 
f 61 254 303 
f 61 273 349 
f 207 65 62 
f 62 65 292 
f 62 166 301 
f 301 207 62 
f 62 292 333 
f 359 64 63 
f 63 64 451 
f 63 67 79 
f 451 67 63 
f 63 79 331 
f 331 209 63 
f 414 68 64 
f 64 68 451 
f 64 289 414 
f 392 66 65 
f 65 66 414 
f 207 78 65 
f 65 78 392 
f 414 289 65 
f 81 69 66 
f 66 69 395 
f 392 81 66 
f 66 395 414 
f 451 68 67 
f 82 79 67 
f 441 387 68 
f 414 395 68 
f 68 395 441 
f 69 81 446 
f 446 327 69 
f 69 327 457 
f 69 387 441 
f 457 387 69 
f 441 395 69 
f 93 71 70 
f 70 73 92 
f 70 92 93 
f 71 93 431 
f 431 386 71 
f 94 74 72 
f 431 94 72 
f 72 386 431 
f 108 92 73 
f 382 108 73 
f 73 369 382 
f 74 94 444 
f 74 110 381 
f 444 110 74 
f 381 368 74 
f 75 76 114 
f 400 76 75 
f 114 113 75 
f 75 113 382 
f 382 369 75 
f 437 114 76 
f 381 115 77 
f 77 115 437 
f 77 368 381 
f 78 121 122 
f 454 121 78 
f 78 122 392 
f 78 207 454 
f 83 80 79 
f 79 80 96 
f 79 82 83 
f 96 95 79 
f 79 95 331 
f 80 83 433 
f 391 96 80 
f 433 391 80 
f 390 86 81 
f 81 86 446 
f 81 97 391 
f 392 97 81 
f 433 390 81 
f 81 391 433 
f 85 83 82 
f 82 84 85 
f 83 85 390 
f 83 390 433 
f 339 86 85 
f 85 86 390 
f 339 308 86 
f 86 308 446 
f 87 88 90 
f 377 88 87 
f 87 90 92 
f 87 92 102 
f 87 102 378 
f 378 377 87 
f 258 89 88 
f 88 89 389 
f 389 90 88 
f 377 258 88 
f 345 91 89 
f 89 91 389 
f 89 258 376 
f 376 345 89 
f 93 92 90 
f 388 93 90 
f 389 388 90 
f 104 94 91 
f 91 94 388 
f 345 104 91 
f 91 388 389 
f 108 102 92 
f 93 388 431 
f 94 104 444 
f 431 388 94 
f 95 96 124 
f 124 123 95 
f 95 123 331 
f 416 124 96 
f 96 391 416 
f 97 122 125 
f 392 122 97 
f 97 125 416 
f 416 391 97 
f 373 99 98 
f 98 99 377 
f 98 126 375 
f 378 126 98 
f 374 373 98 
f 375 374 98 
f 98 377 378 
f 373 257 99 
f 99 257 429 
f 99 258 377 
f 429 258 99 
f 343 101 100 
f 100 101 345 
f 100 257 372 
f 429 257 100 
f 376 258 100 
f 100 258 429 
f 372 343 100 
f 100 345 376 
f 128 104 101 
f 101 104 345 
f 137 128 101 
f 343 137 101 
f 108 103 102 
f 102 103 127 
f 127 126 102 
f 102 126 378 
f 103 108 109 
f 103 109 279 
f 426 127 103 
f 103 279 426 
f 279 110 104 
f 104 110 444 
f 104 128 426 
f 426 279 104 
f 105 231 408 
f 422 231 105 
f 105 248 313 
f 406 248 105 
f 105 313 422 
f 408 406 105 
f 106 107 227 
f 229 107 106 
f 106 173 229 
f 270 173 106 
f 106 227 270 
f 107 223 225 
f 226 223 107 
f 107 225 227 
f 229 226 107 
f 129 109 108 
f 113 111 108 
f 108 111 129 
f 382 113 108 
f 109 129 307 
f 423 279 109 
f 109 307 340 
f 109 340 423 
f 110 112 115 
f 130 112 110 
f 110 115 381 
f 340 130 110 
f 110 279 423 
f 423 340 110 
f 111 113 265 
f 138 129 111 
f 141 138 111 
f 264 141 111 
f 265 264 111 
f 233 115 112 
f 112 130 447 
f 112 143 233 
f 447 143 112 
f 113 114 354 
f 113 116 265 
f 354 116 113 
f 114 115 117 
f 437 115 114 
f 114 117 354 
f 118 117 115 
f 233 118 115 
f 116 117 254 
f 354 117 116 
f 209 119 116 
f 116 119 449 
f 116 131 265 
f 449 131 116 
f 305 209 116 
f 116 254 305 
f 117 118 166 
f 117 166 303 
f 303 254 117 
f 301 166 118 
f 118 207 301 
f 454 207 118 
f 306 228 118 
f 118 228 370 
f 118 233 306 
f 118 370 454 
f 119 120 132 
f 352 120 119 
f 331 123 119 
f 119 123 352 
f 119 132 449 
f 119 209 331 
f 120 124 274 
f 352 124 120 
f 133 132 120 
f 413 133 120 
f 120 274 418 
f 418 413 120 
f 274 122 121 
f 370 134 121 
f 121 134 413 
f 418 274 121 
f 454 370 121 
f 121 413 418 
f 416 125 122 
f 122 274 416 
f 123 124 352 
f 416 274 124 
f 126 127 401 
f 126 135 375 
f 401 135 126 
f 127 136 401 
f 415 136 127 
f 426 415 127 
f 128 137 415 
f 128 415 426 
f 129 138 139 
f 129 139 307 
f 336 140 130 
f 130 140 447 
f 340 336 130 
f 131 132 144 
f 449 132 131 
f 131 144 264 
f 131 264 265 
f 132 133 148 
f 148 144 132 
f 149 148 133 
f 413 149 133 
f 228 150 134 
f 134 150 413 
f 370 228 134 
f 135 136 348 
f 401 136 135 
f 135 138 157 
f 348 138 135 
f 157 154 135 
f 135 154 374 
f 135 374 375 
f 272 139 136 
f 136 139 348 
f 411 272 136 
f 415 411 136 
f 343 159 137 
f 137 159 453 
f 137 272 411 
f 453 272 137 
f 137 411 415 
f 348 139 138 
f 138 141 367 
f 364 157 138 
f 138 160 364 
f 367 160 138 
f 139 272 410 
f 336 307 139 
f 410 336 139 
f 208 143 140 
f 140 143 447 
f 304 208 140 
f 410 272 140 
f 140 272 453 
f 453 304 140 
f 140 336 410 
f 347 142 141 
f 141 142 398 
f 264 144 141 
f 141 144 347 
f 141 161 367 
f 398 161 141 
f 142 145 271 
f 347 145 142 
f 165 162 142 
f 142 162 398 
f 409 165 142 
f 142 271 409 
f 143 146 233 
f 271 146 143 
f 302 165 143 
f 143 165 409 
f 143 208 302 
f 409 271 143 
f 253 145 144 
f 144 145 347 
f 144 148 235 
f 144 235 300 
f 300 253 144 
f 145 146 271 
f 334 146 145 
f 145 253 299 
f 145 299 334 
f 334 163 146 
f 146 163 450 
f 146 228 306 
f 450 228 146 
f 306 233 146 
f 385 150 147 
f 147 150 450 
f 147 163 379 
f 450 163 147 
f 194 170 147 
f 147 170 385 
f 379 194 147 
f 148 149 363 
f 148 151 263 
f 363 151 148 
f 263 235 148 
f 296 152 149 
f 149 152 363 
f 442 296 149 
f 149 413 442 
f 150 153 296 
f 385 153 150 
f 150 228 450 
f 150 296 442 
f 442 413 150 
f 151 152 362 
f 363 152 151 
f 151 168 263 
f 362 168 151 
f 295 169 152 
f 152 169 362 
f 440 295 152 
f 152 296 440 
f 153 295 440 
f 460 295 153 
f 440 296 153 
f 153 385 460 
f 361 155 154 
f 154 155 373 
f 154 157 361 
f 154 373 374 
f 155 156 257 
f 294 156 155 
f 155 257 373 
f 361 294 155 
f 294 159 156 
f 156 159 343 
f 372 257 156 
f 156 343 372 
f 360 158 157 
f 157 158 361 
f 459 360 157 
f 157 364 445 
f 157 445 459 
f 158 178 293 
f 360 178 158 
f 158 293 436 
f 158 294 361 
f 436 294 158 
f 293 179 159 
f 159 179 332 
f 436 293 159 
f 159 294 436 
f 159 332 453 
f 160 161 185 
f 367 161 160 
f 182 180 160 
f 160 180 364 
f 448 182 160 
f 160 185 448 
f 398 162 161 
f 161 162 404 
f 404 185 161 
f 162 165 186 
f 162 186 404 
f 342 191 163 
f 163 191 379 
f 163 334 342 
f 187 186 165 
f 302 187 165 
f 167 214 215 
f 310 214 167 
f 167 215 309 
f 243 242 167 
f 167 242 310 
f 309 243 167 
f 168 169 172 
f 362 169 168 
f 168 172 174 
f 168 174 195 
f 168 195 263 
f 434 172 169 
f 169 295 434 
f 199 176 170 
f 170 176 432 
f 170 194 197 
f 170 197 199 
f 434 295 170 
f 170 295 460 
f 460 385 170 
f 170 432 434 
f 175 174 172 
f 432 175 172 
f 434 432 172 
f 270 175 173 
f 173 175 432 
f 173 201 229 
f 432 201 173 
f 174 175 200 
f 198 195 174 
f 200 198 174 
f 270 200 175 
f 176 199 201 
f 176 201 432 
f 180 178 177 
f 177 178 360 
f 445 180 177 
f 177 360 459 
f 459 445 177 
f 291 179 178 
f 178 179 293 
f 178 180 183 
f 178 183 291 
f 291 184 179 
f 179 184 332 
f 180 182 183 
f 445 364 180 
f 181 210 213 
f 456 210 181 
f 181 213 311 
f 240 237 181 
f 181 237 298 
f 311 240 181 
f 181 298 456 
f 202 183 182 
f 448 202 182 
f 290 184 183 
f 183 184 291 
f 183 202 211 
f 183 211 290 
f 184 187 208 
f 329 187 184 
f 184 208 304 
f 290 212 184 
f 184 212 329 
f 184 304 332 
f 185 186 358 
f 404 186 185 
f 185 189 213 
f 358 189 185 
f 185 213 448 
f 186 187 287 
f 287 190 186 
f 186 190 358 
f 187 191 287 
f 328 191 187 
f 302 208 187 
f 187 215 328 
f 329 215 187 
f 212 206 188 
f 188 206 267 
f 234 212 188 
f 267 232 188 
f 188 232 452 
f 239 234 188 
f 452 239 188 
f 189 190 253 
f 358 190 189 
f 235 192 189 
f 189 192 286 
f 216 213 189 
f 286 216 189 
f 300 235 189 
f 189 253 300 
f 287 191 190 
f 190 191 342 
f 299 253 190 
f 342 299 190 
f 284 194 191 
f 191 194 379 
f 191 218 284 
f 328 218 191 
f 195 193 192 
f 192 193 356 
f 263 195 192 
f 192 219 286 
f 356 219 192 
f 192 235 263 
f 283 194 193 
f 193 194 285 
f 193 195 196 
f 193 196 283 
f 285 220 193 
f 193 220 356 
f 283 197 194 
f 284 221 194 
f 194 221 285 
f 355 196 195 
f 195 198 458 
f 458 355 195 
f 196 223 281 
f 355 223 196 
f 196 281 430 
f 430 283 196 
f 224 199 197 
f 281 224 197 
f 430 281 197 
f 197 283 430 
f 198 200 225 
f 225 222 198 
f 198 222 458 
f 226 201 199 
f 199 224 226 
f 227 225 200 
f 270 227 200 
f 201 226 229 
f 202 210 211 
f 213 210 202 
f 448 213 202 
f 405 205 204 
f 204 205 456 
f 204 268 405 
f 456 268 204 
f 259 206 205 
f 205 206 280 
f 280 211 205 
f 205 211 456 
f 297 259 205 
f 405 297 205 
f 206 212 280 
f 206 259 267 
f 456 211 210 
f 211 280 428 
f 428 290 211 
f 234 215 212 
f 212 215 329 
f 428 280 212 
f 212 290 428 
f 213 214 311 
f 384 214 213 
f 213 216 384 
f 322 215 214 
f 214 217 322 
f 384 217 214 
f 214 310 311 
f 322 218 215 
f 215 218 328 
f 215 234 309 
f 321 217 216 
f 216 217 384 
f 216 286 427 
f 427 321 216 
f 217 261 322 
f 425 261 217 
f 217 321 425 
f 322 261 218 
f 218 261 424 
f 424 284 218 
f 219 220 321 
f 356 220 219 
f 427 286 219 
f 219 321 427 
f 220 221 261 
f 285 221 220 
f 220 261 425 
f 425 321 220 
f 424 261 221 
f 221 284 424 
f 225 223 222 
f 222 223 355 
f 222 355 458 
f 226 224 223 
f 223 224 281 
f 230 231 297 
f 408 231 230 
f 298 237 230 
f 230 237 397 
f 297 268 230 
f 230 268 298 
f 397 312 230 
f 230 312 408 
f 316 297 231 
f 422 316 231 
f 232 267 316 
f 232 313 396 
f 422 313 232 
f 232 316 422 
f 232 396 452 
f 234 239 243 
f 234 243 309 
f 240 238 237 
f 237 238 403 
f 237 244 397 
f 403 244 237 
f 238 240 242 
f 238 242 278 
f 338 245 238 
f 238 245 403 
f 238 278 421 
f 421 338 238 
f 278 243 239 
f 239 246 338 
f 396 246 239 
f 421 278 239 
f 239 338 421 
f 452 396 239 
f 240 241 242 
f 311 241 240 
f 311 242 241 
f 242 243 278 
f 311 310 242 
f 244 245 402 
f 403 245 244 
f 244 250 312 
f 402 250 244 
f 244 312 397 
f 337 251 245 
f 245 251 402 
f 338 337 245 
f 246 252 337 
f 371 252 246 
f 246 337 338 
f 396 371 246 
f 353 248 247 
f 247 248 406 
f 312 250 247 
f 247 250 353 
f 406 312 247 
f 275 249 248 
f 248 249 313 
f 248 251 275 
f 353 251 248 
f 275 252 249 
f 249 252 371 
f 371 313 249 
f 250 251 353 
f 402 251 250 
f 419 275 251 
f 251 337 419 
f 252 275 419 
f 419 337 252 
f 316 267 259 
f 259 297 316 
f 266 365 366 
f 268 297 405 
f 456 298 268 
f 342 334 299 
f 453 332 304 
f 307 336 340 
f 308 327 446 
f 308 339 341 
f 312 406 408 
f 313 371 396 
