v -14.25 -0.50583932077711502 -5.6136404814923102
v -14.25 -3.1878293115787883 -6.9578613298798206
v -14.25 -1.1779497449708698 -4.2726454860914744
v -14.25 -3.8599397357725431 -5.6168663344789849
v -14.25 -1.8500601691646255 -2.9316504906906369
v -14.25 -4.5320501599662997 -4.2758713390781473
v -14.25 -5.8827227143271577 5.114319481714384
v -14.25 -7.2237177097279943 4.4422090575206283
v -14.25 -8.5647127051288301 3.7700986333268736
v -14.25 -6.5548331385209124 6.4553144771152207
v -14.25 -7.8958281339217491 5.7832040529214659
v -14.25 -9.2368231293225858 5.1110936287277102
v -14.25 -7.2269435627146681 7.7963094725160573
v -14.25 -9.9089335535163414 6.4520886241285469
v -12.75 -0.50583932077711502 -5.6136404814923102
v -12.9407833455892 -1.9941757072986954 -6.3595988210228871
v -12.75 -3.8599397357725431 -5.6168663344789849
v -12.75 -1.8500601691646255 -2.9316504906906369
v -12.75 -2.9003422152148999 -3.4580547755052367
v -12.75 -4.5320501599662997 -4.2758713390781473
v -12.75 -2.5132988481002374 -1.6083564050858543
v -12.75 -3.8631655887592178 -2.262765919483555
v -12.75 -5.2041605841600544 -2.9348763436773098
v -12.75 -3.1942810175521363 -0.24966049988896311
v -12.75 -4.5352760129529734 -0.92177092408271832
v -12.75 -5.8762710083538101 -1.5938813482764735
v -12.75 -4.5385018659396463 2.4323294909127107
v -12.75 -5.9143531296353977 1.7427490080312991
v -12.75 -7.2204918567413205 1.0881086425252
v -12.75 -5.210612290133402 3.7733244863135473
v -12.75 -6.5516072855342387 3.1012140621197921
v -12.75 -7.8926022809350753 2.4291036379260369
v -12.75 -5.8827227143271577 5.114319481714384
v -12.75 -7.2237177097279943 4.4422090575206283
v -12.75 -8.5647127051288301 3.7700986333268736
v -12.75 -6.5548331385209124 6.4553144771152207
v -12.75 -9.2368231293225858 5.1110936287277102
v -12.75 -7.2269435627146681 7.7963094725160573
v -12.75 -8.5679385581155039 7.1241990483223017
v -12.75 -9.9089335535163414 6.4520886241285469
v -11.25 -0.50583932077711502 -5.6136404814923102
v -11.25 -1.8468343161779517 -6.285750905686065
v -11.25 -3.1878293115787883 -6.9578613298798206
v -11.25 -1.1779497449708698 -4.2726454860914744
v -11.25 -2.5189447403717065 -4.9447559102852301
v -11.25 -3.8599397357725431 -5.6168663344789849
v -11.25 -1.8500601691646255 -2.9316504906906369
v -11.25 -3.5310975619233922 -3.7741911109074469
v -11.25 -4.5320501599662997 -4.2758713390781473
v -11.34163928888276 -2.5340453626935378 -1.566962950617417
v -11.25 -5.2041605841600544 -2.9348763436773098
v -11.25 -3.1942810175521363 -0.24966049988896311
v -11.25 -4.5090538567652594 -0.9086283064152072
v -11.25 -5.8762710083538101 -1.5938813482764735
v -11.25 -3.8663914417458916 1.0913344955118738
v -11.25 -5.2073864371467282 0.41922407131811856
v -11.25 -6.5483814325475649 -0.25288635287563688
v -11.25 -4.5385018659396463 2.4323294909127107
v -11.25 -5.879496861340483 1.7602190667189552
v -11.25 -7.2204918567413205 1.0881086425252
v -9.8393977415231362 -4.830552855236701 3.0150297451440178
v -11.260038447323851 -7.8880110970627477 2.4199433059714437
v -11.25 -5.8827227143271577 5.114319481714384
v -11.25 -7.2237177097279943 4.4422090575206283
v -11.25 -8.5647127051288301 3.7700986333268736
v -11.25 -6.5548331385209124 6.4553144771152207
v -11.25 -7.8958281339217491 5.7832040529214659
v -11.25 -7.2269435627146681 7.7963094725160573
v -11.25 -9.9089335535163414 6.4520886241285469
v -9.75 -1.8500601691646255 -2.9316504906906369
v -9.75 -3.1910551645654626 -3.6037609148843925
v -9.75 -4.5320501599662997 -4.2758713390781473
v -9.75 -2.5221705933583811 -1.5906554952897993
v -9.75 -3.8631655887592178 -2.262765919483555
v -9.75 -5.2041605841600544 -2.9348763436773098
v -9.75 -3.1942810175521363 -0.24966049988896311
v -9.75 -4.5352760129529734 -0.92177092408271832
v -9.75 -5.8762710083538101 -1.5938813482764735
v -8.8104352318753616 -7.0657897184435496 0.77944687242399091
v -9.75 -5.8827227143271577 5.114319481714384
v -9.9576832467153586 -7.2391780989825874 4.4344602673940861
v -9.6511378697763739 -8.5647127051288301 3.7700986333268736
v -8.25 -3.1942810175521363 -0.24966049988896311
v -8.25 -4.5352760129529734 -0.92177092408271832
v -8.381182370201044 -5.8762710083538101 -1.5938813482764735
v -8.25 -5.8827227143271577 5.114319481714384
v -8.25 -7.2237177097279943 4.4422090575206283
v -8.25 -8.5647127051288301 3.7700986333268736
v -8.25 -6.5548331385209124 6.4553144771152207
v -8.25 -7.6432937464287045 5.6680022218754065
v -8.25 -9.2368231293225858 5.1110936287277102
v -8.25 -7.2269435627146681 7.7963094725160573
v -8.25 -8.5679385581155039 7.1241990483223017
v -8.25 -9.9089335535163414 6.4520886241285469
v -6.75 -1.8500601691646255 -2.9316504906906369
v -6.75 -3.1910551645654626 -3.6037609148843925
v -6.75 -4.5320501599662997 -4.2758713390781473
v -6.75 -2.5221705933583811 -1.5906554952897993
v -6.75 -3.8631655887592178 -2.262765919483555
v -6.75 -5.2041605841600544 -2.9348763436773098
v -6.75 -3.1942810175521363 -0.24966049988896311
v -6.75 -5.8762710083538101 -1.5938813482764735
v -6.75 -4.5385018659396463 2.4323294909127107
v -6.75 -7.2204918567413205 1.0881086425252
v -6.75 -5.210612290133402 3.7733244863135473
v -6.75 -6.3640642806738477 2.9632815585625285
v -6.75 -7.8926022809350753 2.4291036379260369
v -6.75 -5.8827227143271577 5.114319481714384
v -6.75 -7.2237177097279943 4.4422090575206283
v -6.75 -8.5647127051288301 3.7700986333268736
v -5.7253510470307543 -6.5151204623418586 6.3760797292328792
v -5.8642068989920304 -9.2004748884603522 5.0385716035763366
v -6.75 -7.2269435627146681 7.7963094725160573
v -6.6588437826359117 -8.6290546358047298 7.093567500075185
v -6.63989208795868 -9.908443804690922 6.4511114770701941
v -6.75 -8.5711644111021776 10.478299463317731
v -6.75 -9.9121594065030152 9.806189039123975
v -6.75 -11.253154401903853 9.1340786149302211
v -6.75 -9.2432748352959333 11.819294458718566
v -6.75 -10.34650781373049 11.069120320032114
v -6.75 -11.925264826097607 10.475073610331057
v -6.75 -9.915385259489689 13.160289454119402
v -6.75 -11.256380254890527 12.488179029925648
v -6.75 -12.597375250291362 11.816068605731893
v -5.25 -0.50583932077711502 -5.6136404814923102
v -5.25 -1.8468343161779517 -6.285750905686065
v -5.25 -3.1878293115787883 -6.9578613298798206
v -5.25 -1.1126286709519722 -4.4029741198998646
v -5.25 -2.5189447403717065 -4.9447559102852301
v -5.25 -3.8599397357725431 -5.6168663344789849
v -5.25 -1.8500601691646255 -2.9316504906906369
v -5.25 -3.1910551645654626 -3.6037609148843925
v -5.25 -4.5320501599662997 -4.2758713390781473
v -4.399151425107199 -7.2155771418552428 1.0783028013586118
v -4.5 -5.8827227143271577 5.114319481714384
v -4.5 -7.2237177097279943 4.4422090575206283
v -4.5 -8.5647127051288301 3.7700986333268736
v -5.25 -7.2269435627146681 7.7963094725160573
v -5.25 -8.5679385581155039 7.1241990483223017
v -5.25 -9.9089335535163414 6.4520886241285469
v -5.25 -7.8732386159478809 9.0857976291351115
v -5.25 -9.2400489823092595 8.4651940437231392
v -5.25 -10.581043977710097 7.7930836195293844
v -5.25 -8.5711644111021776 10.478299463317731
v -5.25 -9.9121594065030152 9.806189039123975
v -5.25 -11.253154401903853 9.1340786149302211
v -5.25 -9.2432748352959333 11.819294458718566
v -5.25 -11.925264826097607 10.475073610331057
v -5.25 -9.915385259489689 13.160289454119402
v -5.287080146632654 -11.308881493932283 12.461865262787011
v -5.1679468253975864 -12.597375250291362 11.816068605731893
v -3.75 -3.1878293115787883 -6.9578613298798206
v -3.6569814581792439 -3.7930798706877611 -5.7502651648563301
v -3.75 -1.8500601691646255 -2.9316504906906369
v -3.75 -3.1910551645654626 -3.6037609148843925
v -3.75 -4.5320501599662997 -4.2758713390781473
v -3.75 -2.5221705933583811 -1.5906554952897993
v -3.75 -5.2041605841600544 -2.9348763436773098
v -3.75 -3.1942810175521363 -0.24966049988896311
v -3.75 -4.5352760129529734 -0.92177092408271832
v -3.75 -5.8762710083538101 -1.5938813482764735
v -2.625 -7.7310263808599844 8.8020557190666864
v -2.625 -10.413016371661659 7.4578348706791751
v -3.75 -8.5711644111021776 10.478299463317731
v -3.75 -9.9121594065030152 9.806189039123975
v -3.75 -11.253154401903853 9.1340786149302211
v -3.75 -9.2432748352959333 11.819294458718566
v -3.75 -10.584269830696769 11.147184034524813
v -3.75 -11.925264826097607 10.475073610331057
v -3.75 -9.915385259489689 13.160289454119402
v -3.75 -11.256380254890527 12.488179029925648
v -3.75 -12.597375250291362 11.816068605731893
v -2.25 -0.50583932077711502 -5.6136404814923102
v -2.25 -1.8468343161779517 -6.285750905686065
v -2.25 -3.1878293115787883 -6.9578613298798206
v -2.25 -2.5189447403717065 -4.9447559102852301
v -2.25 -1.8500601691646255 -2.9316504906906369
v -2.25 -4.5320501599662997 -4.2758713390781473
v 0 -3.1942810175521363 -0.24966049988896311
v 0.031889626812924947 -5.8762710083538101 -1.5938813482764735
v -2.25 -4.5385018659396463 2.4323294909127107
v -2.25 -7.2204918567413205 1.0881086425252
v -2.25 -6.5512254409818143 2.9902747661966247
v -2.25 -5.8827227143271577 5.114319481714384
v -2.25 -8.5647127051288301 3.7700986333268736
v -2.25 -6.5548331385209124 6.4553144771152207
v -2.25 -7.8958281339217491 5.7832040529214659
v -2.25 -9.2368231293225858 5.1110936287277102
v -2.25 -7.2269435627146681 7.7963094725160573
v -2.25 -8.5679385581155039 7.1241990483223017
v -2.25 -9.9089335535163414 6.4520886241285469
v 0 -8.5711644111021776 10.478299463317731
v 0 -11.253154401903853 9.1340786149302211
v -0.15208886907951669 -4.8881905335881095 3.1300284647494747
v -0.025186371536979779 -7.4985710675506763 1.6429323985585707
v 0 -6.5548331385209124 6.4553144771152207
v 0 -7.8958281339217491 5.7832040529214659
v 0 -9.2368231293225858 5.1110936287277102
v 0 -7.2269435627146681 7.7963094725160573
v -0.042260271110412397 -8.5969984775888744 7.109634135797446
v -0.041094349064689568 -9.9089335535163414 6.4520886241285469
v 2.8918840644759238 -7.8185647173098145 8.9767122440354097
v 2.25 -0.50583932077711502 -5.6136404814923102
v 1.875 -10.581043977710097 7.7930836195293844
v 2.25 -3.1878293115787883 -6.9578613298798206
v -1.6423375814069829 -10.150663751150523 9.6866499977383853
v 2.25 -2.5781460514210859 -4.9476527088584934
v 1.772617947500595 -9.8465599402635853 9.8390676741914298
v 2.25 -1.8500601691646255 -2.9316504906906369
v 2.25 -3.1910551645654626 -3.6037609148843925
v 2.25 -4.5320501599662997 -4.2758713390781473
v 4.6447786116694729 -3.7108411157993526 0.78098042106421328
v 2.25 -4.5385018659396463 2.4323294909127107
v 2.25 -7.2204918567413205 1.0881086425252
v 2.25 -6.4902322506749233 3.0641314474494843
v 9 -4.2024466538427685 1.7618319932122921
v 2.25 -5.8827227143271577 5.114319481714384
v 2.25 -7.2237177097279943 4.4422090575206283
v 2.25 -8.5647127051288301 3.7700986333268736
v 2.25 -6.5548331385209124 6.4553144771152207
v 2.25 -7.8958281339217491 5.7832040529214659
v 2.25 -9.2368231293225858 5.1110936287277102
v 2.25 -7.2269435627146681 7.7963094725160573
v 2.25 -8.5679385581155039 7.1241990483223017
v 2.25 -9.9089335535163414 6.4520886241285469
v 3.75 -0.50583932077711502 -5.6136404814923102
v 9 -6.8844366446444427 0.41761114482478146
v 3.75 -3.1878293115787883 -6.9578613298798206
v 3.75 -1.1779497449708698 -4.2726454860914744
v 3.75 -3.8599397357725431 -5.6168663344789849
v 3.75 -1.8500601691646255 -2.9316504906906369
v 3.75 -3.1910551645654626 -3.6037609148843925
v 3.75 -4.5320501599662997 -4.2758713390781473
v 3.75 -2.5221705933583811 -1.5906554952897993
v 3.75 -3.6541753901197769 -2.3875462054045267
v 3.75 -5.1126859702574148 -3.1150726220739635
v 3.75 -3.1942810175521363 -0.24966049988896311
v 3.75 -4.5352760129529734 -0.92177092408271832
v 3.75 -5.8762710083538101 -1.5938813482764735
v 4.5 -4.5385018659396463 2.4323294909127107
v 4.5 -5.879496861340483 1.7602190667189552
v 4.5 -7.2204918567413205 1.0881086425252
v 4.5 -5.8827227143271577 5.114319481714384
v 4.6114935819699303 -7.1838842118073529 4.4621737175502219
v 4.4893253605565864 -8.5647127051288301 3.7700986333268736
v 4.6712908425644866 -6.4973817815910255 6.3406875060867876
v 4.875 -9.2368231293225858 5.1110936287277102
v 3.75 -8.5711644111021776 10.478299463317731
v 3.75 -11.253154401903853 9.1340786149302211
v 3.75 -9.2432748352959333 11.819294458718566
v 3.75 -10.813070778431676 10.964443391295884
v 3.75 -9.915385259489689 13.160289454119402
v 3.75 -11.256380254890527 12.488179029925648
v 3.75 -12.597375250291362 11.816068605731893
v 5.25 -0.50583932077711502 -5.6136404814923102
v 5.25 -3.1878293115787883 -6.9578613298798206
v 5.25 -1.1779497449708698 -4.2726454860914744
v 5.25 -2.4518799997881562 -4.8079746055809283
v 5.25 -3.8599397357725431 -5.6168663344789849
v 5.25 -1.8500601691646255 -2.9316504906906369
v 5.25 -4.5320501599662997 -4.2758713390781473
v 5.25 -7.2269435627146681 7.7963094725160573
v 5.25 -8.5679385581155039 7.1241990483223017
v 5.25 -9.9089335535163414 6.4520886241285469
v 5.25 -7.8990539869084229 9.1373044679168949
v 5.25 -9.2400489823092595 8.4651940437231392
v 5.25 -10.620690318455681 7.8721860149275225
v 5.25 -8.5711644111021776 10.478299463317731
v 5.25 -10.075347676355975 9.7243986240586793
v 5.25 -11.253154401903853 9.1340786149302211
v 5.25 -9.2432748352959333 11.819294458718566
v 5.2492597640945116 -11.966079005592798 10.556506078083805
v 5.25 -9.915385259489689 13.160289454119402
v 5.3614508226813236 -11.257082500886151 12.487827062278022
v 5.25 -12.597375250291362 11.816068605731893
v 6.75 -1.8500601691646255 -2.9316504906906369
v 6.75 -3.1910551645654626 -3.6037609148843925
v 6.75 -4.5320501599662997 -4.2758713390781473
v 6.75 -2.5221705933583811 -1.5906554952897993
v 6.75 -5.2041605841600544 -2.9348763436773098
v 6.75 -3.1942810175521363 -0.24966049988896311
v 6.75 -4.5352760129529734 -0.92177092408271832
v 6.75 -5.8762710083538101 -1.5938813482764735
v 6.75 -4.5385018659396463 2.4323294909127107
v 6.75 -7.2204918567413205 1.0881086425252
v 6.75 -5.210612290133402 3.7733244863135473
v 6.75 -6.5516072855342387 3.1012140621197921
v 6.75 -7.9140150177961672 2.4718263393377939
v 6.75 -5.8827227143271577 5.114319481714384
v 6.75 -7.2237177097279943 4.4422090575206283
v 6.75 -8.5647127051288301 3.7700986333268736
v 6.7054456294234663 -7.2269435627146681 7.7963094725160573
v 6.75 -8.5679385581155039 7.1241990483223017
v 6.7474907882167372 -9.9089335535163414 6.4520886241285469
v 6.75 -8.5711644111021776 10.478299463317731
v 6.75 -9.9121594065030152 9.806189039123975
v 6.75 -11.253154401903853 9.1340786149302211
v 6.75 -9.2432748352959333 11.819294458718566
v 6.75 -10.584269830696769 11.147184034524813
v 6.75 -11.925264826097607 10.475073610331057
v 6.75 -9.915385259489689 13.160289454119402
v 6.75 -11.256380254890527 12.488179029925648
v 6.75 -12.597375250291362 11.816068605731893
v -4.5 -4.5385018659396463 2.4323294909127107
v 8.25 -4.5352760129529734 -0.92177092408271832
v 8.1405333592803064 -5.8762710083538101 -1.5938813482764735
v 9.75 -4.8745570780365242 3.102826988613129
v 9.75 -7.5565470688381975 1.7586061402256183
v 8.25 -5.8827227143271577 5.114319481714384
v 8.25 -7.2237177097279943 4.4422090575206283
v 8.25 -8.5647127051288301 3.7700986333268736
v 8.25 -6.5548331385209124 6.4553144771152207
v 8.25 -7.8958281339217491 5.7832040529214659
v 8.25 -9.2368231293225858 5.1110936287277102
v 8.25 -7.2269435627146681 7.7963094725160573
v 8.25 -9.9089335535163414 6.4520886241285469
v 9.75 -1.8500601691646255 -2.9316504906906369
v 9.75 -3.2300721108188082 -3.6233163169455631
v 9.75 -4.5320501599662997 -4.2758713390781473
v 9.75 -2.5221705933583811 -1.5906554952897993
v 9.75 -3.8631655887592178 -2.262765919483555
v 9.75 -5.2041605841600544 -2.9348763436773098
v 9.75 -3.1942810175521363 -0.24966049988896311
v 9.75 -4.5352760129529734 -0.92177092408271832
v 9.75 -5.8762710083538101 -1.5938813482764735
v 9.75 -5.8827227143271577 5.114319481714384
v 9.7616558677190834 -7.2529995895224157 4.4275328978650617
v 9.75 -8.5647127051288301 3.7700986333268736
v 11.25 -0.50583932077711502 -5.6136404814923102
v 11.25 -3.1878293115787883 -6.9578613298798206
v 11.25 -1.1779497449708698 -4.2726454860914744
v 11.25 -1.8500601691646255 -2.9316504906906369
v 11.25 -3.1910551645654626 -3.6037609148843925
v 11.25 -4.5320501599662997 -4.2758713390781473
v 11.25 -2.5221705933583811 -1.5906554952897993
v 11.25 -5.2041605841600544 -2.9348763436773098
v 11.25 -3.1942810175521363 -0.24966049988896311
v 11.25 -4.5352760129529734 -0.92177092408271832
v 11.25 -5.8762710083538101 -1.5938813482764735
v 11.25 -3.838306057611943 1.0352985255107934
v 11.25 -5.2073864371467282 0.41922407131811856
v 11.25 -6.5483814325475649 -0.25288635287563688
v 11.25 -4.5385018659396463 2.4323294909127107
v 11.25 -6.0876372350370112 1.6558985320884703
v 11.25 -7.2204918567413205 1.0881086425252
v 11.25 -5.8827227143271577 5.114319481714384
v 11.25 -7.2237177097279943 4.4422090575206283
v 11.25 -8.5647127051288301 3.7700986333268736
v 11.25 -6.5548331385209124 6.4553144771152207
v 11.25 -7.7810081040241563 5.8035538817320207
v 11.25 -9.2368231293225858 5.1110936287277102
v 11.25 -7.2269435627146681 7.7963094725160573
v 11.25 -9.9089335535163414 6.4520886241285469
v 12.75 -1.8500601691646255 -2.9316504906906369
v 12.75 -3.1910551645654626 -3.6037609148843925
v 12.75 -4.5320501599662997 -4.2758713390781473
v 12.75 -2.5221705933583811 -1.5906554952897993
v 12.75 -3.8975770601126483 -2.4055260349087746
v 12.75 -5.2041605841600544 -2.9348763436773098
v 12.75 -3.1942810175521363 -0.24966049988896311
v 12.75 -4.5352760129529734 -0.92177092408271832
v 12.75 -5.8762710083538101 -1.5938813482764735
v 12.75 -4.5385018659396463 2.4323294909127107
v 12.75 -5.879496861340483 1.7602190667189552
v 12.75 -7.2204918567413205 1.0881086425252
v 12.75 -5.210612290133402 3.7733244863135473
v 12.75 -6.5516072855342387 3.1012140621197921
v 12.75 -7.8926022809350753 2.4291036379260369
v 12.75 -5.8827227143271577 5.114319481714384
v 12.75 -7.2237177097279943 4.4422090575206283
v 12.75 -8.5647127051288301 3.7700986333268736
v 12.881828681200041 -9.2058252509574121 5.0492466490359336
v -3.5676982538041848 -1.054404292023178 -4.5191434247391635
v 5.25 -6.5483814325475649 -0.25288635287563688
v 14.25 -0.50583932077711502 -5.6136404814923102
v 14.25 -3.1878293115787883 -6.9578613298798206
v -5.3082898042125413 -3.7991321020457272 0.95713863321725157
v 14.25 -2.5762551752534404 -5.2047870608982034
v 14.25 -1.8500601691646255 -2.9316504906906369
v 14.25 -4.5320501599662997 -4.2758713390781473
v 14.25 -5.8827227143271577 5.114319481714384
v 14.25 -7.2237177097279943 4.4422090575206283
v 14.25 -8.5647127051288301 3.7700986333268736
v 12.57885059211702 -8.6211349513737545 7.0975368679554824
v 14.25 -7.2269435627146681 7.7963094725160573
v 12.75 -1.8468343161779517 -6.285750905686065
v 14.25 -9.9089335535163414 6.4520886241285469
v 12.78554398455697 -1.1776324591150082 -4.2732785349618769
v 12.75 -3.8599397357725431 -5.6168663344789849
v -1.897807641491057 -4.0504340609515266 -0.67876678824012693
v -1.6085298085066231 -5.0029160421816998 -1.1561534083521328
v -9.140625 -3.9924121462822204 1.3427710571495306
v -3.375 -5.879496861340483 1.7602190667189552
v 0 -8.3966850990803916 3.4348498844766642
v 1.875 -11.253154401903853 9.1340786149302211
v -0.048679451843939965 -5.8646479963305866 5.0782567969170787
v 1.875 -8.5711644111021776 10.478299463317731
v -5.6153420585492952 -5.8784579805654378 1.7607397566550083
v -5.625 -6.5483814325475649 -0.25288635287563688
v 1.875 -5.8762710083538101 -1.5938813482764735
v -1.293852355522346 -6.5261608552251955 -0.2972208579087332
v 1.125 -6.5483814325475649 -0.25288635287563688
v -0.19215048185864469 -6.8153063076473908 0.27968226795216955
v -1.125 -3.8663914417458916 1.0913344955118738
v 1.875 -3.1942810175521363 -0.24966049988896311
v 1.125 -3.8663914417458916 1.0913344955118738
v 0.088252272701106027 -4.1706813418829309 1.6984538296960998
v -1.875 -8.5711644111021776 10.478299463317731
v -1.875 -11.253154401903853 9.1340786149302211
v -1.875 -5.8762710083538101 -1.5938813482764735
v -1.875 -3.1942810175521363 -0.24966049988896311
v 2.0531539555966751 -4.9496680251391041 -1.1294653540009096
v -9.28125 -7.8085884779108561 2.2614792635009322
v -8.4102859469223024 -5.1888885386063492 3.7299812483120633
v -3.7889705463333478 -9.1735686491090291 4.9848882637316025
v -3.9375 -6.5548331385209124 6.4553144771152207
v 5.281842994979959 -5.5426329921850241 -2.2595560556647749
v 5.1278979202461699 -2.9705791208612453 -0.69599061637839332
v -3.8364586132261511 -1.5586577083696085 -6.1413159877474737
v 3 -10.581043977710097 7.7930836195293844
v 3.2368441241707222 -6.6386397735481983 -0.072802873705940296
v 2.9422432566879828 -3.8727912802256501 1.1041034558847547
v 14.25 -8.566325631622167 5.4471488408245881
v 14.25 -7.2982398009940326 5.928355211694333
v -5.25 -5.5402157962569323 -2.2643788459768919
v -5.2188469600398539 -2.7004521007691693 -1.2349481582146877
v 11.25 -2.8070114852845705 -5.1259654576648694
v -7.657106408157671 -6.5936933955758255 -0.16247990556368741
v -3 -6.5483814325475649 -0.25288635287563688
v -7.7755298371058421 -3.9631520620301401 1.2843913249885321
v -3.098092783042468 -3.8926308922442368 1.1436874579622902
v 7.5 -6.5483814325475649 -0.25288635287563688
v -8.5531853162895271 -4.567488953769951 2.4901645405004493
v -1.0652944052914879 -10.773461885137312 8.1769959077444128
v -1.163330478244331 -8.0353250577392874 9.4091925646106951
v 0.89618114372836477 -7.9866446520679517 2.6167370155753926
v 0.96440730399138952 -5.3119296964678435 3.9754730171958945
v -1.279914944731402 -7.9048119682001063 2.45346441099016
v -1.125 -5.3786398961818405 4.1085732351637567
v 8.1638894161824958 -7.8215048596120225 2.2872500335953383
v 8.1924321080432616 -5.1207728392364027 3.594076776851292
v 8.2636133031335302 -7.2662114768741493 1.1793284474602257
v 8.3168577390067178 -4.6615092123841437 2.6777537992434128
v -10.09328134860424 -7.5016495795266556 1.6490746469220314
v 3.5625 -9.5728783414194645 5.781591126428129
v 3.7262290715749362 -7.1364064103505216 7.6156697087989533
v 3.75 -9.9121594065030152 9.806189039123975
v 5.2650760768754212 -6.0147540653396758 -1.3175798958944163
v 3.707196842847162 -1.9252114097685853 -6.3250337231469373
v 3.8965671809321409 -10.074260632081192 6.7819492794303224
v -3.7371412764059948 -0.50583932077711502 -5.6136404814923102
v -11.25 -8.5877803535474388 7.1142542852245567
v 2.25 -7.8926022809350753 2.4291036379260369
v 2.25 -5.879496861340483 1.7602190667189552
v 2.25 -5.210612290133402 3.7733244863135473
v -11.25 -9.2368231293225858 5.1110936287277102
v -14.25 -8.5751630390610067 7.1205781183639392
v 2.25 -3.8951440291227484 -5.5466267138751553
v 2.25 -1.1779497449708698 -4.2726454860914744
v 2.25 -1.8468343161779517 -6.285750905686065
v -11.01288822523324 -5.2130305520967077 3.7781494035795631
v 0 -10.581043977710097 7.7930836195293844
v -0.23295297518879776 -9.8553640143727783 9.8346550477428174
v 14.25 -8.5679385581155039 7.1241990483223017
v 14.25 -9.2368231293225858 5.1110936287277102
v 14.25 -6.5548331385209124 6.4553144771152207
v 14.25 -3.1910551645654626 -3.6037609148843925
v 14.25 -3.8599397357725431 -5.6168663344789849
v 14.25 -1.9028816784814389 -6.3138419996736896
v 14.25 -1.1779497449708698 -4.2726454860914744
v -6.75 -5.8751279948545454 1.7624087547619238
v -2.25 -7.2237177097279943 4.4422090575206283
v 0.039987011746585588 -7.886602938924649 9.112462131847245
v -2.25 -7.8926022809350753 2.4291036379260369
v 12.75 -9.9089335535163414 6.4520886241285469
v -6.75 -6.5483814325475649 -0.25288635287563688
v -2.25 -5.210612290133402 3.7733244863135473
v -2.25 -5.879496861340483 1.7602190667189552
v -5.3771578482170508 -3.1738196639797476 -0.29048500097093077
v 12.75 -7.2269435627146681 7.7963094725160573
v 11.25 -8.5679385581155039 7.1241990483223017
v -6.5482592206486014 -3.8444880037753983 1.0476327470443683
v -6.75 -4.5352760129529734 -0.92177092408271832
v 11.065510869223379 -7.9195696686412012 2.4829089809934786
v 11.067461607683621 -5.237392875732926 3.8267571217408953
v -12.75 -3.1878293115787883 -6.9578613298798206
v 0.33621387431682481 -4.3349197865314126 -0.82135182573268795
v 12.75 -3.1878293115787883 -6.9578613298798206
v -2.25 -3.1910551645654626 -3.6037609148843925
v 11.25 -3.8599397357725431 -5.6168663344789849
v -2.25 -3.7654558387321204 -5.8053806448010778
v 11.254298547605011 -1.7864902303479999 -6.2555062819075626
v 12.75 -0.50583932077711502 -5.6136404814923102
v -2.25 -1.1855643558285696 -4.2574528113693866
v 8.25 -8.5679385581155039 7.1241990483223017
v -14.25 -3.1910551645654626 -3.6037609148843925
v -14.25 -1.8468343161779517 -6.285750905686065
v 6.4742204805738712 -9.2627343675889726 5.162791741997629
v 6.75 -6.5548331385209124 6.4553144771152207
v -3.75 -3.8631655887592178 -2.262765919483555
v 6.75 -5.879496861340483 1.7602190667189552
v 8.25 -3.1942810175521363 -0.24966049988896311
v 6.6129703882676747 -3.7584728829526388 0.87601534252265667
v 5.25 -3.1910551645654626 -3.6037609148843925
v 5.25 -1.8468343161779517 -6.285750905686065
v -3.75 -9.9089335535163414 6.4520886241285469
v -3.5121961511024828 -7.1672841671850529 7.6772770219632749
v 3.75 -11.925264826097607 10.475073610331057
v 1.43584602401831 -7.6318307734977786 8.6041406023683678
v -1.317276742635475 -7.5479983296143587 8.4368780757757431
v 5.9661948848734383 -4.1283861494062233 1.6140664442321451
v -9.4938346494649064 -6.4025267541349775 -0.54389566736693107
v 5.625 -7.8942152074284122 4.1061538454237514
v 5.6946335748325376 -6.5783122464689443 1.4099708506236968
v 5.625 -5.2089993636400651 2.0962742788158328
v 3.375 -8.9007679172257088 4.4405961310272914
v 3.375 -7.8942152074284122 4.1061538454237514
v 1.125 -8.566325631622167 5.4471488408245881
v 0.82482698767128215 -8.8739048183670342 4.3869988651112761
v -5.625 -6.5532202120275755 4.7782642696175062
v -1.125 -7.8974410604150869 7.4602542604191795
v -1.125 -8.566325631622167 5.4471488408245881
v -0.99553978984979785 -8.8268220470895731 4.2930593004505777
v 9 -8.0606298869835147 2.7643523867762458
v -8.5426343655604242 -6.4592448764485555 -0.43073164634720351
v -6.9375 -6.5548331385209124 6.4553144771152207
v 0.91428171991021689 -10.594553015033682 9.4641714631675775
v -4.4263508443808322 -6.3797029090843438 -0.5894338124201326
v 1.000625094813818 -4.6044174807756884 2.5638443528045403
v -1.125 -7.388519462789759 1.4233573913754092
f 1 3 15 
f 497 3 1 
f 1 15 16 
f 1 16 497 
f 17 4 2 
f 2 4 497 
f 2 16 486 
f 497 16 2 
f 486 17 2 
f 3 5 18 
f 496 5 3 
f 44 15 3 
f 3 18 44 
f 497 496 3 
f 20 6 4 
f 4 6 496 
f 4 17 20 
f 4 496 497 
f 19 18 5 
f 496 19 5 
f 20 19 6 
f 6 19 496 
f 7 8 11 
f 34 8 7 
f 11 10 7 
f 7 10 33 
f 7 33 34 
f 8 9 12 
f 34 9 8 
f 12 11 8 
f 37 12 9 
f 9 34 35 
f 9 35 37 
f 10 11 13 
f 10 13 36 
f 36 33 10 
f 11 12 14 
f 457 13 11 
f 11 14 457 
f 40 14 12 
f 12 37 40 
f 38 36 13 
f 39 38 13 
f 457 39 13 
f 40 39 14 
f 14 39 457 
f 42 16 15 
f 15 41 42 
f 44 41 15 
f 16 42 43 
f 16 43 486 
f 49 20 17 
f 17 43 46 
f 486 43 17 
f 17 46 49 
f 18 19 22 
f 22 21 18 
f 18 21 47 
f 47 44 18 
f 19 20 23 
f 23 22 19 
f 51 23 20 
f 20 49 51 
f 21 22 25 
f 25 24 21 
f 21 24 50 
f 50 47 21 
f 22 23 26 
f 26 25 22 
f 51 26 23 
f 24 25 52 
f 52 50 24 
f 25 26 53 
f 53 52 25 
f 26 51 54 
f 54 53 26 
f 27 28 31 
f 59 28 27 
f 31 30 27 
f 27 30 58 
f 27 58 59 
f 28 29 32 
f 59 29 28 
f 32 31 28 
f 62 32 29 
f 29 59 60 
f 29 60 62 
f 30 31 34 
f 34 33 30 
f 30 33 63 
f 461 58 30 
f 30 63 461 
f 31 32 35 
f 35 34 31 
f 62 35 32 
f 33 36 63 
f 65 37 35 
f 35 62 65 
f 36 38 66 
f 66 63 36 
f 69 40 37 
f 37 65 456 
f 456 69 37 
f 38 39 68 
f 68 66 38 
f 39 40 69 
f 452 68 39 
f 39 69 452 
f 44 42 41 
f 45 43 42 
f 42 44 45 
f 43 45 46 
f 47 45 44 
f 48 46 45 
f 45 47 48 
f 46 48 49 
f 71 48 47 
f 47 50 70 
f 47 70 71 
f 72 49 48 
f 48 71 72 
f 72 51 49 
f 50 52 73 
f 73 70 50 
f 75 54 51 
f 51 72 75 
f 52 53 56 
f 56 55 52 
f 52 55 76 
f 76 73 52 
f 53 54 57 
f 57 56 53 
f 78 57 54 
f 54 75 78 
f 55 56 59 
f 59 58 55 
f 55 58 392 
f 392 76 55 
f 56 57 60 
f 60 59 56 
f 79 60 57 
f 57 78 512 
f 512 79 57 
f 58 61 392 
f 461 61 58 
f 444 62 60 
f 60 79 444 
f 61 80 414 
f 461 80 61 
f 433 392 61 
f 61 414 433 
f 82 65 62 
f 413 82 62 
f 444 413 62 
f 66 64 63 
f 63 64 80 
f 63 80 461 
f 67 65 64 
f 64 65 81 
f 64 66 67 
f 81 80 64 
f 65 67 456 
f 82 81 65 
f 68 67 66 
f 67 68 452 
f 452 69 67 
f 67 69 456 
f 73 71 70 
f 74 72 71 
f 71 73 74 
f 72 74 75 
f 76 74 73 
f 77 75 74 
f 74 76 77 
f 75 77 78 
f 84 77 76 
f 76 83 84 
f 392 83 76 
f 85 78 77 
f 77 84 85 
f 78 85 512 
f 79 104 107 
f 428 104 79 
f 79 107 413 
f 79 413 444 
f 525 428 79 
f 79 512 525 
f 80 81 86 
f 80 86 414 
f 81 82 87 
f 87 86 81 
f 88 87 82 
f 413 88 82 
f 483 84 83 
f 430 101 83 
f 83 101 483 
f 83 392 430 
f 102 85 84 
f 483 102 84 
f 85 102 428 
f 85 428 525 
f 525 512 85 
f 86 87 90 
f 90 89 86 
f 86 89 108 
f 108 105 86 
f 86 105 414 
f 87 88 91 
f 91 90 87 
f 110 91 88 
f 88 107 110 
f 413 107 88 
f 89 90 93 
f 93 92 89 
f 89 92 113 
f 526 108 89 
f 89 113 526 
f 90 91 94 
f 94 93 90 
f 115 94 91 
f 91 110 112 
f 91 112 115 
f 92 93 113 
f 93 94 114 
f 114 113 93 
f 115 114 94 
f 95 96 99 
f 132 96 95 
f 99 98 95 
f 95 98 131 
f 95 131 132 
f 96 97 100 
f 133 97 96 
f 100 99 96 
f 96 132 133 
f 133 100 97 
f 98 99 483 
f 98 101 426 
f 483 101 98 
f 426 131 98 
f 99 100 102 
f 99 102 483 
f 425 102 100 
f 100 133 425 
f 101 377 479 
f 482 377 101 
f 479 426 101 
f 101 430 482 
f 425 399 102 
f 102 399 476 
f 476 428 102 
f 103 105 106 
f 414 105 103 
f 103 106 471 
f 103 304 377 
f 398 304 103 
f 103 377 482 
f 471 398 103 
f 433 414 103 
f 103 430 433 
f 482 430 103 
f 104 106 107 
f 471 106 104 
f 104 134 398 
f 399 134 104 
f 104 398 471 
f 476 399 104 
f 104 428 476 
f 108 106 105 
f 109 107 106 
f 106 108 109 
f 107 109 110 
f 520 109 108 
f 108 111 135 
f 526 111 108 
f 108 135 520 
f 137 110 109 
f 109 136 137 
f 520 136 109 
f 137 112 110 
f 111 113 138 
f 526 113 111 
f 416 135 111 
f 111 138 416 
f 140 115 112 
f 112 137 415 
f 415 140 112 
f 113 114 138 
f 114 115 139 
f 139 138 114 
f 140 139 115 
f 116 117 120 
f 145 117 116 
f 120 119 116 
f 116 119 144 
f 116 144 145 
f 117 118 121 
f 145 118 117 
f 121 120 117 
f 148 121 118 
f 118 145 146 
f 118 146 148 
f 119 120 123 
f 123 122 119 
f 119 122 147 
f 147 144 119 
f 120 121 124 
f 124 123 120 
f 148 124 121 
f 122 123 149 
f 149 147 122 
f 123 124 150 
f 150 149 123 
f 124 148 151 
f 151 150 124 
f 125 126 129 
f 419 126 125 
f 129 128 125 
f 125 128 373 
f 125 373 451 
f 451 419 125 
f 126 127 130 
f 152 127 126 
f 130 129 126 
f 419 152 126 
f 153 130 127 
f 127 152 153 
f 128 129 132 
f 132 131 128 
f 128 131 373 
f 129 130 133 
f 133 132 129 
f 156 133 130 
f 130 153 156 
f 157 154 131 
f 131 154 373 
f 426 157 131 
f 133 156 158 
f 133 158 425 
f 134 182 393 
f 429 182 134 
f 134 393 398 
f 134 399 528 
f 528 429 134 
f 184 136 135 
f 135 136 520 
f 416 184 135 
f 185 137 136 
f 136 184 472 
f 472 185 136 
f 137 185 415 
f 138 139 142 
f 142 141 138 
f 138 141 507 
f 507 416 138 
f 139 140 143 
f 143 142 139 
f 506 143 140 
f 140 415 506 
f 141 142 145 
f 145 144 141 
f 141 144 164 
f 164 162 141 
f 141 162 507 
f 142 143 146 
f 146 145 142 
f 166 146 143 
f 143 163 166 
f 506 163 143 
f 144 147 164 
f 166 148 146 
f 147 149 167 
f 167 164 147 
f 169 151 148 
f 148 166 169 
f 149 150 170 
f 170 167 149 
f 150 151 171 
f 171 170 150 
f 151 169 172 
f 172 171 151 
f 175 153 152 
f 152 174 175 
f 419 174 152 
f 491 156 153 
f 153 175 491 
f 157 155 154 
f 154 155 177 
f 154 177 373 
f 155 156 178 
f 500 156 155 
f 155 157 500 
f 489 177 155 
f 155 178 489 
f 500 158 156 
f 491 178 156 
f 157 159 160 
f 426 159 157 
f 157 160 500 
f 158 160 161 
f 500 160 158 
f 158 161 425 
f 390 160 159 
f 159 377 431 
f 479 377 159 
f 411 390 159 
f 431 411 159 
f 159 426 479 
f 391 161 160 
f 160 390 391 
f 161 391 410 
f 161 410 429 
f 528 425 161 
f 161 429 528 
f 162 164 408 
f 162 189 507 
f 510 189 162 
f 162 408 435 
f 162 435 510 
f 409 166 163 
f 163 191 434 
f 506 191 163 
f 434 409 163 
f 167 165 164 
f 164 165 408 
f 168 166 165 
f 165 166 409 
f 165 167 168 
f 165 206 408 
f 409 206 165 
f 166 168 169 
f 170 168 167 
f 171 169 168 
f 168 170 171 
f 169 171 172 
f 176 174 173 
f 173 174 419 
f 494 176 173 
f 451 373 173 
f 173 373 494 
f 173 419 451 
f 176 175 174 
f 175 176 491 
f 176 177 489 
f 494 177 176 
f 489 178 176 
f 176 178 491 
f 494 373 177 
f 179 390 411 
f 487 390 179 
f 179 404 407 
f 411 404 179 
f 406 405 179 
f 179 405 487 
f 407 406 179 
f 410 391 180 
f 180 391 487 
f 180 400 402 
f 412 400 180 
f 403 401 180 
f 180 401 410 
f 180 402 403 
f 487 412 180 
f 181 183 477 
f 478 183 181 
f 181 194 404 
f 439 194 181 
f 181 304 393 
f 431 304 181 
f 181 393 478 
f 181 404 431 
f 477 439 181 
f 474 183 182 
f 182 183 478 
f 478 393 182 
f 429 401 182 
f 182 401 530 
f 182 438 474 
f 530 438 182 
f 472 184 183 
f 183 184 477 
f 183 185 472 
f 474 185 183 
f 184 186 396 
f 416 186 184 
f 184 396 439 
f 184 439 477 
f 185 188 415 
f 523 188 185 
f 438 394 185 
f 185 394 523 
f 474 438 185 
f 189 187 186 
f 186 187 197 
f 507 189 186 
f 197 196 186 
f 186 196 396 
f 186 416 507 
f 190 188 187 
f 187 188 522 
f 187 189 190 
f 522 197 187 
f 188 190 191 
f 188 191 506 
f 188 198 522 
f 523 198 188 
f 506 415 188 
f 521 190 189 
f 510 199 189 
f 189 199 521 
f 200 191 190 
f 521 200 190 
f 191 200 201 
f 191 201 462 
f 462 434 191 
f 192 208 397 
f 463 208 192 
f 192 397 473 
f 435 408 192 
f 192 408 463 
f 473 435 192 
f 193 204 395 
f 462 204 193 
f 193 206 409 
f 463 206 193 
f 193 395 527 
f 193 409 434 
f 193 434 462 
f 527 463 193 
f 194 396 437 
f 439 396 194 
f 407 404 194 
f 529 407 194 
f 194 437 529 
f 402 214 195 
f 195 214 436 
f 436 394 195 
f 195 394 438 
f 403 402 195 
f 530 403 195 
f 195 438 530 
f 196 197 220 
f 196 220 396 
f 197 198 518 
f 522 198 197 
f 221 220 197 
f 518 221 197 
f 198 222 518 
f 519 222 198 
f 198 394 519 
f 523 394 198 
f 224 200 199 
f 199 200 521 
f 199 223 224 
f 509 223 199 
f 199 473 509 
f 510 473 199 
f 224 201 200 
f 225 204 201 
f 201 204 462 
f 201 224 225 
f 446 223 202 
f 202 223 509 
f 202 248 265 
f 397 248 202 
f 202 265 446 
f 509 397 202 
f 203 207 459 
f 460 207 203 
f 229 226 203 
f 203 226 460 
f 459 229 203 
f 204 225 420 
f 420 395 204 
f 458 207 205 
f 205 207 460 
f 205 228 230 
f 460 228 205 
f 205 230 458 
f 463 408 206 
f 211 210 207 
f 207 210 459 
f 458 211 207 
f 208 248 397 
f 447 248 208 
f 395 249 208 
f 208 249 447 
f 527 395 208 
f 208 463 527 
f 209 210 231 
f 459 210 209 
f 231 229 209 
f 209 229 459 
f 210 211 232 
f 232 231 210 
f 211 230 233 
f 458 230 211 
f 233 232 211 
f 418 237 212 
f 212 237 422 
f 422 240 212 
f 212 240 511 
f 212 281 418 
f 503 281 212 
f 511 503 212 
f 213 215 454 
f 455 215 213 
f 213 240 422 
f 454 240 213 
f 422 406 213 
f 213 406 529 
f 213 437 455 
f 529 437 213 
f 214 215 453 
f 454 215 214 
f 242 241 214 
f 214 241 454 
f 421 242 214 
f 214 402 421 
f 453 436 214 
f 215 217 218 
f 455 217 215 
f 215 218 219 
f 215 219 453 
f 502 281 216 
f 216 281 503 
f 216 284 443 
f 503 284 216 
f 216 307 343 
f 443 307 216 
f 340 323 216 
f 216 323 502 
f 343 340 216 
f 243 218 217 
f 217 220 243 
f 396 220 217 
f 437 396 217 
f 455 437 217 
f 517 219 218 
f 218 243 244 
f 218 244 517 
f 516 222 219 
f 219 222 519 
f 219 245 516 
f 517 245 219 
f 219 394 436 
f 519 394 219 
f 219 436 453 
f 220 221 224 
f 224 223 220 
f 220 223 446 
f 246 243 220 
f 446 246 220 
f 221 222 225 
f 518 222 221 
f 225 224 221 
f 445 225 222 
f 222 247 445 
f 516 247 222 
f 450 420 225 
f 225 445 450 
f 226 229 255 
f 226 255 505 
f 226 449 460 
f 505 449 226 
f 345 308 227 
f 227 308 442 
f 227 325 342 
f 432 325 227 
f 227 342 345 
f 442 432 227 
f 259 230 228 
f 228 256 259 
f 505 256 228 
f 460 449 228 
f 228 449 505 
f 229 231 257 
f 257 255 229 
f 261 233 230 
f 230 259 261 
f 231 232 235 
f 235 234 231 
f 231 234 260 
f 260 257 231 
f 232 233 236 
f 236 235 232 
f 261 236 233 
f 234 235 238 
f 238 237 234 
f 234 237 418 
f 418 260 234 
f 235 236 239 
f 239 238 235 
f 417 239 236 
f 236 261 417 
f 237 238 412 
f 412 405 237 
f 237 405 422 
f 238 239 412 
f 239 374 421 
f 448 374 239 
f 239 400 412 
f 421 400 239 
f 239 417 448 
f 454 241 240 
f 240 241 515 
f 240 284 511 
f 515 284 240 
f 241 242 514 
f 514 501 241 
f 241 501 515 
f 374 285 242 
f 242 285 514 
f 421 374 242 
f 290 244 243 
f 243 246 289 
f 243 289 290 
f 513 245 244 
f 244 245 517 
f 244 290 513 
f 291 247 245 
f 245 247 516 
f 513 291 245 
f 446 262 246 
f 246 262 499 
f 499 289 246 
f 247 264 445 
f 498 264 247 
f 247 291 498 
f 251 250 248 
f 248 250 268 
f 447 251 248 
f 268 265 248 
f 249 251 447 
f 508 251 249 
f 249 267 270 
f 420 267 249 
f 249 270 272 
f 249 272 508 
f 249 395 420 
f 250 251 253 
f 253 252 250 
f 250 252 271 
f 271 268 250 
f 254 253 251 
f 508 254 251 
f 252 253 273 
f 273 271 252 
f 253 254 274 
f 274 273 253 
f 254 272 275 
f 508 272 254 
f 275 274 254 
f 255 257 258 
f 255 258 505 
f 256 258 259 
f 505 258 256 
f 260 258 257 
f 261 259 258 
f 258 260 504 
f 504 261 258 
f 260 276 277 
f 279 276 260 
f 260 277 504 
f 418 279 260 
f 261 277 278 
f 504 277 261 
f 261 278 280 
f 261 280 417 
f 265 263 262 
f 262 263 292 
f 446 265 262 
f 262 292 499 
f 266 264 263 
f 263 264 293 
f 263 265 266 
f 293 292 263 
f 264 266 267 
f 264 267 450 
f 294 293 264 
f 498 294 264 
f 450 445 264 
f 268 266 265 
f 269 267 266 
f 266 268 269 
f 267 269 270 
f 267 420 450 
f 296 269 268 
f 268 271 295 
f 268 295 296 
f 297 270 269 
f 269 296 297 
f 297 272 270 
f 271 273 298 
f 298 295 271 
f 300 275 272 
f 272 297 300 
f 273 274 301 
f 301 298 273 
f 274 275 302 
f 302 301 274 
f 275 300 303 
f 303 302 275 
f 279 277 276 
f 280 278 277 
f 277 279 280 
f 282 280 279 
f 279 281 282 
f 418 281 279 
f 280 282 283 
f 280 283 417 
f 305 282 281 
f 502 305 281 
f 306 283 282 
f 282 305 306 
f 283 306 432 
f 432 374 283 
f 283 374 448 
f 448 417 283 
f 287 286 284 
f 284 286 441 
f 501 287 284 
f 284 441 443 
f 515 501 284 
f 284 503 511 
f 288 287 285 
f 285 287 501 
f 440 288 285 
f 285 374 432 
f 285 432 442 
f 442 440 285 
f 285 501 514 
f 286 287 290 
f 290 289 286 
f 286 289 309 
f 286 309 441 
f 287 288 291 
f 291 290 287 
f 311 291 288 
f 440 311 288 
f 312 309 289 
f 499 312 289 
f 290 291 513 
f 291 311 314 
f 291 314 498 
f 292 293 315 
f 315 312 292 
f 292 312 499 
f 293 294 316 
f 495 315 293 
f 293 316 495 
f 294 314 316 
f 498 314 294 
f 298 296 295 
f 299 297 296 
f 296 298 299 
f 297 299 300 
f 301 299 298 
f 302 300 299 
f 299 301 302 
f 300 302 303 
f 431 377 304 
f 398 393 304 
f 325 306 305 
f 305 323 324 
f 502 323 305 
f 305 324 325 
f 306 325 432 
f 441 326 307 
f 307 326 485 
f 485 343 307 
f 443 441 307 
f 484 328 308 
f 308 328 524 
f 308 345 484 
f 308 440 442 
f 524 440 308 
f 312 310 309 
f 309 310 326 
f 309 326 441 
f 313 311 310 
f 310 311 327 
f 310 312 313 
f 327 326 310 
f 311 313 314 
f 328 327 311 
f 524 328 311 
f 311 440 524 
f 315 313 312 
f 316 314 313 
f 313 315 495 
f 495 316 313 
f 317 318 321 
f 333 318 317 
f 321 320 317 
f 317 320 332 
f 317 332 333 
f 318 319 322 
f 333 319 318 
f 322 321 318 
f 336 322 319 
f 319 333 334 
f 319 334 336 
f 320 321 324 
f 324 323 320 
f 320 323 335 
f 335 332 320 
f 321 322 325 
f 325 324 321 
f 336 325 322 
f 337 335 323 
f 340 337 323 
f 325 336 339 
f 325 339 342 
f 326 327 346 
f 326 346 485 
f 327 328 347 
f 347 346 327 
f 348 347 328 
f 484 348 328 
f 492 331 329 
f 329 331 493 
f 329 386 492 
f 493 386 329 
f 330 386 488 
f 492 386 330 
f 488 389 330 
f 330 389 490 
f 490 427 330 
f 330 427 492 
f 333 332 331 
f 331 332 388 
f 427 333 331 
f 331 388 493 
f 492 427 331 
f 332 335 354 
f 332 354 388 
f 427 334 333 
f 356 336 334 
f 490 356 334 
f 334 427 490 
f 335 337 357 
f 357 354 335 
f 359 339 336 
f 336 356 359 
f 340 338 337 
f 337 338 360 
f 360 357 337 
f 341 339 338 
f 338 339 361 
f 338 340 341 
f 361 360 338 
f 339 341 342 
f 339 359 362 
f 362 361 339 
f 343 341 340 
f 344 342 341 
f 341 343 344 
f 342 344 345 
f 364 344 343 
f 343 363 364 
f 366 363 343 
f 485 366 343 
f 365 345 344 
f 344 364 365 
f 345 365 368 
f 345 368 484 
f 346 347 350 
f 350 349 346 
f 346 349 369 
f 369 366 346 
f 346 366 485 
f 347 348 351 
f 351 350 347 
f 372 351 348 
f 348 368 371 
f 484 368 348 
f 348 371 372 
f 349 350 352 
f 349 352 480 
f 466 369 349 
f 480 466 349 
f 350 351 353 
f 481 352 350 
f 350 353 481 
f 372 353 351 
f 352 384 480 
f 481 384 352 
f 353 372 475 
f 475 384 353 
f 353 384 481 
f 357 355 354 
f 354 355 379 
f 354 379 470 
f 470 388 354 
f 358 356 355 
f 355 356 380 
f 355 357 358 
f 467 379 355 
f 355 380 467 
f 356 358 359 
f 389 380 356 
f 490 389 356 
f 360 358 357 
f 361 359 358 
f 358 360 361 
f 359 361 362 
f 366 364 363 
f 367 365 364 
f 364 366 367 
f 365 367 368 
f 369 367 366 
f 370 368 367 
f 367 369 370 
f 368 370 371 
f 382 370 369 
f 369 381 382 
f 466 381 369 
f 383 371 370 
f 370 382 383 
f 383 372 371 
f 372 383 465 
f 465 387 372 
f 372 387 475 
f 375 378 469 
f 470 378 375 
f 469 386 375 
f 375 386 493 
f 375 388 470 
f 493 388 375 
f 376 378 468 
f 469 378 376 
f 376 386 469 
f 488 386 376 
f 468 389 376 
f 376 389 488 
f 378 379 467 
f 470 379 378 
f 467 380 378 
f 378 380 468 
f 380 389 468 
f 424 382 381 
f 466 424 381 
f 423 383 382 
f 424 423 382 
f 383 423 465 
f 464 385 384 
f 384 385 480 
f 384 387 464 
f 475 387 384 
f 464 424 385 
f 385 424 466 
f 385 466 480 
f 387 423 464 
f 465 423 387 
f 487 391 390 
f 433 430 392 
f 509 473 397 
f 399 425 528 
f 421 402 400 
f 401 403 530 
f 429 410 401 
f 404 411 431 
f 405 406 422 
f 405 412 487 
f 406 407 529 
f 423 424 464 
f 435 473 510 
