v -15.75 4.4120957323943655 -1.9362754526267221
v -15.75 2.0653544904429015 -3.1124686949657931
v -15.75 -0.95188424920898151 -4.6247171494017429
v -15.75 3.7399853082006098 -0.59528045722588496
v -15.75 1.2340192125721956 -1.7578934611577788
v -15.75 -1.6239946734027368 -3.2837221540009063
v -15.75 3.067874884006855 0.7457145381749517
v -15.75 0.72113364205539066 -0.43047870416411982
v -15.75 -2.2961050975964925 -1.9427271586000696
v -13.125 4.4120957323943655 -1.9362754526267221
v -12.997302856428551 2.1192423894861978 -3.0854599299747845
v -13.125 -0.95188424920898151 -4.6247171494017429
v -13.5 3.7399853082006098 -0.59528045722588496
v -14.25 3.067874884006855 0.7457145381749517
v -12.75 3.067874884006855 0.7457145381749517
v -12.75 0.72113364205539066 -0.43047870416411982
v -12.75 -2.2961050975964925 -1.9427271586000696
v -12.75 2.3957644598130994 2.0867095335757884
v -12.75 1.7236540356193444 3.427704528976625
v -12.75 -0.63734254004097846 2.2443664737046602
v -12.75 -3.6403259459840029 0.73926283220160394
v -9.75 4.4120957323943655 -1.9362754526267221
v -9.75 2.0653544904429015 -3.1124686949657931
v -9.75 -0.95188424920898151 -4.6247171494017429
v -9.75 3.067874884006855 0.7457145381749517
v -9.75 0.72113364205539066 -0.43047870416411982
v -9.75 -2.2961050975964925 -1.9427271586000696
v -9.75 1.7236540356193444 3.427704528976625
v -9.75 -0.62308720633211989 2.2515112866375535
v -9.75 -3.6403259459840029 0.73926283220160394
v -9.75 0.54746079328027264 5.7744457709280894
v -9.75 -1.7817069539297803 4.6280352233034394
v -9.75 -4.8165191883230749 3.0860040741530685
v -9.75 -0.9647876611556766 8.791684510579973
v -9.75 -3.3152560126089456 7.6136232305846336
v -9.75 -6.3287676427590238 6.1032428138049513
v -8.2732820173978929 3.067874884006855 0.7457145381749517
v -7.875 -3.3042707338871251 0.068765334501185382
v -6.75 4.4120957323943655 -1.9362754526267221
v -6.75 2.0653544904429015 -3.1124686949657931
v -6.75 -0.95188424920898151 -4.6247171494017429
v -6.75 3.067874884006855 0.7457145381749517
v -6.75 0.72113364205539066 -0.43047870416411982
v -6.75 -2.2961050975964925 -1.9427271586000696
v -6.75 1.7236540356193444 3.427704528976625
v -6.75 -0.62308720633211989 2.2515112866375535
v -6.75 -3.6403259459840029 0.73926283220160394
v -6.75 1.0515436114255892 4.7686995243774621
v -6.75 -4.3124363701777577 2.0802578276024408
v -6.75 0.37943318723183372 6.1096945197782988
v -6.75 -1.9673080547196304 4.9335012774392268
v -6.75 -4.9845467943715134 3.4212528230032779
v -6.75 -0.9647876611556766 8.791684510579973
v -6.75 -3.3115289031071411 7.6154912682409011
v -6.7478451068113454 -6.3237305622287678 6.0931928286546579
v -6.75 -2.3090085095431867 11.473674501381645
v -6.75 -4.6557497514946506 10.297481259042573
v -6.75 -7.6729884911465343 8.7852328046066237
v -5.254097507604369 -0.65662323310469051 2.2347029366756295
v -5.25 -3.6403259459840029 0.73926283220160394
v -5.25 -4.9845467943715134 3.4212528230032779
v -3.75 4.4120957323943655 -1.9362754526267221
v -3.75 2.0653544904429015 -3.1124686949657931
v -3.75 -0.95188424920898151 -4.6247171494017429
v -3.75 3.067874884006855 0.7457145381749517
v -3.75 0.72113364205539066 -0.43047870416411982
v -3.75 -2.2961050975964925 -1.9427271586000696
v -3.75 1.7236540356193444 3.427704528976625
v -3.75 -0.62308720633211989 2.2515112866375535
v -3.75 -3.6403259459840029 0.73926283220160394
v -12.021963981676571 -2.6212253311440197 -1.2940471346088023
v 5.25 -4.064024045715108 5.3507476711969844
v -3.75 -4.3124363701777577 2.0802578276024408
v -3.75 0.37943318723183372 6.1096945197782988
v -3.75 -2.112623076212186 4.8606689842002115
v -3.75 -4.9845467943715134 3.4212528230032779
v -3.75 -0.9647876611556766 8.791684510579973
v -3.75 -3.3115289031071411 7.6154912682409011
v -3.75 -6.3287676427590238 6.1032428138049513
v -3.75 -2.3090085095431867 11.473674501381645
v -3.75 -4.6557497514946506 10.297481259042573
v -3.75 -7.6729884911465343 8.7852328046066237
v -0.375 2.4797782628373195 1.9190851591506837
v -0.75 4.4120957323943655 -1.9362754526267221
v -0.75 2.0653544904429015 -3.1124686949657931
v -0.75 -0.95188424920898151 -4.6247171494017429
v -0.75 3.067874884006855 0.7457145381749517
v -0.75 0.72113364205539066 -0.43047870416411982
v -0.75 -2.2961050975964925 -1.9427271586000696
v -0.75 1.7236540356193444 3.427704528976625
v -0.75 -0.62308720633211989 2.2515112866375535
v -0.75 -3.6403259459840029 0.73926283220160394
v -0.75 1.0515436114255892 4.7686995243774621
v -0.75 -1.091357608203378 3.6462138895874157
v -0.75 -4.3124363701777577 2.0802578276024408
v -0.75 0.37943318723183372 6.1096945197782988
v -0.75 -1.9673080547196304 4.9335012774392268
v -0.75 -4.9845467943715134 3.4212528230032779
v -0.75 -0.9647876611556766 8.791684510579973
v -0.75 -3.3115289031071411 7.6154912682409011
v -0.75 -6.3287676427590238 6.1032428138049513
v -0.75 -7.0008780669527795 7.4442378092057879
v -0.75 -2.3090085095431867 11.473674501381645
v -0.75 -4.6557497514946506 10.297481259042573
v -0.75 -7.6729884911465343 8.7852328046066237
v 0.75 1.7236540356193444 3.427704528976625
v 0.92236015855654996 -0.60622587758966884 2.2599622315347574
v 0.75 -3.6403259459840029 0.73926283220160394
v 0.75 0.37943318723183372 6.1096945197782988
v 0.75 -1.9673080547196304 4.9335012774392268
v 0.75 -4.9845467943715134 3.4212528230032779
v 2.6249999999999996 -5.4886296125168297 4.4269990695539052
v 0.53689830364237956 -6.6636462609914915 6.7713927709420956
v 0.75 -7.6729884911465343 8.7852328046066237
v 2.2499999999999996 4.4120957323943655 -1.9362754526267221
v 2.2499999999999996 2.0653544904429015 -3.1124686949657931
v 2.2499999999999996 -0.95188424920898151 -4.6247171494017429
v -6.75 -2.8283302454207195 2.9840927830472959
v -9.75 -0.1153753035767956 -2.5275979267829314
v 2.2499999999999996 3.067874884006855 0.7457145381749517
v 2.2499999999999996 0.72113364205539066 -0.43047870416411982
v 2.2499999999999996 -2.2961050975964925 -1.9427271586000696
v 2.2499999999999996 1.7236540356193444 3.427704528976625
v 2.2499999999999996 -0.62308720633211989 2.2515112866375535
v 2.2499999999999996 -3.6403259459840029 0.73926283220160394
v 2.2499999999999996 1.0515436114255892 4.7686995243774621
v 2.2499999999999996 -1.6710662483149905 3.2029350640710605
v 2.2499999999999996 -4.3124363701777577 2.0802578276024408
v 2.2499999999999996 0.37943318723183372 6.1096945197782988
v 2.2499999999999996 -1.9673080547196304 4.9335012774392268
v 2.2499999999999996 -4.9845467943715134 3.4212528230032779
v 2.2499999999999996 -0.9647876611556766 8.791684510579973
v 2.2499999999999996 -3.3115289031071411 7.6154912682409011
v 2.2499999999999996 -6.3287676427590238 6.1032428138049513
v 2.2499999999999996 -7.0008780669527795 7.4442378092057879
v 2.2499999999999996 -2.3090085095431867 11.473674501381645
v 2.2499999999999996 -4.6557497514946506 10.297481259042573
v 2.2499999999999996 -7.6729884911465343 8.7852328046066237
v -11.25 -2.1317065761580611 1.4953870594195786
v 3.7499999999999996 -2.2961050975964925 -1.9427271586000696
v -5.25 0.55673512061695973 -3.868592922183768
v -6.75 -0.1153753035767956 -2.5275979267829314
v 3.6677002525818767 -4.0883104871489468 1.6330817733968215
v -0.75 -0.1153753035767956 -2.5275979267829314
v 0.75 0.55673512061695973 -3.868592922183768
v 3.7499999999999996 -6.3287676427590238 6.1032428138049513
v 5.25 4.4120957323943655 -1.9362754526267221
v 5.25 2.0653544904429015 -3.1124686949657931
v 5.25 -0.95188424920898151 -4.6247171494017429
v 11.25 -0.1153753035767956 -2.5275979267829314
v 5.25 1.3932440662491457 -1.7714736995649565
v -2.071551657844044 -4.8147674733952996 6.8620639127280736
v 5.25 3.067874884006855 0.7457145381749517
v 5.25 0.72113364205539066 -0.43047870416411982
v 5.25 -2.2961050975964925 -1.9427271586000696
v 5.25 1.7236540356193444 3.427704528976625
v 5.2535735865358912 -0.51150842119914575 2.307434884312376
v 5.25 -3.6403259459840029 0.73926283220160394
v 5.25 0.48931368524668262 5.8904609048454262
v 5.25 -1.7992804486711917 4.5982525285890183
v 5.25 -4.8165191883230749 3.0860040741530685
v 5.25 -0.9647876611556766 8.791684510579973
v 5.25 -3.3115289031071411 7.6154912682409011
v 5.25 -6.3287676427590238 6.1032428138049513
v 7.875 4.4120957323943655 -1.9362754526267221
v 7.8910703115417302 1.904619928501613 -3.1930293047961564
v 7.875 -0.95188424920898151 -4.6247171494017429
v -8.25 -4.8201482729330829 6.8593670410229262
v -3.75 -5.4922586971268377 8.2003620364237619
v 9.7525509773733976 -0.83764741893947781 -1.2117441106150166
v 8.25 3.067874884006855 0.7457145381749517
v 8.25 0.74888724644626259 -0.41656852039458325
v 8.25 -2.2961050975964925 -1.9427271586000696
v -8.4255587929331472 -5.4947516560295755 4.4392137732940924
v 6.9726417854925078 -2.3776420409921473 1.3721235199128432
v 8.25 -2.9682155217902473 -0.60173216319923295
v 8.25 1.7236540356193444 3.427704528976625
v 8.25 -0.62308720633211989 2.2515112866375535
v 8.25 -3.6403259459840029 0.73926283220160394
v -2.4312658436440562 -0.82095488200180122 -1.2033777646401771
v -3.75 -0.1153753035767956 -2.5275979267829314
v -14.25 -0.78748572777055081 -1.1866029313820947
v 11.25 4.4120957323943655 -1.9362754526267221
v 11.25 2.0653544904429015 -3.1124686949657931
v 11.25 -0.95188424920898151 -4.6247171494017429
v -5.5444069510404619 -5.8543482409664591 9.6967403599640569
v 11.25 3.067874884006855 0.7457145381749517
v 11.25 0.72113364205539066 -0.43047870416411982
v 11.25 -2.2961050975964925 -1.9427271586000696
v -6.75 -5.3955710311938452 8.0089239206267919
v 2.2499999999999996 -0.1153753035767956 -2.5275979267829314
v -12.75 -1.4595961519643059 0.15439206401874195
v -8.4172089140493771 -0.76855128553917973 -1.1771129362339807
v 9.5625 3.2387251114186331 -2.5243720737962576
v 5.25 -1.3820340549134342 6.6949685195844957
v 5.25 -2.7198031973275971 2.668757680395311
v -9.75 -1.3820340549134342 6.6949685195844957
v -14.4375 0.55673512061695973 -3.868592922183768
v -5.25 -1.6239946734027368 -3.2837221540009063
v -5.3218512205954589 2.3280285879374105 2.2218561730634474
v 0.75 -1.6239946734027368 -3.2837221540009063
v 1.2983447481883399 -2.9669934326780183 -0.60417047589970796
v -5.1228176798680334 3.7239436225768765 -0.56327407945689689
v -11.37801558928475 -2.9900518650971337 -0.5581642820322128
v 0.86576659737785722 3.7928903012646069 -0.70083652119504558
v 9.6866517318461991 -1.6119116906477484 -3.3078301261743643
v -2.25 -5.656657218565269 4.7622478184041146
v 9.75 3.7399853082006098 -0.59528045722588496
v -2.044573869800399 -0.23525611642722055 7.3361228718188416
v -8.4749076513675146 -0.19731923320669942 7.2604311867793614
v -1.9225401408456391 -3.0500464354851085 -0.43846309046386933
v 6.75 2.3957644598130994 2.0867095335757884
v 6.75 -1.6239946734027368 -3.2837221540009063
v 6.75 3.7399853082006098 -0.59528045722588496
v 3.5953621652348526 -0.28955178214553212 7.4444536064411375
v 4.0002917877267503 -2.9861397774712941 -0.56596968087588317
v -5.0365593109772524 -7.0710745503484462 7.584293861812391
v -5.25 -5.656657218565269 4.7622478184041146
v 3.7884068299279838 2.4167517962324672 2.0448355913007141
v -5.25 -1.6368980853494319 10.132679505980809
v -5.2376555746890654 -0.27426839506617096 7.4139601862404572
v -5.5852065909121462 -2.8345701266003918 -0.86838151077176517
v 0.75369036332197092 -1.4686950363540578 9.7970807132905549
v -9.75 2.5666146872248783 -1.1833770783954209
v -5.25 0.55028341464361241 2.839607907807089
v -0.75 -2.7736670640511267 9.3537328320644342
v -0.75 2.5837903785965493 -1.1705636917964517
v 0.68544861661162715 3.2496304267390705 -2.5189062994040166
v -5.25 3.2387251114186331 -2.5243720737962576
v -6.75 2.5666146872248783 -1.1833770783954209
v -11.27553118743773 0.64357431660253472 2.886365567532946
v 11.25 2.5568298310670512 -1.2594592524778174
v -2.25 -2.1381582821314087 8.2035878894104357
v 9.7282355753294443 1.9007614262956245 0.16075402464964816
v 8.25 1.2594788290912857 1.5704928592718417
v -3.75 -2.8823183793159268 9.4318972188376673
v -8.1965811743757691 -2.166853875761138 8.1892055780124711
v -3.75 -0.12182700955014292 4.1806029032079266
v 6.7089048429709699 0.5470873583348792 2.8380060354893124
v -2.227477037634856 1.8032153014564958 0.1118636353723288
v 5.25 2.4997502624331371 -1.0515991740606565
v -3.75 2.4947275530180884 -1.1735195060819197
v 3.7680215696323045 -2.1074317084525673 8.2189881336620072
v 2.2499999999999996 -2.8102687063251643 9.5445828848112733
v -12.75 1.1766388312341056 1.341252988884825
v -5.25 -3.4823791305189191 10.885577880212109
v 3.7499999999999996 1.8945042630311228 0.15761791700541572
v -6.75 -2.8102687063251643 9.5445828848112733
v 2.2499999999999996 2.5900948044826988 -1.128895322456541
v -5.3399200063861576 -0.74619256618273799 5.5455277591225336
v 0.68087889073132946 -3.4156418709549472 10.919026780460735
v 0.9375 -5.9086986276379267 5.2651209416794282
v 5.25 -0.037813206525923571 4.0129785287828215
v 6.5625 3.2387251114186331 -2.5243720737962576
v -9.75 -0.025131672644481351 4.0212696263344796
v -15.75 0.048497195725958897 -2.8815871698406799
v -4.7861492664757987 -3.5592978037873806 4.1355915840937989
v 3.3851455003419413 -4.7745168430234104 6.8822376407032699
v -6.75 -2.1317065761580611 1.4953870594195786
v -9.75 0.55673512061695973 -3.868592922183768
v -0.75 -4.8201482729330829 6.8593670410229262
v -0.75 -3.4759274245455716 4.1773770502212528
v -11.414707603090861 -0.95188424920898151 -4.6247171494017429
v -6.75 -0.78748572777055081 -1.1866029313820947
v -0.75 -2.183483442123312 1.469436350083094
v -11.4375 2.0653544904429015 -3.1124686949657931
v -15.75 0.55673512061695973 -3.868592922183768
v -0.75 -0.78748572777055081 -1.1866029313820947
v -0.75 0.55673512061695973 -3.868592922183768
v -6.75 0.49610687169328527 -3.8960283400875353
v 11.25 -0.78748572777055081 -1.1866029313820947
v -13.27965910885006 0.43714845571363914 -3.9285300914884624
v 11.25 0.55673512061695973 -3.868592922183768
v -12.75 -2.1317065761580611 1.4953870594195786
v -3.75 -6.1643691213205924 9.5413570318245995
v 8.25 -2.1317065761580611 1.4953870594195786
v -11.4375 4.4120957323943655 -1.9362754526267221
v 8.25 -0.78748572777055081 -1.1866029313820947
v -3.75 -4.8201482729330829 6.8593670410229262
v 9.5625 -0.95188424920898151 -4.6247171494017429
v 9.4529377464909725 2.2039613519613726 -3.0429985501771482
v 9.5625 4.4120957323943655 -1.9362754526267221
v -14.308570617804181 3.0929182107026794 -2.5974508982711271
v -9.75 -4.8201482729330829 6.8593670410229262
v -3.75 -3.4759274245455716 4.1773770502212528
v 5.25 -4.8201482729330829 6.8593670410229262
v 5.25 -5.5726434155410489 4.5946234439790103
v 5.25 -2.5554046758891662 6.1068718984149593
v 5.25 -3.3078998184971331 3.8421283013710434
v 5.25 -0.20866343393770193 7.2830651407540312
v 5.25 -2.1317065761580611 1.4953870594195786
v -3.75 -2.1317065761580611 1.4953870594195786
v -9.75 -5.5726434155410489 4.5946234439790103
v 5.25 -0.78748572777055081 -1.1866029313820947
v -11.353463204998389 3.7114256076425471 -0.53829813089989331
v -9.75 -2.4108627127268236 6.1871783307593997
v -3.75 -0.78748572777055081 -1.1866029313820947
v 5.25 0.55673512061695973 -3.868592922183768
v -11.396298246099359 3.0355904193128831 -2.6261837468807299
v -9.75 -0.20866343393770193 7.2830651407540312
v -3.75 0.55673512061695973 -3.868592922183768
v -12.077995695386671 0.36729327248270427 -3.9635417037573371
v 2.2499999999999996 -6.1643691213205924 9.5413570318245995
v 2.2499999999999996 -4.8201482729330829 6.8593670410229262
v -12.75 -0.78748572777055081 -1.1866029313820947
v -9.75 -2.1317065761580611 1.4953870594195786
v -11.5350158533145 -1.563737641614797 -3.4039470086626489
v 2.2499999999999996 -3.4759274245455716 4.1773770502212528
v -6.75 -6.1643691213205924 9.5413570318245995
v 2.2499999999999996 -2.1317065761580611 1.4953870594195786
v -15.75 -0.78748572777055081 -1.1866029313820947
v 2.2499999999999996 -0.78748572777055081 -1.1866029313820947
v -6.75 -4.8201482729330829 6.8593670410229262
v 2.2499999999999996 0.72650764995399886 -3.783502457938555
v -6.75 -3.4759274245455716 4.1773770502212528
v -8.2991449931965864 2.4096077970682455 2.0590893013779845
v -9.75 -0.78748572777055081 -1.1866029313820947
v 0.57102639579555703 -3.3794396914082512 4.2257369706317185
v 0.48313682617750509 -2.0923805018106463 1.515097397341918
v -9.75 -2.9898761884278162 2.4934678309970031
v -0.75 -6.1643691213205924 9.5413570318245995
v -5.2913065478459282 -2.2302189086228852 1.4460124041909377
v -2.25 2.4066994383624492 2.0648920598666369
v -0.75 -2.7638847215303892 2.3633971753228611
v 0 -5.656657218565269 4.7622478184041146
v -14.197272917030279 -1.8417159906751865 -2.8493244920323937
v -0.75 -5.558626521020595 8.3827439944590036
v 0.12578638352459981 -0.21368433229498407 7.2930828392261358
v -2.25 0.71548839932871133 5.4391970220778809
v 0.76033801000709689 -6.2552616684074671 9.4958014342361459
v -11.11930343267216 2.1544154699673097 2.5682491376021517
v -2.25 -3.9763811580808799 1.4097603299020225
v 6.7274519620621192 -3.2512619924409369 -0.036997728282889053
v -11.151150936420819 2.8079693994522126 1.2642780680935575
v -2.281116409914095 1.2617579838374648 4.3492797218891903
v 6.6984176599699161 -2.7744269285023435 -0.98837924440851355
v -8.3156256546991614 -4.0350086738796822 1.5267339735905368
v -8.1401326209607827 1.2933320408740807 4.2862831502746488
v 3.857736415684299 1.2842222246267465 4.3044590594064704
v 2.9999999999999996 -2.9682155217902473 -0.60173216319923295
v 1.5 -0.29267723696192138 7.4506895151791355
v 2.2499999999999996 -5.5512124997971126 8.3508479453717204
v 1.094568605324342 2.2927199278409676 2.292304026242391
v 3.7792853089020926 -0.9769275759048065 -1.2815517129556642
v 5.25 0.29876699946761076 -3.0542637520855225
v 6.1987715017045719 0.48444370245523927 -3.904825582180921
v -8.108489897682059 0.88352579349199778 5.1039287439768923
v 3.5741422789760864 0.87639340081284667 5.118159296790366
v 9.0245028857706551 0.36729327248270427 -3.9635417037573371
v -6.75 0.053180252073982914 3.734507430645519
v -13.013650919192351 -1.62837841625658 -3.2749757084519038
v 0 -0.79393743374389836 5.5215978986087624
v -0.75 -0.26175827377034877 4.7197014105331609
v 0.15272917182845669 0.36724167801011887 2.7478668799316455
v -0.75 0.10420169561997017 3.7410402818148105
v -7.8041306789740599 1.7709077006000318 0.095670975898733968
v 8.0625 -1.6239946734027368 -3.2837221540009063
v 8.0625 3.7399853082006098 -0.59528045722588496
v -8.25 -4.9005329913472941 3.2536284485781728
v -8.1591229623448509 0.37498395137986007 6.1185716369841678
v -15.75 2.2305594751280005 -0.51287958069500261
v 3.7499999999999996 -4.9005329913472941 3.2536284485781728
v -14.70094917344365 1.842365878758623 0.131486013687095
v 3.7499999999999996 0.46344699025605318 5.9420701453531937
v 2.2499999999999996 -0.44183107762684409 4.5145438044839787
v 2.2499999999999996 0.21422820254673458 3.5101054055075078
v -8.6681103897424752 1.9719162862427801 0.19641703850618741
v -13.671039011371001 1.9004843901218818 0.16061517334827125
v 1.309299202417078 0.72243557771375944 2.9258910511027612
v -6.75 -0.43091523311070901 4.6532957275617832
v -10.77695446905917 1.0877548951772433 -3.6024443331442528
v 5.25 0.023434927898084212 -1.7877310062898428
v -6.75 -1.3962770538226881 3.53201825659723
v -9.75 1.1855124979982596 -2.0005743221577763
v -0.75 -4.2243837982498897 8.7069161274904268
v 0.71977882852061015 -0.86932679284653147 8.601220946779808
v -0.75 -1.6368980853494319 10.132679505980809
v -5.25 1.7236540356193444 3.427704528976625
v -0.75 -5.656657218565269 4.7622478184041146
v -5.2467537067847463 -2.2591204456687688 -2.0165189513716415
v -0.90150600634583067 -0.27810641879721654 7.4216178127707044
v -9.75 3.7399853082006098 -0.59528045722588496
v 0.69963622446489548 -2.4608616684566709 -1.6140047805058244
v -5.1745867764463851 3.0647182930884265 0.75201256967657271
v -6.8749181308960488 2.3994502692822772 2.0793556050035646
v -0.16784601377428432 -2.9513195378955404 -0.63544303723061635
v -11.25 -3.6403259459840029 0.73926283220160394
v -5.25 -0.95188424920898151 -4.6247171494017429
v -6.75 -1.6239946734027368 -3.2837221540009063
v 0.61720943810803863 3.1396662513228231 0.60247637251313835
v 0.75 -0.95188424920898151 -4.6247171494017429
v -0.75 -1.6239946734027368 -3.2837221540009063
v -6.75 1.3932440662491457 -1.7714736995649565
v -5.25 2.0653544904429015 -3.1124686949657931
v 0.75 2.0653544904429015 -3.1124686949657931
v -0.75 1.4136250711167804 -1.6939808993526668
v 0.75 4.4120957323943655 -1.9362754526267221
v -0.75 3.7399853082006098 -0.59528045722588496
v -11.25 -0.62308720633211989 2.2515112866375535
v -5.25 4.4120957323943655 -1.9362754526267221
v -6.7465741702134086 3.5838365698924495 -0.28373243018764693
v 11.25 -1.6239946734027368 -3.2837221540009063
v 11.25 1.3932440662491457 -1.7714736995649565
v 11.25 3.7399853082006098 -0.59528045722588496
v -2.25 -6.3287676427590238 6.1032428138049513
v -3.75 -7.0008780669527795 7.4442378092057879
v 9.75 -2.2961050975964925 -1.9427271586000696
v -2.334521431928545 -3.524253245086455 7.5088732359481574
v 9.7205280465595898 0.54636109515289899 -0.51807519113008738
v -8.25 -6.3287676427590238 6.1032428138049513
v 8.25 0.049023217861635437 0.91051629123671662
v -11.25 1.7236540356193444 3.427704528976625
v -3.75 -3.9836393273008959 8.9564862636417377
v 9.75 3.067874884006855 0.7457145381749517
v 8.25 2.3957644598130994 2.0867095335757884
v -2.277621840669402 -0.9647876611556766 8.791684510579973
v -3.75 -1.6368980853494319 10.132679505980809
v -2.0811011820702219 -4.9043745452569123 3.2612931185221647
v -8.5338391590243337 -3.5387526844750985 7.501606076569117
v -3.6550304826072191 -5.6191406642894188 4.6873947738483057
v -5.265725839039499 -2.0087392173478626 4.9127358634112817
v -2.355949169853425 0.32046556414031069 6.2273467456774458
v -3.7731886505222678 -0.19569198901142204 7.2571845084901803
v -8.25 -0.9647876611556766 8.791684510579973
v 6.75 -3.6403259459840029 0.73926283220160394
v 6.8977319591971682 -0.82591104447593333 2.1498554144240285
v 6.7586677770878705 1.7236540356193444 3.427704528976625
v -3.75 -1.295197630525875 3.5925062820383902
v 6.7267953284102671 -2.1840377388643888 -2.1663239989374512
v 5.2371072284968321 -2.9680289008845202 -0.60210450930726633
v -2.0957579369110029 1.844022309751906 3.1875456988105437
v -3.75 1.0515436114255892 4.7686995243774621
v 6.7580571603242046 3.0437647343626599 0.79381911868345156
v 5.0888673471245447 2.3973943037064531 2.0834576683679353
v -2.25 -2.2961050975964925 -1.9427271586000696
v -3.788547654857561 -2.9373691339688284 -0.66327688889566305
v -12.75 -2.9682155217902473 -0.60173216319923295
v -2.2150091127081999 0.63329481998314541 -0.47450376627556334
v -14.25 -2.2961050975964925 -1.9427271586000696
v 5.25 -1.6239946734027368 -3.2837221540009063
v -2.2783084636322721 3.0665187598622552 0.74842027762726282
v -3.594013761742636 2.3941441968951489 2.0899422828175687
v 5.25 3.7399853082006098 -0.59528045722588496
v -3.75 -1.6239946734027368 -3.2837221540009063
v -3.75 1.3078152745124141 -1.7120840611876371
v -3.75 3.7399853082006098 -0.59528045722588496
v 3.7499999999999996 -3.3115289031071411 7.6154912682409011
v 2.2499999999999996 -3.9836393273008959 8.9564862636417377
v 3.7499999999999996 -0.9647876611556766 8.791684510579973
v 2.2499999999999996 -1.6368980853494319 10.132679505980809
v -12.75 -0.13067809233236649 0.75143028169332227
v -5.25 -7.6729884911465343 8.7852328046066237
v -14.20273860260103 0.66225004302609469 -0.45999132789304387
v -5.1782830727076092 -4.6028282094261694 10.324005683228066
v -8.2432027322546944 1.8247249841855366 3.2260477307350799
v -5.25 -2.3090085095431867 11.473674501381645
v 3.6825879830622337 -3.4810947246602657 0.42156463378006159
v 3.7845083652881892 1.7823734657238706 3.3105474978274421
v -5.25 -6.3287676427590238 6.1032428138049513
v -8.25 -2.2961050975964925 -1.9427271586000696
v -9.75 -2.9682155217902473 -0.60173216319923295
v -6.75 -7.0008780669527795 7.4442378092057879
v 3.7655322737879717 0.62622001226831236 -0.47804967959411693
v -6.75 -3.9836393273008959 8.9564862636417377
v 2.3060641514060829 2.4001220010940463 2.0780153654158293
v 3.7499999999999996 3.067874884006855 0.7457145381749517
v 2.2499999999999996 -1.6239946734027368 -3.2837221540009063
v -5.3808541446420044 -0.9661302301215694 8.7943632047341396
v 2.2499999999999996 1.4444826770413874 -1.766108852786052
v -8.25 0.72113364205539066 -0.43047870416411982
v -6.75 -1.6368980853494319 10.132679505980809
v 2.2499999999999996 3.7399853082006098 -0.59528045722588496
v -6.9574610547165943 -5.7481151452687147 4.9447247114625403
v -9.75 2.3957644598130994 2.0867095335757884
v -5.25 0.37943318723183372 6.1096945197782988
v -6.8634429757637445 -0.37576229243586956 7.6164608521091015
v 0.75 -4.6557497514946506 10.297481259042573
v -9.75 -1.6239946734027368 -3.2837221540009063
v 0.75 -2.3090085095431867 11.473674501381645
v 8.25 -1.2791797707967318 0.60482853692493821
v 7.5000074919112336 0.31649711277880832 -3.9890008803859525
v -0.75 -2.3100661941879572 3.4978497331838834
v -3.75 -2.3100661941879577 3.4978497331838847
v -9.75 -3.7540915607829985 6.1651396332196109
v 0.73490277236051327 2.693393566950907 1.4928798163292636
v 10.07519788349637 0.84216514567565826 -3.7255345991640816
v -10.88757106489853 -0.10434707129618637 -4.1999291568136892
v -9.75 -4.9050804766424969 5.6508886271527476
v -0.75 -2.1381582821314087 8.2035878894104357
v -6.75 0.49627669906464034 2.8125395916376883
v -14.4375 -0.95188424920898151 -4.6247171494017429
v -0.75 -0.79393743374389836 5.5215978986087624
v -9.75 3.2387251114186331 -2.5243720737962576
v -0.75 0.55028341464361241 2.839607907807089
v -6.75 1.8945042630311228 0.15761791700541572
v -0.75 1.8945042630311228 0.15761791700541572
v -14.4375 4.4120957323943655 -1.9362754526267221
v -0.75 3.2387251114186331 -2.5243720737962576
v 11.25 1.8945042630311228 0.15761791700541572
v -6.75 3.2387251114186331 -2.5243720737962576
v 11.25 3.2387251114186331 -2.5243720737962576
v -3.75 -3.4823791305189191 10.885577880212109
v 8.25 0.55028341464361241 2.839607907807089
v -12.9314727967656 3.1415723636201189 -2.5730653014059026
v 8.25 1.8531550394590195 0.13689357106046951
v -3.75 -2.1381582821314087 8.2035878894104357
v -12.75 0.55028341464361241 2.839607907807089
v 8.0436413023881723 3.1067284625475127 -2.5905291616073161
v 5.25 -2.1381582821314087 8.2035878894104357
v -3.75 -0.79393743374389836 5.5215978986087624
v -9.75 -2.0877617927708627 8.2288467501505309
v 5.25 -0.79851808421157433 5.4548071613896365
v 5.25 -4.2284225671535385 1.9126334531773361
v 5.25 -1.4121414314987719 3.375207971254695
v 5.25 1.1355574144498086 4.601075149952357
v -3.75 0.55028341464361241 2.839607907807089
v 5.25 1.8945042630311228 0.15761791700541572
v 6.5625 -0.95188424920898151 -4.6247171494017429
v 6.5318913340371783 2.0490733253235298 -3.1206288602402941
v -15.75 2.6429712222243573 -1.4522036706414241
v 6.5625 4.4120957323943655 -1.9362754526267221
v 5.25 3.2387251114186331 -2.5243720737962576
v -3.75 1.8945042630311228 0.15761791700541572
v -9.75 -0.80427533823423847 5.4394332218290637
v -9.75 -4.2284225671535385 1.9126334531773361
v 2.2499999999999996 -3.4823791305189191 10.885577880212109
v -3.75 3.2387251114186331 -2.5243720737962576
v -9.75 -1.5025619581722052 3.243441444621026
v 2.2499999999999996 -2.1381582821314087 8.2035878894104357
v 2.2499999999999996 -0.79393743374389836 5.5215978986087624
v -9.75 1.1355574144498086 4.601075149952357
v -9.75 0.55028341464361241 2.839607907807089
v -6.75 -3.4823791305189191 10.885577880212109
v 2.2499999999999996 0.55028341464361241 2.839607907807089
v -12.75 1.8945042630311228 0.15761791700541572
v 2.2499999999999996 1.8945042630311228 0.15761791700541572
v -15.75 3.2387251114186331 -2.5243720737962576
v -14.4375 2.0653544904429015 -3.1124686949657931
v -6.75 -2.1381582821314087 8.2035878894104357
v 2.2499999999999996 3.2387251114186331 -2.5243720737962576
v -9.75 1.8945042630311228 0.15761791700541572
v 1.1511393745912062 -0.66700685750016886 5.5852158567181664
v -6.75 -0.82743047224033894 5.5048110944904884
v -15.75 1.8945042630311228 0.15761791700541572
v -0.75 -3.4823791305189191 10.885577880212109
v 3.014642654451047 -0.12789696692470798 -0.85601520855989222
v 4.5146426544510483 -0.12789696692470798 -0.85601520855989222
v -11.657945972514851 -2.1116750237240289 -2.3107021180140048
v 5.25 -3.7074916940393772 6.4712885632054586
v -10.885981990838291 -2.4586652143702556 -1.6183871466044364
v -12.209463981676571 3.7525069715485229 -2.2668631754489246
v -12.209463981676571 4.0869754988468374 -1.2875954286354543
v -3.75 -5.1217755218224861 9.2214186477431923
v -6.75 -6.5826235941366855 8.4927974205151937
v -7.5789140562391726 -0.097217734728361149 -0.84063869199111707
v -12 -2.886016261071032 1.1173249458105914
v 2.2499999999999996 0.30287916923929759 -1.4790383154735256
v -3.75 0.9749895934330528 -2.8200333108743632
v 6 -1.3773968912450907 1.8734491730285661
v 6.086723955343146 -2.9912803901753087 1.0645662713134401
v 10.48773385088521 -1.5425716228698769 -1.5650540836969715
v 11.25 -1.1973089677199322 -2.2435673989333855
v 0.010517092821540341 -0.24175555244156144 -4.2687986700237905
v -0.75 0.9749895934330528 -2.8200333108743632
v -6.75 -0.53362977639288867 -3.5761575380923372
v 0.091121540800069845 1.3253131252942023 -3.4833794869947701
v -7.509342519745541 -1.3389048998953044 -1.4629757552602012
v -9.75 -3.7184723595722806 4.2492351912735451
v -9.75 -2.3962696485786319 3.6698429009179323
v 1.6015590451319048 -5.3564557093487934 4.1632856434698668
v -2.944608823439256 2.077684727857946 2.7213423458877983
v 5.25 -2.3465337341565657 7.1445714223418637
v -1.5 -5.9927124306621469 5.4327453161045325
v -1.5 -0.62873244905879921 8.1211870128795525
v -3.002403427120909 -0.59372782799125134 8.0513457784963887
v -4.5051039853992858 -1.9393447188555608 -2.654535613323544
v 1.4754433320844731 3.4209450835520601 0.041268730503911666
v 4.5626338256636494 -2.6270071919958258 -1.2825111634539486
v 0.0046421444137436652 4.0669897473220855 -1.2477198489549788
v -4.5245700684809247 -1.3036288472996409 -3.9229161822992378
v -10.5 -3.3042707338871251 0.068765334501185382
v -4.5484494760506307 -0.58593890402463333 8.0358053141875345
v 5.982702104904142 3.3754131229996185 0.13211411696679232
v -5.962960573200851 4.0237687981843733 -1.1614853934193836
v 4.4730957628286347 2.7429908261875262 1.3939233442559631
v 7.5 2.0597092477162224 2.7572070312762067
v 6 2.7318196719099772 1.41621203587537
v 7.5 2.7318196719099772 1.41621203587537
v -6 -7.3369332790496564 8.1147353069062049
v 6.0749979604383508 2.1053804615287506 2.6660838066513985
v 4.5 -0.62873244905879921 8.1211870128795525
v -5.9895686576610636 0.034793083217343868 6.7973205973714999
v -3 -5.9927124306621469 5.4327453161045325
v 2.9999999999999996 2.0597092477162224 2.7572070312762067
f 1 4 497 
f 520 4 1 
f 497 283 1 
f 1 283 537 
f 537 520 1 
f 256 5 2 
f 2 5 520 
f 267 256 2 
f 538 267 2 
f 537 283 2 
f 2 283 538 
f 2 520 537 
f 3 6 256 
f 491 6 3 
f 3 256 267 
f 3 267 491 
f 4 7 14 
f 361 7 4 
f 4 14 497 
f 520 361 4 
f 311 8 5 
f 5 8 361 
f 5 256 311 
f 5 361 520 
f 6 9 311 
f 326 9 6 
f 311 256 6 
f 491 326 6 
f 363 14 7 
f 7 361 544 
f 544 363 7 
f 311 182 8 
f 8 182 453 
f 544 361 8 
f 453 363 8 
f 8 363 544 
f 9 182 311 
f 439 182 9 
f 9 326 439 
f 497 13 10 
f 10 13 552 
f 10 277 551 
f 552 277 10 
f 10 283 497 
f 504 283 10 
f 551 504 10 
f 299 266 11 
f 11 266 302 
f 302 272 11 
f 11 272 538 
f 11 283 504 
f 538 283 11 
f 504 299 11 
f 302 263 12 
f 12 263 307 
f 12 272 302 
f 491 272 12 
f 12 307 351 
f 351 326 12 
f 12 326 491 
f 13 14 15 
f 497 14 13 
f 13 15 295 
f 13 295 552 
f 368 15 14 
f 14 363 368 
f 245 18 15 
f 15 18 334 
f 535 245 15 
f 334 295 15 
f 15 368 535 
f 451 245 16 
f 16 245 535 
f 16 305 451 
f 453 305 16 
f 16 368 453 
f 535 368 16 
f 17 71 437 
f 548 71 17 
f 305 182 17 
f 17 182 439 
f 437 305 17 
f 351 307 17 
f 17 307 548 
f 17 326 351 
f 439 326 17 
f 18 19 331 
f 507 19 18 
f 18 245 507 
f 18 331 334 
f 19 231 412 
f 507 231 19 
f 412 331 19 
f 399 231 20 
f 20 231 507 
f 20 245 451 
f 507 245 20 
f 20 274 399 
f 451 274 20 
f 274 192 21 
f 21 192 437 
f 21 204 387 
f 437 204 21 
f 556 274 21 
f 21 387 556 
f 382 224 22 
f 22 224 493 
f 22 277 295 
f 493 277 22 
f 22 295 382 
f 23 224 374 
f 493 224 23 
f 23 260 371 
f 374 260 23 
f 23 266 299 
f 371 266 23 
f 23 299 493 
f 24 260 478 
f 487 260 24 
f 307 263 24 
f 24 263 487 
f 478 307 24 
f 316 37 25 
f 25 37 367 
f 25 224 382 
f 541 224 25 
f 25 295 334 
f 382 295 25 
f 474 316 25 
f 25 334 474 
f 25 367 541 
f 26 193 317 
f 470 193 26 
f 374 224 26 
f 26 224 541 
f 26 317 374 
f 26 367 470 
f 541 367 26 
f 317 193 27 
f 27 193 460 
f 27 307 478 
f 548 307 27 
f 478 317 27 
f 27 460 461 
f 27 461 550 
f 550 548 27 
f 412 231 28 
f 28 231 532 
f 28 255 531 
f 532 255 28 
f 28 331 412 
f 474 331 28 
f 28 338 455 
f 531 338 28 
f 28 455 474 
f 29 139 306 
f 399 139 29 
f 29 231 399 
f 532 231 29 
f 528 255 29 
f 29 255 532 
f 29 306 528 
f 30 38 337 
f 461 38 30 
f 306 139 30 
f 30 139 387 
f 320 306 30 
f 525 320 30 
f 30 337 525 
f 30 387 581 
f 581 461 30 
f 300 210 31 
f 31 210 360 
f 31 255 524 
f 531 255 31 
f 524 300 31 
f 360 347 31 
f 31 347 531 
f 524 255 32 
f 32 255 528 
f 32 296 524 
f 568 296 32 
f 32 528 569 
f 569 568 32 
f 33 174 293 
f 359 174 33 
f 33 293 568 
f 33 320 525 
f 568 320 33 
f 525 359 33 
f 34 210 300 
f 424 210 34 
f 34 237 424 
f 511 237 34 
f 34 300 511 
f 419 237 35 
f 35 237 511 
f 35 284 419 
f 484 284 35 
f 35 296 484 
f 511 296 35 
f 36 168 284 
f 410 168 36 
f 293 174 36 
f 36 174 410 
f 36 284 488 
f 488 293 36 
f 37 42 356 
f 385 42 37 
f 37 316 385 
f 37 356 367 
f 38 44 222 
f 460 44 38 
f 222 47 38 
f 38 47 337 
f 461 460 38 
f 400 229 39 
f 39 229 500 
f 39 230 401 
f 500 230 39 
f 584 400 39 
f 39 401 584 
f 40 141 270 
f 394 141 40 
f 270 142 40 
f 40 142 393 
f 40 229 394 
f 500 229 40 
f 393 230 40 
f 40 230 500 
f 41 270 388 
f 565 270 41 
f 41 388 389 
f 41 389 565 
f 42 200 384 
f 385 200 42 
f 401 230 42 
f 42 230 495 
f 495 356 42 
f 42 384 401 
f 43 142 264 
f 393 142 43 
f 43 230 393 
f 495 230 43 
f 43 264 555 
f 470 356 43 
f 43 356 495 
f 555 470 43 
f 264 142 44 
f 44 142 389 
f 380 222 44 
f 567 264 44 
f 389 380 44 
f 44 460 567 
f 338 48 45 
f 45 48 350 
f 378 200 45 
f 45 200 385 
f 45 225 378 
f 490 225 45 
f 455 338 45 
f 45 350 490 
f 45 385 455 
f 46 59 225 
f 259 59 46 
f 46 225 490 
f 373 259 46 
f 46 350 373 
f 490 350 46 
f 259 49 47 
f 47 49 337 
f 222 60 47 
f 47 60 322 
f 322 259 47 
f 347 50 48 
f 48 50 370 
f 48 338 347 
f 370 350 48 
f 315 52 49 
f 49 52 359 
f 259 118 49 
f 49 118 315 
f 359 337 49 
f 475 250 50 
f 50 250 543 
f 50 347 360 
f 50 360 476 
f 543 370 50 
f 592 475 50 
f 50 476 592 
f 315 118 51 
f 51 118 373 
f 51 250 421 
f 543 250 51 
f 421 315 51 
f 373 370 51 
f 51 370 543 
f 315 61 52 
f 52 61 473 
f 52 174 359 
f 473 174 52 
f 53 220 468 
f 471 220 53 
f 424 237 53 
f 53 237 539 
f 53 248 471 
f 539 248 53 
f 476 424 53 
f 53 468 476 
f 313 190 54 
f 54 190 464 
f 54 237 419 
f 539 237 54 
f 464 248 54 
f 54 248 539 
f 419 313 54 
f 55 190 313 
f 462 190 55 
f 55 218 459 
f 473 218 55 
f 55 313 410 
f 55 410 473 
f 55 459 462 
f 456 220 56 
f 56 220 471 
f 56 246 456 
f 533 246 56 
f 471 248 56 
f 56 248 533 
f 309 186 57 
f 57 186 454 
f 454 246 57 
f 57 246 533 
f 57 248 464 
f 533 248 57 
f 464 309 57 
f 452 309 58 
f 58 309 554 
f 589 452 58 
f 554 462 58 
f 58 462 589 
f 59 69 225 
f 322 69 59 
f 59 259 322 
f 60 70 292 
f 436 70 60 
f 60 222 436 
f 60 292 322 
f 61 76 218 
f 257 76 61 
f 61 218 473 
f 315 257 61 
f 400 203 62 
f 62 203 446 
f 62 229 400 
f 527 229 62 
f 446 242 62 
f 62 242 527 
f 301 141 63 
f 63 141 394 
f 394 229 63 
f 63 229 527 
f 63 242 445 
f 527 242 63 
f 558 301 63 
f 63 445 558 
f 301 181 64 
f 64 181 444 
f 388 301 64 
f 580 388 64 
f 64 444 580 
f 384 200 65 
f 65 200 442 
f 441 240 65 
f 65 240 523 
f 65 242 446 
f 523 242 65 
f 446 384 65 
f 442 441 65 
f 66 180 297 
f 438 180 66 
f 66 240 438 
f 523 240 66 
f 445 242 66 
f 66 242 523 
f 66 297 445 
f 297 180 67 
f 67 180 435 
f 444 297 67 
f 436 380 67 
f 67 380 576 
f 67 435 436 
f 576 444 67 
f 68 200 378 
f 442 200 68 
f 378 225 68 
f 68 225 516 
f 68 238 432 
f 516 238 68 
f 68 335 431 
f 432 335 68 
f 68 431 571 
f 571 442 68 
f 516 225 69 
f 428 238 69 
f 69 238 516 
f 322 292 69 
f 69 292 428 
f 70 73 292 
f 332 73 70 
f 70 211 332 
f 436 211 70 
f 71 204 437 
f 550 204 71 
f 71 548 550 
f 286 164 72 
f 72 164 287 
f 549 286 72 
f 72 287 289 
f 289 288 72 
f 72 288 549 
f 73 76 285 
f 418 76 73 
f 73 285 483 
f 483 292 73 
f 73 332 418 
f 432 238 74 
f 74 238 510 
f 74 250 475 
f 510 250 74 
f 422 329 74 
f 74 329 432 
f 423 422 74 
f 475 423 74 
f 75 238 428 
f 510 238 75 
f 421 250 75 
f 75 250 510 
f 285 257 75 
f 75 257 421 
f 483 285 75 
f 75 428 483 
f 418 207 76 
f 76 207 420 
f 420 218 76 
f 76 257 285 
f 77 233 416 
f 506 233 77 
f 417 236 77 
f 77 236 506 
f 77 416 575 
f 468 417 77 
f 575 423 77 
f 77 423 582 
f 582 468 77 
f 78 169 279 
f 413 169 78 
f 408 233 78 
f 78 233 506 
f 78 236 413 
f 506 236 78 
f 78 279 408 
f 279 169 79 
f 79 169 406 
f 406 217 79 
f 79 217 459 
f 79 218 420 
f 459 218 79 
f 405 279 79 
f 593 405 79 
f 79 420 593 
f 80 236 417 
f 502 236 80 
f 456 246 80 
f 80 246 502 
f 80 417 456 
f 413 236 81 
f 81 236 502 
f 81 246 454 
f 502 246 81 
f 454 275 81 
f 81 275 553 
f 553 413 81 
f 82 169 275 
f 406 169 82 
f 82 217 406 
f 452 217 82 
f 82 275 452 
f 83 87 323 
f 390 87 83 
f 83 90 106 
f 431 90 83 
f 83 106 343 
f 83 323 431 
f 83 343 485 
f 485 390 83 
f 84 227 398 
f 498 227 84 
f 397 228 84 
f 84 228 498 
f 579 397 84 
f 84 398 579 
f 396 227 85 
f 85 227 498 
f 85 228 395 
f 498 228 85 
f 85 269 564 
f 566 269 85 
f 85 395 566 
f 564 396 85 
f 86 144 269 
f 392 144 86 
f 391 201 86 
f 86 201 392 
f 86 269 563 
f 563 391 86 
f 398 227 87 
f 87 227 496 
f 87 240 441 
f 496 240 87 
f 441 323 87 
f 87 390 398 
f 88 227 396 
f 496 227 88 
f 438 240 88 
f 88 240 496 
f 396 268 88 
f 88 268 438 
f 268 144 89 
f 89 144 392 
f 89 201 383 
f 392 201 89 
f 386 211 89 
f 89 211 435 
f 435 268 89 
f 89 383 386 
f 335 93 90 
f 90 93 355 
f 354 106 90 
f 431 335 90 
f 494 354 90 
f 90 355 494 
f 91 94 324 
f 355 94 91 
f 319 107 91 
f 91 107 354 
f 91 265 319 
f 324 265 91 
f 91 354 494 
f 494 355 91 
f 324 95 92 
f 92 95 332 
f 92 108 319 
f 386 108 92 
f 332 211 92 
f 92 211 386 
f 319 265 92 
f 92 265 324 
f 329 96 93 
f 93 96 353 
f 335 329 93 
f 93 353 355 
f 353 97 94 
f 94 97 482 
f 482 324 94 
f 355 353 94 
f 262 98 95 
f 95 98 418 
f 324 262 95 
f 418 332 95 
f 328 109 96 
f 96 109 352 
f 96 209 381 
f 422 209 96 
f 381 328 96 
f 96 329 422 
f 96 352 492 
f 492 353 96 
f 97 110 318 
f 352 110 97 
f 318 262 97 
f 97 262 482 
f 492 352 97 
f 97 353 492 
f 318 111 98 
f 98 111 325 
f 379 207 98 
f 98 207 418 
f 98 262 318 
f 98 325 379 
f 99 223 376 
f 377 223 99 
f 99 226 377 
f 489 226 99 
f 416 233 99 
f 99 233 489 
f 376 328 99 
f 99 328 381 
f 99 381 574 
f 574 416 99 
f 100 152 261 
f 408 152 100 
f 375 226 100 
f 100 226 489 
f 100 233 408 
f 489 233 100 
f 100 261 375 
f 113 102 101 
f 101 102 261 
f 252 113 101 
f 261 152 101 
f 101 152 405 
f 325 252 101 
f 379 325 101 
f 573 379 101 
f 101 405 573 
f 114 105 102 
f 102 105 327 
f 102 113 114 
f 327 261 102 
f 377 226 103 
f 103 226 545 
f 103 251 479 
f 545 251 103 
f 479 377 103 
f 104 226 375 
f 545 226 104 
f 477 251 104 
f 104 251 545 
f 327 321 104 
f 104 321 330 
f 375 327 104 
f 104 330 477 
f 105 114 330 
f 105 321 327 
f 330 321 105 
f 106 123 343 
f 369 123 106 
f 106 354 369 
f 310 124 107 
f 107 124 369 
f 319 310 107 
f 369 354 107 
f 202 125 108 
f 108 125 310 
f 386 202 108 
f 108 310 319 
f 341 129 109 
f 109 129 542 
f 109 328 341 
f 542 352 109 
f 110 130 318 
f 542 130 110 
f 110 352 542 
f 318 131 111 
f 111 131 570 
f 111 252 325 
f 570 252 111 
f 112 131 362 
f 570 131 112 
f 146 134 112 
f 112 134 252 
f 362 146 112 
f 112 252 570 
f 135 114 113 
f 113 134 135 
f 252 134 113 
f 114 135 138 
f 114 138 330 
f 397 205 115 
f 115 205 472 
f 115 228 397 
f 540 228 115 
f 472 249 115 
f 115 249 540 
f 314 145 116 
f 116 145 395 
f 116 191 314 
f 469 191 116 
f 395 228 116 
f 116 228 540 
f 116 249 469 
f 540 249 116 
f 117 145 314 
f 391 145 117 
f 314 191 117 
f 117 191 467 
f 117 201 391 
f 467 201 117 
f 118 259 373 
f 119 260 374 
f 478 260 119 
f 374 317 119 
f 119 317 478 
f 466 247 120 
f 120 247 536 
f 120 249 472 
f 536 249 120 
f 120 343 465 
f 485 343 120 
f 120 390 485 
f 577 390 120 
f 120 465 466 
f 120 472 577 
f 121 247 463 
f 536 247 121 
f 469 249 121 
f 121 249 536 
f 546 312 121 
f 121 312 557 
f 121 463 546 
f 557 469 121 
f 312 140 122 
f 122 140 340 
f 122 191 312 
f 467 191 122 
f 383 201 122 
f 122 201 467 
f 340 202 122 
f 122 202 383 
f 123 126 339 
f 366 126 123 
f 123 339 458 
f 465 343 123 
f 534 366 123 
f 123 369 534 
f 123 458 594 
f 594 465 123 
f 310 127 124 
f 124 127 366 
f 124 366 534 
f 534 369 124 
f 143 128 125 
f 125 128 310 
f 457 143 125 
f 125 202 340 
f 125 340 457 
f 126 129 348 
f 365 129 126 
f 348 339 126 
f 366 365 126 
f 127 128 308 
f 310 128 127 
f 308 130 127 
f 127 130 365 
f 127 365 366 
f 128 131 308 
f 362 131 128 
f 128 143 362 
f 341 215 129 
f 129 215 364 
f 364 348 129 
f 129 365 530 
f 129 530 542 
f 130 308 318 
f 530 365 130 
f 542 530 130 
f 318 308 131 
f 132 215 341 
f 449 215 132 
f 376 223 132 
f 132 223 450 
f 132 243 449 
f 529 243 132 
f 450 244 132 
f 132 244 529 
f 132 341 376 
f 447 243 133 
f 133 243 529 
f 133 244 448 
f 529 244 133 
f 304 258 133 
f 133 258 447 
f 448 304 133 
f 304 135 134 
f 134 146 258 
f 134 258 304 
f 342 138 135 
f 135 304 342 
f 136 244 450 
f 526 244 136 
f 479 251 136 
f 136 251 526 
f 136 450 479 
f 448 244 137 
f 137 244 526 
f 137 251 477 
f 526 251 137 
f 330 303 137 
f 137 303 342 
f 477 330 137 
f 137 342 448 
f 138 303 330 
f 342 303 138 
f 399 274 139 
f 139 274 556 
f 556 387 139 
f 344 155 140 
f 140 155 578 
f 140 216 340 
f 578 216 140 
f 140 312 344 
f 388 270 141 
f 141 301 388 
f 142 270 565 
f 565 389 142 
f 457 158 143 
f 143 158 513 
f 513 362 143 
f 144 268 396 
f 564 269 144 
f 144 396 564 
f 563 269 145 
f 145 269 566 
f 145 391 563 
f 566 395 145 
f 146 164 286 
f 287 164 146 
f 286 258 146 
f 362 287 146 
f 443 214 147 
f 147 214 521 
f 147 241 443 
f 522 241 147 
f 521 254 147 
f 147 254 522 
f 148 151 241 
f 345 151 148 
f 148 241 522 
f 148 254 519 
f 522 254 148 
f 148 298 345 
f 346 298 148 
f 519 346 148 
f 345 298 149 
f 149 298 346 
f 440 345 149 
f 149 346 518 
f 518 440 149 
f 403 271 150 
f 150 271 562 
f 402 273 150 
f 150 273 403 
f 562 402 150 
f 151 154 241 
f 372 154 151 
f 151 345 372 
f 152 279 405 
f 408 279 152 
f 443 241 153 
f 153 241 517 
f 153 247 466 
f 517 247 153 
f 153 433 583 
f 587 433 153 
f 585 434 153 
f 153 434 587 
f 583 443 153 
f 153 466 585 
f 517 241 154 
f 463 247 154 
f 154 247 517 
f 372 294 154 
f 154 294 547 
f 547 463 154 
f 344 294 155 
f 155 294 440 
f 429 336 155 
f 155 336 430 
f 440 429 155 
f 155 430 578 
f 156 157 239 
f 253 157 156 
f 156 239 427 
f 515 253 156 
f 458 339 156 
f 156 339 515 
f 156 427 590 
f 156 434 458 
f 590 434 156 
f 426 239 157 
f 157 253 514 
f 514 291 157 
f 157 291 559 
f 559 426 157 
f 158 216 430 
f 457 216 158 
f 158 291 513 
f 560 291 158 
f 158 333 425 
f 430 333 158 
f 158 425 560 
f 159 215 290 
f 364 215 159 
f 512 253 159 
f 159 253 515 
f 159 290 512 
f 159 348 364 
f 515 348 159 
f 160 253 512 
f 514 253 160 
f 160 288 289 
f 512 288 160 
f 160 289 514 
f 289 287 161 
f 161 287 362 
f 513 289 161 
f 161 362 513 
f 449 243 162 
f 162 243 509 
f 509 290 162 
f 162 290 591 
f 591 449 162 
f 163 243 447 
f 509 243 163 
f 447 286 163 
f 163 286 549 
f 549 288 163 
f 163 288 572 
f 572 509 163 
f 282 194 165 
f 165 194 508 
f 165 214 358 
f 521 214 165 
f 508 254 165 
f 165 254 521 
f 358 282 165 
f 166 254 508 
f 519 254 166 
f 166 281 349 
f 508 281 166 
f 166 349 481 
f 166 481 519 
f 357 213 167 
f 167 213 518 
f 349 280 167 
f 167 280 357 
f 481 349 167 
f 518 481 167 
f 419 284 168 
f 410 313 168 
f 168 313 419 
f 553 275 169 
f 169 413 553 
f 170 271 409 
f 561 271 170 
f 170 278 407 
f 409 278 170 
f 170 407 561 
f 358 214 171 
f 171 214 433 
f 171 234 414 
f 505 234 171 
f 415 235 171 
f 171 235 505 
f 414 358 171 
f 588 415 171 
f 171 433 588 
f 409 234 172 
f 172 234 505 
f 172 235 411 
f 505 235 172 
f 172 278 409 
f 411 278 172 
f 278 176 173 
f 173 176 336 
f 357 206 173 
f 173 206 407 
f 407 278 173 
f 173 336 429 
f 429 357 173 
f 473 410 174 
f 175 179 276 
f 425 179 175 
f 175 276 426 
f 559 291 175 
f 175 291 560 
f 560 425 175 
f 175 426 559 
f 276 179 176 
f 176 179 333 
f 480 276 176 
f 176 278 480 
f 176 333 336 
f 177 235 415 
f 503 235 177 
f 427 239 177 
f 177 239 503 
f 177 415 586 
f 586 427 177 
f 411 235 178 
f 178 235 503 
f 178 239 426 
f 503 239 178 
f 426 276 178 
f 178 276 480 
f 480 411 178 
f 425 333 179 
f 180 268 435 
f 438 268 180 
f 181 297 444 
f 445 297 181 
f 181 301 558 
f 558 445 181 
f 182 305 453 
f 183 194 282 
f 501 194 183 
f 404 232 183 
f 183 232 501 
f 183 282 404 
f 184 232 403 
f 501 232 184 
f 403 273 184 
f 184 273 486 
f 486 281 184 
f 184 281 501 
f 185 206 280 
f 402 206 185 
f 280 273 185 
f 185 273 402 
f 452 275 186 
f 186 275 454 
f 186 309 452 
f 187 232 404 
f 499 232 187 
f 414 234 187 
f 187 234 499 
f 187 404 414 
f 403 232 188 
f 188 232 499 
f 188 234 409 
f 499 234 188 
f 188 271 403 
f 409 271 188 
f 189 271 561 
f 562 271 189 
f 407 402 189 
f 189 402 562 
f 561 407 189 
f 190 309 464 
f 554 309 190 
f 190 462 554 
f 557 312 191 
f 191 469 557 
f 192 274 451 
f 192 305 437 
f 451 305 192 
f 555 264 193 
f 193 264 567 
f 567 460 193 
f 193 470 555 
f 501 281 194 
f 194 281 508 
f 195 288 512 
f 572 288 195 
f 195 290 509 
f 512 290 195 
f 195 509 572 
f 196 289 513 
f 514 289 196 
f 513 291 196 
f 196 291 514 
f 197 296 511 
f 524 296 197 
f 511 300 197 
f 197 300 524 
f 491 267 198 
f 198 267 538 
f 198 272 491 
f 538 272 198 
f 199 380 389 
f 576 380 199 
f 389 388 199 
f 199 388 580 
f 199 444 576 
f 580 444 199 
f 386 383 202 
f 401 384 203 
f 203 384 446 
f 203 400 584 
f 584 401 203 
f 581 387 204 
f 550 461 204 
f 204 461 581 
f 398 390 205 
f 205 390 577 
f 205 397 579 
f 579 398 205 
f 577 472 205 
f 357 280 206 
f 206 402 407 
f 207 379 573 
f 573 405 207 
f 207 405 593 
f 593 420 207 
f 208 282 358 
f 404 282 208 
f 208 358 414 
f 414 404 208 
f 574 381 209 
f 209 416 574 
f 575 416 209 
f 209 422 423 
f 209 423 575 
f 476 360 210 
f 210 424 476 
f 436 435 211 
f 586 415 212 
f 212 415 588 
f 212 427 586 
f 590 427 212 
f 212 433 587 
f 588 433 212 
f 587 434 212 
f 212 434 590 
f 213 357 429 
f 213 429 440 
f 213 440 518 
f 583 433 214 
f 214 443 583 
f 591 290 215 
f 215 449 591 
f 457 340 216 
f 578 430 216 
f 217 452 589 
f 462 459 217 
f 589 462 217 
f 458 434 219 
f 219 434 585 
f 594 458 219 
f 466 465 219 
f 219 465 594 
f 585 466 219 
f 456 417 220 
f 220 417 468 
f 221 423 475 
f 582 423 221 
f 476 468 221 
f 221 468 582 
f 221 475 592 
f 592 476 221 
f 222 380 436 
f 223 377 479 
f 479 450 223 
f 257 315 421 
f 258 286 447 
f 487 371 260 
f 261 327 375 
f 262 324 482 
f 263 302 487 
f 371 302 266 
f 273 280 486 
f 552 295 277 
f 493 299 277 
f 277 299 551 
f 278 411 480 
f 280 349 486 
f 486 349 281 
f 284 484 488 
f 483 428 292 
f 293 488 568 
f 294 344 547 
f 294 372 440 
f 568 484 296 
f 299 504 551 
f 302 371 487 
f 448 342 304 
f 306 320 528 
f 546 344 312 
f 455 385 316 
f 474 455 316 
f 569 528 320 
f 320 568 569 
f 571 431 323 
f 323 441 442 
f 323 442 571 
f 376 341 328 
f 329 335 432 
f 474 334 331 
f 430 336 333 
f 337 359 525 
f 531 347 338 
f 339 348 515 
f 546 463 344 
f 344 463 547 
f 440 372 345 
f 346 481 518 
f 519 481 346 
f 350 370 373 
f 470 367 356 
f 453 368 363 
f 568 488 484 
