v -18.75 3.9934541449723073 -2.1955373475039428
v -18.75 1.6467129030208434 -3.3717305898430148
v -18.75 -1.3705258366310396 -4.8839790442789637
v -18.75 2.8172609026332354 0.15120389444752202
v -18.75 0.61864544597827997 -1.0304127807871111
v -18.75 -2.5467190789701117 -2.5372378023274988
v -18.75 1.305012448197286 3.1684426340994047
v -18.75 -1.0417287937541782 1.9922493917603332
v -18.75 -4.0589675334060615 0.48000093732438387
v 11.37991733564791 -3.3843886360844948 -0.86591915667858554
v -6.75 -6.0752988059873267 4.5029859235268948
v -6.9728494923571116 -4.1856834748816709 3.7722077762492958
v -16.125 1.305012448197286 3.1684426340994047
v -16.305502554017899 -1.0278016245876818 1.9992297277111875
v -16.125 -4.0589675334060615 0.48000093732438387
v -15.75 3.9934541449723073 -2.1955373475039428
v -15.75 1.6467129030208434 -3.3717305898430148
v -15.75 -1.3705258366310396 -4.8839790442789637
v -0.75 -0.71131882438397964 7.1914276203019156
v -15.75 2.6492332965847969 0.48645264329773119
v -15.75 0.30249205463333229 -0.68974059904134055
v -15.75 -2.7147466850185502 -2.2019890534772903
v -13.125 2.6492332965847969 0.48645264329773119
v -13.133989515054591 0.37067767050975498 -0.65556577857758747
v -13.125 -2.7147466850185502 -2.2019890534772903
v -12.75 1.305012448197286 3.1684426340994047
v -12.75 -1.0417287937541782 1.9922493917603332
v -12.75 -4.0589675334060615 0.48000093732438387
v -12.75 0.12881920585821449 5.5151838760508696
v -12.75 -2.2179220360932499 4.3389906337117976
v -12.75 -5.2351607757451326 2.8267421792758483
v -12.75 -1.3834292485777346 8.5324226157027514
v -12.75 -3.7301704905291988 7.3562293733636794
v -12.75 -6.7474092301810824 5.8439809189277305
v -8.7944305509772249 1.9997195975062767 1.7823626434340949
v -8.311005642525112 -0.6356150791748556 7.0403834766549638
v -9.75 3.9934541449723073 -2.1955373475039428
v -9.75 1.6467129030208434 -3.3717305898430148
v -9.75 -1.3705258366310396 -4.8839790442789637
v -6.75 -5.4031883817935711 3.1619909281260572
v -6.75 -4.0589675334060615 0.48000093732438387
v -0.72935094219055063 0.011747485555930304 5.7487654206559142
v -9.75 2.6492332965847969 0.48645264329773119
v -9.75 0.23607556515577 -0.72302872842983357
v -9.75 -2.7147466850185502 -2.2019890534772903
v -9.75 -1.3769775426043873 1.8242217857118943
v 11.25 -4.0589675334060615 0.48000093732438387
v -9.75 -4.0589675334060615 0.48000093732438387
v -9.75 -2.7211983909918978 4.5062117765135676
v -9.75 -5.4031883817935711 3.1619909281260572
v -9.75 -1.3834292485777346 8.5324226157027514
v -9.75 -3.7376411278666808 7.3524850691365105
v -9.75 -6.7474092301810824 5.8439809189277305
v -9.75 -2.7276500969652453 11.214412606504425
v -9.75 -5.0743913389167092 10.038219364165354
v -9.75 -8.091630078568592 8.5259709097294039
v -4.2811116789409986 -1.1182075454192915 -1.4017991929347864
v -4.441526088427354 -5.0956915864334675 6.6718263993321427
v -8.25 -1.3769775426043873 1.8242217857118943
v -6.5393646568999131 -2.3029728275332237 1.3601103715086633
v -6.75 3.9934541449723073 -2.1955373475039428
v -6.75 1.6467129030208434 -3.3717305898430148
v -6.75 -1.3705258366310396 -4.8839790442789637
v -6.75 2.6492332965847969 0.48645264329773119
v -6.75 0.30249205463333229 -0.68974059904134055
v -6.75 -2.7147466850185502 -2.2019890534772903
v -6.75 1.305012448197286 3.1684426340994047
v -6.75 -0.035982547203550652 2.4963322099056495
v -6.75 -1.3769775426043873 1.8242217857118943
v -6.75 0.63290202400353079 4.5094376295002423
v -6.75 -0.762432707937583 4.0440118205080164
v -6.7557384610534772 -2.0456253897095631 3.1583082458782945
v -6.75 -0.039208400190224424 5.8504326249010781
v -6.75 -2.7211983909918978 4.5062117765135676
v -6.75 -1.3834292485777346 8.5324226157027514
v -6.75 -3.7301704905291988 7.3562293733636794
v -6.75 -6.7474092301810824 5.8439809189277305
v 0.09375 -5.2387898603551406 6.6001051461457054
v 0.09375 -1.2061273151926091 -1.4458648262593154
v -6.75 -2.7276500969652453 11.214412606504425
v -6.75 -5.0743913389167092 10.038219364165354
v -6.75 -8.091630078568592 8.5259709097294039
v -2.0625 2.6492332965847969 0.48645264329773119
v -2.124327689860154 0.58551893076908801 -0.54788674095070977
v -1.9448201132132801 -2.7147466850185502 -2.2019890534772903
v -2.0625 -1.3834292485777346 8.5324226157027514
v -1.9528905261152141 -3.5259182200794004 7.4586011798248348
v -2.0625 -6.7474092301810824 5.8439809189277305
v -3.75 1.305012448197286 3.1684426340994047
v -3.75 -1.0417287937541782 1.9922493917603332
v -3.75 -4.0589675334060615 0.48000093732438387
v -3.75 -0.039208400190224424 5.8504326249010781
v -3.75 -2.3859496421416888 4.674239382562007
v -3.75 -5.4031883817935711 3.1619909281260572
v -0.75 -1.3769775426043873 1.8242217857118943
v -0.75 -2.717972538005224 1.1521113615181391
v -0.75 -4.0589675334060615 0.48000093732438387
v -0.75 -2.0274900088733228 3.1221245265582738
v -0.75 -3.4264138264567601 2.5738724522919521
v -0.75 -2.7211983909918978 4.5062117765135676
v -0.75 -5.4031883817935711 3.1619909281260572
v 0.75 -1.3769775426043873 1.8242217857118943
v 1.7640803248522192 -4.0589675334060615 0.48000093732438387
v 0.76475999194304345 -2.0041710456188251 3.0755985214606314
v 0.75 -2.7211983909918978 4.5062117765135676
v 1.875 -5.4031883817935711 3.1619909281260572
v 2.2500000000000004 3.9934541449723073 -2.1955373475039428
v 2.2500000000000004 1.6467129030208434 -3.3717305898430148
v 2.2500000000000004 -1.3705258366310396 -4.8839790442789637
v 2.2500000000000004 2.6492332965847969 0.48645264329773119
v 2.2500000000000004 0.30249205463333229 -0.68974059904134055
v 2.2500000000000004 -2.7147466850185502 -2.2019890534772903
v 2.2500000000000004 1.305012448197286 3.1684426340994047
v 2.2500000000000004 -0.035982547203550652 2.4963322099056495
v 2.2500000000000004 -1.3769775426043873 1.8242217857118943
v 2.2500000000000004 -0.49900330667047599 3.8474063352543366
v 2.2500000000000004 -2.0836983600517893 3.2342714519990965
v 2.2500000000000004 -0.039208400190224424 5.8504326249010781
v 2.2500000000000004 -1.3802033955910611 5.1783222007073224
v 2.2500000000000004 -2.7211983909918978 4.5062117765135676
v 2.2500000000000004 -1.3834292485777346 8.5324226157027514
v 2.2500000000000004 -3.7301704905291988 7.3562293733636794
v 2.2500000000000004 -6.7474092301810824 5.8439809189277305
v -4.1757902089438863 1.2792238598744232 -0.20019989963858409
v 2.2500000000000004 -2.7276500969652453 11.214412606504425
v 2.2615807299589759 -5.1930854873576866 9.9787295265957994
v 2.2500000000000004 -8.091630078568592 8.5259709097294039
v 3.7500000000000004 1.305012448197286 3.1684426340994047
v 3.7500000000000004 -0.039208400190224424 5.8504326249010781
v 0.39452872149562745 1.8312365655672966 2.1185200582088419
v 5.25 3.9934541449723073 -2.1955373475039428
v 5.25 1.6467129030208434 -3.3717305898430148
v 5.25 -1.3705258366310396 -4.8839790442789637
v 5.25 2.6492332965847969 0.48645264329773119
v 5.25 0.30249205463333229 -0.68974059904134055
v 5.25 -2.7147466850185502 -2.2019890534772903
v 5.25 1.305012448197286 3.1684426340994047
v 5.25 -1.0417287937541782 1.9922493917603332
v 5.25 -4.0589675334060615 0.48000093732438387
v 5.25 0.63290202400353079 4.5094376295002423
v 5.25 -0.039208400190224424 5.8504326249010781
v 5.25 -2.3859496421416888 4.674239382562007
v 5.25 -5.4031883817935711 3.1619909281260572
v 5.25 -1.3834292485777346 8.5324226157027514
v 5.25 -3.7301704905291988 7.3562293733636794
v 5.25 -6.7474092301810824 5.8439809189277305
v 5.25 -2.7276500969652453 11.214412606504425
v 5.25 -5.0743913389167092 10.038219364165354
v 5.25 -8.091630078568592 8.5259709097294039
v 7.875 2.6492332965847969 0.48645264329773119
v 7.875 0.30249205463333229 -0.68974059904134055
v 7.875 -2.7147466850185502 -2.2019890534772903
v 6.75 -6.7474092301810824 5.8439809189277305
v 8.25 1.305012448197286 3.1684426340994047
v 8.25 -1.0417287937541782 1.9922493917603332
v 8.25 -4.0589675334060615 0.48000093732438387
v 8.25 0.12881920585821449 5.5151838760508696
v 8.25 -5.2351607757451326 2.8267421792758483
v 8.25 -1.3834292485777346 8.5324226157027514
v 8.25 -3.6194409677094281 7.4117273184033055
v 8.25 -6.7474092301810824 5.8439809189277305
v 10.875 1.305012448197286 3.1684426340994047
v 10.69494507624105 -0.90165325185134138 2.0624556432455181
v 11.25 3.9934541449723073 -2.1955373475039428
v 11.25 1.6467129030208434 -3.3717305898430148
v 11.25 -1.3705258366310396 -4.8839790442789637
v 11.25 2.6492332965847969 0.48645264329773119
v 11.25 0.30249205463333229 -0.68974059904134055
v 11.25 -2.7147466850185502 -2.2019890534772903
v 12.75 3.9934541449723073 -2.1955373475039428
v 14.25 3.9934541449723073 -2.1955373475039428
v 14.25 1.6467129030208434 -3.3717305898430148
v 14.25 -1.3705258366310396 -4.8839790442789637
v 14.25 2.8172609026332354 0.15120389444752202
v 14.25 0.54455367190359061 -1.0464028658470745
v 14.25 -2.5467190789701117 -2.5372378023274988
v 14.25 1.305012448197286 3.1684426340994047
v 14.25 -1.0417287937541782 1.9922493917603332
v 14.249881865338068 -4.0557296910420355 0.47354079290501638
v 0.18211351046420488 -3.2164094288270859 7.6137278474811216
v 0.09375 1.4758626756090645 -0.10164397787180457
v -14.55060056174049 -2.4674737787838978 1.2776620368731426
v -18.75 -1.7942239363621448 -0.27249420528358304
v 3.5625000000000004 -3.8945690119676302 3.9181151553440321
v 3.274543218369391 -2.4643712265301212 1.279217044698318
v -11.4375 -1.2061273151926091 -1.4458648262593154
v 14.25 -1.7942239363621448 -0.27249420528358304
v 8.25 -4.6701645399458869 5.3959112823684814
v 9.3786157982609542 -1.3418783835827544 -1.5139036395832859
v -12.75 -4.4826656331371657 5.0914857763197645
v -4.40625 -6.7474092301810824 5.8439809189277305
v -4.40625 -3.7301704905291988 7.3562293733636794
v -4.40625 -2.7147466850185502 -2.2019890534772903
v -4.40625 2.6492332965847969 0.48645264329773119
v 3.7633319196865025 -6.6013141391949581 9.2729214066592771
v -10.99192996789723 -0.62698512386863015 7.0231649862706433
v 2.2500000000000004 -5.9109002845488963 7.9411001415465421
v -8.25 -6.5830107087426502 9.2820951369473796
v 3.8324357140360434 -0.0044333988535956159 -4.1992897121103301
v -9.75 -5.7903283541384472 7.9309638633445489
v 2.2500000000000004 -0.54219338605829659 -2.7873911925314729
v -3.75 -2.9954910348711001 2.6182721646570015
v -8.194462891537464 -0.058309359531638627 -4.2262924935594448
v -9.75 -0.53401689099885341 -2.7868598216601521
v 12.75 0.13809353319490181 -4.1278548170609888
v 11.25 -0.53401689099885341 -2.7868598216601521
v 5.25 -5.9109002845488963 7.9411001415465421
v 6.7815509898039377 -5.0560471661274811 6.6916962931349966
v -17.25 0.13809353319490181 -4.1278548170609888
v 5.25 -3.0292432992082534 2.542671633298097
v -15.75 -0.35215649195882981 -2.8205442822302098
v 5.25 -0.53401689099885341 -2.7868598216601521
v -6.75 -0.53401689099885341 -2.7868598216601521
v 10.33484692283495 -3.4387003270019969 0.79088058761353275
v 0.41639071617701795 0.42993971673140452 4.9143881086323242
v 0.09375 -6.7474092301810824 5.8439809189277305
v 0.09375 -1.3834292485777346 8.5324226157027514
v 0.09375 -2.7147466850185502 -2.2019890534772903
v -0.11750803621818728 0.23037145606181575 -0.72588764378442727
v 0.09375 2.6492332965847969 0.48645264329773119
v -14.528437804118029 0.080950863281250118 2.5549395607107659
v -11.50122364822675 1.425003032362218 -0.12713497262884577
v -17.401150098077341 -2.5365422645628759 1.2430447195568664
v 14.25 0.88776605443952894 1.0717266431039276
v -14.316871395496371 -1.2151857318263191 -1.4504049298891477
v 9.5625 -2.5503481635801197 1.2361251645423585
v 8.25 -3.3275293082727373 2.5928205211281741
v 9.5864923831751057 1.3400320903567873 -0.16972264526840108
v -18.75 -0.42328971679191807 -2.8288935810476454
v -18.75 0.88776605443952894 1.0717266431039276
v 6.7023276917814627 -1.0845081767284641 -1.3849089755487896
v -12.75 -1.8023813171201595 6.4235943456450748
v 3.7500000000000004 -2.0555396727714896 9.8734176111035872
v 3.7010881565438951 -7.4035999507569414 7.1532129151079102
v 3.8497511738701164 -6.0712440115531994 4.4948957960005043
v -11.17987015919922 -4.921036630559624 2.2000015553171601
v -11.25 -3.3868571092123059 -0.86099405807645324
v 3.7500000000000004 -3.3868571092123059 -0.86099405807645324
v -8.25 -7.4195196543748363 7.1849759143285672
v 3.7500000000000004 3.3213437207785526 -0.85454235210310614
v 3.7500000000000004 -2.0426362608247945 -3.542984048878127
v -11.25 1.9771228723910417 1.8274476386985681
v -8.3170206276401064 -2.0859534120807801 9.9340991163102785
v -14.374588154182449 1.9383902742896741 1.9047269343963125
v 0.62479524952533172 -6.1855239210633197 4.7229071185622171
v -8.1531275362172604 -3.4111955497377404 -0.81243399150759954
v -9.75 -3.3900829621989796 2.4931063569189758
v -2.25 -4.7310779575998163 1.8209959327252205
v -17.25 -2.0426362608247945 -3.542984048878127
v -17.25 -3.3868571092123059 -0.86099405807645324
v -8.25 -2.0426362608247945 -3.542984048878127
v -14.33896737513137 -3.4601752940034958 -0.71470958555871089
v -8.25 3.3213437207785526 -0.85454235210310614
v -5.1406457177868186 -6.0257131817593521 4.4040526656276366
v -5.4174434947766859 -0.70287506675388678 7.1745806315977676
v 9.7449226907097941 -3.3960694376895262 -0.84261361650130429
v -5.25 -1.3802033955910611 5.1783222007073224
v -11.02970094767249 -6.0486469632888955 4.4498101559888763
v 6.75 -4.7310779575998163 1.8209959327252205
v -17.28072995860018 2.0410071231608899 1.6999857552289515
v 6.7138843062595619 -0.76727104262257106 7.3030635091955185
v -5.25 -3.3868571092123059 -0.86099405807645324
v 6.6698172584411761 -3.4211030361063504 -0.79266657062100121
v -5.2100354171317562 1.9499825645541313 1.8815979920822301
v 6.75 1.9771228723910417 1.8274476386985681
v -7.867472272171387 -2.962495925266905 1.0295555592210415
v 8.25 -2.1159150960955562 3.7170083210069604
v 3.8838036438104813 -3.9469762443840128 10.603282947569941
v 2.2500000000000004 -3.228910293747222 9.2853209899340534
v -8.25 -3.9010207179409773 10.626315985334887
v 2.2500000000000004 1.9513731605831466 -1.3023526714390274
v 3.7229621609502428 2.8029742704561884 -2.7922091741694768
v -9.75 -3.2420407230556365 9.1655020458140442
v -3.75 -0.5526303535944419 3.818956281068056
v -17.355318405465539 2.8127554821507181 -2.7873068036433484
v 12.797592160976031 -2.1253106288277288 -3.3780321157596171
v -8.25 2.8200835239965758 -2.7836339686734783
v -9.75 2.3263813541367111 -1.5092677843674811
v 11.25 2.1479730998028201 -1.4426389732726417
v -17.273472778859709 3.4791038284539479 -1.169305383967072
v -6.75 -3.1937618326450599 9.2535126502101086
v -11.17933804687485 -2.5276059198393899 7.9589580833877713
v 6.8119681004142922 -2.5855590747653046 7.9299118008332412
v 5.25 -3.1284618863137421 9.1968739227349978
v -15.75 2.0426504089733184 -1.3980508533543219
v 5.25 2.2199353740958117 -1.4812200922426819
v -6.75 2.047988189285606 -1.2891156590876824
v -8.9546463118992854 0.52717693895267592 4.7203803627744589
v 0.39452872149562745 1.1591261413735414 3.459515053609679
v -5.2196693744737566 -2.5738674237366301 7.9357716888711227
v -12.75 -0.55390434290434043 4.1926001810746927
v 14.25 2.2319869028270394 -1.6102633476977459
v -14.4375 1.4758626756090645 -0.10164397787180457
v -17.174459282952441 0.12120144958039258 2.575113266596579
v 8.25 -0.71336452900819969 4.1319117885754144
v 9.5625 0.13164182722155404 2.5803460129298692
v -18.75 2.1400135908918174 -1.5653018832222214
v 6.5483266240204632 1.4715879225380899 -0.10378649600923984
v -11.378991038432741 -5.2360662509885252 6.6014702267410925
v -10.057856508542381 1.2342012459948437 3.3097251739226792
v -1.428901043540501 1.7664486976659899 2.2477848389516226
v -6.75 -6.1088592459701445 7.7469361939816643
v -1.430581022198723 0.97829528630720741 3.8203088501779972
v 8.25 -3.190101398436934 5.4417672502535881
v 10.450010523285981 1.8716671490750283 2.0378529413283957
v 12.467689101573569 0.078297203087072775 2.5536095388352988
v 12.419693845669901 -2.8184331205979332 1.1017602379026816
v -10.661722781779011 0.60022417694170338 4.5746364834280779
v -4.0837117307087407 -1.3834292485777346 8.5324226157027514
v -5.2512153340593759 -3.0161183505279032 1.0026798504286349
v 12.465591164658241 1.9176121363921914 1.9461834836942895
v 8.25 -2.2867653235073346 6.9870949329781702
v -3.180345974530439 -6.130879689555055 4.6138809253321229
v -2.646824839891158 -0.66698371534963452 7.1029701924812922
v -3.2326882667112802 -3.4018133207103824 -0.83115341873041659
v 12.73672675381512 -3.627527623441364 -0.38080814888026682
v 12.75 -2.9247811925790987 -1.7829281174145288
v -3.3245239628384171 2.0508549553789015 1.6803373563282176
v -7.6875 0.002798501321885416 5.7666204376885259
v 2.2500000000000004 -6.6018784162327169 9.2726385894373546
v -14.4375 -4.0589675334060615 0.48000093732438387
v -12.75 -0.62730502135976018 7.0238032458768105
v 2.2500000000000004 -5.2387898603551406 6.6001051461457054
v -9.75 -6.474387016519934 9.3365376338304316
v -18.75 -3.3028433061880862 -1.0286184325015575
v -14.4375 -1.0417287937541782 1.9922493917603332
v 2.2500000000000004 -1.2061273151926091 -1.4458648262593154
v -12.75 -2.5503481635801197 1.2361251645423585
v -9.75 -5.2387898603551406 6.6001051461457054
v 2.2500000000000004 0.13809353319490181 -4.1278548170609888
v -14.499096184105181 1.305012448197286 3.1684426340994047
v 3.5625000000000004 -5.4031883817935711 3.1619909281260572
v -18.75 0.13809353319490181 -4.1278548170609888
v -11.4375 -2.7147466850185502 -2.2019890534772903
v 3.5625000000000004 -4.0589675334060615 0.48000093732438387
v 14.25 -3.3028433061880862 -1.0286184325015575
v -11.427530077475829 0.18433299296691441 -0.74896224963013625
v -18.75 -0.35760673724923886 0.51222944011147153
v -3.75 -3.8945690119676302 3.9181151553440321
v -12.95930712312671 -1.2842243305421766 -1.4850072677262012
v -3.75 -2.5503481635801197 1.2361251645423585
v -11.40091689150767 2.6492332965847969 0.48645264329773119
v -18.75 -1.0380997091441702 -1.7811135751095239
v -9.75 -1.2061273151926091 -1.4458648262593154
v 14.25 -2.6554019997211959 1.1834718894636884
v -2.16732259347644 -5.3142970259381315 6.5622607445903638
v 14.25 -0.23005861086896195 0.58793448121265834
v 14.25 -1.1082161353734001 -1.8393725626703539
v 14.25 2.0611366754152609 1.6598232642734636
v 14.25 0.13809353319490181 -4.1278548170609888
v -9.75 0.13809353319490181 -4.1278548170609888
v -15.75 -1.2061273151926091 -1.4458648262593154
v 11.25 -1.2061273151926091 -1.4458648262593154
v -2.226336237254257 -1.1515635987823951 -1.4185173397229507
v 11.25 0.13809353319490181 -4.1278548170609888
v -18.75 -2.6654328832464715 1.1784443827210582
v 12.535000096631091 -1.2010441684172748 1.9124000825439373
v 12.5625 1.305012448197286 3.1684426340994047
v -6.75 -6.6699774430269994 9.238507167662581
v 8.25 -5.2387898603551406 6.6001051461457054
v 8.25 -5.9639816329520201 4.280885854000994
v 8.25 -0.62730502135976018 7.0238032458768105
v -6.75 -5.2387898603551406 6.6001051461457054
v 8.25 -2.5503481635801197 1.2361251645423585
v 9.3076318967763658 -2.7147466850185502 -2.2019890534772903
v 9.5625 0.30249205463333229 -0.68974059904134055
v 7.875 -1.2061273151926091 -1.4458648262593154
v 9.9092933265596415 2.6492332965847969 0.48645264329773119
v 5.25 -6.5830107087426502 9.2820951369473796
v -12.75 -5.2387898603551406 6.6001051461457054
v 5.25 -5.2387898603551406 6.6001051461457054
v 5.25 -3.8945690119676302 3.9181151553440321
v -15.75 0.097909222322322353 -4.1479953055185392
v 5.25 -2.5503481635801197 1.2361251645423585
v -18.75 2.0611366754152609 1.6598232642734636
v -6.75 -1.2061273151926091 -1.4458648262593154
v -12.75 -5.9912850029631066 4.3353615491017896
v 5.25 -1.2061273151926091 -1.4458648262593154
v 5.25 0.13809353319490181 -4.1278548170609888
v -12.75 -2.9740462633112248 5.8476100035377385
v -12.75 -3.5125311743299807 3.1386635281861386
v -6.75 0.15003608950105884 -4.1218691745996692
v -10.01537351540053 -0.079315299625990932 5.9304539271877141
v 3.2977621959487284 -0.78197991049069304 7.3324106484291125
v 3.0000000000000004 1.9771228723910417 1.8274476386985681
v -8.3604501577318047 -2.1498619801119689 3.366281134016357
v 0 -4.0621933863927353 3.8341013523198124
v 0.75 -0.37526361228710203 6.5209301226014968
v -5.5108667107117686 -4.3128338431295798 3.7084796577756327
v -8.4746675595576182 -3.6300911544459216 4.0506721936763324
v -8.163929025463613 -5.840533597651131 4.0345822830823632
v -8.2665817267625421 -6.5059867181862199 5.3622946234792321
v -8.3301302029848525 -4.5728968847533498 3.5781353374594911
v -5.1301583082058118 0.55489394627053246 2.7924811530687652
v 6.3509985402477156 -6.11882193552551 4.5898232895220694
v 6.75 0.96895723610040863 3.8389401317998235
v 4.5 -0.71131882438397964 7.1914276203019156
v 9.3462716916201565 2.1210270214422664 1.5403300211930879
v 8.25 -1.4700509646135207 5.3093005434259641
v 8.25 -4.2126310870910331 4.1342547147647188
v -3.0731058653543699 -2.5567998695534668 7.9443259945332159
v -2.6054712785043721 0.48701571717978576 4.8005100490105157
v -0.75716426015819094 -3.399322869476717 -0.83612236805841089
v -1.07079425958823 -6.1244301492167992 4.6010127997906825
v 3.9444566710406259 -1.6456818406462717 5.0452636651182168
v 3.746878286878808 -0.5790554101019032 2.2241425794427667
v 1.3125 -4.0621933863927353 3.8341013523198124
v 1.3398070963509787 -2.6155341780386099 1.2034537526583042
v -5.2402932399387829 -0.53509954600706422 2.24617338087298
v -0.71592602283273532 2.1564759988282987 1.469602206900116
v -17.25 -2.630732881994331 -2.3696134279023946
v -15.965940495208789 -3.3892093872206077 -0.85630079202466058
v 2.0186632918535961 -6.0476478996815626 4.4478168238677007
v -15.9375 1.9771228723910417 1.8274476386985681
v 1.8319068982175089 -3.3802730769552949 -0.87413052194963292
v -12.9375 -3.3868571092123059 -0.86099405807645324
v -12.9375 1.9771228723910417 1.8274476386985681
v 13.20750040105203 3.3374935059131539 -0.8867644100607377
v 12.76181271220914 2.6927516081209455 0.39962489018220082
v -17.25 2.7332470996090161 0.31882826887262694
v 8.0442227190409685 -3.4482480063859309 -0.73850691472980179
v -5.25 -2.5535740165667935 4.5902255795377869
v 8.0625 1.9771228723910417 1.8274476386985681
v 6.75 -5.3191745787693518 2.9943665537009529
v 6.7603408239607674 -0.094940242959558052 5.9616288205675776
v 5.25 -0.47068165788433691 3.9823513470091072
v 3.7500000000000004 -8.091630078568592 8.5259709097294039
v 3.7357367517858662 -5.2639088422445059 9.943232663998204
v -6.75 3.3213437207785526 -0.85454235210310614
v 3.7500000000000004 -2.7276500969652453 11.214412606504425
v 3.7500000000000004 -6.7474092301810824 5.8439809189277305
v 2.2500000000000004 -7.4195196543748363 7.1849759143285672
v 2.2500000000000004 -4.5542391477915274 8.6487223980245567
v -8.25 -8.091630078568592 8.5259709097294039
v 3.8036764497284303 -1.3030352237459322 8.372020424219258
v 2.2555604957706401 -2.0495972033636543 9.8615611936915393
v 1.8551711848296173 -0.69310289391557944 7.1550831883226067
v -11.25 -4.0589675334060615 0.48000093732438387
v -8.2560749663118642 -2.7090182691533498 -2.213418391172838
v 2.2500000000000004 0.63290202400353079 4.5094376295002423
v -8.0903795580711559 -2.7276500969652453 11.214412606504425
v 3.7299474874947145 -2.6932819729471609 -2.2448154558500582
v -9.75 -7.4195196543748363 7.1849759143285672
v 3.7685987826639225 2.5124410823271623 0.75938052557144142
v 2.2500000000000004 1.9771228723910417 1.8274476386985681
v 3.7500000000000004 -1.3705258366310396 -4.8839790442789637
v -9.75 -4.4022809147229545 8.6972243687645161
v 2.2500000000000004 -2.0426362608247945 -3.542984048878127
v 3.7500000000000004 1.6467129030208434 -3.3717305898430148
v 2.2500000000000004 0.91713025461787101 -2.1552907899856617
v -8.25 -1.3834292485777346 8.5324226157027514
v -9.75 -2.0552381516139584 9.8728160159657925
v 3.7500000000000004 3.9934541449723073 -2.1955373475039428
v 2.2500000000000004 3.311607566373524 -0.8351167728208706
v -9.629231039650163 -6.0447002537474841 4.4419356794849829
v -8.25 -2.7211983909918978 4.5062117765135676
v -9.75 -4.0621933863927353 3.8341013523198124
v -0.75 -4.0621933863927353 3.8341013523198124
v -8.25 -4.0589675334060615 0.48000093732438387
v -2.25 -5.4031883817935711 3.1619909281260572
v -17.25 -1.3705258366310396 -4.8839790442789637
v -9.75 -2.717972538005224 1.1521113615181391
v -9.75 -3.3868571092123059 -0.86099405807645324
v -2.1540179000716502 -3.9863196999119643 0.33505394999092641
v -3.75 -4.7310779575998163 1.8209959327252205
v -3.75 -1.803209129473837 3.1308404656011692
v -17.25 3.9934541449723073 -2.1955373475039428
v -3.75 0.63290202400353079 4.5094376295002423
v -8.35128837938049 2.5959950799570461 0.59267355505865171
v -8.25 -1.3705258366310396 -4.8839790442789637
v 12.62046649780787 -4.0589675334060615 0.48000093732438387
v 9.75 -4.0589675334060615 0.48000093732438387
v -2.25 -0.039208400190224424 5.8504326249010781
v -5.25 -4.0589675334060615 0.48000093732438387
v -8.25 -5.4031883817935711 3.1619909281260572
v -8.25 1.6467129030208434 -3.3717305898430148
v -9.75 0.84295074039466966 -2.1026507661429354
v 12.75 -1.3705258366310396 -4.8839790442789637
v 11.25 -2.0426362608247945 -3.542984048878127
v -8.25 3.9934541449723073 -2.1955373475039428
v 12.75 1.6467129030208434 -3.3717305898430148
v 11.25 0.97460247882708817 -2.0307355944421781
v -9.75 3.3213437207785526 -0.85454235210310614
v 11.25 3.3213437207785526 -0.85454235210310614
v -6.75 -7.4195196543748363 7.1849759143285672
v -9.75 -2.0478701139447155 -3.5325414629758232
v -6.75 -3.3868571092123059 -0.86099405807645324
v -6.75 -4.761751747596966 8.29156751098364
v -5.25 -5.4031883817935711 3.1619909281260572
v -15.75 -2.0426362608247945 -3.542984048878127
v -6.75 -2.0841133668629626 9.930427857333207
v -11.25 -6.7474092301810824 5.8439809189277305
v -5.25 -0.039208400190224424 5.8504326249010781
v -6.75 -1.3802033955910611 5.1783222007073224
v -11.161342402822861 -3.9991337166701739 7.2214242557949175
v -0.75 -4.782173002082498 1.9229407865388666
v 5.25 -7.4195196543748363 7.1849759143285672
v -9.75 -2.0490879667981425 3.165216781112731
v 6.75 -3.7301704905291988 7.3562293733636794
v 5.25 -4.4022809147229545 8.6972243687645161
v 6.75 -1.3834292485777346 8.5324226157027514
v 5.25 -2.0248632466579743 9.8122119930768257
v -15.75 0.97460247882708817 -2.0307355944421781
v -5.25 1.305012448197286 3.1684426340994047
v -11.25 -1.3834292485777346 8.5324226157027514
v -9.75 -4.7310779575998163 1.8209959327252205
v 6.7933932062860087 -4.0712735384018135 0.50455388356454645
v 5.25 -4.7310779575998163 1.8209959327252205
v 5.25 -1.7138392179479334 3.3332443871611699
v 6.8282167450879854 1.4026913400422427 2.9735536688263036
v 5.3222614474185406 -3.3528612795566461 -0.928822551418786
v 4.9449666617918364 1.9335807075532951 1.9143229839312785
v -7.1942481832196901 1.9266785940716931 1.9280940835948799
v 5.25 -2.0426362608247945 -3.542984048878127
v -15.75 3.3213437207785526 -0.85454235210310614
v -6.75 -2.0426362608247945 -3.542984048878127
v 5.25 0.77620077037734125 -2.0495396000618014
v 5.25 3.2893298892278406 -0.79066834219676085
v -6.75 0.99437249980745746 -1.9456985397827387
v -8.3363610552432341 1.2169235137038195 3.3441977125117544
v 0.72593516685175796 -3.6522720054269149 -0.33143814774285651
v -5.578125 -5.9930995452681106 6.2220430325367175
v -3.234375 -4.4844801754421697 6.9781672597546924
v -5.578125 -1.9604370001055798 -1.8239269398683025
v -3.234375 -1.9604370001055798 -1.8239269398683025
v -3.234375 -5.9930995452681106 6.2220430325367175
v -5.1189654765810531 -1.7656532779711982 1.6294164253137209
v -1.027751019532734 -1.9746746889001707 -1.8310629091210524
v 1.171875 -5.9930995452681106 6.2220430325367175
v 10.60492346141748 -2.2402145603780879 1.3915649896869327
v -5.578125 0.88917736512119827 -0.39569228845657278
v -6.75 2.8200835239965758 -2.7836339686734783
v 2.2500000000000004 -3.9010207179409773 10.626315985334887
v -12.75 0.13164182722155404 2.5803460129298692
v 8.25 -4.6470641545755971 1.6533715583001161
v 9.5625 1.305012448197286 3.1684426340994047
v 5.25 -2.5567998695534668 7.9443259945332159
v 6.5625 -2.7147466850185502 -2.2019890534772903
v 5.25 0.13164182722155404 2.5803460129298692
v 1.1621443072440978 2.2407490917239512 1.3014604972166464
v 1.3222643607478139 0.89601408268853611 3.9844763415549602
v -6.75 -5.6646632735375562 8.8211343073982036
v 11.73430727739807 -1.7685187525771267 1.6279802414655244
f 275 2 1 
f 1 2 297 
f 1 4 280 
f 297 4 1 
f 467 275 1 
f 1 280 467 
f 229 5 2 
f 2 5 297 
f 2 17 209 
f 275 17 2 
f 2 209 333 
f 333 229 2 
f 3 6 229 
f 249 6 3 
f 333 209 3 
f 3 209 461 
f 3 229 333 
f 461 249 3 
f 4 5 230 
f 297 5 4 
f 4 230 375 
f 375 260 4 
f 4 260 420 
f 420 280 4 
f 5 183 338 
f 343 183 5 
f 5 229 343 
f 338 230 5 
f 325 183 6 
f 6 183 343 
f 343 229 6 
f 6 249 411 
f 6 250 325 
f 411 250 6 
f 230 8 7 
f 7 8 294 
f 7 13 260 
f 294 13 7 
f 375 230 7 
f 7 260 375 
f 223 14 8 
f 8 14 294 
f 338 183 8 
f 8 183 356 
f 356 223 8 
f 8 230 338 
f 9 15 223 
f 250 15 9 
f 9 183 325 
f 356 183 9 
f 9 223 356 
f 325 250 9 
f 10 47 256 
f 316 47 10 
f 256 169 10 
f 10 169 317 
f 317 316 10 
f 11 40 254 
f 391 40 11 
f 254 77 11 
f 11 77 392 
f 392 391 11 
f 389 40 12 
f 12 40 393 
f 12 74 389 
f 390 74 12 
f 393 390 12 
f 13 14 221 
f 294 14 13 
f 13 221 331 
f 331 244 13 
f 13 244 414 
f 414 260 13 
f 223 182 14 
f 14 182 326 
f 326 221 14 
f 15 182 223 
f 321 182 15 
f 15 250 412 
f 15 252 321 
f 412 252 15 
f 16 17 275 
f 285 17 16 
f 16 275 467 
f 467 280 16 
f 16 280 515 
f 515 285 16 
f 373 209 17 
f 17 211 373 
f 503 211 17 
f 17 285 503 
f 18 209 373 
f 461 209 18 
f 373 211 18 
f 18 211 490 
f 18 249 461 
f 490 249 18 
f 388 42 19 
f 19 42 473 
f 19 86 217 
f 314 86 19 
f 19 217 388 
f 473 314 19 
f 20 21 285 
f 293 21 20 
f 244 23 20 
f 20 23 293 
f 414 244 20 
f 20 260 414 
f 420 260 20 
f 20 280 420 
f 515 280 20 
f 20 285 515 
f 21 24 225 
f 293 24 21 
f 352 211 21 
f 21 211 503 
f 21 225 352 
f 503 285 21 
f 225 25 22 
f 22 25 252 
f 22 211 352 
f 490 211 22 
f 352 225 22 
f 411 249 22 
f 22 249 490 
f 22 250 411 
f 412 250 22 
f 22 252 412 
f 222 24 23 
f 23 24 293 
f 342 222 23 
f 23 242 342 
f 417 242 23 
f 23 244 417 
f 337 186 24 
f 24 186 340 
f 24 222 337 
f 340 225 24 
f 25 186 334 
f 340 186 25 
f 25 225 340 
f 334 237 25 
f 25 237 416 
f 416 252 25 
f 291 29 26 
f 26 29 308 
f 331 221 26 
f 26 221 534 
f 300 242 26 
f 26 242 417 
f 26 244 331 
f 417 244 26 
f 534 291 26 
f 308 300 26 
f 27 30 291 
f 381 30 27 
f 326 182 27 
f 27 182 328 
f 27 221 326 
f 534 221 27 
f 27 291 534 
f 27 328 381 
f 236 31 28 
f 28 31 381 
f 28 182 321 
f 328 182 28 
f 438 236 28 
f 416 237 28 
f 28 237 438 
f 321 252 28 
f 28 252 416 
f 381 328 28 
f 322 196 29 
f 29 196 383 
f 291 232 29 
f 29 232 322 
f 383 308 29 
f 30 190 380 
f 381 190 30 
f 30 232 291 
f 380 232 30 
f 377 190 31 
f 31 190 381 
f 31 236 258 
f 31 258 377 
f 232 33 32 
f 32 33 282 
f 32 196 322 
f 505 196 32 
f 322 232 32 
f 32 282 505 
f 33 190 370 
f 380 190 33 
f 33 232 380 
f 495 282 33 
f 370 299 33 
f 33 299 495 
f 370 190 34 
f 34 190 377 
f 377 258 34 
f 34 258 492 
f 34 299 370 
f 492 299 34 
f 35 43 242 
f 469 43 35 
f 35 64 469 
f 513 64 35 
f 35 242 300 
f 35 300 520 
f 520 513 35 
f 196 51 36 
f 36 51 451 
f 255 73 36 
f 36 73 319 
f 36 75 255 
f 451 75 36 
f 383 196 36 
f 36 319 383 
f 277 38 37 
f 37 38 278 
f 37 253 480 
f 483 253 37 
f 480 277 37 
f 37 278 483 
f 38 203 351 
f 476 203 38 
f 351 204 38 
f 38 204 477 
f 38 277 476 
f 477 278 38 
f 351 203 39 
f 39 203 470 
f 39 204 351 
f 486 204 39 
f 470 251 39 
f 39 251 486 
f 489 254 40 
f 40 389 489 
f 40 391 475 
f 475 393 40 
f 41 60 266 
f 310 60 41 
f 459 246 41 
f 41 246 487 
f 41 262 474 
f 487 262 41 
f 41 266 459 
f 474 310 41 
f 42 215 303 
f 388 215 42 
f 42 303 402 
f 42 402 473 
f 43 44 222 
f 278 44 43 
f 43 222 342 
f 342 242 43 
f 469 253 43 
f 43 253 483 
f 483 278 43 
f 44 186 337 
f 344 186 44 
f 44 204 344 
f 477 204 44 
f 337 222 44 
f 44 278 477 
f 334 186 45 
f 45 186 344 
f 344 204 45 
f 45 204 486 
f 45 237 334 
f 463 237 45 
f 439 246 45 
f 45 246 463 
f 45 251 439 
f 486 251 45 
f 46 59 386 
f 462 59 46 
f 46 247 462 
f 498 247 46 
f 46 386 498 
f 307 214 47 
f 47 214 472 
f 472 256 47 
f 471 307 47 
f 47 316 471 
f 48 236 438 
f 506 236 48 
f 438 237 48 
f 48 237 463 
f 48 246 459 
f 463 246 48 
f 462 247 48 
f 48 247 506 
f 459 266 48 
f 48 266 462 
f 457 247 49 
f 49 247 498 
f 49 386 456 
f 498 386 49 
f 456 390 49 
f 49 390 457 
f 258 236 50 
f 50 236 506 
f 50 247 457 
f 506 247 50 
f 455 258 50 
f 50 391 455 
f 475 391 50 
f 457 393 50 
f 50 393 475 
f 51 52 273 
f 282 52 51 
f 51 196 505 
f 51 243 451 
f 452 243 51 
f 51 273 452 
f 505 282 51 
f 329 200 52 
f 52 200 447 
f 447 273 52 
f 52 282 495 
f 495 329 52 
f 53 200 329 
f 443 200 53 
f 392 239 53 
f 53 239 443 
f 53 258 455 
f 492 258 53 
f 329 299 53 
f 53 299 492 
f 455 392 53 
f 54 55 270 
f 273 55 54 
f 441 243 54 
f 54 243 452 
f 54 270 441 
f 452 273 54 
f 198 81 55 
f 55 81 270 
f 324 198 55 
f 55 200 324 
f 447 200 55 
f 55 273 447 
f 56 198 324 
f 434 198 56 
f 324 200 56 
f 56 200 443 
f 56 239 434 
f 443 239 56 
f 376 65 57 
f 57 65 531 
f 124 84 57 
f 57 84 354 
f 531 124 57 
f 57 193 524 
f 525 193 57 
f 57 354 525 
f 524 376 57 
f 192 76 58 
f 58 76 363 
f 522 191 58 
f 58 191 526 
f 523 192 58 
f 58 346 523 
f 526 346 58 
f 58 363 522 
f 59 60 69 
f 266 60 59 
f 59 69 72 
f 59 72 386 
f 462 266 59 
f 527 69 60 
f 60 310 527 
f 61 253 429 
f 480 253 61 
f 61 277 480 
f 532 277 61 
f 429 287 61 
f 61 287 532 
f 382 203 62 
f 62 203 476 
f 62 213 382 
f 519 213 62 
f 476 277 62 
f 62 277 532 
f 62 287 519 
f 532 287 62 
f 63 203 382 
f 470 203 63 
f 382 213 63 
f 63 213 516 
f 63 251 470 
f 516 251 63 
f 64 65 287 
f 531 65 64 
f 264 194 64 
f 64 194 531 
f 429 253 64 
f 64 253 469 
f 513 264 64 
f 64 287 429 
f 376 213 65 
f 65 213 519 
f 519 287 65 
f 66 193 262 
f 524 193 66 
f 66 213 376 
f 516 213 66 
f 66 246 439 
f 487 246 66 
f 439 251 66 
f 66 251 516 
f 66 262 487 
f 66 376 524 
f 70 68 67 
f 67 68 394 
f 520 70 67 
f 504 264 67 
f 67 264 513 
f 67 394 504 
f 67 513 520 
f 71 69 68 
f 68 69 409 
f 68 70 71 
f 409 394 68 
f 69 71 72 
f 527 409 69 
f 73 71 70 
f 319 73 70 
f 70 288 319 
f 520 288 70 
f 74 72 71 
f 71 73 494 
f 494 74 71 
f 72 74 386 
f 73 255 493 
f 493 257 73 
f 73 257 494 
f 74 257 422 
f 494 257 74 
f 456 386 74 
f 422 389 74 
f 74 390 456 
f 281 76 75 
f 75 76 290 
f 451 243 75 
f 75 243 491 
f 309 255 75 
f 491 281 75 
f 75 290 309 
f 76 192 290 
f 76 281 488 
f 488 363 76 
f 254 191 77 
f 77 191 522 
f 77 239 392 
f 485 239 77 
f 363 302 77 
f 77 302 485 
f 522 363 77 
f 180 87 78 
f 78 87 346 
f 78 88 216 
f 346 88 78 
f 78 122 180 
f 323 122 78 
f 78 216 529 
f 529 323 78 
f 219 111 79 
f 79 111 327 
f 327 218 79 
f 79 218 528 
f 354 219 79 
f 528 354 79 
f 270 81 80 
f 80 81 281 
f 80 243 441 
f 491 243 80 
f 441 270 80 
f 80 281 491 
f 81 198 359 
f 488 281 81 
f 81 359 542 
f 542 488 81 
f 359 198 82 
f 82 198 434 
f 434 239 82 
f 82 239 485 
f 82 302 359 
f 485 302 82 
f 83 84 124 
f 181 84 83 
f 83 124 194 
f 220 181 83 
f 83 194 318 
f 410 220 83 
f 318 301 83 
f 83 301 410 
f 84 181 219 
f 84 219 354 
f 315 193 85 
f 85 193 525 
f 85 218 403 
f 528 218 85 
f 403 315 85 
f 525 354 85 
f 85 354 528 
f 86 87 180 
f 401 87 86 
f 86 180 217 
f 314 309 86 
f 86 309 401 
f 401 192 87 
f 87 192 523 
f 523 346 87 
f 88 191 313 
f 526 191 88 
f 404 216 88 
f 88 313 404 
f 88 346 526 
f 89 90 274 
f 394 90 89 
f 318 264 89 
f 89 264 504 
f 89 274 468 
f 303 301 89 
f 89 301 318 
f 402 303 89 
f 504 394 89 
f 468 402 89 
f 341 202 90 
f 90 202 466 
f 466 274 90 
f 527 341 90 
f 90 394 409 
f 90 409 527 
f 91 202 341 
f 465 202 91 
f 464 248 91 
f 91 248 465 
f 91 262 315 
f 474 262 91 
f 341 310 91 
f 91 310 474 
f 91 315 464 
f 92 93 257 
f 274 93 92 
f 92 255 314 
f 493 255 92 
f 92 257 493 
f 468 274 92 
f 92 314 473 
f 92 402 468 
f 473 402 92 
f 93 202 339 
f 466 202 93 
f 422 257 93 
f 93 274 466 
f 93 339 389 
f 93 389 422 
f 339 202 94 
f 94 202 465 
f 94 248 460 
f 465 248 94 
f 313 254 94 
f 94 254 489 
f 460 313 94 
f 389 339 94 
f 489 389 94 
f 98 96 95 
f 95 96 102 
f 102 98 95 
f 99 97 96 
f 96 97 103 
f 96 98 99 
f 408 102 96 
f 96 103 408 
f 97 99 496 
f 521 103 97 
f 97 248 464 
f 496 248 97 
f 464 403 97 
f 97 403 521 
f 100 99 98 
f 104 100 98 
f 98 102 104 
f 99 100 458 
f 458 101 99 
f 99 101 496 
f 100 104 105 
f 100 105 387 
f 100 387 458 
f 101 106 245 
f 387 106 101 
f 101 245 404 
f 460 248 101 
f 101 248 496 
f 458 387 101 
f 101 404 460 
f 115 104 102 
f 408 115 102 
f 335 185 103 
f 103 185 408 
f 103 238 335 
f 415 238 103 
f 521 415 103 
f 117 105 104 
f 104 115 117 
f 105 117 120 
f 105 120 407 
f 407 387 105 
f 106 184 332 
f 407 184 106 
f 332 235 106 
f 106 235 413 
f 413 245 106 
f 106 387 407 
f 107 108 271 
f 272 108 107 
f 107 240 453 
f 454 240 107 
f 107 271 454 
f 453 272 107 
f 108 199 330 
f 449 199 108 
f 330 201 108 
f 108 201 450 
f 450 271 108 
f 108 272 449 
f 330 199 109 
f 109 199 446 
f 109 201 330 
f 448 201 109 
f 446 241 109 
f 109 241 448 
f 110 111 181 
f 271 111 110 
f 110 181 220 
f 110 220 540 
f 444 240 110 
f 110 240 454 
f 454 271 110 
f 110 385 444 
f 445 385 110 
f 540 445 110 
f 219 181 111 
f 111 201 327 
f 450 201 111 
f 111 271 450 
f 327 201 112 
f 112 201 448 
f 112 218 327 
f 415 218 112 
f 112 238 415 
f 442 238 112 
f 112 241 442 
f 448 241 112 
f 116 114 113 
f 113 114 128 
f 440 116 113 
f 113 128 385 
f 113 130 289 
f 445 130 113 
f 113 289 541 
f 113 385 445 
f 541 440 113 
f 116 115 114 
f 114 115 406 
f 406 128 114 
f 115 116 117 
f 115 185 406 
f 408 185 115 
f 119 117 116 
f 116 118 119 
f 440 118 116 
f 117 119 120 
f 129 119 118 
f 384 129 118 
f 118 215 388 
f 440 215 118 
f 437 384 118 
f 118 388 437 
f 405 120 119 
f 119 129 405 
f 405 184 120 
f 120 184 407 
f 180 122 121 
f 121 122 269 
f 217 180 121 
f 437 217 121 
f 121 233 435 
f 436 233 121 
f 121 269 436 
f 435 384 121 
f 121 384 437 
f 323 197 122 
f 122 197 433 
f 433 269 122 
f 123 197 323 
f 432 197 123 
f 123 216 245 
f 529 216 123 
f 431 234 123 
f 123 234 432 
f 413 235 123 
f 123 235 431 
f 123 245 413 
f 123 323 529 
f 531 194 124 
f 430 233 125 
f 125 233 436 
f 125 268 430 
f 533 268 125 
f 436 269 125 
f 125 269 533 
f 320 195 126 
f 126 195 428 
f 126 197 320 
f 433 197 126 
f 428 268 126 
f 126 268 533 
f 126 269 433 
f 533 269 126 
f 127 195 320 
f 427 195 127 
f 320 197 127 
f 127 197 432 
f 127 234 427 
f 432 234 127 
f 128 137 512 
f 539 137 128 
f 512 385 128 
f 128 406 539 
f 397 141 129 
f 129 141 405 
f 129 384 397 
f 130 220 410 
f 540 220 130 
f 301 289 130 
f 410 301 130 
f 130 445 540 
f 131 132 272 
f 286 132 131 
f 453 240 131 
f 131 240 518 
f 131 272 453 
f 518 286 131 
f 379 199 132 
f 132 199 449 
f 132 212 379 
f 517 212 132 
f 449 272 132 
f 132 286 517 
f 133 199 379 
f 446 199 133 
f 379 212 133 
f 133 212 514 
f 133 241 446 
f 514 241 133 
f 134 135 286 
f 298 135 134 
f 265 150 134 
f 134 150 298 
f 134 240 444 
f 518 240 134 
f 512 265 134 
f 134 286 518 
f 134 444 512 
f 135 151 231 
f 298 151 135 
f 378 212 135 
f 135 212 517 
f 135 231 378 
f 517 286 135 
f 136 212 378 
f 514 212 136 
f 378 231 136 
f 136 231 538 
f 136 238 442 
f 511 238 136 
f 442 241 136 
f 136 241 514 
f 136 263 511 
f 538 263 136 
f 137 140 396 
f 426 140 137 
f 510 265 137 
f 137 265 512 
f 137 396 510 
f 539 426 137 
f 138 185 374 
f 406 185 138 
f 374 210 138 
f 138 210 509 
f 539 406 138 
f 509 426 138 
f 138 426 539 
f 139 185 335 
f 374 185 139 
f 139 210 374 
f 508 210 139 
f 335 238 139 
f 139 238 511 
f 507 259 139 
f 139 259 508 
f 139 263 507 
f 511 263 139 
f 140 141 425 
f 426 141 140 
f 425 396 140 
f 141 142 405 
f 426 142 141 
f 397 261 141 
f 141 261 425 
f 372 184 142 
f 142 184 405 
f 142 210 372 
f 509 210 142 
f 142 426 509 
f 332 184 143 
f 143 184 372 
f 372 210 143 
f 143 210 508 
f 143 235 332 
f 395 235 143 
f 143 259 424 
f 508 259 143 
f 424 395 143 
f 435 233 144 
f 144 233 502 
f 144 261 397 
f 501 261 144 
f 144 283 501 
f 537 283 144 
f 502 284 144 
f 144 284 537 
f 144 397 435 
f 145 207 371 
f 500 207 145 
f 371 208 145 
f 145 208 499 
f 499 283 145 
f 145 283 537 
f 145 284 500 
f 537 284 145 
f 146 153 371 
f 395 153 146 
f 371 207 146 
f 146 207 497 
f 146 234 431 
f 497 234 146 
f 146 235 395 
f 431 235 146 
f 268 148 147 
f 147 148 284 
f 147 233 430 
f 502 233 147 
f 430 268 147 
f 147 284 502 
f 148 195 369 
f 428 195 148 
f 369 207 148 
f 148 207 500 
f 148 268 428 
f 500 284 148 
f 369 195 149 
f 149 195 427 
f 149 207 369 
f 497 207 149 
f 427 234 149 
f 149 234 497 
f 228 151 150 
f 150 151 298 
f 368 228 150 
f 150 265 423 
f 398 368 150 
f 423 398 150 
f 366 189 151 
f 151 189 367 
f 151 228 366 
f 367 231 151 
f 152 189 365 
f 367 189 152 
f 152 231 367 
f 538 231 152 
f 365 256 152 
f 152 256 421 
f 421 263 152 
f 152 263 538 
f 153 161 208 
f 395 161 153 
f 153 208 371 
f 295 155 154 
f 154 155 296 
f 154 157 295 
f 396 157 154 
f 423 265 154 
f 154 265 510 
f 154 296 536 
f 510 396 154 
f 154 398 423 
f 536 398 154 
f 226 163 155 
f 155 163 296 
f 364 226 155 
f 267 227 155 
f 155 227 364 
f 295 267 155 
f 156 214 226 
f 472 214 156 
f 156 226 364 
f 364 227 156 
f 156 227 535 
f 421 256 156 
f 156 256 472 
f 156 259 507 
f 535 259 156 
f 156 263 421 
f 507 263 156 
f 157 261 362 
f 425 261 157 
f 399 295 157 
f 157 362 399 
f 157 396 425 
f 158 188 361 
f 400 188 158 
f 158 227 400 
f 535 227 158 
f 424 259 158 
f 158 259 535 
f 158 361 395 
f 158 395 424 
f 283 160 159 
f 159 160 312 
f 362 261 159 
f 159 261 501 
f 501 283 159 
f 159 312 362 
f 160 188 304 
f 360 188 160 
f 160 208 360 
f 499 208 160 
f 160 283 499 
f 160 304 312 
f 161 188 360 
f 361 188 161 
f 360 208 161 
f 395 361 161 
f 296 163 162 
f 162 163 306 
f 536 296 162 
f 311 305 162 
f 162 305 536 
f 162 306 358 
f 358 311 162 
f 163 226 530 
f 357 306 163 
f 543 357 163 
f 163 530 543 
f 164 165 279 
f 481 165 164 
f 164 170 481 
f 484 170 164 
f 164 279 484 
f 165 205 355 
f 481 205 165 
f 355 206 165 
f 165 206 482 
f 482 279 165 
f 355 205 166 
f 166 205 478 
f 166 206 355 
f 479 206 166 
f 478 276 166 
f 166 276 479 
f 167 168 228 
f 279 168 167 
f 167 228 368 
f 484 279 167 
f 167 305 311 
f 368 305 167 
f 167 311 419 
f 167 419 484 
f 353 189 168 
f 168 189 366 
f 168 206 353 
f 482 206 168 
f 366 228 168 
f 168 279 482 
f 169 189 353 
f 365 189 169 
f 353 206 169 
f 169 206 479 
f 169 256 365 
f 169 276 317 
f 479 276 169 
f 418 171 170 
f 170 171 481 
f 484 418 170 
f 292 172 171 
f 171 172 481 
f 171 174 292 
f 418 174 171 
f 292 175 172 
f 172 175 350 
f 350 205 172 
f 172 205 481 
f 173 176 276 
f 350 176 173 
f 173 205 350 
f 478 205 173 
f 173 276 478 
f 224 175 174 
f 174 175 292 
f 349 224 174 
f 419 349 174 
f 174 418 419 
f 347 187 175 
f 175 187 348 
f 175 224 347 
f 175 348 350 
f 176 187 336 
f 348 187 176 
f 317 276 176 
f 336 317 176 
f 350 348 176 
f 177 178 224 
f 306 178 177 
f 177 224 349 
f 358 306 177 
f 349 311 177 
f 177 311 358 
f 345 187 178 
f 178 187 347 
f 347 224 178 
f 178 306 357 
f 178 307 345 
f 357 307 178 
f 336 187 179 
f 179 187 345 
f 345 307 179 
f 179 307 471 
f 179 316 336 
f 471 316 179 
f 400 304 188 
f 191 254 313 
f 401 290 192 
f 315 262 193 
f 194 264 318 
f 530 226 214 
f 214 307 530 
f 215 289 303 
f 541 289 215 
f 215 440 541 
f 404 245 216 
f 437 388 217 
f 521 403 218 
f 218 415 521 
f 227 267 400 
f 255 309 314 
f 267 295 399 
f 399 304 267 
f 267 304 400 
f 288 300 308 
f 520 300 288 
f 288 308 383 
f 383 319 288 
f 289 301 303 
f 401 309 290 
f 299 329 495 
f 542 359 302 
f 302 363 488 
f 302 488 542 
f 399 312 304 
f 305 368 398 
f 305 398 536 
f 307 357 543 
f 543 530 307 
f 310 341 527 
f 311 349 419 
f 399 362 312 
f 460 404 313 
f 315 403 464 
f 316 317 336 
f 435 397 384 
f 512 444 385 
f 390 393 457 
f 391 392 455 
f 484 419 418 
