v 0 0 9
v 0 0 18
v 0 6 9
v 0 6 18
v 2.9999985694885249 6 9
v 2.9999985694885249 6 18
v 2.9999985694885249 9 9.0010933218914619
v 2.9999985694885249 9 18
v 5.9999990463256836 9 9
v 5.9999990463256836 9 18
v 5.9999990463256836 12 9
v 5.9999990463256836 12 18
v 13.476241286880789 0 6.0139465820794697
v 13.458792686462401 0 9
v 13.458792686462401 9 12
v 13.458792686462401 9 18
v 13.458792686462401 12 9
v 13.458792686462401 12 12
v 13.458792686462401 12 18
v 13.47277969922304 18 5.9999995231628418
v 13.458792686462401 18 12
v 16.458791732788089 0 2.9999995231628418
v 16.458791732788089 0 5.9999995231628418
v 16.458791732788089 6 15
v 16.458791732788089 6 18
v 16.458791732788089 9 12
v 16.458791732788089 9 15
v 16.458791732788089 9 18
v 16.458791732788089 18 2.9999995231628418
v 16.458791732788089 18 5.9999995231628418
v 16.458791732788089 18 12
v 16.458791732788089 18 15
v 16.611360549926761 18 8.8790426254272461
v 16.611360549926761 25 8.8790426254272461
v 16.631877899169918 18 9.3620004653930664
v 16.631877899169918 25 9.3620004653930664
v 16.672760009765621 18 8.3995637893676758
v 16.672760009765621 25 8.3995637893676758
v 16.73371696472168 18 9.8345451354980469
v 16.73371696472168 25 9.8345451354980469
v 16.814310073852539 18 7.9373588562011719
v 16.82216835565157 25 7.9217728071082636
v 16.91395378112793 18 10.28308010101318
v 16.89523339650021 25 10.236492798591581
v 17.05654974709433 18 7.4724424122979611
v 17.03193473815918 25 7.5057239532470703
v 17.167400360107418 18 10.694704055786129
v 17.167400360107418 25 10.694704055786129
v 17.319377899169918 18 7.1170768737792969
v 17.319377899169918 25 7.1170768737792969
v 17.50871379453109 18 11.075293774536741
v 17.48676872253418 25 11.05757427215576
v 17.668365478515621 18 6.7825980186462402
v 17.668365478515621 25 6.7825980186462402
v 17.852550413370071 18 11.35292393164181
v 17.86286544799805 25 11.361252784729
v 18.068862915039059 18 6.5119094848632812
v 18.068862915039059 25 6.5119094848632812
v 18.28487396240234 18 11.597001075744631
v 18.28487396240234 25 11.597001075744631
v 18.509346008300781 18 6.3127985000610352
v 18.607319012737271 25 6.287288304513404
v 18.740655899047852 18 11.75803852081299
v 18.740655899047852 25 11.75803852081299
v 18.977140426635739 18 6.1909942626953116
v 18.977140426635739 25 6.1909942626953116
v 19.217096328735352 18 11.83973217010498
v 19.217096328735352 25 11.83973217010498
v 19.458793640136719 0 0
v 19.458793640136719 0 2.9999995231628418
v 19.458793640136719 0 15
v 19.458793640136719 0 18
v 19.458793640136719 6 0
v 19.458793640136719 6 2.9999995231628418
v 19.458793640136719 6 15
v 19.458793640136719 6 18
v 19.458793640136719 18 6.1499996185302734
v 19.40094849034605 25 6.1549229560392362
v 19.615065397438009 25 11.84336097967002
v 19.70048904418945 18 11.83973217010498
v 19.98473198644054 18 6.2025256682550998
v 19.924798523649969 25 6.1896625533853769
v 20.166787448907421 18 11.7597775399628
v 20.171526035788791 25 11.758965030295901
v 20.40824127197266 18 6.3127985000610352
v 20.40824127197266 25 6.3127985000610352
v 20.632711410522461 18 11.597001075744631
v 20.632711410522461 25 11.597001075744631
v 20.848722457885739 18 6.5119094848632812
v 20.848722457885739 25 6.5119094848632812
v 21.054719924926761 18 11.361252784729
v 21.054719924926761 25 11.361252784729
v 21.24921989440918 18 6.7825980186462402
v 21.288120152819989 25 6.819880843469619
v 21.430818557739261 18 11.05757427215576
v 21.416555159217111 25 11.06807996220107
v 21.586800196846362 18.00423742425674 7.1061420719189821
v 21.598209381103519 25 7.1170768737792969
v 21.736934659564199 18 10.709759358168411
v 21.750185012817379 25 10.694704055786129
v 21.885652542114261 18 7.5057239532470703
v 21.885652542114261 25 7.5057239532470703
v 22.003631591796879 18 10.28308010101318
v 22.003631591796879 25 10.28308010101318
v 22.103275299072269 18 7.9373588562011719
v 22.09318138552074 25 7.9173384986928772
v 22.183868408203121 18 9.8345451354980469
v 22.183868408203121 25 9.8345451354980469
v 22.24482536315918 18 8.3995637893676758
v 22.24482536315918 25 8.3995637893676758
v 22.285709381103519 18 9.3620004653930664
v 22.285709381103519 25 9.3620004653930664
v 22.30622673034668 18 8.8790426254272461
v 22.30622673034668 25 8.8790426254272461
v 22.458793640136719 0 12
v 22.438452354249979 0 15
v 22.458793640136719 6 0
v 22.458793640136719 6 2.9999995231628418
v 22.458793640136719 9 0
v 22.458793640136719 9 2.9999995231628418
v 22.458793640136719 9 5.9999995231628418
v 22.458793640136719 18 2.9999995231628418
v 22.458793640136719 18 5.9999995231628418
v 22.458793640136719 18 12
v 22.458793640136719 18 15
v 25.458793640136719 0 9
v 25.458793640136719 0 12
v 25.458793640136719 9 0
v 25.458793640136719 9 5.9999995231628418
v 25.458793640136719 12 0.011150209958672649
v 25.458793640136719 12 5.9999995231628418
v 25.458793640136719 12 9
v 25.458793640136719 18 5.9999995231628418
v 25.458793640136719 18 12
v 31.458795547485352 9 0
v 31.458795547485352 9 9
v 31.458795547485352 12 0
v 31.458795547485352 12 9
v 34.458793640136719 6 0
v 34.458793640136719 6 9
v 34.458793640136719 9 0
v 34.458793640136719 9 9
v 37.458793640136719 0 0
v 37.458793640136719 0 9
v 37.458793640136719 6 0
v 37.458793640136719 6 9
v 22.458793640136719 9.1684358625582831 13.610304122349561
v 1.9870108222938261 3.962335663400653 9
v 25.458793640136719 4.4634861799779308 12
v 35.483373656676633 4.3162152147479969 0
v 23.788457032487631 0 10.39341808698717
v 25.458793640136719 16.36720224531652 7.8493877776501151
v 23.357859664517932 1.692868071005607 0
v 33.5970126290512 1.885269736068814 9
v 29.95879507064819 10.5 0
v 26.864631513213411 10.54661862772744 0
v 19.458793640136719 4.5 1.4999997615814209
v 31.479413006208329 5.9706347566638378 9
v 22.348111086876401 0 4.415775701886524
v 21.014046241664531 16.875476432033501 2.9999995231628418
v 28.581824147048259 12 6.8598471291537271
v 28.780764760508241 10.0976627924629 9
v 21.600346297428679 3.4491415200950759 0
v 22.458793640136719 14.675963298569849 12
v 20.931771448788218 0 6.131054484455464
v 20.087834997240051 0 7.9282985528201868
v 27.944077500885431 7.857486404183244 9
v 29.33152730787122 6.0712662510763504 9
v 22.87323290078378 0 2.3602618069487011
v 7.9413330909592439 0 13.72272736382177
v 29.030234314785108 12 5.2102382627378283
v 35.300136803634743 2.403413865154163 0
v 28.367353943825471 12 9
v 28.458794593811039 12 0
v 28.57016340183651 8.8783254905583249 0
v 37.454983230290182 3.1414463784089079 0
v 19.458793640136719 3.0740309332069069 2.9999995231628418
v 19.458793640136719 3 0
v 0 3 18
v 25.458793640136719 15 5.9999995231628418
v 13.458792686462401 12 15
v 13.458792686462401 15 12
v 25.458793640136719 9 2.9999997615814209
v 16.458791732788089 11.94365836653412 12
v 4.1650475511743021 3.393003245460565 9
v 17.25754267928124 0 8.5070720196456691
v 16.24836260887799 0 9.6997015607581272
v 17.456380388043691 0 13.371206890537451
v 8.9238062397569493 9.3282756098134989 9
v 8.6918393854833305 12 18
v 17.23892888202575 3.3754628740146382 18
v 7.8061791771423064 12 13.396426669886759
v 13.458792686462401 9.2804519293894767 9
v 0 4.08366968712867 9
v 22.458793640136719 9.6293802042479015 15
v 15.034523556546491 16.839210735946349 5.9999995231628418
v 20.594095230102539 18 15
v 24.046462416344081 10.210982249660599 12
v 22.458793640136719 13.75308171097118 13.483048328465671
v 22.18210139815864 0 0
v 2.9999985694885249 7.3421938419787436 16.903677626188529
v 32.701812487064693 9 1.299659841782572
v 13.458792686462401 2.2501759133571362 7.5253987922641761
v 25.458793640136719 1.1135910275712311 10.561168207883449
v 25.458793640136719 3.6976829571252252 10.30201429354492
v 11.18538263876848 0 10.67034877431926
v 11.524947734107769 1.6238401741279589 9
v 1.4999992847442629 6 10.28003466189708
v 1.562243197768471 6 16.91351133024865
v 23.947366385140111 16.418910559639531 5.9999995231628418
v 25.458793640136719 9.3798164928492618 9
v 31.620956252681829 5.8269810307443137 0
v 29.435810593338029 3.8770171011170991 9
v 5.9999990463256836 10.77429488395236 10.33073549637774
v 13.16272409160784 1.831365810714539 18
v 13.458792686462401 13.76770082791052 5.9999995231628418
v 21.08094558165751 1.4488545065164511 0
v 18.007429671594849 16.50751536139482 15
v 34.287909950677417 0 5.3513507548806896
v 37.458793640136719 0 7.1292705247800816
v 2.0970298909604721 2.1872211616425061 18
v 22.458793640136719 16.721897536012001 4.6172264353018093
v 22.458793640136719 4.1042361673223589 12
v 4.6264961152335591 5.6818829477318058 18
v 5.8883800673061266 6.8549294742512021 9
v 8.0555484385695433 7.0425852971039724 9
v 2.9999985694885249 7.6581602453237432 12.43338720008205
v 8.4246305308950102 7.2096119623429669 18
v 7.8205164970154772 12 11.28499084743677
v 15.290562061706 0 11.458077040127611
v 11.77255500297521 9.2362231477238588 9
v 11.67794646765096 12 12.10502392024762
v 11.67794646765096 12 15.854972542310311
v 36.106435657758723 6 1.0930110906984529
v 16.458791732788089 16.01825040727228 4.6598807036845216
v 18.750047237651589 18 4.6197628517109619
v 18.893392576328459 15.728814352374799 2.9999995231628418
v 37.441570027746081 4.0805968662824181 9
v 16.611360549926761 23.538239082431211 8.8790426254272461
v 19.048286988885639 25 8.9718913008486574
v 16.7249998423076 20.124103932211241 9.7940967111816306
v 16.75102411088573 22.8373064904854 9.8776154713075712
v 16.79359661852034 19.64830190716691 8.0049947226998981
v 16.792488772438581 22.661346019332822 8.0086121843201443
v 17.634566002485581 20.46457604518082 6.8149923235318806
v 17.615989709335341 23.514910298572389 6.8327963304170476
v 18.696770043059612 23.37877217405601 6.2639970592506424
v 18.728930484531791 20.20876979415862 11.7538956826612
v 7.5304627517389982 12 16.69885449415456
v 22.458793640136719 10.35314254440387 4.4575999538558264
v 18.668548307634119 0 11.19870945060593
v 21.045015261413401 1.73018383787925 15
v 15.80698135781574 0 14.779510930172661
v 1.3327400049345339 0 16.88147993198147
v 19.602189899517359 9.58057892154992 2.9999995231628418
v 21.178494677219621 20.851029911945702 6.7347962012146274
v 21.056263906122549 23.214302901009191 6.6521827680335361
v 19.790950119199859 22.79246658136438 11.824221111689299
v 22.458793640136719 16.660525683573589 13.36518034759017
v 24.133111138938659 0 6.9727826325745959
v 21.148657732062301 22.825591337006578 11.2854032839425
v 21.022810649767621 20.71051623943136 11.37907838973352
v 22.101961939056899 20.16975017154012 10.038376494964391
v 22.262898154209751 0 8.5325726663395827
v 4.4157237401879703 9 14.591877512218581
v 5.9999990463256836 10.499555141766081 14.47186145144639
v 2.9999985694885249 7.3851668803391686 10.212753495721291
v 1.394033128347008 6 14.711992922819521
v 18.939103878624891 9.8232625280432817 15
v 19.969584483833781 11.661280372295071 2.9999995231628418
v 3.6942103857020032 1.541807050069296 9
v 19.774616017720309 16.032138061047029 15
v 28.49331459102893 1.9996878837519709 9
v 27.741237210192011 0 7.235122811644807
v 25.458793640136719 5.3873947042868684 10.592418780655761
v 27.074925924081111 7.3067748873063572 0
v 4.9504490059167994 4.9803812813323161 9
v 14.06836910021952 5.8409414738659029 18
v 4.1570560285906248 3.5591684160151158 18
v 22.458793640136719 13.80666654115779 4.3272049029118769
v 2.3669391941792859 0 15.35273479201431
v 25.458793640136719 16.376940797083321 10.048845079603341
v 23.771594477244101 16.48811805097635 12
v 22.49009071475864 0 6.2917581262100359
v 29.229884944012468 0 1.779713609079842
v 31.53401326994085 4.0620268734310283 9
v 33.514249883741108 3.7321582115538701 9
v 31.458795547485352 10.507106332044501 2.1114110270383901
v 29.740440073108871 12 1.75256013075124
v 33.302576326212112 3.7616975942666371 0
v 7.6938193866393414 9.6213368853298356 18
v 36.020437996836471 6 6.8001041111874896
v 35.534356327913272 1.9504431176502941 9
v 10.951450228971931 0 14.40550869850755
v 36.045617173094023 0 6.8484286566584212
v 34.150147325418807 0 6.9551958616622116
v 15.02970351234252 7.8580443694236664 5.9999995231628418
v 27.101071854895249 12 1.2930234564713441
v 27.243934293217151 10.989376736364949 9
v 22.458793640136719 11.346527772582389 5.9999995231628418
v 13.458792686462401 13.989328604650661 7.9364618556905899
v 0 3.878617591497119 14.622059163616591
v 0 4.0683130942558154 12.68717905875868
v 0 1.663289711277699 15.81396860806413
v 7.2937370579944227 10.728725939650561 9
v 13.458792686462401 10.555510321680609 13.658193819081671
v 4.2338830575014201 0 12.235825435965189
v 4.4212704323954792 1.379351200725039 18
v 4.7669206967356601 0 14.607517275582129
v 4.6504359887402984 0 16.545011081728791
v 6.9163952075183346 0 12.12493776242945
v 5.653201233957164 2.575518545550409 18
v 7.2101527982240388 1.4383146514901419 18
v 6.9769795660393594 0 16.933377159369009
v 6.9769795660393594 3.3154127771176358 9
v 5.7341512511091812 4.2426347054368554 18
v 7.1845786693210698 3.4816987472457002 18
v 6.7699690991177768 5.4656053052417644 9
v 22.458793640136719 13.6480734028603 15
v 6.9769795660393594 5.6818829477318058 18
v 23.958793640136719 12.846527772582389 5.9999995231628418
v 9.5361233294946768 0 12.58515385304722
v 9.344674632622139 1.412352395594016 18
v 9.1288024568987218 0 15.74752523968621
v 9.7824362081300222 2.64626530429048 9
v 9.3274630168451615 3.3857361420112149 18
v 9.359736249984584 5.1476906490003698 9
v 9.1819812703267694 5.5325556925724131 18
v 8.2967352337557507 12 15.33009094522998
v 11.9282093921837 0 12.6464969023355
v 11.67794646765096 1.0895893362906239 18
v 11.81201475675263 0 16.5274280726758
v 10.720271501311689 4.4934476479553886 18
v 37.458793640136719 3.2972287770623909 4.5918078411677481
v 10.518415004377861 7.0225408861146326 18
v 34.458793640136719 7.5125661853878336 1.0758104754375999
v 11.846494226022759 5.6939567083323777 18
v 10.170999947821279 12 11.28499084743677
v 9.6735990530810181 12 13.269908393578049
v 9.8149765415028192 9.736647859117415 18
v 10.170999947821279 12 15.034939469499459
v 31.458795547485352 12 6.7150091525632316
v 13.0604324024335 0 14.65081236493266
v 14.02842991845676 0 15.854972542310311
v 13.001433174025131 3.7290964574266812 18
v 13.458792686462401 6.3652299186491046 9
v 13.458792686462401 14.25312832788485 10.238987250514651
v 2.9999985694885249 9 11.28499084743677
v 16.458791732788089 3.2730213886796031 4.5073317583927901
v 15.37630553522667 2.0635947340545751 18
v 17.943380815301751 2.7634048551053332 2.9999995231628418
v 16.458791732788089 5.8652154452098948 4.7097736488744442
v 0 6 11.28499084743677
v 16.458791732788089 7.6800207175385324 3.6795088582343909
v 16.458791732788089 8.0027279636752091 4.8471909077067279
v 16.458791732788089 8.8797563770767205 3.6666981354406958
v 16.458791732788089 9.4722277887135 4.4654437741546724
v 18.06274462903621 7.896893259072983 2.9999995231628418
v 16.458791732788089 11.70311318378779 4.5594688214176102
v 17.610929672226561 9.5700365870833011 2.9999995231628418
v 37.458793640136719 6 6.6928936569038129
v 16.458791732788089 14.42536361798949 4.7759782860778994
v 20.480107719057159 11.919129065609679 15
v 17.998636112474621 11.688992003728959 2.9999995231628418
v 16.458791732788089 14.83295517454267 13.66665697634005
v 17.993894013936849 12.070426622450849 15
v 18.05096553375364 14.11207760391069 15
v 16.77661879118855 21.25428229338209 8.0604326032675839
v 16.61146349804309 21.41677454636902 8.8814659209175577
v 16.747483731652409 21.44009774063516 9.8688049302150791
v 17.56763279101564 21.87906765256287 6.8791428700493791
v 4.4662089314180573 9 10.34224252360082
v 17.603772302549931 0 16.32421615934874
v 19.46489962619987 3.7449861546667869 15
v 20.740163880431979 9.9544256591255866 15
v 19.177669468992761 13.49766350166613 2.9999995231628418
v 20.859676567081369 13.111900111903941 2.9999995231628418
v 20.27783171469131 14.09665196262341 15
v 18.73593162396018 18 12.868570958706441
v 20.828371663240151 14.879391240099739 2.9999995231628418
v 34.458793640136719 7.8110737864865234 7.8013997309367547
v 22.458793640136719 4.2039586548030217 13.27585600552065
v 16.458791732788089 10.501746293383899 13.46472003154201
v 33.030307692970808 9 7.4006440140717036
v 15.02515709481642 3.9729323938974228 18
v 11.749327656581221 12 14.013533363406051
v 13.458792686462401 2.231743089988965 9
v 16.458791732788089 2.0175064930330562 5.9999995231628418
v 35.847093155118337 4.0939169185348856 9
v 13.458792686462401 16.10042456353699 8.2626736953951188
v 13.458792686462401 10.357693645883209 7.4999997615814209
v 21.13234696523876 21.76304488771785 11.29857331163141
v 22.069521098047339 21.63946265023587 7.8704104750330233
v 25.265417081798748 5.9081594859979694 0
v 25.458793640136719 10.42492312426265 10.75431191166582
v 31.458795547485352 12 2.098483623560738
v 0 6 15.78499084743677
v 37.458793640136719 6 2.2150091525632321
v 25.315791344861459 0 2.5857976400212062
v 24.409403357442759 3.299190838151937 0
v 17.70267059717985 16.848424904282059 2.9999995231628418
v 25.542580615612032 0 5.3839775830888099
v 25.458793640136719 10.5 1.616140436290689
v 27.394396470388848 5.3268632784997392 9
v 26.91577192714113 3.502722270004194 9
v 18.680821608732039 0 5.8577125385180349
v 21.177027587776681 10.54835564176865 2.9999995231628418
v 27.722521524992271 0 3.2002397872003141
v 27.92225225051466 0 5.1684558763743293
v 27.17186899524512 5.4136728966435061 0
v 28.538693403518671 2.8246593054482578 0
v 20.52528431933932 18 4.7155249062577829
v 15.08300206260901 16.536521769975121 12
v 28.392719160711898 12 3.206406004389569
v 30.748442064173361 0 3.072286880418114
v 29.12803525534002 5.7223727045135018 0
v 30.712555787972761 2.921446243945049 0
v 22.458793640136719 15.846527772582389 5.9999995231628418
v 0 4.3569041263006847 16.454094818133601
v 2.9999985694885249 6 13.707520933052241
v 22.458793640136719 1.206268428029895 13.54666938203651
v 31.831783315708009 0 6.6498498065396143
v 1.3942533704065501 6 12.50508291004985
v 33.009467982331053 0 1.3600186119588979
v 33.697823767685037 0 3.2473155620829308
v 31.260003547797659 1.940555186552845 9
v 27.560640764338551 1.4634956145149109 0
v 11.39312785165378 3.889449478547784 9
v 15.212419182505609 18 7.5625826433749914
v 23.93505050787639 18 7.9388590762584466
v 34.458793640136719 7.3756397275195518 6.1266843725622024
v 35.81971048792866 6 4.0370178203813092
v 35.745688547138833 0 3.890488976983113
v 37.458793640136719 1.5606089498121181 3.7562004895834522
v 37.458793640136719 3.497798106612275 2.0079774193970552
v 18.017937445214301 7.6192729126237424 15
v 17.730660964344189 6 16.263202433935181
v 37.458793640136719 3.689110893296681 7.257968839852694
v 4.5143484023459823 7.3648597318408218 18
v 4.2987520119500902 7.6517095587217581 9
v 20.677906512089329 0 13.209892213482989
v 0 0 11.30260608469958
v 0 2.1673393742573399 9
v 0 0 15.871166094488791
v 24.163075345146261 10.26457467177646 5.9999995231628418
v 23.957577297872099 9 4.4564431403729534
v 23.899447253028889 7.3714591382902146 0
v 2.9999985694885249 6 15.61791554363173
v 2.9999985694885249 9 15.854972542310311
v 16.458791732788089 7.5 16.5
v 5.9999990463256836 9 15.854972542310311
v 5.9999990463256836 12 11.28499084743677
v 20.676057745620351 7.6552419971393073 2.9999995231628418
v 5.9999990463256836 12 15.854972542310311
v 15.358641904174631 0 7.7280540267971336
v 24.056051043562292 9 1.547706783766442
v 22.458793640136719 7.4570234976348218 1.640027885417356
v 21.02107296400624 6 1.6807020625744471
v 13.458792686462401 9 15.54298370211489
v 14.96932553773464 10.660497736848781 12
v 15.101653497228821 7.5311486485344279 18
v 15.144699592330049 9 13.34246685459131
v 13.458792686462401 11.93157394689284 5.9999995231628418
v 32.942700773807992 7.2338408918566186 9
v 32.958794593811042 7.5 0
v 11.67794646765096 12 18
v 13.458792686462401 18 8.9649017213871041
v 16.458791732788089 12.123021128567681 15
v 16.458791732788089 15.944220208580891 2.9999995231628418
v 19.349829308742262 18 2.9999995231628418
v 16.458791732788089 15.944220208580891 15
v 18.82413639339552 17.98746690893827 15
v 16.62967451185655 19.38543171067009 9.3101349361347854
v 14.18922628166046 0 13.159601967659039
v 16.678976334122879 23.303080973259831 8.379265559178803
v 10.051513888600621 7.7878124361807721 9
v 16.968524328355791 23.36907428408696 10.37170842085283
v 17.27256410408469 20.424935130529121 7.180373021354006
v 17.86286544799805 19.268074546048769 11.361252784729
v 17.86286544799805 23.99524516307968 11.361252784729
v 18.50645937956287 19.78067146399443 6.3141033389970929
v 18.330751956808431 23.617026037230911 6.3935281308151852
v 18.28487396240234 23.72822065011108 11.597001075744631
v 18.667901609010801 23.19737878915873 11.73233288387714
v 19.016252044280719 19.471901225816929 6.1876653804141784
v 11.285102043966891 6.3511672740631608 9
v 20.74639951616965 18 12.90129211585035
v 19.458793640136719 2.1673393742573399 18
v 16.458791732788089 4.7444753884439077 2.9999995231628418
v 23.991728270761609 4.2173888359186016 12
v 24.01013430600111 13.689561373799711 12
v 16.458791732788089 6.620715477378937 2.9999995231628418
v 22.458793640136719 5.3428070590806769 15
v 19.563097238881731 23.871822531427799 6.15887717966437
v 20.848722457885739 19.823010788414511 6.5119094848632812
v 19.846010081559239 20.33874767310979 6.1829566561801368
v 20.848722457885739 20.819368105401178 6.5119094848632812
v 20.25563460580041 23.247916682760799 11.730230324963889
v 21.37598253263808 20.439080173534581 11.101851281124461
v 15.152746127638061 13.38013279273965 12
v 11.7004864159289 0 9.0179483640648748
v 21.892650831693839 19.612234241984151 10.463324551584421
v 22.097445981736811 19.788095870034532 7.9257969365860212
v 14.86306532635655 10.242992270068489 5.9999995231628418
v 22.212029442950382 19.770955728872782 9.7038772275287144
v 22.458793640136719 2.1673393742573399 12
v 20.76684589859703 0 9.985741007687718
v 1.057691151783543 0 12.175324359584319
v 22.458793640136719 15.77588036073915 2.9999995231628418
v 22.458793640136719 15.944220208580891 15
v 25.458793640136719 2.1673393742573399 9
v 25.458793640136719 2.1673393742573399 12
v 25.458793640136719 14.25599635289597 8.6230507105838221
v 25.458793640136719 11.507021268884889 12
v 25.458793640136719 18 9
v 34.458793640136719 6 2.1450274576896948
v 34.458793640136719 9 2.1450274576896948
v 35.182780975708972 0 0
v 37.458793640136719 0 2.1450274576896948
v 35.182780975708972 0 9
v 37.458793640136719 2.1673393742573399 9
v 0 0 13.56998169487354
v 15.05411980836841 18 10.36390785440331
v 23.684068556163691 18 10.35138397137726
v 0 6 13.56998169487354
v 2.9999985694885249 6 11.560069323794171
v 25.458793640136719 16.333965560350151 12
v 2.9999985694885249 9 13.56998169487354
v 2.6690334888361882 0 9
v 2.905376768735223 0.00319361791035548 18
v 4.8113172892237763 0.011924126377918251 9
v 22.355933283582122 0 10.352919513147089
v 5.7686467679576729 0 18
v 13.458792686462401 2.048114258776387 5.9999995231628418
v 6.9769795660393594 0 9
v 5.9999990463256836 9 12.34473768964355
v 6.0022057177565173 12 13.56247578207897
v 8.4520250005399546 0 18
v 10.0230537899814 0 9
v 10.421650932670641 0 18
v 16.900100387930749 19.512815353265911 10.248604729311319
v 10.239052466967641 12 9
v 5.3935468597754239 0 10.52311499966993
v 13.01288822389693 0 18
v 13.458792686462401 4.07505933255361 8.9845563067038992
v 13.458792686462401 4.1230936803252423 5.9999995231628418
v 0 3.7243093004017038 10.53941867184264
v 13.458792686462401 6.4192404860458332 5.9999995231628418
v 13.458792686462401 8.7153872917664224 5.9999995231628418
v 13.458792686462401 15.6038277089282 5.9999995231628418
v 15.503475352957359 0 18
v 25.458793640136719 10.265276457229721 4.5957125534861074
v 16.458791732788089 2.7772212807977059 2.9999995231628418
v 16.458791732788089 4.4634861799779308 5.9999995231628418
v 16.458791732788089 6.7596329856985218 5.9999995231628418
v 16.458791732788089 9.0557797914191127 2.9999995231628418
v 16.458791732788089 10.05552295346827 2.9999995231628418
v 16.458791732788089 9.0557797914191127 5.9999995231628418
v 16.458791732788089 11.351926597139711 2.9999995231628418
v 16.458791732788089 11.3736882630685 5.9999995231628418
v 16.458791732788089 14.39786940399016 2.9999995231628418
v 16.458791732788089 12.57029844305803 2.9999995231628418
v 16.458791732788089 13.6480734028603 5.9999995231628418
v 16.458791732788089 14.15582147395974 15
v 16.458791732788089 15.86747821386229 5.9999995231628418
v 16.458791732788089 14.98831385499795 12
v 16.672760009765621 20.239545655781829 8.3995637893676758
v 16.640304869045892 20.912835307816369 9.4011025494356542
v 16.66204386289489 21.99860890522115 8.4832480048657395
v 16.64855801936578 21.891676091164751 9.4393980912703146
v 17.234076452852179 21.421362281214289 7.2324115294002347
v 16.94163342873788 21.214706619754509 10.32803476586527
v 17.203868218045908 21.948044393369631 10.736139279363449
v 5.4844864342676214 1.884946197556383 9
v 18.415218173671139 22.016430974413868 6.3553469795307693
v 17.936139841820999 22.283007893500159 11.402186350117731
v 19.50932880174393 19.461995670503189 6.1543008026887049
v 37.458793640136719 1.3591703924527181 7.4326115437909728
v 0 2.2708863627768441 13.458311993846481
v 20.88773773453876 21.686152185143079 6.5382791618430298
v 20.29005523638553 21.87899154850729 11.71806878462759
v 22.458793640136719 3.071467792494913 15
v 22.458793640136719 6.7596329856985218 12
v 22.458793640136719 7.7948050414284742 15
v 22.458793640136719 9.0557797914191127 12
v 22.458793640136719 11.933238441952019 3.0115174902541462
v 22.458793640136719 11.541748187593541 12
v 22.458793640136719 11.45727278899018 15
v 22.44497403076053 13.80456420232527 2.9999995231628418
v 22.458793640136719 13.71280370219481 5.9999995231628418
v 21.704098812513539 20.48564756109683 10.74706806963292
v 24.700862074201378 0 0
v 33.318312668502692 1.536210149694347 0
v 25.4626195631032 4.7417120620616 9
v 11.85980020742188 12 10.282757543629479
v 25.458793640136719 6.7596329856985218 9
v 25.458793640136719 6.7596329856985218 12
v 25.458793640136719 8.7396365644223231 12
v 25.458793640136719 12 3.2322808725813772
v 25.458793640136719 14.58029235211009 12
v 26.524429623092431 0 0
v 28.874913073898231 0 0
v 29.17832649494067 0 9
v 31.458795547485352 12 4.4300183051264632
v 31.46856489288389 9 3.378060389055459
v 31.458795547485352 9 5.6598373234214696
v 31.225396524704031 0 0
v 31.336468933347991 0 9
v 16.62132387285655 19.67361547518734 8.8012373402634942
v 33.527888298039407 0 9
v 34.458793640136719 9 4.3558899363542878
v 34.458793640136719 6 4.1549402923198926
v 34.458793640136719 6 6.3780603904344391
v 34.458793640136719 9 6.1074110752708961
v 37.458793640136719 0 5.2585410495601632
v 37.458793640136719 6 4.4300183051264632
v 17.009160077282701 19.91162540027479 7.5508950213727921
v 17.03193473815918 22.360873586752149 7.5057239532470703
v 17.553849546351799 22.664108666521582 11.11173854272737
v 18.05610765570421 20.241110676285022 6.5205305199374219
v 17.93408293546884 22.932538739089111 6.6030046872941863
v 5.9999990463256836 9 14.099855115976929
v 27.121152722704601 0 1.711911507995538
v 20.48024719274272 20.48103218684874 6.3453473812723846
v 20.26260754629714 23.41499347775385 6.2748785679950583
v 19.11345493745581 23.668469557483579 6.1793922122802813
v 20.660311807811329 22.669352575680271 11.58158255628326
v 22.046629512209119 23.331778393133991 10.176076043052801
v 21.673986746851782 23.028999589367729 7.2195341797185479
v 22.285810018302371 19.219263731194349 9.3596315665843388
v 22.30622673034668 20.585954053894461 8.8790426254272461
v 22.298277066286541 22.417141061658711 8.8169642736703668
v 17.15689305664452 20.30299398427907 10.677639087606989
v 18.24294135074614 20.657297301929109 11.57357609449816
v 17.962037290749571 21.484833029221971 6.5841108748656367
v 18.340130479683921 22.039944287368471 11.61652437768128
v 18.973301511351131 21.417789345379749 6.1919938388557503
v 19.218818409171259 20.599297928522471 11.839805323767701
v 18.977140426635739 22.523945385100969 6.1909942626953116
v 20.40824127197266 21.296123564720691 6.3127985000610352
v 19.25176111700809 22.33965362068513 11.841204723986181
v 20.366326760265181 22.135060542694319 6.3018848505670473
v 20.706673897510139 21.643927311941951 11.5556831181408
v 22.045901346349041 21.625416677473321 10.17788814701388
v 21.625107127201979 22.14977437077107 7.1534448653804041
v 17.258237343048219 23.126988359166319 10.79791414022789
v 19.186037863397718 23.776861524855491 11.83440667878069
v 19.657308221683468 19.699945520592511 11.84156649804221
v 19.883581921962119 22.824970360101769 6.1861544970419136
v 19.420358981806469 23.011571181280981 6.1532708832030467
v 20.17692947387695 20.44713091564245 11.75803852081299
v 29.763273750060481 8.2746455727154817 9
v 21.451330332097609 23.767328175121449 11.03426840555271
v 21.807345289509762 23.46556782053138 10.60186974236683
v 21.596360848121581 19.12020441222684 7.1153052009380016
v 21.918315866391051 20.67054826864938 7.5705086798144814
v 22.103275299072269 22.832660625742658 7.9373588562011719
v 22.207318840994819 21.070770392200728 9.7257345388218752
v 22.289655726460818 21.15177827439835 9.2691074504653326
v 22.19467393848543 22.346666718572639 9.7844072038076604
v 22.28598386581934 23.40649647105516 9.35553937025416
v 17.50724640422014 20.417456262701329 11.074108933306221
v 19.421694813004741 20.87029004819399 6.153157187450371
v 19.94937720983642 21.804052131621571 6.1933200345956054
v 19.379453531287631 22.146965883994561 6.1567524428426923
v 21.47073868625942 21.702637762077721 11.012216265880269
v 21.750185012817379 21.653767010937418 10.694704055786129
v 21.89164195132 21.964562022877612 7.517603400495191
v 21.47815257625534 22.56286921661761 11.00379246361744
v 21.78338718427279 22.41295867636294 10.64078023019513
v 20.632711410522461 20.536513820022069 11.597001075744631
v 21.624125501032019 20.707336648989941 7.1521176250914227
v 21.418025558060219 23.603068128092421 6.9443849127237369
v 19.755483787877939 21.430466883798889 11.830302405072789
v 21.30372661040386 22.194834315715209 6.8348384002567384
v 22.221812889738381 21.634948395549639 8.3244209145970558
v 2.65149306072832 0 13.36415639052179
v 27.137201968128139 0 9
v 22.458793640136719 16.224664005025009 12
v 13.458792686462401 16.500585896869271 10.45094099673191
v 25.458793640136719 14.600305590875729 10.41392198480337
v 23.753604502071969 14.7222189563448 5.9999995231628418
v 32.898121244512879 9 2.7160839018091152
v 27.15974171984675 12 5.1920482525030076
v 22.223594667284321 23.298710969677661 8.3302389718113083
v 16.458791732788089 13.465986110766041 12
v 29.877186787981142 12 7.9509495748990311
v 27.064139767907982 12 7.3896018520464244
v 16.458791732788089 10.598045297590531 15
v 15.174609751353531 15.186802503275869 5.9999995231628418
v 19.676886052197961 18 13.802687281243109
v 20.7824434450614 18 2.9999995231628418
v 16.78834800578214 23.866002252632921 8.0221330738233867
v 17.756279501904089 13.812202219287229 2.9999995231628418
v 27.259372430917882 9.5772332585878726 9
v 22.458793640136719 6.0518607028866889 13.59177191116402
v 21.432520469645279 12.661321049962011 15
v 23.958793640136719 18 12
v 22.458793640136719 18 4.4999995231628418
v 14.958792209625241 18 12
v 14.95538112617862 14.989578111253239 12
v 16.640229660851581 23.55427785023025 9.4007535749907607
v 17.275118999569589 23.29979787170225 7.176918589997701
v 20.66337559039669 22.85767018165005 6.4281270249172184
v 30.163109041824161 7.2065983720897329 0
v 17.88066830192944 18 2.9999995231628418
v 37.458793640136719 1.8084178347296229 1.406246393685576
v 32.884409935448623 0 0
v 21.919572940944729 20.879672533697779 10.41960020886375
v 17.481134496547039 0 18
v 21.933217835741399 23.026006841226909 7.6000653777640599
v 25.490640312848871 1.7803972540358139 0
v 15.47447950444016 18 9.0818258540802521
v 23.386879910778472 18 9.0907689958293219
v 16.458791732788089 13.292407343603131 13.348405005852941
v 21.595793358122538 18 3.8114217739547769
v 2.215149188986528 4.2775731884900683 18
v 8.1688011118484418 12 9
v 16.978812565681359 21.155168465943479 7.6110860170335002
v 16.458791732788089 16.606533382428449 12
v 19.02669489658815 0 9.3924953045090955
v 2.0691510797190649 0 10.68169773224774
v 12.799887423045019 0 10.82172995720536
v 13.458792686462401 18 10.59285584139263
v 21.49203897973802 18 5.3577622147103128
v 19.364746486612209 25 7.4274728836554624
v 20.594095230102539 0 11.64249542371839
v 16.458791732788089 18 4.4999995231628418
v 22.439380044442949 18 13.469959057303059
v 16.458791732788089 18 13.5
v 23.958793640136719 18 5.9999995231628418
v 25.458793640136719 18 10.5
v 14.958792209625241 18 5.9999995231628418
v 19.571513719705269 25 10.64476450681947
v 25.458793640136719 13.16355984282162 10.28255967569647
v 12.55737404650373 7.1528584476777572 18
v 13.46621086503948 18 7.6623930794818147
v 3.7990497763987809 0 10.68169773224774
v 17.86286544799805 20.768339459385469 11.361252784729
v 20.43158317893128 25 10.2628000664829
v 32.206182825605197 0 4.6021253813055516
v 21.064455324727991 0 1.7222231354938611
v 23.922103177736918 1.1207222380359829 12
v 22.236510369500252 20.02213892023126 8.3724127519365155
v 13.458792686462401 16.98392833735711 6.9405858192088683
v 4.6113165078369578 9 16.747975436189289
v 5.9999990463256836 10.43394592794232 16.8664321587869
v 30.357170767421199 0 5.5562259700068228
v 37.458793640136719 1.9556386675613151 6.034392215393547
v 11.520417175818681 8.692213054625336 18
v 21.89527620745471 19.3919818242994 7.5248116162900001
v 17.582534557623781 18 5.1889279815659206
v 16.458791732788089 16.777008426184469 13.51979049558779
v 29.982346679866371 0 7.5860618809754801
v 13.407845164330681 0 11.824193155966119
v 18.31373645245937 19.44772885721444 11.607198806903749
v 18.267114315291181 25 7.7100458634514162
v 22.183868408203121 23.45903160717004 9.8345451354980469
v 11.513608897092659 3.1234128318949881 18
v 26.492253886073691 3.525267499226767 0
v 17.7000365450568 18 13.90230529093556
v 17.068938832364449 0 11.432589237722141
v 22.296319530050141 19.1506445940432 8.8016780147616682
v 18.419410948157982 25 10.342644184297161
v 17.214258977958089 19.31319178570925 10.74794538710978
v 0 1.7160836771357491 11.730557463681199
v 14.958792209625241 5.441363333011882 5.9999995231628418
v 19.165503135668121 19.365603813331479 11.83088565759752
v 16.458791732788089 1.531283104972285 4.0822677779911967
v 16.980260122155901 23.81890688777322 7.6082149458688386
v 21.221668232109351 19.127998825451979 6.7639763786777953
v 20.9574114319275 25 8.6496357260689773
v 17.528566741660921 19.278456946715149 11.09132399507946
v 20.703924591161499 19.197093272240679 11.55721897405614
v 18.817933903396462 21.79375469702169 11.771289122130311
v 21.099867864961901 19.327025934526329 11.32479836006627
v 22.300104816878392 23.601044815991781 8.8312370458662741
v 21.384427067733071 19.189656648779732 11.095032793543581
v 20.37280216537366 19.308618298708389 6.3035709086602152
v 17.338343080304661 19.338726272843779 7.098900146443528
v 17.721098451315999 25 8.433688037211251
v 37.458793640136719 4.6758936957490498 3.287522881408079
v 21.647496463885901 19.150457861569091 10.81138073042416
v 20.39207297190644 25 7.494837117624634
v 17.483351748496251 18 12.738650236710731
v 18.740655899047852 18.939920335377359 11.75803852081299
v 19.991636385927421 19.157290207446259 6.2043234273818726
v 22.083533184346749 19.186738576844181 10.084238051017239
v 17.683224137172679 19.110863504140479 6.7725553363240447
v 23.054565739169679 18 7.1299628761033533
v 17.716874804611109 25 9.4910465731780427
v 6.7521187707751267 0 14.38870441714738
v 20.26784765208274 19.024243795214559 11.7259151961453
v 22.288428878778099 22.20288168455313 9.2979862154456168
v 20.724488179892219 23.76527001872606 11.54573145488307
v 19.79186957205636 23.973325525732061 11.82406345617872
v 18.079955451679229 19.10223443437847 6.5068953403293222
v 21.169717037245839 25 9.7985904441091751
v 21.082015654124159 23.81901310762138 11.3392130171811
v 20.31742524214658 24.06678238290846 11.70839837989039
v 22.078027486174911 24.01072051297184 7.8872821205596964
v 20.63874539346585 24.035626133620429 6.416993421658761
v 17.563924354275301 21.62326363462693 11.119873425265631
v 9.0142497450145953 0 10.71187693898298
v 17.510976112392399 10.64368743444159 15
v 21.883441057691879 23.990835867817989 7.5027338422316454
v 21.683840566160981 24.007673551165329 7.2328573636226654
v 23.896822333826972 0 4.7299456271558347
v 20.901198032748241 0 4.103654861725925
v 19.458793640136719 1.6108325872317431 1.5380151328212579
v 10.146812358119529 12 16.55603305003201
v 20.569233822344302 7.628427697923394 15
v 29.306572348694459 0 4.3659274984667826
v 5.6500849253338128 0 13.359495426778469
f 1 442 443 
f 722 442 1 
f 1 443 529 
f 1 529 722 
f 221 179 2 
f 2 179 304 
f 530 221 2 
f 444 254 2 
f 2 254 530 
f 2 304 444 
f 3 5 148 
f 208 5 3 
f 3 148 194 
f 3 194 547 
f 353 208 3 
f 547 353 3 
f 4 6 209 
f 717 6 4 
f 419 179 4 
f 4 179 717 
f 4 209 397 
f 4 397 419 
f 267 7 5 
f 5 7 440 
f 185 148 5 
f 277 185 5 
f 5 208 526 
f 5 225 277 
f 440 225 5 
f 526 267 5 
f 6 8 201 
f 439 8 6 
f 6 201 448 
f 448 209 6 
f 279 224 6 
f 6 224 439 
f 717 279 6 
f 372 9 7 
f 7 9 440 
f 7 267 348 
f 7 348 372 
f 439 10 8 
f 8 10 746 
f 449 201 8 
f 746 449 8 
f 214 11 9 
f 9 11 305 
f 9 189 226 
f 305 189 9 
f 536 214 9 
f 226 225 9 
f 9 225 440 
f 9 372 536 
f 291 12 10 
f 10 12 747 
f 10 228 291 
f 320 228 10 
f 439 320 10 
f 10 451 746 
f 747 451 10 
f 11 214 452 
f 452 229 11 
f 11 229 718 
f 718 305 11 
f 12 190 249 
f 291 190 12 
f 12 249 454 
f 12 454 747 
f 13 14 203 
f 455 14 13 
f 388 23 13 
f 13 23 455 
f 13 203 534 
f 534 388 13 
f 14 187 230 
f 455 187 14 
f 387 203 14 
f 14 206 501 
f 723 206 14 
f 14 207 387 
f 501 207 14 
f 14 230 723 
f 15 18 306 
f 460 18 15 
f 15 26 460 
f 462 26 15 
f 15 306 459 
f 15 459 462 
f 459 19 16 
f 16 19 466 
f 16 28 459 
f 461 28 16 
f 16 278 461 
f 736 278 16 
f 16 466 750 
f 750 736 16 
f 17 18 347 
f 595 18 17 
f 17 193 231 
f 391 193 17 
f 17 231 542 
f 347 301 17 
f 17 301 463 
f 463 391 17 
f 17 542 595 
f 18 181 306 
f 386 181 18 
f 18 182 347 
f 500 182 18 
f 460 184 18 
f 18 184 500 
f 18 232 386 
f 595 232 18 
f 19 181 233 
f 459 181 19 
f 19 233 466 
f 20 196 550 
f 733 196 20 
f 20 429 733 
f 737 429 20 
f 20 550 745 
f 745 737 20 
f 21 182 413 
f 680 182 21 
f 21 413 700 
f 700 523 21 
f 21 523 724 
f 724 680 21 
f 406 23 22 
f 22 23 769 
f 351 70 22 
f 22 70 406 
f 553 351 22 
f 769 553 22 
f 406 186 23 
f 23 186 455 
f 23 388 769 
f 24 25 437 
f 450 25 24 
f 436 27 24 
f 24 27 450 
f 24 75 436 
f 437 75 24 
f 450 28 25 
f 25 28 461 
f 191 76 25 
f 25 76 437 
f 385 191 25 
f 25 278 385 
f 461 278 25 
f 26 27 383 
f 462 27 26 
f 383 184 26 
f 26 184 460 
f 27 28 450 
f 459 28 27 
f 436 269 27 
f 27 269 805 
f 689 383 27 
f 462 459 27 
f 805 689 27 
f 469 235 29 
f 29 235 728 
f 29 401 469 
f 706 401 29 
f 728 706 29 
f 30 45 49 
f 429 45 30 
f 30 49 53 
f 30 53 57 
f 30 57 752 
f 565 196 30 
f 30 196 733 
f 30 235 565 
f 728 235 30 
f 733 429 30 
f 752 728 30 
f 47 43 31 
f 31 43 523 
f 51 47 31 
f 55 51 31 
f 59 55 31 
f 785 59 31 
f 700 413 31 
f 31 413 720 
f 31 523 700 
f 31 720 753 
f 753 730 31 
f 31 730 785 
f 471 218 32 
f 32 218 472 
f 753 471 32 
f 32 472 761 
f 32 730 753 
f 761 730 32 
f 33 35 473 
f 713 35 33 
f 33 37 429 
f 609 37 33 
f 33 429 713 
f 33 473 609 
f 239 36 34 
f 34 36 781 
f 34 38 239 
f 781 38 34 
f 35 39 473 
f 523 39 35 
f 713 523 35 
f 702 40 36 
f 36 40 791 
f 36 239 702 
f 791 781 36 
f 243 41 37 
f 37 41 429 
f 567 243 37 
f 609 567 37 
f 38 42 693 
f 781 42 38 
f 475 239 38 
f 693 475 38 
f 523 43 39 
f 39 43 541 
f 39 241 473 
f 541 241 39 
f 477 44 40 
f 40 44 791 
f 40 242 477 
f 702 242 40 
f 41 45 429 
f 617 45 41 
f 41 243 617 
f 42 46 770 
f 781 46 42 
f 770 693 42 
f 43 47 541 
f 477 48 44 
f 44 48 764 
f 44 764 791 
f 617 49 45 
f 46 50 703 
f 757 50 46 
f 46 703 770 
f 781 757 46 
f 47 51 765 
f 765 541 47 
f 646 52 48 
f 48 52 764 
f 48 477 646 
f 780 53 49 
f 49 617 780 
f 50 54 246 
f 757 54 50 
f 50 246 703 
f 51 55 479 
f 51 479 773 
f 773 765 51 
f 480 56 52 
f 52 56 764 
f 619 480 52 
f 646 619 52 
f 789 57 53 
f 53 780 789 
f 54 58 246 
f 757 58 54 
f 55 59 479 
f 483 60 56 
f 56 60 764 
f 56 480 483 
f 57 61 752 
f 797 61 57 
f 57 789 797 
f 58 62 482 
f 726 62 58 
f 621 246 58 
f 58 482 621 
f 757 726 58 
f 379 63 59 
f 59 63 786 
f 785 379 59 
f 756 479 59 
f 786 756 59 
f 483 64 60 
f 60 64 764 
f 61 65 236 
f 481 65 61 
f 61 236 752 
f 797 481 61 
f 62 66 247 
f 726 66 62 
f 62 247 482 
f 379 67 63 
f 63 67 786 
f 647 68 64 
f 64 68 734 
f 64 483 484 
f 64 484 647 
f 64 734 764 
f 65 77 236 
f 485 77 65 
f 65 481 485 
f 66 78 626 
f 726 78 66 
f 626 247 66 
f 379 80 67 
f 67 80 648 
f 67 648 768 
f 67 768 786 
f 647 79 68 
f 68 79 734 
f 742 70 69 
f 69 70 810 
f 69 178 217 
f 810 178 69 
f 217 200 69 
f 69 200 742 
f 351 177 70 
f 70 177 810 
f 809 406 70 
f 70 742 809 
f 71 72 373 
f 488 72 71 
f 71 116 252 
f 441 116 71 
f 373 188 71 
f 71 188 441 
f 71 252 374 
f 71 374 488 
f 710 373 72 
f 72 488 710 
f 157 74 73 
f 73 74 458 
f 73 117 163 
f 458 117 73 
f 178 157 73 
f 73 163 178 
f 453 118 74 
f 74 118 458 
f 74 157 177 
f 74 177 351 
f 74 351 489 
f 74 358 453 
f 492 358 74 
f 74 489 492 
f 75 76 374 
f 437 76 75 
f 75 374 493 
f 812 436 75 
f 75 493 812 
f 76 191 488 
f 488 374 76 
f 77 81 412 
f 577 81 77 
f 412 236 77 
f 77 485 577 
f 78 82 494 
f 726 82 78 
f 78 494 626 
f 79 84 734 
f 796 84 79 
f 79 647 796 
f 487 83 80 
f 80 83 648 
f 80 379 487 
f 81 85 412 
f 787 85 81 
f 81 577 787 
f 82 86 625 
f 726 86 82 
f 649 494 82 
f 82 625 649 
f 487 87 83 
f 83 87 793 
f 793 648 83 
f 84 88 734 
f 800 88 84 
f 84 796 800 
f 85 89 725 
f 779 89 85 
f 725 412 85 
f 787 779 85 
f 784 90 86 
f 86 90 802 
f 802 625 86 
f 86 726 784 
f 124 91 87 
f 87 91 774 
f 487 124 87 
f 87 774 793 
f 88 92 740 
f 795 92 88 
f 740 734 88 
f 800 795 88 
f 89 93 123 
f 771 93 89 
f 89 123 725 
f 89 495 771 
f 779 495 89 
f 90 94 257 
f 784 94 90 
f 90 257 802 
f 124 95 91 
f 91 95 776 
f 776 774 91 
f 653 96 92 
f 92 96 740 
f 799 653 92 
f 92 795 799 
f 93 97 123 
f 655 97 93 
f 771 655 93 
f 94 98 673 
f 784 98 94 
f 673 257 94 
f 124 99 95 
f 95 99 778 
f 778 776 95 
f 653 100 96 
f 96 100 798 
f 798 740 96 
f 97 101 123 
f 655 101 97 
f 772 102 98 
f 98 102 807 
f 807 673 98 
f 784 772 98 
f 124 103 99 
f 99 103 502 
f 99 502 783 
f 783 778 99 
f 654 104 100 
f 100 104 798 
f 100 653 654 
f 503 105 101 
f 101 105 790 
f 790 123 101 
f 751 503 101 
f 101 655 751 
f 772 106 102 
f 102 106 801 
f 102 801 806 
f 102 806 807 
f 524 107 103 
f 103 107 788 
f 103 124 524 
f 788 502 103 
f 628 108 104 
f 104 108 798 
f 654 628 104 
f 105 109 430 
f 503 109 105 
f 105 430 790 
f 772 110 106 
f 106 110 801 
f 524 111 107 
f 107 111 630 
f 630 505 107 
f 107 505 788 
f 661 112 108 
f 108 112 798 
f 108 628 758 
f 758 661 108 
f 109 113 430 
f 763 113 109 
f 109 503 744 
f 109 744 763 
f 110 114 685 
f 772 114 110 
f 110 685 801 
f 111 113 630 
f 714 113 111 
f 111 524 714 
f 661 114 112 
f 112 114 772 
f 112 772 798 
f 714 430 113 
f 763 630 113 
f 114 661 777 
f 777 685 114 
f 421 116 115 
f 115 116 441 
f 151 127 115 
f 115 127 743 
f 532 151 115 
f 506 421 115 
f 115 441 727 
f 743 506 115 
f 115 507 532 
f 727 507 115 
f 582 252 116 
f 116 421 582 
f 117 118 457 
f 458 118 117 
f 117 119 447 
f 457 119 117 
f 400 163 117 
f 117 394 400 
f 447 394 117 
f 453 120 118 
f 118 120 457 
f 119 120 456 
f 457 120 119 
f 119 128 447 
f 456 128 119 
f 250 121 120 
f 120 121 446 
f 446 183 120 
f 120 183 456 
f 586 250 120 
f 120 255 407 
f 453 255 120 
f 120 407 586 
f 445 129 121 
f 121 129 446 
f 121 250 300 
f 121 300 445 
f 509 160 122 
f 122 160 692 
f 122 222 509 
f 699 222 122 
f 122 692 716 
f 716 699 122 
f 123 210 418 
f 731 210 123 
f 418 222 123 
f 123 222 699 
f 123 699 725 
f 790 731 123 
f 124 259 679 
f 729 259 124 
f 679 283 124 
f 124 283 698 
f 124 487 729 
f 698 524 124 
f 125 197 510 
f 729 197 125 
f 510 259 125 
f 125 259 729 
f 126 127 151 
f 204 127 126 
f 126 151 264 
f 511 204 126 
f 264 260 126 
f 126 260 402 
f 402 274 126 
f 126 274 678 
f 678 511 126 
f 127 204 512 
f 127 512 743 
f 128 130 156 
f 403 130 128 
f 128 156 175 
f 128 175 276 
f 128 183 403 
f 456 183 128 
f 128 276 394 
f 128 394 447 
f 445 131 129 
f 129 131 552 
f 129 183 446 
f 552 183 129 
f 174 156 130 
f 298 174 130 
f 599 298 130 
f 130 403 599 
f 513 132 131 
f 131 132 688 
f 321 180 131 
f 131 180 513 
f 131 300 321 
f 445 300 131 
f 599 552 131 
f 684 599 131 
f 688 684 131 
f 299 173 132 
f 132 173 688 
f 132 211 299 
f 395 211 132 
f 514 395 132 
f 132 513 735 
f 735 514 132 
f 133 152 180 
f 515 152 133 
f 133 180 210 
f 133 210 731 
f 133 430 515 
f 731 430 133 
f 527 282 134 
f 134 282 732 
f 134 283 527 
f 698 283 134 
f 134 524 698 
f 732 524 134 
f 155 137 135 
f 135 137 288 
f 202 141 135 
f 135 141 465 
f 175 155 135 
f 705 175 135 
f 605 202 135 
f 465 212 135 
f 135 212 705 
f 135 288 605 
f 136 138 162 
f 342 138 136 
f 136 142 384 
f 464 142 136 
f 136 158 464 
f 652 158 136 
f 136 162 652 
f 606 342 136 
f 136 384 606 
f 137 155 174 
f 137 174 289 
f 396 288 137 
f 137 289 396 
f 173 162 138 
f 687 173 138 
f 138 342 687 
f 139 141 336 
f 465 141 139 
f 139 145 150 
f 234 145 139 
f 139 150 290 
f 290 212 139 
f 139 212 465 
f 516 234 139 
f 139 336 516 
f 381 142 140 
f 140 142 464 
f 140 146 292 
f 389 146 140 
f 140 158 287 
f 464 158 140 
f 140 287 389 
f 140 292 613 
f 431 381 140 
f 613 431 140 
f 141 202 517 
f 517 336 141 
f 142 381 614 
f 614 384 142 
f 143 172 176 
f 518 172 143 
f 143 176 707 
f 519 518 143 
f 707 519 143 
f 295 220 144 
f 144 220 578 
f 144 293 520 
f 521 293 144 
f 520 295 144 
f 578 521 144 
f 176 150 145 
f 435 176 145 
f 145 234 398 
f 145 398 435 
f 389 238 146 
f 146 238 438 
f 361 292 146 
f 438 361 146 
f 147 195 584 
f 588 195 147 
f 584 583 147 
f 147 583 585 
f 147 585 587 
f 147 587 588 
f 148 185 271 
f 443 194 148 
f 148 271 443 
f 149 205 275 
f 512 205 149 
f 149 275 597 
f 149 490 512 
f 597 490 149 
f 176 172 150 
f 150 172 290 
f 532 264 151 
f 513 180 152 
f 152 282 513 
f 515 282 152 
f 217 163 153 
f 153 163 400 
f 153 200 217 
f 592 200 153 
f 153 400 712 
f 712 592 153 
f 293 287 154 
f 154 287 426 
f 610 293 154 
f 154 426 610 
f 175 174 155 
f 156 174 175 
f 178 177 157 
f 158 168 213 
f 652 168 158 
f 158 213 286 
f 158 286 287 
f 284 165 159 
f 159 165 809 
f 159 169 808 
f 809 169 159 
f 808 284 159 
f 380 237 160 
f 160 237 470 
f 509 380 160 
f 160 470 692 
f 342 171 161 
f 161 171 684 
f 161 173 687 
f 688 173 161 
f 687 342 161 
f 161 684 688 
f 162 167 652 
f 695 167 162 
f 162 173 299 
f 162 299 695 
f 217 178 163 
f 259 199 164 
f 164 199 587 
f 679 259 164 
f 491 283 164 
f 164 283 679 
f 587 491 164 
f 264 166 165 
f 165 166 406 
f 284 264 165 
f 165 406 809 
f 166 186 406 
f 721 186 166 
f 166 264 507 
f 166 507 721 
f 404 168 167 
f 167 168 652 
f 167 211 596 
f 695 211 167 
f 596 404 167 
f 404 213 168 
f 169 200 592 
f 742 200 169 
f 592 399 169 
f 169 399 808 
f 809 742 169 
f 170 311 322 
f 792 311 170 
f 170 322 324 
f 170 324 792 
f 171 342 604 
f 604 414 171 
f 171 414 684 
f 593 290 172 
f 172 518 593 
f 298 289 174 
f 416 276 175 
f 705 416 175 
f 176 435 707 
f 177 178 810 
f 179 221 717 
f 419 304 179 
f 682 210 180 
f 180 321 682 
f 386 233 181 
f 459 306 181 
f 680 347 182 
f 701 413 182 
f 182 500 701 
f 599 403 183 
f 183 552 599 
f 184 383 468 
f 184 468 715 
f 686 500 184 
f 715 686 184 
f 574 271 185 
f 185 277 315 
f 185 315 574 
f 251 187 186 
f 186 187 455 
f 721 251 186 
f 762 230 187 
f 187 251 762 
f 253 230 188 
f 188 230 762 
f 188 251 441 
f 762 251 188 
f 373 253 188 
f 476 226 189 
f 189 231 476 
f 542 231 189 
f 189 305 718 
f 718 542 189 
f 329 249 190 
f 190 291 340 
f 811 329 190 
f 190 340 466 
f 190 466 811 
f 385 350 191 
f 191 350 710 
f 710 488 191 
f 339 229 192 
f 192 229 537 
f 192 329 339 
f 537 329 192 
f 346 231 193 
f 549 346 193 
f 193 391 549 
f 194 443 547 
f 195 375 584 
f 588 375 195 
f 690 550 196 
f 196 565 690 
f 472 272 197 
f 197 272 510 
f 691 472 197 
f 197 487 691 
f 729 487 197 
f 198 514 587 
f 598 514 198 
f 587 585 198 
f 198 585 598 
f 199 259 510 
f 510 319 199 
f 199 319 588 
f 588 587 199 
f 449 448 201 
f 683 517 202 
f 202 605 683 
f 203 387 545 
f 546 534 203 
f 203 545 546 
f 204 511 512 
f 594 275 205 
f 512 511 205 
f 205 511 594 
f 330 322 206 
f 206 322 804 
f 723 330 206 
f 539 501 206 
f 804 539 206 
f 207 325 428 
f 539 325 207 
f 428 387 207 
f 207 501 539 
f 208 353 526 
f 448 397 209 
f 682 418 210 
f 695 299 211 
f 211 395 598 
f 598 596 211 
f 212 290 417 
f 417 416 212 
f 212 416 705 
f 405 273 213 
f 213 273 426 
f 426 286 213 
f 213 404 405 
f 536 452 214 
f 345 331 215 
f 215 331 544 
f 350 345 215 
f 544 350 215 
f 463 301 216 
f 216 301 550 
f 563 463 216 
f 216 550 690 
f 690 563 216 
f 367 272 218 
f 218 272 472 
f 471 367 218 
f 219 295 296 
f 433 295 219 
f 219 296 422 
f 219 422 741 
f 219 425 433 
f 741 425 219 
f 220 295 615 
f 615 578 220 
f 308 279 221 
f 221 279 717 
f 530 308 221 
f 418 280 222 
f 222 280 509 
f 223 382 506 
f 583 382 223 
f 506 490 223 
f 223 490 583 
f 224 279 316 
f 224 316 320 
f 224 320 439 
f 225 226 318 
f 318 277 225 
f 327 318 226 
f 476 327 226 
f 227 348 526 
f 528 348 227 
f 526 420 227 
f 227 420 528 
f 340 291 228 
f 228 320 328 
f 228 328 335 
f 228 335 340 
f 339 338 229 
f 229 338 718 
f 229 452 537 
f 230 253 474 
f 230 474 755 
f 755 723 230 
f 231 346 486 
f 486 476 231 
f 232 338 339 
f 595 338 232 
f 232 339 386 
f 386 341 233 
f 233 341 811 
f 811 466 233 
f 516 398 234 
f 561 362 235 
f 235 362 565 
f 235 469 561 
f 236 412 470 
f 236 470 706 
f 236 706 728 
f 236 728 752 
f 380 376 237 
f 237 376 694 
f 469 401 237 
f 237 401 470 
f 561 469 237 
f 694 561 237 
f 238 389 521 
f 521 438 238 
f 569 369 239 
f 239 369 702 
f 239 475 569 
f 240 726 757 
f 784 726 240 
f 240 734 740 
f 764 734 240 
f 240 740 772 
f 240 757 781 
f 791 764 240 
f 240 772 784 
f 240 781 791 
f 241 370 568 
f 572 370 241 
f 568 473 241 
f 241 541 572 
f 570 370 242 
f 242 370 572 
f 572 477 242 
f 702 570 242 
f 567 368 243 
f 243 368 617 
f 244 368 569 
f 618 368 244 
f 569 475 244 
f 244 475 693 
f 770 618 244 
f 244 693 770 
f 571 371 245 
f 245 371 635 
f 245 478 571 
f 780 478 245 
f 635 620 245 
f 245 620 789 
f 789 780 245 
f 621 371 246 
f 246 371 703 
f 575 482 247 
f 639 575 247 
f 247 626 639 
f 636 634 248 
f 248 634 756 
f 775 636 248 
f 768 638 248 
f 248 638 775 
f 248 756 786 
f 786 768 248 
f 249 329 454 
f 586 300 250 
f 727 441 251 
f 721 507 251 
f 251 507 727 
f 582 374 252 
f 344 343 253 
f 253 343 474 
f 551 344 253 
f 253 373 551 
f 444 281 254 
f 254 281 530 
f 364 270 255 
f 255 270 407 
f 255 358 360 
f 453 358 255 
f 255 360 364 
f 256 495 497 
f 771 495 256 
f 256 497 580 
f 256 580 675 
f 256 645 672 
f 675 645 256 
f 672 655 256 
f 256 655 771 
f 675 580 257 
f 257 580 704 
f 257 673 675 
f 257 704 802 
f 581 498 258 
f 258 498 796 
f 674 581 258 
f 647 641 258 
f 258 641 674 
f 796 647 258 
f 260 264 284 
f 260 284 808 
f 808 402 260 
f 627 392 261 
f 261 392 669 
f 795 627 261 
f 669 653 261 
f 261 653 799 
f 799 795 261 
f 499 392 262 
f 262 392 643 
f 776 499 262 
f 262 643 671 
f 262 671 774 
f 262 774 776 
f 709 502 263 
f 263 502 788 
f 263 505 658 
f 788 505 263 
f 658 644 263 
f 263 644 709 
f 532 507 264 
f 265 449 451 
f 528 449 265 
f 265 451 622 
f 536 528 265 
f 622 536 265 
f 266 451 454 
f 622 451 266 
f 266 454 537 
f 537 536 266 
f 266 536 622 
f 526 348 267 
f 268 397 448 
f 525 397 268 
f 448 420 268 
f 268 420 525 
f 269 363 366 
f 375 363 269 
f 269 366 805 
f 812 375 269 
f 269 436 812 
f 270 364 376 
f 270 376 377 
f 270 377 586 
f 586 407 270 
f 529 443 271 
f 531 529 271 
f 574 531 271 
f 272 367 378 
f 272 378 510 
f 273 405 511 
f 603 426 273 
f 273 511 678 
f 678 603 273 
f 274 402 409 
f 274 409 748 
f 274 603 678 
f 754 603 274 
f 274 748 754 
f 275 594 596 
f 275 596 597 
f 410 394 276 
f 416 410 276 
f 318 315 277 
f 278 337 345 
f 736 337 278 
f 278 345 385 
f 279 308 312 
f 279 312 316 
f 280 300 586 
f 590 300 280 
f 280 418 590 
f 589 509 280 
f 280 586 589 
f 281 309 310 
f 677 309 281 
f 281 310 530 
f 281 444 522 
f 281 522 677 
f 681 513 282 
f 282 515 732 
f 282 527 600 
f 282 600 681 
f 283 491 600 
f 600 527 283 
f 415 408 285 
f 285 408 623 
f 607 415 285 
f 285 602 607 
f 623 602 285 
f 426 287 286 
f 287 293 389 
f 288 396 604 
f 288 604 605 
f 289 298 414 
f 604 396 289 
f 289 414 604 
f 593 417 290 
f 292 361 616 
f 292 432 613 
f 616 432 292 
f 521 389 293 
f 610 520 293 
f 324 322 294 
f 294 322 330 
f 332 324 294 
f 294 330 343 
f 343 332 294 
f 520 296 295 
f 295 433 615 
f 610 422 296 
f 296 520 610 
f 297 548 549 
f 555 548 297 
f 297 549 558 
f 558 555 297 
f 599 414 298 
f 590 321 300 
f 301 347 390 
f 301 390 550 
f 525 303 302 
f 302 303 579 
f 302 304 419 
f 579 304 302 
f 419 397 302 
f 302 397 525 
f 525 353 303 
f 303 353 547 
f 303 547 766 
f 766 579 303 
f 522 444 304 
f 579 522 304 
f 307 309 677 
f 814 309 307 
f 543 311 307 
f 307 311 814 
f 738 543 307 
f 307 677 722 
f 307 722 738 
f 313 312 308 
f 533 313 308 
f 308 530 533 
f 314 310 309 
f 792 314 309 
f 814 792 309 
f 310 314 533 
f 533 530 310 
f 804 322 311 
f 543 535 311 
f 311 535 804 
f 311 792 814 
f 312 313 317 
f 317 316 312 
f 326 317 313 
f 313 323 326 
f 538 323 313 
f 313 533 538 
f 314 324 538 
f 792 324 314 
f 538 533 314 
f 315 318 327 
f 327 325 315 
f 315 325 535 
f 315 535 574 
f 316 317 320 
f 328 320 317 
f 317 326 328 
f 510 378 319 
f 319 378 697 
f 697 588 319 
f 321 590 682 
f 331 326 323 
f 540 331 323 
f 323 538 540 
f 324 332 540 
f 540 538 324 
f 325 327 428 
f 539 535 325 
f 333 328 326 
f 326 331 759 
f 759 333 326 
f 486 428 327 
f 327 476 486 
f 328 333 337 
f 337 335 328 
f 341 339 329 
f 811 341 329 
f 537 454 329 
f 474 343 330 
f 755 474 330 
f 330 723 755 
f 331 345 759 
f 331 540 544 
f 332 343 344 
f 332 344 544 
f 544 540 332 
f 345 337 333 
f 759 345 333 
f 334 434 435 
f 749 434 334 
f 334 435 782 
f 616 438 334 
f 334 438 749 
f 782 616 334 
f 335 337 736 
f 750 340 335 
f 335 736 750 
f 517 516 336 
f 595 542 338 
f 338 542 718 
f 339 341 386 
f 750 466 340 
f 606 604 342 
f 551 544 344 
f 345 350 385 
f 346 428 486 
f 545 428 346 
f 546 545 346 
f 548 546 346 
f 549 548 346 
f 680 390 347 
f 536 372 348 
f 348 528 536 
f 349 352 489 
f 554 352 349 
f 349 388 554 
f 769 388 349 
f 349 489 553 
f 349 553 769 
f 350 544 551 
f 350 551 710 
f 553 489 351 
f 355 354 352 
f 352 354 492 
f 555 355 352 
f 492 489 352 
f 352 554 555 
f 525 423 353 
f 353 423 526 
f 354 355 356 
f 354 356 556 
f 556 492 354 
f 357 356 355 
f 558 357 355 
f 355 555 558 
f 356 357 557 
f 557 556 356 
f 357 359 557 
f 558 359 357 
f 556 360 358 
f 358 492 556 
f 359 362 562 
f 563 362 359 
f 559 557 359 
f 359 558 560 
f 562 559 359 
f 359 560 563 
f 557 364 360 
f 360 556 557 
f 361 438 616 
f 362 561 562 
f 362 563 565 
f 378 366 363 
f 363 375 588 
f 697 378 363 
f 363 588 697 
f 694 376 364 
f 364 557 559 
f 364 559 562 
f 364 562 694 
f 564 471 365 
f 365 471 753 
f 715 564 365 
f 365 566 715 
f 753 566 365 
f 378 367 366 
f 366 367 468 
f 366 468 805 
f 564 468 367 
f 367 471 564 
f 368 567 569 
f 719 617 368 
f 368 618 719 
f 369 473 568 
f 609 473 369 
f 569 567 369 
f 369 567 609 
f 369 568 570 
f 369 570 702 
f 570 568 370 
f 371 571 703 
f 371 621 635 
f 710 551 373 
f 582 493 374 
f 812 584 375 
f 380 377 376 
f 377 380 589 
f 589 586 377 
f 379 472 691 
f 761 472 379 
f 691 487 379 
f 785 761 379 
f 380 509 589 
f 381 431 614 
f 382 493 582 
f 696 493 382 
f 582 506 382 
f 382 583 696 
f 689 468 383 
f 614 606 384 
f 387 428 545 
f 388 534 546 
f 388 546 554 
f 680 467 390 
f 390 467 737 
f 745 550 390 
f 390 737 745 
f 391 463 549 
f 392 499 666 
f 392 627 643 
f 392 666 669 
f 393 503 656 
f 676 503 393 
f 393 656 668 
f 668 657 393 
f 393 657 676 
f 760 400 394 
f 394 410 760 
f 395 514 598 
f 516 432 398 
f 398 432 616 
f 782 435 398 
f 398 616 782 
f 408 402 399 
f 399 402 808 
f 623 408 399 
f 399 592 601 
f 399 601 623 
f 760 712 400 
f 706 470 401 
f 402 408 409 
f 594 405 404 
f 596 594 404 
f 594 511 405 
f 813 409 408 
f 408 415 813 
f 813 748 409 
f 416 411 410 
f 410 411 760 
f 411 416 417 
f 411 417 602 
f 602 427 411 
f 411 427 760 
f 692 470 412 
f 716 692 412 
f 412 699 716 
f 725 699 412 
f 701 566 413 
f 413 566 720 
f 414 599 684 
f 415 424 425 
f 607 424 415 
f 415 425 741 
f 415 741 748 
f 415 748 813 
f 417 593 607 
f 607 602 417 
f 682 590 418 
f 420 423 525 
f 526 423 420 
f 420 448 528 
f 421 506 582 
f 610 608 422 
f 422 608 754 
f 748 741 422 
f 754 748 422 
f 518 425 424 
f 708 518 424 
f 424 607 708 
f 518 433 425 
f 426 603 608 
f 426 608 610 
f 602 601 427 
f 427 601 712 
f 427 712 760 
f 429 467 713 
f 737 467 429 
f 714 515 430 
f 430 731 790 
f 612 611 431 
f 431 611 614 
f 613 612 431 
f 432 516 612 
f 432 612 613 
f 433 518 519 
f 433 519 615 
f 707 435 434 
f 615 519 434 
f 434 519 707 
f 749 615 434 
f 438 521 578 
f 438 578 749 
f 766 443 442 
f 442 508 522 
f 722 508 442 
f 442 522 766 
f 766 547 443 
f 448 449 528 
f 746 451 449 
f 747 454 451 
f 452 536 537 
f 463 504 549 
f 560 504 463 
f 563 560 463 
f 467 523 713 
f 724 523 467 
f 467 680 724 
f 468 564 715 
f 468 689 805 
f 477 572 573 
f 477 573 646 
f 617 571 478 
f 780 617 478 
f 479 634 739 
f 756 634 479 
f 739 662 479 
f 479 662 773 
f 576 483 480 
f 619 576 480 
f 637 485 481 
f 620 575 481 
f 481 575 637 
f 797 620 481 
f 482 575 621 
f 636 484 483 
f 483 576 636 
f 484 636 775 
f 484 641 647 
f 775 641 484 
f 663 577 485 
f 485 637 663 
f 490 506 512 
f 597 583 490 
f 587 514 491 
f 491 514 600 
f 696 584 493 
f 493 584 812 
f 650 626 494 
f 494 649 650 
f 624 497 495 
f 779 624 495 
f 496 577 663 
f 787 577 496 
f 640 624 496 
f 496 624 779 
f 664 640 496 
f 496 663 664 
f 496 779 787 
f 640 580 497 
f 497 624 640 
f 498 581 627 
f 498 627 795 
f 498 795 800 
f 800 796 498 
f 499 591 666 
f 778 591 499 
f 499 776 778 
f 686 566 500 
f 500 566 701 
f 709 591 502 
f 502 591 783 
f 751 656 503 
f 503 676 744 
f 558 549 504 
f 560 558 504 
f 505 630 659 
f 659 658 505 
f 743 512 506 
f 677 522 508 
f 722 677 508 
f 513 681 735 
f 735 600 514 
f 714 524 515 
f 515 524 732 
f 516 517 611 
f 516 611 612 
f 683 611 517 
f 708 593 518 
f 522 579 766 
f 529 531 738 
f 738 722 529 
f 531 535 543 
f 574 535 531 
f 531 543 738 
f 535 539 804 
f 633 572 541 
f 765 633 541 
f 546 548 767 
f 767 554 546 
f 548 555 767 
f 767 555 554 
f 694 562 561 
f 690 565 563 
f 566 686 715 
f 753 720 566 
f 571 617 719 
f 571 618 703 
f 719 618 571 
f 633 573 572 
f 573 619 646 
f 803 619 573 
f 573 633 662 
f 573 662 803 
f 575 620 635 
f 635 621 575 
f 639 637 575 
f 576 619 803 
f 576 634 636 
f 739 634 576 
f 803 739 576 
f 578 615 749 
f 580 640 642 
f 580 642 704 
f 643 627 581 
f 671 643 581 
f 581 651 671 
f 674 651 581 
f 583 584 696 
f 598 585 583 
f 583 597 598 
f 667 666 591 
f 709 667 591 
f 591 778 783 
f 712 601 592 
f 708 607 593 
f 598 597 596 
f 735 681 600 
f 601 602 623 
f 754 608 603 
f 606 605 604 
f 605 606 611 
f 605 611 683 
f 614 611 606 
f 770 703 618 
f 797 789 620 
f 625 642 649 
f 704 642 625 
f 802 704 625 
f 650 639 626 
f 628 644 660 
f 670 644 628 
f 628 654 670 
f 628 660 758 
f 629 645 675 
f 711 645 629 
f 675 673 629 
f 629 673 807 
f 807 711 629 
f 630 631 659 
f 763 631 630 
f 631 632 659 
f 676 632 631 
f 744 676 631 
f 763 744 631 
f 794 659 632 
f 777 661 632 
f 632 661 794 
f 632 676 685 
f 632 685 777 
f 765 662 633 
f 637 639 665 
f 665 663 637 
f 674 641 638 
f 638 641 775 
f 638 648 674 
f 768 648 638 
f 639 650 665 
f 664 642 640 
f 664 649 642 
f 644 658 660 
f 670 667 644 
f 644 667 709 
f 645 668 672 
f 711 668 645 
f 648 651 674 
f 793 651 648 
f 665 650 649 
f 649 664 665 
f 774 671 651 
f 793 774 651 
f 669 654 653 
f 654 669 670 
f 655 672 751 
f 672 668 656 
f 751 672 656 
f 657 668 711 
f 685 676 657 
f 801 685 657 
f 657 711 801 
f 658 659 660 
f 794 660 659 
f 660 661 758 
f 794 661 660 
f 662 739 803 
f 662 765 773 
f 665 664 663 
f 666 667 670 
f 670 669 666 
f 806 801 711 
f 807 806 711 
f 730 761 785 
f 798 772 740 
