v -14.036 0 2.5
v -13.968 0 1.8100000000000001
v -13.968 0 3.1899999999999999
v -13.766302 -2.7382879999999998 2.5
v -13.766302 2.7382879999999998 2.5
v -13.766 0 1.147
v -13.766 0 3.8530000000000002
v -13.699609000000001 -2.7250220000000001 1.8100000000000001
v -13.699609000000001 -2.7250220000000001 3.1899999999999999
v -13.699609000000001 2.7250220000000001 1.8100000000000001
v -13.699609000000001 2.7250220000000001 3.1899999999999999
v -13.48772496800381 -2.6490738553525701 1.1144561372099711
v -13.50149 -2.685613 3.8530000000000002
v -13.50149 2.685613 1.147
v -13.50149 2.685613 3.8530000000000002
v -13.44 0 0.53600000000000003
v -13.45108641794393 -0.067907971098250058 4.4306859286910818
v -13.181754 -2.6220140000000001 0.53600000000000003
v -13.19047561866279 -2.5555847181268319 4.4599162303408999
v -13.19753370687585 2.5891890020658721 0.55951549015052737
v -13.18027457120148 2.5716787785530029 4.4718414676770708
v -13 0 0
v -13 0 5
v -12.94349344491981 -5.4154075477495489 2.4952554387977091
v -12.967573 5.3713449999999998 2.5
v -12.88387253773451 -5.3843791396891341 1.8100000000000001
v -12.904749000000001 -5.3453220000000004 3.1899999999999999
v -12.904749000000001 5.3453220000000004 1.8100000000000001
v -12.908437123479819 5.3144145432761816 3.2079502543727201
v -12.750209 -2.5361739999999999 0
v -12.750209 -2.5361739999999999 5
v -12.750209 2.5361739999999999 0
v -12.750209 2.5361739999999999 5
v -12.718126 -5.2680199999999999 1.147
v -12.718126 -5.2680199999999999 3.8530000000000002
v -12.718126 5.2680199999999999 1.147
v -12.73608796854505 5.2027001282448841 3.8563387353803189
v -12.416941 -5.1432650000000004 0.53600000000000003
v -12.428936892285909 -5.1790456015457922 4.4123104073363253
v -12.375154080754291 5.2158086568512818 0.53274891924738987
v -12.416941 5.1432650000000004 4.4640000000000004
v -12.010434 -4.9748849999999996 0
v -12.010434 -4.9748849999999996 5
v -12.010434 4.9748849999999996 0
v -12.010434 4.9748849999999996 5
v -11.64773521246582 -7.8151285763673624 2.4314156926785642
v -11.647944937167409 7.816424426746714 2.441450793705183
v -11.613968 -7.760205 1.8100000000000001
v -11.613968 -7.760205 3.1899999999999999
v -11.613968 7.760205 1.8100000000000001
v -11.613968 7.760205 3.1899999999999999
v -11.499545238208309 0.0046172803215397597 0
v -11.5 0 5
v -11.479224558009401 -7.6028978639714593 1.1735170080156909
v -11.446011 -7.6479799999999996 3.8530000000000002
v -11.446011 7.6479799999999996 1.147
v -11.446011 7.6479799999999996 3.8530000000000002
v -11.279031 -2.2435390000000002 0
v -11.279031 -2.2435390000000002 5
v -11.26648152621523 2.2849090624455388 1.7347234759768071e-18
v -11.279031 2.2435390000000002 5
v -11.206388602765379 -7.4480520146576241 0.57151286205145946
v -11.206570821551759 -7.4443959781100286 4.4314302413411433
v -11.174951999999999 7.4668640000000002 0.53600000000000003
v -11.193746964290989 7.3945541634430647 4.4854346916539356
v -11.02701532520933 -0.056190755696994048 0.58744838221013251
v -11.045994953158001 -5.5511151231257827e-17 4.4377512772378429
v -10.847485000000001 -2.157699 0.53600000000000003
v -10.847485000000001 -2.157699 4.4640000000000004
v -10.847485000000001 2.157699 0.53600000000000003
v -10.802991511592611 2.2010257142438978 4.407499915062898
v -10.83707348468069 -7.1700876566199518 0
v -10.809105000000001 -7.2224130000000004 5
v -10.761430875667999 7.2755585988692344 0
v -10.84154838797088 7.1511632909001781 5
v -10.716817676598771 -0.060712003365452363 1.183769339351568
v -10.74203313987622 -0.0092377395064935017 3.869761226855315
v -10.624615 -4.4008589999999996 0
v -10.624615 -4.4008589999999996 5
v -10.624615 4.4008589999999996 0
v -10.624615 4.4008589999999996 5
v -10.52626610374343 -0.045741567050468702 1.822468132295018
v -10.549907063478781 0.087236069216788614 3.2769746026487998
v -10.527749 -2.0941000000000001 1.147
v -10.527749 -2.0941000000000001 3.8530000000000002
v -10.527749 2.0941000000000001 1.147
v -10.527749 2.0941000000000001 3.8530000000000002
v -10.463205272043851 0.015487098460646109 2.5074136392783299
v -10.329630999999999 -2.054691 1.8100000000000001
v -10.329630999999999 -2.054691 3.1899999999999999
v -10.329630999999999 2.054691 1.8100000000000001
v -10.329630999999999 2.054691 3.1899999999999999
v -10.260689400541271 -2.0488343381272132 2.5
v -10.254833101143941 2.0685588684189642 2.4987601216886981
v -10.218108000000001 -4.2324789999999997 0.53600000000000003
v -10.218108000000001 -4.2324789999999997 4.4640000000000004
v -10.218108000000001 4.2324789999999997 0.53600000000000003
v -10.218108000000001 4.2324789999999997 4.4640000000000004
v -9.920035550954319 -9.9200355509543172 2.4294623912501199
v -9.9249510000000001 9.9249510000000001 2.5
v -9.8849088922885819 -4.1676181905312646 1.147
v -9.929340991087793 -4.0667873586550574 3.8530000000000002
v -9.9354636563395804 4.0500420906435641 1.1451202182208831
v -9.9169230000000006 4.1077240000000002 3.8530000000000002
v -9.876868 -9.876868 1.8100000000000001
v -9.876868 -9.876868 3.1899999999999999
v -9.876868 9.876868 1.8100000000000001
v -9.876868 9.876868 3.1899999999999999
v -9.7340319999999991 -9.7340319999999991 1.147
v -9.7297581836350631 -9.7297581836350631 3.8643280226576611
v -9.7856741856451759 9.6675712126009614 1.142777003273171
v -9.7340319999999991 9.7340319999999991 3.8530000000000002
v -9.7302990000000005 -4.0304219999999997 1.8100000000000001
v -9.7302990000000005 -4.0304219999999997 3.1899999999999999
v -9.7302990000000005 4.0304219999999997 1.8100000000000001
v -9.7302990000000005 4.0304219999999997 3.1899999999999999
v -9.6674749999999996 -4.0043990000000003 2.5
v -9.6674749999999996 4.0043990000000003 2.5
v -9.5619010000000006 -6.3890580000000003 0
v -9.6094163044422931 -6.3001630755171547 5
v -9.5619010000000006 6.3890580000000003 0
v -9.5619010000000006 6.3890580000000003 5
v -9.5035150000000002 -9.5035150000000002 0.53600000000000003
v -9.4786099854201833 -9.5367003658973779 4.4454437369519368
v -9.5330982327924154 9.4588296785411679 0.52929215286335385
v -9.4304386405421017 9.5535631357401662 4.4733904167337499
v -9.1960540000000002 -6.1446069999999997 0.53600000000000003
v -9.1960540000000002 -6.1446069999999997 4.4640000000000004
v -9.1960540000000002 6.1446069999999997 0.53600000000000003
v -9.1960540000000002 6.1446069999999997 4.4640000000000004
v -9.1923879999999993 -9.1923879999999993 0
v -9.1923879999999993 -9.1923879999999993 5
v -9.1923879999999993 9.1923879999999993 0
v -9.1923879999999993 9.1923879999999993 5
v -8.9249949999999991 -5.9634910000000003 1.147
v -8.9249949999999991 -5.9634910000000003 3.8530000000000002
v -8.9249949999999991 5.9634910000000003 1.147
v -8.9249949999999991 5.9634910000000003 3.8530000000000002
v -8.7570379999999997 -5.8512659999999999 1.8100000000000001
v -8.7570379999999997 -5.8512659999999999 3.1899999999999999
v -8.7570379999999997 5.8512659999999999 1.8100000000000001
v -8.7570379999999997 5.8512659999999999 3.1899999999999999
v -8.7004979999999996 -5.8134870000000003 2.5
v -8.7004979999999996 5.8134870000000003 2.5
v -8.1975363424623211 -8.0515403414728066 0
v -8.1317280000000007 -8.1317280000000007 5
v -8.1317280000000007 8.1317280000000007 0
v -8.1317280000000007 8.1317280000000007 5
v -7.8468966700148064 -7.7971793053888909 0.52930644061881282
v -7.8206009999999999 -7.8206009999999999 4.4640000000000004
v -7.8206009999999999 7.8206009999999999 0.53600000000000003
v -7.8206009999999999 7.8206009999999999 4.4640000000000004
v -7.7979839999999996 -11.670507000000001 2.5
v -7.8373682329536036 11.632767567316881 2.457299257684459
v -7.760205 -11.613968 1.8100000000000001
v -7.760205 -11.613968 3.1899999999999999
v -7.760205 11.613968 1.8100000000000001
v -7.760205 11.613968 3.1899999999999999
v -7.5639839733035501 -11.494104011852199 1.1562965706639621
v -7.6479799999999996 -11.446011 3.8530000000000002
v -7.6479799999999996 11.446011 1.147
v -7.6479799999999996 11.446011 3.8530000000000002
v -7.5900840000000001 -7.5900840000000001 1.147
v -7.5900840000000001 -7.5900840000000001 3.8530000000000002
v -7.5845675429692756 7.5845675429692756 1.17260584598572
v -7.5900840000000001 7.5900840000000001 3.8530000000000002
v -7.4668640000000002 -11.174951999999999 0.53600000000000003
v -7.5153734487780177 -11.15932392039967 4.4287946676448779
v -7.4967487721070976 11.15938482468078 0.54904208437557434
v -7.4668640000000002 11.174951999999999 4.4640000000000004
v -7.4472490000000002 -7.4472490000000002 1.8100000000000001
v -7.4868391947096367 -7.3964764621803836 3.1736238677373581
v -7.5031903393039894 7.3790842600866258 1.8100000000000001
v -7.4472490000000002 7.4472490000000002 3.1899999999999999
v -7.3738892639006526 -7.4206316998513779 2.4942982193464558
v -7.3496891910967017 7.4410416870506442 2.5100326484358391
v -7.2224130000000004 -10.809105000000001 0
v -7.2224130000000004 -10.809105000000001 5
v -7.2317441594647089 10.80144711391703 0
v -7.2277471450523771 10.804727379478599 5
v -6.3890580000000003 -9.5619010000000006 0
v -6.3890580000000003 -9.5619010000000006 5
v -6.3890580000000003 9.5619010000000006 0
v -6.3890580000000003 9.5619010000000006 5
v -6.1446069999999997 -9.1960540000000002 0.53600000000000003
v -6.1446069999999997 -9.1960540000000002 4.4640000000000004
v -6.1446069999999997 9.1960540000000002 0.53600000000000003
v -6.1446069999999997 9.1960540000000002 4.4640000000000004
v -5.9634910000000003 -8.9249949999999991 1.147
v -5.9634910000000003 -8.9249949999999991 3.8530000000000002
v -5.9634910000000003 8.9249949999999991 1.147
v -5.9634910000000003 8.9249949999999991 3.8530000000000002
v -5.8512659999999999 -8.7570379999999997 1.8100000000000001
v -5.8512659999999999 -8.7570379999999997 3.1899999999999999
v -5.8512659999999999 8.7570379999999997 1.8100000000000001
v -5.8512659999999999 8.7570379999999997 3.1899999999999999
v -5.8134870000000003 -8.7004979999999996 2.5
v -5.8134870000000003 8.7004979999999996 2.5
v -5.3713449999999998 -12.967573 2.5
v -5.2987615263782821 12.987441052476139 2.4790232813997748
v -5.3453220000000004 -12.904749000000001 1.8100000000000001
v -5.3453220000000004 -12.904749000000001 3.1899999999999999
v -5.3453220000000004 12.904749000000001 1.8100000000000001
v -5.3453220000000004 12.904749000000001 3.1899999999999999
v -5.2680199999999999 -12.718126 1.147
v -5.2680199999999999 -12.718126 3.8530000000000002
v -5.3073429155850551 12.70791380447643 1.178431722182206
v -5.2680199999999999 12.718126 3.8530000000000002
v -5.0801901103535059 -12.45485619866907 0.5698483839312094
v -5.1432650000000004 -12.416941 4.4640000000000004
v -5.0904104087056199 12.432974262270051 0.53600000000000003
v -5.1432650000000004 12.416941 4.4640000000000004
v -4.9748849999999996 -12.010434 0
v -4.9748849999999996 -12.010434 5
v -4.9748849999999996 12.010434 0
v -4.9748849999999996 12.010434 5
v -4.4008589999999996 -10.624615 0
v -4.4008589999999996 -10.624615 5
v -4.3347561118742206 10.6446670959504 3.4694469519536142e-17
v -4.2847439772757481 10.67144378480401 5
v -4.2748826962808097 -10.1805319399322 0.56076568609595068
v -4.2324789999999997 -10.218108000000001 4.4640000000000004
v -4.2324789999999997 10.218108000000001 0.53600000000000003
v -4.2324789999999997 10.218108000000001 4.4640000000000004
v -4.1077240000000002 -9.9169230000000006 1.147
v -4.1476907595534502 -9.895560324690905 3.8530000000000002
v -4.0250320211742414 9.942007330867245 1.147
v -4.0547425190903539 9.9329947522527124 3.8530000000000002
v -3.9962973362225869 -9.7492251807402486 1.782938314459332
v -4.0304219999999997 -9.7302990000000005 3.1899999999999999
v -4.0304219999999997 9.7302990000000005 1.8100000000000001
v -4.0304219999999997 9.7302990000000005 3.1899999999999999
v -4.0043990000000003 -9.6674749999999996 2.5
v -4.0043990000000003 9.6674749999999996 2.5
v -2.7382879999999998 -13.766302 2.5
v -2.7382879999999998 13.766302 2.5
v -2.7250220000000001 -13.699609000000001 1.8100000000000001
v -2.7250220000000001 -13.699609000000001 3.1899999999999999
v -2.7251277265941072 13.700140525986789 1.8154991218101539
v -2.7250220000000001 13.699609000000001 3.1899999999999999
v -2.685613 -13.50149 1.147
v -2.685613 -13.50149 3.8530000000000002
v -2.629984944112695 13.507890039987871 1.1500233798271089
v -2.5857837069778218 13.51132233485141 3.8530000000000002
v -2.695734688522144 -13.163105239574691 0.54269368409048491
v -2.704415624482158 -13.156757744718369 4.4640000000000004
v -2.5689374066371831 13.18787823762686 0.53768052399711663
v -2.6220140000000001 13.181754 4.4640000000000004
v -2.5361739999999999 -12.750209 0
v -2.5361739999999999 -12.750209 5
v -2.5361739999999999 12.750209 0
v -2.5361739999999999 12.750209 5
v -2.2435390000000002 -11.279031 0
v -2.2435390000000002 -11.279031 5
v -2.2435390000000002 11.279031 0
v -2.2435390000000002 11.279031 5
v -2.230590026421666 -10.850194330442299 0.5069260009652663
v -2.157699 -10.847485000000001 4.4640000000000004
v -2.0669365574099601 10.85386167531574 0.54080301035600975
v -2.157699 10.847485000000001 4.4640000000000004
v -2.0941000000000001 -10.527749 1.147
v -2.0941000000000001 -10.527749 3.8530000000000002
v -2.0941000000000001 10.527749 1.147
v -2.0941000000000001 10.527749 3.8530000000000002
v -2.1203859279261179 -10.307114476728019 1.8352528311364029
v -2.054691 -10.329630999999999 3.1899999999999999
v -2.054691 10.329630999999999 1.8100000000000001
v -2.054691 10.329630999999999 3.1899999999999999
v -2.041828866126572 -10.264967412139731 2.5210061531233912
v -2.0414249999999998 10.262937000000001 2.5
v 0 -14.036 2.5
v 0 -13.968 1.8100000000000001
v 0 -13.968 3.1899999999999999
v 0 -13.766 1.147
v 0 -13.766 3.8530000000000002
v 0 -13.44 0.53600000000000003
v 0 -13.44 4.4640000000000004
v 0 -13 0
v 0 -13 5
v 0 -11.5 0
v 0 -11.5 5
v 0.037875429258105608 -11.05626959235334 0.53600000000000003
v 0 -11.06 4.4640000000000004
v -0.065384274478890808 -10.726847304473971 1.149339870831726
v -0.051329400640119698 -10.72843344938167 3.8513226639116809
v -0.015720994195527211 -10.549567598855839 1.747257937710003
v 0 -10.532 3.1899999999999999
v 0 -10.46781413456239 2.4612977522345441
v 0.07507231105782998 10.461773919753851 2.552439024831179
v 0.069056427688923172 10.525198548971609 1.8100000000000001
v 0.03039866048060564 10.5288464077874 3.1883806305887421
v 0.050046824921332167 10.729070814341791 1.147
v -0.094593637505953385 10.725153558613011 3.8538813124999871
v 0.060508664236337932 11.06438259129226 0.52340135885982408
v -0.02562555757844821 11.049268513849711 4.4486170691414539
v 0 11.5 0
v 0 11.5 5
v 0 13 0
v 0 13 5
v 0.019830017457337059 13.456212829063089 0.5700471631528734
v -0.038131420032825637 13.42787703334367 4.4741929502697593
v -0.070013391048716608 13.75910427747174 1.147
v 0 13.76843580101122 3.8450052669780161
v 0 13.968 1.8100000000000001
v -0.050815538493110157 13.96342475293228 3.185640369401701
v 0 14.036 2.5
v 2.0414249999999998 -10.262937000000001 2.5
v 2.0389863749510901 10.26382855654 2.493390539930147
v 2.054691 -10.329630999999999 1.8100000000000001
v 2.054691 -10.329630999999999 3.1899999999999999
v 2.054691 10.329630999999999 1.8100000000000001
v 2.054691 10.329630999999999 3.1899999999999999
v 2.0941000000000001 -10.527749 1.147
v 2.0941000000000001 -10.527749 3.8530000000000002
v 2.0941000000000001 10.527749 1.147
v 2.0941000000000001 10.527749 3.8530000000000002
v 2.0867437475789221 -10.83537898760806 0.57178755118992608
v 2.157699 -10.847485000000001 4.4640000000000004
v 2.1231989135207101 10.86258995009428 0.5217387802503145
v 2.0919378520745142 10.864512318528449 4.4768523112586696
v 2.2435390000000002 -11.279031 0
v 2.2435390000000002 -11.279031 5
v 2.2435390000000002 11.279031 0
v 2.2401619951539762 11.299879873480579 5
v 2.5361739999999999 -12.750209 0
v 2.5361739999999999 -12.750209 5
v 2.5361739999999999 12.750209 0
v 2.5361739999999999 12.750209 5
v 2.6220140000000001 -13.181754 0.53600000000000003
v 2.6220140000000001 -13.181754 4.4640000000000004
v 2.5978320910757589 13.18647537209023 0.54038506969041977
v 2.6220140000000001 13.181754 4.4640000000000004
v 2.693360791185277 -13.491214810340569 1.13271763870248
v 2.607573201289838 -13.49747262169452 3.8749353383622931
v 2.7039207445596318 13.46113032008255 1.084272178018812
v 2.685613 13.50149 3.8530000000000002
v 2.7143427764211032 -13.69891104776454 1.804256978597937
v 2.7250220000000001 -13.699609000000001 3.1899999999999999
v 2.752917145737857 13.67608120720595 1.7624515115945341
v 2.7877225207983849 13.670714804964691 3.2211633867970479
v 2.7382879999999998 -13.766302 2.5
v 2.7382879999999998 13.766302 2.5
v 4.0043990000000003 -9.6674749999999996 2.5
v 4.0043990000000003 9.6674749999999996 2.5
v 4.0304219999999997 -9.7302990000000005 1.8100000000000001
v 4.0304219999999997 -9.7302990000000005 3.1899999999999999
v 4.0304219999999997 9.7302990000000005 1.8100000000000001
v 4.0304219999999997 9.7302990000000005 3.1899999999999999
v 4.1077240000000002 -9.9169230000000006 1.147
v 4.1069743747247456 -9.9028697911601284 3.8109590521633221
v 4.1841279259370268 9.8736000961620896 1.154225488819604
v 4.1578850828116698 9.8868000497838082 3.843368670152064
v 4.2324789999999997 -10.218108000000001 0.53600000000000003
v 4.1802298975336347 -10.18987019321653 4.3845454470834406
v 4.2324789999999997 10.218108000000001 0.53600000000000003
v 4.1409812301160018 10.224748626151881 4.425946620292077
v 4.4008589999999996 -10.624615 0
v 4.4008589999999996 -10.624615 5
v 4.4008589999999996 10.624615 0
v 4.2898471596114298 10.658290080442271 5
v 4.8750315881364852 -12.040724205670671 0
v 4.8961089139519816 -12.034330467870189 5
v 4.9748849999999996 12.010434 0
v 4.9748849999999996 12.010434 5
v 5.1432650000000004 -12.416941 0.53600000000000003
v 5.1432650000000004 -12.416941 4.4640000000000004
v 5.1230096792254898 12.458256308517489 0.59938524050807496
v 5.1432650000000004 12.416941 4.4640000000000004
v 5.2680199999999999 -12.718126 1.147
v 5.2680199999999999 -12.718126 3.8530000000000002
v 5.2690802788404536 12.720685732193759 1.156093747525559
v 5.3079043159478347 12.715794578564591 3.7977731540948811
v 5.3453220000000004 -12.904749000000001 1.8100000000000001
v 5.3453220000000004 -12.904749000000001 3.1899999999999999
v 5.3453220000000004 12.904749000000001 1.8100000000000001
v 5.3453220000000004 12.904749000000001 3.1899999999999999
v 5.3085397918830264 -12.98623442565005 2.4961915897971072
v 5.3925410268745022 12.95624348382804 2.5
v 5.8134870000000003 -8.7004979999999996 2.5
v 5.8134870000000003 8.7004979999999996 2.5
v 5.8512659999999999 -8.7570379999999997 1.8100000000000001
v 5.8512659999999999 -8.7570379999999997 3.1899999999999999
v 5.8512659999999999 8.7570379999999997 1.8100000000000001
v 5.8512659999999999 8.7570379999999997 3.1899999999999999
v 5.9858153044115907 -8.9136284698114796 1.136875467826012
v 5.9634910000000003 -8.9249949999999991 3.8530000000000002
v 5.9634910000000003 8.9249949999999991 1.147
v 6.0280046768060638 8.8720499689941725 3.8530000000000002
v 6.1446069999999997 -9.1960540000000002 0.53600000000000003
v 6.1179130587697088 -9.1867993299540363 4.4249302870354184
v 6.2027690083591027 9.1385851462279568 0.55017453792563886
v 6.1446069999999997 9.1960540000000002 4.4640000000000004
v 6.3890580000000003 -9.5619010000000006 0
v 6.3890580000000003 -9.5619010000000006 5
v 6.3890580000000003 9.5619010000000006 0
v 6.3890580000000003 9.5619010000000006 5
v 7.2224130000000004 -10.809105000000001 0
v 7.2224130000000004 -10.809105000000001 5
v 7.2224130000000004 10.809105000000001 0
v 7.2818897402942939 10.75799679344799 5
v 7.3450025077043799 -7.4477258149185142 2.4676001004123398
v 7.399165 7.399165 2.5
v 7.4170436672859328 -7.4718701044683593 1.811322250631183
v 7.4472490000000002 -7.4472490000000002 3.1899999999999999
v 7.4472490000000002 7.4472490000000002 1.8100000000000001
v 7.439233498853981 7.4544671999536778 3.1916317661183848
v 7.4668640000000002 -11.174951999999999 0.53600000000000003
v 7.4668640000000002 -11.174951999999999 4.4640000000000004
v 7.4668640000000002 11.174951999999999 0.53600000000000003
v 7.4668640000000002 11.174951999999999 4.4640000000000004
v 7.5568993811287193 -7.6173179256114354 1.147
v 7.6334364111502317 -7.5710161927860469 3.893331577792349
v 7.5327676481215597 7.6592380341181858 1.1148037364736869
v 7.5900840000000001 7.5900840000000001 3.8530000000000002
v 7.6484101125737016 -11.44665471055951 1.1495410081208679
v 7.6479799999999996 -11.446011 3.8530000000000002
v 7.6479799999999996 11.446011 1.147
v 7.6885289678609192 11.421177020594611 3.8314733276323851
v 7.760205 -11.613968 1.8100000000000001
v 7.760205 -11.613968 3.1899999999999999
v 7.760205 11.613968 1.8100000000000001
v 7.760205 11.613968 3.1899999999999999
v 7.7979839999999996 -11.670507000000001 2.5
v 7.7979839999999996 11.670507000000001 2.5
v 7.8100434176155904 -7.8100434176155904 0.56398354497444747
v 7.7506803989431807 -7.8737370141444902 4.457818111159388
v 7.8206009999999999 7.8206009999999999 0.53600000000000003
v 7.8383369059265178 7.7989897403514261 4.4640000000000004
v 8.1317280000000007 -8.1317280000000007 0
v 8.1317280000000007 -8.1317280000000007 5
v 8.0782384733002566 8.1756257413215092 0
v 8.1317280000000007 8.1317280000000007 5
v 8.7004979999999996 -5.8134870000000003 2.5
v 8.7380082033321624 5.7476662378714742 2.5209364886583572
v 8.7570379999999997 -5.8512659999999999 1.8100000000000001
v 8.7444268812346504 -5.8992784875375897 3.2583036887845389
v 8.7570379999999997 5.8512659999999999 1.8100000000000001
v 8.7784089171212649 5.8215411230617962 3.205946979511562
v 8.9249949999999991 -5.9634910000000003 1.147
v 8.9249949999999991 -5.9634910000000003 3.8530000000000002
v 8.9249949999999991 5.9634910000000003 1.147
v 8.9846100314897317 5.9055065944841836 3.9005385122909071
v 9.1923879999999993 -9.1923879999999993 0
v 9.1923879999999993 -9.1923879999999993 5
v 9.1923879999999993 9.1923879999999993 0
v 9.1923879999999993 9.1923879999999993 5
v 9.1960540000000002 -6.1446069999999997 0.53600000000000003
v 9.2554634923059673 -6.0601630909081976 4.4794085581577878
v 9.1960540000000002 6.1446069999999997 0.53600000000000003
v 9.1960540000000002 6.1446069999999997 4.4640000000000004
v 9.4789741718212657 -9.5300527083841455 0.54531364564264306
v 9.474022426550853 -9.527718939942643 4.4640000000000004
v 9.4654278909145209 9.5555081350088429 0.56618745107642177
v 9.4261138843408823 9.5731665036233196 4.4550758416406424
v 9.5619010000000006 -6.3890580000000003 0
v 9.5619010000000006 -6.3890580000000003 5
v 9.5619010000000006 6.3890580000000003 0
v 9.5151955910452983 6.4655160298959489 5
v 9.6674749999999996 -4.0043990000000003 2.5
v 9.6674749999999996 4.0043990000000003 2.5
v 9.7302990000000005 -4.0304219999999997 1.8100000000000001
v 9.7627098545402013 -3.9430255344013041 3.2086188182398621
v 9.7302990000000005 4.0304219999999997 1.8100000000000001
v 9.7144814672580253 4.1084851949604468 3.2653569673330631
v 9.6763891706302818 -9.7844252247136261 1.154870019564842
v 9.7340319999999991 -9.7340319999999991 3.8530000000000002
v 9.7357409743320673 9.7419281039037902 1.170706155175014
v 9.7340319999999991 9.7340319999999991 3.8530000000000002
v 9.876868 -9.876868 1.8100000000000001
v 9.876868 -9.876868 3.1899999999999999
v 9.876868 9.876868 1.8100000000000001
v 9.876868 9.876868 3.1899999999999999
v 9.9169230000000006 -4.1077240000000002 1.147
v 9.9169230000000006 -4.1077240000000002 3.8530000000000002
v 9.9169230000000006 4.1077240000000002 1.147
v 9.8924480069056422 4.1644042701068411 3.8626686353374802
v 9.881999025598537 -9.9600454273446903 2.5012243028229419
v 9.9249510000000001 9.9249510000000001 2.5
v 10.21569994982096 -4.1913303027666684 0.56283550527706905
v 10.206132463857079 -4.2377000446002029 4.4487447121309049
v 10.201454834871321 4.2232860467317401 0.57103815093433008
v 10.210013723664581 4.2204564948725798 4.4428398301438818
v 10.241300674812701 -2.1164189988938622 2.4891416667490902
v 10.262007472908669 2.0500452450464861 2.5164444888996291
v 10.34867390095839 -1.9821592766022691 1.770944715320163
v 10.329630999999999 -2.054691 3.1899999999999999
v 10.329630999999999 2.054691 1.8100000000000001
v 10.329630999999999 2.054691 3.1899999999999999
v 10.46630133957105 -0.0036213171788006008 2.47302904177843
v 10.527749 -2.0941000000000001 1.147
v 10.51616910250061 -2.1212718724500061 3.8424670165575461
v 10.527749 2.0941000000000001 1.147
v 10.53482614463401 2.022244597708228 3.8530000000000002
v 10.53350267864192 -0.051012811564344777 1.7885772038982899
v 10.530388000872639 -0.08005791107499706 3.210589108216424
v 10.624615 -4.4008589999999996 0
v 10.624615 -4.4008589999999996 5
v 10.624615 4.4008589999999996 0
v 10.624615 4.4008589999999996 5
v 10.734 0 1.147
v 10.76435092686868 0.031878557910316907 3.9157693676246681
v 10.809105000000001 -7.2224130000000004 0
v 10.809105000000001 -7.2224130000000004 5
v 10.809105000000001 7.2224130000000004 0
v 10.809105000000001 7.2224130000000004 5
v 10.847485000000001 -2.157699 0.53600000000000003
v 10.838826410023019 -2.1486535447024511 4.4461020265815128
v 10.841043997151729 2.24252028550129 0.51340524726282843
v 10.834029613482651 2.1836191250082431 4.4539209514161824
v 11.03693922512557 0.032443215266611057 0.57323238089213968
v 11.050182954061141 0.043784379152295827 4.4536829895177474
v 11.20626570985196 -7.4451846092556639 0.56876312386469607
v 11.20414953767378 -7.4163763394946676 4.4603271483403999
v 11.174951999999999 7.4668640000000002 0.53600000000000003
v 11.2107145504015 7.4170550468769916 4.4488206111596966
v 11.285501987613671 -2.1778378696162122 0
v 11.279031 -2.2435390000000002 5
v 11.279031 2.2435390000000002 0
v 11.279031 2.2435390000000002 5
v 11.446011 -7.6479799999999996 1.147
v 11.446011 -7.6479799999999996 3.8530000000000002
v 11.446011 7.6479799999999996 1.147
v 11.446011 7.6479799999999996 3.8530000000000002
v 11.5 0 0
v 11.5 0 5
v 11.645192067171349 -7.7017888403238421 1.8100000000000001
v 11.588252071983931 -7.777730562595373 3.2188929102281891
v 11.568080127827169 7.8043147397106187 1.78530124270956
v 11.585281480913009 7.7787561008114867 3.2243205605999101
v 11.670507000000001 -7.7979839999999996 2.5
v 11.670507000000001 7.7979839999999996 2.5
v 12.010434 -4.9748849999999996 0
v 12.010434 -4.9748849999999996 5
v 12.010434 4.9748849999999996 0
v 12.010434 4.9748849999999996 5
v 12.416941 -5.1432650000000004 0.53600000000000003
v 12.39277002519915 -5.2204835736818511 4.4355929229575919
v 12.45766624007168 5.1300814941021509 0.60218793632890055
v 12.416414050333559 5.1931205810197412 4.4206143694375308
v 12.718126 -5.2680199999999999 1.147
v 12.718126 -5.2680199999999999 3.8530000000000002
v 12.718126 5.2680199999999999 1.147
v 12.718126 5.2680199999999999 3.8530000000000002
v 12.750209 -2.5361739999999999 0
v 12.750209 -2.5361739999999999 5
v 12.750209 2.5361739999999999 0
v 12.750209 2.5361739999999999 5
v 12.904749000000001 -5.3453220000000004 1.8100000000000001
v 12.904749000000001 -5.3453220000000004 3.1899999999999999
v 12.904749000000001 5.3453220000000004 1.8100000000000001
v 12.904749000000001 5.3453220000000004 3.1899999999999999
v 12.966666999999999 -1.443376 1.6666669999999999
v 12.966666999999999 -1.443376 3.3333330000000001
v 12.966666999999999 1.443376 3.3333330000000001
v 12.967573 -5.3713449999999998 2.5
v 12.985470867091809 5.3052428717822462 2.4789833650697481
v 13 0 0
v 12.98903364394898 -0.11134343147403319 5
v 13.17548312434581 -2.6043836186546891 0.52624562399661845
v 13.181754 -2.6220140000000001 4.4640000000000004
v 13.19083354235593 2.66040345229001 0.57335049960567919
v 13.151414308979909 2.7220305744098141 4.4640000000000004
v 13.44 0 0.53600000000000003
v 13.44 0 4.4640000000000004
v 13.459383000000001 -0.58996599999999999 0.68123400000000001
v 13.459383000000001 -0.58996599999999999 4.3187660000000001
v 13.459383000000001 0.58996599999999999 0.68123400000000001
v 13.459383000000001 0.58996599999999999 4.3187660000000001
v 13.487493000000001 0 0.62501399999999996
v 13.487493000000001 0 4.3749859999999998
v 13.50664141773597 -2.673297994491767 1.159926804362321
v 13.477044279084129 -2.7118572248540449 3.8827087230501292
v 13.486984100957409 2.660008386238093 1.1150860371074161
v 13.513784769111361 2.6986715894381339 3.8016953015371029
v 13.656688083173581 -1.320221855466269 1.2150016187513499
v 13.641334009519801 -1.223917478264051 3.86072339167823
v 13.644862150122069 1.2378135491310851 1.149546879153764
v 13.644401999999999 1.234607 3.8530000000000002
v 13.699609000000001 -2.7250220000000001 1.8100000000000001
v 13.699609000000001 -2.7250220000000001 3.1899999999999999
v 13.699609000000001 2.7250220000000001 1.8100000000000001
v 13.699609000000001 2.7250220000000001 3.1899999999999999
v 13.738292 -1.8888739999999999 1.6666669999999999
v 13.738292 -1.8888739999999999 3.3333330000000001
v 13.738292 1.8888739999999999 1.6666669999999999
v 13.738292 1.8888739999999999 3.3333330000000001
v 13.766302 -2.7382879999999998 2.5
v 13.76692248532788 2.7234893945699041 2.5084936912017941
v 13.779612999999999 -1.91273 1.8100000000000001
v 13.789073500000001 -1.9181925 3.0885435000000001
v 13.789073500000001 1.9181925 1.9114564999999999
v 13.779612999999999 1.91273 3.1899999999999999
v 13.841468544752891 -1.948443003256038 2.4912837516232091
v 13.834376063588341 1.944347991240061 2.6027144428879558
v 13.283343518420221 -1.093956242487929 0.47641735236285843
v 13.326420484088411 0.41760100550391921 0.44774338237435568
v 13.34170885211241 0.99796614792613481 4.4640000000000004
v 13.221391315912321 -1.022914784528417 4.607575445572591
v 12.96668468332366 1.4433766304082161 1.6666652246516811
v 12.11629617222327 1.005961546359202 0
v 12.125104500000001 -1.268087 0
v 11.687412 3.4685164999999998 5
v 11.687412 3.4685164999999998 0
v 10.747311540186219 -8.9116637973944073 2.5726892370085959
v 6.593286242861887 12.3135232886849 2.5081676373776549
v 7.7907229999999998 9.3771445 0
v 7.7907229999999998 -9.3771445 5
v 1.43720682199476 13.8139277492406 1.76890758483332
v -8.7667192859987573 -10.866513236221479 2.5707277948936111
v 10.561200085315139 -8.7162026123568133 1.1509350097824209
v 1.3691439999999999 13.901151 2.5
v -7.7907229999999998 -9.3771445 5
v 8.9019485634422821 10.670436370808559 1.7933594961869641
v 12.829893883434529 3.7819415518993749 0.53600000000000003
v 8.6910059999999998 -10.590021500000001 3.8530000000000002
v 10.51839479173444 8.7088566813022545 1.0640522365776579
v -8.7103726332296425 -10.83128215715614 3.1974025470294118
v 8.7958061649449899 -10.726917752833829 3.284723088738144
v 10.357114775200751 8.4602850234384963 4.4564103055798494
v -8.4999811163962082 10.316890839270579 0.53264607643167694
v -10.786447968583699 8.870687713373357 2.470725396852592
v -6.5026568147737516 -12.042194995074359 3.8795813331686868
v -13.08839650000006 3.976578371485485 1.108281835732188
v -13.109807999999999 -3.9768165 1.147
v 6.3674419999999996 -11.946539 0.84150000000000003
v -1.3428065 13.633744999999999 3.8530000000000002
v -13.35278969828485 4.067290859232231 2.6011197472468459
v 6.5625903637104663 -12.32836464633003 2.477750984609274
v -8.8877183467641032 10.776185495529001 2.5
v 10.73235466739539 8.9411263869661148 2.5
v 8.997298774024939 10.683544922420269 2.4786381288483939
v -8.8028949647886598 -10.76906382953201 1.8951953821467611
v 8.8594204548914686 10.70148498547241 3.2164641428980731
v 8.8185365000000004 -10.745418000000001 1.8100000000000001
v -3.953914151003787 -13.32920475096557 1.8331869856332501
v -4.0676735650815647 -13.295873367567269 3.155326731974593
v -13.302179000000001 4.0351720000000002 3.1899999999999999
v -6.3200068860535499 11.78816291234039 0.54252104218778718
v -12.875104500000001 1.268087 5
v -10.302695320271051 8.5102135678700837 4.4686952083668752
v -1.475178704599108 -13.260417143099749 4.5057719218437029
v 12.96667584166183 1.4433763152041079 2.4999991123258409
v 12.966666999999999 -1.443376 2.5
v 3.7106701076706732 12.78884373703192 0.46259019354727188
v -13.298272780123011 1.188089535767034 4.4941019654652399
v 12.828182970777441 -3.7680129245208298 0.52904661951486365
v -12.80723735343792 3.8662270010329358 0.54775774507526376
v 13.273752494094211 1.771227805897539 4.448625072428948
v -1.4771121767991811 -13.268038920225599 0.50374481422759176
v -12.791383501896259 3.9005804379410458 4.4669538102406046
v 8.4856653971793552 10.339709397179361 0.537261395804153
v 10.24144022669701 8.5257355407859432 0.4749515763651046
v 11.795946499999999 6.3050645000000003 0.53600000000000003
v 8.5305994804637475 -6.927842495765872 4.4309973071286128
v -11.3895155 1.1217695000000001 5
v -10.956465170833299 3.3068958167311018 5
v -6.4580000000000002 12.0820685 3.8530000000000002
v 10.590021500000001 8.6910059999999998 3.8530000000000002
v -1.3883547406989849 -13.61285524946136 3.8837442434880329
v 1.4179802720045991 13.58197419345715 3.9361537937503912
v -1.3428065 -13.633744999999999 1.147
v -12.380321500000001 3.7555295000000002 5
v 12.36602679875276 3.8026528079968238 5
v 12.380321500000001 3.7555295000000002 0
v 12.380321500000001 -3.7555295000000002 5
v 12.380321500000001 -3.7555295000000002 0
v 12.875104500000001 1.268087 5
v 12.89558126617205 1.0601826240632111 0
v 12.875104500000001 -1.268087 5
v 12.862773071093891 -1.393290267429667 0
v 10.0007465 -8.2074005000000003 5
v 11.409769499999999 -6.098649 5
v 11.409769499999999 6.098649 5
v 11.81978882150397 -6.2670400933231534 0.54184290143358527
v 9.2373629406173254 -4.9648502437687947 3.224151844392269
v 11.813564300367529 6.3050878139483668 4.4347174902986133
v 9.2310826343654657 4.9593543958216584 1.834205678449643
v 10.94461603562875 -0.98130926833881116 0.57111066068213445
v 8.2792157055751154 -6.767253596393024 3.8731657888961739
v 1.2919412899835869 13.304815516671839 4.4690964751348794
v 13.22941332138301 -1.849169930571309 0.50133148817973838
v -6.3829616563689404 -11.777698223304871 4.4251533489223132
v 9.1839864999999996 -4.9089430000000007 2.5
v 12.273650952207831 -0.34897978150440639 5
v 12.749386285838421 3.912122142032942 4.512046922378798
v 8.8468145000000007 -7.2603930000000014 5
v 13.58870108445563 1.9308730051201981 3.810740462424675
v 8.3930690000000006 6.8673454999999999 4.1585000000000001
v 8.2628436569767238 6.7579930319974739 1.172800554850211
v 8.5126919673355363 7.0184690824918787 0.50401938659513246
v -13.814391279356901 -1.36311579838491 1.7464780005464839
v 1.453734333556461 -13.81140032524546 1.7659550090655891
v 1.3821102027766199 -13.81570260837424 3.2430778775597831
v -13.801231261998311 -1.4041040538101901 3.283465550102131
v -12.330939944963349 6.4345307757316172 3.1146027876968869
v 13.32000695027873 -3.977857606008393 3.1856892421149028
v 13.318644986861321 3.9237456939769588 1.7552902677370801
v 13.323563805002539 -3.954160390109664 1.799932812865247
v 13.29889719413015 4.065118144603499 3.1333869253960689
v -3.983499432129622 13.321874482691181 3.1507691197969909
v 13.213025 -1.0166710000000001 3.8260494999999999
v 8.2575395 -6.7767875000000002 1.147
v 8.2870835992919485 6.688533981928936 3.743670772375884
v 13.213025 1.0166710000000001 3.8260494999999999
v 8.1478010322630396 6.5987400663182454 3.2007050129535242
v 13.213025 -1.0166710000000001 1.1739504999999999
v 9.2217063170611553 -4.9796740326693492 1.820854485115498
v 12.932069071974491 0.57837178426298341 5
v 8.1021435000000004 6.6492575 1.8100000000000001
v 8.0408105531104539 -6.7147057969164443 3.129934730127343
v 8.1145164442641633 -6.6464610507333157 1.7843068013125101
v 8.0134545086428393 -6.6601552325951374 2.438527035928661
v 8.0646809407922131 6.5882319137234564 2.5
v 12.21701596013504 0.55752378638919109 5
v 13.54769421316038 -1.9637274747466049 1.100340148562621
v 13.369308407408489 -1.675841176371514 2.1398257168232071
v 11.3895155 -1.1217695000000001 5
v 11.3895155 1.1217695000000001 5
v 11.3895155 1.1217695000000001 0
v 13.213025 -0.294983 3.8260494999999999
v -12.3283619889108 6.5626686028331216 2.4781032431225589
v -10.38443588481837 -8.3510431358466679 4.5253991978811916
v 10.326963085910631 -8.4984583541920724 0.54065682282132155
v 12.966666999999999 -0.63490965969291446 2.4618759985026148
v 12.966666999999999 0.45722695991962159 2.3905755538667481
v 10.975023278203681 -1.0170313684820631 4.4825068837699451
v 6.4580000000000002 -12.0820685 3.8530000000000002
v 6.4479700400653348 -12.12776901050054 1.264332650624211
v -6.4763268316935738 12.033404623760189 1.082443233994451
v -12.08639143744591 6.4499123521035591 3.8530000000000002
v 12.0820685 6.4580000000000002 1.147
v -10.35495180138269 -8.4757835073288117 0.55375643102572969
v 13.390854426056199 0.4989830739630674 4.4640000000000004
v -13.0827381646055 -3.9733378474060901 3.903687236071764
v -6.2911914387625352 -11.80476605039143 0.54431033793405881
v 8.7190435005918978 10.53721534984283 3.8963778611998099
v 8.7634421167654715 10.535599353408321 1.1598099774360391
v -13.633744999999999 -1.3428065 3.8530000000000002
v -12.805345446142949 -3.9005298007728961 4.4381552036681633
v -1.3428065 13.633744999999999 1.147
v -10.98033948050519 1.08133265267611 4.4966978880895514
v 10.93140354080367 1.109975849436605 0.56594715783613236
v 8.8307543845797536 -10.815590099140531 2.557887854134234
v -10.51873849539731 3.182524099419791 4.4317954438110227
v 1.307155299203367 13.83900498903844 3.19082568499958
v 10.942106283771899 1.113701752080269 4.4538019704669649
v 10.41391081355143 -8.4221954254751896 4.4305463337309847
v 13.24461560176894 1.47494073386672 0.47495035437318001
v 10.6123064676494 -1.0562100261551259 3.7950173812675012
v -10.640660165056779 1.171115893712094 3.8942426837801141
v -10.03199074915509 3.034405377982365 3.185639871165304
v 12.977957505148741 -0.044609781439826517 1.6440859667876819
v 12.982554562233609 0.089182151935277815 3.3651081567120968
v 13.31471879538079 -1.6411269787097029 4.3958605778316224
v 12.807927592265241 -3.7189761013859641 4.5121041716397956
v 11.687412 -3.4685164999999998 5
v 1.3182656803921331 -13.90328839474352 2.5291594563413828
v -13.904834348130709 -1.3116952203237979 2.520039085641435
v -1.2636792577342979 13.90935688661021 2.5221357123049648
v -1.245340846654523 -13.912073790063531 2.512894595526475
v -13.89120809661093 1.385184485550595 2.5848608995589459
v 13.37143532029887 4.0246836173662288 2.4546990368328432
v 13.42590210578342 -3.8537333595316379 2.4801608383066038
v -13.31335492840951 -4.2203222066908843 2.467050673737929
v -3.9208799237276342 13.39994462297582 2.5743700370414428
v -4.1874156026098799 -13.3258284716667 2.4913596731934522
v 4.2607704688524581 13.30442836221571 2.499671252904101
v 4.0955310666396656 -13.354586872916141 2.5
v 12.320984010658099 6.5810240642267637 2.5000165765791329
v -12.319039999999999 -6.5846644999999997 2.5
v 12.37160799315795 -6.48264875985668 2.517630073657374
v -6.3915615309057978 12.41508639172096 2.5644676969447939
v -6.5473953041304211 -12.33822301913756 2.4933657015880848
v -10.802402841253169 -8.8473060151536718 2.4452359434257538
v -10.745418000000001 -8.8185365000000004 1.8100000000000001
v 10.698077629237851 -8.8516827926568347 3.2413401502576349
v 10.745418000000001 -8.8185365000000004 1.8100000000000001
v 10.693366356534559 8.8588311263706032 3.2383951698790279
v -10.745418000000001 8.8185365000000004 1.8100000000000001
v -8.8652297613000872 10.71818609881189 1.897395474126498
v -10.76172368012733 -8.8120854408990343 3.1032103109719991
v 10.69845930503665 8.8409878522924661 1.737256307641613
v -8.7570362597145976 10.804619763789759 3.1211933822667239
v -10.71319277808448 8.8642032440252656 3.1486008507316732
v -1.215004341152969 -13.852043314475701 1.847652815863934
v -1.3070271905054389 -13.82175014898489 3.2475004337310729
v -1.261787563756424 13.826106211954119 3.2478276205661172
v -1.318567259686428 13.81048673037094 1.7192616046953051
v -13.839496731527451 1.3384746727183341 1.843737776285125
v -13.81084788865302 1.349208895734908 3.2696476332429421
v -12.26567188053032 6.513190446399026 1.7668391793456351
v 12.259358499999999 6.5527635000000002 3.1899999999999999
v 12.25614880419913 6.5020305661462441 1.7217900315605981
v 12.22131970209143 -6.5766484471185329 1.7364928000675139
v -6.5527635000000002 -12.259358499999999 3.1899999999999999
v -12.264186565529901 -6.5437308187232883 3.1899999999999999
v -6.5527635000000002 -12.259358499999999 1.8100000000000001
v -6.5527635000000002 12.259358499999999 3.1899999999999999
v 6.5103503498549147 12.284719735077299 1.8341978313312279
v 6.5840660070632762 -12.242626972481011 3.1899999999999999
v 6.4681702426776946 -12.29976326896621 1.79600589215052
v -6.4857805084317679 12.298490412249789 1.8399329069993491
v 12.28100140134377 -6.4534509942692857 3.2814493308048029
v -12.219250325279919 -6.6210347763009327 1.799481114859099
v 6.5763078441507634 12.233781407045861 3.2277900291780202
v -4.0351720000000002 13.302179000000001 1.8100000000000001
v -13.283841047139161 4.1199977992393526 1.882140744535854
v -13.22935118480317 -4.1882791489711826 1.7267330538221159
v -13.263263922046111 -4.1382580827862014 3.2141254697201038
v 4.0488902025860023 -13.307412472825069 1.901667159335761
v 4.0757468916721962 -13.2964132013017 3.1261646969208261
v 4.1420177681825701 13.276624486874949 1.8769024702268831
v 4.0768009717514646 13.296165298388519 3.1254629337660762
v -12.03157857377211 -6.4534798535152769 3.9408727392443441
v 12.077911118085179 6.3931439855461702 3.917483045142939
v 12.02546627131372 -6.4629215467529333 1.0573573608860349
v -12.0820685 6.4580000000000002 1.147
v 6.4580000000000002 12.0820685 1.147
v -6.5629384262827379 -11.976790595836739 1.0653039686526959
v -12.027343364848059 -6.4704512963131524 1.067159746738142
v 6.4580000000000002 12.0820685 3.8530000000000002
v 12.0820685 -6.4580000000000002 3.8530000000000002
v 13.055085954727749 4.0449215165022103 1.0856121309231559
v 3.955242748006452 -13.10731241951078 1.1307082370570289
v 13.129632436206769 3.9356734769023571 3.8298224069305502
v 13.11580764375825 -3.95703830999022 1.147
v -4.0657046495616731 13.075741520368069 3.8658003187099719
v -3.7993533661202452 -13.16674659933423 1.1568020403425141
v 3.8487534841690532 13.15349821126145 3.8377161021752859
v 3.8729167430115261 -13.14132562260307 3.8530000000000002
v -3.9178584776418068 -13.127692706874869 3.8530000000000002
v 3.9242651890123219 13.112980563400381 1.123988161558634
v -3.8107945880156082 13.11624528841438 1.067838346246327
v 13.09298364104588 -4.0245958560713104 3.8572003304262048
v -8.6609682733649294 -10.613094621293779 1.144702424393679
v -10.56144077942491 -8.7112531111532086 3.8704178313298359
v -10.590021500000001 8.6910059999999998 1.147
v -8.5485452511006326 -10.712112625885039 3.8398026351856802
v -10.574714643611021 8.7096574544769236 3.8530000000000002
v -10.572495408627731 -8.7123615995484247 1.147
v -8.7093952703849169 10.56377646230295 3.8692371795129219
v -8.7136278164373415 10.597003878034091 1.212131995232026
v 1.484537795007413 -13.59128904590329 1.09359066718308
v 1.5001044748569701 13.619630430371521 1.1515226370895679
v -13.614452602205899 1.3815457180032129 1.1179926534267239
v 1.395749055931659 -13.615422297597579 3.877568032042856
v -13.62160325107879 1.3538642883639711 3.87371524718397
v -13.592964291698941 -1.380949383230262 1.077608460393902
f 1 2 758 
f 789 2 1 
f 758 3 1 
f 1 3 761 
f 1 761 789 
f 845 6 2 
f 2 6 848 
f 2 691 758 
f 848 691 2 
f 2 789 845 
f 694 7 3 
f 3 7 847 
f 758 694 3 
f 790 761 3 
f 847 790 3 
f 758 8 4 
f 4 8 808 
f 4 9 758 
f 809 9 4 
f 808 764 4 
f 4 764 809 
f 5 10 789 
f 807 10 5 
f 5 11 627 
f 761 11 5 
f 5 627 807 
f 789 761 5 
f 845 16 6 
f 6 16 848 
f 738 17 7 
f 7 17 847 
f 7 694 738 
f 8 12 808 
f 848 12 8 
f 758 691 8 
f 8 691 848 
f 9 13 694 
f 809 13 9 
f 9 694 758 
f 807 14 10 
f 10 14 845 
f 845 789 10 
f 11 15 637 
f 847 15 11 
f 637 627 11 
f 11 761 790 
f 11 790 847 
f 12 18 624 
f 848 18 12 
f 12 624 808 
f 734 19 13 
f 13 19 738 
f 738 694 13 
f 809 734 13 
f 623 20 14 
f 14 20 845 
f 807 623 14 
f 15 21 650 
f 847 21 15 
f 15 37 637 
f 650 37 15 
f 30 18 16 
f 16 18 848 
f 16 20 22 
f 845 20 16 
f 16 22 30 
f 17 19 23 
f 738 19 17 
f 17 23 645 
f 17 645 847 
f 18 30 38 
f 18 38 624 
f 31 23 19 
f 739 31 19 
f 19 734 739 
f 32 22 20 
f 647 32 20 
f 20 623 647 
f 645 33 21 
f 21 33 662 
f 847 645 21 
f 662 650 21 
f 52 30 22 
f 22 32 52 
f 23 31 59 
f 59 53 23 
f 23 53 639 
f 23 639 645 
f 24 26 804 
f 808 26 24 
f 796 27 24 
f 24 27 809 
f 24 764 808 
f 809 764 24 
f 24 770 796 
f 804 770 24 
f 791 28 25 
f 25 28 807 
f 627 29 25 
f 25 29 695 
f 807 627 25 
f 25 695 721 
f 25 721 791 
f 26 34 804 
f 808 34 26 
f 796 35 27 
f 27 35 809 
f 791 36 28 
f 28 36 807 
f 637 37 29 
f 29 37 730 
f 29 627 637 
f 730 695 29 
f 42 38 30 
f 58 42 30 
f 30 52 58 
f 31 43 79 
f 739 43 31 
f 79 59 31 
f 32 44 80 
f 647 44 32 
f 60 52 32 
f 80 60 32 
f 639 61 33 
f 33 61 662 
f 645 639 33 
f 624 38 34 
f 34 38 820 
f 808 624 34 
f 820 804 34 
f 35 39 734 
f 814 39 35 
f 35 734 809 
f 35 796 814 
f 36 40 623 
f 817 40 36 
f 36 623 807 
f 36 791 817 
f 650 41 37 
f 37 41 730 
f 38 42 72 
f 72 62 38 
f 38 62 820 
f 63 43 39 
f 39 43 739 
f 814 63 39 
f 739 734 39 
f 74 44 40 
f 40 44 647 
f 40 64 74 
f 817 64 40 
f 647 623 40 
f 41 45 65 
f 662 45 41 
f 41 65 730 
f 41 650 662 
f 42 58 78 
f 119 72 42 
f 42 78 119 
f 43 63 73 
f 43 73 120 
f 120 79 43 
f 44 74 121 
f 121 80 44 
f 75 65 45 
f 122 75 45 
f 45 81 122 
f 662 81 45 
f 46 48 775 
f 804 48 46 
f 781 49 46 
f 46 49 796 
f 796 770 46 
f 46 770 804 
f 775 774 46 
f 46 774 781 
f 779 50 47 
f 47 50 791 
f 695 51 47 
f 47 51 784 
f 47 621 779 
f 784 621 47 
f 721 695 47 
f 791 721 47 
f 804 54 48 
f 48 54 840 
f 840 775 48 
f 49 55 796 
f 836 55 49 
f 49 781 836 
f 50 56 791 
f 837 56 50 
f 50 779 837 
f 730 57 51 
f 51 57 839 
f 51 695 730 
f 839 784 51 
f 68 58 52 
f 52 60 70 
f 52 66 68 
f 70 66 52 
f 53 59 69 
f 69 67 53 
f 53 67 741 
f 655 639 53 
f 741 655 53 
f 820 62 54 
f 54 62 840 
f 54 804 820 
f 55 63 814 
f 836 63 55 
f 814 796 55 
f 56 64 817 
f 837 64 56 
f 817 791 56 
f 730 65 57 
f 57 65 839 
f 58 68 78 
f 79 69 59 
f 80 70 60 
f 741 71 61 
f 61 71 744 
f 61 639 655 
f 61 655 741 
f 61 656 662 
f 744 656 61 
f 62 72 732 
f 62 732 840 
f 722 73 63 
f 836 722 63 
f 125 74 64 
f 837 125 64 
f 65 75 640 
f 65 640 839 
f 76 68 66 
f 66 70 76 
f 67 69 77 
f 67 77 750 
f 750 741 67 
f 68 76 84 
f 95 78 68 
f 68 84 95 
f 85 77 69 
f 69 79 96 
f 96 85 69 
f 86 76 70 
f 70 80 97 
f 97 86 70 
f 71 87 744 
f 750 87 71 
f 71 741 750 
f 72 119 145 
f 145 131 72 
f 72 131 732 
f 146 120 73 
f 73 132 146 
f 722 132 73 
f 133 121 74 
f 74 125 133 
f 75 122 134 
f 75 134 640 
f 86 82 76 
f 76 82 89 
f 89 84 76 
f 90 83 77 
f 77 83 750 
f 77 85 90 
f 78 95 119 
f 120 96 79 
f 121 97 80 
f 81 98 122 
f 744 98 81 
f 662 656 81 
f 81 656 744 
f 82 86 91 
f 82 88 89 
f 91 88 82 
f 90 88 83 
f 83 88 92 
f 83 92 750 
f 84 89 113 
f 101 95 84 
f 113 101 84 
f 114 90 85 
f 85 96 102 
f 85 102 114 
f 115 91 86 
f 86 97 103 
f 86 103 115 
f 750 92 87 
f 87 92 751 
f 87 104 744 
f 751 104 87 
f 93 89 88 
f 88 90 93 
f 88 91 94 
f 94 92 88 
f 89 93 117 
f 117 113 89 
f 117 93 90 
f 90 114 117 
f 115 94 91 
f 92 94 751 
f 94 115 118 
f 94 118 751 
f 95 101 135 
f 127 119 95 
f 135 127 95 
f 136 102 96 
f 96 120 128 
f 96 128 136 
f 137 103 97 
f 97 121 129 
f 97 129 137 
f 98 104 138 
f 744 104 98 
f 130 122 98 
f 138 130 98 
f 99 105 632 
f 775 105 99 
f 609 106 99 
f 99 106 781 
f 632 609 99 
f 99 774 775 
f 781 774 99 
f 100 107 779 
f 780 107 100 
f 100 108 783 
f 784 108 100 
f 779 621 100 
f 100 621 784 
f 100 629 780 
f 783 629 100 
f 101 113 135 
f 136 114 102 
f 137 115 103 
f 104 116 138 
f 751 116 104 
f 105 109 835 
f 840 109 105 
f 835 632 105 
f 105 775 840 
f 106 110 836 
f 838 110 106 
f 106 609 617 
f 106 617 838 
f 836 781 106 
f 107 111 837 
f 842 111 107 
f 837 779 107 
f 107 780 842 
f 839 112 108 
f 108 112 841 
f 841 783 108 
f 108 784 839 
f 109 123 835 
f 840 123 109 
f 110 124 836 
f 838 124 110 
f 111 125 837 
f 842 125 111 
f 839 126 112 
f 112 126 841 
f 113 117 143 
f 139 135 113 
f 143 139 113 
f 143 117 114 
f 114 136 140 
f 114 140 143 
f 144 118 115 
f 115 137 141 
f 115 141 144 
f 116 118 144 
f 751 118 116 
f 142 138 116 
f 144 142 116 
f 119 127 145 
f 146 128 120 
f 147 129 121 
f 121 133 147 
f 122 130 148 
f 148 134 122 
f 123 131 177 
f 732 131 123 
f 177 167 123 
f 123 167 835 
f 840 732 123 
f 168 132 124 
f 124 132 722 
f 838 168 124 
f 124 722 836 
f 620 133 125 
f 842 620 125 
f 126 134 180 
f 640 134 126 
f 180 170 126 
f 126 170 841 
f 839 640 126 
f 127 135 163 
f 149 145 127 
f 163 149 127 
f 164 136 128 
f 128 146 150 
f 128 150 164 
f 165 137 129 
f 129 147 151 
f 129 151 165 
f 130 138 166 
f 152 148 130 
f 166 152 130 
f 131 145 181 
f 181 177 131 
f 612 146 132 
f 132 168 178 
f 132 178 612 
f 183 147 133 
f 133 179 183 
f 620 179 133 
f 134 148 184 
f 184 180 134 
f 135 139 163 
f 164 140 136 
f 165 141 137 
f 138 142 166 
f 139 143 175 
f 171 163 139 
f 175 171 139 
f 175 143 140 
f 140 164 172 
f 140 172 175 
f 176 144 141 
f 141 165 173 
f 141 173 176 
f 142 144 176 
f 174 166 142 
f 176 174 142 
f 145 149 185 
f 185 181 145 
f 186 150 146 
f 146 182 186 
f 612 182 146 
f 187 151 147 
f 147 183 187 
f 148 152 188 
f 188 184 148 
f 149 163 185 
f 186 164 150 
f 187 165 151 
f 152 166 188 
f 632 155 153 
f 153 155 797 
f 153 156 609 
f 795 156 153 
f 153 609 632 
f 153 773 795 
f 797 773 153 
f 154 157 780 
f 802 157 154 
f 154 158 772 
f 783 158 154 
f 780 629 154 
f 154 629 783 
f 154 772 802 
f 155 159 797 
f 835 159 155 
f 155 632 835 
f 795 160 156 
f 156 160 838 
f 617 609 156 
f 838 617 156 
f 802 161 157 
f 157 161 842 
f 842 780 157 
f 158 162 798 
f 841 162 158 
f 798 772 158 
f 158 783 841 
f 159 167 819 
f 835 167 159 
f 819 797 159 
f 682 168 160 
f 160 168 838 
f 160 622 682 
f 795 622 160 
f 729 169 161 
f 161 169 842 
f 802 729 161 
f 162 170 657 
f 841 170 162 
f 162 657 798 
f 163 171 193 
f 189 185 163 
f 193 189 163 
f 194 172 164 
f 164 186 190 
f 164 190 194 
f 195 173 165 
f 165 187 191 
f 165 191 195 
f 166 174 196 
f 192 188 166 
f 196 192 166 
f 167 177 735 
f 167 735 819 
f 682 178 168 
f 169 179 620 
f 638 179 169 
f 169 620 842 
f 729 638 169 
f 170 180 212 
f 170 212 657 
f 171 175 193 
f 194 175 172 
f 195 176 173 
f 174 176 196 
f 197 193 175 
f 175 194 197 
f 176 195 198 
f 198 196 176 
f 177 181 213 
f 177 213 735 
f 214 182 178 
f 178 182 612 
f 682 214 178 
f 219 183 179 
f 179 215 219 
f 638 215 179 
f 180 184 216 
f 216 212 180 
f 181 185 221 
f 217 213 181 
f 221 217 181 
f 222 186 182 
f 182 214 218 
f 182 218 222 
f 223 187 183 
f 183 219 223 
f 184 188 224 
f 220 216 184 
f 224 220 184 
f 185 189 221 
f 222 190 186 
f 223 191 187 
f 188 192 224 
f 189 193 229 
f 225 221 189 
f 229 225 189 
f 230 194 190 
f 190 222 226 
f 190 226 230 
f 231 195 191 
f 191 223 227 
f 191 227 231 
f 192 196 232 
f 228 224 192 
f 232 228 192 
f 193 197 229 
f 230 197 194 
f 231 198 195 
f 196 198 232 
f 233 229 197 
f 197 230 233 
f 198 231 234 
f 234 232 198 
f 199 201 766 
f 797 201 199 
f 766 202 199 
f 199 202 795 
f 795 773 199 
f 199 773 797 
f 200 203 802 
f 806 203 200 
f 200 204 765 
f 772 204 200 
f 200 765 806 
f 802 772 200 
f 797 205 201 
f 201 205 828 
f 201 635 766 
f 828 635 201 
f 202 206 795 
f 831 206 202 
f 766 636 202 
f 202 636 831 
f 203 207 802 
f 833 207 203 
f 203 806 833 
f 798 208 204 
f 204 208 827 
f 204 700 765 
f 827 700 204 
f 204 772 798 
f 819 209 205 
f 205 209 828 
f 205 797 819 
f 206 210 682 
f 831 210 206 
f 682 622 206 
f 206 622 795 
f 207 211 729 
f 833 211 207 
f 207 729 802 
f 657 212 208 
f 208 212 827 
f 798 657 208 
f 209 213 245 
f 735 213 209 
f 209 245 828 
f 819 735 209 
f 246 214 210 
f 210 214 682 
f 831 246 210 
f 251 215 211 
f 211 215 638 
f 211 247 251 
f 833 247 211 
f 211 638 729 
f 212 216 248 
f 212 248 827 
f 213 217 249 
f 249 245 213 
f 250 218 214 
f 214 246 250 
f 251 219 215 
f 216 220 252 
f 252 248 216 
f 217 221 257 
f 253 249 217 
f 257 253 217 
f 258 222 218 
f 218 250 254 
f 218 254 258 
f 259 223 219 
f 219 251 255 
f 219 255 259 
f 220 224 260 
f 256 252 220 
f 260 256 220 
f 221 225 261 
f 261 257 221 
f 262 226 222 
f 222 258 262 
f 263 227 223 
f 223 259 263 
f 224 228 264 
f 264 260 224 
f 225 229 261 
f 262 230 226 
f 263 231 227 
f 228 232 264 
f 229 233 265 
f 265 261 229 
f 266 233 230 
f 230 262 266 
f 267 234 231 
f 231 263 267 
f 232 234 268 
f 268 264 232 
f 269 265 233 
f 233 266 269 
f 234 267 270 
f 270 268 234 
f 766 237 235 
f 235 237 785 
f 235 238 766 
f 786 238 235 
f 785 760 235 
f 235 760 786 
f 788 239 236 
f 236 239 806 
f 765 240 236 
f 236 240 787 
f 787 759 236 
f 236 759 788 
f 806 765 236 
f 237 241 785 
f 828 241 237 
f 766 635 237 
f 237 635 828 
f 786 242 238 
f 238 242 831 
f 238 636 766 
f 831 636 238 
f 788 243 239 
f 239 243 833 
f 833 806 239 
f 240 244 787 
f 827 244 240 
f 765 700 240 
f 240 700 827 
f 241 245 649 
f 828 245 241 
f 241 649 661 
f 241 661 785 
f 641 246 242 
f 242 246 831 
f 659 641 242 
f 786 659 242 
f 740 247 243 
f 243 247 833 
f 788 740 243 
f 244 248 626 
f 827 248 244 
f 244 626 787 
f 245 249 649 
f 641 250 246 
f 300 251 247 
f 740 300 247 
f 248 252 301 
f 248 301 626 
f 249 253 280 
f 280 278 249 
f 249 278 649 
f 281 254 250 
f 250 279 281 
f 641 279 250 
f 298 255 251 
f 300 298 251 
f 252 256 297 
f 252 297 299 
f 252 299 301 
f 253 257 280 
f 281 258 254 
f 296 259 255 
f 298 296 255 
f 256 260 297 
f 257 261 284 
f 282 280 257 
f 284 282 257 
f 285 262 258 
f 258 281 283 
f 258 283 285 
f 292 263 259 
f 294 292 259 
f 296 294 259 
f 260 264 293 
f 260 293 295 
f 260 295 297 
f 261 265 284 
f 285 266 262 
f 292 267 263 
f 264 268 293 
f 265 269 288 
f 286 284 265 
f 288 286 265 
f 288 269 266 
f 266 285 287 
f 266 287 288 
f 289 270 267 
f 290 289 267 
f 292 290 267 
f 268 270 289 
f 268 289 291 
f 268 291 293 
f 271 272 757 
f 785 272 271 
f 757 273 271 
f 271 273 786 
f 271 760 785 
f 786 760 271 
f 785 274 272 
f 272 274 843 
f 272 692 757 
f 843 692 272 
f 273 275 786 
f 846 275 273 
f 757 693 273 
f 273 693 846 
f 649 276 274 
f 274 276 843 
f 661 649 274 
f 785 661 274 
f 275 277 641 
f 846 277 275 
f 275 641 659 
f 275 659 786 
f 276 278 325 
f 649 278 276 
f 276 325 329 
f 276 329 843 
f 326 279 277 
f 277 279 641 
f 330 326 277 
f 846 330 277 
f 278 280 325 
f 326 281 279 
f 280 282 317 
f 280 317 321 
f 280 321 325 
f 318 283 281 
f 322 318 281 
f 326 322 281 
f 282 284 317 
f 318 285 283 
f 284 286 309 
f 284 309 313 
f 284 313 317 
f 310 287 285 
f 314 310 285 
f 318 314 285 
f 286 288 309 
f 310 288 287 
f 288 307 309 
f 310 307 288 
f 289 290 311 
f 312 291 289 
f 311 308 289 
f 289 308 312 
f 290 292 311 
f 312 293 291 
f 292 294 319 
f 315 311 292 
f 319 315 292 
f 320 295 293 
f 293 312 316 
f 293 316 320 
f 294 296 319 
f 320 297 295 
f 296 298 327 
f 323 319 296 
f 327 323 296 
f 328 299 297 
f 297 320 324 
f 297 324 328 
f 298 300 331 
f 331 327 298 
f 680 301 299 
f 299 328 680 
f 740 302 300 
f 300 302 844 
f 844 331 300 
f 301 303 626 
f 660 303 301 
f 680 660 301 
f 788 304 302 
f 302 304 844 
f 302 740 788 
f 745 305 303 
f 303 305 787 
f 787 626 303 
f 303 660 745 
f 304 306 611 
f 788 306 304 
f 611 608 304 
f 304 608 844 
f 745 306 305 
f 305 306 787 
f 745 611 306 
f 306 759 787 
f 788 759 306 
f 343 309 307 
f 307 310 343 
f 308 311 344 
f 344 312 308 
f 345 313 309 
f 309 343 345 
f 310 314 346 
f 346 343 310 
f 311 315 347 
f 347 344 311 
f 348 316 312 
f 312 344 348 
f 353 317 313 
f 313 345 349 
f 313 349 353 
f 314 318 354 
f 350 346 314 
f 354 350 314 
f 315 319 355 
f 351 347 315 
f 355 351 315 
f 356 320 316 
f 316 348 352 
f 316 352 356 
f 357 321 317 
f 317 353 357 
f 318 322 358 
f 358 354 318 
f 319 323 359 
f 359 355 319 
f 360 324 320 
f 320 356 360 
f 357 325 321 
f 322 326 362 
f 362 358 322 
f 323 327 363 
f 363 359 323 
f 364 328 324 
f 324 360 364 
f 361 329 325 
f 325 357 361 
f 326 330 362 
f 327 331 644 
f 644 363 327 
f 364 332 328 
f 328 332 680 
f 824 333 329 
f 329 333 843 
f 329 361 365 
f 329 365 824 
f 330 334 830 
f 846 334 330 
f 366 362 330 
f 830 366 330 
f 331 335 832 
f 844 335 331 
f 832 644 331 
f 332 336 660 
f 829 336 332 
f 332 364 368 
f 332 368 829 
f 332 660 680 
f 824 337 333 
f 333 337 843 
f 334 338 830 
f 846 338 334 
f 335 339 832 
f 844 339 335 
f 336 340 745 
f 829 340 336 
f 745 660 336 
f 337 341 757 
f 810 341 337 
f 757 692 337 
f 337 692 843 
f 824 810 337 
f 757 341 338 
f 338 341 811 
f 338 693 757 
f 846 693 338 
f 338 811 830 
f 611 342 339 
f 339 342 812 
f 339 608 611 
f 844 608 339 
f 339 812 832 
f 340 342 745 
f 813 342 340 
f 829 813 340 
f 810 768 341 
f 341 768 811 
f 342 611 745 
f 342 767 812 
f 813 767 342 
f 379 345 343 
f 343 346 379 
f 344 347 380 
f 380 348 344 
f 385 349 345 
f 345 379 381 
f 345 381 385 
f 346 350 386 
f 382 379 346 
f 386 382 346 
f 347 351 387 
f 383 380 347 
f 387 383 347 
f 388 352 348 
f 348 380 384 
f 348 384 388 
f 385 353 349 
f 350 354 386 
f 351 355 387 
f 388 356 352 
f 393 357 353 
f 353 385 389 
f 353 389 393 
f 354 358 394 
f 390 386 354 
f 394 390 354 
f 355 359 395 
f 391 387 355 
f 395 391 355 
f 396 360 356 
f 356 388 392 
f 356 392 396 
f 393 361 357 
f 358 362 394 
f 359 363 395 
f 396 364 360 
f 397 365 361 
f 361 393 397 
f 362 366 398 
f 398 394 362 
f 363 367 409 
f 644 367 363 
f 399 395 363 
f 409 399 363 
f 410 368 364 
f 364 396 400 
f 364 400 410 
f 625 369 365 
f 365 369 824 
f 365 397 407 
f 365 407 625 
f 366 370 727 
f 830 370 366 
f 408 398 366 
f 727 408 366 
f 367 371 818 
f 832 371 367 
f 818 409 367 
f 367 644 832 
f 821 372 368 
f 368 372 829 
f 368 410 821 
f 801 373 369 
f 369 373 824 
f 369 625 728 
f 369 728 801 
f 370 374 800 
f 830 374 370 
f 800 727 370 
f 371 375 799 
f 832 375 371 
f 371 799 818 
f 805 376 372 
f 372 376 829 
f 821 805 372 
f 801 377 373 
f 373 377 810 
f 373 810 824 
f 374 377 800 
f 811 377 374 
f 830 811 374 
f 375 378 799 
f 812 378 375 
f 832 812 375 
f 805 378 376 
f 376 378 813 
f 376 813 829 
f 377 628 800 
f 801 628 377 
f 377 768 810 
f 811 768 377 
f 378 605 799 
f 805 605 378 
f 812 767 378 
f 378 767 813 
f 401 381 379 
f 379 382 404 
f 404 401 379 
f 380 383 402 
f 402 384 380 
f 411 385 381 
f 381 401 403 
f 381 403 411 
f 382 386 412 
f 412 404 382 
f 383 387 413 
f 405 402 383 
f 413 405 383 
f 406 388 384 
f 384 402 406 
f 425 389 385 
f 385 411 425 
f 386 390 412 
f 387 391 413 
f 428 392 388 
f 388 406 414 
f 388 414 428 
f 429 393 389 
f 389 425 429 
f 390 394 426 
f 426 412 390 
f 391 395 431 
f 427 413 391 
f 431 427 391 
f 432 396 392 
f 392 428 432 
f 443 397 393 
f 393 429 443 
f 394 398 607 
f 430 426 394 
f 607 430 394 
f 395 399 606 
f 606 431 395 
f 432 400 396 
f 443 407 397 
f 398 408 444 
f 398 444 607 
f 399 409 651 
f 399 445 606 
f 651 445 399 
f 454 410 400 
f 400 432 446 
f 400 446 454 
f 711 403 401 
f 401 404 710 
f 401 710 712 
f 712 711 401 
f 402 405 709 
f 705 406 402 
f 713 705 402 
f 402 709 713 
f 711 411 403 
f 404 412 710 
f 405 413 689 
f 405 689 709 
f 705 414 406 
f 465 415 407 
f 407 415 625 
f 407 443 451 
f 407 451 465 
f 408 416 615 
f 727 416 408 
f 452 444 408 
f 615 452 408 
f 409 417 737 
f 818 417 409 
f 737 651 409 
f 736 418 410 
f 410 418 821 
f 410 454 736 
f 702 425 411 
f 711 702 411 
f 412 426 654 
f 412 654 679 
f 412 679 710 
f 413 427 690 
f 690 689 413 
f 688 428 414 
f 703 688 414 
f 705 703 414 
f 634 419 415 
f 415 419 801 
f 415 465 634 
f 728 625 415 
f 801 728 415 
f 416 420 618 
f 800 420 416 
f 618 615 416 
f 416 727 800 
f 417 421 737 
f 799 421 417 
f 818 799 417 
f 736 422 418 
f 418 422 805 
f 418 805 821 
f 743 423 419 
f 419 423 801 
f 419 634 743 
f 420 423 743 
f 800 423 420 
f 743 618 420 
f 421 424 631 
f 799 424 421 
f 631 613 421 
f 421 613 737 
f 631 424 422 
f 422 424 805 
f 633 631 422 
f 736 633 422 
f 800 628 423 
f 423 628 801 
f 799 605 424 
f 424 605 805 
f 447 429 425 
f 702 447 425 
f 426 430 686 
f 686 654 426 
f 427 431 690 
f 458 432 428 
f 428 450 458 
f 688 450 428 
f 455 443 429 
f 429 447 455 
f 607 444 430 
f 430 444 671 
f 430 671 686 
f 431 445 457 
f 606 445 431 
f 431 457 690 
f 505 446 432 
f 432 458 505 
f 707 435 433 
f 433 435 711 
f 433 436 683 
f 710 436 433 
f 433 683 707 
f 712 710 433 
f 433 711 712 
f 434 437 677 
f 709 437 434 
f 464 438 434 
f 434 438 705 
f 434 460 464 
f 677 460 434 
f 434 705 713 
f 713 709 434 
f 707 439 435 
f 435 439 711 
f 436 440 675 
f 679 440 436 
f 436 675 683 
f 710 679 436 
f 437 441 677 
f 689 441 437 
f 709 689 437 
f 464 442 438 
f 438 442 705 
f 473 447 439 
f 439 447 702 
f 707 473 439 
f 439 702 711 
f 440 448 474 
f 654 448 440 
f 440 474 675 
f 679 654 440 
f 441 449 475 
f 690 449 441 
f 441 475 677 
f 441 689 690 
f 476 450 442 
f 442 450 688 
f 442 464 476 
f 442 688 703 
f 442 703 705 
f 723 451 443 
f 443 455 502 
f 443 502 723 
f 444 452 747 
f 747 671 444 
f 651 453 445 
f 445 453 652 
f 504 457 445 
f 652 504 445 
f 619 454 446 
f 446 505 619 
f 479 455 447 
f 447 473 479 
f 448 456 480 
f 686 456 448 
f 480 474 448 
f 448 654 686 
f 449 457 481 
f 690 457 449 
f 481 475 449 
f 482 458 450 
f 450 476 482 
f 610 465 451 
f 723 610 451 
f 615 466 452 
f 452 466 747 
f 453 467 616 
f 737 467 453 
f 453 616 652 
f 453 651 737 
f 658 468 454 
f 454 468 736 
f 454 619 658 
f 455 479 496 
f 455 496 532 
f 532 502 455 
f 497 480 456 
f 672 497 456 
f 671 503 456 
f 456 503 672 
f 686 671 456 
f 498 481 457 
f 534 498 457 
f 457 504 534 
f 458 482 499 
f 458 499 673 
f 673 505 458 
f 485 461 459 
f 459 461 707 
f 459 462 486 
f 683 462 459 
f 459 483 485 
f 486 483 459 
f 707 683 459 
f 460 463 487 
f 677 463 460 
f 488 464 460 
f 487 484 460 
f 460 484 488 
f 490 473 461 
f 461 473 707 
f 461 485 490 
f 462 474 491 
f 675 474 462 
f 491 486 462 
f 683 675 462 
f 463 475 492 
f 677 475 463 
f 492 487 463 
f 493 476 464 
f 464 488 493 
f 465 469 634 
f 777 469 465 
f 465 610 777 
f 618 470 466 
f 466 470 776 
f 466 521 747 
f 776 521 466 
f 466 615 618 
f 737 471 467 
f 467 471 782 
f 782 616 467 
f 468 472 736 
f 778 472 468 
f 468 658 778 
f 469 477 743 
f 777 477 469 
f 743 634 469 
f 743 477 470 
f 470 477 776 
f 470 618 743 
f 631 478 471 
f 471 478 782 
f 471 613 631 
f 737 613 471 
f 472 478 631 
f 778 478 472 
f 472 631 633 
f 472 633 736 
f 490 479 473 
f 474 480 507 
f 507 491 474 
f 475 481 492 
f 493 482 476 
f 477 604 776 
f 777 604 477 
f 778 630 478 
f 478 630 782 
f 479 490 506 
f 506 496 479 
f 480 497 507 
f 508 492 481 
f 481 498 508 
f 482 493 509 
f 509 499 482 
f 489 485 483 
f 483 486 489 
f 484 487 489 
f 489 488 484 
f 485 489 494 
f 500 490 485 
f 485 494 500 
f 495 489 486 
f 486 491 749 
f 749 495 486 
f 494 489 487 
f 487 492 500 
f 500 494 487 
f 488 489 495 
f 495 493 488 
f 490 500 678 
f 678 506 490 
f 491 507 726 
f 491 726 749 
f 742 500 492 
f 492 508 742 
f 493 495 501 
f 493 501 746 
f 746 509 493 
f 749 501 495 
f 496 506 516 
f 496 516 666 
f 666 532 496 
f 517 507 497 
f 756 517 497 
f 672 533 497 
f 497 533 756 
f 518 508 498 
f 603 518 498 
f 498 534 603 
f 499 509 519 
f 499 519 602 
f 602 535 499 
f 499 535 673 
f 500 510 678 
f 742 510 500 
f 726 511 501 
f 501 511 746 
f 749 726 501 
f 674 512 502 
f 502 512 723 
f 502 532 674 
f 503 513 672 
f 747 513 503 
f 503 671 747 
f 652 514 504 
f 504 514 653 
f 653 534 504 
f 505 515 619 
f 673 515 505 
f 678 516 506 
f 507 517 726 
f 508 518 719 
f 508 719 742 
f 718 519 509 
f 746 718 509 
f 510 524 678 
f 719 524 510 
f 742 719 510 
f 511 525 718 
f 726 525 511 
f 511 718 746 
f 512 520 610 
f 816 520 512 
f 512 610 723 
f 512 674 816 
f 747 521 513 
f 513 521 822 
f 513 537 672 
f 822 537 513 
f 616 522 514 
f 514 522 731 
f 652 616 514 
f 731 653 514 
f 515 523 658 
f 815 523 515 
f 658 619 515 
f 515 673 676 
f 515 676 815 
f 516 524 601 
f 678 524 516 
f 601 544 516 
f 516 544 666 
f 517 545 669 
f 756 545 517 
f 517 669 717 
f 517 717 726 
f 518 546 600 
f 603 546 518 
f 518 600 719 
f 519 547 602 
f 667 547 519 
f 718 667 519 
f 520 526 777 
f 794 526 520 
f 777 610 520 
f 816 794 520 
f 776 527 521 
f 521 527 803 
f 521 803 822 
f 782 528 522 
f 522 528 793 
f 522 616 782 
f 793 731 522 
f 523 529 778 
f 792 529 523 
f 778 658 523 
f 815 792 523 
f 600 557 524 
f 524 557 601 
f 719 600 524 
f 525 684 714 
f 717 684 525 
f 525 714 718 
f 726 717 525 
f 771 530 526 
f 526 530 777 
f 794 771 526 
f 527 530 771 
f 776 530 527 
f 527 771 803 
f 528 531 769 
f 782 531 528 
f 528 769 793 
f 769 531 529 
f 529 531 778 
f 792 769 529 
f 776 604 530 
f 530 604 777 
f 531 630 778 
f 782 630 531 
f 646 536 532 
f 532 536 674 
f 666 646 532 
f 672 537 533 
f 533 537 755 
f 755 665 533 
f 533 665 756 
f 534 538 614 
f 653 538 534 
f 664 603 534 
f 534 614 664 
f 535 539 673 
f 685 539 535 
f 535 602 663 
f 535 663 685 
f 536 540 816 
f 826 540 536 
f 536 646 826 
f 816 674 536 
f 822 541 537 
f 537 541 834 
f 834 755 537 
f 731 542 538 
f 538 542 823 
f 823 614 538 
f 538 653 731 
f 539 543 815 
f 825 543 539 
f 676 673 539 
f 815 676 539 
f 539 685 825 
f 540 548 794 
f 826 548 540 
f 540 794 816 
f 803 549 541 
f 541 549 834 
f 822 803 541 
f 793 550 542 
f 542 550 823 
f 542 731 793 
f 543 551 792 
f 825 551 543 
f 543 792 815 
f 544 559 646 
f 670 559 544 
f 544 601 670 
f 544 646 666 
f 545 560 754 
f 755 560 545 
f 545 598 669 
f 754 598 545 
f 545 665 755 
f 756 665 545 
f 614 561 546 
f 546 561 748 
f 668 600 546 
f 546 603 664 
f 664 614 546 
f 748 668 546 
f 648 562 547 
f 547 562 685 
f 663 602 547 
f 667 648 547 
f 685 663 547 
f 763 555 548 
f 548 555 771 
f 548 698 763 
f 826 698 548 
f 548 771 794 
f 549 555 763 
f 771 555 549 
f 763 696 549 
f 549 696 834 
f 803 771 549 
f 550 556 762 
f 769 556 550 
f 762 697 550 
f 550 697 823 
f 793 769 550 
f 762 556 551 
f 551 556 769 
f 551 699 762 
f 825 699 551 
f 551 769 792 
f 583 575 552 
f 552 575 706 
f 589 583 552 
f 716 589 552 
f 552 643 716 
f 724 643 552 
f 552 706 752 
f 752 724 552 
f 553 576 584 
f 701 576 553 
f 553 584 590 
f 553 590 643 
f 553 643 724 
f 753 701 553 
f 553 724 753 
f 586 578 554 
f 554 578 704 
f 592 586 554 
f 642 592 554 
f 753 642 554 
f 554 704 753 
f 557 563 595 
f 596 563 557 
f 557 595 670 
f 668 596 557 
f 557 600 668 
f 670 601 557 
f 598 564 558 
f 558 564 708 
f 669 598 558 
f 684 669 558 
f 714 684 558 
f 558 708 714 
f 681 571 559 
f 559 571 826 
f 826 646 559 
f 559 670 681 
f 560 572 754 
f 834 572 560 
f 560 755 834 
f 561 573 748 
f 823 573 561 
f 561 614 823 
f 648 574 562 
f 562 574 825 
f 825 685 562 
f 569 565 563 
f 563 565 595 
f 563 567 569 
f 596 567 563 
f 564 566 570 
f 598 566 564 
f 570 568 564 
f 564 568 733 
f 733 708 564 
f 565 569 752 
f 565 575 595 
f 706 575 565 
f 752 706 565 
f 720 570 566 
f 566 576 701 
f 754 576 566 
f 566 598 754 
f 566 701 720 
f 752 569 567 
f 567 577 599 
f 748 577 567 
f 567 596 748 
f 567 599 752 
f 568 570 753 
f 568 578 597 
f 704 578 568 
f 568 597 733 
f 753 704 568 
f 570 720 753 
f 583 579 571 
f 571 579 826 
f 715 583 571 
f 571 681 715 
f 584 576 572 
f 572 576 754 
f 572 580 584 
f 834 580 572 
f 585 577 573 
f 573 577 748 
f 573 581 585 
f 823 581 573 
f 586 582 574 
f 574 582 825 
f 687 586 574 
f 574 648 687 
f 575 583 715 
f 681 595 575 
f 715 681 575 
f 577 585 599 
f 578 586 687 
f 648 597 578 
f 687 648 578 
f 579 583 589 
f 589 587 579 
f 579 587 763 
f 763 698 579 
f 579 698 826 
f 590 584 580 
f 580 587 590 
f 763 587 580 
f 580 696 763 
f 834 696 580 
f 591 585 581 
f 581 588 591 
f 762 588 581 
f 581 697 762 
f 823 697 581 
f 582 586 592 
f 592 588 582 
f 582 588 762 
f 762 699 582 
f 582 699 825 
f 585 591 599 
f 587 589 593 
f 593 590 587 
f 594 591 588 
f 588 592 594 
f 716 593 589 
f 590 593 643 
f 591 594 599 
f 642 594 592 
f 716 643 593 
f 642 599 594 
f 681 670 595 
f 596 668 748 
f 597 648 667 
f 597 667 708 
f 597 708 733 
f 599 642 725 
f 599 725 752 
f 753 725 642 
f 714 708 667 
f 718 714 667 
f 669 684 717 
f 753 720 701 
f 752 725 724 
f 724 725 753 
