v -40 -40 0
v -40 -40 10
v -40 -30.037800000000001 10
v -40 -29.694343714428491 4.5995013336543984
v -40 -20 10
v -40 -19.978142094812078 20.563022410483299
v -40 -20 30
v -40 -15.422917543895201 29.98541514044577
v -40 -14.23871226258303 24.6823123394745
v -40 -10 21.019345140617421
v -40 -9.9993549999999995 10.00065
v -40 -9.9993549999999995 29.999359999999999
v -40 -5.1952900411585361 10.000001867207169
v -40 -0.00064468380000000001 10.00065
v -40 0.03666996824889087 14.23728140575122
v -40 0 20
v -40 4.6605900473302526 9.3989935602920855
v -40 5.0126039999999996 20
v -40 10 6.5565109999999999e-07
v -40 10 8.5956726371255403
v -40 10 20
v -34.965366315962292 -16.51715279287054 0
v -35.67110104744296 -0.00064468380000004544 10.00065
v -35.52096763203361 -40 10
v -31.475794152830289 -20.000425910906319 10.00042911442716
v -35.141129999999997 -20 30
v -35 -16.5 25
v -35 -16.299050000000001 24.25
v -35 -16.299040000000002 25.75
v -35 -15.75 23.700959999999998
v -35 -15.75 26.299029999999998
v -34.895753426250437 -15 23.5
v -34.985545087631067 -15.04129539535181 26.488934498979191
v 9.9999578131703135 13.78741889128948 11.998665770050939
v -35 -14.25 23.700959999999998
v -35 -14.33337483108423 26.321371140255511
v -35 -13.70097 24.25
v -35 -13.7330203011085 25.782060301108501
v -35 -13.543865 24.836295
v -35 -13.59117582982053 25.340259785768762
v -33.938932511240459 -20 23.110542424503649
v -34.969760000000001 -9.9993549999999995 29.999359999999999
v 19.861783900256931 40 4.6281390974434444
v -34.677419999999998 10 20
v -34.546950830830262 10 8.7588300225686559
v -34.213709999999999 0 20
v -33.715195265667752 -13.50351265841846 25.01309925329392
v -33.11774149495001 -15.7842319182324 29.999864054889699
v -33.450129360912477 -13.762473664128811 25.81151366412881
v -33.151823439797262 -15.810372374245929 23.761332374245931
v -32.807333766857667 -14.326076451651989 23.680576059099209
v -32.216846000667793 -15.07379904308444 23.51977489346196
v -32.855707185077051 -9.9721115285252253 10.000775437219721
v -32.393804801931978 -14.25 26.299029999999998
v -33.527794739630068 -16.299040000000002 25.75
v -32.554447415160141 -13.718565488540721 24.232403870481232
v -32.26557968832374 -15.74176433706395 26.301236830267101
v -32.417390069515001 -16.30872140793543 24.286095884425599
v -31.250800522002951 -15.091541265701981 26.47547063152097
v -31.22890350342448 -16.497141142087941 25.010669264645792
v -31.34121546554876 -13.5212809224862 24.920572813769379
v 19.838709999999999 35 10
v -30 -40 0
v -30 -40 10
v -30 -31.247479999999999 10
v -30 -32.11263079461731 2.5463220314616188e-07
v -30 -30.29858570788706 4.6531590906349347
v -30 -20.322579999999999 10
v -30 -20 0
v -30 -20 10.32258
v -29.999951776550741 -17.0688520153866 27.387407819843411
v -29.999909823682241 -15.25021992910712 21.580017236122409
v -29.999870238910979 -12.150579932452001 25.743573337616819
v -30 -10 0
v -30 -10 10.32258
v -30 -10 18.896170000000001
v -30.04323788902294 -3.3365610881469889 10.000051189016411
v -30 1.2071590000000001 6.5565109999999999e-07
v -30 -0.00064468380000000001 10.00065
v -30 0 15.363795273965939
v -30 0 20
v -30 3.744961 20
v -30 10 6.5565109999999999e-07
v -30 10 11.586439499999999
v -30 10 20
v 10 20 11.27851319652266
v -29.999359999999999 -20.000640000000001 6.5720351137256632
v -29.999359999999999 -20 29.999359999999999
v -29.999361654724211 -17.77762885966381 10.01938328796936
v -29.999409301702659 -16.486485170757781 24.949558195463961
v -30.049065829722789 -16.32791338318113 24.35772468190715
v -29.999359999999999 -16.299040000000002 25.75
v -29.999578530326751 -15.838271274575151 23.748487074693209
v -29.999359999999999 -15.75 26.299029999999998
v -29.999359999999999 -15 23.5
v -29.999359999999999 -15 26.5
v -29.999359999999999 -14.25 23.700959999999998
v -29.999359999999999 -14.25 26.299029999999998
v -29.999359999999999 -13.44810625621669 29.999359999999999
v -29.999359999999999 -13.70097 24.25
v -29.999359999999999 -13.70097 25.75001
v -29.999359999999999 -13.5 24.99999
v -29.999359999999999 -10 29.999359999999999
v -29.98230939727247 -9.9876810691087812 8.2086665122724405
v -29.677420000000001 -10 10
v -12.201992000000001 -20 6.5565109999999999e-07
v -24.602368792770189 -20.00000890551263 10.03530597346507
v -11.192414281001209 -20 4.8738598618778264
v -17.133230674622951 -10 10
v -18.06498855585539 -15.00873842845141 0
v -14.682457749999999 -10 1.5935860791003509e-07
v 30 35.169406503632523 19.182601953676869
v -0.00064468380000000001 -9.9993549999999995 6.5565109999999999e-07
v -0.00064468380000000001 -9.9993549999999995 10
v 0 -40 6.5565109999999999e-07
v 0 -40 10
v 0 -31.757291398665451 4.14285149050967e-07
v 0 -31.121469999999999 10
v 0 -20 0
v 0 -20 10
v 0 -4.5161290000000003 10
v 0 0 6.5565109999999999e-07
v 0 0 5.2094130782141903
v 0 0 10
v 5.7343013627785044 -22.053919313741851 10
v 5.0403209999999996 -40 10
v 5.2797390000000002 -40 6.5565109999999999e-07
v 5.122316706586572 0 6.5565109955145751e-07
v 5.5589750000000002 -33.971209999999999 0
v 9.9998465530585428 10.00031999049215 17.296498251541411
v 9.9994109613225763 14.51990290097466 39.999360000000003
v 9.999352 20 39.999360000000003
v 10 -39.972745102124442 6.5019671710864096e-07
v 10 -40 5.7510089999999998
v 9.9512281322097529 -40 10
v 10 -24.584423867571079 4.6862626731143084
v 10 -16.66655077296592 2.7602556493562849e-08
v 10 -16.567902681515779 10
v 10 0 6.5565109999999999e-07
v 10 0 10
v 10 10 6.5565109999999999e-07
v 10.047993763303021 10.000640000000001 39.999360000000003
v 9.9999876196156752 16.339023901112299 33.508609368081387
v 10 20 6.5565109999999999e-07
v 10 20 20.78369654812461
v 10 30 6.5565109963472423e-07
v -19.3214805687191 -10 5.8357390516370478
v 10 30 10
v 10 40 6.5565109999999999e-07
v 10 40 10
v 12.474807205514139 16.870522999747511 39.999848801366838
v 17.40549 20 0
v 26.893270000000008 40 3.990761741801369e-07
v 26.410027500000002 10 1.0015941440293671e-07
v 13.41431928068539 12.968642010626221 39.999724385746973
v 13.50001 15 25
v 13.514307383504599 14.94663874844511 32.656029180662372
v 13.522248095925169 15.083011842860079 39.069722113676747
v 13.496527387977009 15.043124533133019 39.999360000000003
v 20 40 10
v 13.710405548537819 15.704612644020621 39.999361821619686
v 13.700950000000001 15.749980000000001 25
v 13.697372489895219 15.736628733496859 35.879544974079359
v 13.70096 14.25001 25
v 13.72460056384371 14.226368474258431 31.034286307563111
v 13.71201575409297 14.23895384460924 38.996681353590617
v 13.64997471653427 14.34227155470372 39.999360000000003
v 20.654229679184319 29.9999993190889 9.9972438311051537
v 14.087158104739871 13.809276462227469 39.999372817403099
v 14.19355 16.24258 39.999360000000003
v 14.306271476451251 16.314118875490049 25.040407955852402
v 14.224189316010801 16.27322923144073 32.133278686140081
v 14.250019999999999 13.700950000000001 25
v 14.250019999999999 13.700950000000001 32.415009671005038
v 15.367069827085309 20.000648045856661 39.987750163868071
v 13.99099214035944 10.00016634637255 33.769515592268803
v 14.6875 10.000640000000001 39.999360000000003
v 15.104529211821539 14.95237112950015 25
v 14.793455157407861 13.55534426836269 39.999360000000003
v 14.829055 16.4542 39.999360000000003
v 15.01314603075291 13.50352208299128 25.04641427603131
v 15 13.5 28.39266975276038
v 15.049321852380929 13.51321535348657 34.499599297708173
v 15.09686866137223 13.52595583920013 39.112755891399708
v 15 16.50001 25
v 15.08006045024262 16.478557581635499 26.522575066788729
v 15.040723295914439 16.48909765855862 30.900656848448431
v 15.01645685447428 16.495600414847178 38.779279137070333
v 15.27792456818289 13.574469553582629 39.999360000000003
v 15.358361539336681 16.40397953869449 39.993438549582997
v 14.65841721159433 20 23.75920060155951
v -29.99968218774687 -24.782567740117891 6.3228908976418676
v 15.74999 16.299040000000002 25
v 15.70219928444148 16.31184636045661 28.571332403263881
v 15.74999 16.299040000000002 37.430192446538541
v 15.75 13.70096 25
v 15.724825214097359 13.69421449399572 29.86811590623827
v 15.828322006942249 13.77928200694225 38.889038866821792
v 15.80644 16.24258 39.999360000000003
v 15.86618229796394 13.74832246280276 39.999373867103621
v 16.353174725667589 15.672313701156121 39.999360000000003
v 16.118575599456278 14.069540161373039 39.988558821835838
v 16.311093772300961 14.29500003856243 33.725394691323693
v 16.289716352893581 15.715348749071801 29.117393201687559
v 16.262716921498541 15.73979738062615 25
v 16.226415851850859 15.822599844269959 38.747559607195832
v 16.30462328112932 14.27085627185615 25
v 16.299040000000002 14.250019999999999 26.976561625903742
v 16.318672670975989 14.32328190192797 39.11512505809165
v 16.370349999999998 14.51613 39.999360000000003
v 16.456790000000002 15.12039105907799 39.999360000000003
v 16.500019999999999 15 25
v 16.488176182710259 15.04419445530421 32.024107328519833
v 16.475630192416709 15.091012843638531 39.14800427600607
v 16.182620927536359 17.717430908904909 39.999966670757637
v 15.78626249990999 14.88743953109919 1.162093733370704e-07
v 16.917164414793682 13.03989091773353 39.99972838657456
v 20.11283056286187 29.99998504570129 0.052414592578349982
v 20 10 10
v 20 10.00015 24.424140000000001
v 20 10.000640000000001 39.999360000000003
v 20 13.590220839493149 21.250115755643009
v 20 17.295828457796429 32.383298656552398
v 20.03112462290872 20 9.9486668504992686
v 20 20 26.656377500000001
v 20 20.00065 39.999360000000003
v 20.000621345615961 15.514350637009921 39.983116642080901
v 27.551391214253261 10.03980999811615 10
v 24.63658110419977 10 4.3138820862517058
v 29.677420000000001 30 10
v 29.99935 29.99935 6.9136222296722742
v 29.945921172801359 33.240748124445517 10.00055135537222
v 30 20 0
v 30 20 10
v 30 24.335197197361339 10.000009674965399
v 30 30 0
v 30 30 10.32258
v 30 30 33.337825907968352
v 30 30 50
v 30 35.336764517797342 24.315950764228919
v 30 35.153674588994747 46.221650287069963
v 30 40 10
v 30 39.961201368980888 29.161163531642341
v 30 40 50
v 34.356031951835533 29.999350482187609 10.004994295199969
v 35.52350711202741 40 28.862448844381149
v 34.092739999999999 40 50
v 35.000918938692791 30 35.741210002391327
v 35.679430672430513 23.31214552929173 10
v 40 10 6.5565109999999999e-07
v 40 10 10
v 40 25.514110000000009 2.1513552204963871e-07
v 40 21.803170000000001 10
v 40 30 10
v 40 30 31.8422375
v 40 30 50
v 40 34.993699999999997 50
v 40 40 0
v 40 40 9.8651734999999992
v 40 40 35.049770000000002
v 40 40 50
v 4.5544080878230062 0 4.8977356286172347
v 20.01556231145436 15 9.9743334252496343
v -34.89860770916497 4.4758732562014121 20
v -33.536414726712323 -9.9998371347835526 16.43819566972973
v 10 30 4.6863509192541661
v -29.999879971857681 -13.57199252101689 16.256373478330818
v -30 -40 5
v -21.100995999999999 -20 3.2782555e-07
v 10 -9.5279762492550617 3.4070741347192342e-07
v 9.9999576253669034 10.00004237463309 9.4026335254133429
v -35.180408533781879 -4.2673497469439212 10.00014053519471
v 20.18472226299096 29.999852669343991 4.9329214825637733
v -34.947517628222137 -10.76865903927931 1.5407740781338671e-08
v 14.919354999999999 35 10
v 17.57828126389084 40 2.3853198757608311e-07
v 40 34.132269096171129 24.59786806770509
v 24.57781590724726 34.090317791865978 10.00030932402391
v 25 20 10
v -31.3770279607939 -14.45948481283958 0
v 10 -8.3303932500000002 10
v -24.382240866648921 -9.9998222921026887 5.2532116181241761
v -17.297655082316101 -15.18447181552629 10
v -5.7602544026600437 -14.80347452824082 9.3595461113429987e-09
v 40 15.38773439164356 5.4409093671939761
v 22.248752261280881 40 3.1945702631320879e-07
v -40.011827765102247 -18.186064829092839 1.1126261124255661e-07
v 10 -32.212953152751069 5.6668156832215004
v -34.953266220099351 -25.74682000571481 10
v 14.7687215940598 20 16.204287155955019
v -0.00031235364677526699 -25.276712624288692 4.1893693206055707
v 40 40 42.524884999999998
v 30 33.507567998886223 29.379702267862839
v 36.110860313801837 40 45.345828640133853
v -7.2701774247347544 -10 0.019496388664358651
v -30 6.094226229341154 5.1990050250270317
v -34.782535720332447 -5.5371893927824148e-05 15.35130222649428
v 20 10.000075000000001 17.212070000000001
v 30 36.136168392763601 34.975849880227479
v 19.40161891731659 10 5.0000001788274622
v -40 -3.5516486494005899 5.333105241957373
v 29.999693937997101 35.815571041595113 14.27680662885318
v 9.9999677878297266 10.00057282237718 35.233488217822163
v 9.9998392422003484 20 25.87581639835528
v 13.80211726128088 40 2.5000002838317141
v -29.999753309115849 -4.3440648625061833 4.0776447115652577
v 34.621093899349987 16.36086680402104 1.6840013195275449e-07
v 35.347380883661543 35.298912944573267 1.0916910810952249e-08
v 35.478010447714823 16.320362379295009 10
v 25.661524617907808 20.00017182873562 5.5140658178945614
v -35.724796842581028 -40 4.4878837571869514
v 34.586707757653578 40 5.0400483358923029
v 5.7789824633980382 -6.1496337571678508 10
v 5.6683951894679936 -6.0329587510396614 1.494110296160295e-07
v 10 34.943434986584563 4.9850046371261287
v 15.32827737227451 20 5.9603098165654478
v 14.90252962894224 10 4.6559782281286433
v 25.41914763301742 29.99967596711884 6.0509319619874153
v -40 -35.694703030971219 6.1157619812740709
v 14.894836624488789 34.762079409877359 2.1573832187728041e-07
v 15.097659323057471 30 5.071910089053441
v 30 40 16.926186235385192
v -34.851402452272417 -35.595616859094832 1.897905431451522e-08
v 24.758064999999998 30 10
v -6.878783302070504 -20.000002070237201 10
v -30 -20 14.58558961884491
v -40 -15.217422952031599 5.3527861807118011
v 35.086652464033207 40 15.11120460711353
v 33.205013749999999 10 3.779052572014683e-07
v 10 -20.906740621229499 7.2583241606986793
v 14.663946266953101 30 4.9303881173801753e-07
v -36.090908605941053 -6.0386584415265609 1.2767898712549401e-07
v 21.837004112364209 14.05745863103796 7.8268720290425351e-08
v -25.009892652137971 -14.20027532577115 0
v -17.706091785405849 -20.000000491183069 5.5298446397427536
v 0 -35.743473640645817 5.6266637109442579
v 20 20 33.78454171542883
v 14.932347687995779 10 9.3122727832933343
v -35.443383256210943 5.6158749583584981 2.7444887847552269e-07
v -40.006021832329232 -5.7093668215638074 4.1735477806759369e-07
v -30 -35.750955711689642 5.9651329300291911
v 9.9994592114381984 10.00053454612636 23.999814597556611
v 33.264795574257533 40 1.5357389105770081e-07
v 40 34.870414173915563 14.512086278643251
v 10 -4.6961538054941014 4.7193059812110203
v -40 -10.88772280621596 2.5983436846566121e-07
v -39.992275076801398 -25.221960446573021 0
v -40 -15.16283709633541 16.383234302376501
v -29.999591985501539 -9.3451823453316774 10.00041801449847
v -8.4380581731298125 -10 6.516756066645871
v -10.899538245996171 -13.494039028969761 10
v 20.953134614482359 20 3.6927054321112029
v 17.69636962972368 20 35.850818855335881
v 10 -11.474519141035749 5.1627127483885404
v -40 -20 25.535534999999999
v 9.9998148051408471 14.593461419800979 23.13840858461257
v 5.2747765234288533 -22.961742521698621 2.9312976947514221e-08
v 9.9998607451267389 16.34860993118664 28.483570357848521
v 13.445196503884571 20 29.05346951500772
v 34.336076153929852 10 5.7073931788383678
v 14.264403133413859 16.302899243190179 37.159445314409318
v 16.449515273016701 20 33.300163407617113
v 25.31158318818191 15.833262092051751 10.00018608056885
v -23.324094625000001 -10 10
v -30 -35.623739999999998 10
v 23.702745 20 0
v 5.3389120137172092 -13.13000050819269 0
v 40 36.054539849292013 44.858210065001543
v 40.0145284398439 33.559867672461777 9.5846285514410175e-08
v 14.750979400137 10 14.5589420380758
v 29.999709291217041 28.65797636051731 10.000296236340141
v 30.000308054683291 30.000308054683291 16.495093153156411
v 30 30 39.174844744739318
v 34.19650357688937 30 28.647165271375311
v 22.773523476991119 34.846456330981411 5.4492689482728438e-08
v 34.565900287646507 40 22.938068408477001
v 30 30 25.727183008731291
v 40 35.070550796177223 38.598798830491013
v 35.309514950025012 30 44.608223784950518
v 0 -35.560735000000001 10
v 40 40 17.494545223900651
v -40 -32.313750082858412 0
v 16.492389230883209 10 21.338881407950069
v -28.64058271758033 -20.00026945242627 10.000267689011229
v -5.4332282468364923 -20 6.5565109963472423e-07
v -22.72244341254186 -14.92462512459608 10
v -32.847980965565348 -15.01310490925726 26.49648841267825
v -31.17989809102879 -13.70097 25.75001
v 6.6684330107070409 -34.794017807874013 10
v 6.1098136351586732 -12.40278202557365 10
v -4.1244763858739866 -9.9997308968705028 4.8221725150326487
v -29.999668072885619 -10 24.654685339110149
v 33.837014030351298 10 10
v 40 16.319032935931968 10
v -12.753248952624229 -20.000000305748351 10
v -11.60583007696663 -9.9997960895482478 10
v -8.3474592354374479 -10 10
v 35.422169715436127 40 33.134536256896851
v 40 36.592639226648913 5.2233954996980847
v 40 35.819237721661089 30.25926492649619
v -4.9430111460160147 -14.570568969883549 10
v 10 15.26920727583796 5.9265524991177196
v -25.832346408281161 -20.00020441465491 3.916624709785359
v 10 -30.2069084988733 10
v 10 -24.189308955075429 10
v 10 -31.151099170755302 0
v -30 10 5.7932200778255494
v -35.002356291427873 -22.791810883089859 0
v 14.25 16.299040000000002 35.241604651817802
v -40 -22.510446423639038 4.8320170586664162
v -35.460292036396631 10 14.642726576052141
v 10 -23.710377056358499 0
v 14.250019999999999 13.700950000000001 35.069138336750079
v -11.08905165661238 -10 2.8361112455127779
v 13.69545268266705 14.27056176756054 33.856958278840352
v 13.700950000000001 15.749980000000001 32.157729896664641
v 13.52204002713648 15.08222945506499 30.890743067548581
v 13.50320427267855 14.988076626188651 28.1494654498062
v 9.999352 10.000640000000001 30.463144080003701
v 9.9996784844006967 20 30.53565454671056
v 29.999736201401181 26.64783507530483 3.9270751834400568
v 35.477744998525147 22.48060299278718 7.7058391442142559e-08
v 13.672690642352769 15.644511810727231 29.394262974211031
v -40 6.1373699075868284 13.8879100989635
v -34.610886362004827 -9.9997260324809005 23.42393344022296
v 12.953093147560921 20 34.802367385111012
v -40 -9.1300651811600169 5.0785618711854994
v 13.700950000000001 15.749980000000001 38.057475468181522
v 14.25 16.299040000000002 38.634143352272332
v 14.3178814338421 13.682767711707941 39.122557995102021
v 14.26103393440167 13.697999010249729 37.715934841707679
v 13.69939101838156 14.255865159815301 27.120981985270301
v 15.099921698736241 16.473235640818029 36.132310585932622
v -36.390020131513417 -9.9995826944303552 13.0088181984593
v 14.30973424374203 10.00032134150379 27.05703184410601
v 14.25 16.299040000000002 28.35183295691893
v 14.87886344677327 16.467549138362791 33.162247510009813
v 32.797772906202709 40 42.127887755809162
v 15.75 13.70096 35.639912587757877
v 20.0003512967067 10.020363942787469 31.48503156834165
v 15.75 13.70096 27.78423551747585
v 20 20 18.45084220154396
v 16.316650250535321 14.31573497323126 38.138527097834618
v 16.21969108632344 15.829321803772491 34.676077009494591
v 16.291700681750768 14.246979847583949 30.83493003685053
v 16.303580328329371 14.26696275768963 35.983779038042421
v 16.305462646272598 15.720604948945491 31.076281451903281
v 16.489926464416321 15.03766497020119 29.653867159332581
v 16.500019999999999 15 37.88404769857857
v 18.80323783463318 10 3.5765492519333199e-07
v 30 40 22.747045137000349
v 30 40 39.174844744739318
v 40 18.124905056790471 3.9633011393363909e-07
v 40 40 25.615052518580072
v 40 30 39.836607416553761
v -40 6.5021791690184214 5.1873183996512999
v 40 30 17.07673016347864
v -40 -0.85778722136290386 4.9094867828152242e-07
v -20.88482587807373 -10 2.3273404010365409e-08
v -35.220385686464347 10 3.9114132793190168
v -30 -4.3964204999999996 3.2782555e-07
v 25.25833975006358 40 6.298589531572377
v 34.967983620134959 33.406962795829457 50
v 6.1716047897929931 -40 4.0927653344754518
v 13.69623294917877 14.26765003122601 35.515509367919194
v 0 -25.560735000000001 10
v 13.677360561641921 14.33807889864989 29.43430279119266
v -40 1.8300647445291709 4.5264898525227277
v -40 -20 15.0311285123527
v 10 -35.596711886669517 10
v 15.75002230568062 13.70098230568062 33.871596894475772
v 35.085474150535163 28.68971732177118 0
v 40 27.686764161231999 4.4120118927773779
v 29.99977089208291 22.869928660116361 4.1416866958981116
v 16.47270640973213 15.101923211643539 33.948656988595623
v 15.779654534486101 16.269370210503361 38.850486543958503
v 16.325196788090111 15.65234343494407 37.600700294231167
v 16.27054437120298 14.22632701732136 28.790652252963721
v 16.47651110047849 15.087725652978561 36.401680024626273
v 16.491372661142019 14.96773164787451 27.87875575948156
v -30 -25.785029999999999 10
v 40 29.999712008836731 22.165031051052139
v 0 -25.457409999999999 1.94646425422107e-07
v -40 4.5711063893185484 5.7329988914076121e-07
v -29.999536471143792 -22.511112976798909 3.7285215016817461
v 15.02072437344062 13.50555288805421 36.933984941297503
v 16.314696910567211 15.691521604062521 32.736959727444088
v -34.417702581435528 -20 16.449011644479508
v 15.76797378479921 16.294220848834431 33.548748553973567
v 30 30 44.432875638108911
v 30 40 45.817755035332269
v -36.675687744151311 -35.254395053325077 10
v 40 22.879013900308159 4.8484401056891926
v 34.812368028740451 40 38.117601072274191
v 10 15.094457000632829 18.55850389804591
v 5.0535000611257104 -28.864686664082509 1.013904706512298e-07
v 40 35.907815957005887 20.607921263636179
v 13.50129399395553 14.99520701788871 34.642124555546481
v 27.991119878630268 14.62471208568703 3.8114029117715172e-08
v 14.23803760585178 13.71293199906779 29.50620287064913
v 35.206937940131041 30 23.175969852564521
v 14.98731311656176 13.50339908193153 31.896620448740009
v 40 32.547145781172588 5.2522294062394419
v 10 20 5.0424522776622966
v 15.800244944670119 13.751204944670119 37.338236239832483
v 13.70096 14.25001 37.732737151508033
v -40 -9.9996775000000007 25.74846021366481
v -30 4.9445871436338029 15.30472725604384
v -33.002794806501832 -34.720964324384298 10
v -30 -25.240044999999999 1.5366820000000001e-07
v 29.37698789807785 35.059679368443767 1.297241728519314e-09
v 29.64657989627365 40 4.8183252614044303
v -36.359447402192671 -7.5359670903453502 10.00026703687551
v 36.960111260100057 26.570461801388369 10.00013401256246
v -35.810418956931002 -20.000216957505021 10.0002186863147
v 17.087853106741239 20.000081250000001 30.80762595336406
v 32.665944577239593 26.959035468516049 10.00032891718052
v -29.999610872983581 -7.0514913617828636 7.6854247341996693
v -29.999827020308889 -21.218975861201759 9.1294888940323524
v 15.430603529962671 20 29.88330964995944
v 15.8142476081374 20 25.999740263083769
v -29.999714748405591 -5.9546316357323983 8.2253206033349304
v -29.999359999999999 -20.000640000000001 3.9697820719092771
v 15.202389309751259 10.00017437932388 30.79505277726178
v 32.176561409722083 23.136099451166871 10.00000400334941
v 29.999847682729559 25.653536739863011 6.7000876236022746
v 30 23.629471350112581 8.1744095221336934
v -36.427853592538533 -9.9857332642626133 10.00071271860986
v 20 13.94754597465997 23.9690261263952
v -28.209489668349931 -20.000452901669529 5.7217242980827034
v -34.220183982162673 -6.8458589311661617 10.00009978038112
v -29.086834414641199 -17.211173682974419 10.009858600860101
v 9.9997920437615129 13.722800695897581 33.696917565276173
v 32.022525317587373 25.359341884314301 10.000153867701609
v 20.00015834942981 16.89653500690217 34.797441641068417
v 9.999352 17.486135000000001 39.999360000000003
v 30 22.959922382331669 10.000006605731031
v -34.566575342439933 -9.9858377078347864 11.38056128080375
v -34.044628579630533 -8.6312646354098916 10.0004373139839
v 20.000012615716351 12.366502339122681 29.014368246089209
v -33.643106554880653 -20.00032143420567 10.00032390037093
v 9.9994615179504933 14.12766788759023 37.856058372948453
v 9.999769932862641 13.243317400925671 30.143187612071412
v -29.99952 -9.9995162499999992 6.0786292500000014
v -29.820497730350962 -9.255539494295272 9.3774048912021062
v 15.7544859461998 16.297835212208611 36.405204181367907
v -30.757171637637459 -21.01097959505584 10
v -21.945330403092509 -20.000007127646729 10.024205252686469
v 12.921370697880381 10.00008453417653 20.522906975635099
v 29.13524942061148 29.999804446073099 9.2084434334508458
v -31.58416180148593 -8.8251742755827784 10.066999606782449
v 18.740365144286361 15.96500925181426 39.999512082516887
v -29.999425407086829 -17.99025910645614 10.95131899245802
v -29.99972469160797 -20 24.358862943720538
v 28.04685442333675 29.999495253685911 4.2736556332831537
v 28.435229190844499 29.999602990767698 8.3929994667264172
v -30.713926796269259 -9.2852229403685911 10.20664278761206
v -29.99953751074478 -10.038277607504821 27.077287620725301
v 29.999704148008409 36.491458096743209 10.000296300422489
v -29.999575159244269 -18.61482663034931 11.86081636877042
v 29.99935 29.99935 4.309439047077201
v -29.950605856015951 -8.942001510133359 8.7039693133901821
v 34.61774543749452 29.999531239859071 12.54786141356607
v -28.062496879490901 -9.9995161290091445 6.6356996544516136
v -36.909500599886186 -13.0128889456181 29.999727413694981
v 20.00061861598925 12.64114444704121 37.230168349127773
v -28.470829779836979 -9.9995816940472508 8.7709191818350671
v 27.934297677602281 34.037363061173032 10.0005184364309
v -37.077652546833328 -9.9999244533655283 22.636440682564881
v -30.98830091377215 -20.000017958210709 11.30395500123835
v -29.999480068351069 -21.708728610231049 5.8286553677017503
v -29.88508540543496 -5.8580356575266581 10.00000643764044
v -29.999995934726009 -19.986745364720811 19.119709426468731
v 20.000358194448509 13.161610722076009 34.145705903097117
v 12.90556619677554 10.000640000000001 37.978313534778813
v -31.642129186944011 -14.751640508603529 29.999597620724462
v 15.66465211950279 20 11.7850873883456
v 20.000176185139889 15.411402971768091 33.646861304400197
v 14.56822296546162 20.000042684080981 36.244535928820483
v 29.999489611300579 34.38724963121706 11.80432285940824
v -21.740892795011931 -20.000005147075921 7.5488284318476229
v -32.651597363904372 -6.788196420385761 10.00004459369644
v -37.33805840629865 -20 26.44943777538295
v -29.982552314971411 -14.84272333627867 10.00062670808866
v -28.174307174558191 -16.644718506285031 10.00033391375084
v -30.713926796269259 -9.9930278821313063 10.771460014679469
v -31.94408646713876 -20 25.051428759921809
v 13.88042022184 20 26.658690599552049
v 29.999572476562161 28.045704585233661 6.1555487645524849
v 17.728799723198801 20 25.069630354801578
v -40 -14.30257398180912 27.777035871591838
v -29.999745345484001 -5.1095140043732723 7.2717221201566069
v -30 -22.38664801156159 10
v -29.999604394519181 -14.11354494831412 12.767463263608819
v -30 -20 12.16878240195941
v -25.814615917607458 -20.000204058246059 7.4798386802920342
v -40 -12.15560464676394 22.797289621756541
v 9.9995684667617439 16.346634119317699 38.24766298073154
v -30 -20 11.2456812009797
v 17.294139094834041 15.59128491316239 39.999360000000003
v 17.017442777520131 10.027145245216939 39.99936717027164
v 20.000345055522001 12.779623865878159 39.957738744102848
v -31.738495214798 -9.9996405696303636 13.92872324722064
v -30 -17.167142291909961 19.791826778320921
v 14.128364887066351 20 31.703164340536031
v -23.696855935977741 -17.785319950545251 10
v -29.9998740904879 -15.33229728284237 18.581833565424219
v -31.60343118577007 -7.4454304656558099 10.000068797153521
v -34.811045451798464 -14.47006879785271 29.999824999238101
v 20 20 22.553609850771981
v -35.868273805200531 -9.9996357055606389 26.18553932245344
v 40 25.955191141128719 10
v 9.9998236704205183 16.384363799444259 25.501028423134191
v 30 40 34.701898158961491
v 10 -35.955054675632297 3.2103812526883209
v 15.538757344586299 20 20.48639547644153
v 31.87964355981017 27.54909337549358 10.005615622029801
v 17.117164814501439 20 23.035789621450981
v 4.5613492923912622 -18.221416382956981 0
v 24.84816 30 1.587905e-07
v -29.99525929998628 -11.74814650651297 10.000437008547079
v -40 10 13.983218493123321
v 16.629565991365372 20.00025801588502 37.670528098176767
v -14.71351128700393 -10 5.0594663533884683
v -23.749498770166301 -20.000007754475799 8.7228527811068197
v 20 14.683935696171259 26.683993125073609
v 5 -30.038183470377081 10
v 30.864701744006862 25.233843713484099 10.00010846641365
v -34.21225869857205 -0.45491254557354038 2.1135354129570259e-07
v 2.8423644146766822 -36.292061971628222 10
v -29.999680000000001 -9.9996775000000007 4.0524195000000001
v 9.9999345414616574 15.357803160109111 30.959798126972501
v -19.042069160498851 -20.00000575602213 10
v 30.664529993502089 14.563799327558179 10
v 12.093721957724791 10.000350059603409 32.327580436781517
v 20.00019307183652 10.00051307183652 35.95757292247724
v 40 30 44.918303708276881
v -25.74685142819234 -16.987288097458549 10.000018099272181
v 27.2177425 30 10
v -29.999966227052141 -2.9516811994901242 8.0471799897065868
v -26.818896019953169 -19.625026917016971 10.109841516651279
v -32.611336654985926 -0.00032210125069994533 12.62703430482291
v 29.86613033389574 27.903043046056681 9.4593229944336183
v -29.999992392217219 -17.56212167352469 25.658512867278031
v -32.971986831428033 -9.9996495994447034 24.907545876733451
v -40 -10 15.401669267135199
v -29.999871117510502 -17.01497869572778 16.532325861655359
v -30 3.896146500786609 10.242259772533821
v 12.424164965971769 15.494513376285759 39.999423873306789
v 29.919109942873689 27.926663270790449 8.6849957971573808
v -32.499078031685613 -20 20.557111725580079
v 27.22956786705808 36.848719145318903 10.000278942829199
v -29.999552312254231 -12.209739907861699 12.55711020573831
v -32.879209193880598 -16.4995551963626 25.001660154022868
v -29.999482430948589 -13.391474995909929 11.386702246836251
v -30 0.61393942064096629 6.1173219729349144
v -35.400244033663412 -31.327323167361499 10
v -34.315768067697839 -9.9993549999999995 10.00065
v -40 -17.270387566233978 23.45325494844565
v -35.583462859650787 -20.000323960099319 13.38906215442311
v -29.99983875168726 -18.961551654309041 24.912014392229871
v -40 -25.174160821308899 10
v -35.1307508635633 -29.731766706358801 2.4208667686452949e-08
v 10 -17.069367374999999 5.0000001280568487
v -26.500757312499999 -10 10
v -31.89384293479462 -3.3055472666243531 10.000116209412001
v -33.620809501358004 -9.9996200247334954 13.51043409084998
v -4.471502798404414e-05 -30.868851528692758 4.9648870614981613
v 20 20 14.55193454622342
v 12.353517489412139 20.0002983066829 37.450906352918111
v 40 34.487228515407907 8.8224514492802797
v 34.683729634748303 40 9.8522838413623255
v -40 -15.118124910910421 11.19420933043096
v 0.59895107085171517 -14.89858248312505 1.742381222454551e-08
v 0.29917202720413311 -14.903170821598369 10
v -35 10 6.5565109999999999e-07
v 35 30 50
v 15.62218732795484 40 10
v 30 20 5
v 30 34.725579393001063 39.49971219807319
v 20.00008998688272 14.115706102535089 31.40087605811426
v 30 25 0
v 10 35 10
v 10 35 6.5565109999999999e-07
v 10 15 6.5565109999999999e-07
v 25 40 10
v -35 -40 0
v -36.865918792376291 -10 18.858455202712239
v 30 35 50
v 5 0 10
v 0 -20 5
v -40 -40 5
v 0 -40 5.0000003278255498
v -0.00064468380000000001 -9.9993549999999995 5.0000003278255498
v 10 40 5.0000003278255498
v 10 0 5.0000003278255498
v 40 10 5.0000003278255498
v 0 -5.2872956392763459 0.021115537500160361
v -39.959638498590557 -35.059595273224282 10
v -11.75089841175636 -13.835724105886561 6.2149209546220313e-08
v 29.934914834818429 27.227166865194182 9.2199872069025606
v -29.9998589637854 -20 22.282144409427051
v 32.773529831775612 29.98603592726511 10.08811850337805
v 40 40 4.9325867499999996
v 16.938727007358541 10.00019566934918 26.599790940747909
v 14.919354999999999 30 10
v -32.248042027340553 -8.136456310286956 10.000243351155399
v 9.9996815159157784 10.000535712784339 27.49380773933774
v -34.564463918154338 -20 26.171506562160701
v 29.85911482349508 28.719468671800058 9.1266327008290666
v -34.523126296445199 -17.277230488182578 30
v 30.553967975555 28.074998290510699 10.1588736467045
v 12.45798988370068 20.00034609294385 39.999360000000003
v 29.843916308465509 29.999663831887361 8.6392700916485943
v -34.26763733836988 -9.9998867331168917 20.59015414554619
v 32.892041769419222 29.999618349158329 11.520899094180059
v -29.999463544625559 -8.5870223747147385 7.6898262214122646
v 30.531667888662788 29.369920695978561 10.236617031738531
v 34.426956589731617 28.271379708460579 10.000446851231811
v 16.632262544487471 10.000143613730669 32.324154655548703
v 16.398976359404539 15.377050538767589 38.342937676793483
v 29.93176057653335 26.625779940171959 9.5330711664393029
v -26.988669568691041 -13.46229416230946 10.000229759724119
v -31.15333730544668 -16.251944496355669 25.797095503644329
v 32.345753568281118 28.313696028929659 10.007224495395389
v -35.098776172032821 -20 20.75258535894233
v 29.994324870656019 25.344450475913028 9.4638104143309718
v -21.710809644590679 -20.00000055493954 4.875297293283035
v -32.498887873641117 -13.51182128000139 24.955874769324542
v 29.99987888410211 31.984232228171159 12.32173695948957
v 31.014034023294741 29.999887267391259 11.045678131150851
v -29.990997432452701 -13.15226358560035 10.00059707907733
v 19.965024289787671 10.00006161336411 27.792149089865159
v -31.657089346659959 -9.9996279755138051 11.945203835894089
v -29.999910359424501 -11.506693828770381 23.713048681683919
v -40 -17.36773191858142 26.886618108712771
v -37.05359626221388 -20 18.86486806142743
v -29.999726645481971 -12.192365602041949 27.968493488825189
v -37.088312060262332 -20 22.823836110420679
v 29.757977958799462 29.35358699818083 9.5228605919990663
v 40 29.999856004418369 27.003634275526071
v -27.19319954750987 -9.9999109730883688 2.434625071115244
v -40 -14.501359995259561 20.579938115849949
v -29.999822335785051 -5.1954010358043128 9.1698766350614278
v -32.570245 -20 29.999680000000001
v -31.662772994949201 -15.777221694681421 23.720191673358681
v 32.067532171439737 29.999886698316661 13.041148188360131
v -30.83401933643319 -8.1841872222677949 10.1084375262236
v -30 -10 11.381242310749091
v -27.946773030715349 -18.880124801122719 10.040548505375829
v -29.999468780891149 -16.755978513017769 11.232168666855779
v -29.278218361961031 -19.47518302511714 10.20320592450312
v 37.623914114587343 29.999717520097551 13.311842108381351
v 15.6758137549963 11.235444934166241 39.999552493468457
v -32.061498811549967 -5.1838814667417488 10.000004463037531
v -31.9766018275443 -20.00003591642141 12.285330002476689
v 30.65109339187093 26.383142022106249 10.05101578054939
v 16.762660395413601 10.000064783167799 29.167102537348018
v -30 -10 12.65323603845925
v 13.504097095181979 15.01525552408679 26.48335447762366
v -29.999846691968671 -20.245461269363801 9.2284854768086557
v -27.797714470696391 -20.000222939533732 10.000219699518929
v 34.0009233905595 25.95023999007698 10.000268310069201
v 18.72137859476388 14.151994432350669 39.999608349974551
v -29.999871895102871 -17.84408056145184 23.786057411120449
v -28.458915375819359 -11.357526460270799 10.000335376446349
v -29.826544885183768 -9.9997012314377098 9.1221480197249161
v 29.999831561840072 25.89826945879712 9.0372834477038673
v -29.99975111707376 -5.9569917529126553 9.047744953357487
v -29.334816657651992 -20.234966080639602 9.4775985013202853
v -28.002304656937039 -20.160687326136131 9.4439638914763453
v -31.57628047011071 -21.618019488234481 10
v -30.71492279847563 -20.000383922935288 10.000385793504661
v 9.9997055330823468 15.09472180575411 36.067272127239981
v -29.999751558442849 -15.83707361748076 28.430954302875119
v 16.79740947079657 20 28.131528075104349
v -28.502338159719571 -10 10
v -29.999589791716112 -20 26.445290013241522
v -37.332446794403303 -17.717953725319759 30
v -29.999359999999999 -16.43078798942545 10.00065
v 14.250019999999999 13.700950000000001 26.883490506616251
v -32.062620215541287 -20 22.83350794000367
v -30 -17.46738759042367 21.937484413235001
v -32.718398139066068 -23.251644228488122 10
v -31.257923527607971 -6.5891058486316183 10.000001527239959
v 15.101235607516671 16.472883678526632 28.959691306889692
v 30.722400406624189 29.9566303393364 10.25327973043092
v 31.389308039629451 26.682166010742751 10.000265295115319
v 13.945475051643641 10.00037886822243 36.155826188891922
v -29.999642871536761 -8.6244270561479563 10.00036712846323
v -32.488121847618302 -9.9996770587944148 27.19065440498099
v 29.99949802937881 28.729791482332779 7.6833480874449869
v -27.09525663475122 -20.00018417505785 10.00017970442476
v 30.03345013033832 26.67782639179822 10.125322422448949
v 31.040287263555729 28.7668135924872 10.15436065084099
v 13.70958913998035 15.7586194700839 27.177926037905259
v -36.345499110243743 -15.786510568939381 30
v 9.9996158111553708 13.25627904435218 27.209723387747761
v -27.63702781449437 -20.000394144601561 7.5693770180142748
v 20 16.35142854900667 29.87713529179398
v 29.798842721547931 27.957785005408859 9.9831595956457129
v 9.9995152422003493 20 35.267507273355278
v -30.71983090871796 -9.9998383945171678 10.24192007273135
v 13.830568708385229 11.29742382133179 39.999729572429217
v 29.919209645608522 27.949198180258659 10.000150618170069
v -28.70246775584236 -20.173048082857949 9.1948085000000006
v -29.999534874170141 -7.4846777128236557 6.2069487758966666
v 40 40 30.332411259290041
v 30.671829773085101 27.170761829098009 10.095132111985579
v 20.000317195117152 17.410387298734172 37.454239553906419
v -29.99976947485731 -10.947692463558109 11.55979957381426
v -30.093301422078419 -9.2930297599560276 10.27320607784659
v -30.08424961691351 -7.8814229046213136 10.203786042553929
v -32.496289037001652 -9.9997965853153428 22.327799386550261
v -29.999540761278059 -10.07072776917791 10.000469238721941
v 20.000554082329991 14.711302925948351 38.171166190404342
v 15.75 13.70096 31.590100747422792
v -29.885966051788781 -7.7180231727113204 9.4458059377799248
v -29.86221388755007 -6.5881158729305396 9.9191583995368546
v -29.999684273901568 -6.6207978736264366 8.8340605397910004
v 16.299029999999998 15.749980000000001 27.002593251363649
v -26.918764423675729 -20.00000508370826 10.158589738952211
v 20 20.000162499999998 29.992123124999999
v -29.942382651898718 -6.2883090637738279 9.462809854646995
v -29.999654040617781 -22.115371722403509 8.2589777880647048
v -29.711834946473239 -9.3135809941876744 10.000001066865471
v -29.780664839419721 -7.9407429825630231 10.000003200596421
v 29.760668154232761 29.99983191594368 9.3196350458242971
v -35 -14.82404194977426 25.17798375967023
v -30.48725879917405 -6.8745928229198263 10.09313984024784
v 36.334862122194181 29.99935 10.00065
v -29.321047119557441 -20.283308128633951 9.9686073853815671
v -29.99956889367304 -13.06656651561841 22.393018505896851
v 30.038641699162959 29.325735106950169 10.279600925833901
v -29.984880343102589 -7.3949415230794919 8.9588342629307505
v 28.040578999636519 31.851091578912978 10.00031493014801
v -27.2093484014487 -18.500091278422069 10.00032326094161
v 12.408586133467759 14.33557735320541 39.999398650455333
v -32.702544131268183 -12.988524594985931 29.999492448601099
v -29.815079785892959 -7.2543239767506984 10.0000042674619
v -30 -7.1687802329491426 10.180635713228529
v 29.999560847322829 31.213461328408879 10.025137037795419
v 29.718197721547941 29.337575005408858 9.9831570956457121
v 29.9997528843063 26.562481712740389 8.6350421928352752
v -29.29731708085065 -20.00030569369526 10.0003050807967
v 30.022300086892219 25.945497594532149 10.083551614965961
v -4.6674039715624076 -9.9998252805147274 10
v 30.003168610630571 30 21.42628285353755
v -30.468236369234859 -7.5406364091085489 10.129372197639251
v -29.999695428799161 -7.8800003252813333 10.000314571200841
v -29.999623333609041 -16.015894849813851 12.98187447549741
v 35.144996653338289 29.999733320367302 16.377127916904939
v 13.711190250409739 15.760220635671219 34.778872178626457
v -30.593724510149361 -6.3182435643549297 10.04935195907427
v -29.84888880470886 -8.3156362984965746 9.4876915764643535
v 16.893721477904581 10.000382123827411 34.962426684530627
v -29.999840854142079 -10 21.657149215934801
v 17.474302586980201 14.7099930250355 39.999471093077752
v -29.99936604687484 -14.21181483228812 27.828844572345091
v 15.00631553650075 13.5016920548552 26.503965489718599
v 30 30 13.07623566591289
v 15.74999 16.299040000000002 35.250062828719329
v -29.999739139755849 -7.2608736221259562 10.00027086024415
v 29.999683968148471 27.146152545219241 8.324270410316629
v 30.060941786055182 28.030812701482319 10.20185754079986
v -27.60882201633892 -20.000003945187238 10.19531615014529
v -27.44825851013097 -20.180813594977309 9.9403562389453182
v 30 25.3022130639431 10.048015549619169
v -28.078659521491591 -20.218929314794799 9.9860344992245622
v 16.497494732841432 15.009423270120649 26.43286653039706
v 13.65408192390324 10.000220229671889 29.58303433381305
v 14.92644849560617 12.410041026589109 39.999360000000003
v -31.427853592538529 -9.9860557642626127 10.161677718609861
v -29.99953385127586 -14.443905777786989 22.768094622281211
v -29.999793285881939 -13.26688184277929 19.850332097269732
v -30 -5.3674006164745709 10.09032285661427
v 14.249642052268831 16.29868205226883 30.421154626531099
v 29.871292296291809 26.6829554752251 10.000006010053211
v 13.69549260278812 15.7296129954479 33.44101932896799
v 35.632417141134582 30 40.297900071317521
v 16.288783136457031 14.2397631636674 32.000108699934479
v -29.398597980886091 -20.00000099224884 10.29057203706884
v -29.917095410783091 -6.9867201644473012 9.4783986751959439
v -30.048986257829039 -16.937046076447249 29.999368442890979
v 16.487825096208351 15.04550642181926 38.548421723437073
v -29.99964031373781 -12.61179776624488 24.093527530822481
v -30.973150277257261 -5.145234466751103 10.00000534572728
v -29.999783235483271 -6.6362969849327786 10.00022676451673
v 14.93983517937829 13.516119416221059 30.41532049127861
v 31.490634718766589 29.999722304869849 10.19012787883567
v 14.875976038686231 10.00018562006297 24.340080879297179
v -30 -8.5843901164745713 10.251607856614269
v -28.57181106509724 -18.14260893725266 10.00047760204283
v -26.4890419571922 -20.036439423083021 9.0066204695254921
v 14.250019999999999 13.700950000000001 33.653519168375041
v -34.014962441981403 -16.492112880078309 25.029437335412229
v 14.25 16.299040000000002 26.757152814504671
v -25.539080210903322 -20.046127831205691 10.03903938272453
v 14.978604274299251 16.480425035151921 34.806531942824257
v 11.4186566245798 15.527355094945349 39.999485629590048
v 13.519808672243229 14.9260968007804 29.526775861100521
v -29.960206023754569 -8.2225462873043682 8.8598133265325867
v -26.028970023567432 -19.2500498888467 10.024366883157279
v -34.008362755435847 -16.303046892249309 24.264917306937729
v 13.700950000000001 15.749980000000001 30.94711183438271
v 15.80605426352496 16.242978130235489 26.58216635113742
v -33.885051348633048 -15.79168466458245 26.257346852326741
v -33.897901588091869 -15.017978519261989 26.495182481689511
v 29.914118475710399 26.00873071648077 9.9720567595357661
v 29.764763937784672 28.665369712143299 9.9236731504491154
v -26.228706831012541 -20.000006222229281 10.121863327759121
v 13.50255317518547 14.99050665844856 36.785606020528853
v -29.999693383937331 -20.168342538727611 8.4569709536173114
v 13.75732373684836 15.80635589090196 26.026530556140219
v -29.74624989294648 -8.6271619883753488 10.00000213373095
v -28.73576930409558 -20.004628653734269 7.4919886419720916
v 29.838709999999999 27.24042 10.000005
v 30.044600173784431 27.410155189064291 10.167093229931931
v 29.999964547934059 27.24038454793406 10.0001992851943
v 15.75 13.70096 26.36736595695913
v 14.25 16.299040000000002 33.613790014202984
v 14.33919233706623 13.67705577247318 31.060570179997661
v -31.350484999999999 -13.70097 24.25
v -25.448646653772009 -20.000166906999439 9.1527563698120424
v 16.342673539390141 10.000573669054781 37.705800918097971
v 16.320095844117159 14.328592598097661 37.110850815271533
v -33.597803197113123 -15.109509830518 23.52934421230902
v 15.74999 16.299040000000002 31.083498492407831
v -29.999490823511032 -10.77805168537904 10.00051917648897
v 15.7589818923996 16.29663042441722 32.24031786539723
v 16.25940555055449 15.78960647090843 36.319532049491599
v -31.323725236281749 -14.28186540021558 23.692422209432841
v -28.69894115605975 -20.244586358896729 9.9124483989345933
v 30.077283398325921 28.651470213900339 10.23662185166779
v 30 30 11.61978941837323
v -26.126923578685449 -20.092247332493621 10.024205252686469
v -29.865708028374058 -20.000337059815831 10.00033744266713
v 13.71205904076904 14.23891055636196 36.607162088817489
v 14.565456987190929 17.613933064031169 39.999971067450232
v 14.329875363096081 13.67955416183662 36.390844299897708
v -33.943194833254218 -14.25903084493544 26.301449907431351
v 14.946097287129501 16.48556524529689 37.389248596307347
v -31.255979156521668 -14.33634728380213 26.32216841339579
v 30 37.41260154199864 42.743543433090032
v 13.511280046729791 14.95793038422298 35.772892358590092
v 28.43740423641151 30 10
v 13.74376128884335 14.207207157570849 32.357905256501468
v 15.04813256251825 13.51289572213464 33.153687091498753
v -33.824170703854499 -14.230716165410049 23.72024383458994
v -28.61975732110545 -19.958104572036628 10.24265718910333
v 20 16.912316130963461 23.45194299345733
v 16.258998073387069 14.209975326650429 34.903622502257171
v 13.687018695471849 15.697986268184369 28.249140658978941
v 14.18157378501413 13.76939395819484 28.190923954450319
v 14.95678664881795 13.511579045408521 38.193395847710512
v 15.824894147589321 16.22413868475385 29.944660605867782
v 29.99961846532182 29.963035483868811 10.0003856649139
v -33.618119552534758 -13.679266343183381 24.33099580864274
v -29.942542702717478 -4.7120283287633304 10.00000821882022
v 15.067245311308749 16.481991459124082 27.59575267405949
v 14.959793371343849 16.478323398460709 32.03145217922912
v -31.128612041081951 -15.01665754984824 23.504463489766518
v -31.186355552436321 -15.817912143485721 26.23112033036476
v -31.07436723743745 -16.31167312987586 24.29711237910038
v 16.494098091355131 15.0220972276521 30.91792998641991
v 14.910886297409039 13.523878074266319 35.776465358924469
v 9.9997488814532858 17.89757152743756 36.992380291720991
v 13.780115812044921 15.829148790442661 37.027751536032547
v 13.678347305090229 14.334396547933579 28.307107416736429
v 14.25 16.299040000000002 29.49633523857597
v -16.651494 -20 4.9173832499999999e-07
v 16.492320765020271 15.02873041400402 35.099964487672423
v 15.772346198223049 13.723307149327461 28.798862309545321
v 17.20139132642937 16.556468762141691 39.999632181833832
v 13.50001 15 37.996474868988408
v -29.999682470147651 -13.02581554163647 26.580734872886701
v 10 -4.3694870624999993 5.5576674930412487e-07
v -29.99969463370752 -19.004367517411058 10.1689759835338
v 16.286130997566129 14.295702634255351 29.750605040023981
v -32.301218951272617 -13.68855024822674 25.70365955143544
v 16.500019999999999 15 33.104880255940678
v 16.24490907032493 15.804106086832549 25.959318273618059
v 16.26814874222547 15.78086635702012 27.926111570167279
v 15.744006396481829 13.699354002418 32.803932148003547
v 13.500651996977769 14.99760350894435 33.666827277773237
v -27.73719333014089 -20.069640760372849 8.674184158832702
v 13.707164062368911 15.776656131306581 39.047026232809827
v 15.748459349791769 16.283079427557048 27.624205271078271
v 16.28384310035802 14.2348204087357 27.988719846842379
v -30 -6.2680904247118567 10.1354792849214
v -32.265211465184542 -16.301240694729209 25.74178733329946
v 16.28685368528847 14.23783321474748 32.893955599967242
v 10 -35.45543450993209 0
v -30 -10 14.609375
v -25.588292948342922 -10 0
v 20.000391695950881 14.82424878077742 36.06195863563628
v 20.000215732113411 14.9933623571343 15.048823018494071
v 29.488254051621642 10 4.4228917045472951
v 3.9317997328423751 -17.150419099992281 10
f 687 311 1 
f 1 311 692 
f 1 319 382 
f 692 319 1 
f 382 323 1 
f 1 323 687 
f 2 24 492 
f 692 24 2 
f 2 319 692 
f 699 319 2 
f 2 492 699 
f 3 4 319 
f 662 4 3 
f 657 289 3 
f 3 289 662 
f 3 319 699 
f 3 492 657 
f 699 492 3 
f 382 319 4 
f 4 347 382 
f 410 347 4 
f 662 410 4 
f 5 327 410 
f 673 327 5 
f 5 410 662 
f 515 469 5 
f 5 469 673 
f 662 515 5 
f 6 348 469 
f 743 348 6 
f 6 355 659 
f 739 355 6 
f 6 469 737 
f 6 659 743 
f 6 737 739 
f 7 8 736 
f 779 8 7 
f 583 26 7 
f 7 26 779 
f 7 355 583 
f 736 355 7 
f 565 12 8 
f 8 12 591 
f 797 565 8 
f 8 591 736 
f 8 779 797 
f 591 507 9 
f 9 507 597 
f 736 591 9 
f 9 597 743 
f 9 659 736 
f 743 659 9 
f 10 507 569 
f 597 507 10 
f 10 569 688 
f 743 597 10 
f 688 646 10 
f 10 646 743 
f 11 13 427 
f 513 13 11 
f 427 327 11 
f 11 327 673 
f 11 434 528 
f 646 434 11 
f 528 513 11 
f 673 646 11 
f 565 42 12 
f 12 42 611 
f 12 507 591 
f 611 507 12 
f 23 14 13 
f 13 14 301 
f 272 23 13 
f 513 272 13 
f 13 301 427 
f 14 15 17 
f 23 15 14 
f 14 17 468 
f 468 301 14 
f 15 16 18 
f 297 16 15 
f 424 17 15 
f 15 18 424 
f 15 23 297 
f 46 18 16 
f 297 46 16 
f 424 20 17 
f 17 20 456 
f 17 456 468 
f 44 21 18 
f 18 21 424 
f 264 44 18 
f 18 46 264 
f 456 20 19 
f 19 20 460 
f 19 339 484 
f 676 339 19 
f 484 456 19 
f 19 460 676 
f 411 45 20 
f 20 45 460 
f 622 411 20 
f 20 424 622 
f 21 44 411 
f 21 411 622 
f 622 424 21 
f 280 69 22 
f 22 69 408 
f 22 274 280 
f 346 274 22 
f 22 287 346 
f 408 287 22 
f 23 79 642 
f 666 79 23 
f 23 272 666 
f 642 297 23 
f 311 64 24 
f 24 64 509 
f 692 311 24 
f 509 492 24 
f 756 541 25 
f 25 541 772 
f 772 547 25 
f 25 547 773 
f 25 570 756 
f 773 570 25 
f 26 583 709 
f 26 709 745 
f 745 711 26 
f 26 711 779 
f 27 28 30 
f 904 28 27 
f 31 29 27 
f 27 29 896 
f 27 30 829 
f 829 31 27 
f 27 896 904 
f 904 30 28 
f 29 31 907 
f 29 55 896 
f 907 55 29 
f 30 32 35 
f 927 32 30 
f 30 35 829 
f 904 50 30 
f 30 50 927 
f 829 33 31 
f 31 33 907 
f 949 35 32 
f 32 927 949 
f 829 36 33 
f 33 36 941 
f 908 907 33 
f 941 908 33 
f 34 86 402 
f 495 86 34 
f 271 130 34 
f 34 130 495 
f 402 271 34 
f 35 37 829 
f 949 37 35 
f 829 38 36 
f 36 38 941 
f 47 39 37 
f 37 39 829 
f 958 47 37 
f 37 949 958 
f 38 40 47 
f 829 40 38 
f 38 47 49 
f 38 49 941 
f 47 40 39 
f 39 40 829 
f 41 587 709 
f 782 587 41 
f 726 651 41 
f 41 651 782 
f 41 709 739 
f 739 726 41 
f 42 103 791 
f 839 103 42 
f 42 565 839 
f 791 611 42 
f 43 160 462 
f 678 160 43 
f 286 276 43 
f 43 276 305 
f 462 286 43 
f 43 305 678 
f 44 82 85 
f 264 82 44 
f 44 85 411 
f 45 84 407 
f 411 84 45 
f 45 407 460 
f 46 80 81 
f 297 80 46 
f 46 81 82 
f 46 82 264 
f 980 49 47 
f 47 56 729 
f 958 56 47 
f 47 729 980 
f 48 576 839 
f 884 576 48 
f 48 609 711 
f 839 609 48 
f 48 711 745 
f 48 745 884 
f 49 54 941 
f 980 54 49 
f 746 52 50 
f 50 52 927 
f 50 58 746 
f 904 58 50 
f 927 52 51 
f 51 52 932 
f 932 56 51 
f 51 56 949 
f 949 927 51 
f 52 746 962 
f 962 932 52 
f 658 538 53 
f 53 538 734 
f 53 539 658 
f 707 539 53 
f 53 551 707 
f 873 551 53 
f 53 734 873 
f 54 59 387 
f 943 59 54 
f 54 387 941 
f 54 388 943 
f 980 388 54 
f 907 57 55 
f 55 57 991 
f 55 654 896 
f 991 654 55 
f 56 61 729 
f 923 61 56 
f 932 923 56 
f 958 949 56 
f 387 59 57 
f 57 59 963 
f 907 387 57 
f 963 724 57 
f 57 724 991 
f 654 60 58 
f 58 60 964 
f 904 654 58 
f 964 746 58 
f 96 94 59 
f 59 94 963 
f 98 96 59 
f 943 98 59 
f 60 90 91 
f 92 90 60 
f 60 91 964 
f 724 92 60 
f 60 654 991 
f 991 724 60 
f 61 100 102 
f 923 100 61 
f 102 101 61 
f 61 101 388 
f 61 388 980 
f 980 729 61 
f 62 160 678 
f 686 160 62 
f 62 168 278 
f 706 168 62 
f 678 275 62 
f 62 275 706 
f 62 278 686 
f 323 66 63 
f 63 66 341 
f 63 268 311 
f 341 268 63 
f 63 311 687 
f 687 323 63 
f 311 268 64 
f 64 268 341 
f 64 341 365 
f 64 365 509 
f 341 67 65 
f 65 67 481 
f 481 289 65 
f 65 289 657 
f 365 341 65 
f 509 365 65 
f 657 509 65 
f 66 67 341 
f 510 67 66 
f 66 323 663 
f 663 510 66 
f 67 192 481 
f 510 192 67 
f 593 519 68 
f 68 519 761 
f 68 547 593 
f 773 547 68 
f 68 761 770 
f 68 770 832 
f 937 773 68 
f 68 832 937 
f 334 269 69 
f 69 269 403 
f 69 280 334 
f 69 403 523 
f 510 408 69 
f 69 485 510 
f 523 485 69 
f 599 570 70 
f 70 570 773 
f 978 599 70 
f 882 752 70 
f 70 752 978 
f 70 773 937 
f 937 882 70 
f 71 88 778 
f 884 88 71 
f 71 92 94 
f 644 92 71 
f 71 94 96 
f 71 96 775 
f 778 644 71 
f 71 775 884 
f 95 93 72 
f 72 93 783 
f 874 95 72 
f 72 604 607 
f 783 604 72 
f 72 607 875 
f 72 833 874 
f 875 833 72 
f 73 101 102 
f 976 101 73 
f 73 102 886 
f 73 392 558 
f 735 392 73 
f 73 558 738 
f 886 735 73 
f 73 738 976 
f 280 274 74 
f 74 274 332 
f 334 280 74 
f 461 306 74 
f 74 306 631 
f 74 332 461 
f 995 334 74 
f 74 631 742 
f 74 742 995 
f 75 349 812 
f 815 349 75 
f 75 557 803 
f 812 557 75 
f 75 586 749 
f 803 586 75 
f 75 749 811 
f 75 811 929 
f 929 815 75 
f 76 265 715 
f 994 265 76 
f 875 267 76 
f 76 267 994 
f 76 715 814 
f 76 814 857 
f 76 857 875 
f 640 79 77 
f 77 79 666 
f 959 640 77 
f 77 666 959 
f 78 83 296 
f 339 83 78 
f 78 296 656 
f 78 306 461 
f 656 306 78 
f 629 339 78 
f 78 461 629 
f 79 80 642 
f 648 80 79 
f 79 640 656 
f 656 648 79 
f 82 81 80 
f 508 82 80 
f 80 297 642 
f 648 508 80 
f 508 85 82 
f 407 296 83 
f 83 339 676 
f 460 407 83 
f 676 460 83 
f 411 85 84 
f 84 85 508 
f 84 296 407 
f 648 296 84 
f 84 508 648 
f 86 145 290 
f 495 145 86 
f 86 290 577 
f 86 316 504 
f 577 316 86 
f 504 402 86 
f 87 523 530 
f 571 523 87 
f 87 530 916 
f 825 571 87 
f 913 825 87 
f 916 913 87 
f 88 745 778 
f 884 745 88 
f 89 532 780 
f 893 532 89 
f 751 553 89 
f 89 553 978 
f 780 751 89 
f 978 893 89 
f 765 91 90 
f 90 92 644 
f 90 644 765 
f 765 93 91 
f 91 93 964 
f 724 94 92 
f 93 95 962 
f 962 746 93 
f 93 746 964 
f 93 765 783 
f 94 724 963 
f 874 97 95 
f 95 97 932 
f 95 932 962 
f 96 98 859 
f 859 775 96 
f 833 100 97 
f 97 100 932 
f 874 833 97 
f 388 101 98 
f 98 101 976 
f 943 388 98 
f 976 859 98 
f 738 103 99 
f 99 103 839 
f 839 576 99 
f 99 576 884 
f 859 738 99 
f 99 775 859 
f 884 775 99 
f 886 102 100 
f 100 833 886 
f 100 923 932 
f 738 558 103 
f 103 558 791 
f 564 544 104 
f 104 544 717 
f 562 545 104 
f 104 545 767 
f 717 562 104 
f 567 564 104 
f 767 567 104 
f 105 349 815 
f 826 349 105 
f 767 545 105 
f 105 545 826 
f 105 567 767 
f 777 567 105 
f 105 766 777 
f 929 766 105 
f 105 815 929 
f 385 108 106 
f 106 108 971 
f 106 110 700 
f 971 110 106 
f 106 284 385 
f 700 284 106 
f 107 548 606 
f 625 548 107 
f 107 606 638 
f 924 625 107 
f 107 638 903 
f 903 898 107 
f 107 898 924 
f 385 325 108 
f 108 325 395 
f 395 335 108 
f 108 335 971 
f 109 147 364 
f 624 147 109 
f 109 283 351 
f 364 283 109 
f 109 351 396 
f 109 396 624 
f 459 111 110 
f 110 111 700 
f 110 269 334 
f 971 269 110 
f 110 334 459 
f 414 295 111 
f 111 295 700 
f 624 414 111 
f 111 459 624 
f 112 240 451 
f 848 240 112 
f 322 302 112 
f 112 302 372 
f 451 322 112 
f 112 372 848 
f 113 284 295 
f 674 284 113 
f 113 295 391 
f 113 314 367 
f 698 314 113 
f 113 367 674 
f 113 391 694 
f 113 694 698 
f 313 121 114 
f 114 121 694 
f 390 313 114 
f 675 390 114 
f 694 391 114 
f 114 391 847 
f 114 401 675 
f 847 401 114 
f 115 117 129 
f 336 117 115 
f 129 127 115 
f 115 127 693 
f 693 336 115 
f 116 126 630 
f 693 126 116 
f 380 336 116 
f 116 336 693 
f 630 380 116 
f 496 129 117 
f 117 291 483 
f 668 291 117 
f 117 336 668 
f 117 483 496 
f 466 291 118 
f 118 291 668 
f 118 336 380 
f 668 336 118 
f 118 380 630 
f 118 389 627 
f 630 389 118 
f 627 466 118 
f 385 284 119 
f 119 284 674 
f 483 291 119 
f 119 291 691 
f 119 357 483 
f 619 357 119 
f 691 385 119 
f 674 619 119 
f 466 125 120 
f 120 125 999 
f 120 291 466 
f 691 291 120 
f 401 325 120 
f 120 325 691 
f 675 401 120 
f 999 675 120 
f 124 123 121 
f 121 123 698 
f 690 124 121 
f 121 313 690 
f 698 694 121 
f 122 123 128 
f 698 123 122 
f 122 128 698 
f 123 124 690 
f 262 128 123 
f 690 262 123 
f 405 138 125 
f 125 138 999 
f 627 405 125 
f 125 466 627 
f 126 134 135 
f 464 134 126 
f 126 135 389 
f 126 389 630 
f 693 464 126 
f 127 129 133 
f 127 133 464 
f 127 464 693 
f 128 139 314 
f 696 139 128 
f 128 262 696 
f 128 314 698 
f 993 133 129 
f 496 406 129 
f 129 406 993 
f 130 271 370 
f 130 342 495 
f 549 342 130 
f 130 370 549 
f 542 142 131 
f 131 142 838 
f 131 536 598 
f 900 536 131 
f 598 542 131 
f 131 838 900 
f 132 536 713 
f 967 536 132 
f 713 670 132 
f 132 670 802 
f 132 802 967 
f 133 134 464 
f 615 134 133 
f 993 615 133 
f 470 135 134 
f 134 288 470 
f 615 288 134 
f 470 389 135 
f 404 288 136 
f 136 288 406 
f 136 330 405 
f 664 330 136 
f 405 404 136 
f 136 406 412 
f 136 412 664 
f 137 270 354 
f 367 270 137 
f 137 354 664 
f 412 357 137 
f 137 357 619 
f 619 367 137 
f 664 412 137 
f 354 281 138 
f 138 281 390 
f 405 330 138 
f 138 330 664 
f 664 354 138 
f 138 390 999 
f 977 314 139 
f 696 345 139 
f 139 345 977 
f 313 281 140 
f 140 281 345 
f 690 313 140 
f 140 345 696 
f 696 690 140 
f 141 216 450 
f 685 216 141 
f 317 271 141 
f 141 271 402 
f 450 317 141 
f 141 402 685 
f 804 155 142 
f 142 155 838 
f 575 177 142 
f 142 177 804 
f 542 303 142 
f 142 303 575 
f 143 420 632 
f 802 420 143 
f 632 533 143 
f 143 533 774 
f 143 774 967 
f 967 802 143 
f 144 152 216 
f 316 152 144 
f 144 216 685 
f 504 316 144 
f 144 402 504 
f 685 402 144 
f 304 191 145 
f 145 191 616 
f 616 290 145 
f 613 304 145 
f 495 356 145 
f 145 356 613 
f 146 266 315 
f 321 266 146 
f 146 315 684 
f 146 320 331 
f 684 320 146 
f 331 321 146 
f 147 282 364 
f 459 282 147 
f 624 459 147 
f 315 266 148 
f 148 266 321 
f 683 315 148 
f 148 321 706 
f 706 683 148 
f 305 276 149 
f 149 276 320 
f 695 305 149 
f 684 315 149 
f 149 315 695 
f 149 320 684 
f 150 315 683 
f 695 315 150 
f 683 678 150 
f 150 678 695 
f 151 161 170 
f 649 161 151 
f 151 170 939 
f 713 536 151 
f 151 536 900 
f 900 649 151 
f 939 713 151 
f 333 216 152 
f 152 316 352 
f 366 333 152 
f 152 352 366 
f 375 286 153 
f 153 286 462 
f 153 343 511 
f 512 343 153 
f 511 375 153 
f 153 462 512 
f 154 229 450 
f 998 229 154 
f 499 329 154 
f 154 329 998 
f 450 333 154 
f 154 333 499 
f 169 167 155 
f 155 167 838 
f 179 169 155 
f 872 179 155 
f 155 804 872 
f 178 162 156 
f 156 162 914 
f 156 164 178 
f 760 164 156 
f 914 760 156 
f 157 165 417 
f 947 165 157 
f 157 415 947 
f 985 415 157 
f 417 416 157 
f 157 416 879 
f 157 879 985 
f 161 159 158 
f 158 159 167 
f 987 161 158 
f 167 166 158 
f 158 166 975 
f 975 428 158 
f 158 428 987 
f 159 161 649 
f 838 167 159 
f 159 649 838 
f 686 462 160 
f 987 170 161 
f 178 171 162 
f 162 171 914 
f 409 361 163 
f 163 361 968 
f 853 409 163 
f 163 498 853 
f 945 498 163 
f 163 912 945 
f 968 912 163 
f 164 173 178 
f 432 173 164 
f 760 432 164 
f 165 174 922 
f 947 174 165 
f 467 417 165 
f 500 467 165 
f 922 500 165 
f 166 167 169 
f 166 169 430 
f 166 430 431 
f 166 431 506 
f 166 506 975 
f 168 273 318 
f 321 273 168 
f 324 278 168 
f 168 318 324 
f 706 321 168 
f 169 179 430 
f 188 180 170 
f 170 180 939 
f 429 188 170 
f 987 429 170 
f 171 178 185 
f 171 185 186 
f 171 186 897 
f 171 897 914 
f 877 187 172 
f 172 187 961 
f 879 416 172 
f 172 416 905 
f 172 437 921 
f 961 437 172 
f 905 877 172 
f 921 879 172 
f 181 178 173 
f 860 181 173 
f 173 432 781 
f 173 781 860 
f 174 415 895 
f 947 415 174 
f 174 502 922 
f 948 502 174 
f 174 895 948 
f 175 215 226 
f 939 215 175 
f 175 226 623 
f 623 579 175 
f 175 579 670 
f 175 670 713 
f 175 713 939 
f 176 303 635 
f 789 303 176 
f 635 524 176 
f 176 524 720 
f 176 720 856 
f 856 789 176 
f 177 575 925 
f 177 601 754 
f 925 601 177 
f 177 754 804 
f 178 181 196 
f 205 185 178 
f 178 196 207 
f 212 205 178 
f 178 207 212 
f 189 184 179 
f 179 184 430 
f 872 189 179 
f 180 188 190 
f 180 190 939 
f 860 196 181 
f 889 197 182 
f 182 197 973 
f 182 441 860 
f 973 441 182 
f 182 500 889 
f 954 500 182 
f 860 781 182 
f 182 781 954 
f 895 413 183 
f 183 413 966 
f 183 439 471 
f 966 439 183 
f 183 471 948 
f 948 895 183 
f 184 189 198 
f 184 198 955 
f 955 430 184 
f 193 186 185 
f 205 193 185 
f 186 193 906 
f 960 897 186 
f 186 906 960 
f 187 786 956 
f 970 786 187 
f 187 877 970 
f 956 928 187 
f 187 928 961 
f 476 190 188 
f 188 195 476 
f 942 195 188 
f 188 429 942 
f 200 198 189 
f 217 200 189 
f 872 217 189 
f 190 199 215 
f 476 199 190 
f 190 215 939 
f 191 304 588 
f 588 521 191 
f 191 521 590 
f 191 590 618 
f 618 616 191 
f 825 481 192 
f 510 485 192 
f 192 485 571 
f 192 571 825 
f 193 205 982 
f 982 906 193 
f 194 204 956 
f 983 204 194 
f 956 786 194 
f 194 786 960 
f 194 960 988 
f 988 983 194 
f 195 206 476 
f 477 206 195 
f 195 433 546 
f 942 433 195 
f 931 477 195 
f 195 546 931 
f 920 207 196 
f 196 860 920 
f 817 445 197 
f 197 445 979 
f 197 478 973 
f 979 478 197 
f 889 817 197 
f 198 200 202 
f 198 202 209 
f 198 209 443 
f 198 443 505 
f 198 505 955 
f 206 201 199 
f 199 201 974 
f 476 206 199 
f 974 215 199 
f 217 202 200 
f 201 206 214 
f 214 211 201 
f 201 211 600 
f 201 600 974 
f 210 209 202 
f 217 210 202 
f 203 471 952 
f 984 471 203 
f 972 475 203 
f 203 475 981 
f 203 952 972 
f 203 981 992 
f 992 984 203 
f 448 447 204 
f 204 447 956 
f 480 448 204 
f 983 480 204 
f 205 212 982 
f 721 214 206 
f 206 477 721 
f 207 208 870 
f 920 208 207 
f 870 212 207 
f 920 441 208 
f 208 441 989 
f 208 480 870 
f 989 480 208 
f 209 210 214 
f 209 214 885 
f 885 443 209 
f 210 211 214 
f 858 211 210 
f 210 217 858 
f 858 600 211 
f 212 870 982 
f 213 445 881 
f 965 445 213 
f 487 447 213 
f 213 447 965 
f 981 487 213 
f 213 881 992 
f 992 981 213 
f 214 721 885 
f 974 226 215 
f 216 333 450 
f 601 221 217 
f 217 221 602 
f 754 601 217 
f 217 602 764 
f 872 754 217 
f 217 764 858 
f 318 273 218 
f 218 273 321 
f 620 318 218 
f 331 320 218 
f 218 320 375 
f 218 321 331 
f 218 375 620 
f 229 228 219 
f 219 228 363 
f 300 229 219 
f 363 263 219 
f 219 263 997 
f 219 298 370 
f 997 298 219 
f 317 300 219 
f 338 317 219 
f 370 338 219 
f 298 222 220 
f 220 222 529 
f 383 298 220 
f 891 383 220 
f 220 529 626 
f 220 626 733 
f 733 705 220 
f 220 705 891 
f 221 566 602 
f 636 566 221 
f 221 601 925 
f 925 636 221 
f 222 298 997 
f 222 442 951 
f 997 442 222 
f 951 529 222 
f 223 337 535 
f 823 337 223 
f 223 535 578 
f 223 578 681 
f 223 681 800 
f 223 800 823 
f 224 263 363 
f 997 263 224 
f 224 279 310 
f 363 279 224 
f 224 310 352 
f 352 316 224 
f 224 316 577 
f 224 577 669 
f 224 669 997 
f 610 590 225 
f 225 590 776 
f 951 610 225 
f 800 626 225 
f 225 626 951 
f 225 776 823 
f 823 800 225 
f 552 227 226 
f 226 227 810 
f 226 337 353 
f 810 337 226 
f 226 353 623 
f 974 552 226 
f 227 552 764 
f 764 602 227 
f 227 602 816 
f 816 810 227 
f 228 229 998 
f 228 360 393 
f 998 360 228 
f 634 363 228 
f 228 393 634 
f 229 300 450 
f 230 550 828 
f 946 550 230 
f 828 740 230 
f 230 740 843 
f 230 842 946 
f 957 842 230 
f 230 843 957 
f 231 318 555 
f 556 318 231 
f 231 555 561 
f 714 556 231 
f 231 561 589 
f 231 589 792 
f 792 714 231 
f 232 559 568 
f 580 559 232 
f 232 568 836 
f 730 580 232 
f 842 730 232 
f 232 836 842 
f 422 307 233 
f 233 307 499 
f 366 310 233 
f 233 310 679 
f 499 366 233 
f 682 422 233 
f 679 474 233 
f 233 474 682 
f 310 279 234 
f 234 279 363 
f 234 309 525 
f 634 309 234 
f 679 310 234 
f 234 363 634 
f 527 474 234 
f 234 474 679 
f 234 525 537 
f 537 527 234 
f 537 525 235 
f 235 525 628 
f 235 527 537 
f 727 527 235 
f 235 628 868 
f 868 727 235 
f 236 308 472 
f 511 308 236 
f 236 421 561 
f 682 421 236 
f 236 472 682 
f 620 511 236 
f 561 555 236 
f 236 555 620 
f 237 718 787 
f 834 718 237 
f 787 731 237 
f 237 731 935 
f 957 834 237 
f 935 842 237 
f 237 842 957 
f 238 248 373 
f 374 248 238 
f 299 293 238 
f 238 293 377 
f 373 299 238 
f 377 374 238 
f 239 241 490 
f 689 241 239 
f 490 379 239 
f 239 379 677 
f 677 463 239 
f 239 463 689 
f 293 243 240 
f 240 243 451 
f 377 293 240 
f 848 377 240 
f 241 244 491 
f 689 244 241 
f 680 490 241 
f 241 491 944 
f 944 680 241 
f 242 302 322 
f 559 302 242 
f 242 312 512 
f 672 312 242 
f 242 322 328 
f 242 328 672 
f 512 462 242 
f 242 462 686 
f 652 559 242 
f 686 652 242 
f 243 246 376 
f 398 246 243 
f 243 293 299 
f 243 299 614 
f 243 376 451 
f 614 398 243 
f 244 247 491 
f 689 247 244 
f 245 563 716 
f 831 563 245 
f 716 703 245 
f 245 703 725 
f 725 719 245 
f 245 719 831 
f 454 376 246 
f 246 398 808 
f 808 454 246 
f 247 257 261 
f 463 257 247 
f 247 261 294 
f 247 294 491 
f 689 463 247 
f 374 255 248 
f 248 255 455 
f 880 373 248 
f 248 455 880 
f 309 253 249 
f 249 253 514 
f 525 309 249 
f 249 514 763 
f 763 525 249 
f 453 285 250 
f 250 285 697 
f 329 307 250 
f 250 307 453 
f 360 329 250 
f 697 360 250 
f 251 285 394 
f 697 285 251 
f 251 309 393 
f 394 309 251 
f 393 360 251 
f 251 360 697 
f 472 369 252 
f 252 369 473 
f 453 422 252 
f 252 422 472 
f 493 453 252 
f 252 473 493 
f 394 285 253 
f 253 285 493 
f 253 309 394 
f 253 493 612 
f 612 514 253 
f 254 344 457 
f 671 344 254 
f 254 457 753 
f 254 473 503 
f 612 473 254 
f 254 503 671 
f 254 514 612 
f 831 514 254 
f 254 753 831 
f 255 374 741 
f 400 378 255 
f 255 378 455 
f 741 400 255 
f 256 257 463 
f 637 257 256 
f 256 379 637 
f 677 379 256 
f 256 463 677 
f 368 261 257 
f 637 368 257 
f 258 308 343 
f 369 308 258 
f 343 312 258 
f 258 312 704 
f 399 369 258 
f 704 399 258 
f 259 312 672 
f 704 312 259 
f 259 328 381 
f 672 328 259 
f 381 344 259 
f 259 344 671 
f 671 399 259 
f 259 399 704 
f 260 292 378 
f 494 292 260 
f 260 378 400 
f 260 398 494 
f 808 398 260 
f 260 400 808 
f 261 292 294 
f 368 292 261 
f 262 690 696 
f 265 434 646 
f 667 434 265 
f 265 603 667 
f 994 603 265 
f 265 646 688 
f 265 688 715 
f 267 594 653 
f 851 594 267 
f 267 607 647 
f 875 607 267 
f 267 647 851 
f 267 653 994 
f 269 335 728 
f 971 335 269 
f 728 403 269 
f 367 314 270 
f 270 314 977 
f 270 345 354 
f 977 345 270 
f 271 317 338 
f 271 338 370 
f 272 513 531 
f 272 531 755 
f 755 666 272 
f 346 332 274 
f 275 678 683 
f 275 683 706 
f 276 286 375 
f 375 320 276 
f 454 400 277 
f 277 400 741 
f 497 454 277 
f 277 482 497 
f 741 482 277 
f 278 324 836 
f 278 568 652 
f 836 568 278 
f 278 652 686 
f 281 313 390 
f 354 345 281 
f 665 364 282 
f 282 459 995 
f 631 564 282 
f 282 564 665 
f 742 631 282 
f 995 742 282 
f 395 351 283 
f 283 364 386 
f 283 386 633 
f 633 395 283 
f 700 295 284 
f 285 453 493 
f 287 327 346 
f 410 327 287 
f 408 347 287 
f 287 347 410 
f 288 404 470 
f 615 406 288 
f 289 481 784 
f 289 515 662 
f 784 515 289 
f 616 442 290 
f 290 442 669 
f 669 577 290 
f 494 294 292 
f 292 368 378 
f 294 438 491 
f 494 438 294 
f 295 350 391 
f 414 350 295 
f 296 648 656 
f 383 370 298 
f 299 373 680 
f 299 452 614 
f 680 452 299 
f 300 317 450 
f 301 340 427 
f 458 340 301 
f 468 458 301 
f 730 372 302 
f 302 559 580 
f 302 580 730 
f 533 419 303 
f 303 419 635 
f 774 533 303 
f 303 542 774 
f 789 575 303 
f 304 358 420 
f 613 358 304 
f 420 359 304 
f 304 359 588 
f 695 678 305 
f 640 592 306 
f 306 592 807 
f 807 631 306 
f 656 640 306 
f 307 329 499 
f 307 422 453 
f 511 343 308 
f 308 369 472 
f 634 393 309 
f 366 352 310 
f 312 343 512 
f 639 324 318 
f 620 555 318 
f 318 556 639 
f 376 328 322 
f 451 376 322 
f 323 382 663 
f 324 639 836 
f 325 351 395 
f 401 351 325 
f 325 385 691 
f 573 488 326 
f 326 488 756 
f 595 560 326 
f 326 560 647 
f 647 573 326 
f 756 595 326 
f 427 346 327 
f 328 376 381 
f 329 360 998 
f 346 340 332 
f 332 340 458 
f 332 458 629 
f 629 461 332 
f 333 366 499 
f 995 459 334 
f 335 395 633 
f 633 581 335 
f 335 581 728 
f 362 353 337 
f 823 362 337 
f 810 535 337 
f 339 458 484 
f 629 458 339 
f 340 346 427 
f 342 356 495 
f 798 356 342 
f 342 435 708 
f 891 435 342 
f 342 549 891 
f 342 708 798 
f 344 381 497 
f 497 457 344 
f 663 382 347 
f 347 408 663 
f 673 469 348 
f 348 646 673 
f 743 646 348 
f 349 790 892 
f 915 790 349 
f 892 812 349 
f 349 826 915 
f 847 391 350 
f 350 396 397 
f 624 396 350 
f 350 397 847 
f 350 414 624 
f 397 396 351 
f 401 397 351 
f 353 362 579 
f 353 579 623 
f 739 583 355 
f 736 659 355 
f 798 613 356 
f 357 412 496 
f 496 483 357 
f 632 420 358 
f 358 543 632 
f 798 543 358 
f 358 613 798 
f 359 420 605 
f 605 520 359 
f 359 520 776 
f 776 588 359 
f 361 409 433 
f 429 428 361 
f 361 428 968 
f 942 429 361 
f 361 433 942 
f 362 426 579 
f 605 426 362 
f 362 516 605 
f 823 516 362 
f 723 386 364 
f 364 665 723 
f 367 619 674 
f 637 378 368 
f 369 399 503 
f 503 473 369 
f 370 383 549 
f 371 801 805 
f 910 801 371 
f 371 805 865 
f 934 834 371 
f 371 834 957 
f 371 843 910 
f 957 843 371 
f 371 865 934 
f 372 730 861 
f 372 747 852 
f 861 747 372 
f 852 848 372 
f 373 379 490 
f 880 379 373 
f 373 490 680 
f 374 377 501 
f 374 501 741 
f 375 511 620 
f 454 381 376 
f 848 501 377 
f 637 455 378 
f 379 455 637 
f 880 455 379 
f 381 454 497 
f 891 549 383 
f 384 762 866 
f 869 762 384 
f 845 832 384 
f 384 832 933 
f 882 845 384 
f 384 866 950 
f 933 869 384 
f 950 882 384 
f 386 606 633 
f 638 606 386 
f 723 638 386 
f 387 907 908 
f 387 908 941 
f 470 404 389 
f 389 404 627 
f 390 675 999 
f 791 558 392 
f 392 645 791 
f 814 645 392 
f 392 735 857 
f 857 814 392 
f 397 401 847 
f 614 494 398 
f 671 503 399 
f 400 454 808 
f 530 523 403 
f 596 530 403 
f 728 596 403 
f 404 405 627 
f 496 412 406 
f 406 615 993 
f 408 510 663 
f 899 433 409 
f 409 853 921 
f 921 899 409 
f 413 415 465 
f 895 415 413 
f 413 465 938 
f 413 938 940 
f 413 940 966 
f 498 465 415 
f 985 498 415 
f 416 417 905 
f 901 423 417 
f 417 423 905 
f 417 467 901 
f 418 423 901 
f 953 423 418 
f 418 432 760 
f 969 432 418 
f 901 467 418 
f 418 467 969 
f 418 760 796 
f 418 796 953 
f 419 533 543 
f 419 543 798 
f 871 635 419 
f 798 708 419 
f 419 708 871 
f 420 426 605 
f 802 426 420 
f 421 474 526 
f 682 474 421 
f 421 526 589 
f 589 561 421 
f 682 472 422 
f 953 436 423 
f 423 436 970 
f 423 877 905 
f 970 877 423 
f 425 569 611 
f 715 569 425 
f 425 611 645 
f 425 645 814 
f 814 715 425 
f 670 579 426 
f 802 670 426 
f 428 429 987 
f 428 912 968 
f 975 912 428 
f 955 431 430 
f 431 486 940 
f 955 486 431 
f 938 506 431 
f 940 938 431 
f 954 781 432 
f 969 954 432 
f 862 546 433 
f 899 862 433 
f 538 528 434 
f 667 538 434 
f 435 705 758 
f 891 705 435 
f 871 708 435 
f 435 758 871 
f 960 786 436 
f 436 786 970 
f 436 796 897 
f 953 796 436 
f 436 897 960 
f 437 489 899 
f 961 489 437 
f 437 899 921 
f 438 452 491 
f 494 452 438 
f 505 446 439 
f 439 446 952 
f 952 471 439 
f 439 486 505 
f 966 486 439 
f 440 540 681 
f 733 540 440 
f 440 574 636 
f 681 574 440 
f 440 636 856 
f 440 720 758 
f 856 720 440 
f 758 733 440 
f 973 478 441 
f 441 478 989 
f 920 860 441 
f 616 610 442 
f 442 610 951 
f 997 669 442 
f 885 449 443 
f 443 449 926 
f 926 505 443 
f 487 475 444 
f 444 475 972 
f 444 479 931 
f 972 479 444 
f 489 487 444 
f 862 489 444 
f 931 862 444 
f 965 448 445 
f 445 448 979 
f 445 817 881 
f 926 479 446 
f 446 479 972 
f 446 505 926 
f 972 952 446 
f 447 448 965 
f 447 487 930 
f 930 928 447 
f 447 928 956 
f 480 478 448 
f 448 478 979 
f 449 477 479 
f 721 477 449 
f 449 479 926 
f 885 721 449 
f 944 491 452 
f 452 494 614 
f 452 680 944 
f 484 468 456 
f 497 482 457 
f 457 482 852 
f 852 753 457 
f 458 468 484 
f 465 498 945 
f 465 912 938 
f 945 912 465 
f 467 500 954 
f 467 954 969 
f 660 488 469 
f 469 488 737 
f 469 515 660 
f 984 948 471 
f 612 493 473 
f 527 526 474 
f 475 487 981 
f 931 479 477 
f 478 480 989 
f 480 821 870 
f 983 821 480 
f 481 593 784 
f 825 593 481 
f 741 501 482 
f 482 501 852 
f 485 523 571 
f 955 505 486 
f 966 940 486 
f 487 489 930 
f 488 573 651 
f 488 651 726 
f 488 660 756 
f 488 726 737 
f 489 862 899 
f 961 930 489 
f 492 509 657 
f 879 853 498 
f 985 879 498 
f 922 889 500 
f 501 848 852 
f 502 817 889 
f 984 817 502 
f 502 889 922 
f 502 948 984 
f 938 912 506 
f 506 912 975 
f 611 569 507 
f 513 528 539 
f 539 531 513 
f 514 719 763 
f 831 719 514 
f 515 541 660 
f 784 541 515 
f 516 520 605 
f 776 520 516 
f 823 776 516 
f 517 534 763 
f 788 534 517 
f 725 617 517 
f 517 617 788 
f 517 719 725 
f 763 719 517 
f 592 522 518 
f 518 522 820 
f 807 592 518 
f 518 717 807 
f 902 717 518 
f 518 820 835 
f 518 835 902 
f 519 593 825 
f 913 761 519 
f 519 825 913 
f 521 588 776 
f 776 590 521 
f 522 592 744 
f 522 744 769 
f 522 769 820 
f 524 635 871 
f 758 720 524 
f 871 758 524 
f 525 534 628 
f 763 534 525 
f 526 527 768 
f 864 589 526 
f 526 768 844 
f 526 844 864 
f 527 727 768 
f 528 538 658 
f 658 539 528 
f 951 626 529 
f 530 596 799 
f 530 799 916 
f 531 539 707 
f 707 582 531 
f 531 582 755 
f 532 585 780 
f 893 585 532 
f 632 543 533 
f 788 628 534 
f 996 578 535 
f 535 810 996 
f 967 598 536 
f 538 667 734 
f 733 626 540 
f 540 626 800 
f 800 681 540 
f 756 660 541 
f 784 772 541 
f 542 598 774 
f 544 564 631 
f 544 631 807 
f 807 717 544 
f 545 562 902 
f 915 826 545 
f 902 855 545 
f 545 855 915 
f 546 862 931 
f 772 593 547 
f 625 581 548 
f 548 581 633 
f 633 606 548 
f 550 556 714 
f 946 556 550 
f 550 714 828 
f 551 557 748 
f 873 557 551 
f 748 707 551 
f 552 600 858 
f 974 600 552 
f 858 764 552 
f 751 560 553 
f 553 560 978 
f 778 587 554 
f 554 587 782 
f 765 661 554 
f 554 661 778 
f 554 702 765 
f 782 702 554 
f 946 639 556 
f 892 748 557 
f 873 803 557 
f 557 812 892 
f 652 568 559 
f 560 595 599 
f 560 599 978 
f 851 647 560 
f 560 751 851 
f 562 717 902 
f 747 716 563 
f 852 747 563 
f 831 753 563 
f 563 753 852 
f 564 567 665 
f 797 609 565 
f 565 609 839 
f 636 574 566 
f 566 574 996 
f 816 602 566 
f 996 816 566 
f 777 665 567 
f 715 688 569 
f 599 595 570 
f 570 595 756 
f 769 744 572 
f 572 744 959 
f 824 769 572 
f 572 819 824 
f 888 819 572 
f 959 876 572 
f 572 876 990 
f 990 888 572 
f 647 604 573 
f 573 604 783 
f 702 651 573 
f 783 702 573 
f 681 578 574 
f 574 578 996 
f 575 789 925 
f 625 596 581 
f 581 596 728 
f 707 608 582 
f 582 608 785 
f 785 755 582 
f 739 709 583 
f 584 585 723 
f 780 585 584 
f 655 594 584 
f 584 594 851 
f 732 655 584 
f 584 723 732 
f 584 751 780 
f 851 751 584 
f 585 638 723 
f 837 638 585 
f 893 837 585 
f 586 734 749 
f 873 734 586 
f 586 803 873 
f 745 709 587 
f 778 745 587 
f 864 792 589 
f 590 610 618 
f 592 640 744 
f 593 772 784 
f 655 653 594 
f 596 625 924 
f 986 799 596 
f 924 894 596 
f 596 894 986 
f 967 774 598 
f 734 667 603 
f 759 734 603 
f 994 759 603 
f 647 607 604 
f 608 707 748 
f 608 748 849 
f 849 785 608 
f 797 711 609 
f 610 616 618 
f 791 645 611 
f 795 712 617 
f 617 712 809 
f 617 725 795 
f 809 788 617 
f 621 653 655 
f 811 653 621 
f 621 655 732 
f 621 732 766 
f 621 766 929 
f 929 811 621 
f 788 757 628 
f 628 757 846 
f 628 846 868 
f 925 856 636 
f 638 837 903 
f 946 836 639 
f 959 744 640 
f 837 750 641 
f 641 750 866 
f 866 822 641 
f 641 822 911 
f 903 837 641 
f 911 903 641 
f 643 650 701 
f 710 650 643 
f 643 701 917 
f 910 710 643 
f 643 801 910 
f 917 801 643 
f 644 661 765 
f 778 661 644 
f 900 838 649 
f 864 701 650 
f 650 710 792 
f 650 792 864 
f 651 702 782 
f 811 759 653 
f 653 759 994 
f 904 896 654 
f 766 723 665 
f 777 766 665 
f 666 755 887 
f 666 887 959 
f 844 722 701 
f 701 722 917 
f 864 844 701 
f 783 765 702 
f 703 716 890 
f 795 725 703 
f 890 795 703 
f 705 733 758 
f 740 714 710 
f 710 714 792 
f 910 740 710 
f 797 779 711 
f 712 795 934 
f 918 809 712 
f 712 865 918 
f 934 865 712 
f 714 740 828 
f 747 731 716 
f 716 731 890 
f 890 787 718 
f 718 795 890 
f 934 795 718 
f 718 834 934 
f 844 768 722 
f 722 768 909 
f 909 878 722 
f 722 878 917 
f 766 732 723 
f 739 737 726 
f 909 768 727 
f 727 868 909 
f 730 842 935 
f 935 861 730 
f 731 747 935 
f 731 787 890 
f 759 749 734 
f 735 833 857 
f 886 833 735 
f 738 859 976 
f 910 843 740 
f 747 861 935 
f 748 813 849 
f 892 813 748 
f 749 759 811 
f 893 752 750 
f 750 752 950 
f 750 837 893 
f 950 866 750 
f 752 882 950 
f 752 893 978 
f 872 804 754 
f 755 785 887 
f 757 788 809 
f 809 794 757 
f 757 794 846 
f 914 796 760 
f 913 770 761 
f 762 793 866 
f 867 793 762 
f 869 867 762 
f 824 820 769 
f 913 806 770 
f 770 806 933 
f 933 832 770 
f 933 806 771 
f 771 806 986 
f 771 867 869 
f 986 867 771 
f 771 869 933 
f 849 830 785 
f 785 830 854 
f 785 854 887 
f 789 856 925 
f 790 850 892 
f 915 850 790 
f 793 822 866 
f 911 822 793 
f 793 867 936 
f 936 911 793 
f 794 809 918 
f 909 846 794 
f 794 878 909 
f 919 878 794 
f 794 918 919 
f 914 897 796 
f 986 916 799 
f 917 805 801 
f 918 865 805 
f 805 917 919 
f 919 918 805 
f 806 913 916 
f 806 916 986 
f 810 816 996 
f 813 841 849 
f 850 841 813 
f 892 850 813 
f 984 881 817 
f 840 827 818 
f 818 827 855 
f 818 835 883 
f 902 835 818 
f 883 840 818 
f 818 855 902 
f 883 824 819 
f 819 840 883 
f 888 840 819 
f 820 824 883 
f 883 835 820 
f 982 870 821 
f 821 906 982 
f 988 906 821 
f 821 983 988 
f 827 840 850 
f 827 850 915 
f 915 855 827 
f 849 841 830 
f 830 841 990 
f 990 854 830 
f 832 845 937 
f 875 857 833 
f 946 842 836 
f 863 850 840 
f 888 863 840 
f 841 850 863 
f 841 863 888 
f 841 888 990 
f 845 882 937 
f 909 868 846 
f 853 879 921 
f 854 876 887 
f 990 876 854 
f 867 894 936 
f 986 894 867 
f 959 887 876 
f 919 917 878 
f 881 984 992 
f 894 924 936 
f 898 903 911 
f 898 911 936 
f 936 924 898 
f 988 960 906 
f 928 930 961 
