v 22.510655762459457 100.04603640162956 34.697904898565632
v 33.515913844685628 119.08435393270194 47.409580331188288
v 15.0380278375456 104.3656512379672 34.697904898565632
v 26.043285919771769 123.40396876903958 47.409580331188288
v 19.168832369313591 94.264918465446925 25.948187281482301
v 23.570935354280451 101.88024504898559 31.032857168166032
v 34.576193436506621 120.91856258005795 43.744532600788688
v 39.987112851003616 130.27907018274743 49.994440678841599
v 16.098307429366596 106.19985988532322 31.032857168166032
v 27.103565511592763 125.2381774163956 43.744532600788688
v 14.552706961232566 137.36164150310162 46.180938383147691
v 17.854284096656212 143.07313626205132 49.994440678841599
v -10.29409019452714 111.29620634802947 25.948187281482301
v 7.2226131517392353 141.59886330638028 46.180938383147691
v 26.802849777625326 107.47122824675952 -0.44017140427802914
v 31.204952762592185 115.08655483029818 4.6444984824056981
v 42.197530156666787 134.1029356684063 17.368794125939324
v 47.063994556307222 142.52157463187103 22.933388648583765
v 23.73232483767833 119.40616966663582 4.6444984824056981
v 34.737582919904497 138.44448719770818 17.356173915028357
v 39.26123352982286 146.27008256928298 22.580422142624215
v 40.148502334401499 147.80499480039768 23.606081993081265
v 22.186724369544304 150.56795128441422 19.792579697387353
v 25.48830150496795 156.27944604336392 23.606081993081265
v -2.6600727862154052 124.50251612934208 -0.44017140427802914
v 14.856630560050974 154.80517308769288 19.792579697387353
v 39.827471357385235 147.24963393270329 23.159467448856816
v 47.66154871490933 143.55530103142297 23.466368308046
v 40.188920789995478 147.87491586776062 23.466368308046
v 32.26523211555601 116.9207630644482 0.97945157765901669
v 43.270490197782181 135.95908059552056 13.691127010281674
v 24.792604190642155 121.24037790078583 0.97945157765901669
v 35.797862272868329 140.27869543185821 13.691127010281674
v 38.397608491216076 127.52934014529087 22.437454784571568
v 19.644109108422487 117.17397048084027 2.3446728392128335
v 25.802868923381951 105.74133214747356 27.120343827410267
v 12.679949284475548 142.97979127384562 39.387975632324128
v 9.2412686418010956 112.17726820672046 7.7156889470634624
v 6.724366578891054 113.492437733258 7.924988006868972
v 33.099289859979834 149.08986360615665 27.784654875089672
v 27.347048282525936 114.23874230504245 3.1041304250559207
v 2.1547639388135096 126.9193515752993 37.368331610497954
v 35.165721234571073 127.81316147566189 7.2697545890667215
v 16.004403724371212 134.31223217926791 9.8687337785090286
v 9.4546893545032606 135.62609274831735 8.6314691110274069
v 13.034775099482149 128.68471044730089 6.193287606694394
v 18.770251329281866 120.03773995953584 3.5250714290039511
v 5.2156615896595948 105.06770055967519 21.848920390219284
v 21.017138242450635 148.54465006774322 23.835465190683927
v 29.581987075150998 127.58920284083325 45.638120755142836
v 37.353089498318987 136.56466535297281 12.282323966158902
v 36.650487885479194 124.50694515840566 46.140456221118406
v 9.8935814748705244 120.41372690636369 36.351329104639674
v 6.4885744715682101 122.70865550884967 36.514797221893929
v 40.881350269083875 142.98954648448355 21.408153391475995
v 31.652271352602071 151.27065599493378 25.771245550796184
v 20.630068166300372 122.41613371910154 5.2533971435337712
v 23.589932988491242 131.55419391390558 45.888968307309788
v 17.275790336479822 142.07238300268256 44.942797826361954
v -3.7197152375362208 122.66940968995462 3.2226739350144165
v 41.072567803955302 132.15683042294975 46.242369769946635
v 27.439380334120983 117.26346199846037 4.6442189362107662
v 18.774341800002528 102.20584381979839 34.697904898565632
v 30.854919932955283 123.06967573563446 43.744532600788688
v 30.675063816677387 125.82037248518438 45.069113984670317
v 38.414209863287539 132.40407655719147 48.173567976672331
v 26.49555606136726 152.52590216423485 22.018978189994996
v 24.834290328792271 121.31249196924442 46.013124251996146
v 32.149315522422704 137.40150155988843 46.112802257879565
v 30.672390920095182 148.99546135391012 30.027153071171139
v 38.118644580457513 127.04675232471911 10.020151642869696
v -0.67580953197077065 113.6004384687506 14.170010236930986
v 37.660115372507462 144.84506035376194 30.193530912316643
v 21.183337920061845 108.87596616883798 2.3210957367998653
v 39.591714396787047 135.02748183261377 12.160648330578837
v -2.4110210912224161 124.93335793382334 2.6156858424246252
v 40.286210116751278 144.24598288393042 28.817203817973279
v 6.7576791841698594 135.12884790988744 7.6023868445794847
v 34.577525518963661 120.92086698842397 32.346391001680345
v 9.6261839235802764 123.00359719614192 37.570098038385225
v -7.2719861576940481 116.52423242749835 22.199096530873113
v -2.6250482764900198 116.44300767808713 11.600257733633313
v 32.591181840145808 121.09872047633549 45.193252856172165
v 25.855975502815262 117.36649388243595 44.333879579970898
v 38.021135313274684 126.87806819419001 40.960883306762483
v 5.7489111401267472 112.93449124888619 31.409241191547601
v 12.701726746492659 132.47872662011758 43.201757195775983
v 19.273981802079621 128.13661866469732 42.930027023302785
v 13.180706244544361 124.4986603415805 4.1405554076413935
v 10.070089916564021 130.93354370048669 6.4610697137847097
v 17.786451791968656 114.29031544590902 35.570175585074487
v 25.067193094223786 150.18253000735623 20.432996777070422
v 28.565254135890047 110.52006304373526 37.502733602311238
v -6.4680953687963374 111.44667005095758 27.130329064036012
v 8.7791451860731975 103.73040265543423 20.766674813021126
v 33.315517305042746 131.23685559815425 48.543715148880821
v 17.013988995610873 149.71084112966798 17.867184688227411
v 6.7105913843850846 125.6558751130575 2.8479235646839598
v -4.621714114924572 114.14210669099693 29.013435114338122
v -4.6873944206557425 114.66652077727063 16.046404394514685
v 23.084687793014862 101.03907118455484 23.669912841328582
v 38.220379849759382 138.8506838190288 18.567014315748366
v 39.859164139482928 145.74460254554199 26.94243554611397
v 14.182700157376679 153.63932119179975 22.122141741042832
v 22.990089555040143 100.87542292851336 27.310300429710807
v 7.967825626228155 142.88802814117409 43.604976995830711
v 16.949810924418095 128.4284624332804 7.1976456762254841
v -3.1663979674782503 123.62660940340822 5.8822862012232413
v 33.386743419407175 123.64192479521786 4.667569580109209
v 15.529566433242028 152.17298660799025 18.669953381924103
v 19.94388193216427 151.86444504342685 19.792579697387353
v 21.670219841697893 104.51573971937029 36.691677410964104
v 24.770162897134835 103.95482381690586 34.609873565066387
v 22.736942486768044 144.61480577136879 16.972445636779323
v 29.372725049070731 117.84267731563432 45.589567877334161
v 17.270553718669518 108.22776299433018 34.876578121753518
v 24.870542916928006 121.37520638076431 43.670195461026246
v 10.846609679150715 147.86812079265334 22.347672511864243
v 16.961601798308358 96.924200024133654 23.876304249421828
v 21.536503829420365 98.360822507858288 24.851366493334162
v 23.638676087549769 153.05203790597636 21.455807132708284
v 10.726887574465787 103.05042608599304 27.902768175025045
v 25.254924456699534 104.79342700357313 31.15832551185629
v 37.753620368762867 131.57015912228499 49.994440678841599
v 34.316513063514606 126.34055323804986 46.382896153516029
v 43.820389448763358 141.50760982297669 29.858723503201578
v 36.811437819100206 124.78537715154816 43.404937944735508
v 36.314151164299098 129.29996892991068 48.441870911374167
v 17.080441891398493 102.48792242094476 29.459308583448845
v 13.601411111126311 103.36616880142439 28.892369655799943
v 10.075986903404262 105.7803438196791 29.080679714910421
v 10.882141013392786 108.44569178042701 30.647795193614915
v 27.839920766219681 154.92007293494873 23.606081993081265
v 12.279087753502868 111.22502104729121 32.442867012178709
v 22.610929298628246 123.0836346248103 41.366574071840333
v 22.022583448761122 126.74095944268576 43.026712262981121
v 19.385053582926414 133.64934009511566 45.721054374938916
v 16.438469237971283 132.71099122100765 44.399016785776993
v 39.515363884485907 129.4629778610213 47.435708938997529
v 10.621675738076593 136.6581614888083 44.691647736014097
v 12.277030426754056 139.91146661313374 44.332246395655467
v 13.060742508377647 141.11366595310412 41.853202098351019
v 21.311603834252612 138.81396001702996 48.863079604150755
v -7.7093644629933209 115.7675989169278 25.131400973811065
v -6.0093306842403358 111.7488030071372 21.560759091061001
v 41.723879165278738 133.28355297827963 14.987826548915258
v -3.2124951003047961 118.08621334851773 31.3949813699376
v 6.7021860963962521 140.69856133641719 42.85795597614154
v 7.4321589239123291 141.96136266060881 40.206999230993056
v 25.608362922780437 110.88777168265361 0.924111914004623
v 31.835851106987541 116.17796431117398 8.1977057012506815
v 40.36916361776268 130.93999096772166 14.004685700539758
v 40.001913108464358 130.30467358059363 20.817139508677279
v 18.798204657502104 150.69389921548199 22.53759135447666
v 29.429291036284212 112.01478572496293 6.1614202612000319
v 43.997162498689818 137.21617224229058 22.404079264391239
v 41.947653914312255 139.14150059451975 19.790837741284424
v 45.051123900750888 139.03945086856282 26.209752023074433
v 25.956226072850445 123.25336139595383 4.8433320430939375
v 34.514032597996199 120.8110287291735 35.577940483617169
v 36.969096588058349 125.05811566277225 13.469889393573009
v 30.585870631963779 136.65249658529376 15.258285687403822
v 40.579475922434099 131.30381636891718 17.612720329826427
v 36.388720100268266 142.89890633595775 20.063096685957824
v 22.584527101576644 151.25612185438851 26.305562234182062
v 27.351916794286691 148.75588314540514 20.379976431066247
v 28.033835908710394 151.65199884390537 28.332803217963537
v 38.881044172874688 128.36564965702613 20.351621465638772
v 14.641889042840685 112.08618276804421 3.1764676524794631
v 28.174193990042479 109.84355667062098 4.8928315244867875
v -0.63987957740408419 121.92722076444416 1.6678546695726979
v 23.825527714820304 153.40296507738805 24.399809883535674
v 2.3648029305055189 125.13203013312992 1.3285458622086068
v 16.428004969333522 150.46493034156143 24.932542481297389
v 19.877374469430983 148.70961655798746 18.194474945360199
v 13.288620761927113 152.09262712053135 20.382971064721673
v 27.05034146580261 107.89937134986677 3.4438617257726136
v 7.8886567240897776 139.17691116430294 45.161531971475526
v 19.784387421177929 146.41207840093389 34.262146187565243
v 24.050552333003637 107.46863075324303 1.9465474640785416
v 20.580650188275168 126.41244827425457 7.2390951143085545
v 30.789955711168812 114.36863930478978 8.9373689064053181
v 37.556121810452829 134.01599130048919 46.502296211608481
v -3.2439732135775436 123.49240971842539 12.578334985502231
v 34.914550795181199 136.14553558302666 11.367109618094604
v 14.816729071642705 130.55526584139042 42.851001984454143
v 10.080930583537299 146.54355015193977 24.530549915800918
v 25.88165922218111 110.17346857550753 40.741490540688851
v 22.993222075966138 107.97881402358399 38.807544290358841
v 13.16437936933626 126.29230580788361 40.239546001136084
v 0.85746623662232579 109.44629680031731 28.248470451554049
v 8.5061467293997755 129.83338615037192 40.664111053915278
v 30.003575920465551 113.00825792676412 40.988259564350621
v 16.271436246975469 143.36572349330743 14.476892371085446
v 19.820468863643665 106.59219999726976 37.195738564195317
v 20.63963654007236 109.36835324246022 38.822072379406137
v 18.100206223688083 107.63180505860959 37.218355793144347
v 22.854930567573039 112.23897121320587 40.899574205448936
v 24.603514399307095 114.7759744520021 42.675098430241647
v 18.261963095349962 109.94283104412068 36.232692516939579
v 19.291924773161785 111.72459184614006 37.026275847844509
v 20.665328348135574 114.10048282146299 38.71965105775795
v 21.929631396474104 116.28763760783241 40.008888341701621
v 23.414917856137627 118.85707805460805 41.743001176925802
v 26.798841692040494 107.46429454238969 36.516215642516357
v 6.185879781485367 139.80538795573597 39.852621653650672
v 6.9850322274974292 141.18786512339844 37.357017295848237
v 18.96491239009335 98.233636145735318 27.875377488906363
v 38.964094879986618 128.50932150200816 44.733581210951755
v 13.036899680002904 100.33863922702793 27.213902872344665
v 28.34299074606529 122.07460523231977 47.409580331188288
v 26.187632705931946 106.40694625773908 6.8742462210858157
v 31.102934250577885 130.04668224334921 47.3079923833821
v 38.097567099161843 138.94933189513839 13.691127010281674
v 24.286465622765039 103.11806176829576 27.885832848907381
v 27.092309016935673 119.91101436406602 0.97945157765901669
v 24.985102281914514 147.62501575262377 19.129315535731404
v 32.77505132822408 117.80271421740586 4.3833283143004529
v 26.628776635092894 128.98728647750434 45.4834565582388
v 29.983881498528245 133.24254536675096 48.583656801818094
v 20.095762946397294 101.61014719149097 14.144715123529545
v 7.9380087115985081 103.81997687518663 27.481088910817455
v -1.4680965486831781 126.56455065230176 31.70734479835356
v 39.634404940578662 129.6689104623465 23.452373310249946
v 4.5757266641688865 137.01993702927152 39.100473145746264
v 14.826447925085123 113.91076068311574 34.523909723917384
v 16.431241394507296 112.00688936025884 34.035357429149286
v 4.4288504423177315 136.76585156135479 28.168483311148503
v 19.120720529693223 111.42842062276043 34.523909723917384
v 16.48726039149852 117.34797756157352 36.724562779097631
v 19.113643680389313 115.93631554174411 36.777882116789897
v -7.2009230832310784 110.84572413633225 23.944936089469937
v 20.056981220958537 117.86109604861689 38.014059903740176
v 1.8502630105557749 106.9002217195408 22.017974438212775
v -1.135456807713112 109.08383524769052 21.33248568427318
v 11.023159489862753 101.68280000080497 21.89059848764721
v 21.470525497864305 115.49341689871174 37.238063073360031
v 13.830295169868812 100.07405014380417 21.86972303137474
v -3.2224678796816555 119.1233608190917 8.1031060392736052
v 18.913054420650489 122.24857194233012 39.878882543489524
v 21.00980658345615 120.08453318366199 39.402448072377496
v 32.448033763950683 117.23699697748671 46.176120389963572
v 19.504471678943155 125.33749670382095 41.595858861582641
v 29.605566564542912 112.31972991208443 32.118863733521266
v 22.902065041135668 129.03312269133065 44.428277102911053
v 25.925285857324006 132.26009171172171 46.917847358502051
v 26.241489750861795 106.50011513347091 1.5002708223738992
v 41.685401580808595 133.21698948058625 39.209180039547775
v 6.2302119413072035 105.80390586863442 27.979908513585691
v 15.015254952797219 144.47066502351362 35.13327532060238
v 35.617050946866321 122.71917240117912 40.377027059004647
v 7.6459622380580843 110.7957269705992 30.887683080787738
v 9.1848353450034992 113.49404772551499 32.683271977793893
v 10.555754691521392 116.38412735481229 34.526240296248403
v 12.484739183755268 118.58701900755086 36.186744130405209
v 24.021862312622773 102.66031677034817 36.443431176441308
v 14.650294854055474 120.94349399459942 37.992549065985834
v 43.38016966435621 141.54862150362112 21.409924213806828
v 16.449433295432698 124.4690106510665 40.277409598765161
v 38.424918839743341 137.62902178056294 40.33887916459723
v 39.672334331814099 140.80486727075501 19.965047375114068
v 22.681762950519918 134.74782357156118 47.224522258424784
v 24.276164586651014 137.10027097243164 48.863079604150755
v 2.4224443633618797 106.58377278915516 27.268632755219841
v 4.5882611798280539 109.45799055731753 29.333622630275126
v 16.55715394875067 148.8871129293295 27.183832738216744
v 31.005324504750558 150.19054587020835 27.949030587542197
v 30.010005096113371 113.01937994557836 43.360063838683843
v 29.021044835083895 134.13376959955258 13.545068251603173
v 12.407235714919199 123.1528848580396 38.449354576252688
v 3.462921070705324 114.24451272134405 31.403528877207165
v 15.95135030887041 127.86464454896731 41.832694618880879
v 16.063571302918739 122.34785143762849 3.8981603916905314
v 18.920243159222146 139.78375113031632 48.656612531969756
v 2.241633532241373 112.02243011136942 29.938153857234926
v 5.3731597891851326 117.26260107938454 33.466582744363329
v -5.0549004881965054 120.35963371060448 31.999738147369936
v 25.431745423953814 128.56784652892028 9.7211821327447829
v 6.7688811790099894 119.79394786455437 35.137194839678962
v 9.1725285855725378 125.33790252249082 38.607083583491274
v 9.5772060226125415 127.67752162770597 39.895039749222903
v 12.204174958385574 129.22110184759271 41.427508123799697
v -2.9865097391164035 110.80451054363357 27.81615905968992
v -1.3392972086627459 115.90793573978611 30.846747819345271
v 0.6462186887622714 119.03024294524511 32.983736321914328
v 3.2267033967254228 121.19284579528198 34.812552919744306
v 4.5751348078368714 125.50693735554745 37.361676161442922
v 9.3374540765735752 132.52511552491626 42.251706069829638
v 1.0378803380594306 124.83625657677229 36.002717813338556
v 3.8731840829664534 128.4862247961365 38.64961866742739
v 5.3900232324582298 130.78334221551921 40.23804715653479
v 20.923231571501471 144.21182676936633 16.246073585191972
v 7.2887056234625351 136.08476523439219 43.440474791429779
v 10.55541058175608 99.243978699547398 25.948187281482301
v 31.709584300959534 136.27522231159799 48.180335973315465
v 28.530851345482347 131.14629874589065 47.114215666883482
v 26.909020831607709 134.85010185606546 48.498632534212973
v 20.718647307158925 131.25862100192785 44.910397695110092
v 30.494153722408072 113.8569228010719 38.234224563673934
v 31.75341905161546 116.03536268991375 40.809533621261451
v 34.909195281548669 135.12873678512716 47.127336376423131
v 10.859336740388128 100.33306109143663 24.053937987940937
v 28.745023548561115 137.98891135619633 48.180335973315465
v 2.2493936238703505 105.44073770843855 23.858297120367425
v -1.513944437775816 107.78141637574933 23.610802043572516
v -3.9419869467602489 109.43410763495859 23.237662676318735
v 9.0915748980950255 127.96030983269065 4.6900066191743193
v 17.254521389450453 136.71765932656751 11.43420575701303
v 19.608053056071789 130.31891565405994 8.9127571808174508
v 13.810171184276481 134.64760201321704 44.607859215775733
v 13.874990743083959 98.775548257365543 23.775797886634827
v -5.8540046609401344 118.97724005227961 15.42086448079273
v 28.383096714497174 110.20494359781152 32.373622752248728
v 29.744212192842305 112.55957703571725 34.693614603430021
v 31.348313123524484 115.33455810767758 35.419295309267852
v 30.076087568958407 113.13369794628879 3.3405973979020409
v 34.268762169693403 120.38672824842854 38.434715399006571
v 28.293886389997915 149.7725511575976 30.922516851581598
v 7.94812834583729 102.80878058980946 22.866452176591892
v 27.839114298945127 139.59428665587217 46.560260025827219
v 31.155602746641698 120.51406037820561 2.4567419240195534
v 41.792353960658815 133.40200952764729 11.983798753995147
v 25.285792002092776 141.14278308574322 46.451635801508921
v 29.470565195233789 151.0760698016268 22.154050486407762
v 32.486743028988357 117.3039612661636 36.916662828760508
v 3.4523565692325775 109.64106528744378 16.525975873280785
v 22.29785708813959 142.58915994742358 46.872226535359893
v -0.38739125865263802 114.94576450006682 11.905410117686719
v 1.360516285429167 112.41071376928765 14.18889566585977
v 29.012364546657807 122.79336644506463 45.753572377096461
v -5.791862211421094 119.08474209151055 26.357830594636603
v 17.728874079276618 104.03659097666836 32.861112909017791
v -4.182016814112405 121.86966068414191 28.631358043841125
v -2.9291372249539336 124.03705369468123 30.155379798104001
v -0.13680231652392294 128.86759544505108 33.820476576612123
v 1.6547426090134927 131.96684136084184 35.043020509550821
v 3.1895824367098484 134.62200562693133 37.132260838809998
v 37.885651758953713 126.64369123472852 45.807987254750913
v 33.008850201952434 118.20716972069262 30.508941958657914
v 22.187093688721085 99.486296915756711 21.565500119005552
v 33.809223878906465 142.03654411862237 18.885284074931249
v 24.483074175322891 103.45818064828515 24.640421408381595
v 16.24994285695098 95.952206869195095 25.948187281482301
v 27.756667428647056 109.12126527189942 27.878915057748529
v 29.406366647497215 111.97512815494761 29.461243713972575
v 30.828036414588652 114.43451622635733 31.8641047147938
v 32.647859750835856 117.58268179113267 33.489654849990607
v -7.8144900977076617 109.86285285123682 25.948187281482301
v 15.193913543371941 145.32829148371542 15.147356721738774
v 36.589186884463331 124.40089876552757 37.628815990680103
v 34.092778163315749 125.51639294902718 5.8099175752707453
v 20.758084486792342 141.39457025113359 49.994440678841599
v 39.554571539033518 129.5308043282744 41.256443326806647
v 18.596027673862736 98.689614322920079 19.817217243587987
v 10.621544007094235 100.88511967611439 26.788644246455274
v 16.218116358836706 99.96980396162067 19.958573187299784
v 41.969379445569579 133.70825108669499 20.966980097097228
v 8.3227606206322164 143.50204055922609 37.928733466849017
v 14.792901442565221 142.31357720493867 38.556457483227184
v 33.337555909765193 136.02253956395327 15.73906609103846
v 38.88349526848102 135.00124188682884 43.877496580406557
v 13.5611474686308 101.54354953259586 19.901866300469386
v 35.108112999464431 137.12243087458052 43.96915929973364
v 31.961756819046997 139.04854299061782 43.808403757138649
v 8.2544793684439153 105.42936567266619 18.676366984873873
v 10.738704762187279 103.83213876479344 18.917796327918033
v 28.961460877854208 140.66759992205613 43.981072671312106
v 4.9621394193329831 107.14423489504668 18.958377493515904
v 1.6588447462002875 108.60868286604821 19.624928882804966
v 17.64934483315696 142.71860584178029 41.49091149342803
v 22.67064416540391 144.47675964505513 43.722418264821229
v 18.201453436533054 143.67371464742357 33.568387796244281
v 23.272683596733369 152.44658388335472 31.264765088227371
v 25.674851126710934 142.89923444833846 43.484161132683312
v 13.975514684215629 108.64083810960125 8.9134916816102674
v 28.166938132819823 109.83100455119471 12.734963753858985
v 15.043652319162245 106.18442332613341 11.667721403831203
v -3.6059183225982103 111.54250338813927 19.788956799204051
v 21.314724572678951 149.05945335590448 27.739337308967944
v -5.9935934581056962 118.73576131326571 22.535839717447793
v -4.5369728232796511 121.25561191203703 24.182516304315069
v -3.1313905712460475 123.68716972106958 25.99459489068121
v -0.40703692130657743 128.40010870595813 29.195914750773539
v 1.1179687586268336 131.03826059247783 30.957445872076082
v 2.5418088937362597 133.50140324694024 32.164501142019461
v 3.9141381230460297 135.87543568030651 34.056886411763571
v 5.4172372931007455 138.47569085527687 36.056646042225239
v -6.0722284687526979 114.03420350449849 18.192361728334909
v -7.0549728346800258 116.8996501161291 19.139607593953684
v 38.899211559683167 128.39707795031879 8.6420609313304926
v -1.8900065698571389 125.83467617842423 27.888986481115339
v 22.579857006730961 100.16574965616141 18.153742431598289
v 24.123266547595087 102.83573891946763 20.02410442287114
v 25.660060381844204 105.49428347858901 21.62781882287797
v 26.590110355935412 107.10320410491315 23.88536813782564
v 28.155347959123379 109.81095437105131 24.049333104970763
v 29.888925211380609 112.80992031501407 26.090296974184053
v 31.473431380604701 115.55100383656736 28.847768126199867
v 36.049862259614571 123.46790533788774 33.535134986533052
v 37.502459623476469 125.98079596265782 35.002674130008025
v 38.720389978043613 128.08772927105784 37.409442268503042
v 40.233638040346847 130.70554131128048 38.375170499837679
v 17.348757560441161 101.25367758982188 17.056847744337496
v 12.570322000305801 113.51383023273853 2.8317549636780335
v 37.203602222614613 125.46379381226681 16.008260004185999
v 37.701383145079959 126.32491957524287 20.320526356262675
v 20.358117603618645 100.26148326503971 15.937477335204795
v 41.284955478324491 136.77072219096118 39.148252383037075
v 36.398592182440183 138.59138135737106 15.698134943060493
v 14.022031886707932 103.06830282342457 17.219223130801502
v 35.117181744774271 139.36046669372197 40.609394437916833
v 32.339625425351819 152.31898116374981 23.606081993081265
v 32.07749514549208 140.92198251914422 40.902345703054159
v 15.372280401067604 138.77944554468175 43.347934901109227
v 12.062303453060956 105.87802651433501 14.707745018574357
v 36.981221052943674 149.62204654701691 23.599164844981463
v 29.367377256847554 142.40170082519535 41.032478024274667
v -8.4460730344877426 114.49314523240898 22.908861090763203
v 8.6381203244709539 107.01595800129914 15.967981574992159
v 6.4083478674347667 108.6417124937459 15.463531242348388
v 18.49930602053302 144.18897853576433 38.623867543587245
v 23.495141789575914 145.71243005885233 41.157933746898593
v 26.530031736631567 144.45173953543573 40.418588199956574
v -0.055650778750916174 111.54904582958909 16.7054791045054
v -2.9999360048751846 113.02688460657646 17.041159079012548
v 18.33122196478968 148.8674218253407 25.677407327722676
v -5.4637369126832596 119.65237563364782 19.249152526574626
v -3.9354221640487417 122.29625197480486 20.83883554860946
v -2.4587945647161717 124.85071320608131 22.920547248658227
v -1.1006970383260573 127.20012580071523 25.007851816381393
v 0.65251750212575033 130.23306286332911 26.445363099258707
v 2.0976416888182818 132.73302542054702 28.365221923240515
v 3.5185557350399641 135.1911061483419 29.636240998894731
v 5.0856907372816256 137.90213878054524 31.458529188271971
v 6.7683564476637947 140.81303136057849 33.714970048000488
v 12.121005125639327 144.91223067730422 36.977666274328335
v 8.37875518061335 143.59890718470351 35.049679017504872
v 25.060724758580726 127.10721180129276 44.08892557028696
v 42.735155342841765 145.02502067742904 25.530237961650009
v 24.603911578963672 103.66722080372313 16.681646215315016
v 26.219957507160704 106.4628658759183 18.393100708241626
v 27.599156454427426 108.84878243511207 20.267340127420461
v 29.275607916982413 111.74892480624821 21.943359269688216
v 30.907006805914229 114.57112941383338 23.496649749191043
v 32.067357958449094 116.57845477816831 25.529134999819139
v 33.644681014287066 119.30711202198373 26.82187130000959
v 34.981912600767131 121.62042801746263 29.121749299416937
v 36.399050027061065 124.07197546009134 30.356687303622483
v 37.953549081039711 126.76114879617093 31.966422185963118
v 39.394392760701948 129.25370637920034 34.465523139767384
v 41.143222298725298 132.27905769798306 35.517222168194415
v 13.85563151146196 116.74311612260276 35.660537215606077
v 28.189587395423327 121.83287420582288 2.2587019877218601
v 35.119354552788657 148.6738400003066 22.585997221142545
v 26.68891923026262 154.21666438310857 25.656070167997601
v 21.906445190142342 102.42095743918064 35.711662109435153
v 18.379685027521862 104.51533713203442 35.73954101451951
v 42.206288468579316 138.17642632129085 36.245271645291339
v 15.513497530806379 104.2560542638885 14.149072888807336
v 18.871397642953315 103.39637891276089 12.529476388783884
v 33.570424068261552 141.88721673822866 38.164193377440284
v 36.439621414763856 141.14355681861824 36.793939417232949
v 30.466769202775833 143.69387859643945 38.145369789917552
v 24.151271669263487 124.89365242437353 42.718028198547934
v 9.6243049455960321 108.63641574597551 12.687217714863154
v 4.4740197056749587 110.47140422296849 14.397859642972373
v 6.9182348889509875 110.00303783658912 12.983230154437127
v 24.261305091462795 147.25289601621628 38.187459468142777
v 20.549901172295172 147.73636300737215 37.398553444547048
v 27.317952406186627 146.07441028946795 37.306158875424892
v 4.1202516642036144 111.85564115324115 12.630961664953588
v -2.445614998291088 114.94602556227233 13.686946578443385
v -4.794049673392248 116.18767256350542 13.860508264269285
v 15.622925408689849 98.261367663908956 26.922436228931456
v -4.4401093913465886 121.42317879329622 16.304213338202743
v -3.0662444004068519 123.79986798558126 18.062465002992173
v -1.6691935738413051 126.21666703240759 19.927479934546351
v -0.15947120306437057 128.82837987583784 22.126208115410599
v 1.3951098939694511 131.51769514059589 23.575245172897603
v 2.7004736821461854 133.77588210060992 25.233110729866347
v 5.8659766848571024 139.25197824128151 28.399782338755095
v 7.2449671600922656 141.63753415861632 30.88229597648688
v 13.298747387958644 146.3555626549832 33.796341337318978
v 9.061554737736973 144.78010209003602 32.217376271880397
v 41.912778235160147 133.61033499891528 32.660500796065875
v 3.9668371219407064 135.96660121836388 24.479924345963337
v 33.579003456325921 119.1934944953626 41.368055010231714
v 24.315079045677713 103.16756096467918 12.194818476426203
v 25.431960158571989 105.0996862372414 13.651807567571046
v 26.989409215056135 107.79396286885459 14.693654818528154
v 28.343932493685813 110.13719226784789 16.872701589494611
v 29.862756662721456 112.76465057804126 18.682719202001778
v 31.532029600653232 115.65237460967457 20.508215475157911
v 33.084411469574292 118.3378853654587 22.615052408251803
v 34.647526083281292 121.04196301005982 23.828504344882933
v 35.914220307068625 123.23325436070847 26.192521417730163
v 37.559690347129902 126.07980106379279 27.820686201448503
v 39.195352689091429 128.90938114335253 29.516185371114858
v 40.548202118302584 131.24971490132671 31.806642213280501
v 42.908077529139774 135.33213233030534 34.214012585844493
v 15.990075203925663 152.50609509011448 22.254625419426731
v 10.036468214619489 141.71954856585185 43.564064970950099
v 38.141012397332304 147.82586395146791 25.312830363525077
v 35.208421470251189 149.26700669961389 25.693345645004324
v 32.971795786894937 118.14306820535133 44.184335132624767
v 42.774401079028138 139.72050176277094 33.440855765296646
v 17.482378394001515 105.16165936452775 11.088167211771825
v 38.623395801490631 144.98853886853075 21.755353801722574
v 39.887246392626437 141.09304128237355 33.884781452270801
v 12.464714308940234 107.79798551520761 11.48382503678175
v 34.393909405609399 143.53792511070384 34.978981559734969
v 30.559447370512249 145.55697595768171 35.274765792625885
v 7.6911154645472397 111.5802622629609 9.9518870515983444
v 24.854410150978733 148.66058305867392 35.565675477103952
v 21.158153899484113 148.7885971733356 34.168342015057746
v 28.444507225064132 148.07100995501651 33.340519160356379
v 2.2868774606792392 113.44723504468236 11.834488086914616
v 4.7836865136103981 113.46130971341259 9.6517714049915639
v 1.7321779301292928 114.93841976947981 10.081372463839813
v -4.4236523572237481 117.8318231086074 11.07738353838598
v -4.6422615910795777 121.07346979607269 12.733541829856257
v -2.8744617162333803 124.1316384548402 15.142156709406821
v -1.1375042103249129 127.13645199836554 16.793625305372139
v 0.48170583811801393 129.93757077462996 18.492342829642226
v 1.9228395835414851 132.43063015089547 20.530784556624376
v 5.3565644398909402 138.37073111364302 24.429673569345752
v 6.7844449313522492 140.8408632986181 26.023221104495516
v 8.0201944162050367 142.97862244117584 28.293637350122232
v 13.539663823586586 148.02802098476988 31.082919296839371
v 9.8271548915416655 146.10453616700801 29.4420186200933
v 20.291234487895824 147.28888795176599 31.410533410100751
v 16.63986241564735 147.03511466783064 29.885970873169061
v 7.2573065257788265 131.62970527387958 41.201813270467028
v 22.317117179564288 136.3794818336689 12.729544662616625
v 16.186340816273066 140.57576997984557 13.056015429852215
v 4.1813231387485921 136.3376468461405 20.216477770970094
v 12.336904511064416 120.41866123126977 37.060639412211202
v 26.656925797214363 107.21879008913479 10.804441986288765
v 29.762990303768206 112.59206183850605 14.542955585802227
v 31.189620742783255 115.06003152122773 16.126975633488613
v 6.4642930336190432 127.9042163163713 39.107941471850637
v 32.559824143197773 117.43038642107118 17.92138891759793
v 33.863569127909145 119.6857729656689 20.027297120922945
v 8.1429070595281505 116.74515009519203 34.008893126564303
v 35.51716985450058 122.54638518096112 21.094570635202484
v 36.907376650022925 124.95134453850264 23.536080652561079
v 38.527082201601516 127.75332050012008 24.944043991360218
v 39.975423767362969 130.25884889540143 26.077464803557472
v 22.060566060784964 139.08840061232559 14.011030383618291
v 41.435426026853982 132.78454946549203 29.079706260063507
v 43.389026000820259 136.16413914482297 30.956235451245867
v 14.463183459629114 126.50308078133584 5.5147011465611655
v 19.726293147712411 105.29749094804023 8.9420405315114113
v 22.589943372019125 104.85887103739962 7.1197296359669018
v 10.050358739731477 105.61169546543624 16.848490826545738
v 16.732281509413347 107.28115127375753 8.5632010622650725
v 37.76564677988025 143.24577404147172 32.497422355878989
v 41.253033986678929 142.2666977901751 30.94454824508335
v 34.872011825137243 144.84800115349273 32.602954546679385
v 10.886253481503813 110.22082646243447 9.2216962832289102
v 31.830262267417702 146.79844154211816 32.315198258433462
v 25.442968533896046 150.31415505132946 32.579565128525346
v 22.01010310545545 150.26240899877772 31.214001275223517
v 5.2934314255761894 115.44585613730662 6.2381931150539387
v -0.1286611313478403 116.50907602434245 9.3400352230373809
v 2.3987981717097639 116.18220986434986 7.641410970646735
v -3.8617943008389908 122.42362296678418 9.5223300876162167
v -0.42996780627412079 118.17955189176394 7.0990173160355425
v 34.357320863116755 137.78666075437962 12.027222837276542
v -1.7220591728066275 126.12521328801994 12.661757950059178
v -0.089523593136316748 128.94938429012782 14.216447774743443
v 1.3876104688648354 131.50472166597353 15.741968672957757
v 2.6061332354530862 133.6126798052392 17.84210073178896
v 6.1109597537376938 139.67578161056531 21.365587103374295
v 7.4543336225507808 141.99972331973015 23.331917136159372
v 8.8344629076818642 144.38724929758004 25.415506031492491
v 14.561117940862712 149.07484637114095 28.630751567233851
v 10.588985844101154 147.42244979260951 26.81464725263374
v 28.660557710547014 110.68493148231336 9.5678025786867735
v 30.21824907399386 113.37962728782156 11.639101995499908
v 32.986686335935104 118.1688278012391 14.970858134200338
v 34.59655014372548 120.95377824270068 16.835480688449287
v 36.154316751708066 123.64860421592991 18.131200814636607
v 41.825451232901472 133.45926546600515 25.84204619352802
v 44.572260952679812 138.21105186227635 28.85095329813711
v 43.518369347546553 136.38789397974898 26.684076580677974
v 27.507129542228853 108.68958239066512 7.5026554067101117
v 32.418492400707187 117.18589251001052 11.634119006863861
v 42.525445591592103 134.67020616100206 23.683105979541899
v 17.897851517136914 108.23361864566874 6.1275838868237109
v 21.048614349445451 107.30014327139209 4.7978490590176008
v 42.512875018047048 143.35747134241933 28.220173388403992
v 14.989115925394358 110.12082943822674 5.8193686198851573
v 11.888282676747945 112.19382937400627 5.399206787066877
v 35.848564170082931 147.45327609234334 27.855566018048357
v 8.8503901857531897 113.95197127158723 5.3961172791902392
v -9.0993750450254041 113.36297899483647 25.771496876344521
v 6.8772721025451542 115.99372056365982 4.0464291362033613
v 2.2602709891748383 118.05663773143679 4.9540055449370115
v -2.1237415885333526 120.22955101354194 5.4951282991845822
v -2.2594830644587631 125.19550799427653 8.5147353679464786
v -0.5784563580339217 128.10356521347217 10.029163671759564
v 1.0190858124000677 130.86720009443158 11.751163915293054
v 2.4303099926937115 133.30851804001884 13.213294890813311
v 3.5476390654829899 135.24141825149283 15.096114188583837
v 5.02423821730744 137.79583027059374 16.558350662039899
v 6.715337047630392 140.72131155122909 18.05952242474558
v 7.8821141848615444 142.73975341425796 20.21043101190077
v 9.5728753229734451 145.66465051127003 22.246452578968096
v 27.006238601851031 120.74846353607678 46.359184301480425
v 11.739556077760659 149.41285485958261 24.211199908331899
v 21.003773267854044 100.57439547465145 29.636665214625921
v 35.427818178473522 122.39181310573792 11.284999543558747
v 25.950762050841909 123.24390902462206 42.412981507558463
v 34.059535127347836 120.02478027424199 11.807380354938424
v 35.725893122978491 122.90746166201372 13.907834928878493
v 38.737848686484213 128.11793160093427 17.24441648122567
v 17.664041870184818 110.08849009574645 3.5519599014083454
v 37.204014892704635 142.33646359242937 34.345537897633214
v 10.101091935918042 115.91456020083609 1.3739341269010303
v 4.3934810339680528 118.40014188949338 2.5926906671326755
v 2.1041953548628136 120.3161755783338 1.7050123979943983
v -1.4053106838715337 126.67316575444804 4.5578186905912794
v 0.27376864280057589 129.5778541445068 6.6065876171762987
v 1.5560363035119416 131.79608643874758 8.9636692625001899
v 2.9856519447967109 134.26922031010352 10.652091191126953
v 4.4408892709156795 136.78667788272205 12.596721777153538
v 6.0316665975983543 139.53861006280673 14.446452595898318
v 7.7568845269666422 142.52311496984373 15.587163025020468
v 19.952996608669306 132.26848617751753 9.9882290469030615
v 9.0384080467700336 144.74005995298393 17.80269751015992
v 10.52170488438739 147.30605849444498 19.670734055726211
v 12.094186290145405 150.02634002631365 21.399184748997953
v -0.11458472106210138 128.90603031264061 4.3905122542204253
v 1.5557562415707196 131.79560195141204 6.3750603920397246
v 4.2248301382041475 136.4129108757771 9.8087164945433756
v 5.6374860827681132 138.85670567221186 11.299488418097846
v 7.1176018850212692 141.41720124764623 12.947634162091788
v 9.0239742337126838 144.71509047801871 15.107375598101825
v 10.270095357524399 146.87079182187173 16.614164679024121
v 11.566151042985014 149.11287642301355 18.12640215048987
v 33.373811444006478 118.83852683752218 7.9947759118832131
v 38.212300053138215 127.20876966353077 13.031943858267518
v 14.359346632537301 108.89989007494381 31.881040959139629
v 24.009770220962981 113.99484931944761 2.016614316860494
v 35.372430829806632 122.29599691285577 7.9718924474304842
v 36.735965504688721 124.65481538953993 9.807909538481006
v 26.328326952402705 106.65033734580734 33.410055575971654
v 18.843257131248279 110.90483179134128 1.3084050806251746
v 20.251704014112846 113.88735912904431 0.87563044756635833
v 27.87699074313344 109.32941608948747 0.80052020153491199
v 32.508971531935252 124.51162431209099 44.944678417639224
v 15.263082748618572 113.05978853466436 1.1804905745072318
v 17.3743744394876 115.64010852465765 0.92041411294743725
v 24.497715028326034 125.95022541360125 8.140958059861287
v 22.282632676103553 129.50685532265021 9.2800959454961696
v 27.280989474117156 131.43536001220875 11.691233898852355
v 19.067186222535149 99.756463568601518 17.811483518085282
v -0.30170541529992434 120.2076133549272 3.9505386567680105
v 25.134830950102302 134.6079406004356 12.658109892346589
v 29.553995206880714 139.23170542370838 16.25055944964577
v 12.697752503675511 114.62035978992373 1.0641778442467746
v 14.375746088517174 117.08339506994042 0.77523297994169482
v -2.28543946322851 117.58887471316729 9.5900692864355523
v 22.529659955567013 151.1612055752835 28.915757072218806
v 27.158701679012719 140.50654459388917 16.195618878909027
v 32.443287067293035 144.30120956007133 19.623499293402155
v 33.926742372263064 146.79718683016878 21.301791345818209
v 32.651615878660344 149.4676015310568 22.269338673735707
v 14.198964725403323 120.0321624327192 2.1998302317097753
v 28.104093969261534 115.34415895832819 43.972151664483405
v 27.159698663887099 112.7792278970048 42.415298324177968
v 34.114814431345749 137.36714179199925 14.259794841855994
v 13.302362317315358 106.40036303726613 30.324348270585958
v 10.83122249969774 119.79089995281868 1.1048174584633088
v 10.826226169646148 114.12856662620572 3.4210303994388873
v 25.627238955868741 151.83412321456507 30.143569948844956
v 17.301471512771204 125.14817381831006 5.6577270684784153
v 9.7388695694748577 125.82369980574337 3.8079784723967336
v 22.419948798413991 132.37139544403468 10.753407656737279
v 22.587280936289297 124.13417062454683 6.6794170182450294
v 19.721603648620928 134.92109176623134 11.248810413222589
v 33.560440183409426 119.16138134712385 2.4754877862834377
v 24.898158364001162 138.42516895314793 14.500010636093512
v 32.353571019918199 128.67509573927526 6.8875772465068046
v 22.389369555785329 150.91851311340309 23.435352487924145
v -0.99595883979230138 121.6856380425958 33.837580953752934
v 29.069004307602533 145.83301539527872 19.413943594644117
v 25.710633731400762 144.64286343485745 17.846761057415591
v 33.894189646689256 146.89660424844391 30.3813142181356
v 6.7431850327914784 117.70494989276951 1.5996026188960215
v 37.469599296487431 139.32208166641317 38.630255175844979
v 7.6438243581084286 120.9159020869015 0.74573767159157001
v 10.247981583758589 123.38491273419631 2.7347473588235154
v 11.888300821774255 126.24741058699328 4.641848122833359
v 17.37957145159347 132.01316684801074 9.1159732586281805
v 19.573256041711858 138.786589351967 13.140419927741268
v 23.355628796225076 142.1752469562193 15.930527580664917
v 45.336696746906242 139.53347167959117 22.970325284148824
v 5.9685815048748267 133.67585340101897 41.853006358524453
v -1.6081058984448795 113.17222959560213 29.399872192001339
v 3.9705190321637325 123.35393824439137 36.109274639574863
v 10.346579846381282 134.6446835398784 43.604399351253839
v 4.9380657388899358 123.20577711045826 1.1089656629160096
v 18.085357513576692 130.49655589672949 43.767217539900471
v 13.96808841950542 131.49376249194995 7.8691076966265143
v 11.360576645554232 133.61247276612056 8.1750969413150312
v 13.039699776133673 136.0070601914754 9.8592531662793359
v 14.532011853909431 138.58865446031257 11.582955294401616
v 19.191683115893198 142.01791034683416 14.647178729086898
v 21.891968919374495 146.77917170077222 17.811176998753641
v 16.242035564396868 147.3437018506543 16.459204715357394
v 6.2366560918199863 130.39066933447822 5.0803901483970755
v 7.8332560924069377 132.91184379783158 6.8040245629510316
v 11.256255613745108 137.37893350633601 10.02987917026681
v 12.11786576694073 140.46364009494383 11.822909887551109
v 40.446325250563262 147.28764056349209 24.123081991856157
v 39.832225083353478 147.5087212393895 24.323632008592771
v 18.376567699958432 145.74656041471366 16.277409055261504
v 1.2783910797865836 127.85819727444613 2.3785892215868181
v 2.9283456764858293 130.23471193200729 4.0452624469072518
v 4.5062747347035526 127.72908701544131 3.2477849988010696
v 4.5041548403985736 132.83177980769855 5.8008637721219323
v 38.343611780365151 147.13995284548355 22.751109683039441
v 2.7747288358297979 133.90433826070947 7.7749339275427118
v 39.593952961279435 147.14482124140659 25.074932650195905
v 39.175062555880004 147.08187142016897 22.962576734311625
v 7.5029056575146882 137.73529784866835 9.1224001833900399
v 39.215219421573629 147.86915256727104 24.317991562323286
v 37.189315362265312 148.14929292180247 22.922311644716324
v 9.462068022335707 140.85269981124361 11.249309867230291
v 10.570449534417648 143.53605299695869 12.912869079239876
v 12.277505243497947 145.84397651205887 14.561734262944737
v 12.958467950028027 143.17720372224707 13.424121015374036
v 14.152877461545426 148.0732209299706 16.219916836628435
v 39.544905004625107 148.15390926624218 23.606081993081265
v 39.692615456404965 146.84513119090192 22.960601486645945
v 40.081535454014869 146.88943715893436 23.075303349720961
v 40.64475435338214 147.61141747829299 23.466368308046
v 30.690406395078085 123.01316218965013 3.5728627105218713
v 31.568734882372272 125.80127159046798 5.2222950201220009
v 40.475909210588654 146.38590566345113 22.957797826877073
v 39.930877083631373 147.47672587219733 23.378838753679013
v 36.713851024387012 130.34924330063689 8.9868273527323126
v 39.711919923573987 147.69071541382164 23.422588704892245
v 38.402659058502266 132.78536783687827 10.69457302042745
v 35.709014493204222 133.69298571551761 10.369541564812565
v 39.915271450208408 146.34745772550593 22.79830956535158
v 40.960975309892589 146.70971974971786 23.204962399698385
v 40.028857376649654 147.5503314618997 23.312917878451408
v 39.713251832861346 147.14845694399691 23.15159551427676
v 29.816458733505272 129.93129067196557 9.0922996169200356
v 31.364282586387557 132.60891638261859 10.881438760509322
v 33.671769255061136 131.28980589368248 8.5774822949096894
v 32.946338248711527 135.34576070068135 12.80069952963493
v 43.3589701371438 146.04244242876999 23.466368308046
v 31.27429299379213 115.20650852237875 44.820385558411679
v 30.642695572358804 120.74524169559994 47.409580331188288
v 16.568128860096465 107.01261770656721 36.465255326194693
v 40.408748972095054 147.22848543474532 23.282103218434543
v 20.516692935805004 96.596621844027197 21.289064019824274
v 20.69771708195363 103.54113281188359 31.032857168166032
v 38.140554535318202 127.10854751757725 47.87352200107189
v 10.409319360757998 139.7567612295951 46.180938383147691
v 16.399016322465769 140.55562601642424 48.313526748895654
v 19.202144663147628 145.40483964063159 45.335317417183568
v 39.188644678229863 147.730462825963 23.291099826183629
v 11.52266916458818 104.71318373112535 16.919527528614751
v -8.9462296280357272 113.62790972660976 21.289064019824274
v 8.6094809361235338 143.99804641098788 41.386979634217866
v 25.515623832350947 105.24441847117167 4.00935734797946
v 39.336992572491539 135.78576012426856 17.356173915028357
v 44.676764799460123 138.39183612043337 20.190354808663127
v 46.214226924313898 141.05153677499925 28.469297238017568
v 25.2624258602292 122.05313613523583 6.4118489100347631
v 30.91941918962744 141.56849267451335 17.815037455754009
v 17.701039494784165 153.16093880243955 19.792579697387353
v 24.140440699619361 153.94774225157767 28.265206080392211
v -1.2048050120249592 127.02002637496916 1.2407425256679154
v 13.508769754702382 152.4734692959066 24.451703784698303
v 29.392013843229194 118.58165082734621 0.97945157765901669
v 27.437862813733325 108.56975585306068 34.346668986596697
v 40.397271925455357 137.61996835841859 13.691127010281674
v 26.322705213193018 123.88734436938584 2.7468020052880817
v 42.141623757225162 146.16782814958219 24.332507313729511
v 25.335065197090003 104.93206481209424 37.935254894929471
v 27.025380940561849 107.85619140790398 39.912659582439268
v 28.517693018337603 110.43778567674117 41.636361710561545
v 17.21494044495633 108.13155596710888 37.212358108461814
v 18.060440937872229 109.59421197540442 38.188957454316984
v 18.707252522732087 110.71315023594607 38.936060236584098
v 20.199564600507848 113.29474450478327 40.659762364706381
v 21.045065093423752 114.75740051307881 41.636361710561545
v 22.537377171199513 117.338994781916 43.360063838683836
v 23.625294737812784 119.22101516944929 44.616668172804012
v 21.438040479466189 98.190487881664637 28.569246848628769
v 13.637646036707876 97.462266812634567 25.948187281482301
v 35.520127886522033 132.86124806182258 49.994440678841599
v 32.555567134123628 134.57493710642092 49.994440678841599
v 7.4019318397916347 101.06687336213986 25.948187281482301
v 18.16696883154065 109.77849769141604 33.422274311131517
v 20.287395887256501 113.44668641416784 35.871483617212519
v 22.830081123660698 117.84535190211437 38.808424233325127
v 24.401607118367437 120.56398064048824 40.623622771095413
v 29.453284219898549 136.36823759420855 49.994440678841599
v 4.4373710873932186 102.7805624067382 25.948187281482301
v 26.62644562932681 138.00231519561757 49.994440678841599
v 1.3758434445901138 104.55030397029431 25.948187281482301
v 23.661884876928394 139.71600424021591 49.994440678841599
v -1.4917504174035869 106.20794049593486 25.948187281482301
v 41.059265310850279 147.37180596548981 23.466368308046
v -4.4563111698019178 107.92162954053315 25.948187281482301
v -6.5472125659722629 117.77803944176729 30.276036019247655
v -3.5625884104207444 122.94122797944169 33.723440275492223
v -1.943911639464698 125.74142422339914 35.593100540520439
v -0.36820283100554718 128.4672889335055 37.413130457111514
v 0.91434782290653871 130.68601078595327 38.894546659859074
v 2.4066599006822997 133.26760505479047 40.618248787981358
v 3.9637518760796553 135.96126396139769 42.394777639254329
v 5.417065437798378 138.47539355776769 44.095431951017986
v 21.33974227521696 98.020438945851538 18.444045463692376
v 42.23760115348523 134.17225565668065 42.215221773821291
v 16.38630127728446 140.53362988823034 39.842788768310854
v 20.056494663034705 146.88280466961996 42.382102480097728
v 40.367326067794146 145.08944070203557 22.310361222116359
v -8.0701600998801482 115.14344800219637 18.260771614116127
v 22.162791614628915 99.444256047675879 15.599026907560487
v 17.378404097121098 142.2498975455992 36.413406352376178
v 9.6071720356772268 145.72398139672933 37.938280321068696
v 20.89501630161832 148.33338775388333 39.483601129992834
v -7.300130949211816 116.47554393025844 15.599026907560487
v 10.216572397054561 146.77820088860923 35.831778009225872
v 43.572158122896901 136.4843545825789 37.596977884612791
v 22.985840954040871 100.86807314950022 12.754008351428601
v 5.567846824868516 138.73623468510598 19.016713433543707
v 40.740663142853329 146.68489758144369 24.770986184933353
v 21.704312827527069 149.67558213756573 36.772735817210631
v -6.5797302331088439 117.72178617921857 13.108831840241677
v 11.039621736466517 148.20201799043357 32.986759453093981
v 44.340967330843839 137.81093026744188 34.896234229505914
v 23.80889029345283 102.29189025132456 9.9089897952967014
v 19.02450277594501 145.09753174924788 30.72336924011239
v 22.49434202079545 151.10010804792896 33.955243192655999
v -5.6540322703879013 119.32317813390712 9.9089897952967014
v 11.862671075878474 149.62583509225794 30.141740896962084
v 24.545176519980689 103.56561330894476 7.3638835947465253
v 45.226020398591643 139.34200943066892 31.885211410282309
v 19.847552115356965 146.52134885107225 27.878350683980493
v -4.8309829309759493 120.74699523573146 7.0639712391648146
v 12.685720415290429 151.04965219408226 27.296722340830197
v 28.951131708641547 111.18760393221541 2.0412118073478531
v 22.558837731836682 109.92451477230209 -0.44017140427802914
v 19.684879036475646 111.58583054290446 -0.44017140427802914
v 16.766638511097256 113.27274379431884 -0.44017140427802914
v 26.914236253914588 124.91065120132021 8.3121472757694299
v 28.247050015780722 127.21632467291023 9.8592531662793359
v 30.188543863609901 130.57497161089449 12.101784823751013
v 31.866493069990064 133.47770497283801 14.039907995835387
v 13.665155474641546 115.06558190609704 -0.44017140427802914
v 34.730526084615633 150.93690111590848 23.606081993081265
v 10.70059472224313 116.77927095069536 -0.44017140427802914
v 38.913111285382271 142.79371321695663 20.740745248685869
v 7.7360339698448257 118.49295999529365 -0.44017140427802914
v 30.221671995169174 153.5432817915366 23.606081993081265
v 4.7623436722948895 120.21192644953712 -0.44017140427802914
v 1.9980507133877303 121.80984902741211 -0.44017140427802914
v 42.092967551564044 144.19272056316103 22.360808209075195
v -0.23092142768956236 128.70477604447674 2.365631368867728
v 0.9805212225765807 130.80048608363515 3.7649139354701404
v 42.327915381523653 145.37997695079781 22.985955711199605
v 2.4728333003523453 133.38208035247237 5.4886160635924277
v 4.1123657459070664 136.18146782298066 7.3639050102679064
v 5.4287951796549319 138.49388470976407 8.902012758755788
v 6.646772375691226 140.60269952177566 10.309744146625656
v 8.4420816114553823 143.70845742782114 12.383424576081557
v 9.7956780938032537 146.05008353484547 13.946902599203511
v 11.30216241026883 148.65619477350626 15.68697443869763
v 12.919017844782665 151.45324023433272 17.554530960448407
v 34.848625355231754 121.3898505167457 3.9634121656097889
v 36.535623705394791 124.30824178520798 5.9119893598054887
v 37.941326890905323 126.74000527232397 7.5356517112637427
v 39.965173608583051 130.24111684621749 9.8733054408066288
v 27.58916843374827 126.07823610079339 4.2096363419995981
v 28.801979501520151 128.17631340538026 5.6104995057183373
v 30.799641446520305 131.63212717589744 7.9179083896549329
v 38.732235739883947 148.62367950614768 23.606081993081265
v 33.017050158727791 135.41009386826249 10.450113442227824
v 31.910557656122656 133.55393358795993 9.2010774152056687
v 44.788330442582513 145.216188794321 23.466368308046
v 44.12235634241155 144.13729280414358 22.896482928517212
v 21.396779036398247 119.18791930241403 3.8596114998039575
v 32.921951868752224 118.05684175491248 39.70047452739437
v 13.627379642284165 134.17771149941248 9.1137506728889264
v 32.768008427077319 128.33250200572965 46.931811730856808
v 39.771668176263432 139.28699298263939 36.689768827502554
v 6.4525302635539994 114.90642215373265 32.599666538113851
v 12.809813938825467 122.16795164064611 2.8668324060230859
v 27.707727371018045 136.82697534496029 14.512973125850966
v 24.584350947128204 131.51934916788176 10.953143330855822
v 18.98359405261397 100.75540672372108 29.142826517679282
v 45.268578917046355 143.60273335850124 25.467065906022171
v 46.068924823511324 140.80017442508046 24.560695141880686
v 28.53634604395581 143.18721570835982 17.935732190644963
v 17.936269580230579 119.38508969295415 38.163246241375766
v 8.0900925956234797 107.84602602077702 29.539961305141226
v 22.370560524769736 112.36631097925877 0.7273815315622798
v 30.676920200472644 148.06626983062125 20.996759271370316
v 28.904072541029269 152.84137472899209 25.79805516951453
v 16.235103252482524 100.06031522019667 27.999836887446403
v 7.456576783826538 123.43741739760392 1.9534846728071003
v 10.789816138209023 143.80966173945814 39.781477313275325
v 15.417975091732369 146.27142794255974 32.087607932374802
v 43.44348782213924 136.25835424090198 18.77326436184574
v 22.014481885252732 116.23340005528075 2.5596919959174222
v 16.770821663398365 118.68570170039779 2.2700059906110361
v 12.121208460096817 114.20494377992667 33.888524542894004
v 29.115233772504524 129.45122674394722 46.43495931177079
v 40.313976281539269 130.84452078220986 43.841398709678955
v -2.1244472342640819 108.44006853957622 26.882241429953734
v 36.684590857223235 146.62490791392008 22.013404175949859
v 46.937705748978956 142.34085065636273 25.911928744352778
v 45.870379677883676 140.4567053761522 21.561871728623437
v 40.873604383875545 131.81263778882479 23.620575251965132
v 32.144062515167995 138.30526685121083 16.536207535158269
v 5.1911472636945355 138.08457110703611 41.618084260528789
v 26.829711441302834 107.51769702365547 31.155675918304674
v 11.109509164124283 142.51750307702213 41.439970150859338
v 25.532044447051231 105.27282497235353 9.0818006273516954
v 23.88594576822732 102.42519076870485 14.77183773961548
v 19.900436876604171 95.530542480158289 23.419264288264717
v -9.6201599112814336 112.46205803731962 23.618625650653286
v 41.156803611180024 135.96865608814156 15.506730723874918
v 30.298483302910689 116.8341028288222 2.8119750300323538
v 23.534173232295782 101.81664917997179 16.90436426927905
v 41.167919120748152 145.80499973421584 22.879001510777538
v 24.662841079974346 116.99678615861784 3.7078927582382626
v 18.893464375312075 144.87084459103914 35.735252137599403
v 18.512963995595801 144.21260586591271 42.970910620217467
v 19.293409942130928 145.56272211352444 40.435122157939759
v 38.341071798362726 140.98998004476118 35.377752470721944
v 32.291593137696509 116.96636576692048 6.1900896069577342
v 41.929609831705086 146.86869606321898 23.466368308046
v 37.037287746198018 137.11512366098839 17.356173915028357
v 40.904165137210946 131.86550572900765 41.414253688617272
v 31.43024924447565 115.47630179749181 13.684752305414206
v 30.176512450434728 138.72421338993419 45.839746130205512
v -8.5785901787693746 114.26389995235333 27.924368102035753
v 40.218417093161719 135.64248135597799 41.761388442663176
v 28.529955666671682 110.45899919040997 34.731481757060507
v -0.42658016058369341 123.21142710691619 -0.44017140427802914
v 3.3549509883724546 134.90808151653641 27.370775707946432
v 35.788790958982695 145.14388100511658 21.013059573847123
v 42.357995835480565 134.38052993500781 36.775876290070087
v 21.144888469384508 103.13112935310707 10.958444461746879
v 36.56756230697637 140.54815705818518 18.938379570560777
v 9.4419019222067497 114.8591311881743 3.5253538233554735
v 17.936466859774416 102.6260435614771 14.492635668087795
v 22.476301416671564 99.98660581501403 29.733764451900022
v 18.129567538221874 135.86928611971067 46.468842170777712
v 24.680843754731004 108.69787150953081 -0.44017140427802914
v 17.247445155368929 98.185522009450764 21.739746521458507
v 1.9268422327851873 116.4234017396364 32.049595234287835
v 0.81218355012753918 114.36037145748371 30.694666676288314
v 3.0029707376790498 134.29918059596736 22.315594410070688
v 5.913112395333977 111.63721526723209 11.40591200416948
v 16.206787774142573 102.78458452160388 15.752675045361935
f 1 6 113 
f 762 6 1 
f 456 63 1 
f 1 63 762 
f 1 113 256 
f 1 256 456 
f 2 7 83 
f 505 7 2 
f 2 83 758 
f 2 115 242 
f 758 115 2 
f 2 242 505 
f 116 9 3 
f 3 9 332 
f 332 63 3 
f 3 63 457 
f 759 116 3 
f 3 457 759 
f 330 10 4 
f 4 10 614 
f 117 68 4 
f 4 68 610 
f 614 117 4 
f 4 211 330 
f 610 211 4 
f 343 119 5 
f 5 119 930 
f 5 120 796 
f 930 120 5 
f 5 208 343 
f 796 208 5 
f 6 105 215 
f 958 105 6 
f 123 113 6 
f 215 123 6 
f 762 612 6 
f 6 612 958 
f 127 52 7 
f 7 52 652 
f 7 64 83 
f 652 64 7 
f 251 127 7 
f 487 251 7 
f 505 487 7 
f 8 61 66 
f 139 61 8 
f 8 66 124 
f 8 124 128 
f 8 128 763 
f 763 139 8 
f 9 116 801 
f 130 129 9 
f 9 129 762 
f 674 130 9 
f 762 332 9 
f 9 644 674 
f 801 644 9 
f 65 50 10 
f 10 50 219 
f 10 64 65 
f 330 64 10 
f 10 219 438 
f 10 438 464 
f 10 464 614 
f 11 140 310 
f 764 140 11 
f 414 141 11 
f 11 141 764 
f 11 310 959 
f 765 414 11 
f 959 765 11 
f 12 59 765 
f 766 59 12 
f 12 274 352 
f 765 274 12 
f 352 327 12 
f 12 327 766 
f 348 94 13 
f 13 94 947 
f 13 232 348 
f 931 232 13 
f 13 597 931 
f 947 597 13 
f 14 106 148 
f 502 106 14 
f 14 148 820 
f 14 178 764 
f 820 178 14 
f 764 502 14 
f 15 150 651 
f 960 150 15 
f 15 177 247 
f 651 177 15 
f 247 180 15 
f 15 180 960 
f 16 30 218 
f 933 30 16 
f 16 41 62 
f 316 41 16 
f 16 62 933 
f 16 151 182 
f 941 151 16 
f 182 155 16 
f 16 155 316 
f 16 218 941 
f 146 31 17 
f 17 31 932 
f 163 146 17 
f 357 163 17 
f 913 357 17 
f 17 772 913 
f 932 772 17 
f 890 28 18 
f 18 28 921 
f 18 258 890 
f 922 258 18 
f 902 699 18 
f 18 699 922 
f 921 902 18 
f 159 32 19 
f 19 32 216 
f 19 57 681 
f 891 57 19 
f 216 62 19 
f 19 62 936 
f 775 159 19 
f 19 681 775 
f 914 891 19 
f 936 914 19 
f 409 33 20 
f 20 33 673 
f 20 102 943 
f 955 102 20 
f 776 341 20 
f 20 341 955 
f 673 360 20 
f 20 360 924 
f 943 409 20 
f 924 776 20 
f 21 508 724 
f 825 508 21 
f 21 724 727 
f 21 727 737 
f 21 737 748 
f 21 748 825 
f 739 29 22 
f 22 29 750 
f 718 717 22 
f 22 717 739 
f 729 718 22 
f 736 729 22 
f 745 736 22 
f 22 743 745 
f 750 743 22 
f 154 49 23 
f 23 49 686 
f 121 92 23 
f 23 92 217 
f 23 111 154 
f 175 111 23 
f 686 121 23 
f 711 175 23 
f 23 217 711 
f 24 67 121 
f 133 67 24 
f 24 121 172 
f 455 133 24 
f 24 172 778 
f 778 455 24 
f 25 60 76 
f 171 60 25 
f 25 76 779 
f 950 171 25 
f 25 779 950 
f 176 104 26 
f 26 104 501 
f 777 110 26 
f 26 110 878 
f 878 176 26 
f 26 501 777 
f 738 737 27 
f 27 737 751 
f 760 738 27 
f 27 743 750 
f 751 743 27 
f 27 750 760 
f 890 889 28 
f 28 889 901 
f 28 901 921 
f 29 739 760 
f 760 750 29 
f 683 218 30 
f 30 321 683 
f 781 321 30 
f 933 781 30 
f 322 75 31 
f 31 75 783 
f 31 146 322 
f 31 783 932 
f 32 159 784 
f 453 216 32 
f 784 453 32 
f 214 51 33 
f 33 51 569 
f 409 214 33 
f 33 569 673 
f 168 153 34 
f 34 153 224 
f 406 168 34 
f 34 224 547 
f 546 406 34 
f 547 546 34 
f 35 47 891 
f 915 47 35 
f 35 650 654 
f 914 650 35 
f 35 654 915 
f 35 891 914 
f 36 123 215 
f 926 123 36 
f 36 215 342 
f 36 342 395 
f 395 344 36 
f 36 344 926 
f 37 142 359 
f 927 142 37 
f 37 359 436 
f 37 436 911 
f 37 911 927 
f 513 39 38 
f 38 39 596 
f 560 513 38 
f 594 560 38 
f 596 594 38 
f 39 513 518 
f 39 518 564 
f 39 564 596 
f 40 56 267 
f 504 56 40 
f 267 70 40 
f 40 70 690 
f 595 504 40 
f 690 595 40 
f 936 62 41 
f 41 150 645 
f 851 150 41 
f 41 316 851 
f 41 645 936 
f 289 287 42 
f 42 287 290 
f 816 289 42 
f 42 290 816 
f 43 351 685 
f 880 351 43 
f 43 685 754 
f 754 744 43 
f 43 744 881 
f 881 880 43 
f 44 308 682 
f 708 308 44 
f 44 682 696 
f 44 696 706 
f 44 706 893 
f 893 708 44 
f 714 78 45 
f 45 78 728 
f 45 707 714 
f 715 707 45 
f 728 715 45 
f 307 90 46 
f 46 90 706 
f 46 107 552 
f 706 107 46 
f 695 307 46 
f 46 552 695 
f 273 57 47 
f 47 57 891 
f 915 273 47 
f 48 95 319 
f 365 95 48 
f 304 234 48 
f 48 234 368 
f 806 304 48 
f 48 319 806 
f 368 365 48 
f 49 154 426 
f 379 165 49 
f 49 165 686 
f 848 379 49 
f 49 426 848 
f 50 65 894 
f 894 213 50 
f 50 213 917 
f 917 219 50 
f 51 75 746 
f 783 75 51 
f 51 185 569 
f 747 185 51 
f 51 214 783 
f 51 746 747 
f 52 125 652 
f 763 125 52 
f 52 127 338 
f 52 338 763 
f 80 54 53 
f 53 54 279 
f 270 80 53 
f 53 254 255 
f 544 254 53 
f 53 255 537 
f 537 270 53 
f 53 279 544 
f 54 80 280 
f 286 279 54 
f 54 280 287 
f 702 286 54 
f 54 287 702 
f 55 258 261 
f 867 258 55 
f 55 261 862 
f 55 508 825 
f 862 508 55 
f 55 825 867 
f 56 167 267 
f 908 167 56 
f 860 412 56 
f 56 412 864 
f 56 504 860 
f 56 864 908 
f 678 181 57 
f 57 181 681 
f 57 273 678 
f 245 219 58 
f 58 219 246 
f 298 245 58 
f 58 246 262 
f 58 262 298 
f 59 370 414 
f 938 370 59 
f 59 414 765 
f 59 766 938 
f 108 76 60 
f 849 108 60 
f 60 171 659 
f 659 600 60 
f 60 600 849 
f 183 66 61 
f 61 139 209 
f 361 183 61 
f 61 209 918 
f 822 361 61 
f 918 822 61 
f 62 216 781 
f 62 781 933 
f 456 112 63 
f 63 112 457 
f 63 332 762 
f 652 65 64 
f 758 83 64 
f 64 330 758 
f 652 125 65 
f 65 125 894 
f 798 124 66 
f 66 183 798 
f 67 92 121 
f 166 92 67 
f 67 133 864 
f 324 166 67 
f 864 324 67 
f 68 117 795 
f 795 610 68 
f 69 295 301 
f 303 295 69 
f 69 301 363 
f 946 303 69 
f 69 363 364 
f 69 364 946 
f 267 167 70 
f 70 167 318 
f 70 318 516 
f 70 516 561 
f 70 561 690 
f 881 390 71 
f 71 390 882 
f 71 643 647 
f 882 643 71 
f 71 647 881 
f 472 328 72 
f 72 328 517 
f 72 329 424 
f 517 329 72 
f 72 424 425 
f 72 425 472 
f 73 77 103 
f 558 77 73 
f 73 103 595 
f 73 557 558 
f 559 557 73 
f 690 559 73 
f 73 595 690 
f 74 180 591 
f 852 180 74 
f 74 591 618 
f 74 618 649 
f 74 649 852 
f 75 322 746 
f 76 108 623 
f 76 623 779 
f 592 103 77 
f 77 558 592 
f 78 714 723 
f 78 723 872 
f 872 728 78 
f 79 160 347 
f 399 160 79 
f 347 339 79 
f 79 339 447 
f 448 399 79 
f 79 447 448 
f 80 270 280 
f 81 144 380 
f 418 144 81 
f 81 380 389 
f 81 389 769 
f 769 418 81 
f 82 328 472 
f 565 328 82 
f 82 472 473 
f 82 473 520 
f 82 520 664 
f 664 565 82 
f 84 115 610 
f 671 115 84 
f 84 199 671 
f 794 199 84 
f 84 610 795 
f 795 794 84 
f 209 127 85 
f 85 127 251 
f 353 209 85 
f 85 251 350 
f 85 350 401 
f 401 353 85 
f 86 252 253 
f 265 252 86 
f 86 253 896 
f 275 265 86 
f 86 271 275 
f 896 271 86 
f 186 138 87 
f 87 138 310 
f 282 186 87 
f 288 282 87 
f 703 288 87 
f 87 310 703 
f 243 136 88 
f 88 136 245 
f 272 243 88 
f 88 245 298 
f 705 272 88 
f 88 298 705 
f 678 273 89 
f 89 273 897 
f 89 552 678 
f 695 552 89 
f 89 694 695 
f 897 694 89 
f 90 307 713 
f 707 706 90 
f 714 707 90 
f 90 713 714 
f 91 226 227 
f 230 226 91 
f 91 227 229 
f 91 229 802 
f 231 230 91 
f 802 231 91 
f 92 166 217 
f 299 193 93 
f 93 193 788 
f 93 205 782 
f 787 205 93 
f 314 299 93 
f 949 314 93 
f 93 782 949 
f 788 787 93 
f 283 99 94 
f 94 99 947 
f 812 283 94 
f 94 348 812 
f 95 236 319 
f 366 236 95 
f 95 365 366 
f 96 128 798 
f 894 128 96 
f 220 213 96 
f 96 213 894 
f 799 220 96 
f 96 798 799 
f 97 110 777 
f 878 110 97 
f 97 111 175 
f 777 111 97 
f 97 175 719 
f 719 712 97 
f 97 712 735 
f 97 735 878 
f 704 173 98 
f 98 173 722 
f 98 307 679 
f 722 307 98 
f 98 679 694 
f 98 694 910 
f 910 704 98 
f 284 147 99 
f 99 147 813 
f 99 283 701 
f 701 284 99 
f 99 813 947 
f 425 388 100 
f 100 388 831 
f 472 425 100 
f 473 472 100 
f 831 473 100 
f 101 105 120 
f 342 105 101 
f 101 120 340 
f 101 340 393 
f 393 342 101 
f 261 157 102 
f 102 157 772 
f 955 261 102 
f 102 772 943 
f 592 439 103 
f 103 439 836 
f 103 503 595 
f 726 503 103 
f 836 726 103 
f 104 176 780 
f 780 501 104 
f 796 120 105 
f 342 215 105 
f 958 796 105 
f 770 148 106 
f 106 502 770 
f 309 181 107 
f 107 181 678 
f 696 309 107 
f 678 552 107 
f 706 696 107 
f 108 567 601 
f 849 567 108 
f 108 601 623 
f 741 351 109 
f 109 351 880 
f 109 740 741 
f 879 740 109 
f 880 879 109 
f 777 154 111 
f 112 189 195 
f 786 189 112 
f 112 195 457 
f 456 256 112 
f 112 256 786 
f 113 123 648 
f 648 205 113 
f 113 205 786 
f 786 256 113 
f 698 292 114 
f 114 292 711 
f 114 689 698 
f 711 689 114 
f 757 242 115 
f 758 610 115 
f 115 671 757 
f 789 200 116 
f 116 200 801 
f 116 759 789 
f 117 204 795 
f 804 204 117 
f 117 614 804 
f 609 187 118 
f 118 187 611 
f 632 609 118 
f 118 611 633 
f 633 632 118 
f 797 311 119 
f 119 311 961 
f 119 343 797 
f 119 761 930 
f 961 761 119 
f 761 340 120 
f 930 761 120 
f 686 172 121 
f 122 130 131 
f 210 130 122 
f 122 131 222 
f 355 210 122 
f 122 222 800 
f 800 355 122 
f 926 648 123 
f 798 128 124 
f 763 128 125 
f 125 128 894 
f 558 506 126 
f 126 506 847 
f 592 558 126 
f 774 592 126 
f 847 774 126 
f 127 209 338 
f 129 130 909 
f 900 762 129 
f 909 900 129 
f 674 131 130 
f 130 210 909 
f 674 132 131 
f 131 132 905 
f 249 222 131 
f 905 249 131 
f 132 134 252 
f 644 134 132 
f 132 252 905 
f 674 644 132 
f 133 455 864 
f 227 226 134 
f 134 226 916 
f 644 227 134 
f 253 252 134 
f 916 253 134 
f 135 136 243 
f 464 136 135 
f 135 240 241 
f 243 240 135 
f 135 241 804 
f 614 464 135 
f 804 614 135 
f 438 245 136 
f 464 438 136 
f 137 138 298 
f 959 138 137 
f 298 262 137 
f 137 262 959 
f 138 186 705 
f 705 298 138 
f 959 310 138 
f 763 209 139 
f 140 178 293 
f 764 178 140 
f 140 293 703 
f 703 310 140 
f 414 142 141 
f 141 142 502 
f 141 502 764 
f 823 359 142 
f 142 414 823 
f 927 502 142 
f 143 262 263 
f 959 262 143 
f 143 263 809 
f 352 274 143 
f 143 274 959 
f 809 352 143 
f 144 331 380 
f 813 331 144 
f 144 418 931 
f 931 597 144 
f 144 597 947 
f 947 813 144 
f 306 232 145 
f 145 232 769 
f 378 306 145 
f 388 378 145 
f 769 388 145 
f 163 152 146 
f 146 152 322 
f 687 277 147 
f 147 277 813 
f 147 284 285 
f 147 285 687 
f 148 149 206 
f 770 149 148 
f 148 206 925 
f 925 820 148 
f 207 206 149 
f 358 207 149 
f 770 358 149 
f 906 645 150 
f 851 651 150 
f 150 852 906 
f 960 852 150 
f 588 182 151 
f 642 588 151 
f 941 642 151 
f 152 163 617 
f 882 322 152 
f 152 617 643 
f 152 643 882 
f 153 163 357 
f 617 163 153 
f 153 168 617 
f 923 224 153 
f 153 357 923 
f 154 174 426 
f 501 174 154 
f 777 501 154 
f 587 170 155 
f 155 170 851 
f 155 182 579 
f 851 316 155 
f 155 579 587 
f 156 158 586 
f 699 158 156 
f 589 357 156 
f 156 357 913 
f 156 586 589 
f 773 699 156 
f 913 773 156 
f 261 258 157 
f 157 258 773 
f 913 772 157 
f 157 773 913 
f 158 585 586 
f 774 585 158 
f 158 699 902 
f 902 774 158 
f 159 775 855 
f 883 784 159 
f 159 855 883 
f 160 317 325 
f 350 317 160 
f 160 325 347 
f 399 350 160 
f 161 405 616 
f 643 405 161 
f 161 616 647 
f 647 643 161 
f 858 269 162 
f 162 269 898 
f 162 360 858 
f 924 360 162 
f 898 661 162 
f 162 661 924 
f 862 261 164 
f 164 261 955 
f 164 341 667 
f 955 341 164 
f 164 508 862 
f 952 508 164 
f 164 667 952 
f 165 172 686 
f 778 172 165 
f 165 379 665 
f 165 665 778 
f 688 217 166 
f 166 324 907 
f 907 688 166 
f 677 318 167 
f 167 455 778 
f 908 455 167 
f 778 677 167 
f 168 406 617 
f 594 404 169 
f 169 404 662 
f 169 593 594 
f 618 593 169 
f 653 618 169 
f 662 653 169 
f 587 177 170 
f 170 177 851 
f 171 622 659 
f 866 622 171 
f 950 866 171 
f 173 704 866 
f 173 720 722 
f 779 720 173 
f 950 779 173 
f 173 866 950 
f 174 266 426 
f 850 266 174 
f 174 501 780 
f 174 780 850 
f 175 711 719 
f 641 633 176 
f 176 633 780 
f 878 641 176 
f 587 212 177 
f 177 212 771 
f 771 247 177 
f 177 651 851 
f 820 293 178 
f 842 372 179 
f 179 372 937 
f 179 469 515 
f 937 469 179 
f 179 515 531 
f 179 531 842 
f 180 247 771 
f 771 591 180 
f 180 852 960 
f 181 309 656 
f 656 655 181 
f 181 655 681 
f 580 579 182 
f 588 580 182 
f 363 301 183 
f 183 301 798 
f 183 361 363 
f 184 521 522 
f 567 521 184 
f 184 522 570 
f 601 567 184 
f 184 570 601 
f 887 569 185 
f 185 747 887 
f 282 272 186 
f 186 272 705 
f 187 576 578 
f 609 576 187 
f 187 578 611 
f 198 189 188 
f 188 189 787 
f 672 198 188 
f 788 672 188 
f 188 787 788 
f 196 195 189 
f 198 196 189 
f 189 786 787 
f 270 259 190 
f 190 259 272 
f 280 270 190 
f 190 272 282 
f 281 280 190 
f 282 281 190 
f 191 264 265 
f 810 264 191 
f 191 265 275 
f 191 275 701 
f 701 283 191 
f 191 283 919 
f 919 810 191 
f 192 281 282 
f 541 281 192 
f 192 282 288 
f 192 288 533 
f 533 291 192 
f 192 291 541 
f 300 268 193 
f 193 268 788 
f 193 299 300 
f 194 349 719 
f 734 349 194 
f 710 535 194 
f 194 535 734 
f 719 710 194 
f 195 196 790 
f 195 197 759 
f 790 197 195 
f 759 457 195 
f 196 198 792 
f 791 790 196 
f 792 791 196 
f 789 759 197 
f 790 789 197 
f 672 199 198 
f 198 199 793 
f 793 792 198 
f 672 671 199 
f 794 793 199 
f 200 201 229 
f 791 201 200 
f 200 229 801 
f 200 789 790 
f 200 790 791 
f 791 202 201 
f 201 202 802 
f 802 229 201 
f 202 203 237 
f 793 203 202 
f 202 237 802 
f 202 791 792 
f 202 792 793 
f 794 204 203 
f 203 204 803 
f 803 237 203 
f 203 793 794 
f 204 794 795 
f 804 803 204 
f 205 648 782 
f 787 786 205 
f 206 207 387 
f 387 225 206 
f 206 225 925 
f 207 358 437 
f 435 387 207 
f 437 435 207 
f 474 343 208 
f 909 474 208 
f 796 612 208 
f 208 612 900 
f 208 900 909 
f 763 338 209 
f 209 353 918 
f 355 294 210 
f 210 294 797 
f 797 474 210 
f 210 474 909 
f 758 330 211 
f 211 610 758 
f 587 538 212 
f 212 538 928 
f 846 771 212 
f 928 846 212 
f 213 220 296 
f 213 296 917 
f 214 409 943 
f 943 783 214 
f 216 453 781 
f 217 688 689 
f 217 689 711 
f 879 642 218 
f 218 642 941 
f 218 683 879 
f 219 245 438 
f 296 246 219 
f 917 296 219 
f 220 246 296 
f 297 246 220 
f 805 297 220 
f 220 799 805 
f 407 403 221 
f 221 403 957 
f 834 407 221 
f 221 460 954 
f 957 460 221 
f 954 834 221 
f 222 249 806 
f 806 800 222 
f 391 334 223 
f 223 334 814 
f 223 335 383 
f 815 335 223 
f 223 383 391 
f 223 814 815 
f 548 547 224 
f 923 548 224 
f 387 337 225 
f 225 337 818 
f 225 818 819 
f 225 819 925 
f 226 230 452 
f 226 452 916 
f 801 229 227 
f 227 644 801 
f 228 433 434 
f 951 433 228 
f 228 434 481 
f 228 481 526 
f 526 486 228 
f 228 486 951 
f 230 231 233 
f 230 233 904 
f 257 255 230 
f 230 255 452 
f 904 257 230 
f 237 233 231 
f 802 237 231 
f 232 306 812 
f 812 348 232 
f 931 769 232 
f 233 237 803 
f 803 241 233 
f 233 241 904 
f 305 235 234 
f 234 235 369 
f 234 304 305 
f 369 368 234 
f 235 305 306 
f 235 306 378 
f 424 369 235 
f 235 378 424 
f 236 238 302 
f 362 238 236 
f 236 302 319 
f 366 362 236 
f 311 302 238 
f 961 311 238 
f 362 356 238 
f 238 356 961 
f 664 520 239 
f 239 520 844 
f 600 568 239 
f 239 568 664 
f 849 600 239 
f 239 844 849 
f 904 241 240 
f 240 243 259 
f 259 257 240 
f 240 257 904 
f 241 803 804 
f 757 505 242 
f 272 259 243 
f 314 313 244 
f 244 313 345 
f 346 314 244 
f 244 345 346 
f 297 262 246 
f 248 402 451 
f 944 402 248 
f 248 451 953 
f 833 822 248 
f 248 822 944 
f 953 833 248 
f 265 264 249 
f 249 264 806 
f 905 265 249 
f 436 359 250 
f 250 359 828 
f 828 372 250 
f 250 372 912 
f 483 436 250 
f 912 483 250 
f 251 317 350 
f 487 317 251 
f 252 265 905 
f 253 254 544 
f 916 254 253 
f 253 544 896 
f 452 255 254 
f 916 452 254 
f 255 257 537 
f 257 259 270 
f 257 270 537 
f 922 773 258 
f 258 867 890 
f 363 361 260 
f 260 361 948 
f 411 363 260 
f 260 408 895 
f 948 408 260 
f 692 411 260 
f 895 692 260 
f 297 263 262 
f 263 297 807 
f 263 807 809 
f 808 806 264 
f 810 808 264 
f 848 426 266 
f 577 532 266 
f 266 532 848 
f 850 577 266 
f 268 300 757 
f 268 671 672 
f 757 671 268 
f 268 672 788 
f 269 657 660 
f 857 657 269 
f 269 660 898 
f 858 857 269 
f 963 275 271 
f 896 276 271 
f 271 276 962 
f 271 962 963 
f 273 670 897 
f 915 670 273 
f 274 765 959 
f 963 701 275 
f 276 279 286 
f 544 279 276 
f 286 285 276 
f 276 285 962 
f 896 544 276 
f 334 333 277 
f 277 333 813 
f 814 334 277 
f 277 687 814 
f 278 655 656 
f 856 655 278 
f 278 656 899 
f 278 657 856 
f 899 657 278 
f 280 281 541 
f 541 287 280 
f 283 812 919 
f 962 285 284 
f 284 701 963 
f 963 962 284 
f 285 286 687 
f 286 289 687 
f 702 289 286 
f 287 289 702 
f 541 290 287 
f 288 293 700 
f 703 293 288 
f 700 533 288 
f 815 687 289 
f 816 815 289 
f 541 291 290 
f 290 291 817 
f 817 816 290 
f 291 533 700 
f 291 700 818 
f 818 817 291 
f 292 698 710 
f 292 710 719 
f 719 711 292 
f 819 700 293 
f 820 819 293 
f 294 302 797 
f 800 302 294 
f 294 355 800 
f 799 301 295 
f 295 303 805 
f 805 799 295 
f 297 805 807 
f 325 300 299 
f 299 314 315 
f 299 315 325 
f 300 325 892 
f 300 487 505 
f 892 487 300 
f 300 505 757 
f 799 798 301 
f 302 311 797 
f 800 319 302 
f 303 320 807 
f 946 320 303 
f 807 805 303 
f 810 305 304 
f 304 806 808 
f 304 808 810 
f 812 306 305 
f 305 810 812 
f 695 679 307 
f 722 713 307 
f 308 535 697 
f 709 535 308 
f 697 682 308 
f 308 708 709 
f 309 630 680 
f 696 630 309 
f 680 656 309 
f 312 389 427 
f 831 389 312 
f 312 427 475 
f 312 475 521 
f 312 521 838 
f 838 831 312 
f 313 314 949 
f 313 344 345 
f 926 344 313 
f 782 648 313 
f 313 648 926 
f 949 782 313 
f 346 315 314 
f 347 325 315 
f 315 346 347 
f 892 325 317 
f 317 487 892 
f 562 516 318 
f 677 562 318 
f 319 800 806 
f 367 323 320 
f 320 323 807 
f 946 367 320 
f 321 453 740 
f 781 453 321 
f 879 683 321 
f 321 740 879 
f 882 746 322 
f 374 327 323 
f 323 327 809 
f 323 367 374 
f 809 807 323 
f 324 412 669 
f 864 412 324 
f 324 669 907 
f 424 329 326 
f 326 329 466 
f 326 368 369 
f 420 368 326 
f 326 369 424 
f 466 420 326 
f 327 352 809 
f 374 371 327 
f 327 371 766 
f 519 517 328 
f 565 519 328 
f 471 466 329 
f 517 471 329 
f 331 333 381 
f 813 333 331 
f 381 380 331 
f 333 334 382 
f 382 381 333 
f 391 382 334 
f 335 336 384 
f 816 336 335 
f 384 383 335 
f 335 815 816 
f 336 337 386 
f 817 337 336 
f 385 384 336 
f 386 385 336 
f 336 816 817 
f 387 386 337 
f 337 817 818 
f 347 346 339 
f 339 346 398 
f 339 398 446 
f 339 446 447 
f 340 392 393 
f 821 392 340 
f 340 761 821 
f 776 667 341 
f 342 393 394 
f 342 394 395 
f 343 474 797 
f 397 345 344 
f 344 395 396 
f 344 396 397 
f 398 346 345 
f 345 397 398 
f 349 712 719 
f 735 712 349 
f 734 733 349 
f 349 733 735 
f 350 399 400 
f 350 400 401 
f 741 685 351 
f 353 401 402 
f 353 402 944 
f 944 918 353 
f 354 356 658 
f 961 356 354 
f 354 658 821 
f 821 761 354 
f 354 761 961 
f 356 362 410 
f 410 403 356 
f 356 403 658 
f 357 589 923 
f 829 437 358 
f 358 770 829 
f 359 823 828 
f 360 673 755 
f 360 755 858 
f 361 822 948 
f 362 366 410 
f 411 364 363 
f 413 367 364 
f 364 367 946 
f 364 411 413 
f 555 366 365 
f 365 368 419 
f 365 419 555 
f 768 410 366 
f 366 555 768 
f 417 374 367 
f 367 413 417 
f 420 419 368 
f 823 414 370 
f 370 421 823 
f 939 421 370 
f 370 938 939 
f 371 374 422 
f 371 422 824 
f 824 766 371 
f 372 828 937 
f 372 842 912 
f 373 562 677 
f 843 562 373 
f 665 563 373 
f 373 563 843 
f 778 665 373 
f 373 677 778 
f 374 417 423 
f 423 422 374 
f 375 377 510 
f 556 377 375 
f 375 510 560 
f 593 556 375 
f 375 560 594 
f 594 593 375 
f 491 490 376 
f 376 490 538 
f 539 491 376 
f 376 538 579 
f 580 539 376 
f 376 579 580 
f 459 415 377 
f 377 415 510 
f 507 459 377 
f 556 507 377 
f 378 388 425 
f 425 424 378 
f 379 531 563 
f 848 531 379 
f 379 563 665 
f 380 381 428 
f 427 389 380 
f 428 427 380 
f 381 382 429 
f 429 428 381 
f 382 391 430 
f 430 429 382 
f 383 384 431 
f 430 391 383 
f 431 430 383 
f 384 385 432 
f 432 431 384 
f 385 386 433 
f 433 432 385 
f 386 387 434 
f 434 433 386 
f 435 434 387 
f 388 769 826 
f 388 826 831 
f 826 769 389 
f 831 826 389 
f 881 744 390 
f 390 744 882 
f 934 393 392 
f 392 821 827 
f 392 827 934 
f 441 394 393 
f 393 440 441 
f 934 440 393 
f 442 395 394 
f 394 441 442 
f 442 396 395 
f 443 397 396 
f 396 442 443 
f 445 398 397 
f 397 443 444 
f 397 444 445 
f 398 445 446 
f 449 400 399 
f 399 448 449 
f 450 401 400 
f 400 449 450 
f 450 402 401 
f 402 450 451 
f 403 407 658 
f 403 410 966 
f 966 957 403 
f 404 594 676 
f 404 620 662 
f 676 620 404 
f 405 406 583 
f 617 406 405 
f 405 583 616 
f 643 617 405 
f 546 545 406 
f 406 545 583 
f 821 658 407 
f 827 821 407 
f 834 827 407 
f 833 458 408 
f 408 458 895 
f 408 822 833 
f 948 822 408 
f 410 415 459 
f 768 415 410 
f 410 459 966 
f 461 413 411 
f 462 461 411 
f 692 462 411 
f 860 669 412 
f 463 417 413 
f 413 461 463 
f 415 419 465 
f 555 419 415 
f 415 465 510 
f 768 555 415 
f 730 454 416 
f 416 454 860 
f 504 503 416 
f 416 503 886 
f 860 504 416 
f 886 730 416 
f 463 423 417 
f 418 769 931 
f 419 420 465 
f 467 465 420 
f 420 466 467 
f 421 469 937 
f 939 469 421 
f 828 823 421 
f 937 828 421 
f 422 423 468 
f 422 468 830 
f 830 824 422 
f 423 463 470 
f 470 468 423 
f 427 428 475 
f 428 429 477 
f 476 475 428 
f 477 476 428 
f 429 430 478 
f 478 477 429 
f 430 431 478 
f 431 432 480 
f 479 478 431 
f 480 479 431 
f 432 433 951 
f 951 480 432 
f 434 435 482 
f 482 481 434 
f 435 437 482 
f 436 483 832 
f 832 829 436 
f 436 829 911 
f 484 482 437 
f 832 484 437 
f 437 829 832 
f 439 592 901 
f 439 756 785 
f 889 756 439 
f 439 785 836 
f 901 889 439 
f 489 441 440 
f 929 489 440 
f 934 929 440 
f 491 442 441 
f 441 489 490 
f 441 490 491 
f 492 443 442 
f 442 491 492 
f 493 444 443 
f 443 492 493 
f 494 445 444 
f 444 493 494 
f 494 446 445 
f 496 447 446 
f 446 494 495 
f 446 495 496 
f 496 448 447 
f 497 449 448 
f 448 496 497 
f 498 450 449 
f 449 497 498 
f 499 451 450 
f 450 498 499 
f 499 485 451 
f 451 485 500 
f 451 500 953 
f 784 740 453 
f 454 668 669 
f 920 668 454 
f 454 669 860 
f 454 730 920 
f 908 864 455 
f 840 506 458 
f 458 506 895 
f 458 833 840 
f 507 460 459 
f 459 460 957 
f 459 957 966 
f 460 507 553 
f 460 553 954 
f 461 462 511 
f 511 463 461 
f 619 511 462 
f 940 619 462 
f 462 692 895 
f 462 895 940 
f 512 470 463 
f 463 511 512 
f 465 467 513 
f 560 510 465 
f 465 513 560 
f 471 467 466 
f 467 471 965 
f 965 513 467 
f 468 470 514 
f 468 514 837 
f 837 830 468 
f 837 515 469 
f 469 830 837 
f 939 830 469 
f 470 512 516 
f 516 514 470 
f 471 517 518 
f 471 518 965 
f 838 520 473 
f 473 831 838 
f 475 476 522 
f 522 521 475 
f 476 477 523 
f 523 522 476 
f 477 478 524 
f 524 523 477 
f 478 479 525 
f 525 524 478 
f 479 480 964 
f 964 525 479 
f 951 486 480 
f 480 486 964 
f 481 482 528 
f 527 526 481 
f 528 527 481 
f 482 484 528 
f 483 529 839 
f 912 529 483 
f 839 832 483 
f 530 528 484 
f 839 530 484 
f 484 832 839 
f 485 499 550 
f 551 500 485 
f 485 550 551 
f 486 526 536 
f 486 536 964 
f 928 489 488 
f 488 489 929 
f 488 834 841 
f 929 834 488 
f 488 841 928 
f 538 490 489 
f 928 538 489 
f 539 492 491 
f 540 493 492 
f 492 539 540 
f 543 494 493 
f 493 540 542 
f 493 542 543 
f 543 495 494 
f 546 496 495 
f 495 543 545 
f 495 545 546 
f 546 497 496 
f 547 498 497 
f 497 546 547 
f 550 499 498 
f 498 547 548 
f 498 548 550 
f 500 551 840 
f 840 833 500 
f 500 833 953 
f 927 770 502 
f 503 504 595 
f 503 726 729 
f 503 729 886 
f 558 509 506 
f 506 509 895 
f 506 840 847 
f 556 553 507 
f 920 724 508 
f 952 920 508 
f 558 557 509 
f 509 557 619 
f 509 619 940 
f 940 895 509 
f 559 512 511 
f 511 557 559 
f 619 557 511 
f 561 516 512 
f 512 559 561 
f 965 518 513 
f 514 516 562 
f 514 562 843 
f 843 837 514 
f 563 531 515 
f 843 563 515 
f 515 837 843 
f 519 518 517 
f 518 519 566 
f 566 564 518 
f 519 565 566 
f 520 838 844 
f 521 567 844 
f 844 838 521 
f 522 523 570 
f 523 524 571 
f 571 570 523 
f 524 525 573 
f 572 571 524 
f 573 572 524 
f 525 536 573 
f 964 536 525 
f 526 527 575 
f 574 536 526 
f 575 574 526 
f 527 528 576 
f 576 575 527 
f 528 530 576 
f 529 532 577 
f 912 532 529 
f 529 577 845 
f 845 839 529 
f 578 576 530 
f 845 578 530 
f 530 839 845 
f 848 842 531 
f 532 842 848 
f 912 842 532 
f 534 549 684 
f 697 549 534 
f 534 660 680 
f 684 660 534 
f 534 680 682 
f 534 682 697 
f 710 697 535 
f 535 709 716 
f 535 716 734 
f 605 573 536 
f 536 574 835 
f 606 605 536 
f 835 606 536 
f 587 579 538 
f 945 540 539 
f 539 580 945 
f 581 542 540 
f 945 581 540 
f 582 543 542 
f 542 581 582 
f 582 545 543 
f 545 582 583 
f 584 550 548 
f 923 584 548 
f 698 684 549 
f 549 697 710 
f 710 698 549 
f 586 551 550 
f 550 584 586 
f 586 585 551 
f 551 585 847 
f 847 840 551 
f 591 554 553 
f 553 554 954 
f 553 556 590 
f 553 590 591 
f 554 591 771 
f 554 771 846 
f 846 841 554 
f 554 841 954 
f 593 590 556 
f 690 561 559 
f 564 566 599 
f 598 596 564 
f 599 598 564 
f 568 566 565 
f 664 568 565 
f 566 568 599 
f 849 844 567 
f 659 599 568 
f 568 600 659 
f 755 673 569 
f 887 755 569 
f 570 571 602 
f 602 601 570 
f 571 572 603 
f 603 602 571 
f 572 573 605 
f 604 603 572 
f 605 604 572 
f 574 575 608 
f 608 607 574 
f 574 607 835 
f 575 576 609 
f 609 608 575 
f 850 845 577 
f 850 611 578 
f 578 845 850 
f 580 588 945 
f 615 582 581 
f 581 588 615 
f 945 588 581 
f 616 583 582 
f 582 615 616 
f 589 586 584 
f 923 589 584 
f 585 774 847 
f 642 615 588 
f 618 591 590 
f 590 593 618 
f 592 774 901 
f 594 596 676 
f 596 598 956 
f 956 676 596 
f 598 599 621 
f 691 620 598 
f 598 620 956 
f 598 621 691 
f 622 621 599 
f 659 622 599 
f 601 602 624 
f 624 623 601 
f 602 603 625 
f 625 624 602 
f 603 604 626 
f 626 625 603 
f 604 605 627 
f 627 626 604 
f 605 606 627 
f 606 607 628 
f 835 607 606 
f 628 627 606 
f 607 608 629 
f 629 628 607 
f 608 609 631 
f 631 629 608 
f 632 631 609 
f 780 633 611 
f 850 780 611 
f 612 762 900 
f 612 796 958 
f 616 615 613 
f 613 615 646 
f 647 616 613 
f 613 646 647 
f 615 642 646 
f 653 649 618 
f 861 662 620 
f 620 676 956 
f 620 691 863 
f 863 861 620 
f 621 622 865 
f 865 691 621 
f 866 865 622 
f 623 624 634 
f 623 634 868 
f 868 779 623 
f 624 625 635 
f 869 634 624 
f 624 635 869 
f 625 626 725 
f 725 635 625 
f 626 627 636 
f 626 636 725 
f 627 628 637 
f 637 636 627 
f 628 629 638 
f 638 637 628 
f 629 631 639 
f 875 638 629 
f 629 639 875 
f 682 680 630 
f 696 682 630 
f 631 632 640 
f 640 639 631 
f 632 633 641 
f 641 640 632 
f 869 868 634 
f 635 725 871 
f 871 869 635 
f 636 637 873 
f 872 725 636 
f 873 872 636 
f 637 638 874 
f 874 873 637 
f 875 874 638 
f 639 640 876 
f 876 875 639 
f 640 641 877 
f 877 876 640 
f 878 877 641 
f 879 646 642 
f 906 650 645 
f 645 650 914 
f 645 914 936 
f 880 647 646 
f 646 879 880 
f 647 880 881 
f 649 653 854 
f 853 852 649 
f 854 853 649 
f 854 654 650 
f 650 853 854 
f 906 853 650 
f 653 662 859 
f 859 854 653 
f 859 663 654 
f 654 663 915 
f 654 854 859 
f 775 681 655 
f 855 775 655 
f 856 855 655 
f 656 680 899 
f 899 660 657 
f 857 856 657 
f 899 680 660 
f 660 684 898 
f 661 666 776 
f 898 666 661 
f 661 776 924 
f 861 859 662 
f 675 670 663 
f 663 670 915 
f 861 675 663 
f 663 859 861 
f 666 684 698 
f 898 684 666 
f 698 689 666 
f 666 689 903 
f 903 776 666 
f 907 668 667 
f 667 668 952 
f 903 688 667 
f 667 688 907 
f 667 776 903 
f 907 669 668 
f 668 920 952 
f 670 675 897 
f 675 693 694 
f 863 693 675 
f 675 694 897 
f 675 861 863 
f 695 694 679 
f 685 741 884 
f 885 754 685 
f 685 884 885 
f 815 814 687 
f 903 689 688 
f 865 863 691 
f 910 694 693 
f 865 704 693 
f 693 704 910 
f 693 863 865 
f 699 773 922 
f 819 818 700 
f 704 865 866 
f 706 707 893 
f 715 708 707 
f 707 708 893 
f 715 709 708 
f 709 715 716 
f 723 714 713 
f 722 721 713 
f 713 721 723 
f 731 716 715 
f 715 728 731 
f 716 731 732 
f 716 732 734 
f 717 718 726 
f 717 726 836 
f 811 739 717 
f 836 811 717 
f 729 726 718 
f 720 721 722 
f 869 721 720 
f 720 779 868 
f 720 868 869 
f 871 723 721 
f 721 869 871 
f 723 871 872 
f 767 727 724 
f 724 730 886 
f 920 730 724 
f 886 767 724 
f 872 871 725 
f 751 737 727 
f 767 751 727 
f 874 731 728 
f 728 872 873 
f 728 873 874 
f 729 736 886 
f 875 732 731 
f 731 874 875 
f 732 733 734 
f 876 733 732 
f 732 875 876 
f 877 735 733 
f 733 876 877 
f 735 877 878 
f 736 745 767 
f 736 767 886 
f 737 738 748 
f 738 742 748 
f 760 742 738 
f 811 760 739 
f 883 741 740 
f 740 784 883 
f 741 883 884 
f 825 748 742 
f 760 749 742 
f 742 749 935 
f 935 825 742 
f 751 745 743 
f 747 746 744 
f 744 746 882 
f 754 747 744 
f 745 751 767 
f 747 754 888 
f 888 887 747 
f 749 760 811 
f 749 811 942 
f 942 935 749 
f 857 753 752 
f 752 753 885 
f 752 856 857 
f 884 856 752 
f 885 884 752 
f 858 755 753 
f 753 755 887 
f 753 857 858 
f 888 885 753 
f 753 887 888 
f 754 885 888 
f 942 785 756 
f 890 870 756 
f 756 870 942 
f 756 889 890 
f 766 824 938 
f 911 829 770 
f 927 911 770 
f 932 783 772 
f 772 783 943 
f 921 901 774 
f 774 902 921 
f 942 836 785 
f 919 812 810 
f 811 836 942 
f 819 820 925 
f 822 918 944 
f 824 830 939 
f 939 938 824 
f 935 867 825 
f 827 834 929 
f 827 929 934 
f 954 841 834 
f 841 846 928 
f 852 853 906 
f 855 856 884 
f 884 883 855 
f 867 870 890 
f 935 870 867 
f 870 935 942 
