v -50.545270000000002 -2.1499999999999999 16.5
v -50.545270000000002 -2.1499999999999999 33
v -50.545270000000002 2.1500010000000001 16.5
v -50.545270000000002 2.1500010000000001 33
v -36.545270000000002 -2.1499999999999999 0
v -36.545270000000002 2.1500010000000001 0
v -27.545269999999999 -21.545269999999999 0
v -27.545269999999999 -21.545269999999999 16.5
v -27.545269999999999 -21.545269999999999 18
v -27.545269999999999 -2.1499999999999999 0
v -27.545269999999999 -2.1499999999999999 33
v -27.545269999999999 2.1500010000000001 0
v -27.545269999999999 2.1500010000000001 33
v -27.545269999999999 21.545269999999999 0
v -27.545269999999999 21.545269999999999 16.5
v -27.545269999999999 21.545269999999999 18
v -26 -20 0
v -26 -20 16.5
v -26 20 0
v -26 20 16.5
v -18.613890000000001 -19.379989999999999 33
v -18.613890000000001 -0.88409230000000005 33
v -18.613890000000001 0.715754 33
v -18.613890000000001 19.211659999999998 33
v -16.46594 -17.232040000000001 18
v -16.46594 -3.0320429999999998 18
v -16.46594 2.8637039999999998 18
v -16.46594 17.063700000000001 18
v -14.60425 -15.37035 30
v -14.60425 -15.37035 33
v -14.60425 -4.8937330000000001 30
v -14.60425 -4.8937330000000001 33
v -14.60425 4.7253939999999997 30
v -14.60425 4.7253939999999997 33
v -14.60425 15.20201 30
v -14.60425 15.20201 33
v -4.1276320000000002 -15.37035 30
v -4.1276320000000002 -15.37035 33
v -4.1276320000000002 -4.8937330000000001 30
v -4.1276320000000002 -4.8937330000000001 33
v -4.1276320000000002 4.7253939999999997 30
v -4.1276320000000002 4.7253939999999997 33
v -4.1276320000000002 15.20201 30
v -4.1276320000000002 15.20201 33
v -2.2659419999999999 -17.232040000000001 18
v -2.2659419999999999 -3.0320429999999998 18
v -2.2659419999999999 2.8637039999999998 18
v -2.2659419999999999 17.063700000000001 18
v -0.1179886 -19.379989999999999 33
v -0.1179886 -0.88409230000000005 33
v -0.1179886 0.715754 33
v -0.1179886 19.211659999999998 33
v 1.086109 -19.379989999999999 33
v 1.086109 -0.88409230000000005 33
v 1.086109 0.715754 33
v 1.086109 19.211659999999998 33
v 3.2340580000000001 -17.232040000000001 18
v 3.2340580000000001 -3.0320429999999998 18
v 3.2340580000000001 2.8637039999999998 18
v 3.2340580000000001 17.063700000000001 18
v 5.0957489999999996 -15.37035 30
v 5.0957489999999996 -15.37035 33
v 5.0957489999999996 -4.8937330000000001 30
v 5.0957489999999996 -4.8937330000000001 33
v 5.0957489999999996 4.7253939999999997 30
v 5.0957489999999996 4.7253939999999997 33
v 5.0957489999999996 15.20201 30
v 5.0957489999999996 15.20201 33
v 15.572369999999999 -15.37035 30
v 15.572369999999999 -15.37035 33
v 15.572369999999999 -4.8937330000000001 30
v 15.572369999999999 -4.8937330000000001 33
v 15.572369999999999 4.7253939999999997 30
v 15.572369999999999 4.7253939999999997 33
v 15.572369999999999 15.20201 30
v 15.572369999999999 15.20201 33
v 17.434059999999999 -17.232040000000001 18
v 17.434059999999999 -3.0320429999999998 18
v 17.434059999999999 2.8637039999999998 18
v 17.434059999999999 17.063700000000001 18
v 19.58201 -19.379989999999999 33
v 19.58201 -0.88409230000000005 33
v 19.58201 0.715754 33
v 19.58201 19.211659999999998 33
v 26 -20 0
v 26 -20 16.5
v 26 20 0
v 26 20 16.5
v 27.545269999999999 -21.545269999999999 0
v 27.545269999999999 -21.545269999999999 16.5
v 27.545269999999999 -21.545269999999999 18
v 27.545269999999999 -2.1499999999999999 0
v 27.545269999999999 -2.1499999999999999 33
v 27.545269999999999 2.1500010000000001 0
v 27.545269999999999 2.1500010000000001 33
v 27.545269999999999 21.545269999999999 0
v 27.545269999999999 21.545269999999999 16.5
v 27.545269999999999 21.545269999999999 18
v 36.545270000000002 -2.1499999999999999 0
v 36.545270000000002 2.1500010000000001 0
v 50.545270000000002 -2.1499999999999999 16.5
v 50.545270000000002 -2.1499999999999999 33
v 50.545270000000002 2.1500010000000001 16.5
v 50.545270000000002 2.1500010000000001 33
v -14.626677015984191 -18.846332291167769 29.273253272895818
v 4.7504897478036234 -15.30594897742529 16.5
v -0.93017470707858274 6.3634123043855277 27.328186260382211
v -27.545269999999999 -9.1084384456172991 4.4634490571629462
v -12.80804661513554 18.256049682861772 26.326619323882461
v -26 9.537361920820894 0.023079870578659008
v 7.3388411224232248 -17.66613534028366 21.031462605859002
v 19.086125354590258 11.164787061045219 29.537037788986652
v 42.089042373889747 2.1500010000000001 29.49542539792153
v -26 -15.97929714552925 10.12087661486636
v -8.7119550960502536 0.0092276508443882577 16.5
v -40.430562985657282 2.1500010000000001 20.274742184677098
v -36.209256663954058 -2.1499999999999999 6.142407873225034
v -17.539915000000001 18.13768 25.5
v -1.1919652999999999 -1.95806765 25.5
v -1.1977103988335971 1.7954740897396679 25.45987972434413
v 1.9155490017315191 -1.713532958194034 27.20768368989544
v 2.1600834999999998 1.7897289999999999 25.5
v -26 -13.1269193606171 13.76475949951864
v -17.9719030625023 5.9445719676564934 28.516746636343711
v 5.8800188390376267 -18.599431353866919 27.549044581114011
v 18.098638725620699 -7.4978498928923596 22.64102091962592
v -27.545269999999999 -12.64005059003587 8.8652816467408684
v 10.248716819046139 9.9300040873436828 30
v -9.8989479416689115 -10.457339300355009 30
v 18.827227422030099 -8.4814792890819621 27.729049247166579
v 26 -8.5891854598030939 12.94519490182766
v -9.3659409999999994 17.063700000000001 18
v 6.3502049363464863 0.27066557816400039 16.5
v -12.771092109843289 21.545269999999999 0
v -17.83054984940399 15.06227634418673 27.529620215116712
v -32.045270000000002 -2.1499999999999999 0
v -31.569455278667839 2.1500010000000001 0
v -17.791398613834879 -6.8053845880698436 27.256211367826641
v -27.522356306818651 -17.176746026122931 10.28109338088642
v -7.8464666015397206 -4.7816182601869972 16.5
v -11.836789241018851 -19.379989999999999 33
v 26 14.700090735905389 0
v -7.8576163726089554 15.902179859994449 16.5
v -36.129032322882168 -2.1499999999999999 11.31729900970409
v -17.934377742731829 -13.458179499444819 28.254692213960912
v 7.07403333303927 2.165444440006989 22.876227751993831
v -12.14777795776696 1.879674265229675 24.871875984801729
v -26 14.18572905194114 11.988610422573929
v -26 -13.78421808091948 5.101248755739058
v -7.2257779194487544 1.091203475563979 30.378085088824371
v -9.8471798391774605 -9.6332373200924462 16.5
v -33.65020487925473 2.1500010000000001 7.9906171132044674
v 23.891138003786171 21.545269999999999 13.70074234786054
v 3.4880440283587291 4.2702880781135972 16.5
v -42.211673790700239 -2.1499999999999999 29.467056294372551
v 31.279536432393371 -2.1499999999999999 0
v -15.127658769749759 18.757191512796229 29.826278278898808
v -50.545270000000002 -2.1499999999999999 20.972475604275228
v -17.986149212045358 16.14055974954498 16.5
v 15.94523038548704 -10.57566188076799 16.5
v 14.45908513965554 -17.739329555281941 21.54260729031359
v 26 -5.0756686413786056 12.473650984148939
v 12.513705155667081 -8.7687008611790791 16.5
v 27.545269999999999 -4.8022844864358314 8.6477373752671376
v -16.243993252393501 -11.07803602121621 16.5
v -42.290579474427403 -2.1499999999999999 20.510332349814739
v -1.6748431430570869 -17.823137921291281 22.127874866439701
v -7.4813631583405424 18.42406696971231 27.499946249317819
v 0.4840580000000001 -14.072466344186729 18
v -46.201470079023423 2.1500010000000001 19.570450902365089
v -31.31945714801051 2.1500010000000001 3.8761714197285109
v -17.44539744230033 11.73170661240321 16.5
v -23.55073896514747 -13.758177325370539 16.5
v -23.993820914399691 -21.545269999999999 3.6717635882815571
v 27.545269999999999 -6.5314463441867296 0
v -26 -3.1865438214002211 7.232739220086593
v 2.642960353900381 -17.823137921291281 22.127874866439701
v -33.798224450815809 -2.1499999999999999 28.879523169090291
v 27.545269999999999 -2.1499999999999999 9.551236211005687
v -26 1.479575366991416 5.0458039281515381
v -24.023571357204599 21.545269999999999 16.531619111172621
v -23.633347529716641 18.27345535855687 18
v -13.72616598030538 21.545269999999999 4.335529360490586
v -24.098505880216919 -16.68766634594688 18
v -23.669111640498361 21.545269999999999 3.7669131942812299
v 36.410760794683767 -2.1499999999999999 23.787460270986411
v -22.335971740621989 20 4.8712514134152141
v 18.919504751071258 18.549151666710589 28.373459003267708
v 5.1280345259292863 -21.545269999999999 16.5
v -14.60425 -0.88409230000000005 33
v 0.4840580000000001 13.988296344186731 18
v -15.515557372701281 -15.222841656351539 16.5
v -16.581263825063811 -20 16.5
v -18.691618423870171 -2.1129642430897562 16.5
v -21.90212614331897 -8.4928721253795167 16.5
v -22.85343220547367 -2.7185671580601571 16.5
v -14.582019886245799 -6.4549968518561336 16.5
v -22.922308508601901 1.8159907442934651 16.5
v -17.08601675459737 5.3022886406063856 16.5
v -0.71856281544409661 3.5110412430387079 28.805954993408399
v -17.243127417481169 9.2972524796542775 23.42741277134829
v -27.545269999999999 17.454416129668498 7.2308684688462996
v 13.46783401822103 18.804304307618452 30.155284369483969
v -10.98049113534975 8.823183540659663 16.5
v -13.554092343225109 -0.084169500000000008 18
v -16.46594 10.912892688373461 18
v -16.815659695773959 13.24354182510357 20.442233495476771
v -17.143761660052569 20 11.974680600320349
v -8.7897072188872567 -17.750576946827689 21.62115235569512
v -10.45749756595619 20 13.412737492482529
v -6.0264975920160406 -1.939561730766574 25.629234245693532
v 18.582690179294168 -5.2646295777790248 26.021347186579089
v -7.6045238787419862 -18.884722122904879 29.54134493054919
v -11.453872583867049 -18.346566086820001 25.783184572406292
v -18.613890000000001 -7.2197483060197811 33
v -6.8154017518079337 -1.3831718178494621 29.514727843734061
v -27.545269999999999 17.45090479869296 11.68714261363716
v -8.4947095873062715 -0.88409230000000005 33
v -33.471416102326778 -2.1499999999999999 33
v -9.4405608305572102 9.5531792556530295 30
v -9.5869169519235449 -2.0249470043051172 25.032954683467938
v -4.1276320000000002 -0.88409230000000005 33
v -11.256446344186729 19.184779757041799 33
v -27.545269999999999 -8.0399729999468672 0
v 27.545269999999999 7.7368310882665021 0
v 2.023342048781775 -12.67669286698459 26.454921075068999
v 2.78304355257261 -12.934547940097101 21.149617012047699
v -5.9254756606605614 -18.41861255004201 26.28631404391632
v 1.086109 -15.37035 33
v 1.086109 -10.815896206116831 33
v 11.302476981004331 -0.8208978557723654 16.5
v 1.5208097253756581 -4.409643818404211 29.964308332909731
v 2.043355626004816 -6.9456890583966118 26.31515813919593
v 1.086109 -4.8937330000000001 33
v 1.597217192459053 6.4419031825022168 29.430723966497439
v -2.8779651371087991 1.167868913278221 29.84269945800726
v 7.2452521720933696 17.063700000000001 18
v 2.2017404901610989 9.7565091695818893 25.209092323692751
v 2.1481033019813962 13.81818448407051 25.583662587090789
v 3.8978257386985651 -1.393357611026494 29.443596370532429
v -33.381452815161353 2.1500010000000001 33
v 2.32940631520189 5.9619495897779471 24.317550031202629
v 1.4555540697994309 3.1746692264730072 30.420015071590871
v 1.3815623955155361 21.545269999999999 0
v 1.086109 4.7253939999999997 33
v 1.086109 9.2798473591575572 33
v 1.583488693499705 14.609160844882799 29.526595648921099
v -5.9019828296426899 17.671599343243919 22.245186199304801
v 2.7665625262017239 14.05390308773732 21.264710710996461
v -10.03817142427347 17.607829974305599 21.7998610842772
v 1.086109 15.20201 33
v 26 10.57827983854771 0
v -3.5505449206608302 -17.005278356420419 16.5
v 9.9283645377185259 4.8803118167531991 16.5
v 34.445182776430833 2.1500010000000001 30.03226894841638
v 32.164562250278728 -2.1499999999999999 29.358802697349841
v 31.55327800977302 2.1500010000000001 4.2159757896343111
v -6.6662406402743004 -2.5397095349135719 21.438161768003528
v -2.0663514506836371 -5.2804224584766599 16.5
v 2.7426359188191491 -7.6566845555036496 21.431799925283499
v 0.4840580000000001 -0.084169500000000008 18
v 26 15.62740145717733 13.54947290392702
v 0.91653715868077157 0.6460136149580451 16.5
v -9.0009704270128736 -21.545269999999999 10.505517600852549
v 2.7415629812246829 9.0687703916660798 21.439292684151141
v -10.185033181437401 21.545269999999999 4.3672650906229782
v -11.26533756934975 3.8350673423349471 16.5
v -16.895257639866461 -6.1209365306762846 20.998097999486479
v -20.801405216192251 -18.414705624158479 18
v -3.4714567261191611 4.7096504556699887 16.5
v 2.0272926117600818 20 12.509476501321791
v -1.8206572320108829 -14.660557105728509 21.10959796420013
v -4.360897584920771 16.490980786514282 16.5
v -12.356657984398289 -20 16.5
v -5.2042676110043686 20 12.713716792415269
v -44.103667209342802 2.1500010000000001 32.986784473611813
v -3.2091764386397852 20 13.745986772423089
v 15.51231252464509 8.5173204424978692 16.5
v -3.9751515232106289 21.545269999999999 10.898333815028391
v 7.456269285427485 -3.0320429999999998 18
v -1.119708882175132 21.545269999999999 14.078716906688291
v -44.882083469628228 -2.1499999999999999 16.23020965432541
v 5.0957489999999996 0.715754 33
v 21.140545677956979 5.5291738517085811 16.5
v 9.9934935561108045 -18.066443359183008 23.82697473765457
v 3.450401961136023 -5.1244531186906688 16.5
v 6.4199909461577471 18.145797002192801 25.556684031775301
v 36.477392930101587 -2.1499999999999999 13.759762521458381
v 5.1263682496550089 21.545269999999999 13.899566737098761
v 5.5627062727037444 20 10.93717157446833
v 6.6998130465112986 15.4322373706952 16.5
v 10.75659416425634 17.742682396799989 22.74158548203869
v 9.0205006854910721 20 12.93191402385507
v 8.8485521755848549 -18.801622489246949 28.961026717895759
v -37.427154739173012 -2.1499999999999999 20.535992827834189
v 7.1148277146990271 1.495298485099152 27.556126876097078
v 9.4628270754261798 0.715754 33
v 13.07827078486407 1.373666777369438 28.405530081919231
v 15.572369999999999 0.715754 33
v 8.2624796576265496 18.60677270508064 28.775848049409468
v 10.61260999529366 19.211659999999998 33
v -17.251123769801101 -2.246858974313688 23.483254520364309
v 19.021143618810481 -13.115418683193059 29.08324415473227
v 14.75479663561117 -18.44224963170609 26.451381305706079
v 18.131353507016481 -12.992534769163081 22.869481414952521
v -5.6872174720933648 19.198219878520899 33
v 18.262116805846841 -2.203985924295961 23.782654199447219
v 18.534285092070171 1.763478907929829 25.68331496592219
v 18.745059667040461 6.5257482333734327 27.15523871859536
v 15.3699593910359 18.285262800293371 26.53062533957829
v 18.68960101405467 14.07614540822437 26.767948607192949
v 25.26004520016204 -21.545269999999999 16.5
v 24.774656457982658 -18.874382315506232 18
v 27.545269999999999 21.545269999999999 10.940759569766589
v 26 20 10.940759569766589
v 16.5779477714065 -15.54649797372773 16.5
v 20.84876278946177 -20 11.643773322304931
v 22.06182786234935 -13.29848279154937 16.5
v 21.634585007301339 -0.56195702729985442 16.5
v 19.21366945606739 -5.5287996203525687 30.427729621737409
v 10.03886208153089 -5.1177510113246312 16.5
v 17.434059999999999 -10.912892688373461 18
v 22.711730488460539 20 8.9185773238500197
v 16.616209423134549 -4.7995504724831051 16.5
v 27.545269999999999 16.737147475138599 13.38187523470558
v 11.678480570854971 -3.0320429999999998 18
v 15.45128161471497 2.549951151249227 16.5
v 22.269788806189549 15.53300769022751 16.5
v -18.613890000000001 13.69437195441729 33
v 21.02056351943089 10.239056823450429 16.5
v -8.3228649719313204 12.3140060303695 16.5
v 2.4625255986039658 17.835236352540321 23.387924024704731
v 25.05910510022316 19.020371304406591 18
v 14.628670184127801 16.875636399636729 16.5
v 18.4949078863613 14.43178292439476 16.5
v 14.20179791342464 20 12.56487010903391
v -50.545270000000002 2.1500010000000001 27.529620215116712
v -47.036465521277528 -2.1499999999999999 20.880290197167309
v 27.545269999999999 -16.479961537626689 4.2288950659765216
v 27.545269999999999 -17.600210046428781 11.12380973351727
v 7.2452521720933696 -17.232040000000001 18
v 27.545269999999999 10.912892688373461 13.426108369517371
v 35.453700853445639 2.1500010000000001 3.929384531673398
v 27.545269999999999 -7.3477447057451961 4.4223936051648174
v 27.545269999999999 5.8054139180518831 4.6071446645196721
v -27.545269999999999 13.95893581784318 2.2881991318147481
v 46.923560742603293 2.1500010000000001 15.72565529605118
v 45.251461830951882 2.1500010000000001 19.073233032765721
v -26 9.3963938468788655 3.2863117918777429
v 33.318617709214152 -2.1499999999999999 26.071967612053928
v -44.85344778179828 -2.1499999999999999 25.399079165952259
v 35.230680669053918 2.1500010000000001 33
v -16.44870786129605 21.545269999999999 2.6174310569083779
v -39.742482740220943 -2.1499999999999999 15.95312473375243
v -39.397562204653553 -2.1499999999999999 25.934112588745101
v -34.689975895350223 -2.1499999999999999 23.410980442124249
v -31.51005109991646 -2.1499999999999999 7.6415163990766253
v -33.04905107470708 -2.1499999999999999 19.278842827403309
v -23.612857211923149 21.545269999999999 18
v -27.545269999999999 -13.030658394191519 3.339831836477789
v 7.99814710571225 -17.809808037314259 16.5
v -33.048488839534883 2.1500010000000001 12.23926480602397
v -26 -6.2715128730020631 12.54409913514505
v -26 -1.522979276503285 12.913807976507099
v -30.088264989341759 -2.1499999999999999 21.024161987536068
v -30.66846453692358 2.1500010000000001 17.158872910413521
v -30.90092553330949 -2.1499999999999999 25.18235011775279
v -37.001728114785713 2.1500010000000001 28.754769517293621
v -26 8.3954841640157021 12.28193760498019
v -30.624098765089649 2.1500010000000001 21.832441750535221
v -26 12.89372325514009 5.362890321468667
v -34.934096235880048 -2.1499999999999999 15.42535022239748
v 18.538838085221919 9.8790453864823906 25.715110350952681
v -43.033121575421163 2.1500010000000001 15.07794579410713
v -30.106791109868361 2.1500010000000001 25.26903061229169
v 27.545269999999999 -16.229081344186731 16.5
v -23.12023252423845 21.545269999999999 8.3542239266576015
v -21.682714395644162 -20 5.9588518196265863
v -27.545269999999999 -16.229081344186731 16.5
v 27.545269999999999 16.229081344186731 16.5
v -27.545269999999999 16.229081344186731 16.5
v -21.103742292946659 -20 10.57336838541478
v -27.545269999999999 16.137476876881379 0.033949226715855207
v -19.66268975005444 -21.545269999999999 4.6499174209564433
v -17.696072019256391 -20 6.5022222221713477
v -8.5322980453054686 20 4.5456150220003337
v -18.89616713522458 21.545269999999999 5.7398933049406562
v -19.23688178231755 21.545269999999999 11.83072694484266
v -27.545269999999999 -17.413073205874529 6.8500871380021771
v 19.58201 13.935106707733389 33
v -40.834487809200432 -2.1499999999999999 11.107723751263681
v -16.884669516280091 -21.545269999999999 0
v -13.092285803293841 -21.545269999999999 0
v -15.12321254926484 -20 3.0709530026815939
v -15.090684166071339 -20 9.0778843413715542
v -12.529732918399221 -20 5.2169005376859729
v -15.141921458407079 -21.545269999999999 4.6769147972058871
v -11.89617785253272 -20 2.07176291616166
v -9.2367145591468436 -20 9.2672134410614024
v -14.05768624652719 21.545269999999999 8.4834863332210695
v -13.92588472683817 21.545269999999999 13.57747977951853
v 10.4421517098279 15.20201 33
v 10.3340595 15.20201 30
v 10.560972433048271 4.7253939999999997 33
v 10.3340595 4.7253939999999997 30
v -11.43637291851757 20 0
v 10.3340595 -4.8937330000000001 33
v 10.361672600174129 -4.8937330000000001 30.01074672991302
v 10.3340595 -15.37035 33
v -10.942504220502331 21.545269999999999 10.422608883898141
v 10.3340595 -15.37035 30
v -10.96024890816523 21.545269999999999 13.332949742984511
v -9.3659409999999994 15.20201 30
v -9.3659409999999994 15.20201 33
v -8.7995362684824556 4.7253939999999997 33
v -9.9616839845886638 -21.545269999999999 0
v -8.4579981945189715 -21.545269999999999 2.4710847465830499
v -11.54644611747856 -21.545269999999999 3.8743919813411059
v -8.958737431975802 -20 2.9150305396745888
v -8.8530209358676331 4.7642965472366283 30
v -11.602590785719761 -20 12.525061469263839
v -9.2655456965765381 -4.8937330000000001 33
v -9.3659409999999994 -4.8937330000000001 30
v -9.0306578111341889 -15.37035 33
v -9.6324203610925831 -15.37035 30
v -4.1276320000000002 -10.69736306104214 33
v -4.1276320000000002 -10.1320415 30
v -0.1179886 -10.1320415 33
v -6.4002437855981356 -21.545269999999999 0
v -5.3441436522462933 -21.545269999999999 3.603083779356834
v -8.6148574809973795 -21.545269999999999 5.3802654463388704
v -5.9878584726406956 -20 2.5381103467105381
v 15.572369999999999 -9.751687845297532 33
v -6.1682672525237727 -20 12.17604075944495
v 15.572369999999999 -10.1320415 30
v -14.60425 -9.3087110852771584 33
v -14.60425 -9.5879646394524141 30
v 5.0957489999999988 -10.20062981907347 33
v 5.0957489999999996 -9.4333204414927927 30
v -4.1276320000000002 9.6392203083260526 33
v -4.1276320000000002 9.9637019999999996 30
v 15.572369999999999 9.9637019999999996 33
v 15.572369999999999 10.22306344099019 30
v -14.60425 9.9637019999999996 33
v -14.60425 9.9637019999999996 30
v 5.0957489999999996 10.045282188133941 33
v 5.0957489999999996 9.9637019999999996 30
v -7.3813771037022367 20 13.56920758843396
v -8.2976615547448027 21.545269999999999 8.0182393492851176
v -8.0857899917535114 21.545269999999999 11.18746579342144
v -7.1091764145480738 21.545269999999999 13.784023571831611
v -2.7490755739120081 -20 5.359109859694116
v -27.545269999999999 11.597336832572481 4.3919795981876986
v 1.426815425060395 -20 3.412803688155893
v -26 -6.7738504829133914 8.7140183332771386
v 6.4903811280653123 3.9965748405899268 16.5
v 1.4968438749152919 21.545269999999999 3.1562135381425072
v 0.13335283121385991 21.545269999999999 7.221169706493809
v 2.1315598347949072 -20 10.382285036576301
v 4.9054329915380954 -20 6.1865125520671924
v 2.54397913179695 21.545269999999999 10.79380319351144
v 5.0572808134371314 21.545269999999999 6.3914203099001679
v 8.9160110083816324 -20 4.1076390490320209
v 7.8256992604887454 -20 9.3926229703906241
v 11.522190899364499 -20 7.5713696194260036
v 12.19940421470262 -20 12.309693172952571
v 9.2358857136720083 21.545269999999999 4.1840270030450082
v -22.307881168361149 8.8387862667280412 16.5
v 8.227993113755069 21.545269999999999 10.471442098379089
v -26 7.3877715041169409 6.6610646787975947
v 12.378398292718011 20 4.1918232857232889
v 11.79388758213001 21.545269999999999 13.52488954623457
v 13.47394476570082 -21.545269999999999 0
v 11.36856800054446 -21.545269999999999 3.5042550558277328
v 14.51602756070119 -20 3.8288908551656209
v 17.374625618682931 -21.545269999999999 0
v 16.125363061860231 -20 9.0105707061364519
v 15.334952784104811 21.545269999999999 4.9345361815218203
v 13.153285693771631 21.545269999999999 9.0444133231964141
v 16.884669516280098 21.545269999999999 8.3040393600146452
v 16.406963408015699 21.545269999999999 13.209143500570571
v 17.483272019622529 -21.545269999999999 3.2856793511349971
v 20.361509911864399 -20 3.312620780793277
v -35.896368459704433 2.1500010000000001 4.4523046292073722
v 22.886006698482781 -20 6.409736513742768
v 21.020662765267279 21.545269999999999 6.1492371162099246
v 21.863578860704418 20 2.7292420449856638
v 19.44845306627019 21.545269999999999 2.9128969302393228
v 20.184097992358161 21.545269999999999 11.1673179214683
v -38.506979442560663 2.1500010000000001 24.746928997495921
v 20.233928691608948 20 5.3221572175987202
v 24.557367154226078 21.545269999999999 3.5479304731240959
v 27.545269999999999 -18.18435997432006 7.1966934470494861
v 27.545269999999999 -12.82736397699076 7.5974493786354902
v 27.545269999999999 -13.34342048298495 12.50677107639302
v 27.545269999999999 -7.5967182089029421 11.813493616534229
v 31.120036419733399 -2.1499999999999999 20.883451891299451
v 21.002825433797149 18.35854371530468 18
v 26 5.7866272231795808 13.638343545425309
v -20.235658882663682 -13.58852125159674 18
v 27.545269999999999 5.3923985781465049 13.2606181015086
v -16.751188660838579 -21.545269999999999 8.2803811744820166
v 26 2.5126293477461128 12.753027527687561
v 31.687162726999929 2.1500010000000001 15.85136441331818
v -6.1284118182574483 -21.545269999999999 16.5
v 26 9.9705689025615012 12.333903381739949
v 27.545269999999999 7.4180653039400752 10.238703722434931
v 27.545269999999999 10.745625113643539 7.6733002086546671
v -1.6735570696135591 -7.376561539117688 22.136856021083432
v 24.15959847255079 21.545269999999999 8.0541812090133593
v 27.545269999999999 16.72829085671572 8.8770200707253117
v 27.545269999999999 16.601235353895859 4.0033735794613818
v 31.68599497381275 2.1500010000000001 26.90764236615416
v 34.656251239702499 2.1500010000000001 21.440276467205091
v -27.545269999999999 7.2104914801819646 5.448606347170311
v 35.835032651009882 2.1500010000000001 15.112136244620711
v -22.115255244814801 14.406795495601051 16.5
v 21.55814768707268 -4.9495206631747823 16.5
v 37.248414827048371 2.1500010000000001 9.6991546074457649
v 40.560599648564683 2.1500010000000001 13.83558731605592
v -27.545269999999999 -17.73431451903841 3.2934303057326719
v 6.7554348925439216 19.211659999999998 33
v -13.09164348834107 -2.4590691385741028 22.00130595240778
v 19.09156894814436 16.21974942919568 29.57505259534226
v 18.005904338725639 2.291859661274362 21.99341934443752
v 5.1024273622446339 -17.977198214631649 23.203739947147159
v 40.256902310862827 2.1500010000000001 19.313917276595731
v -13.46401784297959 -1.7306983229553741 27.08781107297732
v 14.93214629017158 2.1793574478639308 22.779067614255929
v 44.812480221627418 2.1500010000000001 13.69127410542051
v 42.098822572887173 2.1500010000000001 24.213412753811809
v 47.029925436054867 2.1500010000000001 25.039217662123399
v -41.15511032332067 2.1500010000000001 5.433026095342222
v -26 -1.4898089423215031 0
v -27.545269999999999 -2.1499999999999999 5.3815191395331752
v -31.31680510247913 2.1500010000000001 29.269111915183771
v -27.545269999999999 2.1500010000000001 27.618480860466828
v -27.545269999999999 10.912892688373461 0
v -26 4.7872206445352248 0
v 27.545269999999999 10.17157237293743 3.209665862804139
v 10.86028165570429 2.1461736389590351 23.010803517593271
v -27.545269999999999 21.545269999999999 12.28379686834273
v -18.424065487699799 -21.545269999999999 18
v -19.84325941566323 -21.545269999999999 16.5
v -27.545269999999999 -15.008705446423789 18
v -25.618174907387129 -11.93445423667735 18
v -27.545269999999999 -10.912892688373461 16.5
v -11.265091318134351 -1.2863903128878129 30.190591854218439
v 15.417253369322649 -21.545269999999999 13.273137491215881
v -19.167522260846422 20 16.5
v -19.412924490664231 21.52363766455424 18
v -27.534850732440649 15.61660313009293 18
v -27.545269999999999 10.912892688373461 16.5
v -27.545269999999999 11.27831535755341 12.68329033406841
v -21.096447944886151 13.46890870981991 18
v -18.036307539602198 -1.461674948627377 28.96650904072861
v -27.545269999999999 -14.4843243659358 12.68717916865317
v -17.449141969159331 -18.215241969159329 24.866095364133219
v 8.197311731900971 -0.037577618579436312 18
v -1.2940603342678501 -13.239693512720271 24.78703038249445
v -16.46594 -10.912892688373461 18
v -14.7348977103831 -21.545269999999999 12.95876077071966
v -11.256446344186729 -21.545269999999999 16.5
v 5.8494996903692247 -20 13.140998325940121
v -11.669930873638251 -14.01036065532694 16.5
v -11.256446344186729 -17.232040000000001 18
v -22.0879301769527 0.55822373603825781 18
v -22.512892688373459 -8.9208015129975351 18
v -22.504592041585479 -3.7401681286728792 18
v -21.924286278193719 6.7047533090490852 18
v -11.256446344186729 2.8637039999999998 18
v -11.913928800633331 15.0399912438456 16.5
v -1.526788909019277 13.27658072814474 23.161795579322551
v -14.138507262582181 20 16.5
v -14.4287795482674 21.545269999999999 18
v -11.256446344186729 20 16.5
v -18.613890000000001 -12.795781885847671 33
v -11.862951733477161 1.301983000132344 28.906126771114241
v -10.237173175094791 0.715754 33
v -18.613890000000001 7.7876481826758628 33
v -4.1276320000000002 0.715754 33
v -15.62637995693593 -20 12.425561460980489
v -0.5626229214564602 -14.99523795032575 29.89494435873381
v -0.56812555477696136 -8.4772112030910787 29.856517314735779
v -1.067181613365292 -6.6226508370785462 26.371413364703638
v -11.74514688271997 18.67900595970475 29.28027961208366
v 2.0518627078007619 -18.41423584258256 26.255749732879391
v -0.1179886 -15.37035 33
v 21.298187053092231 -11.027309677211271 18
v -5.0596884820376982 -19.379989999999999 33
v -0.1179886 -4.8937330000000001 33
v -0.69770632543524991 11.251736573353011 28.951604033156048
v -6.2265197169868021 2.1963695608630398 22.66026517705459
v -1.5731890045685151 6.8180320542354202 22.837765536008501
v -0.1179886 4.7253939999999997 33
v -0.1179886 10.64755277886445 33
v -0.53480594726949149 16.162840574328229 30.089201186095391
v 11.93612128087516 -21.493255919270329 18
v 1.690993197207932 18.60677270508064 28.775848049409468
v -0.1179886 15.20201 33
v -1.0003772923281671 -21.545269999999999 16.5
v 2.041138431443251 -10.405340669090331 16.5
v -6.5517737623299146 -13.821826683375489 16.5
v -6.1030678369697657 -21.545269999999999 13.225933098597149
v -22.45983814953507 20 13.340071111684519
v -5.6282231720933664 -20 16.5
v -2.0294787886007128 -21.495123263189509 18
v 18.12094867058239 12.077211578098691 22.796820251279499
v -2.2659419999999999 -10.912892688373461 18
v -10.642244686450219 -3.0320429999999998 18
v 3.2340580000000001 -10.45488945353757 18
v -27.545269999999999 -5.0949864999734338 2.690759569766588
v 2.1594628970614198 10.812784334759179 16.5
v -4.6701236376659132 10.26694679692906 16.5
v -2.2659419999999999 10.912892688373461 18
v 3.2340580000000001 11.270352829978901 18
v -2.6164200253442469 21.545269999999999 18
v 2.1616561579504778 21.545269999999999 18
v 20.971879785127921 -8.4920154067522624 16.5
v -16.84760427443803 -14.018648336093319 20.665315354906021
v -3.768100134620477 20 16.5
v -2.1498562893745139 20 16.5
v 5.0957489999999996 -0.88409230000000005 33
v 17.487191141739089 18.732213317377031 29.651846291670019
v -3.7063404670048739 -9.1738702584315774 16.5
v 5.9515369497203441 -21.545269999999999 11.97931682987959
v 7.5512340390710087 -21.525528848548941 18
v 11.25644634418674 -21.545269999999999 16.5
v 11.25644634418674 -20 16.5
v 11.048961238813799 -14.416760001578229 16.5
v 11.25644634418674 -17.232040000000001 18
v -4.3298061604520237 21.545269999999999 5.056054674874197
v -39.677733429065547 -2.102492033620885 3.6918318985415368
v 6.0794905575608604 8.0681099929951348 16.5
v 3.386988700737565 20 16.5
v -0.65497695 -1.4210799750000001 29.25
v -1.72895365 -2.495055325 21.75
v -0.65497695 1.2527415 29.25
v 6.8182008165871366 20 16.5
v 7.3447136592841282 21.545269999999999 18
v 11.84131756316909 12.14796806444966 16.5
v 1.428190609789193 -17.075647363947621 16.5
v 11.25644634418674 17.063700000000001 18
v 11.25644634418674 20 16.5
v 7.7599845896465496 21.545269999999999 16.5
v 21.649065438619459 -18.63547031194587 18
v 7.2302796257193851 -19.379989999999999 33
v 11.25644634418674 -19.379989999999999 33
v 9.9037016638933615 -1.9276367018097511 25.712511498915561
v 11.205291162172539 -0.88409230000000005 33
v 15.578463573695201 -1.372072016072827 29.592242205050422
v 14.22444561158377 -2.0810142859498351 24.641414400597029
v 15.572369999999999 -0.88409230000000005 33
v -6.9920133802109774 -7.6449264634603171 30
v 19.57366809244526 -13.24600960314767 33
v 15.463200039178581 -20 12.505108432901769
v 18.25197993703717 -18.049959937037169 23.711864361627381
v 18.866145213545199 -18.664125213545201 28.00082786060106
v 19.58201 -8.3710883140773298 33
v 19.58201 8.6585534154667911 33
v 18.361394226217921 17.991038543516861 24.475948412797688
v -27.545269999999999 -17.81610186009619 13.3701467827246
v 19.987843875591199 -21.545269999999999 18
v 19.666718446817629 -20 16.5
v 14.718376661700351 -20 16.5
v 16.20535538284313 -21.545269999999999 18
v 18.974724818317931 -21.545269999999999 11.682514992106841
v 19.613737176789019 -21.545269999999999 16.5
v 23.766556937795599 -21.545269999999999 18
v 21.570526288415749 -5.5663015863829877 18
v 17.434059999999999 10.912892688373461 18
v 22.73245520225105 1.999464756767253 18
v 23.12158763572269 7.0541616784732462 18
v 19.70311765661074 20 16.5
v 21.57007153321036 21.507440221265082 18
v 13.94888517351967 21.545269999999999 16.5
v 15.046797427751381 21.545269999999999 18
v 8.9956329679142257 -20 13.05031185052113
v 23.238899467893681 11.892096796899519 18
v 24.107393971965909 -21.545269999999999 5.3487268785247117
v 26 -16.39517745188602 4.9688877408634546
v 24.093499864540298 -21.545269999999999 11.905308809932841
v 26 -16.132467731823802 12.93732340633284
v 24.837055872282569 -10.84630723475146 18
v 26 -10.912892688373461 16.5
v 27.545269999999999 -16.61166293766744 18
v 26 15.21710959507209 5.3927109019387878
v -4.5767883166458709 -20 8.7846698850462062
v 26 10.912892688373461 16.5
v -1.7396699841541159 17.589973632917889 21.675163640742049
v 27.545269999999999 16.041811714166819 18
v 27.545269999999999 -21.545269999999999 5.5206885939159918
v 27.545269999999991 -21.545269999999999 10.42654783679747
v 26 2.2742179793347401 2.5203068813489709
v 26 -0.46315414448776637 0
v 27.545269999999999 2.1500010000000001 5.0421782394320376
v 34.86601786257561 -2.1499999999999999 6.1685468419473644
v 26 -5.5714027437008138 0
v 26 -10.912892688373461 0
v -18.370112617876451 -17.710292163598861 16.5
v 26 -11.642409956296181 5.4013653896815663
v 26 -2.0774231124163158 4.4784452035558582
v 31.063799133454289 2.1500010000000001 33
v 27.545269999999999 -2.1499999999999999 27.618480860466828
v 26 5.4564463441867321 5.3815191395331752
v 26 4.7872206445352319 0
v 26 11.108018214836861 3.7489437951295521
v 40.191851525292677 2.1500010000000001 4.2977567976663629
v 41.111407451725107 -2.1499999999999999 5.3815191395331752
v 48.240482467104343 2.1500010000000001 13.78364326480154
v 43.446481178640603 -2.1499999999999999 19.36118543979989
v 48.028629985405637 -2.1499999999999999 13.533959982799511
v 47.362931987825597 -2.1499999999999999 22.061363408977371
v 45.15526193845249 -2.149999999999999 33
v -45.828338725862572 2.1500010000000001 10.940759569766589
v -42.855435695263218 -2.1499999999999999 7.4369809979888011
v -3.0304367292230352 -21.545269999999999 5.456213448339148
v -43.587228345860439 2.1500010000000001 28.32080631434177
v -38.866609689267293 2.1500010000000001 10.55503198750425
v 3.2340580000000001 -6.7434662267687857 18
v -39.304378088284857 2.1500010000000001 33
v -34.157819449164514 2.1500010000000001 23.299820609221111
v -26 -16.816148784208671 14.030818576913649
v -27.545269999999999 -14.257797923595049 0
v -27.545269999999999 -8.4734996557070055 13.426108369517371
v -27.545269999999999 -2.1499999999999999 7.7194454828035433
v -27.545269999999999 -6.3757199379268794 8.4161790604860798
v 16.51267211691767 1.041420181962716 30.725741879726829
v -27.545269999999999 2.1500010000000001 7.86686793928396
v -27.545269999999999 2.1500010000000001 13.426108369517371
v -25.226021578528389 -6.8744867071854827 18
v -27.545269999999999 -5.4564463441867286 16.5
v -25.929418376851 -3.973797204585519 18
v 7.5749450582471836 -20 16.5
v -27.545269999999999 5.8497141610506826 10.71677575054656
v -27.545269999999999 6.0122455598114168 14.26273313468767
v -26 17.382449063579159 13.916298147504371
v 23.886038184938471 15.28592523922665 18
v -25.59087009677565 5.640101576241193 18
v -27.545269999999999 6.1139120674217473 16.52993963697406
v -27.545269999999999 -2.1499999999999999 20.88215476876972
v -27.545269999999999 2.1500010000000001 20.88215476876972
v -27.545269999999999 2.1500010000000001 16.5
v -27.545269999999999 13.36356225933701 7.9403371506872586
v -27.545269999999999 21.545269999999999 7.0229132651222512
v -27.545269999999999 2.1500010000000001 23.462679106568359
v -25.216583982591871 -0.6290949526189884 18
v -22.125645961242881 20 9.4185328397059926
v -19.430396893466121 -21.545269999999999 10.881277619616281
v 20.262977500762801 14.50108117644567 18
v -18.75714923091434 20 0
v -0.4665587360319785 7.456439123325044 30.56579819632973
v 7.6722329095230686 7.3276990436718412 30
v -15.081318674787029 -20 0
v -12.884773916683461 -21.545269999999999 8.4219041293649006
v -14.12244768718995 20 5.5305352269267569
v -13.43452985871744 20 11.28733647085987
v -20.362871317629871 21.545269999999999 16.515809555586308
v -10.98374961721942 20 9.7524350288185495
v -9.1015566003263402 -20 0
v -8.1320521437327784 -20 16.5
v -5.3448957821296741 -21.545269999999999 8.3655454094474173
v -26 -20 3.8813306313252638
v -8.7526173725473129 20 16.5
v -7.7211159645318794 20 9.8972033566704027
v -5.808149746424208 20 0
v -3.1387113637727708 -21.545269999999999 0
v -0.71597767631639542 -21.545269999999999 2.5468814872308791
v -1.7763568394002501e-15 -21.545269999999999 8.0182393492851212
v -0.071192179732793903 20 0
v -2.2367050897671059 20 5.9066458982801882
v -1.11673153618709 20 11.07066400004325
v 2.1425349035676202 20 3.6144345421214941
v 1.7322317787471351 -21.545269999999999 0
v 5.5114976022153623 -21.545269999999999 2.9779173705337589
v 5.8028383573759008 -21.545269999999999 7.3576139673675316
v 4.6852219969112703 20 0
v -20.04964376485832 17.668577679278439 18
v 6.0458926318228858 20 4.8998340009082328
v 23.774537399246491 -17.17710388257818 16.5
v 10.58409916671186 -21.545269999999999 0
v 10.37899067235111 -21.545269999999999 8.002016025164437
v 11.25506402144733 -21.545269999999999 12.265353338561759
v 12.19807821559918 20 10.0106688804158
v 9.2040400552216539 20 0
v 9.3839666295524964 20 7.2310486652990953
v -26 -9.7929834946671477 13.07421614267772
v 12.371943474627381 -20 0.026278455477749461
v 24.02371143178128 21.545269999999999 16.460603213854942
v 14.57720702421736 -21.545269999999999 7.5444067537159896
v 14.18045783087017 20 7.3332748471120137
v 17.795960388743541 20 8.933810742450234
v 18.577222656583501 -20 0
v 20.13660965589991 -21.545269999999999 6.7221070134260898
v 19.648821120942529 20 0.017539687773931969
v 26 -16.7455337723563 8.8486484442756463
v 26 -12.278514535814439 9.6561741518279796
v 26 -6.9795639560211633 8.146032530115626
v 26 -1.504825154530177 9.2570329134185698
v 26 -2.945708332993481 16.5
v 26 -5.8914166659869647 16.5
v 27.545269999999999 2.1500010000000001 8.4554107700158099
v 25.305495154695031 -2.2110564177384049 18
v 27.545269999999999 -2.1499999999999999 22.616028111197981
v 26 5.5070760610846019 9.9223667708391812
v 17.773936455022561 -20 14.1682597953968
v 27.545269999999999 2.1500010000000001 13.426108369517371
v 26 9.9975498683672299 8.0461233126809706
v 26 7.9671843553799793 16.5
v -2.1228102999999998 7.6864733894322246 33
v 34.77961712015103 -2.1499999999999999 19.523441019172889
v 5.2783318133832786 -1.882477279624257 26.027877830546181
v 33.562468301490483 -2.1499999999999999 11.24574666236199
v -23.71419847850424 -20 3.1000858737478478
v 38.508492177547119 -2.1499999999999999 27.84216045138232
v 34.102234961972528 -2.1310450199998119 33
v 40.687993412340568 -2.1499999999999999 10.70344746041757
v 39.517861405121117 -2.1499999999999999 16.626107277073579
v 39.941732589625083 -2.1499999999999999 22.610137938438719
v 38.935937890267567 -2.1499999999999999 33
v -5.8159414999999992 17.063700000000001 18
v 43.977014200722898 -2.1499999999999999 25.192637891540699
v 45.130959794286852 -2.1499999999999999 10.11884868612378
v 44.388339053658576 -2.1499999999999999 14.90414486682563
v -50.545270000000002 2.1500010000000001 22.044803510790079
v -45.025785376746917 -2.1499999999999999 33
v -26 -10.912892688373461 0
v -4.1177728158776006 -1.679359660558331 27.446329513812881
v -27.545269999999999 -2.1499999999999999 27.618480860466828
v 7.8685336142181548 -12.67718671688784 30
v -21.33315959824041 -21.545269999999999 0
v -27.545269999999999 -10.397151207359441 18
v -26 -10.912892688373461 16.5
v -16.46594 -6.9724678441867294 18
v -2.2659419999999999 -6.9724678441867294 18
v -26 10.912892688373461 16.5
v -6.5242802953186736 7.2023748280166426 30
v -17.73427122538568 1.5953727746143169 26.857267804550961
v -16.70217127805514 21.545269999999999 16.5
v -16.957540984579669 -17.723640984579671 21.433047682066611
v -0.72721551187334299 -18.770764052473229 28.745529824762428
v -1.0837442861141739 -18.41423584258256 26.255749732879391
v -1.2133979683082321 18.116247265835771 25.350327281484091
v -5.6282231720933664 21.545269999999999 18
v -3.740547045414655 21.545269999999999 16.5
v 3.8934437723076281 -20 16.5
v 11.25644634418674 2.8637039999999998 18
v 1.815688149332674 21.545269999999999 16.5
v -18.509917870715071 20 7.2462166156205434
v 10.93470154017497 21.545269999999999 18
v 18.984751166523392 -1.481351328118562 28.82910100228165
v 20.949282591675491 -17.114932510705991 16.5
v -27.545269999999999 -21.544197766927351 10.766436523656051
v 20.299344367009251 21.545269999999999 16.5
v 2.6099494666053769 2.28339057086075 22.35840329585076
v 26 -11.841230344358531 13.34611925929898
v 42.978687682763741 -2.1499999999999999 29.09545656746857
v 26 -15.77653762956191 1.7763568394002501e-15
v 17.777504335291191 14.570455789049349 20.398410125639749
v 27.545269999999999 -10.912892688373461 16.5
v 22.463196934644309 21.545269999999999 0.042113360932023843
v 27.545269999999999 10.912892688373461 16.5
v 27.545269999999999 -10.912892688373461 0
v 27.545269999999999 -2.1499999999999999 5.3815191395331752
v 27.545269999999999 2.1500010000000001 27.618480860466828
v -0.86738969989286874 -20 16.5
v 27.545269999999999 21.545269999999999 6.0437213191489718
v -0.59254051864895785 -5.0771736218025048 29.686018058057321
v 45.025785376746917 2.1500010000000001 33
v 50.545270000000002 2.1500010000000001 27.618480860466828
v -50.545270000000002 -2.1499999999999999 25.908435302089551
v -24.078582298722829 -21.545269999999999 12.73412259518205
v -7.514721450514311 1.61858187557765 26.695189304376381
v -46.270801032848233 -2.1499999999999999 11.462233002999699
v -12.9918024393808 -17.76347366176995 21.711215310667939
v 8.6987233589569932 -21.545269999999999 14.17611988165217
v -24.731816202279731 11.39610632815072 18
v -39.256964420516383 -2.1499999999999999 33
v -27.545269999999999 -21.545269999999999 6.2242556682594028
v -26 -20 7.7626612626505276
v -26 -14.64475013352282 0
v -4.5635596311978066 -17.851017655766402 22.322570281662021
v -18.705688325892179 -20 13.81155761539882
v -27.545269999999999 -2.1499999999999999 13.278685913036959
v -27.545269999999999 -2.1499999999999999 16.5
v -27.545269999999999 -6.5672507229420773 18
v -26 -7.9671843553799757 16.5
v -26 -5.4564463441867286 16.5
v -26 5.89141666598697 16.5
v -27.545269999999999 4.5140498117902261 18
v -26 2.1500010000000001 14.06790696883326
v -26 14.28750319710656 0.046159741157318017
v -27.545269999999999 9.3922784785049025 18
v -13.8431411336636 -21.545269999999999 18
v -27.545269999999999 -2.1491713263892538 24.704969386243668
v -21.2906319125319 -20 16.5
v -20.64041297373922 -20 0
v -19.73403447326238 21.545269999999999 0
v -27.545269999999999 17.448777860519961 4.6225657875417356
v -8.0729604446184347 -21.545269999999999 18
v -10.60127787939841 21.545269999999999 18
v -7.8231279003014933 21.545269999999999 0
v -3.0730968488166401 -20 0
v -2.6851718067314541 21.545269999999999 0
v 1.0020218444337381 -20 0
v 5.6282231720933691 -20 0
v 5.4482965977625248 21.545269999999999 0
v -4.3243155893918868 -0.09872393371928645 16.5
v 3.2340580000000001 -13.84346472676879 18
v 0.73297856323341648 -19.82633123602437 18
v 11.076519769855899 21.545269999999999 0
v 16.01150551098949 21.545269999999999 0
v 20.597846644302741 -14.978375024568461 18
v 7.4019534976836354 -1.3110007556602581 30.018727275768541
v -3.438609997104964 -20 14.30771418116897
v 27.545269999999999 -5.4564463441867286 16.5
v 0.17702508784364571 7.0825166719223622 16.5
v 27.545269999999999 2.1500010000000001 22.05924043023342
v 27.545269999999999 5.4564463441867321 16.5
v 22.58021911464478 -20 14.56489614497124
v 27.545269999999999 -2.1499999999999999 13.720953282478201
v 27.545269999999999 -2.1499999999999999 16.5
v 27.545269999999999 2.1500010000000001 18
v 27.545269999999999 2.1500010000000001 16.5
v 0.64328839134229199 -20 13.62135772046431
v 27.545269999999999 13.929945999893739 0
v -10.15251705258812 -17.136890632262951 16.5
v 39.397562204653568 2.1500010000000001 33
v 44.722078755138078 2.1500010000000001 9.6438846277677897
v 24.65226636926878 21.545269999999999 18
v 46.743617379078877 2.1500010000000001 12.019480839628679
v 50.545270000000002 -2.1499999999999999 22.166646216847418
v 50.525272522887803 2.1500010000000001 24.142750117738409
v 50.545270000000002 -2.1499999999999999 26.0415183753591
v -26 20 5.3815191395331752
v -26 20 10.940759569766589
v -11.256446344186729 21.545269999999999 16.5
v 27.545269999999999 -10.912892688373461 18
v 27.522133209821249 11.17972763688846 18
v 26 -20 5.3815191395331752
v 26 20 5.3815191395331752
v -27.545269999999999 -2.1499999999999999 18
v -26 -2.0757676893930048 16.5
v -25.09168676758722 2.7974147735603658 18
v -27.545269999999999 2.1500010000000001 18
v -26 2.1500010000000001 16.5
v -9.2839231512254443 21.545269999999999 16.5
v 26 -20 8.5596174466492378
v -26 16.71913056500258 8.2656488504151842
v 27.545269999999999 -6.3994002752014598 18
v 27.506362124103109 5.3378944265497026 18
v 27.545269999999999 -2.1499999999999999 18
v 26 2.0757676893930119 16.5
v 0.34549817293107671 -6.9770016125952239 18
v 26 -7.4813799432840167 4.2339574833192906
v -26 -7.4401443737196686 4.608393416921972
v 27.545269999999999 -19.201330948456899 14.07146004631733
v -27.545269999999999 -18.276987723211889 18
v 15.33250323222714 20 0
v -9.6965323203153364 -21.545269999999999 13.17249846081395
v -17.260258296691461 -9.6228408627659672 23.547044600838881
v 2.6888916827301839 -21.545269999999999 18
v -7.2588758030711524 -17.075205090350462 16.5
v -44.77442014865381 2.1500010000000001 23.92278971863313
v -1.4298382755001491 -4.5826802964796673 23.83883983120759
v 21.81572651166595 -21.545269999999999 14.00016934059088
v -26 10.60464468947016 8.7283061451684389
v -27.545269999999999 13.85256989966804 14.33751155996864
v 17.124114770264459 21.545269999999999 16.5
v -27.545269999999999 14.314649102876469 12.147464939831281
v 22.83335922340882 -20 16.5
v 10.755119266269119 -9.8831055034950932 30
v 26 -13.886925342280019 14.876816264166621
v -27.545269999999999 19.091085473534431 14.340465643165521
v 0.24612108601535351 18.886284378716041 18
v 22.851558828305372 20 16.5
v 2.9875399486996121 -20 13.495488157240199
v -25.97297055523374 -15.21080080041477 16.5
v 26 -15.45644634418673 16.5
v -26 15.45644634418673 16.5
v 26 15.45644634418673 16.5
v 2.3411420834394709 -4.6371996131933644 24.2355943965187
v -47.579035082416922 -2.1499999999999999 29.214253809890931
v -27.54006036622032 12.504440804298911 18
v -17.10010561269284 2.229538387307159 22.428633902275479
v -17.28907856302316 -21.545269999999999 14.72938038535983
v 1.6836860505573159 17.566566841705601 16.5
v 7.7269257393466262 -2.5291463872898068 21.511928458438501
v -5.4670445179847427 -21.545269999999999 18
v 10.85443488158311 21.545269999999999 16.5
v 6.7518717152178596 17.563400575716159 21.489594143160161
v -24.72506949975957 -17.19129354626833 16.5
v 32.045270000000002 2.1500010000000001 0
v -0.79898851840316309 17.242476083914251 16.5
v -11.57295773367834 -21.545269999999999 11.3105312453858
v -23.117036902500729 -12.56451677297264 18
v 8.1922404350580127 -21.545269999999999 16.5
v -6.761194172093365 2.8637039999999998 18
v -6.761194172093365 -17.232040000000001 18
v -29.727715620902028 -2.1499999999999999 17.75232290196826
v 2.06382861680056 -21.545269999999999 16.5
v -26 2.2008391358916128 9.4193982000298071
v -18.141751265259071 -20 2.714434643564267
v -8.3130387404659167 -21.545269999999999 14.955972854121089
v -25.320145805819081 -19.693991655429059 18
v 4.7878363694896118 21.545269999999999 16.5
v -27.54006036622032 18.580936565046461 18
v 1.5008290008657601 -1.298812629097017 30.10384184494772
v 7.6266674952907643 -10.335756146831381 16.5
v -0.89188318461358662 -13.908197263592429 16.5
v 32.261523356386313 2.1500010000000001 12.169867348291239
v 32.71428834314213 2.1500010000000001 7.969242275090167
v -8.9471063876754542 -20 12.28820760539034
v 30.562846276180402 2.1500010000000001 18.848878843463499
v 27.514247666962181 8.2588110317190822 18
v 17.963917381555621 21.545269999999999 18
v -20.925910717043958 -17.325666368253909 16.5
v 1.776278687551903 11.218158018135149 28.18026484181955
v -3.4809852652542519 -21.545269999999999 10.56710221491816
v 18.08106294318571 6.1052110300373492 22.51828215171939
v 26 14.07645681758825 9.254272805747668
v -18.222219924701999 11.61968012651065 30.26481010755835
v 27.545269999999999 19.141208737569301 14.940937617352789
v 22.436891188475531 -21.545269999999999 16.5
v 0.054116446314608879 20 14.45786866663139
v -11.030957325428689 -21.545269999999999 18
v -3.8578492843126422 21.545269999999999 13.69916690751419
v -3.9470825860466832 19.304485 18
v -26 12.741091304805201 14.572051314989279
v 26 20 13.72037978488329
v 26 -20 13.720379784883299
v -0.96242944804099051 21.545269999999999 16.5
v -6.5122350983200494 21.545269999999999 16.5
v 0.61856620568152509 20 16.5
v 27.545269999999999 -11.73047565782176 3.7499236402675362
v -9.9963855857700921 -20 14.82744916281858
v 27.545269999999999 18.793540857083411 18
v -17.36230243533371 -14.31878673494964 24.259659922254102
v 27.545269999999999 -18.88717567209336 16.5
v 27.545269999999999 -13.570987016280091 16.5
v -27.545269999999999 13.5709870162801 16.5
v 27.545269999999999 13.5709870162801 16.5
v 27.545269999999999 18.88717567209336 16.5
v 22.59728929406155 20 12.921313833427689
v -27.545269999999999 6.1865029690572513 0
v -3.5643945552928069 -21.545269999999999 16.5
v -8.3902905936713843 -21.545269999999999 16.46219747223514
v -26 -20 12.131330631325261
v 27.533701604910629 13.61076967552764 18
v -24.090873813016039 -21.545269999999999 8.2823533879568849
v 20.336479733946842 9.3901975705431227 18
v 2.1847906100009178 20 8.3128078074514029
v 26 -13.641115860466829 2.690759569766588
v 17.013790335704218 20 3.4670853169139129
v 1.6480397419227379 1.2776850035354399 29.07580946808277
v 2.0206037221754731 -21.545269999999999 13.284871293208599
v 6.1883887635640278 -21.545269999999999 0
v -15.54985287992498 -21.545269999999999 16.5
v -32.284209974822808 -2.1499999999999999 12.627291199415639
v -30.799583744551288 -2.1499999999999999 15.51794775294054
v 12.420375466501209 -18.76041902183227 28.673286309031401
v -27.545269999999999 0.19545509090909099 18
v -27.545269999999999 0.058334397612817217 23.345909213184111
v -1.6170747483788299 -21.545269999999999 12.76865902038891
v 15.24903786138109 17.603099069035839 21.7668234210775
v 24.185296376479869 -15.09826930270051 18
v -13.620626171422151 -0.53869918601913014 16.5
v -7.2763035288464479 4.5398557002183617 16.5
v -27.545269999999999 9.1193812040905531 9.3772750952963513
v 31.647790199423099 -2.1499999999999999 16.03562845237882
v 46.661103275917547 -0.048595142773239619 11.922232075188539
v 15.479782000398741 20 16.5
v -19.350325877298591 -6.9677332573934656 18
v -14.4255315875474 0.715754 33
v -6.4540933432251091 -3.0320429999999998 18
v 27.545269999999999 -15.095389151956891 0
v -1.878676049593063 -20 10.98491493820805
v 15.435091760487881 -21.545269999999999 16.5
v 0.28966339655402962 14.721480163047961 16.5
v 14.750613579333869 19.211659999999998 33
v 15.419228172093369 -19.379989999999999 33
v 11.25745715491635 18.303330563947021 26.656799223079261
v 30.49897994485698 -2.1499999999999999 8.7732603361938342
v 31.29314433183422 -2.1499999999999999 2.9418527351782608
v -26 -10.76532167757369 9.8832065691979736
v -2.2659419999999999 6.8882983441867314 18
v 17.434059999999999 6.8882983441867314 18
v -23.19660810854586 -21.545269999999999 18
v 7.2452521720933696 2.8637039999999998 18
v -17.24266500859488 14.79910125171903 23.424183583846531
v -14.28207872701247 17.678470550643439 22.29317038476114
v 22.620635519374559 -21.545269999999999 0
v -23.258549911120831 21.545269999999999 11.83584140117383
v 18.293893586445421 20 12.79561502200033
v 37.12878947612915 2.1500010000000001 26.77568416423556
v 8.7974567288801993 -21.545269999999999 5.412734904857694
v -19.62166516718451 -14.45152709474567 16.5
v -0.66569328415411611 18.663953632917892 29.175163640742049
v -7.1225220053586984 -20 5.7670394412527806
v -22.65684481973015 -20 14.096233333265809
v -35.906309312602943 2.1500010000000001 17.011691526709601
v -23.694264707831611 -21.545269999999999 16.5
v -26 -6.2974277061824466 0
v 27.545269999999999 -13.519512731694769 2.241961661244853
v 2.621844161722827 -2.4198286771845412 22.275337810235531
f 825 3 1 
f 1 3 874 
f 338 158 1 
f 1 158 825 
f 1 282 338 
f 874 282 1 
f 2 4 337 
f 826 4 2 
f 2 337 871 
f 983 826 2 
f 2 871 983 
f 3 170 374 
f 825 170 3 
f 3 374 715 
f 3 715 874 
f 4 276 718 
f 826 276 4 
f 718 337 4 
f 5 6 136 
f 633 6 5 
f 136 117 5 
f 5 117 633 
f 137 136 6 
f 171 137 6 
f 484 171 6 
f 533 484 6 
f 633 533 6 
f 724 17 7 
f 7 17 897 
f 831 174 7 
f 7 174 879 
f 7 521 724 
f 879 521 7 
f 897 831 7 
f 8 9 958 
f 1102 9 8 
f 8 379 662 
f 958 379 8 
f 8 662 853 
f 8 853 872 
f 8 872 1102 
f 1005 958 9 
f 1088 1005 9 
f 1102 1088 9 
f 136 12 10 
f 10 12 534 
f 535 136 10 
f 10 224 612 
f 1103 224 10 
f 10 534 1103 
f 612 535 10 
f 11 13 219 
f 829 13 11 
f 219 178 11 
f 11 178 829 
f 12 136 137 
f 12 137 171 
f 12 171 729 
f 729 515 12 
f 12 515 1045 
f 539 534 12 
f 1045 539 12 
f 241 219 13 
f 536 241 13 
f 537 536 13 
f 829 537 13 
f 14 19 892 
f 898 19 14 
f 745 185 14 
f 14 185 898 
f 892 383 14 
f 14 383 899 
f 899 745 14 
f 15 16 181 
f 1007 16 15 
f 15 181 542 
f 974 381 15 
f 15 381 1007 
f 15 542 974 
f 359 181 16 
f 16 182 359 
f 1007 182 16 
f 17 724 881 
f 17 763 814 
f 881 763 17 
f 17 814 897 
f 18 723 978 
f 1048 723 18 
f 992 896 18 
f 18 896 1100 
f 18 978 992 
f 1100 1048 18 
f 751 187 19 
f 19 187 935 
f 898 751 19 
f 935 892 19 
f 605 550 20 
f 20 550 980 
f 936 605 20 
f 20 737 936 
f 980 737 20 
f 141 30 21 
f 21 30 577 
f 21 105 141 
f 558 105 21 
f 21 145 558 
f 577 145 21 
f 22 32 190 
f 215 32 22 
f 22 190 556 
f 556 215 22 
f 23 34 580 
f 1074 34 23 
f 580 124 23 
f 23 124 838 
f 23 838 1074 
f 24 36 223 
f 329 36 24 
f 24 118 135 
f 157 118 24 
f 24 135 329 
f 223 157 24 
f 500 269 25 
f 25 269 543 
f 561 500 25 
f 25 543 894 
f 620 561 25 
f 25 566 875 
f 894 566 25 
f 840 620 25 
f 875 840 25 
f 205 27 26 
f 26 27 567 
f 610 205 26 
f 26 268 302 
f 834 268 26 
f 26 302 523 
f 26 523 610 
f 26 567 569 
f 26 569 1073 
f 1073 834 26 
f 27 201 206 
f 985 201 27 
f 27 205 571 
f 27 206 570 
f 570 567 27 
f 27 571 985 
f 1090 118 28 
f 28 118 1091 
f 250 132 28 
f 28 132 901 
f 28 206 207 
f 555 206 28 
f 28 207 1090 
f 1091 250 28 
f 575 551 28 
f 28 551 778 
f 778 555 28 
f 901 575 28 
f 29 30 424 
f 436 30 29 
f 425 129 29 
f 29 129 437 
f 29 424 425 
f 437 436 29 
f 30 141 424 
f 30 436 577 
f 423 32 31 
f 31 32 436 
f 31 129 423 
f 437 129 31 
f 31 436 437 
f 218 190 32 
f 32 215 436 
f 422 218 32 
f 423 422 32 
f 33 34 420 
f 444 34 33 
f 420 220 33 
f 33 220 445 
f 445 444 33 
f 34 415 420 
f 579 415 34 
f 34 444 580 
f 1074 579 34 
f 414 36 35 
f 35 36 444 
f 35 220 413 
f 445 220 35 
f 35 413 414 
f 35 444 445 
f 414 223 36 
f 36 329 444 
f 424 38 37 
f 37 38 427 
f 37 129 425 
f 427 129 37 
f 425 424 37 
f 38 49 588 
f 590 49 38 
f 38 424 590 
f 38 426 427 
f 428 426 38 
f 588 428 38 
f 39 40 423 
f 427 40 39 
f 39 423 654 
f 654 427 39 
f 40 50 222 
f 591 50 40 
f 222 218 40 
f 40 218 422 
f 40 422 423 
f 427 426 40 
f 40 426 428 
f 40 428 591 
f 420 42 41 
f 41 42 440 
f 837 420 41 
f 41 440 441 
f 41 441 837 
f 581 51 42 
f 42 51 595 
f 420 415 42 
f 42 415 581 
f 810 440 42 
f 42 595 810 
f 43 44 414 
f 440 44 43 
f 414 413 43 
f 43 413 441 
f 441 440 43 
f 44 52 306 
f 600 52 44 
f 44 306 414 
f 44 440 596 
f 44 596 600 
f 45 57 169 
f 910 57 45 
f 272 167 45 
f 45 167 882 
f 45 169 609 
f 609 272 45 
f 45 607 910 
f 999 607 45 
f 45 882 999 
f 261 47 46 
f 46 47 998 
f 46 58 261 
f 954 58 46 
f 46 258 637 
f 1075 258 46 
f 637 509 46 
f 46 509 835 
f 46 835 954 
f 46 998 1075 
f 261 59 47 
f 47 59 1086 
f 47 120 593 
f 594 120 47 
f 47 593 998 
f 1086 594 47 
f 191 60 48 
f 48 60 975 
f 615 191 48 
f 48 248 690 
f 821 248 48 
f 48 573 615 
f 690 573 48 
f 975 617 48 
f 48 617 1028 
f 1028 821 48 
f 49 583 588 
f 841 583 49 
f 49 590 841 
f 636 222 50 
f 50 591 636 
f 51 200 595 
f 638 200 51 
f 581 236 51 
f 51 236 638 
f 1098 306 52 
f 600 597 52 
f 52 597 1098 
f 53 62 229 
f 647 62 53 
f 587 125 53 
f 53 125 647 
f 53 229 587 
f 54 232 234 
f 1008 232 54 
f 54 234 623 
f 623 240 54 
f 54 240 1008 
f 55 66 245 
f 283 66 55 
f 245 243 55 
f 55 243 1055 
f 1055 283 55 
f 251 68 56 
f 56 68 522 
f 56 247 251 
f 599 247 56 
f 522 300 56 
f 56 300 599 
f 341 111 57 
f 57 111 526 
f 909 169 57 
f 57 177 227 
f 526 177 57 
f 57 227 909 
f 962 341 57 
f 57 910 962 
f 58 59 261 
f 559 59 58 
f 720 260 58 
f 58 260 1105 
f 58 280 559 
f 988 280 58 
f 954 720 58 
f 1105 988 58 
f 59 146 855 
f 1089 146 59 
f 59 242 265 
f 855 242 59 
f 59 265 616 
f 59 559 1089 
f 59 616 1086 
f 60 191 616 
f 60 237 618 
f 991 237 60 
f 60 249 332 
f 616 249 60 
f 60 332 991 
f 60 618 975 
f 61 62 411 
f 438 62 61 
f 61 411 830 
f 439 438 61 
f 830 439 61 
f 230 229 62 
f 438 230 62 
f 62 409 411 
f 648 409 62 
f 62 647 648 
f 408 64 63 
f 63 64 438 
f 972 408 63 
f 63 438 439 
f 63 439 972 
f 234 230 64 
f 64 230 438 
f 623 234 64 
f 408 407 64 
f 64 407 623 
f 65 66 405 
f 447 66 65 
f 65 405 753 
f 753 447 65 
f 246 245 66 
f 446 246 66 
f 66 283 297 
f 66 297 404 
f 66 404 405 
f 447 446 66 
f 403 68 67 
f 67 68 447 
f 67 128 403 
f 447 128 67 
f 251 246 68 
f 68 246 446 
f 402 301 68 
f 68 301 522 
f 403 402 68 
f 68 446 447 
f 411 70 69 
f 69 70 435 
f 972 411 69 
f 69 435 972 
f 70 81 655 
f 1081 81 70 
f 411 409 70 
f 70 409 648 
f 70 433 435 
f 655 433 70 
f 70 648 1081 
f 71 72 408 
f 435 72 71 
f 71 408 972 
f 972 435 71 
f 72 82 653 
f 659 82 72 
f 72 407 408 
f 650 407 72 
f 435 433 72 
f 72 433 659 
f 653 650 72 
f 405 74 73 
f 73 74 442 
f 73 128 405 
f 443 128 73 
f 73 442 443 
f 299 83 74 
f 74 83 660 
f 74 297 299 
f 404 297 74 
f 405 404 74 
f 660 442 74 
f 75 76 403 
f 442 76 75 
f 403 128 75 
f 75 128 443 
f 443 442 75 
f 390 84 76 
f 76 84 1080 
f 76 301 402 
f 1080 301 76 
f 442 390 76 
f 76 402 403 
f 77 161 631 
f 657 161 77 
f 322 305 77 
f 77 305 657 
f 913 322 77 
f 77 631 666 
f 663 646 77 
f 77 646 913 
f 666 663 77 
f 78 79 326 
f 672 79 78 
f 307 126 78 
f 78 126 322 
f 652 307 78 
f 78 322 670 
f 78 326 652 
f 78 670 672 
f 847 326 79 
f 79 525 529 
f 1020 525 79 
f 79 529 847 
f 79 672 673 
f 79 673 1087 
f 1087 1020 79 
f 750 498 80 
f 80 498 1016 
f 677 643 80 
f 80 643 1065 
f 80 661 859 
f 1065 661 80 
f 80 671 750 
f 859 671 80 
f 1016 677 80 
f 81 303 655 
f 658 303 81 
f 1081 658 81 
f 659 320 82 
f 82 320 851 
f 82 651 653 
f 851 651 82 
f 83 299 728 
f 83 308 309 
f 728 308 83 
f 83 309 660 
f 524 188 84 
f 84 188 624 
f 624 203 84 
f 84 203 1080 
f 84 390 524 
f 858 89 85 
f 85 89 1092 
f 85 483 485 
f 793 483 85 
f 85 485 940 
f 85 681 858 
f 940 681 85 
f 1092 793 85 
f 979 683 86 
f 86 683 1031 
f 971 780 86 
f 86 780 979 
f 86 920 971 
f 1031 920 86 
f 861 96 87 
f 87 96 926 
f 87 142 687 
f 926 142 87 
f 87 487 795 
f 941 487 87 
f 87 687 941 
f 87 795 861 
f 88 262 981 
f 1030 262 88 
f 981 976 88 
f 88 976 1044 
f 1044 1030 88 
f 89 339 692 
f 1076 339 89 
f 692 680 89 
f 89 680 1092 
f 89 858 1076 
f 90 91 312 
f 1039 91 90 
f 90 312 682 
f 90 682 693 
f 90 693 957 
f 90 957 1039 
f 669 312 91 
f 91 313 669 
f 686 313 91 
f 1039 686 91 
f 695 94 92 
f 92 94 993 
f 993 156 92 
f 92 156 1084 
f 344 175 92 
f 92 175 698 
f 864 344 92 
f 698 695 92 
f 1084 864 92 
f 703 95 93 
f 93 95 704 
f 704 256 93 
f 93 256 816 
f 816 703 93 
f 94 225 345 
f 706 225 94 
f 94 345 696 
f 94 695 706 
f 94 696 993 
f 95 703 865 
f 865 704 95 
f 861 492 96 
f 96 492 867 
f 867 512 96 
f 96 512 926 
f 789 98 97 
f 97 98 1037 
f 314 153 97 
f 97 153 789 
f 1023 314 97 
f 1043 1023 97 
f 97 1037 1043 
f 930 333 98 
f 98 333 1037 
f 98 789 930 
f 99 100 708 
f 993 100 99 
f 99 156 993 
f 1084 156 99 
f 709 697 99 
f 99 697 1084 
f 99 708 709 
f 100 343 708 
f 993 343 100 
f 712 103 101 
f 101 103 932 
f 713 711 101 
f 101 711 824 
f 824 712 101 
f 932 713 101 
f 102 104 869 
f 870 104 102 
f 869 714 102 
f 102 714 934 
f 934 870 102 
f 103 347 348 
f 710 347 103 
f 103 348 532 
f 103 532 933 
f 712 710 103 
f 933 932 103 
f 870 869 104 
f 214 141 105 
f 558 214 105 
f 630 361 106 
f 106 361 846 
f 106 602 1009 
f 1010 602 106 
f 1009 630 106 
f 846 642 106 
f 106 642 1010 
f 200 120 107 
f 107 120 594 
f 595 200 107 
f 107 573 592 
f 594 573 107 
f 107 592 752 
f 752 595 107 
f 360 127 108 
f 108 127 727 
f 108 224 360 
f 612 224 108 
f 727 612 108 
f 109 118 157 
f 1091 118 109 
f 109 157 586 
f 109 168 250 
f 586 168 109 
f 109 250 1091 
f 110 349 539 
f 892 349 110 
f 539 538 110 
f 110 538 892 
f 111 285 526 
f 631 285 111 
f 111 341 631 
f 112 309 373 
f 660 309 112 
f 373 311 112 
f 112 311 390 
f 112 390 660 
f 532 531 113 
f 113 531 1095 
f 869 532 113 
f 928 869 113 
f 1095 928 113 
f 114 123 723 
f 1085 123 114 
f 880 149 114 
f 114 149 1085 
f 114 723 1048 
f 1048 880 114 
f 908 140 115 
f 115 140 1067 
f 1067 267 115 
f 115 267 1068 
f 1068 908 115 
f 374 170 116 
f 116 170 964 
f 1101 374 116 
f 116 490 722 
f 964 490 116 
f 116 722 1101 
f 117 136 357 
f 357 144 117 
f 117 144 391 
f 117 391 716 
f 716 633 117 
f 1090 135 118 
f 637 211 119 
f 119 211 828 
f 636 585 119 
f 119 585 965 
f 828 636 119 
f 965 637 119 
f 120 200 638 
f 638 236 120 
f 120 236 873 
f 873 593 120 
f 233 232 121 
f 121 232 1008 
f 982 233 121 
f 121 240 812 
f 1008 240 121 
f 121 812 1105 
f 1105 982 121 
f 122 146 296 
f 855 146 122 
f 122 235 242 
f 243 235 122 
f 122 242 855 
f 1055 243 122 
f 122 296 1055 
f 978 723 123 
f 123 787 833 
f 1085 787 123 
f 123 833 978 
f 124 201 985 
f 1022 201 124 
f 124 580 1022 
f 985 838 124 
f 125 285 294 
f 526 285 125 
f 125 294 647 
f 587 526 125 
f 212 130 126 
f 126 130 305 
f 307 212 126 
f 126 305 322 
f 389 139 127 
f 127 139 557 
f 127 360 389 
f 127 557 725 
f 127 725 727 
f 753 405 128 
f 128 447 753 
f 654 423 129 
f 129 427 654 
f 130 212 851 
f 130 303 305 
f 659 303 130 
f 130 320 659 
f 851 320 130 
f 131 162 798 
f 801 162 131 
f 131 685 801 
f 856 685 131 
f 798 797 131 
f 131 797 856 
f 250 248 132 
f 132 248 821 
f 132 821 844 
f 132 844 901 
f 263 154 133 
f 133 154 456 
f 254 231 133 
f 133 231 321 
f 456 254 133 
f 286 263 133 
f 321 286 133 
f 134 183 266 
f 353 183 134 
f 134 266 902 
f 898 353 134 
f 134 406 751 
f 902 406 134 
f 134 751 898 
f 135 201 1022 
f 1090 201 135 
f 1022 329 135 
f 535 357 136 
f 138 145 215 
f 961 145 138 
f 138 215 556 
f 556 302 138 
f 138 302 961 
f 139 389 853 
f 662 557 139 
f 853 662 139 
f 140 151 197 
f 625 151 140 
f 140 197 1067 
f 140 259 625 
f 908 259 140 
f 214 213 141 
f 141 213 590 
f 590 424 141 
f 142 252 707 
f 926 252 142 
f 707 687 142 
f 143 273 614 
f 764 273 143 
f 143 331 572 
f 614 331 143 
f 143 572 764 
f 372 354 144 
f 144 354 391 
f 144 357 1059 
f 1059 372 144 
f 577 215 145 
f 1038 558 145 
f 145 961 1038 
f 541 296 146 
f 847 541 146 
f 1089 847 146 
f 147 571 593 
f 985 571 147 
f 147 578 838 
f 873 578 147 
f 147 593 873 
f 147 838 985 
f 148 369 967 
f 1029 369 148 
f 148 371 949 
f 967 371 148 
f 936 737 148 
f 148 737 980 
f 949 936 148 
f 148 980 1029 
f 880 763 149 
f 149 763 881 
f 881 827 149 
f 149 827 956 
f 149 956 1085 
f 150 236 581 
f 873 236 150 
f 579 578 150 
f 150 578 873 
f 581 579 150 
f 151 165 197 
f 565 165 151 
f 603 565 151 
f 625 603 151 
f 152 171 484 
f 729 171 152 
f 719 362 152 
f 152 362 729 
f 152 484 719 
f 153 314 510 
f 510 489 153 
f 153 489 854 
f 854 789 153 
f 154 263 917 
f 634 456 154 
f 917 634 154 
f 155 351 355 
f 826 351 155 
f 155 355 878 
f 878 826 155 
f 157 223 586 
f 158 338 871 
f 871 825 158 
f 159 172 517 
f 572 172 159 
f 159 517 550 
f 159 550 574 
f 574 572 159 
f 160 163 324 
f 630 163 160 
f 318 316 160 
f 160 316 630 
f 619 318 160 
f 160 324 619 
f 304 285 161 
f 161 285 631 
f 657 304 161 
f 799 798 162 
f 800 799 162 
f 801 800 162 
f 163 321 324 
f 1009 321 163 
f 163 630 1009 
f 864 179 164 
f 164 179 921 
f 496 344 164 
f 164 344 864 
f 921 496 164 
f 565 192 165 
f 165 192 1097 
f 165 195 197 
f 1097 195 165 
f 338 282 166 
f 166 282 354 
f 354 295 166 
f 166 295 355 
f 351 338 166 
f 355 351 166 
f 167 272 560 
f 167 560 842 
f 167 842 882 
f 168 223 306 
f 586 223 168 
f 168 248 250 
f 843 248 168 
f 168 306 1098 
f 1098 843 168 
f 611 609 169 
f 909 611 169 
f 170 825 964 
f 204 199 172 
f 172 199 468 
f 572 204 172 
f 172 468 517 
f 833 195 173 
f 173 195 1097 
f 978 833 173 
f 992 978 173 
f 1097 992 173 
f 831 384 174 
f 174 384 1050 
f 1050 879 174 
f 175 344 863 
f 863 698 175 
f 534 180 176 
f 176 180 1002 
f 364 363 176 
f 176 363 455 
f 1002 364 176 
f 176 455 956 
f 956 534 176 
f 177 226 227 
f 587 226 177 
f 177 526 587 
f 178 219 878 
f 178 355 356 
f 878 355 178 
f 178 356 367 
f 178 367 829 
f 179 864 1083 
f 1083 921 179 
f 539 470 180 
f 180 470 1002 
f 180 534 539 
f 181 359 551 
f 1093 542 181 
f 181 551 758 
f 181 758 1093 
f 551 359 182 
f 778 551 182 
f 182 552 877 
f 1007 552 182 
f 182 555 778 
f 877 555 182 
f 400 266 183 
f 183 353 387 
f 183 387 400 
f 184 269 500 
f 1088 269 184 
f 184 500 996 
f 546 545 184 
f 184 545 958 
f 996 546 184 
f 184 958 1005 
f 184 1005 1088 
f 185 377 387 
f 745 377 185 
f 185 387 898 
f 186 350 811 
f 815 350 186 
f 186 811 819 
f 819 815 186 
f 849 748 187 
f 187 748 935 
f 187 751 849 
f 188 310 624 
f 661 310 188 
f 524 311 188 
f 188 311 661 
f 189 626 876 
f 1056 626 189 
f 189 627 962 
f 997 627 189 
f 189 876 997 
f 189 962 1001 
f 189 1001 1056 
f 190 218 548 
f 548 528 190 
f 190 528 556 
f 191 615 616 
f 274 193 192 
f 192 193 700 
f 565 274 192 
f 192 700 1097 
f 193 274 582 
f 193 582 883 
f 896 700 193 
f 193 883 896 
f 194 195 196 
f 197 195 194 
f 194 196 198 
f 1067 197 194 
f 194 198 199 
f 194 199 1067 
f 888 196 195 
f 195 833 887 
f 195 887 888 
f 943 198 196 
f 196 888 943 
f 468 199 198 
f 889 468 198 
f 946 889 198 
f 198 943 946 
f 199 204 267 
f 199 267 1067 
f 207 206 201 
f 1090 207 201 
f 744 217 202 
f 202 217 745 
f 899 744 202 
f 202 745 899 
f 203 300 301 
f 1082 300 203 
f 203 301 1080 
f 624 310 203 
f 203 310 1082 
f 1068 267 204 
f 572 331 204 
f 204 331 614 
f 204 614 1068 
f 610 571 205 
f 206 555 570 
f 574 550 208 
f 208 550 605 
f 757 574 208 
f 208 605 748 
f 208 748 849 
f 208 756 757 
f 849 756 208 
f 228 214 209 
f 209 214 875 
f 882 228 209 
f 875 566 209 
f 209 566 999 
f 999 882 209 
f 210 448 764 
f 765 448 210 
f 576 574 210 
f 210 574 757 
f 764 576 210 
f 210 757 759 
f 210 759 765 
f 221 216 211 
f 211 216 828 
f 258 221 211 
f 637 258 211 
f 212 307 851 
f 213 214 228 
f 213 228 841 
f 841 590 213 
f 214 558 875 
f 577 436 215 
f 216 218 222 
f 548 218 216 
f 216 221 528 
f 216 222 636 
f 216 528 548 
f 216 636 828 
f 968 381 217 
f 217 381 974 
f 217 542 745 
f 974 542 217 
f 217 744 970 
f 970 968 217 
f 219 241 721 
f 219 721 878 
f 441 413 220 
f 220 420 837 
f 837 441 220 
f 221 258 523 
f 221 523 528 
f 414 306 223 
f 724 360 224 
f 827 724 224 
f 1103 827 224 
f 706 252 225 
f 225 252 926 
f 540 345 225 
f 926 540 225 
f 260 227 226 
f 226 229 230 
f 587 229 226 
f 226 230 233 
f 226 233 260 
f 227 260 611 
f 227 611 909 
f 842 841 228 
f 882 842 228 
f 230 232 233 
f 234 232 230 
f 231 254 327 
f 324 321 231 
f 327 324 231 
f 982 260 233 
f 235 238 242 
f 1018 238 235 
f 235 243 245 
f 235 245 246 
f 235 246 1018 
f 640 618 237 
f 643 640 237 
f 991 643 237 
f 238 239 265 
f 1018 239 238 
f 265 242 238 
f 239 247 599 
f 1018 247 239 
f 239 249 265 
f 332 249 239 
f 599 332 239 
f 240 623 914 
f 914 812 240 
f 536 368 241 
f 241 368 721 
f 904 457 244 
f 244 457 907 
f 244 770 904 
f 907 770 244 
f 251 247 246 
f 246 247 1018 
f 843 690 248 
f 616 265 249 
f 252 706 707 
f 963 603 253 
f 253 603 1010 
f 866 606 253 
f 253 606 963 
f 253 642 866 
f 1010 642 253 
f 254 278 327 
f 641 278 254 
f 254 456 634 
f 254 634 641 
f 703 352 255 
f 255 352 928 
f 255 513 703 
f 1095 513 255 
f 255 928 1095 
f 704 350 256 
f 256 350 815 
f 256 815 816 
f 257 343 993 
f 1012 343 257 
f 993 696 257 
f 257 696 1012 
f 610 523 258 
f 1075 610 258 
f 259 263 286 
f 908 263 259 
f 259 286 602 
f 259 602 625 
f 720 611 260 
f 260 982 1105 
f 262 315 1021 
f 1030 315 262 
f 262 506 689 
f 1021 506 262 
f 262 689 981 
f 908 270 263 
f 263 270 917 
f 755 431 264 
f 264 431 762 
f 762 604 264 
f 264 604 960 
f 995 755 264 
f 264 960 995 
f 266 400 449 
f 266 449 632 
f 266 632 902 
f 961 302 268 
f 834 561 268 
f 268 561 961 
f 1088 543 269 
f 270 614 917 
f 1068 614 270 
f 270 908 1068 
f 271 290 635 
f 1052 290 271 
f 271 635 1025 
f 1025 772 271 
f 271 772 1052 
f 609 560 272 
f 1079 614 273 
f 273 621 622 
f 764 621 273 
f 273 622 994 
f 273 994 1079 
f 274 421 582 
f 1036 421 274 
f 274 565 927 
f 927 761 274 
f 274 761 1036 
f 275 277 621 
f 772 277 275 
f 621 448 275 
f 275 448 765 
f 275 765 772 
f 721 718 276 
f 826 721 276 
f 622 621 277 
f 1025 622 277 
f 277 772 1025 
f 278 284 327 
f 330 284 278 
f 335 330 278 
f 641 335 278 
f 279 281 461 
f 1027 281 279 
f 279 449 450 
f 632 449 279 
f 279 450 451 
f 279 451 1027 
f 461 458 279 
f 279 458 632 
f 280 326 559 
f 988 326 280 
f 848 461 281 
f 1027 845 281 
f 281 845 1032 
f 1032 848 281 
f 391 354 282 
f 874 391 282 
f 283 296 297 
f 1055 296 283 
f 284 319 327 
f 953 319 284 
f 284 330 809 
f 284 809 953 
f 1061 294 285 
f 285 304 1061 
f 286 321 1009 
f 1009 602 286 
f 287 292 991 
f 1082 292 287 
f 599 300 287 
f 287 300 1082 
f 287 332 599 
f 991 332 287 
f 818 811 288 
f 288 811 1070 
f 288 813 817 
f 1070 813 288 
f 288 817 818 
f 469 461 289 
f 289 461 848 
f 645 469 289 
f 1006 645 289 
f 289 848 1006 
f 290 293 639 
f 786 293 290 
f 639 635 290 
f 290 779 786 
f 1052 779 290 
f 291 334 641 
f 644 334 291 
f 634 613 291 
f 291 613 1079 
f 641 634 291 
f 291 635 639 
f 987 635 291 
f 291 639 644 
f 1079 987 291 
f 292 310 1065 
f 1082 310 292 
f 292 643 991 
f 1065 643 292 
f 293 336 644 
f 784 336 293 
f 644 639 293 
f 786 784 293 
f 648 647 294 
f 1061 648 294 
f 295 354 372 
f 356 355 295 
f 358 356 295 
f 372 358 295 
f 298 297 296 
f 541 298 296 
f 297 298 299 
f 728 299 298 
f 529 308 298 
f 298 308 728 
f 541 529 298 
f 522 301 300 
f 528 523 302 
f 556 528 302 
f 658 305 303 
f 659 655 303 
f 304 657 658 
f 304 658 1081 
f 1081 1061 304 
f 658 657 305 
f 307 652 851 
f 1020 309 308 
f 529 525 308 
f 308 525 1020 
f 1020 373 309 
f 310 661 1065 
f 311 373 608 
f 524 390 311 
f 311 608 661 
f 312 669 1024 
f 966 682 312 
f 1024 966 312 
f 313 646 669 
f 1066 646 313 
f 313 686 1066 
f 314 325 511 
f 1023 325 314 
f 867 510 314 
f 314 511 867 
f 315 323 941 
f 1044 323 315 
f 941 687 315 
f 315 687 1021 
f 315 1030 1044 
f 316 318 852 
f 665 630 316 
f 316 664 665 
f 852 664 316 
f 485 477 317 
f 317 477 656 
f 948 485 317 
f 317 656 806 
f 806 664 317 
f 317 664 920 
f 317 920 1031 
f 1031 948 317 
f 318 619 685 
f 318 685 979 
f 318 780 852 
f 979 780 318 
f 319 324 327 
f 518 324 319 
f 800 518 319 
f 953 800 319 
f 322 589 670 
f 913 589 322 
f 792 491 323 
f 323 491 941 
f 1044 792 323 
f 324 518 619 
f 325 342 511 
f 1042 342 325 
f 1023 380 325 
f 325 380 1042 
f 847 559 326 
f 988 652 326 
f 328 330 335 
f 689 330 328 
f 328 335 674 
f 328 674 976 
f 981 689 328 
f 328 976 981 
f 580 444 329 
f 1022 580 329 
f 330 689 809 
f 675 498 333 
f 333 498 738 
f 930 675 333 
f 738 691 333 
f 333 691 1037 
f 334 335 641 
f 674 335 334 
f 334 644 1072 
f 1072 674 334 
f 1072 644 336 
f 336 784 791 
f 336 791 792 
f 336 792 1094 
f 1094 1072 336 
f 337 718 964 
f 337 825 871 
f 964 825 337 
f 338 351 871 
f 494 493 339 
f 339 493 692 
f 1035 494 339 
f 1104 1035 339 
f 339 1076 1104 
f 495 376 340 
f 340 376 957 
f 340 493 494 
f 693 493 340 
f 340 494 495 
f 957 693 340 
f 341 627 631 
f 962 627 341 
f 342 501 507 
f 919 501 342 
f 342 507 508 
f 342 508 511 
f 342 862 919 
f 1042 862 342 
f 343 519 708 
f 1012 519 343 
f 496 494 344 
f 344 494 1035 
f 1035 863 344 
f 508 507 345 
f 345 507 802 
f 540 508 345 
f 802 696 345 
f 346 383 538 
f 899 383 346 
f 538 453 346 
f 346 453 899 
f 530 348 347 
f 710 530 347 
f 348 520 527 
f 530 520 348 
f 348 527 531 
f 348 531 532 
f 349 371 470 
f 892 371 349 
f 349 470 539 
f 804 497 350 
f 350 497 811 
f 350 704 804 
f 351 826 983 
f 983 871 351 
f 352 703 816 
f 352 816 928 
f 898 387 353 
f 356 358 365 
f 356 365 367 
f 357 535 726 
f 357 726 884 
f 357 884 1059 
f 1000 365 358 
f 358 372 1060 
f 1060 1000 358 
f 521 389 360 
f 724 521 360 
f 630 629 361 
f 361 629 734 
f 361 734 846 
f 362 366 730 
f 1101 366 362 
f 362 719 1101 
f 730 729 362 
f 363 364 888 
f 1085 455 363 
f 833 787 363 
f 363 787 1085 
f 887 833 363 
f 888 887 363 
f 943 888 364 
f 364 891 943 
f 1002 891 364 
f 895 367 365 
f 365 741 895 
f 942 741 365 
f 1000 942 365 
f 722 370 366 
f 366 370 742 
f 1101 722 366 
f 743 730 366 
f 366 742 945 
f 945 743 366 
f 895 829 367 
f 368 490 718 
f 722 490 368 
f 368 536 722 
f 368 718 721 
f 369 470 967 
f 1002 470 369 
f 369 836 889 
f 1029 836 369 
f 369 889 891 
f 369 891 1002 
f 722 375 370 
f 370 375 746 
f 746 742 370 
f 967 470 371 
f 371 892 935 
f 371 935 949 
f 372 1059 1060 
f 1020 608 373 
f 719 715 374 
f 1101 719 374 
f 375 536 537 
f 722 536 375 
f 375 537 746 
f 376 495 1040 
f 376 686 1039 
f 1040 686 376 
f 1039 957 376 
f 388 387 377 
f 1093 388 377 
f 745 542 377 
f 377 542 1093 
f 378 382 385 
f 880 382 378 
f 378 385 1003 
f 814 763 378 
f 378 763 880 
f 897 814 378 
f 1003 897 378 
f 379 545 547 
f 958 545 379 
f 379 547 557 
f 379 557 662 
f 1037 691 380 
f 380 691 1042 
f 380 1023 1043 
f 1043 1037 380 
f 381 552 1007 
f 1041 552 381 
f 381 968 1041 
f 395 385 382 
f 582 395 382 
f 883 582 382 
f 382 880 1048 
f 1100 883 382 
f 382 1048 1100 
f 892 538 383 
f 384 392 397 
f 831 392 384 
f 384 397 502 
f 384 502 749 
f 384 749 1050 
f 396 394 385 
f 385 394 1003 
f 385 395 396 
f 756 406 386 
f 386 406 766 
f 759 756 386 
f 765 759 386 
f 771 765 386 
f 386 766 771 
f 387 388 400 
f 401 400 388 
f 839 401 388 
f 388 758 839 
f 1093 758 388 
f 389 521 879 
f 879 853 389 
f 390 442 660 
f 874 716 391 
f 392 393 397 
f 754 393 392 
f 897 754 392 
f 392 831 897 
f 418 397 393 
f 393 416 418 
f 760 416 393 
f 393 754 760 
f 394 396 398 
f 394 398 754 
f 394 754 1003 
f 399 396 395 
f 421 399 395 
f 582 421 395 
f 419 398 396 
f 396 399 1099 
f 1099 419 396 
f 397 418 755 
f 755 502 397 
f 398 419 760 
f 760 754 398 
f 399 421 1013 
f 399 434 688 
f 1013 434 399 
f 399 688 1099 
f 400 401 410 
f 400 410 449 
f 412 410 401 
f 937 412 401 
f 401 839 937 
f 756 751 406 
f 902 766 406 
f 650 623 407 
f 410 412 450 
f 450 449 410 
f 972 830 411 
f 451 450 412 
f 947 451 412 
f 412 937 947 
f 415 579 581 
f 416 417 418 
f 429 417 416 
f 760 429 416 
f 431 418 417 
f 417 429 430 
f 417 430 431 
f 418 431 755 
f 419 432 760 
f 1099 432 419 
f 1036 1013 421 
f 428 583 584 
f 588 583 428 
f 428 584 591 
f 767 430 429 
f 429 760 903 
f 903 767 429 
f 762 431 430 
f 430 717 762 
f 768 717 430 
f 430 767 768 
f 432 452 903 
f 1099 452 432 
f 903 760 432 
f 433 655 659 
f 761 606 434 
f 434 606 915 
f 1077 688 434 
f 1013 761 434 
f 434 915 1077 
f 439 830 972 
f 810 596 440 
f 448 621 764 
f 451 845 1027 
f 1033 845 451 
f 451 947 1033 
f 459 454 452 
f 452 454 903 
f 1077 459 452 
f 452 688 1077 
f 1099 688 452 
f 538 515 453 
f 453 515 744 
f 453 744 899 
f 454 459 460 
f 454 460 906 
f 905 903 454 
f 906 905 454 
f 1085 956 455 
f 457 458 462 
f 632 458 457 
f 457 462 907 
f 904 632 457 
f 458 461 462 
f 464 460 459 
f 564 464 459 
f 977 564 459 
f 459 925 977 
f 1077 925 459 
f 464 463 460 
f 460 463 906 
f 469 462 461 
f 469 467 462 
f 462 467 907 
f 463 464 465 
f 463 465 475 
f 463 475 788 
f 463 788 906 
f 466 465 464 
f 678 466 464 
f 464 564 678 
f 465 466 477 
f 477 475 465 
f 656 477 466 
f 466 629 665 
f 678 629 466 
f 665 656 466 
f 467 469 479 
f 479 478 467 
f 467 478 911 
f 911 907 467 
f 836 517 468 
f 889 836 468 
f 469 472 479 
f 645 472 469 
f 786 785 471 
f 471 785 959 
f 791 786 471 
f 1054 791 471 
f 471 959 1054 
f 481 479 472 
f 676 481 472 
f 472 645 990 
f 990 676 472 
f 482 474 473 
f 473 474 781 
f 473 476 482 
f 793 476 473 
f 473 781 788 
f 473 788 793 
f 474 482 790 
f 474 775 781 
f 1096 775 474 
f 790 782 474 
f 474 782 1096 
f 475 477 483 
f 475 483 793 
f 793 788 475 
f 1092 482 476 
f 476 793 1092 
f 485 483 477 
f 478 479 480 
f 478 480 486 
f 478 486 488 
f 478 488 912 
f 912 911 478 
f 481 480 479 
f 480 481 489 
f 489 486 480 
f 854 489 481 
f 481 676 969 
f 969 854 481 
f 794 790 482 
f 1092 794 482 
f 484 533 719 
f 948 940 485 
f 492 488 486 
f 486 489 510 
f 510 492 486 
f 941 491 487 
f 487 491 1054 
f 1054 795 487 
f 488 492 861 
f 488 861 912 
f 964 718 490 
f 491 792 1054 
f 492 510 867 
f 693 692 493 
f 496 495 494 
f 495 496 860 
f 495 860 1040 
f 916 860 496 
f 921 916 496 
f 497 804 952 
f 1070 811 497 
f 497 952 1070 
f 498 675 1016 
f 750 738 498 
f 805 503 499 
f 499 503 953 
f 499 506 805 
f 809 506 499 
f 953 809 499 
f 500 561 568 
f 500 568 996 
f 802 507 501 
f 807 802 501 
f 924 807 501 
f 501 919 924 
f 502 562 749 
f 755 562 502 
f 503 799 800 
f 805 799 503 
f 503 800 953 
f 504 514 516 
f 1014 514 504 
f 504 516 1011 
f 504 807 924 
f 1011 807 504 
f 504 924 1014 
f 1004 604 505 
f 505 604 1046 
f 505 607 989 
f 1046 607 505 
f 989 900 505 
f 505 900 1047 
f 1047 1004 505 
f 809 689 506 
f 808 805 506 
f 1021 808 506 
f 512 511 508 
f 540 512 508 
f 585 560 509 
f 509 560 609 
f 965 585 509 
f 509 609 835 
f 509 637 965 
f 511 512 867 
f 512 540 926 
f 513 514 918 
f 1095 514 513 
f 865 703 513 
f 918 865 513 
f 527 516 514 
f 531 527 514 
f 1095 531 514 
f 1014 918 514 
f 515 538 1045 
f 515 729 735 
f 515 735 1069 
f 1069 744 515 
f 520 519 516 
f 516 519 1011 
f 527 520 516 
f 980 550 517 
f 517 836 980 
f 801 619 518 
f 518 800 801 
f 519 520 929 
f 929 708 519 
f 1012 1011 519 
f 520 530 929 
f 529 541 847 
f 530 710 931 
f 931 929 530 
f 532 869 870 
f 532 870 933 
f 533 633 716 
f 716 715 533 
f 533 715 719 
f 534 956 1103 
f 535 612 727 
f 727 726 535 
f 1063 746 537 
f 537 829 895 
f 537 895 1063 
f 538 539 1045 
f 543 544 1058 
f 1088 544 543 
f 1058 894 543 
f 872 749 544 
f 544 749 986 
f 1102 872 544 
f 544 986 1058 
f 544 1088 1102 
f 545 546 832 
f 832 547 545 
f 546 568 731 
f 996 568 546 
f 546 731 832 
f 725 557 547 
f 732 725 547 
f 886 732 547 
f 547 832 886 
f 549 628 783 
f 1078 628 549 
f 549 667 668 
f 790 667 549 
f 549 668 1078 
f 549 783 790 
f 551 575 839 
f 839 758 551 
f 984 877 552 
f 1041 984 552 
f 553 554 736 
f 968 554 553 
f 553 736 740 
f 553 740 893 
f 553 893 984 
f 1041 968 553 
f 553 984 1041 
f 554 735 736 
f 1069 735 554 
f 970 744 554 
f 554 744 1069 
f 554 968 970 
f 877 570 555 
f 558 620 840 
f 1038 620 558 
f 558 840 875 
f 559 847 1089 
f 584 583 560 
f 560 583 842 
f 585 584 560 
f 1073 568 561 
f 561 620 961 
f 561 834 1073 
f 960 563 562 
f 562 563 1058 
f 986 749 562 
f 562 755 995 
f 995 960 562 
f 1058 986 562 
f 1026 894 563 
f 563 894 1058 
f 563 900 1026 
f 1047 900 563 
f 563 960 1004 
f 563 1004 1047 
f 734 678 564 
f 846 734 564 
f 977 846 564 
f 565 603 927 
f 566 894 1026 
f 566 900 999 
f 1026 900 566 
f 747 569 567 
f 567 570 944 
f 944 747 567 
f 568 569 731 
f 1073 569 568 
f 733 731 569 
f 747 733 569 
f 893 739 570 
f 570 739 944 
f 570 877 893 
f 998 593 571 
f 571 610 998 
f 572 574 576 
f 572 576 764 
f 843 592 573 
f 573 594 615 
f 573 690 843 
f 937 839 575 
f 575 901 937 
f 578 579 1074 
f 1074 838 578 
f 583 841 842 
f 584 585 868 
f 868 591 584 
f 585 636 868 
f 684 670 589 
f 1066 684 589 
f 589 913 1066 
f 868 636 591 
f 600 596 592 
f 592 596 752 
f 592 597 600 
f 843 597 592 
f 1086 615 594 
f 752 596 595 
f 595 596 810 
f 597 843 1098 
f 598 627 628 
f 631 627 598 
f 598 628 666 
f 666 631 598 
f 962 607 601 
f 601 607 1046 
f 1001 962 601 
f 1056 1001 601 
f 601 1046 1064 
f 1064 1056 601 
f 1010 625 602 
f 603 625 1010 
f 963 927 603 
f 604 762 1019 
f 1004 960 604 
f 604 1019 1064 
f 1064 1046 604 
f 936 748 605 
f 606 761 963 
f 606 866 915 
f 962 910 607 
f 999 989 607 
f 859 661 608 
f 608 671 859 
f 1020 671 608 
f 609 611 954 
f 954 835 609 
f 1075 998 610 
f 611 720 954 
f 917 614 613 
f 613 614 1079 
f 613 634 917 
f 1086 616 615 
f 975 618 617 
f 617 618 1032 
f 845 844 617 
f 617 844 1028 
f 1032 845 617 
f 618 640 1006 
f 1006 848 618 
f 618 848 1032 
f 801 685 619 
f 1038 961 620 
f 622 987 994 
f 1034 987 622 
f 622 1025 1034 
f 623 650 914 
f 626 769 776 
f 1056 769 626 
f 626 776 782 
f 626 782 783 
f 626 783 876 
f 997 628 627 
f 1078 666 628 
f 876 783 628 
f 997 876 628 
f 629 630 665 
f 629 678 734 
f 904 902 632 
f 635 987 1034 
f 1034 1025 635 
f 640 643 850 
f 850 645 640 
f 640 645 1006 
f 642 846 866 
f 643 677 850 
f 645 850 990 
f 646 663 669 
f 1066 913 646 
f 648 1061 1081 
f 649 651 652 
f 914 651 649 
f 649 652 988 
f 649 812 914 
f 988 812 649 
f 653 651 650 
f 650 651 914 
f 851 652 651 
f 656 665 806 
f 663 666 668 
f 663 668 1024 
f 1024 669 663 
f 806 665 664 
f 664 852 971 
f 971 920 664 
f 1078 668 666 
f 966 668 667 
f 794 682 667 
f 667 682 966 
f 667 790 794 
f 668 966 1024 
f 803 672 670 
f 670 684 950 
f 950 803 670 
f 671 679 750 
f 1051 679 671 
f 671 1020 1087 
f 1087 1051 671 
f 951 673 672 
f 672 803 923 
f 672 923 951 
f 1015 679 673 
f 673 679 1051 
f 673 951 1015 
f 673 1051 1087 
f 1044 976 674 
f 1094 1044 674 
f 674 1072 1094 
f 675 789 854 
f 930 789 675 
f 675 854 1016 
f 850 677 676 
f 676 677 969 
f 990 850 676 
f 1016 969 677 
f 679 738 750 
f 1049 738 679 
f 1015 939 679 
f 679 939 1049 
f 693 682 680 
f 680 682 794 
f 680 692 693 
f 680 794 1092 
f 797 701 681 
f 681 701 1053 
f 681 796 797 
f 940 796 681 
f 1053 858 681 
f 797 796 683 
f 683 796 948 
f 856 797 683 
f 973 856 683 
f 683 948 1031 
f 979 973 683 
f 684 686 938 
f 1066 686 684 
f 684 938 950 
f 685 856 973 
f 685 973 979 
f 1040 938 686 
f 687 707 808 
f 687 808 1021 
f 691 738 1049 
f 1049 1042 691 
f 694 695 702 
f 706 695 694 
f 694 702 705 
f 694 705 706 
f 695 698 702 
f 696 802 1012 
f 697 709 817 
f 817 813 697 
f 697 813 1083 
f 1083 864 697 
f 697 864 1084 
f 863 699 698 
f 698 699 955 
f 955 702 698 
f 699 701 955 
f 1053 701 699 
f 863 858 699 
f 699 858 1053 
f 700 896 1017 
f 700 1017 1097 
f 701 797 798 
f 701 798 955 
f 799 705 702 
f 702 798 799 
f 955 798 702 
f 918 804 704 
f 704 865 918 
f 707 706 705 
f 808 707 705 
f 705 799 805 
f 705 805 808 
f 929 709 708 
f 823 817 709 
f 929 823 709 
f 710 712 1071 
f 1071 931 710 
f 711 713 822 
f 819 818 711 
f 711 818 824 
f 822 819 711 
f 824 823 712 
f 712 823 1071 
f 934 822 713 
f 713 932 934 
f 714 820 857 
f 928 820 714 
f 714 857 934 
f 714 869 928 
f 715 716 874 
f 769 762 717 
f 717 768 769 
f 721 826 878 
f 724 827 881 
f 884 727 725 
f 725 732 884 
f 726 727 884 
f 729 730 735 
f 736 735 730 
f 743 736 730 
f 731 733 886 
f 886 832 731 
f 885 884 732 
f 942 885 732 
f 732 886 942 
f 733 747 942 
f 942 886 733 
f 743 740 736 
f 893 890 739 
f 739 890 944 
f 740 743 890 
f 740 890 893 
f 1062 742 741 
f 741 742 1063 
f 1063 895 741 
f 741 942 1062 
f 742 746 1063 
f 1062 945 742 
f 945 890 743 
f 1062 942 747 
f 747 944 1062 
f 936 935 748 
f 749 872 1050 
f 751 756 849 
f 754 897 1003 
f 759 757 756 
f 761 927 963 
f 761 1013 1036 
f 762 769 1019 
f 765 771 772 
f 766 770 771 
f 904 770 766 
f 766 902 904 
f 774 768 767 
f 903 774 767 
f 775 769 768 
f 768 774 775 
f 769 775 776 
f 1064 1019 769 
f 769 1056 1064 
f 773 771 770 
f 777 773 770 
f 907 777 770 
f 1052 772 771 
f 771 773 1052 
f 773 777 779 
f 773 779 1052 
f 1057 775 774 
f 774 903 905 
f 774 905 906 
f 774 906 1057 
f 1096 776 775 
f 1057 781 775 
f 1096 782 776 
f 785 779 777 
f 907 785 777 
f 779 785 786 
f 971 852 780 
f 906 788 781 
f 1057 906 781 
f 790 783 782 
f 784 786 791 
f 785 907 911 
f 785 911 912 
f 785 912 959 
f 1054 792 791 
f 792 1044 1094 
f 912 861 795 
f 959 912 795 
f 1054 959 795 
f 796 940 948 
f 802 807 1011 
f 802 1011 1012 
f 952 923 803 
f 803 950 952 
f 804 918 952 
f 811 818 819 
f 812 988 1105 
f 1070 921 813 
f 813 921 1083 
f 820 816 815 
f 815 819 822 
f 857 820 815 
f 815 822 857 
f 816 820 928 
f 824 818 817 
f 817 823 824 
f 1028 844 821 
f 934 857 822 
f 823 929 1071 
f 1103 956 827 
f 1029 980 836 
f 844 845 1033 
f 947 901 844 
f 1033 947 844 
f 925 866 846 
f 977 925 846 
f 1050 872 853 
f 853 879 1050 
f 854 969 1016 
f 858 863 1076 
f 860 916 950 
f 950 938 860 
f 860 938 1040 
f 1015 919 862 
f 862 939 1015 
f 1042 939 862 
f 863 1035 1104 
f 1104 1076 863 
f 1077 915 866 
f 866 925 1077 
f 934 933 870 
f 984 893 877 
f 1100 896 883 
f 884 885 1060 
f 1060 1059 884 
f 885 942 1000 
f 885 1000 1060 
f 946 891 889 
f 945 944 890 
f 946 943 891 
f 896 992 1017 
f 900 989 999 
f 947 937 901 
f 916 921 922 
f 916 922 952 
f 952 950 916 
f 918 923 952 
f 1014 923 918 
f 951 924 919 
f 1015 951 919 
f 1070 922 921 
f 1070 952 922 
f 923 924 951 
f 1014 924 923 
f 929 931 1071 
f 932 933 934 
f 935 936 949 
f 939 1042 1049 
f 944 945 1062 
f 1079 994 987 
f 1097 1017 992 
