v 0 0 0
v 0 0 6.3499999999999996
v 0 6.3499999999999899 0
v 0 6.3499999999999899 6.3499999999999996
v -1.4099832412739499e-15 12.699999999999999 0
v -1.4099832412739499e-15 12.699999999999999 6.3499999999999996
v -1.4099832412739499e-15 19.050000000000001 0
v -1.4099832412739499e-15 19.050000000000001 6.3499999999999996
v 6.3499999999999899 6.3499999999999899 0
v 6.3499999999999899 6.3499999999999899 6.3499999999999996
v 6.3499999999999899 12.699999999999999 0
v 6.3499999999999899 12.699999999999999 6.3499999999999996
v 12.699999999999999 0 0
v 12.699999999999999 0 6.3499999999999996
v 12.699999999999999 6.3499999999999899 0
v 12.699999999999999 6.3499999999999899 6.3499999999999996
v 19.050000000000001 0 0
v 19.050000000000001 0 6.3499999999999996
v 19.050000000000001 6.3499999999999899 0
v 19.050000000000001 6.3499999999999899 6.3499999999999996
v 19.050000000000001 12.699999999999999 0
v 19.050000000000001 12.699999999999999 6.3499999999999996
v 19.050000000000001 19.050000000000001 0
v 19.050000000000001 19.050000000000001 6.3499999999999996
v 25.399999999999999 0 0
v 25.399999999999999 0 6.3499999999999996
v 25.399999999999999 12.699999999999999 0
v 25.399999999999999 12.699999999999999 6.3499999999999996
v 10.7430765065917 6.1478472853048771 0
v 20.647979565188571 5.1567354729633692 6.3499999999999996
v 21.05793111331155 7.1370131366644909 6.3499999999999996
v 8.0608035651443544 11.5477231041398 6.3499999999999996
v 10.31351021740571 7.1474534303740942 6.3499999999999996
v 0 0.69233768621854463 1.4824025147239439
v 0.88083478860170994 0 1.188322643802161
v 0 1.320552420882505 0.68125944693422913
v 0.93102650613678384 1.297561282730721 0
v 0.99435833676037477 0 4.9729979593092262
v 1.0154236481905341 19.050000000000001 5.3234080595798856
v 24.288476561677719 0 1.1229202122268349
v 17.86149727221197 6.3499999999999899 1.19025917678608
v 1.5630476812266689 0.7794884614794042 6.3499999999999996
v 0 5.0218875451417508 1.074741026852899
v 0.94506253139931884 4.7234327857719114 0
v 8.3299856061420314 9.9282179574107197 6.3499999999999996
v 20.888825717699468 4.2210364373471059 0
v 10.706041640273209 3.5602529885160288 6.3499999999999996
v 1.5630476812266689 5.5345816007312134 0
v 1.5630476812266689 6.3499999999999899 0.77352251605069933
v 0 5.3418835603559947 5.3294872817655392
v 8.3299856061420314 7.13701313666449 6.3499999999999996
v 0.82507035694192621 6.3499999999999899 4.7522611913246058
v 1.291831810190132 5.3519207016327286 6.3499999999999996
v -1.4099832412739499e-15 14.321124813322299 2.0321474036502161
v -1.4099832412739499e-15 14.086354088417099 0.79156034917161255
v 20.549069406798608 5.643518468808133 0
v 0.71320106944813899 14.15193305128382 0
v 1.521614739360301 12.699999999999999 1.466356977225151
v 1.5630476812266689 13.515418399268791 0
v -1.4099832412739499e-15 13.51895962446129 4.7729795651885691
v 20.698991482103811 6.0690076772318386 6.3499999999999996
v 0.76306266046203142 12.699999999999999 4.7729795651885691
v 19.050000000000001 14.23014690249024 2.838260667846237
v 20.647979565188571 6.7382864214774383 0
v 1.5630476812266689 13.515418399268791 6.3499999999999996
v -1.4099832412739499e-15 17.626785230463401 0.90403956744746106
v 0.79840308553796469 17.572605061922701 0
v -1.4099832412739499e-15 18.266970313328091 1.5770204348114301
v 0.77849971008901764 19.050000000000001 1.9721821100697821
v -1.4099832412739499e-15 17.794123603565911 5.5277293096019271
v -1.4099832412739499e-15 18.266970313328091 4.7729795651885691
v 0.77798483549168451 17.484956211118369 6.3499999999999996
v 1.428642939464849 18.274689941899599 6.3499999999999996
v 5.2071141164203976 4.825746356826027 0
v 4.6034828673416639 5.6014414279393678 0
v 7.9667024005991909 13.01537266078603 6.3499999999999996
v 17.40761950604594 13.43677482389065 6.3499999999999996
v 6.3499999999999899 7.9330087577763262 1.5770204348114301
v 7.4568204370719462 8.0254473499417553 0
v 7.9641378153661888 12.061209122244019 0
v 7.8368314688359337 13.458982985365459 0
v 4.8308588600497568 5.3159497695024536 6.3499999999999996
v 22.648924301707741 7.1370131366644909 6.3499999999999996
v 4.9378807940194802 6.3499999999999899 5.5505403357001484
v 5.5360422256506059 6.3499999999999899 4.7729795651885691
v 7.9340068116038047 6.7382864214774383 0
v 6.3499999999999899 7.9330087577763262 5.5649522923797576
v 6.3499999999999899 7.1300223772134386 4.7729795651885691
v 17.541125015994449 12.10245768038595 6.3499999999999996
v 1.577020434811429 12.699999999999999 3.576748959380367
v 4.7450340580190504 12.699999999999999 1.5770204348114301
v 19.050000000000001 2.3610394099934719 2.3830272728088122
v 5.5300969037540337 14.300973726671019 0
v 7.1210900921502223 14.300973726671019 0
v 4.7450340580190504 12.699999999999999 4.7729795651885691
v 4.7450340580190504 12.699999999999999 5.5764774839493043
v 6.3499999999999899 11.282616628588301 5.4880713200482996
v 6.3499999999999899 11.7114779114925 4.4386037478345228
v 4.6963047253920731 13.51215790236725 6.3499999999999996
v -1.4099832412739499e-15 14.29648248444734 6.3499999999999996
v 7.1419575890764442 11.116991242223669 6.3499999999999996
v 11.109006811603811 0.77948846147940443 0
v 12.699999999999999 1.5195616988324889 1.117576496316679
v 11.89406965733879 1.565043788881636 6.3499999999999996
v 12.699999999999999 1.756347310066924 5.4068305556487566
v 12.699999999999999 4.7662709066519957 0.989591009980613
v 11.89406965733879 7.9330087577763262 0
v 13.421156488763829 7.8528973200302943 0
v 10.82633209499599 5.4834121494022279 6.3499999999999996
v 11.89406965733879 4.7490262733289814 6.3499999999999996
v 12.699999999999999 5.2186896481935587 5.4784744848124554
v 12.168682223313541 8.3661567158927479 6.3499999999999996
v 14.225835389357499 7.2224263823477726 6.3499999999999996
v 20.238863366387509 0 1.814762261425543
v 19.86990309624596 1.565043788881636 0
v 20.48789994347603 0 0.76169570632630823
v 20.44837374935776 0.76226670665879193 0
v 19.050000000000001 0.99429293963570853 5.1872776416617796
v 20.72939526092069 0.86154296577027767 6.3499999999999996
v 21.46089628464215 8.71856408517856 6.3499999999999996
v 19.050000000000001 5.0469742923327576 1.6697497258473251
v 12.951757745388649 19.050000000000001 2.4708696111908131
v 13.67662422474301 8.37668869871254 6.3499999999999996
v 17.552145153563099 7.6346287764360916 0
v 8.104321086053794 0 3.7469278774967498
v 17.713405434039839 6.3499999999999899 5.3081862875685051
v 25.399999999999999 11.112500000000001 6.3499999999999996
v 18.270304097446491 8.1001888051695712 6.3499999999999996
v 19.050000000000001 15.94916752867965 5.3758669984444696
v 16.007350870865579 6.3499999999999899 1.19025917678608
v 24.034987215307769 12.699999999999999 1.030144072166812
v 18.188784744051389 11.075878584296539 0
v 17.47297956518857 13.494537811849581 0
v 19.050000000000001 13.933865834392041 1.537816923653831
v 19.84716759763036 12.699999999999999 1.624097259485938
v 20.654965941980951 11.902546569625899 0
v 20.481649647195301 12.699999999999999 0.79625307495394626
v 19.050000000000001 13.74466530996944 5.0543367931856817
v 19.930755543915421 12.699999999999999 4.970420782452857
v 19.977262917121649 11.19074877354149 6.3499999999999996
v 17.47297956518857 18.270511538520591 0
v 17.47297956518857 19.050000000000001 1.5770204348114301
v 17.51576913947147 17.32882651135861 6.3499999999999996
v 18.07940514753227 19.050000000000001 4.7158795343956594
v 19.050000000000001 17.71091022242133 4.8409263871435284
v 24.014025220393869 1.0155109778768141 0
v 25.399999999999999 0.78302968667190775 1.5770204348114301
v 25.399999999999999 1.6781044753064851 1.3248400294006411
v 24.377778645630411 0 5.025253635698145
v 25.399999999999999 1.4296202335612671 5.2509262086746107
v 24.245458884782821 11.649062930968279 0
v 25.399999999999999 11.590077616542789 1.5256348337671479
v 23.836952318773331 11.902546569625899 6.3499999999999996
v 24.12038752643689 12.699999999999999 5.4861677571602394
v 0 0.89351356382179059 3.1726906136901678
v 0 0.78302968667190864 3.9599556717880842
v 1.059068907749702 0 2.2587902187840352
v 0.78101636672820351 0 3.960465374094932
v 0 2.2280791107695501 1.0106015816310889
v 0 2.3470578910913642 4.7729795651885691
v 5.7147474913269622 14.026450489145139 6.3499999999999996
v 0 4.0545673973514571 0.86917393760100814
v 18.671441330717261 9.5250000000000004 6.3499999999999996
v 0.97902438196622787 3.4057016021469262 0
v 1.046361246769258 2.3072605714531549 0
v 11.81696711497816 5.0396225461275437 0
v 0 3.157035031105309 3.9599556717880842
v 11.90568377917935 19.050000000000001 1.220674852925931
v 3.14955244305632 6.3499999999999899 4.375738741974649
v 18.261489782594278 13.903704820746229 6.3499999999999996
v 0 4.7490262733289814 2.361976106599514
v 0 5.3799484249052654 3.8329571695424849
v -1.4099832412739499e-15 13.51895962446129 3.9599556717880851
v 13.80199980748324 6.3499999999999899 3.8430069491905861
v 6.3499999999999899 9.1235068097185561 4.7659625097854734
v -1.4099832412739499e-15 14.9900808143303 1.0168856963011299
v 11.09554153190418 0 4.3667224696417506
v 4.8447162024868824 0 4.2696774101867527
v -1.4099832412739499e-15 14.882776045254801 3.3653985543844391
v -1.4099832412739499e-15 15.143294898920839 4.9244304942106147
v 19.853205134124082 1.379633285395123 6.3499999999999996
v 7.1880526760907166 11.228621117943799 0
v -1.4099832412739499e-15 16.765504953460489 0.84989458668350459
v 19.938248599733591 7.738535304247173 0
v 7.1389852979092909 0 5.0826641211994659
v 0.8877727788552594 15.86517940574949 0
v -1.4099832412739499e-15 15.89296496889469 2.3619761065995148
v 20.277534413306071 0 5.3712639750351308
v -1.4099832412739499e-15 15.970377093074481 3.9317724849996409
v 7.3136813486522643 4.9168972493472536 6.3499999999999996
v 23.545291796524161 6.4068278771000262 6.3499999999999996
v 23.433987147442721 4.7594665670385856 6.3499999999999996
v -1.4099832412739499e-15 16.866110665207781 4.6377806576860072
v -1.4099832412739499e-15 16.674979071104421 5.5579352369766539
v 19.050000000000001 5.5495131366644852 5.165503418998691
v 0.76235639546204625 16.12983011749311 6.3499999999999996
v 0.76485162338827362 14.899533972733 6.3499999999999996
v 0.91581272995914098 16.703314042295801 0
v -1.4099832412739499e-15 17.032286267266549 2.2060681221951048
v 13.761825675305969 6.3499999999999899 5.3153450811833487
v -1.4099832412739499e-15 18.266970313328091 3.1749999999999998
v 6.3499999999999899 11.826175904987879 1.3365369273732699
v 11.41072271253336 12.17926280774091 6.3499999999999996
v 2.0340079776040909 2.033754651096602 6.3499999999999996
v 9.9209787945382217 17.484956211118359 6.3499999999999996
v 1.7087994374438129 3.6136050447331769 6.3499999999999996
v 1.6516080672102551 6.3499999999999899 2.364509299858454
v 1.5630476812266689 6.3499999999999899 3.969481646427838
v 16.469728882515351 16.070964400897751 6.3499999999999996
v 15.20667144774767 7.5360328348992782 0
v 18.131501101920229 11.318723970200979 6.3499999999999996
v 1.8656987623891179 15.064900997195689 6.3499999999999996
v 1.6389015231319131 16.694544918384921 6.3499999999999996
v 1.0829786698887549 19.050000000000001 3.7512837823028411
v 1.9753972262078341 19.050000000000001 2.3842748115278569
v 2.2292364593490732 0 1.07152340575473
v 24.200104894306801 0.978979574145457 6.3499999999999996
v 1.465213097263689 18.276110269062769 0
v 2.0739194785246839 0 5.399432343477419
v 2.3695329821269659 1.04388430544609 0
v 2.1822012312635168 2.183063036543905 0
v 3.1540408696228579 0 2.3624858089063632
v 3.411099732961862 1.0085474295896391 6.3499999999999996
v 3.1540408696228579 0 3.960465374094932
v 2.3040785303926179 3.248213572943591 0
v 3.1540408696228579 2.371479703703077 6.3499999999999996
v 2.263579805019952 4.6311563266647564 0
v 2.559122647710117 6.3499999999999899 1.060398720514764
v 3.2258191194239272 3.8445878415516228 0
v 2.8501981811770229 5.2933148459763988 6.3499999999999996
v 2.4883638806364821 6.3499999999999899 5.33175521588982
v 3.1540408696228579 3.963470945926749 6.3499999999999996
v 3.1790226397354719 5.5306579769504722 0
v 3.1540408696228579 6.3499999999999899 2.3715020812392691
v 2.363032701991306 12.699999999999999 0.77352251605069489
v 2.2551421574113042 12.699999999999999 5.1448057616582084
v 2.634095144960138 13.65135122001052 0
v 2.3481105269616531 15.10740964149246 0
v 3.1540408696228579 12.699999999999999 2.3805183535721648
v 3.1540408696228579 13.515418399268791 6.3499999999999996
v 3.1540408696228579 12.699999999999999 3.9784979187607341
v 3.1540408696228579 15.10740964149246 6.3499999999999996
v 2.3481105269616531 17.484956211118369 0
v 2.193978256245015 19.050000000000001 1.021590559107888
v 3.1666640782423459 16.408090642936259 0
v 2.3689780238878742 18.270511538520591 6.3499999999999996
v 2.445739812054839 19.050000000000001 5.3890720017883238
v 3.1540408696228579 19.050000000000001 2.3895346259050658
v 2.732043460403613 19.050000000000001 4.0351001947067857
v 3.844095511674078 0 1.104997109248099
v 4.0185656792345172 0 5.278950392128797
v 4.0425711235167414 1.0407263147720249 0
v 3.8174920328603088 2.5635718926511202 0
v 4.7450340580190504 2.371479703703077 6.3499999999999996
v 3.9010430574332999 4.7076094125348877 0
v 4.1788457373879773 6.3499999999999899 1.0395817573692121
v 4.7078350627976908 3.798906232902231 0
v 3.8690772407384491 6.3499999999999899 5.2914775588630469
v 4.7450340580190504 3.963470945926749 6.3499999999999996
v 4.5246668363805904 6.3499999999999899 2.43709396622274
v 4.5114167132859606 6.3499999999999899 3.8718185227890798
v 3.7178594853275579 12.699999999999999 5.4281511582946544
v 3.8560161707724858 13.94879409422777 0
v 4.8220033430302136 12.699999999999999 2.570622649184048
v 3.959971212284064 14.300973726671019 6.3499999999999996
v 4.5657412765676559 15.207668448739851 0
v 3.941968155730621 16.418992454648311 6.3499999999999996
v 4.7450340580190504 15.10740964149246 6.3499999999999996
v 3.853834776750904 17.569040519281611 0
v 3.879027588780068 19.050000000000001 1.148319210130933
v 4.4478992723104662 16.604962903987751 0
v 3.9630027435205819 19.050000000000001 3.1749999999999998
v 3.925451447841783 17.99161042272307 6.3499999999999996
v 3.950978562967626 19.050000000000001 5.269426032082591
v 5.1377397767199442 19.050000000000001 2.3407370709820818
v 4.5373253016065007 19.050000000000001 4.1321030666932952
v 5.5731235193324036 0 0.9079766456821099
v 5.4049352375841151 0 3.3874316701844709
v 5.3217958998918702 0 2.3625562978466519
v 5.495553793910906 0 5.2104100531452264
v 5.6113906769596031 0.93643664297838081 0
v 5.5300969037540337 2.371479703703077 0
v 5.5754011918515269 1.565407376862924 6.3499999999999996
v 6.3529072192447096 0 4.1530257506725761
v 5.7293751648851678 2.8563519176232939 6.3499999999999996
v 6.1010102136597792 3.6731658931771811 0
v 6.092956946076395 4.0539274301989412 6.3499999999999996
v 6.3499999999999899 7.8671384107497779 3.8478818519003579
v 7.3327027122371913 9.4354282197440789 0
v 6.3499999999999899 9.3515726406954851 2.4443827118943142
v 6.3499999999999899 10.392049492171971 3.9016248314665298
v 6.3499999999999899 10.314004861660781 5.5649522923797576
v 6.3499999999999899 11.116991242223669 2.368993162002619
v 5.4735266250924459 15.620976044182539 0
v 5.5300969037540337 16.69940088371613 0
v 6.5184170731791777 15.059468446380031 0
v 5.5509644006802539 16.67852029629692 6.3499999999999996
v 5.5426718174827396 19.050000000000001 1.0858811875172549
v 5.6496047685502466 18.061046012087338 6.3499999999999996
v 5.7342353226647891 19.050000000000001 4.0689421984134801
v 5.489544000289909 19.050000000000001 5.3091224795541301
v 7.1128167171353276 0 0.88229739280180297
v 7.0230339613710839 0 2.5810942041116109
v 7.1964876096809158 0.934878289317016 0
v 7.1210900921502223 2.371479703703077 0
v 6.8552497469020697 1.826788193024363 6.3499999999999996
v 7.1210900921502223 3.963470945926749 0
v 7.091786342218886 3.0918974715888758 6.3499999999999996
v 8.319246599906398 2.1768067547299461 6.3499999999999996
v 7.9222313452353132 4.0370297703797462 6.3499999999999996
v 7.744973484410461 8.6343387674376295 6.3499999999999996
v 7.9270204348114284 10.310555327402231 0
v 7.1419575890764442 15.08652905407325 6.3499999999999996
v 7.1210900921502223 16.69940088371613 0
v 7.9884691232921092 14.98622258913694 0
v 7.141939752856894 16.680118451597 6.3499999999999996
v 7.0849558179656107 19.050000000000001 1.02488555685078
v 7.1449891203129621 19.050000000000001 2.3624858089063641
v 7.1801899507578879 18.09271567041073 6.3499999999999996
v 7.0366464421516 19.050000000000001 4.9947908117582376
v 8.6019220743880673 0 1.135718722867427
v 8.689849757040113 0 5.1845254352854004
v 8.7087915372225257 0.98066096099690936 0
v 8.7120832805464126 2.371479703703077 0
v 9.4007117345982181 0 2.3962707887819059
v 9.607065158991567 0 3.868620777104435
v 10.06840932951828 1.288152982162031 6.3499999999999996
v 8.8913660838439625 3.3675233638447581 6.3499999999999996
v 9.5180136232076187 2.371479703703077 6.3499999999999996
v 8.7120832805464126 5.5554621881504218 0
v 9.524160763975221 3.9358918676422019 0
v 8.7583100915488004 5.5777290720107908 6.3499999999999996
v 9.5180136232076187 4.7490262733289814 6.3499999999999996
v 8.7120832805464126 7.9330087577763262 0
v 9.3798432102424361 6.9398245768007172 0
v 8.7609616645844177 9.378553236302082 0
v 9.5926079005228466 8.7390010572764432 6.3499999999999996
v 9.5165872798185855 10.38093365494154 0
v 9.5180136232076187 10.331435914821441 6.3499999999999996
v 9.5180136232076187 11.902546569625899 0
v 9.3737837896344232 11.967931554621901 6.3499999999999996
v 9.5180136232076187 13.494537811849581 0
v 9.12183012980074 13.53687536960182 6.3499999999999996
v 9.5180136232076187 15.08652905407325 0
v 8.7329507774726345 16.67852029629692 6.3499999999999996
v 9.390293519114028 15.24078962285537 6.3499999999999996
v 8.7613434818420544 17.432504484005641 0
v 8.676236100470577 19.050000000000001 1.1072309310586721
v 8.7359823087091506 19.050000000000001 3.1749999999999998
v 8.8584158405740716 18.00886450608898 6.3499999999999996
v 8.651041069152285 19.050000000000001 5.1710652334410501
v 9.5038176171473179 19.050000000000001 2.319659666468449
v 9.75697387606969 19.050000000000001 4.1586303494821379
v 10.48292000864741 0 0.98145847508458761
v 10.30004493770608 0 5.5584449392835023
v 10.0703872228472 0.9967108821159627 0
v 11.42052443426666 2.3136656284323802 0
v 11.109006811603811 3.9425903585075401 0
v 10.23108966057919 8.395136873472314 0
v 10.29676992001276 9.5357342441873083 0
v 10.95405089362478 10.500607539889661 0
v 11.109006811603811 10.331435914821441 6.3499999999999996
v 10.323943965868819 13.494537811849581 6.3499999999999996
v 10.844137281782031 13.78860701437968 0
v 10.28433006100131 16.081617047178639 0
v 10.2343634654769 17.648181067292239 0
v 10.291106787121871 19.050000000000001 1.124105618769861
v 11.27327498435052 16.716339839670571 0
v 10.323943965868819 18.270511538520591 6.3499999999999996
v 10.3374699682424 19.050000000000001 5.4301117438659219
v 11.16168696910769 16.729154498540641 6.3499999999999996
v 11.372883049329131 19.050000000000001 2.495225236855255
v 11.06230290245972 19.050000000000001 3.9582833978626351
v 11.725991555379521 0 3.4353698671566701
v 12.699999999999999 1.565043788881636 2.3760102174057152
v 12.699999999999999 1.2757108922312901 3.858833143394532
v 11.585440212976041 2.5589035171591838 6.3499999999999996
v 12.699999999999999 3.55033881913945 2.3379968904445749
v 12.699999999999999 3.1316131462113508 0.88516055415977901
v 12.699999999999999 3.0765482156943689 3.9908152313194369
v 12.699999999999999 3.8169323570403622 5.2839672613111794
v 12.699999999999999 5.2890441770905952 2.27753247223484
v 12.699999999999999 5.0729166361686078 3.9561415083366218
v 13.491008167631559 6.3499999999999899 2.3805183535721599
v 11.96340527064398 9.6294513591948494 0
v 11.766214783044051 11.86876210936612 0
v 11.91493715426502 11.116991242223669 6.3499999999999996
v 12.699999999999999 10.331435914821441 6.3499999999999996
v 12.699999999999999 13.494537811849581 0
v 12.01595814611197 14.938308766854901 6.3499999999999996
v 12.699999999999999 13.515418399268791 6.3499999999999996
v 11.89406965733879 15.89296496889469 0
v 12.699999999999999 15.08652905407325 0
v 11.89406965733879 17.484956211118369 0
v 12.758553210044649 16.53322247176737 0
v 11.815779024594759 18.104806105684531 6.3499999999999996
v 11.915481609224649 19.050000000000001 5.2036340990646259
v 12.69509389718502 19.050000000000001 3.965426401967775
v 13.48506284573498 9.5249999999999986 0
v 14.29099318839619 8.71856408517856 0
v 14.065011290103399 9.4811548116442719 6.3499999999999996
v 13.2889196625495 11.85577434211759 6.3499999999999996
v 13.843482095206539 11.619341740404179 0
v 13.98527539076396 13.43245191360521 0
v 13.73849405625826 15.084734882933359 6.3499999999999996
v 14.29099318839619 13.515418399268791 6.3499999999999996
v 13.505930342661211 16.67852029629692 6.3499999999999996
v 13.436288613126971 17.662324364772338 0
v 13.491267590604821 19.050000000000001 1.0792256215738021
v 14.29099318839619 16.67852029629692 0
v 13.437205920591079 18.077529761699459 6.3499999999999996
v 13.5295891694772 19.050000000000001 5.3959404770612256
v 14.29099318839619 19.050000000000001 2.3895346259050658
v 13.980937990786799 19.050000000000001 3.9086924997470529
v 14.96557797844206 6.3499999999999899 2.271204492299939
v 15.24661742567976 6.3499999999999899 4.8132925982432972
v 14.86251186356157 8.1313910690664812 6.3499999999999996
v 15.88198637679238 7.1474534303740942 6.3499999999999996
v 15.25115435819332 10.61391552606065 0
v 15.096923531057399 10.310555327402231 6.3499999999999996
v 15.78235586490908 8.6283731472086593 6.3499999999999996
v 15.07605603413117 12.70898248444734 0
v 15.81742812316447 11.989734439889411 6.3499999999999996
v 15.653296139485221 13.698258716028629 0
v 15.854982275805011 13.673394846943911 6.3499999999999996
v 15.675962940124981 15.095929022006921 0
v 15.204360968613789 16.66590777722093 6.3499999999999996
v 15.40522642165444 15.043378246201801 6.3499999999999996
v 14.99930293005094 17.669940925283669 0
v 14.92472845061423 19.050000000000001 0.98526683834847084
v 15.88198637679238 16.67852029629692 0
v 14.95459788339109 18.185331349753781 6.3499999999999996
v 14.904571403380791 19.050000000000001 5.3251586109243867
v 15.849582298843099 18.261254227604098 0
v 15.99555464495098 18.075228453501641 6.3499999999999996
v 16.166477260095132 19.050000000000001 1.027566486874494
v 15.407278591116629 19.050000000000001 2.6034882625328781
v 15.520088585741791 19.050000000000001 4.1481016487073319
v 15.917722197525871 19.050000000000001 5.4466676390672477
v 16.67299454442394 6.3499999999999899 3.1749999999999998
v 16.52845498394527 6.3499999999999899 5.4535472914554921
v 16.48813300872483 7.3345231070405612 0
v 4.8431428287146741 6.3499999999999899 6.3499999999999996
v 5.0191677401763144 6.3499999999999899 0
v 16.49671757008603 8.4482049968708886 0
v 12.699999999999999 4.9082635014615903 0
v 12.699999999999999 4.9193895990972631 6.3499999999999996
v 12.699999999999999 0 3.4458380636978778
v 16.66959375266147 9.712221518734216 0
v 20.487310419201059 0 0
v 17.47297956518857 8.71856408517856 0
v 16.687916719453579 9.5249999999999986 6.3499999999999996
v -1.4099832412739499e-15 14.12688052386034 0
v 6.3499999999999899 12.699999999999999 5.0279936211192124
v 16.609057238609491 11.028528641335051 0
v 14.020853598653609 6.3499999999999899 0
v 14.175525350941919 6.3499999999999908 6.3499999999999996
v 17.500456209938189 10.369972921625241 6.3499999999999996
v 16.918583687943681 12.573482388522001 0
v 19.050000000000001 -2.2204460492503131e-16 1.22068236615242
v 6.3499999999999899 7.6663577752424974 0
v 6.3499999999999899 7.6663577752424974 6.3499999999999996
v 19.050000000000001 19.050000000000001 4.9309147004057543
v 19.050000000000001 1.312035797095858 6.3499999999999996
v 17.00809286688634 15.49307207663697 0
v 0 0 1.311983899366721
v 17.739125062516461 19.050000000000001 6.3499999999999996
v 17.739125062516461 19.050000000000001 0
v 1.4096272185845931 12.699999999999999 6.3499999999999996
v 17.47297956518857 15.10740964149246 6.3499999999999996
v 16.993620300563599 17.06773961675707 0
v 19.050000000000001 17.74262470920484 6.3499999999999996
v 24.093119154931149 12.699999999999999 6.3499999999999996
v 23.98226616766943 12.699999999999999 0
v 0 1.438729222298442 0
v 16.690948250690099 19.050000000000001 3.1749999999999998
v 0 1.182049939965472 6.3499999999999996
v 1.303888560691151 0 6.3499999999999996
v 3.6823901584560659 12.699999999999999 1.190259176786082
v 19.050000000000001 3.6865489337603492 5.165503418998691
v 16.690948250690099 19.050000000000001 4.7729795651885691
v 19.050000000000001 0.76205740831874769 2.3830272728088122
v -1.4099832412739499e-15 16.8267527200485 3.3004717648374942
v 19.050000000000001 0.76205740831874769 3.981006837997382
v 17.86318016070846 9.2748950169697899 6.3499999999999996
v 18.23581284558394 9.6798829459456339 0
v 19.050000000000001 2.3680301694445238 0.77101359681404724
v 19.521395581811941 10.75057257123798 0
v 10.71647538873632 14.70419168408174 6.3499999999999996
v 17.033517526369991 8.1106077583285021 6.3499999999999996
v 19.050000000000001 3.157035031105309 3.981006837997382
v 11.50846703254256 0 5.0692367499548698
v 19.050000000000001 3.7769367248676891 2.5841495211463692
v 19.050000000000001 1.878219829830603 4.2578642476494277
v 19.050000000000001 14.771247348548711 4.4899153712944608
v 7.6323417284435777 6.1134532310667611 6.3499999999999996
v 19.987888579134161 3.186076174318214 6.3499999999999996
v 18.039002238239849 6.3499999999999899 2.4911811424567638
v 18.13142441004609 6.3499999999999899 4.0015758335789764
v 19.050000000000001 5.0626673235848552 4.0264622892232271
v 19.050000000000001 1.267734990441745 1.309471214400358
v 19.050000000000001 3.750540472607736 1.1711190979584769
v 19.063972753584761 8.71856408517856 0
v 19.063972753584761 10.331435914821441 6.3499999999999996
v 13.891000678013871 6.3499999999999899 1.1797796115975101
v 19.050000000000001 13.55488386240784 4.0870250737167924
v 6.3499999999999899 9.1235068097185561 1.1810340712158349
v 6.3499999999999899 9.3255101852752293 3.7730456842387121
v 20.25601791231151 12.699999999999999 3.784195371222566
v 4.359322319457366 0 3.2651510935874959
v 10.70452587465495 0 2.7687429044531808
v 6.5122813615518371 4.9280442573085983 0
v 7.2010064922788199 9.7340795942008214 6.3499999999999996
v 19.050000000000001 15.792270121348389 2.5661949349073141
v 19.050000000000001 16.69595134945758 1.5770204348114301
v 1.9383990739612109 16.27589762259025 0
v 13.102965171330601 7.5402310940752102 6.3499999999999996
v 19.050000000000001 15.89296496889469 3.981006837997382
v 0 1.9700323588886091 3.5674778358940422
v 19.050000000000001 17.661988588329571 2.7354323405420979
v 18.255010879687031 19.050000000000001 3.1749999999999998
v 20.01728006619609 0 3.0588598778232949
v 20.406233217138791 0 4.0696383813086214
v 20.40813402019716 2.2733543859601979 6.3499999999999996
v 20.489696726753639 4.0140613793730404 6.3499999999999996
v 19.842028530999158 8.6275638834514687 6.3499999999999996
v 20.69234178016227 8.6231971794407816 0
v 20.644541016541101 10.25364141923605 0
v 20.949760687821041 12.699999999999999 2.1766495830511539
v 21.316812588690759 0 1.079908370546341
v 21.436997256479419 0 2.3895346259050672
v 21.429245621736509 0 5.0269558065766971
v 21.338546475747329 0.98714555470817478 0
v 21.364927125138291 2.3353432402259462 0
v 22.234057749380941 0 0.93778372903844387
v 22.228463549310391 0.99441266890904478 0
v 22.245959130377141 0 3.960465374094932
v 21.422547936249391 2.6969823839452149 6.3499999999999996
v 22.245959130377141 3.9425903585075401 0
v 22.245959130377141 3.963470945926749 6.3499999999999996
v 22.354046068917761 5.4869480552850716 0
v 22.245959130377141 5.5554621881504218 6.3499999999999996
v 22.078910939939281 7.0163157540944336 0
v 22.325746854142459 8.6246037629692189 0
v 21.504359346472832 10.121698503051549 6.3499999999999996
v 21.83371268409747 12.699999999999999 1.0186574147195011
v 22.245959130377141 10.310555327402231 0
v 21.574017680493519 11.628097463050951 6.3499999999999996
v 21.250789875853641 12.699999999999999 5.3522576248272502
v 22.245959130377141 11.902546569625899 0
v 22.563320225365182 12.699999999999999 4.032345239920458
v 23.202017283050679 0 0.9526003481131089
v 22.97330095920449 0 2.256983835985634
v 22.982581748833589 0 5.3634222043989306
v 23.031021976112122 0.77948846147940443 0
v 23.031021976112122 2.371479703703077 0
v 23.017663129784371 1.2278917525889299 6.3499999999999996
v 23.05188947303834 3.157035031105309 6.3499999999999996
v 23.836952318773331 3.9425903585075401 0
v 23.836952318773331 5.5345816007312134 0
v 23.836952318773331 7.1265728429548858 0
v 22.9531141232377 8.7091759092666816 6.3499999999999996
v 24.006390605172101 8.6714688389472414 0
v 23.716044692582461 10.16352646058915 6.3499999999999996
v 23.122639596175151 11.31850927326124 0
v 23.836952318773331 10.310555327402231 0
v 22.862161547802788 11.38256296297695 6.3499999999999996
v 23.054867985150551 12.699999999999999 5.2188419707706224
v 24.35899637989883 0 2.432844676603775
v 24.463636703760219 0 3.8630041069351879
v 25.399999999999999 0.96663769006184896 2.609495273822803
v 24.335033045619351 2.3468834294329999 0
v 25.399999999999999 0.78302968667190775 3.988023893400483
v 25.399999999999999 2.6051763890833919 2.4850052202377331
v 24.622015164508309 2.371479703703077 6.3499999999999996
v 25.399999999999999 4.094783518845313 0.88868907168160394
v 25.399999999999999 3.157035031105309 3.988023893400483
v 24.195425218801759 3.9332312204247222 6.3499999999999996
v 25.399999999999999 3.8458271498865919 5.3195523067092756
v 25.399999999999999 4.7519299066763327 2.4357414640147881
v 25.399999999999999 5.5713450744022266 0.9653321976914141
v 25.399999999999999 4.4359394164153558 4.091745185157575
v 24.404089509474939 5.6272514570677412 6.3499999999999996
v 25.399999999999999 5.5592803801106383 5.2245182138858137
v 25.399999999999999 6.3410175155526538 2.3900443282119141
v 25.399999999999999 7.1552929009946684 1.0223851486452431
v 25.399999999999999 6.3410175155526538 3.988023893400483
v 24.393025514437689 7.2491341563315181 6.3499999999999996
v 25.399999999999999 7.4005212135585623 3.8573153535756739
v 25.399999999999999 7.1285850380550384 5.2916081772379853
v 25.399999999999999 7.9971116606099866 2.2921369610805269
v 25.399999999999999 8.7606764470783745 0.94947106413202287
v 24.364343573269529 8.8000367815046019 6.3499999999999996
v 25.399999999999999 8.9254730674624909 3.6781988408012518
v 25.399999999999999 8.5381032556700216 5.2206264302182914
v 25.399999999999999 10.4045163785018 0.91962916147309415
v 25.399999999999999 10.233920308189351 2.3959504140486629
v 25.399999999999999 10.444736099720711 3.9144384997705068
v 24.30026170648966 12.699999999999999 4.101847272764906
v 25.399999999999999 11.647850977418569 2.8904965829049121
v 25.399999999999999 11.8990053444334 3.988023893400483
v 1.6575803803564311 0 0
v 0 4.7490262733289814 0
v 0 6.3499999999999899 4.7729795651885691
v -1.4099832412739499e-15 12.699999999999999 1.5770204348114301
v -1.4099832412739499e-15 12.699999999999999 4.7729795651885691
v -1.4099832412739499e-15 17.484956211118369 0
v -1.4099832412739499e-15 19.050000000000001 1.7150122740314819
v -2.2204460492503131e-15 17.485033222845189 6.3499999999999996
v 12.699999999999999 0 4.7729795651885691
v 12.699999999999999 6.3499999999999899 1.5770204348114301
v 12.699999999999999 6.3499999999999899 4.7729795651885691
v 19.050000000000001 1.565043788881636 0
v 19.050000000000001 4.7490262733289814 0
v 19.050000000000001 6.3499999999999899 4.7729795651885691
v 19.050000000000001 12.699999999999999 1.5770204348114301
v 19.050000000000001 14.300973726671019 0
v 19.050000000000001 12.699999999999999 4.7729795651885691
v 19.050000000000001 19.050000000000001 1.5770204348114301
v 25.399999999999999 0 4.7729795651885691
v 25.399999999999999 11.116991242223669 0
v 25.399999999999999 12.699999999999999 4.7729795651885691
v 0 0 3.1749999999999998
v 0 0 2.3294959214259419
v 0 8.8817841970012523e-16 4.7982542484848052
v 0 3.5687849860544789 0
v 0 2.6100900752896088 0
v 0 2.6100900752896088 6.3499999999999996
v 0 4.2020813175132812 6.3499999999999996
v 0 6.3499999999999899 2.0879627180217222
v 0 6.3499999999999899 3.1749999999999998
v -1.4099832412739499e-15 12.699999999999999 3.2815779383658472
v 0 16.371326099244271 0
v -1.4099832412739499e-15 15.17155448621997 0
v -1.4099832412739499e-15 15.89296496889469 6.3499999999999996
v -1.4099832412739499e-15 19.050000000000001 3.1749999999999998
v -1.4099832412739499e-15 19.050000000000001 4.4772365921852213
v 2.3861981505352849 0 6.3499999999999996
v 3.1540408696228579 0 0
v 3.5534444319417311 0 6.3499999999999996
v 2.0973422919564468 6.3499999999999899 0
v 1.9113204597522051 6.3499999999999899 6.3499999999999996
v 2.1063191450895302 12.699999999999999 0
v 2.619746258893084 12.699999999999999 6.3499999999999996
v 2.1093114294672248 19.050000000000001 0
v 1.9939329069469629 19.050000000000001 6.3499999999999996
v 3.1540408696228579 19.050000000000001 0
v 3.1540408696228579 19.050000000000001 6.3499999999999996
v 4.7450340580190504 0 0
v 4.7450340580190504 0 6.3499999999999996
v 3.6905490409173671 6.3499999999999899 0
v 3.6883354803526358 6.3499999999999899 6.3499999999999996
v 4.2107394472892743 12.699999999999999 0
v 4.2107394472892743 12.699999999999999 6.3499999999999996
v 4.7450340580190504 19.050000000000001 0
v 4.7450340580190504 19.050000000000001 6.3499999999999996
v 6.3360272464152398 0 0
v 6.3360272464152398 0 6.3499999999999996
v 6.3499999999999899 6.3499999999999899 2.1080076770498528
v 6.3499999999999899 6.3499999999999899 3.7107146204836718
v 6.3499999999999899 8.982715550485004 0
v 6.3499999999999899 8.982715550485004 6.3499999999999996
v 6.3499999999999899 10.57470679270868 0
v 6.3499999999999899 12.699999999999999 1.918649201631174
v 6.3499999999999899 12.699999999999999 3.7059872422384248
v 6.3499999999999899 10.65462833799544 6.3499999999999996
v 6.3360272464152398 19.050000000000001 0
v 6.3360272464152398 19.050000000000001 6.3499999999999996
v 7.9270204348114284 0 0
v 7.9270204348114284 0 6.3499999999999996
v 7.9270204348114284 19.050000000000001 0
v 7.9270204348114284 19.050000000000001 6.3499999999999996
v 9.5180136232076187 0 0
v 9.5180136232076187 0 6.3499999999999996
v 9.5180136232076187 19.050000000000001 0
v 9.5180136232076187 19.050000000000001 6.3499999999999996
v 10.8322863809232 0 0
v 10.56274306336325 0 6.3499999999999996
v 11.109006811603811 19.050000000000001 0
v 11.109006811603811 19.050000000000001 6.3499999999999996
v 12.699999999999999 0 2.1186965622071869
v 12.699999999999999 2.1026677320959299 0
v 12.699999999999999 1.9734616253012951 6.3499999999999996
v 12.699999999999999 3.6946589743196019 0
v 12.699999999999999 3.6946589743196019 6.3499999999999996
v 12.699999999999999 6.3499999999999899 3.1749999999999998
v 12.699999999999999 19.050000000000001 0
v 12.683365799773069 19.050000000000001 6.3395401520137877
v 8.3180360920606624 0 2.3760102174057152
v 14.29099318839619 19.050000000000001 0
v 14.29099318839619 19.050000000000001 6.3499999999999996
v 15.341707197307221 6.3499999999999899 0
v 15.341707197307221 6.3499999999999899 6.3499999999999996
v 15.88198637679238 19.050000000000001 0
v 15.88198637679238 19.050000000000001 6.3499999999999996
v 16.932700385703409 6.3499999999999899 0
v 17.01440160861922 6.3499999999999908 6.3499999999999996
v 16.720590946648581 19.050000000000001 0
v 16.428250125032928 19.050000000000001 6.3499999999999996
v 19.050000000000001 0 2.6380019095396401
v 19.050000000000001 0 4.2359814747282094
v 19.050000000000001 3.157035031105309 0
v 19.050000000000001 2.6240715941917161 6.3499999999999996
v 19.050000000000001 6.3499999999999899 2.1113529026987208
v 19.050000000000001 6.3499999999999899 3.1749999999999998
v 8.437691439115639 4.0552118772624466 0
v 19.050000000000001 4.2160628364153894 6.3499999999999996
v 19.050000000000001 12.699999999999999 3.1749999999999998
v 9.9105450460751108 2.3610394099934719 0
v 19.050000000000001 14.84325817618601 6.3499999999999996
v 2.9488667802835749 16.777744288745868 6.3499999999999996
v 19.050000000000001 16.435249418409679 0
v 5.9434958235477469 15.096969347782849 6.3499999999999996
v 19.050000000000001 16.435249418409679 6.3499999999999996
v 19.050000000000001 19.050000000000001 3.7213541643311552
v 21.465952231908361 0 0
v 21.699695382136579 0 6.3499999999999996
v 22.245959130377141 0 0
v 21.195245121466119 12.699999999999999 0
v 21.041114359819041 12.699999999999999 6.3499999999999996
v 23.565326049842191 0 0
v 23.290688570532769 0 6.3499999999999996
v 22.920501259379911 12.699999999999999 0
v 22.786238309862309 12.699999999999999 6.3499999999999996
v 25.399999999999999 0 1.817836834857286
v 25.399999999999999 1.6976867182882971 0
v 25.399999999999999 0 3.1749999999999998
v 25.399999999999999 1.657404804501079 6.3499999999999996
v 25.399999999999999 3.157035031105309 0
v 25.399999999999999 3.0546024475752298 6.3499999999999996
v 25.399999999999999 4.7490262733289814 0
v 25.399999999999999 4.4762325477498006 6.3499999999999996
v 25.399999999999999 6.3410175155526538 0
v 25.399999999999999 6.0255878481427718 6.3499999999999996
v 25.399999999999999 7.9330087577763262 0
v 25.399999999999999 7.5070016249152607 6.3499999999999996
v 25.399999999999999 9.5249999999999986 0
v 25.399999999999999 9.6261565874563306 6.3499999999999996
v 25.399999999999999 12.699999999999999 1.8213378901812241
v 15.187677002957351 6.3499999999999899 3.5485373175420132
v 25.399999999999999 12.699999999999999 3.1749999999999998
v 4.7620381616983254 12.699999999999999 3.6520888937205198
v 6.3499999999999899 7.9330087577763262 2.771996581001309
v 0 2.4632090815266552 2.450084184579469
v 23.400049481820702 12.699999999999999 2.345729892327753
v 6.3499999999999899 9.1235068097185561 5.5649522923797576
v 9.8242535162507991 16.57564873357693 6.3499999999999996
v 16.284951548122979 10.320995621111839 6.3499999999999996
v 15.41822724201022 8.7205575233086705 0
v 23.433987147442721 5.5554621881504218 6.3499999999999996
v 0 4.4226650235682872 4.2995880762033289
v 18.488043809991471 7.4982568921382979 0
v 19.056986376792381 11.51571795741072 6.3499999999999996
v 12.699999999999999 2.7680670257454141 5.5274189491567256
v 5.8690583498006612 5.4057221425194824 0
v -1.4099832412739499e-15 17.49155754076169 3.9743272988156919
v 21.38768659490237 7.7505029275156501 0
v 23.041455724575229 7.9225684640667229 0
v 2.3585442754247641 15.90340526260429 6.3499999999999996
v 17.471146868305961 8.7544463080433204 6.3499999999999996
v 16.740984685601891 11.27849147027103 6.3499999999999996
v 25.399999999999999 10.320995621111839 5.5614897825942844
v 25.399999999999999 2.6037851927287088 5.434797361094942
v 25.399999999999999 2.8676639267837949 1.1551570698818949
f 1 34 36 
f 466 34 1 
f 1 35 466 
f 602 35 1 
f 1 36 475 
f 475 37 1 
f 1 37 602 
f 2 38 478 
f 625 38 2 
f 2 42 477 
f 478 42 2 
f 2 477 625 
f 603 43 3 
f 3 43 630 
f 48 44 3 
f 3 44 603 
f 641 48 3 
f 630 49 3 
f 3 49 641 
f 604 50 4 
f 4 50 629 
f 4 52 604 
f 642 52 4 
f 629 53 4 
f 4 53 642 
f 5 55 453 
f 605 55 5 
f 5 57 59 
f 453 57 5 
f 5 58 605 
f 643 58 5 
f 5 59 643 
f 100 60 6 
f 6 60 606 
f 6 62 469 
f 606 62 6 
f 6 65 100 
f 469 65 6 
f 7 66 68 
f 607 66 7 
f 218 67 7 
f 7 67 607 
f 7 68 608 
f 7 69 244 
f 608 69 7 
f 645 218 7 
f 7 244 645 
f 8 39 637 
f 646 39 8 
f 71 70 8 
f 8 70 609 
f 637 71 8 
f 8 72 73 
f 609 72 8 
f 8 73 646 
f 9 75 444 
f 755 75 9 
f 9 78 461 
f 659 78 9 
f 9 79 86 
f 461 79 9 
f 9 86 330 
f 9 330 512 
f 9 444 659 
f 9 512 755 
f 10 51 462 
f 496 51 10 
f 10 82 287 
f 443 82 10 
f 85 84 10 
f 10 84 443 
f 660 85 10 
f 10 87 88 
f 462 87 10 
f 10 88 660 
f 287 190 10 
f 10 190 496 
f 81 80 11 
f 11 80 182 
f 94 81 11 
f 11 91 653 
f 664 91 11 
f 11 93 94 
f 653 93 11 
f 11 182 663 
f 663 202 11 
f 11 202 664 
f 12 32 76 
f 101 32 12 
f 12 76 313 
f 12 96 454 
f 654 96 12 
f 98 97 12 
f 12 97 666 
f 454 98 12 
f 161 99 12 
f 12 99 654 
f 666 101 12 
f 313 161 12 
f 13 102 357 
f 677 102 13 
f 13 103 681 
f 682 103 13 
f 13 354 677 
f 681 354 13 
f 13 357 682 
f 14 104 678 
f 683 104 14 
f 610 105 14 
f 14 105 683 
f 14 355 492 
f 678 355 14 
f 14 492 610 
f 15 29 107 
f 166 29 15 
f 15 106 446 
f 611 106 15 
f 15 107 108 
f 15 108 456 
f 446 166 15 
f 15 456 505 
f 15 505 611 
f 16 33 109 
f 112 33 16 
f 16 109 110 
f 16 110 447 
f 447 111 16 
f 16 111 612 
f 517 112 16 
f 457 113 16 
f 16 113 517 
f 16 200 457 
f 612 200 16 
f 17 115 117 
f 613 115 17 
f 450 116 17 
f 17 116 460 
f 17 117 450 
f 17 460 501 
f 17 501 613 
f 464 118 18 
f 18 118 701 
f 18 119 181 
f 717 119 18 
f 18 181 464 
f 701 188 18 
f 18 188 717 
f 19 41 696 
f 704 41 19 
f 64 56 19 
f 19 56 614 
f 184 64 19 
f 752 184 19 
f 19 614 704 
f 19 696 752 
f 20 30 61 
f 707 30 20 
f 61 31 20 
f 20 31 526 
f 20 126 615 
f 697 126 20 
f 526 128 20 
f 20 128 697 
f 615 195 20 
f 20 195 707 
f 21 132 459 
f 488 132 21 
f 459 133 21 
f 21 133 617 
f 21 134 616 
f 617 134 21 
f 21 135 137 
f 616 135 21 
f 21 136 488 
f 719 136 21 
f 21 137 719 
f 22 77 89 
f 170 77 22 
f 22 89 211 
f 618 138 22 
f 22 138 710 
f 549 139 22 
f 22 139 618 
f 22 140 720 
f 753 140 22 
f 710 170 22 
f 22 211 753 
f 720 549 22 
f 23 141 468 
f 712 141 23 
f 23 468 619 
f 619 515 23 
f 23 515 712 
f 467 143 24 
f 24 143 472 
f 463 144 24 
f 24 144 467 
f 24 145 463 
f 472 145 24 
f 25 40 721 
f 725 40 25 
f 721 146 25 
f 25 146 726 
f 148 147 25 
f 25 147 725 
f 726 148 25 
f 554 149 26 
f 26 149 620 
f 620 150 26 
f 26 150 728 
f 26 217 722 
f 728 217 26 
f 722 554 26 
f 474 131 27 
f 27 131 739 
f 27 151 474 
f 621 151 27 
f 27 152 621 
f 739 152 27 
f 153 127 28 
f 28 127 622 
f 473 153 28 
f 28 154 473 
f 622 154 28 
f 359 107 29 
f 29 166 358 
f 331 330 29 
f 29 330 335 
f 358 331 29 
f 29 335 359 
f 542 61 30 
f 30 525 540 
f 707 525 30 
f 30 540 542 
f 31 61 542 
f 31 83 120 
f 542 83 31 
f 31 120 526 
f 101 45 32 
f 32 45 339 
f 341 76 32 
f 32 339 341 
f 33 51 332 
f 337 51 33 
f 332 109 33 
f 33 112 337 
f 159 36 34 
f 624 155 34 
f 34 155 744 
f 744 159 34 
f 34 466 624 
f 216 157 35 
f 35 157 624 
f 602 216 35 
f 624 466 35 
f 36 159 627 
f 627 475 36 
f 37 165 221 
f 627 165 37 
f 221 220 37 
f 37 220 602 
f 37 475 627 
f 38 158 224 
f 625 158 38 
f 224 219 38 
f 38 219 478 
f 249 214 39 
f 39 214 637 
f 39 247 249 
f 646 247 39 
f 553 552 40 
f 40 552 721 
f 569 553 40 
f 725 569 40 
f 440 130 41 
f 41 130 696 
f 498 440 41 
f 704 498 41 
f 223 204 42 
f 42 204 628 
f 638 223 42 
f 628 477 42 
f 42 478 638 
f 43 162 171 
f 603 162 43 
f 43 171 630 
f 44 48 227 
f 227 164 44 
f 44 164 603 
f 45 101 513 
f 45 311 337 
f 513 311 45 
f 45 337 339 
f 46 56 541 
f 614 56 46 
f 539 534 46 
f 46 534 702 
f 541 539 46 
f 702 614 46 
f 110 109 47 
f 47 109 333 
f 685 110 47 
f 47 328 329 
f 333 328 47 
f 47 329 377 
f 47 377 685 
f 233 227 48 
f 641 233 48 
f 49 207 228 
f 630 207 49 
f 49 228 641 
f 604 172 50 
f 50 172 751 
f 751 629 50 
f 337 311 51 
f 51 311 462 
f 496 332 51 
f 231 208 52 
f 52 208 631 
f 642 231 52 
f 631 604 52 
f 53 206 230 
f 629 206 53 
f 53 230 642 
f 176 55 54 
f 54 55 605 
f 54 173 179 
f 632 173 54 
f 187 176 54 
f 54 179 187 
f 54 605 632 
f 55 176 634 
f 634 453 55 
f 56 64 543 
f 543 541 56 
f 238 59 57 
f 57 186 238 
f 634 186 57 
f 57 453 634 
f 239 90 58 
f 58 90 605 
f 58 235 239 
f 643 235 58 
f 238 237 59 
f 59 237 643 
f 60 100 180 
f 180 173 60 
f 60 173 606 
f 62 90 236 
f 632 90 62 
f 62 236 469 
f 62 606 632 
f 63 134 514 
f 708 134 63 
f 63 495 506 
f 518 495 63 
f 63 506 708 
f 63 514 518 
f 64 184 527 
f 64 527 757 
f 757 543 64 
f 197 100 65 
f 212 197 65 
f 240 212 65 
f 644 240 65 
f 65 469 644 
f 199 68 66 
f 66 183 199 
f 607 183 66 
f 243 198 67 
f 67 198 607 
f 67 218 243 
f 68 199 201 
f 68 201 608 
f 69 214 215 
f 636 214 69 
f 69 215 244 
f 69 608 636 
f 70 71 193 
f 70 193 194 
f 70 194 609 
f 756 193 71 
f 636 201 71 
f 71 201 756 
f 637 636 71 
f 213 73 72 
f 72 196 213 
f 609 196 72 
f 73 213 246 
f 73 246 646 
f 255 75 74 
f 74 75 755 
f 257 255 74 
f 286 257 74 
f 512 286 74 
f 755 512 74 
f 255 233 75 
f 75 233 651 
f 651 444 75 
f 343 313 76 
f 76 341 343 
f 423 89 77 
f 77 170 470 
f 425 423 77 
f 470 425 77 
f 78 290 507 
f 743 290 78 
f 661 461 78 
f 78 507 661 
f 78 659 743 
f 334 86 79 
f 79 289 336 
f 661 289 79 
f 336 334 79 
f 79 461 661 
f 80 81 342 
f 312 182 80 
f 340 312 80 
f 342 340 80 
f 81 94 315 
f 81 315 342 
f 82 230 232 
f 652 230 82 
f 82 232 259 
f 82 259 287 
f 82 443 652 
f 562 120 83 
f 542 191 83 
f 83 191 588 
f 588 562 83 
f 84 85 261 
f 261 258 84 
f 84 258 652 
f 652 443 84 
f 660 261 85 
f 335 330 86 
f 86 334 335 
f 288 88 87 
f 87 175 288 
f 746 175 87 
f 87 462 662 
f 87 662 746 
f 88 288 660 
f 458 211 89 
f 89 423 761 
f 761 458 89 
f 241 236 90 
f 90 239 241 
f 632 605 90 
f 264 239 91 
f 91 239 479 
f 664 264 91 
f 91 479 653 
f 92 482 484 
f 501 482 92 
f 92 484 494 
f 92 487 501 
f 502 487 92 
f 92 491 493 
f 494 491 92 
f 92 493 502 
f 296 94 93 
f 93 263 266 
f 653 263 93 
f 93 266 294 
f 93 294 296 
f 94 296 315 
f 95 96 262 
f 454 96 95 
f 262 241 95 
f 95 241 742 
f 665 454 95 
f 742 665 95 
f 654 262 96 
f 97 98 291 
f 97 291 292 
f 97 292 666 
f 293 291 98 
f 665 293 98 
f 98 454 665 
f 99 161 268 
f 265 240 99 
f 99 240 654 
f 268 265 99 
f 635 180 100 
f 100 197 635 
f 666 513 101 
f 102 356 357 
f 677 356 102 
f 378 375 103 
f 103 375 681 
f 379 378 103 
f 682 379 103 
f 377 327 104 
f 104 327 678 
f 683 377 104 
f 105 376 380 
f 610 376 105 
f 105 380 754 
f 754 683 105 
f 106 378 379 
f 382 378 106 
f 106 379 684 
f 611 382 106 
f 684 446 106 
f 385 108 107 
f 107 359 385 
f 400 210 108 
f 108 210 692 
f 108 385 399 
f 108 399 400 
f 692 456 108 
f 109 332 333 
f 685 447 110 
f 111 381 383 
f 685 381 111 
f 111 383 612 
f 111 447 685 
f 112 123 401 
f 517 123 112 
f 362 337 112 
f 388 362 112 
f 401 388 112 
f 417 123 113 
f 113 123 517 
f 418 417 113 
f 693 418 113 
f 113 457 693 
f 460 116 114 
f 114 116 530 
f 700 460 114 
f 531 522 114 
f 114 522 700 
f 114 530 531 
f 534 117 115 
f 702 534 115 
f 115 613 702 
f 116 450 716 
f 716 530 116 
f 716 450 117 
f 534 533 117 
f 117 533 716 
f 118 464 703 
f 494 484 118 
f 118 484 701 
f 703 494 118 
f 524 181 119 
f 538 524 119 
f 717 538 119 
f 545 526 120 
f 562 545 120 
f 121 493 500 
f 502 493 121 
f 121 500 705 
f 614 502 121 
f 704 614 121 
f 705 704 121 
f 122 168 372 
f 409 168 122 
f 122 372 398 
f 122 398 414 
f 413 409 122 
f 414 413 122 
f 417 401 123 
f 124 442 445 
f 696 442 124 
f 124 445 451 
f 124 451 752 
f 752 696 124 
f 125 185 284 
f 322 185 125 
f 125 284 303 
f 125 303 689 
f 326 322 125 
f 125 325 326 
f 689 325 125 
f 126 441 499 
f 697 441 126 
f 126 499 615 
f 127 153 564 
f 127 564 738 
f 762 622 127 
f 127 738 762 
f 128 163 485 
f 526 163 128 
f 128 485 760 
f 128 490 697 
f 760 490 128 
f 518 145 129 
f 129 145 714 
f 129 495 518 
f 710 495 129 
f 714 710 129 
f 440 415 130 
f 130 415 692 
f 130 692 696 
f 131 474 723 
f 723 546 131 
f 131 546 745 
f 745 739 131 
f 132 449 455 
f 486 449 132 
f 132 455 459 
f 488 486 132 
f 133 424 426 
f 459 424 133 
f 133 426 465 
f 133 465 617 
f 515 514 134 
f 617 515 134 
f 708 616 134 
f 529 137 135 
f 708 529 135 
f 135 616 708 
f 528 488 136 
f 547 528 136 
f 550 547 136 
f 719 550 136 
f 137 529 546 
f 137 546 719 
f 506 495 138 
f 138 495 710 
f 618 506 138 
f 549 509 139 
f 139 509 618 
f 140 504 545 
f 753 504 140 
f 140 545 548 
f 140 548 720 
f 471 434 141 
f 141 434 698 
f 698 468 141 
f 712 471 141 
f 142 436 437 
f 698 436 142 
f 142 437 476 
f 619 468 142 
f 142 468 698 
f 142 476 521 
f 142 521 619 
f 435 209 143 
f 143 209 470 
f 699 435 143 
f 143 467 699 
f 143 470 714 
f 714 472 143 
f 144 463 715 
f 481 467 144 
f 521 481 144 
f 715 521 144 
f 715 463 145 
f 145 472 714 
f 145 518 520 
f 145 520 715 
f 146 555 556 
f 721 555 146 
f 146 556 572 
f 146 572 726 
f 147 148 571 
f 147 571 725 
f 574 571 148 
f 764 574 148 
f 148 726 764 
f 554 537 149 
f 149 537 570 
f 149 570 620 
f 150 573 577 
f 620 573 150 
f 150 577 763 
f 763 728 150 
f 723 474 151 
f 566 565 151 
f 151 565 723 
f 737 566 151 
f 151 621 737 
f 597 596 152 
f 152 596 621 
f 600 597 152 
f 739 600 152 
f 153 473 724 
f 567 564 153 
f 724 567 153 
f 724 473 154 
f 599 568 154 
f 154 568 724 
f 622 599 154 
f 155 156 519 
f 623 156 155 
f 155 519 744 
f 624 623 155 
f 477 160 156 
f 156 160 519 
f 625 477 156 
f 156 623 625 
f 224 158 157 
f 157 158 623 
f 157 216 222 
f 157 222 224 
f 157 623 624 
f 625 623 158 
f 171 162 159 
f 159 162 626 
f 744 171 159 
f 159 626 627 
f 160 167 519 
f 629 167 160 
f 160 477 628 
f 160 628 629 
f 713 268 161 
f 161 313 713 
f 162 603 626 
f 163 458 485 
f 504 458 163 
f 526 504 163 
f 221 165 164 
f 164 165 627 
f 225 221 164 
f 227 225 164 
f 626 603 164 
f 627 626 164 
f 684 358 166 
f 166 446 684 
f 167 171 744 
f 751 171 167 
f 744 519 167 
f 167 629 751 
f 168 367 372 
f 679 367 168 
f 168 409 687 
f 687 679 168 
f 169 208 231 
f 234 208 169 
f 169 231 258 
f 261 234 169 
f 169 258 261 
f 710 470 170 
f 171 172 631 
f 751 172 171 
f 631 630 171 
f 172 604 631 
f 180 179 173 
f 632 606 173 
f 416 200 174 
f 174 200 612 
f 174 384 415 
f 686 384 174 
f 174 415 740 
f 740 416 174 
f 174 612 686 
f 508 288 175 
f 292 291 175 
f 175 291 508 
f 746 292 175 
f 187 183 176 
f 176 183 634 
f 355 326 177 
f 177 326 511 
f 492 355 177 
f 511 374 177 
f 177 374 610 
f 610 492 177 
f 251 224 178 
f 178 224 510 
f 280 251 178 
f 178 278 284 
f 510 278 178 
f 284 280 178 
f 179 180 189 
f 189 187 179 
f 193 189 180 
f 194 193 180 
f 635 194 180 
f 703 464 181 
f 181 524 703 
f 182 312 663 
f 183 187 199 
f 183 607 633 
f 183 633 634 
f 184 503 527 
f 752 503 184 
f 185 280 284 
f 658 280 185 
f 185 322 670 
f 670 658 185 
f 186 198 516 
f 633 198 186 
f 516 238 186 
f 634 633 186 
f 187 189 483 
f 483 199 187 
f 188 523 532 
f 701 523 188 
f 188 532 717 
f 189 193 483 
f 190 287 310 
f 190 310 332 
f 190 332 496 
f 191 542 750 
f 191 583 588 
f 750 583 191 
f 542 540 192 
f 192 540 578 
f 750 542 192 
f 192 578 583 
f 192 583 750 
f 756 483 193 
f 635 609 194 
f 615 500 195 
f 195 500 707 
f 196 197 212 
f 635 197 196 
f 196 212 213 
f 196 609 635 
f 198 243 516 
f 633 607 198 
f 483 201 199 
f 200 416 693 
f 693 457 200 
f 201 483 756 
f 636 608 201 
f 663 293 202 
f 202 293 664 
f 203 341 362 
f 363 341 203 
f 203 362 387 
f 391 363 203 
f 203 387 402 
f 402 391 203 
f 226 206 204 
f 204 206 628 
f 204 223 226 
f 350 345 205 
f 205 345 747 
f 369 350 205 
f 371 369 205 
f 747 371 205 
f 206 226 232 
f 232 230 206 
f 629 628 206 
f 207 208 234 
f 631 208 207 
f 234 228 207 
f 207 630 631 
f 209 427 428 
f 435 427 209 
f 209 428 470 
f 210 400 749 
f 445 442 210 
f 210 442 692 
f 749 445 210 
f 211 458 504 
f 211 504 753 
f 759 213 212 
f 212 240 242 
f 212 242 759 
f 711 246 213 
f 759 711 213 
f 249 215 214 
f 214 636 637 
f 248 244 215 
f 249 248 215 
f 250 222 216 
f 639 250 216 
f 216 602 639 
f 575 557 217 
f 217 557 722 
f 728 575 217 
f 645 243 218 
f 219 224 251 
f 219 251 638 
f 638 478 219 
f 220 221 253 
f 253 252 220 
f 220 252 639 
f 639 602 220 
f 221 225 253 
f 510 224 222 
f 222 250 279 
f 222 279 510 
f 254 226 223 
f 283 254 223 
f 650 283 223 
f 223 638 640 
f 223 640 650 
f 225 227 229 
f 225 229 253 
f 259 232 226 
f 226 254 259 
f 255 229 227 
f 227 233 255 
f 228 234 256 
f 228 256 651 
f 651 641 228 
f 257 253 229 
f 229 255 257 
f 652 642 230 
f 652 258 231 
f 231 642 652 
f 233 641 651 
f 260 256 234 
f 261 260 234 
f 479 239 235 
f 653 479 235 
f 235 643 653 
f 236 241 262 
f 236 262 644 
f 644 469 236 
f 237 238 263 
f 237 263 653 
f 653 643 237 
f 238 245 266 
f 516 245 238 
f 266 263 238 
f 742 241 239 
f 239 264 742 
f 265 242 240 
f 240 644 654 
f 242 265 268 
f 268 267 242 
f 242 267 711 
f 242 711 759 
f 269 245 243 
f 243 245 516 
f 647 269 243 
f 243 645 647 
f 244 248 270 
f 244 270 647 
f 647 645 244 
f 271 266 245 
f 245 269 271 
f 246 273 648 
f 711 273 246 
f 648 646 246 
f 274 249 247 
f 648 274 247 
f 247 646 648 
f 248 249 272 
f 275 270 248 
f 248 272 275 
f 276 272 249 
f 249 274 276 
f 250 277 279 
f 649 277 250 
f 250 639 649 
f 251 280 650 
f 640 638 251 
f 650 640 251 
f 252 253 282 
f 282 281 252 
f 252 281 649 
f 649 639 252 
f 253 257 282 
f 285 259 254 
f 254 283 285 
f 256 260 659 
f 256 444 651 
f 659 444 256 
f 286 282 257 
f 259 285 287 
f 260 261 660 
f 660 659 260 
f 654 644 262 
f 264 664 665 
f 264 665 742 
f 266 271 294 
f 267 268 297 
f 297 273 267 
f 267 273 711 
f 713 297 268 
f 655 271 269 
f 269 647 655 
f 270 275 298 
f 270 298 655 
f 655 647 270 
f 295 294 271 
f 655 295 271 
f 276 275 272 
f 273 297 299 
f 273 299 656 
f 656 648 273 
f 301 276 274 
f 656 301 274 
f 274 648 656 
f 275 276 300 
f 318 298 275 
f 275 300 318 
f 301 300 276 
f 303 279 277 
f 277 302 303 
f 657 302 277 
f 277 649 657 
f 278 279 303 
f 510 279 278 
f 303 284 278 
f 658 650 280 
f 281 282 305 
f 305 304 281 
f 281 304 657 
f 657 649 281 
f 282 286 305 
f 306 285 283 
f 658 306 283 
f 283 650 658 
f 308 287 285 
f 285 306 308 
f 307 305 286 
f 512 307 286 
f 287 308 310 
f 508 290 288 
f 288 290 743 
f 743 660 288 
f 289 312 336 
f 663 312 289 
f 289 661 663 
f 290 291 293 
f 508 291 290 
f 290 293 663 
f 663 507 290 
f 292 662 666 
f 746 662 292 
f 665 664 293 
f 294 295 314 
f 314 296 294 
f 667 314 295 
f 295 655 667 
f 296 314 315 
f 319 299 297 
f 297 316 319 
f 713 316 297 
f 318 317 298 
f 298 317 667 
f 667 655 298 
f 299 319 668 
f 668 656 299 
f 300 301 320 
f 320 318 300 
f 668 320 301 
f 301 656 668 
f 321 303 302 
f 669 321 302 
f 302 657 669 
f 303 321 689 
f 304 305 324 
f 324 323 304 
f 304 323 669 
f 669 657 304 
f 305 307 324 
f 309 308 306 
f 670 309 306 
f 306 658 670 
f 706 324 307 
f 512 330 307 
f 307 330 706 
f 308 309 328 
f 328 310 308 
f 309 327 329 
f 674 327 309 
f 329 328 309 
f 309 670 674 
f 310 328 333 
f 333 332 310 
f 662 462 311 
f 311 513 662 
f 338 336 312 
f 340 338 312 
f 345 316 313 
f 313 316 713 
f 313 343 346 
f 346 345 313 
f 347 315 314 
f 671 347 314 
f 314 667 671 
f 344 342 315 
f 347 344 315 
f 350 319 316 
f 316 345 350 
f 317 318 348 
f 317 348 671 
f 671 667 317 
f 318 320 349 
f 352 348 318 
f 318 349 352 
f 319 350 672 
f 672 668 319 
f 351 349 320 
f 672 351 320 
f 320 668 672 
f 354 325 321 
f 321 325 689 
f 673 354 321 
f 321 669 673 
f 322 326 355 
f 322 355 674 
f 674 670 322 
f 323 324 356 
f 323 356 673 
f 673 669 323 
f 706 331 324 
f 324 331 709 
f 709 356 324 
f 511 326 325 
f 325 354 511 
f 377 329 327 
f 327 674 678 
f 330 331 706 
f 331 358 709 
f 359 335 334 
f 334 336 359 
f 336 338 360 
f 360 359 336 
f 362 339 337 
f 338 340 361 
f 361 360 338 
f 362 341 339 
f 340 342 364 
f 386 361 340 
f 340 364 386 
f 363 343 341 
f 342 344 364 
f 363 346 343 
f 344 347 365 
f 365 364 344 
f 345 346 747 
f 346 363 489 
f 489 371 346 
f 346 371 747 
f 366 365 347 
f 675 366 347 
f 347 671 675 
f 348 352 367 
f 348 367 675 
f 675 671 348 
f 349 351 353 
f 353 352 349 
f 350 369 676 
f 676 672 350 
f 370 353 351 
f 676 370 351 
f 351 672 676 
f 352 353 373 
f 372 367 352 
f 373 372 352 
f 353 370 373 
f 681 511 354 
f 354 673 677 
f 678 674 355 
f 709 357 356 
f 677 673 356 
f 357 358 684 
f 709 358 357 
f 684 682 357 
f 359 360 385 
f 360 361 385 
f 386 385 361 
f 388 387 362 
f 391 390 363 
f 363 390 489 
f 364 365 392 
f 389 386 364 
f 393 389 364 
f 364 392 393 
f 365 366 368 
f 365 368 392 
f 394 368 366 
f 679 394 366 
f 366 675 679 
f 679 675 367 
f 395 392 368 
f 368 394 395 
f 369 371 396 
f 369 396 680 
f 680 676 369 
f 397 373 370 
f 680 397 370 
f 370 676 680 
f 371 390 407 
f 489 390 371 
f 411 396 371 
f 371 407 411 
f 372 373 398 
f 373 397 398 
f 374 448 610 
f 681 448 374 
f 374 511 681 
f 380 376 375 
f 375 376 681 
f 375 378 380 
f 610 448 376 
f 376 448 681 
f 377 683 685 
f 383 380 378 
f 378 382 383 
f 379 682 684 
f 383 381 380 
f 380 381 754 
f 381 685 754 
f 686 383 382 
f 382 611 686 
f 686 612 383 
f 505 415 384 
f 611 505 384 
f 686 611 384 
f 385 386 403 
f 403 399 385 
f 386 389 403 
f 387 388 402 
f 388 401 402 
f 389 393 404 
f 404 403 389 
f 390 391 405 
f 390 405 407 
f 391 402 406 
f 406 405 391 
f 395 393 392 
f 393 395 410 
f 426 404 393 
f 393 410 426 
f 408 395 394 
f 687 408 394 
f 394 679 687 
f 395 408 410 
f 396 411 688 
f 688 680 396 
f 412 398 397 
f 688 412 397 
f 397 680 688 
f 398 412 414 
f 419 400 399 
f 399 403 419 
f 400 419 749 
f 420 402 401 
f 401 417 421 
f 421 420 401 
f 423 406 402 
f 402 420 423 
f 403 404 422 
f 422 419 403 
f 424 422 404 
f 426 424 404 
f 405 406 428 
f 427 407 405 
f 428 427 405 
f 406 423 425 
f 406 425 428 
f 432 411 407 
f 407 427 432 
f 429 410 408 
f 690 429 408 
f 408 687 690 
f 409 413 430 
f 409 430 690 
f 690 687 409 
f 431 426 410 
f 410 429 431 
f 411 432 691 
f 691 688 411 
f 433 414 412 
f 691 433 412 
f 412 688 691 
f 413 414 437 
f 437 430 413 
f 414 433 438 
f 438 437 414 
f 415 440 740 
f 415 505 692 
f 416 440 441 
f 740 440 416 
f 416 441 693 
f 417 418 421 
f 490 421 418 
f 697 490 418 
f 418 693 697 
f 419 422 455 
f 455 449 419 
f 419 449 749 
f 420 421 452 
f 748 423 420 
f 420 452 748 
f 490 452 421 
f 422 424 459 
f 459 455 422 
f 423 748 761 
f 470 428 425 
f 426 431 465 
f 435 432 427 
f 471 431 429 
f 429 434 471 
f 690 434 429 
f 437 436 430 
f 430 436 694 
f 694 690 430 
f 471 465 431 
f 432 435 695 
f 695 691 432 
f 439 438 433 
f 695 439 433 
f 433 691 695 
f 434 690 694 
f 434 694 698 
f 699 695 435 
f 698 694 436 
f 437 438 476 
f 438 439 481 
f 481 476 438 
f 699 481 439 
f 439 695 699 
f 499 441 440 
f 440 498 499 
f 697 693 441 
f 696 692 442 
f 445 449 451 
f 749 449 445 
f 486 451 449 
f 451 486 503 
f 451 503 752 
f 485 458 452 
f 452 458 748 
f 760 485 452 
f 452 490 760 
f 692 505 456 
f 761 748 458 
f 460 482 501 
f 700 482 460 
f 465 471 712 
f 712 617 465 
f 467 481 699 
f 470 710 714 
f 476 481 521 
f 500 491 480 
f 480 491 703 
f 707 500 480 
f 480 703 707 
f 700 484 482 
f 484 700 701 
f 486 488 503 
f 613 501 487 
f 487 502 702 
f 702 613 487 
f 527 503 488 
f 528 527 488 
f 500 493 491 
f 491 494 703 
f 497 524 538 
f 703 524 497 
f 538 525 497 
f 497 525 707 
f 707 703 497 
f 705 499 498 
f 498 704 705 
f 705 615 499 
f 500 615 705 
f 502 614 702 
f 504 526 545 
f 506 618 708 
f 663 661 507 
f 509 529 708 
f 745 529 509 
f 509 549 551 
f 509 551 745 
f 708 618 509 
f 666 662 513 
f 514 515 520 
f 520 518 514 
f 619 520 515 
f 515 617 712 
f 520 619 715 
f 715 619 521 
f 531 523 522 
f 522 523 701 
f 701 700 522 
f 523 531 537 
f 537 532 523 
f 525 538 540 
f 527 528 547 
f 547 544 527 
f 527 544 757 
f 745 546 529 
f 535 531 530 
f 716 535 530 
f 531 535 553 
f 553 537 531 
f 532 537 554 
f 532 554 717 
f 533 534 536 
f 533 536 716 
f 556 536 534 
f 534 539 556 
f 535 552 553 
f 718 552 535 
f 535 716 718 
f 556 555 536 
f 536 555 718 
f 718 716 536 
f 537 553 569 
f 537 569 570 
f 558 540 538 
f 538 557 558 
f 717 557 538 
f 539 541 559 
f 559 556 539 
f 540 558 578 
f 541 543 561 
f 560 559 541 
f 561 560 541 
f 757 544 543 
f 543 544 758 
f 758 561 543 
f 544 547 566 
f 566 563 544 
f 544 563 758 
f 567 548 545 
f 545 562 564 
f 545 564 567 
f 723 719 546 
f 547 550 565 
f 547 565 566 
f 548 567 724 
f 724 720 548 
f 568 551 549 
f 724 568 549 
f 549 720 724 
f 723 565 550 
f 550 719 723 
f 551 568 599 
f 551 599 745 
f 552 718 721 
f 722 717 554 
f 721 718 555 
f 556 559 572 
f 575 558 557 
f 557 717 722 
f 558 575 578 
f 559 560 731 
f 729 572 559 
f 731 729 559 
f 560 561 733 
f 733 731 560 
f 561 563 735 
f 758 563 561 
f 735 733 561 
f 593 564 562 
f 562 588 593 
f 563 566 737 
f 737 735 563 
f 564 593 738 
f 727 570 569 
f 569 725 727 
f 727 620 570 
f 574 573 571 
f 571 573 727 
f 727 725 571 
f 729 726 572 
f 573 574 577 
f 573 620 727 
f 580 577 574 
f 764 580 574 
f 730 578 575 
f 575 728 730 
f 581 580 576 
f 576 580 764 
f 731 581 576 
f 576 729 731 
f 764 729 576 
f 582 579 577 
f 577 579 763 
f 577 580 582 
f 732 583 578 
f 578 730 732 
f 579 582 584 
f 579 584 732 
f 732 730 579 
f 579 730 763 
f 580 581 585 
f 587 582 580 
f 580 585 587 
f 586 585 581 
f 733 586 581 
f 581 731 733 
f 587 584 582 
f 734 588 583 
f 583 732 734 
f 584 587 590 
f 584 590 734 
f 734 732 584 
f 585 586 591 
f 589 587 585 
f 591 589 585 
f 592 591 586 
f 735 592 586 
f 586 733 735 
f 587 589 590 
f 736 593 588 
f 588 734 736 
f 595 590 589 
f 589 591 594 
f 589 594 595 
f 590 595 736 
f 736 734 590 
f 591 592 597 
f 597 594 591 
f 592 596 597 
f 737 596 592 
f 592 735 737 
f 593 736 738 
f 762 595 594 
f 594 597 598 
f 594 598 762 
f 738 736 595 
f 762 738 595 
f 737 621 596 
f 600 598 597 
f 598 600 601 
f 598 601 762 
f 599 622 741 
f 599 741 745 
f 741 601 600 
f 600 739 741 
f 741 622 601 
f 601 622 762 
f 659 660 743 
f 754 685 683 
f 726 729 764 
f 763 730 728 
f 745 741 739 
