v 15.700035794908374 -8.1173487356346232 38.597028429012937
v 16.494867503253115 -6.7423461383151686 39.515102555448287
v 13.535636196177514 -6.8661995131141094 38.597028429012937
v 14.45733268479346 -5.2717298254032272 39.661638320315362
v 14.836969156214289 -9.6103929327961968 37.351557719129183
v 17.570855832752596 -4.8809624866384169 40.514914556934428
v 12.672569557483429 -8.3592437102756829 37.351557719129183
v 15.428203217110024 -3.5921925226246745 40.534465419308965
v 14.041391136887441 -10.986686595290871 35.938008030895553
v 18.598380015439837 -3.1034183786588776 41.203686865945095
v 11.87142741531653 -9.7451629114555303 35.903439677673774
v 16.438283789421199 -1.8448246259385521 41.2065502330139
v 13.321462300727294 -12.232112525349544 34.370884852351523
v 19.641610125841641 -1.298704127397301 41.671001509206718
v 11.160313570112102 -10.975339531085078 34.377961261183302
v 17.477210527110781 -0.047554904876786264 41.671001509206718
v 17.406800951937573 -8.1620102180480618 37.338076800750329
v 18.262662154169238 -6.681430915966331 38.32664333293495
v 16.605382251146935 -9.5484078460721857 36.181568808708981
v 19.164185230233056 -5.1218598040982979 39.137126299787028
v 15.844643100604653 -10.864432731461564 34.821125515781276
v 20.102116444069786 -3.4993051908478523 39.761205729032696
v 12.684572690949663 -13.333886471275456 32.666267113675147
v 20.698721341379613 0.53002345324647515 41.923047441033845
v 10.520173092218801 -12.082737248754942 32.666267113675147
v 18.534321742648753 1.7811726757669897 41.923047441033845
v 15.198125716131859 -11.982862046157074 33.413800642678865
v 21.066834410880897 -1.8304113909156996 40.192480395472984
v 12.197389853216601 -14.176678297796144 31.042118023304127
v 21.763168973442401 2.3714425152072756 41.960103989591211
v 9.9728569845176267 -13.029555376093013 30.841648326600122
v 19.623033135506741 3.6645663265166792 41.956025703119359
v 14.60975354191125 -13.000704262629066 31.839038526518891
v 22.048437752144569 -0.13230708832590832 40.426523077778029
v 11.672764743593932 -15.084242604525208 28.845291221428937
v 22.82403370477169 4.2066634124965159 41.781792378346779
v 9.5207303263416101 -13.811702493253252 28.915748850350916
v 20.752701959640387 5.6188134344099465 41.74694067432138
v 14.095686912114484 -13.890003146587571 30.104987200693294
v 23.108919802080809 1.7022517972395168 40.448820692564539
v 15.711487519474247 -5.1002936632983147 34.334847986443933
v 16.517659046765822 -3.7056739818322053 35.266020224421951
v 14.845727679981902 -4.5998339742901084 34.334847986443933
v 15.651899207273477 -3.2052142928239991 35.266020224421951
v 14.964867329352652 -6.3918937464986545 33.222960625912094
v 17.37248153681222 -2.2268915783110255 36.003886810789552
v 14.099107489860307 -5.8914340574904482 33.222960625912094
v 16.506721697319875 -1.7264318893028192 36.003886810789552
v 13.659186984648638 -14.645117125677814 28.237278093137654
v 24.021941623820648 3.2817149252468747 40.295357911266727
v 14.287896389127724 -7.5630055571454147 31.945398574074972
v 18.26439264355157 -0.68394849303999905 36.538469392369734
v 13.415419665607207 -7.0741656020854986 31.946072524008763
v 17.398632804059226 -0.18348880403179324 36.538469392369734
v 11.332832403610043 -15.672301492316834 26.908334071974124
v 23.870427560692374 6.0168507195761336 41.389942695023677
v 9.1919345439825531 -14.38049592459847 27.042248549140535
v 21.836079081448347 7.4929791738023095 41.313356166708971
v 13.689729087045919 -8.597792651519006 30.519434702599206
v 19.186918056584272 0.91195517524067271 36.863192620178651
v 12.78065388087655 -8.1722654810042901 30.387687778292047
v 18.315572093022944 1.4027512649949001 36.862536559448422
v 13.346691359267695 -15.185712439174541 26.443982606864481
v 24.993593223542945 4.9626034193534627 39.931496930773662
v 13.221719448610475 -9.407416200332138 29.095948417241736
v 20.110901047822395 2.51038035064947 36.971709536104939
v 12.312694394673919 -8.9818022700044242 28.964354034698093
v 19.24514120833005 3.0108400396576762 36.971709536104939
v 11.083980083750689 -16.102798391928662 24.84000176642914
v 24.891611622872961 7.7834268678323237 40.788571923273857
v 8.9195804850198268 -14.851649169408148 24.84000176642914
v 22.727212024142101 9.0345760903528376 40.788571923273857
v 12.760987094638383 -10.204450562109214 27.30118858707408
v 21.040526392390866 4.1185663979545089 36.864509637640893
v 11.861808651995727 -9.7618026911853146 27.117420190913336
v 20.268976238003216 4.7820021740407848 36.831419753574629
v 13.130135776711793 -15.560338269211563 24.644088914239735
v 25.941833598539638 6.6029921517291452 39.373080396087985
v 10.941124795295083 -16.349927929672369 22.731975187031729
v 25.877107579647081 9.488265119736214 39.983852789843624
v 8.7795412827212491 -15.093907077422521 22.738158645324468
v 23.677610677103548 10.67869849084482 40.0125119352371
v 12.442971428805585 -10.754595154879679 25.552425223111065
v 21.957638432270191 5.7051053138379029 36.542386375667782
v 11.577211589313242 -10.254135465871473 25.552425223111065
v 21.091878592777846 6.2055650028461073 36.542386375667782
v 12.987812157129586 -15.806548057435766 22.606242258642027
v 26.856939493170344 8.1860605783272096 38.625843426759502
v 12.228709646512799 -11.125252872816487 23.741717334695032
v 22.905975012961719 7.3456604752562189 35.961376992754239
v 11.34660857499737 -10.653062358577284 23.572248564848284
v 21.91412280203313 7.62798928648645 36.051460818028829
v 10.90573266885459 -16.411153803362893 20.605885227300977
v 26.745030297493724 10.989709990118868 39.060412058296784
v 8.7555513027107406 -15.154146823923636 20.427183584856852
v 24.687684747186644 12.386812870543169 38.959561187288514
v 12.954948127797628 -15.863400502067002 20.632015733151732
v 27.729516015006773 9.6955562002163695 37.69745029508811
v 12.132498182870609 -11.291691895078719 22.08933852421216
v 23.70504565441459 8.727996126821429 35.273642481800692
v 11.255338300802009 -10.810953472833445 21.893549082096783
v 22.839285814922246 9.2284558158296353 35.273642481800692
v 10.978168516128733 -16.285844914581389 18.483550245627868
v 27.70105989487503 12.643573525899471 37.79940507732357
v 8.8156450515167855 -15.031450112827759 18.467411150068237
v 25.53666029614417 13.894722748419985 37.79940507732357
v 13.02220923707636 -15.747043543750074 18.661276501196593
v 28.550611875666668 11.115993922066691 36.597431460400628
v 12.121552667392363 -11.310626862133482 20.181831974052557
v 24.511713318173459 10.123474089259467 34.344182561434714
v 11.267370514014139 -10.790138595615431 19.836569941489973
v 23.645953478681115 10.623933778267672 34.344182561434714
v 11.157687415021652 -15.975289925828186 16.386746587190679
v 28.520801495200075 14.061668473224934 36.442093680166991
v 8.9932878162907901 -14.724140703307672 16.386746587190679
v 26.356401896469215 15.312817695745448 36.442093680166991
v 13.188906350352667 -15.458669336588777 16.714244971336861
v 29.311795699618902 12.432788060981345 35.337064619243165
v 12.249864840126246 -11.088655885227929 18.019456455365273
v 25.258924030890068 11.416095734752043 33.233882785147685
v 11.364425971932798 -10.622239522992746 18.184977043453102
v 24.393164191397723 11.916555423760249 33.233882785147685
v 21.397517127455938 -1.2583536969338649 25.51695075063304
v 18.800237608978907 0.24302537009075253 25.51695075063304
v 21.022494147382535 -1.907116908367998 24.991653083275224
v 21.812492791633588 -0.54047516984678623 25.904144756155642
v 18.425214628905501 -0.40573784134338053 24.991653083275224
v 19.215213273156554 0.96090389717783142 25.904144756155642
v 20.698819613530002 -2.4670509422784357 24.344210206878707
v 22.254812938782479 0.22470737734049617 26.141467661284146
v 18.060039529785115 -1.037464915760927 24.247466506320755
v 19.705980495625326 1.8098964555888686 26.149988745203125
v 20.436327927018386 -2.9211429808055338 23.594296964000975
v 22.711036902166082 1.0139425425029691 26.221710331294055
v 17.839048408541352 -1.4197639137809159 23.594296964000975
v 20.113757383689048 2.5153216095275868 26.221710331294055
v 11.442447697235297 -15.482674792905787 14.336991709896147
v 29.267611004975585 15.353596066026515 34.926030949914981
v 9.2780480985044349 -14.231525570385273 14.336991709896147
v 27.103211406244725 16.604745288547029 34.926030949914981
v 20.242994206369065 -3.2555966333854678 22.764699404794253
v 23.167302689347025 1.803250059874554 26.142435757975857
v 17.645714687892031 -1.7542175663608504 22.764699404794253
v 20.570023170869995 3.3046291268991714 26.142435757975857
v 13.453326703224725 -15.001240841768947 14.810899924012677
v 30.005265150611912 13.632441127493779 33.929294763270583
v 12.434072810323801 -10.769989135009746 16.470080618749147
v 25.936573126067557 12.588380705466991 31.957754459628426
v 11.579650235289769 -10.249916780939225 16.374722727414724
v 25.070813286575213 13.088840394475197 31.957754459628426
v 20.124692596745657 -3.4602500446566551 21.880618135003992
v 23.609749726684239 2.5686521181063586 25.906049866720856
v 17.527413078268626 -1.9588709776320377 21.880618135003992
v 21.012470208207208 4.0700311851309756 25.906049866720856
v 20.085018868436574 -3.5288827865284431 20.968924751496612
v 24.0249298631668 3.2868843678084074 25.519737592434662
v 17.489647948187933 -2.0242019796591193 21.012783910964686
v 21.426589030347866 4.7864274361412704 25.538493807859844
v 11.862032574143619 -14.806626910107212 12.367851163616594
v 29.933833005157254 16.50611297120745 33.266779210922522
v 9.665129020809804 -13.561902972349907 12.35531674780756
v 27.826109274837648 17.855307434566562 33.091950570846429
v 13.812758145689372 -14.379449886830333 12.970772987148496
v 30.579075056851337 14.625091651074341 32.500197485624192
v 12.764353563373513 -10.198626809475792 14.626638006475524
v 26.599500458150462 13.735198068033373 30.338844525503987
v 11.89859372388117 -9.6981671204675859 14.626638006475524
v 25.669738139736051 14.124937998596119 30.533063538907093
v 20.125177090114921 -3.4594119054202266 20.057314938750782
v 17.541731156944849 -7.9285905137332691 15.169853128358884
v 17.522925888964945 -1.9666334975245494 20.013675079954677
v 21.802950866591484 5.4375067739857537 24.995235479694749
v 20.255130099800517 -3.1847188306410241 19.033149154191214
v 24.724249858846502 4.496658462527785 24.348481501093978
v 17.646668118933025 -1.7525681981436989 19.173487216231379
v 22.126970340369468 5.998037529552402 24.348481501093978
v 14.263512243694343 -13.599677201616318 11.212747299681554
v 20.43772262899974 -2.9187302450946704 18.344298226005151
v 24.987140579295136 4.9514408015223346 23.599124960591311
v 31.161350654696029 15.632387221931129 30.730675528958244
v 12.314955944318132 -13.973297281507865 10.46205812412591
v 30.512627745499714 17.50738690496015 31.481365062470552
v 13.188688989533329 -9.4645565566426733 12.94619820738718
v 17.864085156773548 -1.3764521114380055 18.264173312579352
v 22.389861060818102 6.4528198685469516 23.599124960591311
v 27.085091242525046 14.575235754929285 28.830092871918421
v 10.150556345587271 -12.722148058987351 10.46205812412591
v 12.321004340330166 -8.9674266521963233 12.952039136928109
v 26.121131170043327 14.905815991469552 29.163286766509394
v 28.361009222606732 18.780646484036797 31.405674325642913
v 20.700612936242369 -2.463948620917265 17.594941208226931
v 25.187490061282944 5.2980312246428962 22.721008334247532
v 18.103333417765334 -0.96256955389264753 17.594941208226931
v 22.583635639201777 6.7880361738034534 22.76993549308953
v 21.02463199681435 -1.903418580167751 16.948186752350615
v 25.299685291767943 5.4921210322136087 21.886107293294579
v 18.427352478337315 -0.40203951314313358 16.948186752350615
v 22.702405773290913 6.9935000992382257 21.886107293294579
v 13.676784550049295 -8.6201857843099994 11.46504827231051
v 27.473040083371391 15.246359790609347 27.277929120030375
v 12.871138759856185 -8.015733044881129 11.310233550803622
v 26.600190497363606 15.734554719957464 27.316787070064564
v 14.80096377947326 -12.669924085490234 9.5548618980296531
v 31.6121048560025 16.412160085849429 28.972649960810191
v 12.901418734713259 -12.958758163907941 8.6575441240937359
v 30.998054456924514 18.347140757266011 29.588105730333005
v 10.713828944732565 -11.747726330849982 8.7245227551451343
v 28.833654858193654 19.598289979786525 29.588105730333005
v 21.374809270079954 -1.2976366829342165 16.458797662158275
v 25.339844339858303 5.5615933429561082 20.974498435099854
v 18.802653826651039 0.24720525564387197 16.423685594161803
v 22.742564821381269 7.0629724099807252 20.974498435099854
v 21.82819470675777 -0.51331196806209078 16.030384422212911
v 25.300170611549216 5.4929606010843202 20.062805051592473
v 19.191068443914148 0.91913505155731756 16.062277807575143
v 22.694937981276894 6.9805813476236267 20.003370550260275
v 14.225925083902666 -7.6702115288613442 10.146961472926799
v 27.796824612460103 15.806484108492919 25.468351227400678
v 13.427970999177905 -7.0524526833904559 9.985668488330262
v 26.902689623823857 16.257856797872687 25.658829918031223
v 15.419598006032214 -11.599730660418253 8.0141283636664422
v 31.988341096333063 17.063022151653993 27.011559794443791
v 22.257560518947848 0.22946049655311085 15.800987428620608
v 25.181869001925811 5.2883071898131337 19.178723781802212
v 19.660281000470814 1.7308395635777283 15.800987428620608
v 22.584589483448777 6.7896862568377507 19.178723781802212
v 13.598621219323972 -11.752647213460664 6.9389293279197997
v 31.349363418108876 18.954880394498225 27.78955984611575
v 11.395570929747652 -10.568360950410369 7.0173919490553924
v 29.220734237487939 20.267909908521926 27.606431189074229
v 22.713826306128794 1.0187680139246957 15.72171285530241
v 24.988535281276491 4.9538535372331989 18.349126222595491
v 20.11654678765176 2.5201470809493132 15.72171285530241
v 22.391255762799457 6.4552326042578159 18.349126222595491
v 23.17004979179805 1.8080023526751603 15.80195717661816
v 24.726043117050523 4.4997606722940926 17.5992146310236
v 20.572770273321016 3.3093814196997777 15.80195717661816
v 22.128763598573492 6.0011397393187096 17.5992146310236
v 23.612370177804113 2.5731853130684454 16.039279256093749
v 24.365027881897127 3.9153330159325632 16.923805547536553
v 21.015090659327083 4.0745643800930624 16.039279256093749
v 21.81276671717184 5.4544875007247438 16.967128012178286
v 24.032543914762055 3.3000561381463087 16.433753099311676
v 21.430066562361901 4.7924433203861465 16.426472435963426
v 14.971380728005579 -6.3806260278468621 8.7095421816527985
v 28.003932630848585 16.16476632121805 23.693549807339885
v 14.105620888513235 -5.8801663388386558 8.7095421816527985
v 27.137290909069915 16.66370041629046 23.708556952204621
v 16.113066101248116 -10.400079939304257 6.6063591447891561
v 32.235955450514346 17.491377458265855 25.229178792695453
v 14.306783027458572 -10.527577409017002 5.5013293668601548
v 31.669897107636999 19.509380990036114 25.556676459836467
v 12.142383428727712 -9.2764281864964886 5.5013293668601548
v 29.505497508906139 20.760530212556628 25.556676459836467
v 15.718590407707172 -5.0880061693971435 7.5992412121769028
v 28.108711515149004 16.346026374817747 21.910509236236582
v 14.852830568214827 -4.5875464803889372 7.5992412121769028
v 27.242951675656656 16.846486063825953 21.910509236236582
v 16.874252436690554 -9.0832814556893133 5.3459941029942968
v 32.402655075280855 17.779756010127446 23.282149062198336
v 15.126522400372544 -9.109486314955042 4.1440164984679022
v 31.849413779118841 19.819932125525817 23.459871330163608
v 12.859540151424977 -8.0357978165186559 4.3138714009083792
v 29.691358186069706 21.082056028847564 23.27399712555922
v 16.525256831848033 -3.6925303514105283 6.6697798599842706
v 28.109204345968266 16.346878937252555 20.04987325968818
v 15.659496992355686 -3.1920706624023221 6.6697798599842706
v 27.243444506475925 16.847338626260761 20.04987325968818
v 17.695346780082094 -7.6628463586058473 4.2459724142328028
v 32.469914667291235 17.896110343677524 21.311406976169181
v 15.982053243053024 -7.5919457253900298 2.976072424469475
v 31.921850401154245 19.945242354589457 21.337537243382158
v 13.846377772583921 -6.3286385801918996 2.9593770376959725
v 29.757450802423385 21.196391577109971 21.337537243382158
v 17.380470273965475 -2.213071628477993 5.9337271207372293
v 28.001593872764829 16.160720435270235 18.201706200278803
v 16.51471043447313 -1.7126119394697867 5.9337271207372293
v 27.151195303431074 16.687754034383477 18.351246616120481
v 18.666767533024181 -5.9823572130897062 3.2368689862352795
v 32.437050573450946 17.839257787451427 19.337182579260286
v 18.209333396667358 -0.7791970930611396 5.4388497033732026
v 27.787332090472042 15.790062717333431 16.390998311862763
v 17.406905247515095 -0.16917806237594357 5.4010371593060462
v 26.922861884248739 16.292753380616947 16.401896891667462
v 16.95047535480608 -5.9541768030113662 1.9595706258113204
v 31.886458139158076 19.884016246397213 19.211448228623215
v 14.747310938329889 -4.7700879714199527 2.000815061809071
v 29.719617385991803 21.130942444529161 19.175425282681438
v 19.483028131280051 -4.5702841529589069 2.570342184334752
v 32.278901934826166 17.565671836377003 17.16781193016595
v 19.189778017807118 0.91690270572839649 5.078912723302647
v 27.469317315559604 15.239919665792122 14.642233773869462
v 18.324018178314773 1.4173623947366023 5.078912723302647
v 26.603557476067259 15.740379354800329 14.642233773869462
v 17.981900520140531 -4.2110990564039348 1.1597980723439463
v 31.743604313050575 19.636889238412223 17.103422787544886
v 15.771573175197437 -2.9981867988282516 1.1548526307001694
v 29.579204714319715 20.888038460932737 17.103422787544886
v 20.119401874312299 2.5250861787892669 4.9717160630011996
v 27.05184868796843 14.517728488451368 12.979071564408047
v 19.253642034819954 3.0255458677974727 4.9717160630011996
v 26.186088848476082 15.018188177459574 12.979071564408047
v 20.43126992024359 -2.9298929745206652 2.0119283844042037
v 32.061935084972291 17.190334543023951 15.394251348441475
v 20.917591758962068 3.9058981834250055 5.0654552104149104
v 26.590336623281743 13.719345282325904 11.575341833339701
v 20.140435681157683 4.55963610878708 5.0758608059229537
v 25.689817901149716 14.159674564598053 11.469619619960136
v 18.957156032362953 -2.4827612635161525 0.55348368444487406
v 31.494751189445289 19.206390948376818 15.035092307494427
v 16.792756433632093 -1.2316120409956377 0.55348368444487406
v 29.330351590714425 20.457540170897332 15.035092307494427
v 21.96591105007489 5.7194163571048877 5.4049554455325737
v 25.942407304498737 12.598473421210308 9.9980262638273398
v 21.15617493483769 6.3167931237203234 5.4385341570215893
v 25.076647465006396 13.098933110218514 9.9980262638273398
v 21.402920454696698 -1.2490063232543718 1.6480672750129486
v 31.746187807410955 16.644114101406796 13.595107182499586
v 22.83603565528237 7.2246703367723999 5.926478487176368
v 25.265436722559571 11.427362230372552 8.7204629735108341
v 21.992062675607659 7.7628197511931294 5.9395367886333723
v 24.399676883067226 11.927821919380758 8.7204629735108341
v 23.712645005146399 8.7411424657060977 6.6774033750009849
v 24.518816532437974 10.13576214717221 7.6085756129790028
v 22.846885165654054 9.2416021547143039 6.6774033750009849
v 23.681066505350341 10.684676829108557 7.6472419921759105
v 22.304601898571796 0.31083875371791403 1.4965075156349066
v 31.326357692716371 15.917837718522989 11.806769469195583
v 20.003550168983086 -0.67257347084635688 0.16162826684182008
v 31.142453948682306 18.59694165742393 13.027671794837687
v 17.766228116347506 0.45242506786373182 0.18893638873151275
v 28.978054349951442 19.848090879944444 13.027671794837687
v 23.280108972205003 1.9983969448002832 1.5258355359487226
v 30.81813467703693 15.038647873376972 10.112483216209625
v 21.064413710820549 1.1626453687062162 -0.016681138306154253
v 30.690326101014463 17.814792482527018 11.101774524684938
v 18.900014112089686 2.4137945912267309 -0.016681138306154253
v 28.5259265022836 19.065941705047532 11.101774524684938
v 24.378682173275759 3.8988508257401597 1.7601756460644076
v 30.226737551877306 14.015572705886239 8.5296223375043674
v 22.12886175129529 3.0040651371907945 0.020377809694931415
v 30.143010401725245 16.867975061712727 9.2771581370536254
v 19.961721321348357 4.2504729157032877 0.040104902233807138
v 27.978610802994382 18.119124284233241 9.2771581370536254
v 25.322746226796447 5.5320148175620076 2.1822193152828504
v 29.615643781797317 12.958423736810035 7.1994098869270271
v 26.260678515490461 7.154571290239474 2.8062950290903608
v 28.819481494576582 11.58111933221336 5.7618525201684037
v 27.302894394593714 8.9575309931417628 3.7876919781959231
v 28.018061280659559 10.194719086587689 4.6053459473281144
v 23.185973354976174 4.8327933892943289 0.27242239983605288
v 29.506121180090521 15.766201787246574 7.5725390566912516
v 21.021573756245314 6.0839426118148427 0.27242239983605288
v 27.341721581359657 17.017351009767086 7.5725390566912516
v 24.224900201959812 6.6300632994270838 0.73687139263755697
v 28.78619245322443 14.520776046258888 6.0054135947559022
v 22.060500603228952 7.8812125219475977 0.73687139263755697
v 26.62179285449357 15.771925268779402 6.0054135947559022
v 25.23497998411851 8.377429829205342 1.4089570320504627
v 28.04122239574351 13.233778514930421 4.6831297142712351
v 23.07058038538765 9.6285790517258558 1.4089570320504627
v 25.802428501620721 14.354482932844698 4.5575404516037032
v 26.205850034988583 10.056966299115544 2.2817857952507374
v 27.127546523604529 11.651435986826424 3.3463956865531586
v 24.041450436257723 11.308115521636058 2.2817857952507374
v 24.963146924873669 12.902585209346938 3.3463956865531586
v 16.204115638208755 -10.2425706848404 27.681854434882844
v 22.002718635155222 -0.21139792472247798 30.63885337115558
v 17.613586247595318 -7.8042862928048198 27.352974880972717
v 19.117027736635432 -5.2034389302190274 27.822275062711761
v 27.249546592847079 8.8652430720726976 12.538168477616074
v 28.38081942823807 10.822265005909399 11.22556946514085
v 16.84192830251822 -3.1447111211293639 30.104292170476391
v 17.81692054860358 -7.4525323440440943 18.385303601281361
v 29.992929333892 13.611101037696331 18.602571210660123
v 20.692526239338203 -2.4779380341857897 30.10255322191167
v 22.47466336922075 0.60503306100497967 34.841057898342498
v 30.299231535349421 14.14098216617535 20.648974934575619
v 24.636888993810373 4.3455303494094668 30.211028709838196
v 15.264947116605189 -5.8727769541721617 12.359159451683434
v 15.732552108283105 -11.058342214387469 29.911427074394187
v 17.534560309209759 -7.9409955727630184 9.8080752347459992
v 24.475205343001345 4.0658290774641372 11.727891503739404
v 19.73856545328632 -4.128222672796765 7.9608078982613097
v 28.554586160449968 11.122869153442283 29.229657610742727
v 25.339375203667124 11.555270569329563 21.848408826644292
v 26.828157039241709 8.1362689702501765 18.007099968613957
v 29.700067120728356 13.104470137684377 23.319120839317648
v 14.131438726310721 -7.8336662397595056 19.693099516386098
v 14.908255560010783 -12.484316899262915 14.503784704013977
v 16.343637059973794 -10.001208500500592 11.149683606030894
v 18.373173756351864 -6.4902536661916628 6.7847950302458866
v 26.227744077717137 7.0975970439881753 14.475857013503175
v 23.610337013997352 2.5696680835898982 32.602995047864013
v 29.022084942835193 11.931608957446882 19.009192671276811
v 24.518889967387924 10.135889184437902 25.862134909328127
v 30.025589935000134 13.667601565898993 27.077027835390179
v 18.558375223832236 -0.17537943721508453 28.134547326159641
v 19.337651087982287 1.1727126506888115 29.563445095613176
v 25.88047922351112 6.4968534255869645 26.253559827233101
v 28.5412498233737 11.09979823424508 32.348217500746536
v 19.816045051668215 -3.9941884515951025 15.48449442540424
v 18.43199296055311 -0.39401180736272678 30.993953616961853
v 26.756988009555101 14.007640385008656 24.395769737105688
v 18.482788156044496 -6.3006285132207811 25.273096483680256
v 25.191086147232461 5.3042521988049263 27.848785171666467
v 27.108653690157798 8.6215083228072462 6.6558625665136795
v 26.575212151098267 13.693181015957272 21.810126947506841
v 21.309574672303629 -1.4104879197882831 36.943885995245402
v 26.416541029319728 7.4242024072293749 8.9084281071373255
v 20.460566388803173 3.1152766412647752 29.002847262744677
v 19.496069442588123 1.4467651913199913 10.315860075902952
v 14.134315980560775 -7.8286887935587117 14.378861220914077
v 18.111241821771266 -0.94888857471851074 11.006396506748366
v 29.621301969078257 12.968212000320069 30.879088453028761
v 22.987477185496882 7.4866534650255971 26.333454538199323
v 23.207332971618445 7.8669884136431012 32.170496751051488
v 26.528559748571659 7.6179868628603256 23.713404168657085
v 18.963207610228331 -5.4695368615285762 16.623161131013052
v 14.362794379968719 -13.427926133042336 25.754937432176092
v 13.465169920430268 -8.9862641154864313 17.907992853148645
v 26.362046643728284 7.3299309772638939 28.720299977779234
v 22.064244873734467 5.8895269119767484 27.454950276695044
v 24.937018045496139 4.8647323657185151 14.428198351667323
v 16.418654327387966 -9.8714339375895221 32.434171157897161
v 18.444184937542754 -6.3674093488964498 13.522894184236009
v 16.105829731985487 -10.412598345939037 16.880307734072083
v 16.998307488858028 -8.8686749960450371 24.515250084158847
v 19.926884591672113 -3.8024438926010515 36.012508684851859
v 13.317921067324828 -9.2409942090982415 23.87412772918794
v 16.108477198418935 -4.4135296176178329 10.28324151743278
v 23.387700231783842 8.1790110073507574 24.659740903829793
v 15.604123558084737 -11.280514516069394 13.076133497824337
v 27.0009770223865 8.4352353089077763 25.37031660687752
v 15.346698068912008 -5.7313535930064319 19.839702491200761
v 19.783085822830476 1.9432832141456429 6.5941211964397475
v 17.075288721701025 -8.7355029119514018 30.253635802822686
v 15.582074181504378 -11.318658376900521 24.931366477758871
v 23.034776456736054 7.5684778564311923 8.4273480535244722
v 23.162312323837547 1.7946170807607777 28.39510317882587
v 21.107265389687555 -1.7604686592812326 33.383917336858659
v 24.050752442954821 9.3260444019005799 10.481243464423942
v 25.078011415854863 5.1086409169410114 34.915565304961063
v 16.522262527525736 -3.6977102859515081 14.674950368464049
v 26.079353172304533 12.835380079498108 13.498978899709737
v 23.152410699665079 1.7774879717784799 10.708626009859021
v 19.848966906199045 -3.9372359734626747 32.283840276023831
v 18.83667374986695 -5.6884314838984888 23.126275611025829
v 20.7604895340131 3.6341224539446642 7.8341868583791161
v 24.206979670144165 3.6018176484102558 38.269613505189042
v 27.762597122171844 9.7527841741341437 34.036976077276307
v 15.293900985124406 -11.817177609764906 19.522392231354225
v 28.810370911196188 11.565358667811555 8.9119061214231898
v 15.091312973208534 -6.1731517324392957 29.363012737118304
v 26.424685899397609 7.4382924559709345 35.792271402949396
v 26.908560833723122 8.2753618437296694 30.853307688418333
v 18.89817474353621 -5.5820391178854809 20.840544517868103
v 24.903624568103584 4.8069640134167244 4.7153731917736792
v 26.797418069789064 14.077581527577376 19.086123595099728
v 22.205591970668245 0.13955858635857976 8.3704156564111276
v 19.642628864731005 1.7003026181644372 31.436934312399785
v 28.507995427224717 11.042270482650512 17.211467468189753
v 14.188172331394599 -7.7355211185638719 28.01405896734682
v 25.737102413441281 6.2488216923638848 32.549490469323771
v 18.371932046142678 -6.4924017369654212 30.655932496447647
v 24.092593485893289 9.3984264446788686 12.795256836614268
v 14.293095292682594 -13.548500620752197 17.134995518048097
v 17.344300927033828 -8.2701308373853912 12.60261791388281
v 25.457047590006976 11.758835468856571 29.023375103663788
v 24.400230385068518 3.9361277069611362 24.995235479694749
v 15.482006542750803 -5.4972795103869441 16.845937590643743
v 15.238032089601177 -11.913826844624687 11.19758496114688
v 17.115916384222245 -2.6707311326332204 16.197424851172407
v 22.073901217251958 5.9062317027868829 34.117038976317787
v 20.649938029787769 -2.551612622318395 14.128827393735236
v 19.006005419878822 -5.3954996800583483 34.365846687003867
v 23.87068969081071 9.014548585516696 22.604488490801327
v 25.398069596953725 11.656807715331496 26.241905986036492
v 18.224809679176133 -0.75242421973084195 14.431375417196566
v 19.090619245742445 0.74536504850549989 13.21887474293748
v 21.33553096691605 -1.3655853672929967 11.701790812192836
v 24.094253262915924 9.4012977414491576 18.748748339631167
v 24.504703527938791 4.1168588495270368 9.7500737317813293
v 19.603614245313739 -4.361678710754946 30.204262080737568
v 20.36580655852714 2.9513488419795184 13.326840447437277
v 21.581314565832525 5.0540916610702205 13.769018539777264
v 27.363836612486249 9.0629567166111364 27.787475484374134
v 29.910627104161783 13.468724005607484 12.166162758259279
v 19.653315599352439 -4.2756988861253706 4.9945310141524946
v 27.370491369214548 17.067120706433048 12.812586711693417
v 11.185660230872468 -10.931491602004018 28.969001516087154
v 22.078348479576654 5.9139251518317799 7.7822497005906435
v 19.611824923529799 -4.3474748185922305 11.519564995451498
v 21.959524645211122 -0.28612047005904628 28.552905008002867
v 27.663801694331021 9.5818750767010314 17.389460244663628
v 17.56409237818362 -1.895418384936649 26.893791916856845
v 15.877193136182107 -2.8154717420961277 37.565671722094216
v 15.50132318706207 -5.4638630829588042 31.243727180720001
v 16.301852444614273 -4.0790041287824579 32.277716998878105
v 23.717119376914351 2.7543940133902458 4.4699679885014199
v 16.562238132918402 -3.6285553180919563 19.852613932372577
v 30.810390853729782 15.025251607162721 15.652093464714055
v 26.768407008213767 16.025557377378707 31.626056184435775
v 11.989186114410931 -9.5414486969723669 10.535854826945023
v 27.466440019718632 17.233105080568244 29.364757475927714
v 17.607792264595496 -1.8198206745181427 33.04652395261089
v 24.886860409460944 10.772452004309377 17.116945632687411
v 30.460555804099538 14.4200617325958 29.242239155640846
v 28.903009848943821 11.725617473139259 14.175128511255554
v 23.783428953120669 10.861756618546364 5.0370395317148198
v 23.726357325565687 2.7703750106958847 7.0946362947608925
v 16.727621201878108 -1.3442913816641719 3.2506612232754364
v 20.089656804132911 -3.5208594860464539 26.187534031181428
v 23.062993881894663 7.617292004728764 16.216554810176994
v 20.43560207682075 -2.9223986502718318 27.672485846425413
v 19.274644825474649 -4.9307725226505781 18.654615845070573
v 27.952577388641778 18.074088320045963 14.917009305251051
v 17.899511674653155 0.68299618993421873 2.76570818020231
v 20.490638974750031 5.1654630193441715 39.378642666886385
v 10.750072233626051 -11.685028006360985 27.224893265583034
v 16.758655697678549 -3.2887668334745022 24.883534870233891
v 21.282905569016712 -1.4566235808379155 27.596226980023811
v 27.516153408934549 9.3264539934975215 9.3661650857434839
v 23.002694211753248 9.511140776315619 4.1310711665667164
v 13.583340486437999 -6.7836744674688489 35.367131372741071
v 24.689930824114356 12.42994069324441 6.2313718941354175
v 19.427668676372516 -4.6660520916116948 25.044387620183361
v 23.443746784751077 2.2814787782353112 30.20455221786262
v 18.891341487822892 0.4006286321664847 33.534615125705791
v 10.229657245056252 -12.585309101660576 23.878390270900436
v 15.650393095274175 -3.2078197599803198 3.9466488732742739
v 22.495035419314551 8.6329269974404159 38.21997854145809
v 28.318590387272426 18.707264901309806 17.979652363155523
v 14.964972003811909 -12.386201465871764 28.031536178364533
v 14.408124419732923 -7.3550195739276329 25.716864822359113
v 27.847315961567187 17.891993501601277 27.471703546394011
v 15.430393982864107 -5.5865655858585725 23.580859832107414
v 14.167423392992383 -7.7714153133917048 22.707341630055563
v 21.497749120840759 4.9095293559891591 30.883682495129797
v 21.202908475817079 4.399475908892569 27.870242500750603
v 21.998928139889038 7.7746965184629708 3.4914230822428216
v 16.732068657089641 -1.3365975989387038 38.0624983063001
v 28.288954046932297 18.655996130178892 20.516986228001553
v 23.732549320963759 10.773738456170706 37.302430213523934
v 14.779135049931529 -4.7150345108568779 4.7518646738589716
v 10.071681520625914 -12.85859592341747 21.020338052946336
v 24.664667284306809 10.388073624602171 31.295764876225803
v 18.458376492494452 -6.3428589633070018 35.963299828748511
v 20.826910298997479 5.7471886090381172 3.0910431077053282
v 17.639851894650921 0.23380314922626377 38.652331012287874
v 12.384442455644368 -8.8576832028468608 32.95337225909315
v 26.013916651795228 6.7276907318292736 11.517924792932302
v 13.815412531862609 -6.3822062549228136 6.0557477729129339
v 10.135208329519383 -12.748699040453598 19.087322747840563
v 28.534568306513446 19.080891414699039 22.868017944948431
v 24.542286631978914 12.174526691092757 35.708727156892223
v 22.172289246642933 6.0764360297373816 10.30127610162557
v 17.768622048048744 -7.5360853314404324 33.367144529400463
v 22.760691650345802 1.0998417422952642 37.805391212684782
v 18.558730025455084 -6.1692544542991605 10.213822544234768
v 18.830848259307864 -5.69850917023801 32.824248167788738
v 18.902320048201844 2.4177836974868101 39.243696520008157
v 11.603570780299174 -10.208535931166981 31.176988202324885
v 26.826712789835341 16.126422252706039 10.350572214010199
v 19.622407611096882 3.6634842135621857 2.6966015111372563
v 16.391792605900619 -3.9234140157136248 22.254821112570195
v 12.840216371851604 -8.0692265874452094 8.0413456754134653
v 10.178856894111792 -12.673190113150211 17.285861815321894
v 28.21385817785017 18.526085591945684 24.926743901602102
v 25.606314092833724 14.015218886603437 34.189899199446089
v 20.631773746912906 3.4114532527531818 33.134769662865622
v 25.402071501191095 13.661893659333987 7.4645969121898474
v 22.342093560198602 6.3701854734546188 14.986105451287695
v 20.872087217215245 -2.1673102517683946 9.0493867497484608
v 10.781861372345485 -11.630035046408748 13.490977377141544
v 14.656197306462282 -12.920359837241264 22.426738602275975
v 14.6865537227962 -4.8751936539029757 36.653373351869206
v 13.108704366450784 -9.6029242932710357 21.505680002195291
v 23.332265890417712 8.0831135204250586 29.437468360876949
v 15.854212119803204 -4.8533902067636152 27.353462293374413
v 25.91068220582477 6.5491024472252057 5.3615667603590325
v 24.565985820042297 4.2228728773109676 32.906220330837179
v 24.264092317392922 3.7006184857225604 27.946353490504713
v 29.187391690392872 12.217577930324916 20.775585586463741
v 26.45592984176912 7.4923422648302154 20.739908561616335
v 25.439613523258725 11.728675767363775 24.095558916918002
v 19.736349216198469 1.8624321926850929 27.954972897084104
v 22.479390779122927 0.61321114553009815 32.490560152629392
v 16.837504200918897 -3.1523645037586774 17.89462896038463
v 15.704474428099358 -11.106914613769669 9.7062375154357721
v 15.914879173036315 -10.742929297457687 22.454114288117047
v 14.629913547863016 -12.965828879255925 12.856988881497788
v 26.413388448277772 13.413237463944968 26.606334937688828
v 23.929851561841645 3.1224056361495194 35.822737675467678
v 21.568854737851595 -0.96195175821005874 13.909536088374043
v 23.089524828866338 7.6631886651317203 13.411497067505163
v 31.285161606876798 15.846571405875782 18.898866905489118
v 16.908154233503353 -3.0301449479905256 12.455148158817661
v 16.258850684880905 -10.147882928239273 14.196262089929423
v 21.004317741271652 -1.938560804415435 6.1141033237720244
v 16.432425512006731 -9.8476107629222689 20.446702377167533
v 18.876832565650783 0.37552922374894582 7.83334859744566
v 25.665212725334623 12.118946419063812 15.722593131904187
v 22.538321837555181 0.71515770548287394 4.8619639394851042
v 18.985973918129936 -2.1582913778763806 18.490317148734857
v 21.86866293010851 2.5539395933868629 26.142435757975857
v 19.989672178977674 -0.55696774801812055 25.448717119907965
v 19.725992237575831 -1.1527290466554425 16.948186752350615
v 21.463418763884253 1.7454280994865499 26.220935732754143
v 19.295534299607215 -1.7313708967266868 17.693299346456037
v 25.095662142920247 11.133664224226024 12.179016605723369
v 25.236089126200355 5.3821041671125709 7.9040507615323659
v 17.209155503343109 -8.5039228547893835 21.8022372915771
v 28.263967026898754 10.620118622394861 25.469982817648582
v 27.773135802691161 9.7710153455057025 19.524972871364465
v 27.415819171584559 9.1528828645303477 15.425248047963116
v 21.339213676484931 -1.3592145404006843 3.7505479706803655
v 25.238002906212948 5.3854148710771739 37.130342518252093
v 14.069783775297211 -13.934813739859759 19.957385576525166
v 27.998460342306672 10.160810850589854 22.594276143181752
v 31.288091533808508 15.851639972087675 22.117769161025834
v 16.838669529297071 -9.1448373669250511 8.1683708529519752
v 25.78407227379331 6.3300762262503945 30.291071461771708
v 29.629079649037809 12.981666836146605 16.632317927185568
v 26.826116013886192 14.127226939627505 16.796568442865876
v 22.657700110515837 0.92167366812136864 13.400565327896507
v 25.623850921531471 12.047393426069119 17.876024828726507
v 23.661777309451363 2.658656153785846 13.946992481726332
v 30.96223380555368 15.287929166387565 25.077259235304719
v 19.92958194369012 2.1967111342505441 35.008563874601656
v 25.896777160281943 6.5250477026339873 16.822104692816055
v 20.952464267265626 3.9662251545171503 10.902975193164483
v 17.177802895109775 -2.5636718491194759 8.8024844727334504
v 25.37668873995549 11.619820346059695 19.724178136853173
v 24.243365218714988 9.6592508708506966 15.586388757515513
v 23.821661652009553 8.9297335485908764 27.544167305845516
f 1 2 3 
f 17 2 1 
f 1 3 7 
f 7 5 1 
f 1 5 19 
f 19 17 1 
f 4 3 2 
f 6 4 2 
f 18 6 2 
f 2 17 18 
f 3 4 577 
f 525 7 3 
f 577 525 3 
f 4 6 8 
f 4 8 497 
f 4 497 577 
f 5 7 11 
f 11 9 5 
f 5 9 21 
f 21 19 5 
f 10 8 6 
f 20 10 6 
f 6 18 20 
f 525 11 7 
f 8 10 12 
f 8 12 542 
f 542 497 8 
f 9 11 15 
f 15 13 9 
f 9 13 27 
f 27 21 9 
f 14 12 10 
f 28 14 10 
f 10 20 22 
f 10 22 28 
f 551 15 11 
f 11 525 551 
f 12 14 16 
f 12 16 550 
f 550 542 12 
f 13 15 25 
f 25 23 13 
f 13 23 27 
f 24 16 14 
f 28 24 14 
f 551 25 15 
f 16 24 26 
f 16 26 550 
f 548 18 17 
f 17 19 548 
f 548 20 18 
f 19 21 425 
f 19 425 558 
f 558 548 19 
f 429 22 20 
f 548 429 20 
f 21 27 425 
f 409 28 22 
f 429 409 22 
f 23 25 31 
f 33 27 23 
f 31 29 23 
f 23 29 33 
f 30 26 24 
f 24 28 34 
f 34 30 24 
f 563 31 25 
f 25 551 563 
f 26 30 32 
f 26 32 562 
f 562 550 26 
f 27 33 425 
f 409 34 28 
f 29 31 37 
f 39 33 29 
f 37 35 29 
f 29 35 39 
f 36 32 30 
f 30 34 40 
f 40 36 30 
f 491 37 31 
f 563 491 31 
f 32 36 38 
f 32 38 519 
f 32 519 562 
f 33 39 381 
f 33 381 425 
f 559 40 34 
f 34 409 559 
f 35 37 57 
f 49 39 35 
f 63 49 35 
f 57 55 35 
f 35 55 63 
f 56 38 36 
f 36 40 50 
f 36 50 64 
f 64 56 36 
f 520 57 37 
f 37 491 520 
f 38 56 58 
f 38 58 519 
f 39 49 534 
f 534 381 39 
f 559 50 40 
f 43 42 41 
f 41 42 499 
f 45 43 41 
f 499 45 41 
f 42 43 44 
f 42 44 48 
f 48 46 42 
f 42 46 506 
f 506 499 42 
f 577 44 43 
f 43 45 47 
f 43 47 525 
f 43 525 577 
f 497 48 44 
f 577 497 44 
f 51 47 45 
f 498 51 45 
f 499 498 45 
f 46 48 54 
f 54 52 46 
f 46 52 529 
f 529 506 46 
f 47 51 53 
f 47 53 551 
f 551 525 47 
f 542 54 48 
f 48 497 542 
f 49 63 420 
f 49 420 534 
f 450 64 50 
f 559 450 50 
f 59 53 51 
f 454 59 51 
f 498 454 51 
f 52 54 60 
f 52 60 529 
f 53 59 61 
f 53 61 551 
f 62 60 54 
f 550 62 54 
f 54 542 550 
f 55 57 71 
f 77 63 55 
f 71 69 55 
f 55 69 77 
f 70 58 56 
f 56 64 70 
f 530 71 57 
f 57 520 530 
f 58 70 72 
f 58 72 532 
f 532 519 58 
f 65 61 59 
f 463 65 59 
f 59 454 463 
f 60 62 68 
f 68 66 60 
f 60 66 630 
f 630 529 60 
f 61 65 67 
f 61 67 563 
f 563 551 61 
f 562 68 62 
f 62 550 562 
f 63 77 420 
f 78 70 64 
f 618 78 64 
f 64 450 618 
f 73 67 65 
f 463 73 65 
f 66 68 76 
f 76 74 66 
f 66 74 630 
f 67 73 75 
f 67 75 491 
f 67 491 563 
f 519 76 68 
f 562 519 68 
f 69 71 81 
f 87 77 69 
f 81 79 69 
f 69 79 87 
f 80 72 70 
f 70 78 88 
f 88 80 70 
f 530 81 71 
f 72 80 82 
f 72 82 532 
f 83 75 73 
f 535 83 73 
f 73 463 535 
f 74 76 86 
f 86 84 74 
f 74 84 474 
f 74 474 571 
f 74 571 630 
f 75 83 85 
f 75 85 520 
f 520 491 75 
f 519 86 76 
f 77 87 576 
f 576 420 77 
f 455 88 78 
f 618 455 78 
f 79 81 95 
f 97 87 79 
f 95 93 79 
f 79 93 97 
f 94 82 80 
f 80 88 94 
f 546 95 81 
f 81 530 546 
f 82 94 96 
f 82 96 544 
f 544 532 82 
f 89 85 83 
f 430 89 83 
f 535 430 83 
f 84 86 92 
f 92 90 84 
f 84 90 474 
f 85 89 91 
f 85 91 530 
f 530 520 85 
f 532 92 86 
f 86 519 532 
f 87 97 619 
f 619 576 87 
f 98 94 88 
f 455 98 88 
f 99 91 89 
f 578 99 89 
f 89 430 578 
f 90 92 100 
f 90 100 474 
f 91 99 101 
f 91 101 530 
f 102 100 92 
f 532 102 92 
f 93 95 105 
f 107 97 93 
f 105 103 93 
f 93 103 107 
f 104 96 94 
f 94 98 108 
f 108 104 94 
f 554 105 95 
f 95 546 554 
f 96 104 106 
f 96 106 556 
f 556 544 96 
f 97 107 619 
f 451 108 98 
f 455 451 98 
f 109 101 99 
f 578 109 99 
f 100 102 112 
f 112 110 100 
f 100 110 417 
f 100 417 474 
f 101 109 111 
f 101 111 546 
f 546 530 101 
f 544 112 102 
f 102 532 544 
f 103 105 115 
f 113 107 103 
f 115 113 103 
f 114 106 104 
f 104 108 114 
f 554 115 105 
f 106 114 116 
f 106 116 556 
f 107 113 117 
f 107 117 467 
f 107 467 619 
f 118 114 108 
f 451 118 108 
f 119 111 109 
f 421 119 109 
f 578 421 109 
f 110 112 120 
f 110 120 547 
f 547 417 110 
f 111 119 121 
f 111 121 554 
f 554 546 111 
f 122 120 112 
f 556 122 112 
f 112 544 556 
f 113 115 139 
f 145 117 113 
f 139 137 113 
f 113 137 145 
f 138 116 114 
f 114 118 146 
f 146 138 114 
f 568 139 115 
f 115 554 568 
f 116 138 140 
f 116 140 570 
f 570 556 116 
f 117 145 467 
f 401 146 118 
f 451 401 118 
f 147 121 119 
f 421 147 119 
f 120 122 150 
f 150 148 120 
f 120 148 547 
f 121 147 149 
f 121 149 568 
f 568 554 121 
f 570 150 122 
f 122 556 570 
f 515 125 123 
f 123 125 607 
f 123 126 522 
f 607 126 123 
f 522 515 123 
f 124 127 496 
f 607 127 124 
f 398 128 124 
f 124 128 607 
f 496 398 124 
f 129 127 125 
f 125 127 607 
f 513 129 125 
f 515 513 125 
f 126 128 132 
f 607 128 126 
f 132 130 126 
f 126 130 494 
f 126 494 522 
f 127 129 131 
f 127 131 496 
f 398 132 128 
f 133 131 129 
f 527 133 129 
f 129 513 527 
f 130 132 609 
f 130 134 494 
f 609 134 130 
f 131 133 135 
f 131 135 521 
f 521 496 131 
f 587 136 132 
f 132 136 609 
f 132 398 587 
f 141 135 133 
f 527 141 133 
f 134 142 440 
f 609 142 134 
f 134 440 494 
f 135 141 143 
f 135 143 521 
f 411 144 136 
f 136 144 609 
f 587 411 136 
f 137 139 161 
f 159 145 137 
f 161 159 137 
f 160 140 138 
f 138 146 160 
f 575 161 139 
f 139 568 575 
f 140 160 162 
f 140 162 503 
f 140 503 570 
f 151 143 141 
f 448 151 141 
f 527 448 141 
f 142 152 440 
f 606 152 142 
f 609 606 142 
f 143 151 153 
f 143 153 566 
f 566 521 143 
f 540 154 144 
f 144 154 606 
f 144 411 540 
f 144 606 609 
f 145 159 163 
f 145 163 390 
f 145 390 467 
f 164 160 146 
f 415 164 146 
f 146 401 415 
f 165 149 147 
f 421 165 147 
f 148 150 168 
f 168 166 148 
f 148 166 469 
f 148 469 547 
f 149 165 167 
f 149 167 575 
f 575 568 149 
f 503 168 150 
f 570 503 150 
f 155 153 151 
f 457 155 151 
f 151 448 457 
f 152 154 156 
f 606 154 152 
f 152 156 583 
f 583 440 152 
f 153 155 157 
f 153 157 566 
f 158 156 154 
f 423 158 154 
f 540 423 154 
f 171 157 155 
f 155 169 171 
f 457 169 155 
f 156 158 470 
f 470 406 156 
f 156 406 583 
f 157 171 501 
f 157 501 566 
f 423 172 158 
f 158 172 470 
f 159 161 187 
f 181 163 159 
f 187 181 159 
f 182 162 160 
f 160 164 180 
f 160 180 182 
f 575 187 161 
f 162 182 190 
f 162 190 503 
f 181 177 163 
f 163 177 592 
f 592 390 163 
f 415 180 164 
f 183 167 165 
f 413 183 165 
f 421 413 165 
f 166 168 189 
f 189 186 166 
f 166 186 469 
f 167 183 188 
f 167 188 575 
f 503 189 168 
f 175 171 169 
f 169 173 175 
f 516 173 169 
f 169 457 516 
f 419 374 170 
f 170 374 427 
f 426 419 170 
f 468 426 170 
f 170 427 599 
f 599 468 170 
f 171 175 501 
f 176 174 172 
f 172 174 470 
f 416 176 172 
f 423 416 172 
f 605 175 173 
f 516 178 173 
f 173 178 605 
f 174 176 179 
f 174 179 400 
f 174 400 470 
f 175 184 589 
f 605 184 175 
f 589 501 175 
f 185 179 176 
f 416 185 176 
f 177 181 203 
f 177 203 472 
f 177 472 592 
f 402 191 178 
f 178 191 610 
f 419 402 178 
f 516 419 178 
f 610 605 178 
f 179 185 192 
f 179 192 418 
f 418 400 179 
f 206 182 180 
f 180 204 206 
f 508 204 180 
f 180 415 508 
f 181 187 207 
f 205 203 181 
f 207 205 181 
f 206 190 182 
f 199 188 183 
f 413 199 183 
f 184 193 473 
f 610 193 184 
f 184 473 589 
f 184 605 610 
f 194 192 185 
f 477 194 185 
f 185 416 432 
f 185 432 477 
f 186 189 202 
f 202 200 186 
f 186 200 593 
f 593 469 186 
f 504 207 187 
f 575 504 187 
f 188 199 201 
f 188 201 504 
f 188 504 575 
f 505 202 189 
f 189 503 505 
f 190 206 208 
f 190 208 505 
f 505 503 190 
f 402 195 191 
f 191 195 610 
f 192 194 196 
f 192 196 418 
f 193 197 473 
f 610 197 193 
f 198 196 194 
f 477 198 194 
f 475 209 195 
f 195 209 608 
f 195 402 475 
f 195 608 610 
f 196 198 210 
f 196 210 585 
f 585 418 196 
f 197 211 479 
f 608 211 197 
f 479 473 197 
f 610 608 197 
f 212 210 198 
f 477 212 198 
f 217 201 199 
f 380 217 199 
f 413 380 199 
f 200 202 220 
f 220 218 200 
f 200 218 593 
f 201 217 219 
f 201 219 504 
f 536 220 202 
f 202 505 536 
f 203 205 221 
f 203 221 590 
f 590 472 203 
f 228 206 204 
f 204 222 228 
f 397 222 204 
f 508 397 204 
f 205 207 229 
f 227 221 205 
f 229 227 205 
f 228 208 206 
f 504 229 207 
f 208 228 230 
f 208 230 536 
f 536 505 208 
f 213 211 209 
f 209 211 608 
f 595 213 209 
f 209 475 595 
f 210 212 214 
f 210 214 585 
f 211 213 215 
f 211 215 479 
f 216 214 212 
f 482 216 212 
f 212 477 482 
f 223 215 213 
f 595 223 213 
f 214 216 224 
f 214 224 585 
f 215 223 225 
f 215 225 480 
f 480 479 215 
f 226 224 216 
f 482 226 216 
f 245 219 217 
f 380 245 217 
f 218 220 248 
f 248 246 218 
f 218 246 404 
f 218 404 593 
f 219 245 247 
f 219 247 567 
f 567 504 219 
f 569 248 220 
f 220 536 569 
f 221 227 251 
f 251 249 221 
f 221 249 622 
f 622 590 221 
f 252 228 222 
f 222 250 252 
f 629 250 222 
f 222 397 629 
f 231 225 223 
f 626 231 223 
f 223 595 626 
f 224 226 234 
f 234 232 224 
f 224 232 631 
f 631 585 224 
f 225 231 233 
f 225 233 485 
f 485 480 225 
f 482 234 226 
f 227 229 253 
f 253 251 227 
f 252 230 228 
f 567 253 229 
f 229 504 567 
f 230 252 254 
f 230 254 569 
f 569 536 230 
f 235 233 231 
f 626 235 231 
f 232 234 236 
f 232 236 631 
f 233 235 237 
f 233 237 485 
f 238 236 234 
f 514 238 234 
f 234 482 514 
f 239 237 235 
f 628 239 235 
f 235 626 628 
f 236 238 240 
f 236 240 424 
f 236 424 631 
f 237 239 241 
f 237 241 485 
f 242 240 238 
f 514 242 238 
f 243 241 239 
f 424 243 239 
f 628 424 239 
f 240 242 243 
f 240 243 424 
f 241 243 244 
f 241 244 486 
f 486 485 241 
f 244 243 242 
f 573 244 242 
f 242 514 573 
f 573 486 244 
f 255 247 245 
f 431 255 245 
f 245 380 431 
f 246 248 256 
f 246 256 408 
f 408 404 246 
f 247 255 257 
f 247 257 553 
f 247 553 567 
f 258 256 248 
f 555 258 248 
f 569 555 248 
f 249 251 259 
f 249 259 622 
f 260 252 250 
f 621 260 250 
f 629 621 250 
f 251 253 263 
f 261 259 251 
f 263 261 251 
f 262 254 252 
f 252 260 262 
f 553 263 253 
f 567 553 253 
f 254 262 264 
f 254 264 555 
f 254 555 569 
f 265 257 255 
f 633 265 255 
f 255 431 633 
f 256 258 268 
f 268 266 256 
f 256 266 408 
f 257 265 267 
f 257 267 545 
f 257 545 553 
f 543 268 258 
f 555 543 258 
f 259 261 271 
f 271 269 259 
f 259 269 392 
f 259 392 622 
f 272 262 260 
f 260 270 272 
f 621 270 260 
f 261 263 273 
f 273 271 261 
f 272 264 262 
f 553 273 263 
f 264 272 274 
f 264 274 555 
f 275 267 265 
f 633 275 265 
f 266 268 278 
f 278 276 266 
f 266 276 459 
f 459 408 266 
f 267 275 277 
f 267 277 531 
f 267 531 545 
f 533 278 268 
f 543 533 268 
f 269 271 285 
f 285 279 269 
f 269 279 392 
f 286 272 270 
f 270 280 286 
f 597 280 270 
f 621 597 270 
f 271 273 287 
f 287 285 271 
f 286 274 272 
f 545 287 273 
f 553 545 273 
f 274 286 288 
f 274 288 543 
f 274 543 555 
f 281 277 275 
f 602 281 275 
f 633 602 275 
f 276 278 284 
f 284 282 276 
f 276 282 625 
f 625 459 276 
f 277 281 283 
f 277 283 512 
f 277 512 531 
f 533 284 278 
f 279 285 289 
f 279 289 489 
f 489 392 279 
f 296 286 280 
f 280 290 296 
f 597 290 280 
f 291 283 281 
f 602 291 281 
f 282 284 292 
f 282 292 625 
f 283 291 293 
f 283 293 518 
f 518 512 283 
f 294 292 284 
f 517 294 284 
f 533 517 284 
f 285 287 297 
f 295 289 285 
f 297 295 285 
f 296 288 286 
f 531 297 287 
f 545 531 287 
f 288 296 298 
f 288 298 533 
f 288 533 543 
f 289 295 309 
f 309 303 289 
f 289 303 489 
f 310 296 290 
f 290 304 310 
f 502 304 290 
f 597 502 290 
f 299 293 291 
f 436 299 291 
f 602 436 291 
f 292 294 302 
f 302 300 292 
f 292 300 603 
f 292 603 625 
f 293 299 301 
f 293 301 518 
f 490 302 294 
f 517 490 294 
f 295 297 311 
f 311 309 295 
f 310 298 296 
f 512 311 297 
f 531 512 297 
f 298 310 312 
f 298 312 533 
f 305 301 299 
f 449 305 299 
f 299 436 449 
f 300 302 308 
f 308 306 300 
f 300 306 445 
f 300 445 603 
f 301 305 307 
f 301 307 565 
f 565 518 301 
f 564 308 302 
f 302 490 564 
f 303 309 317 
f 303 317 617 
f 617 489 303 
f 330 310 304 
f 304 318 330 
f 502 318 304 
f 313 307 305 
f 449 313 305 
f 306 308 314 
f 306 314 611 
f 611 445 306 
f 307 313 315 
f 307 315 549 
f 307 549 565 
f 316 314 308 
f 564 316 308 
f 309 311 331 
f 329 317 309 
f 331 329 309 
f 330 312 310 
f 518 331 311 
f 311 512 518 
f 312 330 332 
f 312 332 517 
f 312 517 533 
f 319 315 313 
f 492 319 313 
f 313 449 492 
f 314 316 322 
f 322 320 314 
f 314 320 611 
f 315 319 321 
f 315 321 541 
f 315 541 549 
f 572 322 316 
f 316 564 572 
f 329 327 317 
f 317 327 617 
f 318 328 330 
f 488 328 318 
f 502 488 318 
f 323 321 319 
f 439 323 319 
f 492 439 319 
f 320 322 326 
f 326 324 320 
f 320 324 442 
f 320 442 611 
f 321 323 325 
f 321 325 524 
f 321 524 541 
f 526 326 322 
f 572 526 322 
f 323 324 325 
f 439 324 323 
f 326 325 324 
f 324 439 442 
f 325 326 510 
f 325 510 524 
f 526 510 326 
f 327 329 335 
f 341 333 327 
f 327 333 604 
f 327 335 341 
f 327 604 617 
f 336 330 328 
f 328 334 342 
f 488 334 328 
f 342 336 328 
f 329 331 337 
f 337 335 329 
f 336 332 330 
f 518 337 331 
f 332 336 338 
f 332 338 490 
f 332 490 517 
f 341 339 333 
f 333 339 500 
f 333 500 604 
f 334 340 342 
f 488 340 334 
f 335 337 343 
f 343 341 335 
f 342 338 336 
f 565 343 337 
f 337 518 565 
f 338 342 344 
f 338 344 564 
f 564 490 338 
f 339 341 351 
f 355 345 339 
f 339 345 458 
f 339 351 355 
f 339 458 500 
f 352 342 340 
f 340 346 356 
f 453 346 340 
f 356 352 340 
f 488 453 340 
f 341 343 353 
f 353 351 341 
f 352 344 342 
f 549 353 343 
f 565 549 343 
f 344 352 354 
f 344 354 564 
f 355 347 345 
f 345 347 458 
f 346 348 356 
f 453 348 346 
f 363 349 347 
f 347 349 581 
f 347 355 359 
f 347 359 363 
f 581 458 347 
f 348 350 364 
f 407 350 348 
f 360 356 348 
f 364 360 348 
f 523 407 348 
f 348 453 523 
f 363 350 349 
f 349 350 407 
f 349 407 581 
f 350 363 364 
f 351 353 357 
f 357 355 351 
f 356 354 352 
f 549 357 353 
f 354 356 358 
f 354 358 572 
f 572 564 354 
f 355 357 361 
f 361 359 355 
f 360 358 356 
f 541 361 357 
f 549 541 357 
f 358 360 362 
f 358 362 572 
f 359 361 365 
f 365 363 359 
f 364 362 360 
f 524 365 361 
f 541 524 361 
f 362 364 366 
f 362 366 526 
f 362 526 572 
f 366 364 363 
f 363 365 366 
f 510 366 365 
f 524 510 365 
f 366 510 526 
f 428 369 367 
f 367 369 437 
f 437 381 367 
f 367 381 534 
f 438 428 367 
f 534 438 367 
f 441 376 368 
f 368 376 494 
f 494 440 368 
f 368 440 528 
f 588 441 368 
f 368 528 588 
f 405 370 369 
f 369 370 465 
f 428 405 369 
f 465 437 369 
f 370 376 484 
f 515 376 370 
f 370 405 527 
f 484 465 370 
f 370 513 515 
f 527 513 370 
f 371 372 509 
f 523 372 371 
f 371 393 552 
f 616 393 371 
f 371 509 616 
f 552 523 371 
f 372 453 488 
f 523 453 372 
f 372 488 509 
f 403 398 373 
f 373 398 496 
f 506 403 373 
f 373 454 498 
f 580 454 373 
f 373 496 580 
f 373 498 499 
f 373 499 506 
f 374 419 516 
f 601 427 374 
f 516 457 374 
f 374 457 613 
f 613 601 374 
f 375 378 584 
f 597 378 375 
f 584 395 375 
f 375 395 624 
f 375 502 597 
f 624 502 375 
f 376 441 447 
f 376 447 484 
f 522 494 376 
f 376 515 522 
f 588 394 377 
f 377 394 594 
f 377 409 441 
f 559 409 377 
f 377 441 588 
f 594 559 377 
f 378 388 584 
f 621 388 378 
f 378 597 621 
f 379 394 528 
f 582 394 379 
f 583 406 379 
f 379 406 623 
f 379 464 582 
f 623 464 379 
f 379 528 583 
f 380 413 471 
f 598 431 380 
f 471 444 380 
f 380 444 598 
f 437 425 381 
f 468 391 382 
f 382 391 622 
f 382 392 560 
f 622 392 382 
f 560 468 382 
f 552 424 383 
f 383 424 628 
f 383 446 483 
f 628 446 383 
f 383 483 552 
f 384 392 489 
f 560 392 384 
f 384 489 600 
f 384 493 560 
f 574 493 384 
f 600 574 384 
f 385 397 415 
f 614 397 385 
f 415 401 385 
f 385 401 456 
f 385 456 487 
f 385 487 614 
f 586 408 386 
f 386 408 634 
f 386 477 586 
f 634 477 386 
f 387 495 615 
f 616 495 387 
f 615 585 387 
f 387 585 631 
f 631 616 387 
f 388 397 614 
f 629 397 388 
f 620 584 388 
f 388 614 620 
f 388 621 629 
f 471 421 389 
f 389 421 578 
f 389 435 471 
f 538 435 389 
f 578 538 389 
f 390 427 467 
f 599 427 390 
f 592 433 390 
f 390 433 599 
f 391 433 472 
f 599 433 391 
f 391 468 599 
f 391 472 590 
f 391 590 622 
f 393 424 552 
f 631 424 393 
f 393 616 631 
f 588 528 394 
f 394 582 594 
f 615 462 395 
f 395 462 624 
f 395 584 615 
f 432 416 396 
f 396 416 636 
f 477 432 396 
f 396 469 478 
f 636 469 396 
f 586 477 396 
f 396 478 586 
f 508 415 397 
f 403 399 398 
f 398 399 587 
f 399 403 461 
f 461 411 399 
f 399 411 587 
f 422 406 400 
f 400 406 470 
f 400 418 434 
f 487 422 400 
f 400 434 487 
f 401 451 456 
f 402 419 426 
f 402 426 493 
f 493 475 402 
f 529 461 403 
f 403 506 529 
f 404 408 586 
f 404 586 593 
f 405 428 448 
f 405 448 527 
f 406 422 623 
f 523 410 407 
f 407 410 612 
f 612 581 407 
f 408 459 634 
f 409 429 441 
f 410 523 552 
f 410 552 612 
f 411 461 539 
f 411 539 540 
f 412 414 480 
f 602 414 412 
f 412 449 602 
f 632 449 412 
f 412 480 485 
f 412 485 632 
f 413 421 471 
f 414 479 480 
f 598 479 414 
f 633 598 414 
f 414 602 633 
f 416 423 579 
f 416 579 636 
f 539 474 417 
f 579 539 417 
f 417 547 579 
f 620 434 418 
f 418 585 620 
f 420 438 534 
f 576 438 420 
f 487 456 422 
f 422 456 623 
f 540 539 423 
f 423 539 579 
f 425 437 558 
f 426 468 560 
f 560 493 426 
f 427 452 467 
f 601 452 427 
f 428 438 591 
f 613 448 428 
f 428 591 613 
f 447 441 429 
f 476 447 429 
f 548 476 429 
f 430 535 538 
f 430 538 578 
f 431 598 633 
f 592 472 433 
f 614 487 434 
f 620 614 434 
f 589 471 435 
f 566 501 435 
f 435 501 589 
f 538 537 435 
f 435 537 566 
f 602 449 436 
f 437 465 558 
f 438 576 591 
f 557 442 439 
f 439 492 557 
f 583 528 440 
f 596 466 442 
f 442 466 611 
f 442 557 596 
f 464 455 443 
f 443 455 618 
f 582 464 443 
f 594 582 443 
f 618 594 443 
f 444 471 473 
f 444 473 479 
f 444 479 598 
f 611 603 445 
f 481 460 446 
f 446 460 511 
f 626 481 446 
f 511 483 446 
f 628 626 446 
f 447 465 484 
f 561 465 447 
f 447 476 561 
f 613 457 448 
f 557 492 449 
f 632 557 449 
f 450 559 594 
f 450 594 618 
f 451 455 464 
f 464 456 451 
f 619 467 452 
f 591 576 452 
f 452 576 619 
f 601 591 452 
f 580 463 454 
f 456 464 623 
f 511 500 458 
f 612 511 458 
f 458 581 612 
f 459 625 627 
f 459 627 634 
f 460 481 574 
f 604 511 460 
f 460 574 600 
f 460 600 604 
f 461 529 571 
f 571 539 461 
f 615 495 462 
f 462 495 616 
f 616 509 462 
f 462 509 624 
f 580 535 463 
f 561 558 465 
f 466 596 635 
f 635 611 466 
f 593 478 469 
f 579 547 469 
f 636 579 469 
f 589 473 471 
f 474 539 571 
f 493 481 475 
f 475 481 595 
f 476 548 558 
f 476 558 561 
f 634 482 477 
f 593 586 478 
f 481 493 574 
f 626 595 481 
f 627 507 482 
f 482 507 635 
f 635 514 482 
f 634 627 482 
f 483 511 612 
f 612 552 483 
f 485 486 632 
f 596 557 486 
f 486 557 632 
f 486 573 596 
f 488 502 509 
f 617 600 489 
f 496 521 580 
f 500 511 604 
f 624 509 502 
f 627 603 507 
f 507 603 635 
f 596 573 514 
f 635 596 514 
f 566 537 521 
f 521 537 580 
f 630 571 529 
f 535 537 538 
f 580 537 535 
f 620 615 584 
f 585 615 620 
f 591 601 613 
f 617 604 600 
f 603 611 635 
f 627 625 603 
