v 0 6 0
v 0 6 6
v 0 12 0
v 0 12 6
v 0 18 0
v 0 18 6
v 6 6 0
v 6 6 6
v 5.8499314043104356 12.005210611398891 0
v 6 12 6
v 5.9833525493689486 18 0
v 6 18 6
v 12 0 0
v 12 0 6
v 12 6 0
v 12 6 6
v 12 12 0
v 12 12 6
v 12 18 0
v 12 18 6
v 18 0 0
v 18 0 6
v 18 6 0
v 18 5.9585140733476241 6
v 18 12 0
v 18 12 6
v 12.988366325496569 8.6905598931038703 6
v 11.1944096550542 7.5968087441888041 6
v 5.4366105028657188 10.630701431560119 0
v 13.19521466000745 0 4.3607545368414637
v 1.94146830879863 6 1.006975280412945
v 1.228452584083473 7.2054160533846812 0
v 13.595092092819471 6.4857404748376997 6
v 13.05086640544582 4.5619805798089086 0
v 2.350888678465902 7.0183332789521531 0
v 4.0568760317640979 18 6
v 16.193055136120371 0 0
v 6.6484217029133834 13.23657709738395 6
v 7.4398795778620137 17.193013187450699 6
v 16.82241419683568 1.050498341458505 6
v 0 11.0176982736493 4.5764610526424168
v 12 16.954132721488509 1.209237063077454
v 0 14.04272673181435 1.5170354409346241
v 0 10.37440700191048 1.4954123190574
v 12.39980036604808 9.7202575891636886 6
v 0 11.66643579584186 1.533626713176593
v 0 9.2446008875219512 2.0553669104655459
v 11.85225935816575 8.4776267151093201 6
v 4.6210959452204063 12.73467469958821 6
v 16.686396676224842 0 0.78354116992902456
v 3.0848829592854821 6 4.484939846296939
v 12 17.010423929257541 4.8671725244211821
v 18 8.3582194803488701 1.913451799839273
v 7.5927106888345701 6 6
v 3.939992702037443 11.85262869480845 6
v 7.1577572788226558 17.063389497134281 0
v 12 4.1475841017686994 3.9692876650991211
v 10.751232410222761 18 5.1631558549582106
v 11.05571294274846 18 1.311359450258589
v 13.07691742076555 5.8692985684398824 0
v 1.2788532240430619 6 2.652514288128712
v 3.954862930570374 6 4.811817671217689
v 12 14.417844783956809 6
v 0 17.04425481391231 0.99910672705595438
v 15.40491556588306 5.0248159947508739 0
v 6.963560886636456 18 2.708604893517955
v 2.5577064480861238 6 3.8174500570977341
v 13.15345649720979 0.82864621519710191 0
v 5.6037485562956721 13.639113948466539 0
v 12 2.728724218371898 1.362185063487436
v 17.430193877704689 4.5020045201096002 0
v 10.88913020540237 18 3.3555358064298022
v 18 9.1051592642071313 4.8076906916473003
v 2.4200031544348821 8.6087643224149701 6
v 16.509097225322549 6.7447345628067881 6
v 13.186978362113001 0 0.85545491424298126
v 4.9230825792344497 18 5.1199690642372007
v 0 7.331895480071811 1.1561954760508479
v 0 7.8363208141383964 5.1022166795630914
v 1.2692477377033491 7.1075680215891381 6
v 0 13.28629375318198 0.80657505878516478
v 11.28726338189967 6.6633503039781958 6
v 0 10.24900584081746 5.3375299836814296
v 0.68310466413684123 14.09339642369515 6
v 1.36030526142163 13.262353514998111 6
v 0.99229342973785473 17.211964035119621 0
v 0 16.794776097980659 5.2503167146524534
v 0.70380477598316193 16.735624706358909 6
v 1.417696847164412 18 4.9616740061359579
v 1.8842093005814291 6 3.2696482767090291
v 7.278853224043063 6 1.1538558501161991
v 7.6851435114741546 7.1052626026678318 0
v 5.1704261374483877 6 4.7051714117019916
v 5.8822364327574608 7.5161591635227927 6
v 7.7144718918427104 6 3.5162257580791629
v 7.278853224043063 6 4.8461441498838012
v 3.9661292350755 11.56586408930036 0
v 7.9904591989918927 10.322989331911471 0
v 12 15.363264030125629 3.7129461373462589
v 5.7870721584819744 10.595784463679189 6
v 5.1971602609398078 13.77060033300075 6
v 6.9177449026558957 10.46249131068053 6
v 7.4584776720521706 11.175069398108491 6
v 16.519894872904089 6.7102194497288563 0
v 12.9787689881207 2.4898544414618859 0
v 12 4.6244070019104786 0
v 4.5398089684023848 17.14815326283885 6
v 14.36510846777267 5.8531538586912921 6
v 12 13.238219257386669 4.7156995505158674
v 12 1.23919028590295 4.8681006194300629
v 9.342242721177346 11.9191601419429 6
v 5.534127102384006 6 2.2473056138259202
v 14.153834841531101 0.66527446967526149 6
v 18 4.4428218388008416 2.5842440454238949
v 3.5711251438072238 6 6
v 12 18 1.2726571662543289
v 12 5.0259942787010932 0.68624253376964184
v 12 5.9903945136602879 1.1538558501161991
v 12 13.28538075773433 0.85598585792217241
v 10.89949418190862 7.5342349737037786 0
v 4.5448974450801876 7.2069341665490683 0
v 3.3496842446136399 18 1.15152539342706
v 2.5577064480861238 18 4.5430411391791008
v 16.046266819941959 2.25571981407208 0
v 0.81145998353023252 10.746267388992051 6
v 14.153834841531101 5.738597136879763 0
v 17.071892802504639 7.3061047507968411 0
v 12 4.8208878469316314 4.9722250915394506
v 11.02365409029975 6 4.941652630737889
v 10.3039163120427 7.164608054624253 6
v 13.42612088327598 4.9753544690920046 6
v 10.347791565781611 10.92813615018393 0
v 18 9.7256279148820894 3.903390779702129
v 9.9167988361562429 12.16775957419007 0
v 0 15.68043398337195 1.171256911037011
v 12.776172963520249 3.2657395802461222 6
v 12.15920041455041 10.54674477126145 0
v 18 6.766348593651621 0.98913887343407803
v 10.28845871038278 10.972944152737471 6
v 10.28845871038278 12.261402863120241 6
v 4.6809937272718862 12.67615205439408 0
v 13.64979072555052 12 3.685999662051088
v 13.298675577323969 0 0
v 0 13.298675577323969 0
v 0 13.298675577323969 6
v 18 4.7013244226760289 6
v 10.229839010890069 17.126491472557309 0
v 10.29974873328983 18 0.70102455484356097
v 10.51690045117498 8.350536766306897 6
v 1.9105866892953061 15.722916757089941 0
v 10.405146012660801 17.150685160076119 6
v 7.107568021589139 7.7115412896172257 6
v 8.4695583570158899 6 1.2562458362429649
v 17.31891677892072 1.1734037013222951 0
v 18 1.096956667309914 0.72516296207541475
v 17.137191050603271 0 4.9212179000302134
v 3.1950474245438918 18 3.7530511652434901
v 5.0346387249694793 6 3.3781339359333571
v 16.858376527047721 5.2097611310299072 6
v 3.32972433733645 10.9756989176882 6
v 2.5681714606493449 15.96461407354321 6
v 3.4327723733532509 17.357237133724919 6
v 18 7.112908502446909 4.8638304188725199
v 16.730752262296651 10.89243197841086 0
v 16.482097558146801 10.877952889443041 6
v 0 7.0769174207655521 2.9908246381148
v 0 7.1133113266765342 4.1324043043538126
v 15.58760554125487 5.753068339042434 6
v 0 12.237719107857799 2.803569947133981
v 0 8.3461651584688994 1.1538558501161991
v 0 9.3195574477437422 2.9862844478309061
v 6.0287692186300266 6 1.3153751230249191
v 0 8.2192255014809206 3.0169256903617159
v 1.0431908138403529 8.490942714426005 6
v 7.8026063321694394 8.6279619255858542 0
v 0 8.9613961971254241 4.1337010046128899
v 7.1540931130064198 16.046794874683162 0
v 0 9.4437387933377348 4.9737730045635864
v 5.1346238688516754 14.838320283885791 6
v 12 15.903970509112311 4.6282106178371674
v 0 10.78860901060844 2.9319020282538228
v 1.3489748639536101 11.934460968537699 6
v 0 12.29428594002159 4.4225390659066468
v 16.462975507742389 9.5364264417179196 6
v 16.692785669712809 2.0601119486794568 6
v 11.217095446742659 11.05034820910951 0
v 1.034704777508747 10.830718326616729 0
v 11.32109033317969 15.32681392965649 0
v 0 13.51965192375004 2.97277464489036
v 0 13.5 4.8461441498838012
v 0 14.78643448935428 2.206729384957673
v 1.2788532240430619 6 2.0371329048341109
v 1.2788532240430619 6 6
v 1.2788532240430619 6 0
v 18 7.278241843441581 6
v 0 10.721758156558421 6
v 0 14.785647102727751 4.209823901525235
v 0.93273995015244293 15.126990343218891 0
v 0 16.024945489609099 2.2618642491080529
v 7.2870688442749572 12.215567834882631 6
v 0 16.07691742076555 3.6153813832946011
v 0 15.80361396869837 5.032824069794767
v 15.7859393031586 0 3.6827086848075772
v 0.67976112326043392 15.445732382238759 6
v 10.7422402467599 18 6
v 0 17.166066164240441 3.0877528358809871
v 0 17.112755380749199 4.291905407915924
v 3.4396390405218709 16.985423241991001 0
v 1.065682422271776 18 1.607186882192579
v 0.75651613559210817 18 3.9039613473477419
v 1.304176006621073 6 4.3785850140853304
v 1.2692477377033491 8.3155145576453116 0
v 1.2709398769457381 9.6777978586816999 6
v 1.4385739355906499 14.86591627047242 6
v 1.446069346710418 16.04744527028215 6
v 1.142899182462463 18 2.8530730508118398
v 4.474426413322405 7.4682070108288769 6
v 12 1.9966967547760071 3.882041283467665
v 2.4484701103060651 6 2.0677790159328562
v 12.90426550517482 12 2.798754942643126
v 1.779088547276571 9.7419007472767714 0
v 12 13.014049651666831 2.883656959102963
v 2.5999717504310449 8.1464849462726558 0
v 0 18 0.99766711776209327
v 1.9181882341926459 10.829820505197249 6
v 2.537042539157325 9.765701150141453 6
v 1.9547299806995839 11.627442231296181 0
v 18 7.5935861274237189 1.241750134985983
v 1.853597834321135 13.47956627734985 0
v 2.503683692803202 12.287812961884629 6
v 2.5427273580332188 14.68539340295643 0
v 2.5345889657148848 14.99041912959852 6
v 2.0196708972232811 16.932556030620699 0
v 2.0306249948108062 18 0.78406734897568553
v 1.9537331800580371 17.334725530324739 6
v 2.5577064480861238 18 1.7784125952959999
v 2.5577064480861238 18 3.0091753618852009
v 3.8536001867815282 6 3.2602574258721289
v 3.2421918904408131 7.7115412896172257 6
v 3.2385335191941649 9.6968631187272383 0
v 3.6960017835366679 8.3085722041057934 0
v 4.0935332952862007 8.4928491013301031 6
v 3.0438858014176331 12.70136642374448 0
v 3.4070260585273959 13.439335023149781 6
v 3.9635238534001278 13.546463648246799 0
v 3.1463970423641179 16.153719807411839 0
v 4.0071690616204796 14.699694270614771 6
v 3.4231492573038671 18 2.266168669707147
v 18 2.980177646719091 5.1199690642372007
v 3.765897306914781 16.116005098411659 6
v 3.8461651584688989 18 3.0091753618852009
v 3.9512133638795301 18 4.3225246865116747
v 4.7189679797123887 6 1.201936797313472
v 18 10.69255259112251 2.9369507925480902
v 18 6.9730552851520233 3.6444999297860199
v 4.4146463292551452 8.9175301693779652 0
v 4.4501384264969861 9.6844854423546884 0
v 5.130136654910773 8.1951905201314652 0
v 4.5306506008235878 9.6039732680280885 6
v 18 2.2167606544154919 5.0572849795401522
v 4.5220545288839604 10.744608835009879 6
v 4.3197865372830631 14.7898774920095 0
v 4.4715944547614059 16.138380273226971 0
v 4.5103275236945723 18 1.073506370348454
v 4.5533354431049684 18 3.597148914746326
v 5.1844315433159949 16.10920595041538 6
v 5.315976986013327 18 4.3758146981524551
v 16.799789433838381 12 4.1992910191194417
v 6.2726877996005674 6 3.237014190954695
v 5.7095435022996446 9.094756628526163 0
v 6.5362558061391223 8.2124620970072364 0
v 5.832562739739406 9.5852920960005772 6
v 5.5944663500389726 14.91850916979701 0
v 5.8940859477352054 16.302226286982521 0
v 0 13.37881437460625 1.918361509469185
v 5.5379392501947562 18 2.2723326570127909
v 5.4450714852642896 18 3.2192126264554668
v 11.78975536164244 10.649216351140341 6
v 6.3671103989106577 18 1.453961174876913
v 6.4230825792344506 18 3.6153813832946011
v 0.93661050286571812 12.77493078675151 0
v 7.014898232987135 9.4741323607254255 0
v 7.0012186741778759 8.8428019076705002 6
v 6.9365100841180727 9.6623643173274338 6
v 7.8270732011426034 9.8822073977877913 6
v 7.0270558472625382 13.549861573503019 0
v 7.0270558472625382 14.838320283885791 0
v 7.0552729327806798 14.7512761517133 6
v 6.8725244166537029 10.77586359327432 0
v 15.138659132512689 12 3.262181243044417
v 7.1223645492108076 16.156547132706901 6
v 7.1982899331137657 18 4.2173962354971284
v 7.5284311734761857 18 1.7902515221358519
v 7.7141936964010043 18 3.1667077250128322
v 12.332027531384149 7.304666201630539 0
v 8.5673119344258382 6 2.3846186167054002
v 14.53086192109293 7.4449069381454196 0
v 2.0982617277182789 14.054570894772761 6
v 10.85538926434695 13.05931242310543 6
v 9 7.1075680215891381 0
v 18 8.4044117401326766 4.7607896661976863
v 9.0780088013326026 6 3.279135316697062
v 8.2351496868557224 7.3231749402246749 6
v 8.8725562132776012 6 4.6116191201813201
v 12 0 1.1923093083527001
v 12 12 1.1923093083527001
v 12 0 4.8076906916473003
v 9 8.3155145576453116 0
v 8.1346066424459984 8.78126192341748 6
v 12 12 4.8076906916473003
v 9.2822458691393113 8.1190039920775394 6
v 9.0147125585153027 9.6555296812814646 0
v 8.5250479086113167 10.79591005436577 6
v 8.3955052983904306 11.88711729524295 0
v 9.1941058124392256 10.878429855035611 0
v 8.2476313411646398 13.48342233496553 0
v 8.1941934695201954 12.828404679768621 6
v 8.3155145576453116 14.838320283885791 0
v 8.4138665969320865 14.67733048739227 6
v 8.0999671336839612 16.088813233045261 0
v 9.0874341621053976 15.74788165058059 6
v 8.622230613301415 18 0.87495998466207014
v 8.4250384085762384 17.204232074912341 0
v 9.2104180408910654 16.128366009802502 0
v 8.3278419234005181 18 2.405512007015989
v 10.84484791769064 18 4.1640703875566114
v 8.3138009690050758 18 4.1714960963945451
v 8.8987937543154203 16.942646880320051 6
v 9.335818014004861 18 1.7511802088835471
v 9.0302610586710106 18 2.9767581456187981
v 9.6709984489256886 6 1.182100102573165
v 5.9083736628999164 7.3898174701238482 0
v 9.8683371315961139 8.8551711326150162 0
v 9.6781160395208854 9.0357403020091986 6
v 9.6844854423546884 10.28845871038278 6
v 9.5837836406730563 13.60234252971776 0
v 9.5587341217227255 13.56682512917665 6
v 6.9990035196361884 12.08017925993401 0
v 17.023133409970981 0.63462386885167432 0
v 16.93749080874402 12 3.1408293571255559
v 10.56148094259582 14.794301803195481 0
v 9.760629107391205 18 4.226036701544885
v 10.28845871038278 16.126778994268559 6
v 10.42738639657526 18 2.445347573393724
v 12 0.98706677789873853 3.6384368047629598
v 12 1.642043478777393 1.2085424142057131
v 12 1.8806113836431719 2.5247051847904012
v 3.4033311098671 7.3020526753624999 0
v 8.9435992246325533 18 5.0950055977673783
v 6.0954716205421766 14.28479610123366 6
v 13.698840864512499 7.9956026856022877 6
v 12 3.0623913271864591 3.4711679043563528
v 12 13.03648454233574 1.956655698380902
v 12.76115931169053 1.9404811968089219 6
v 12 3.0900651286719958 4.7491553972834186
v 12 3.8461651584688989 1.567168559607667
v 12 4.933240783553078 2.4819658440336321
v 10.71408131772308 6 3.6640067414685151
v 12 5.0737052573651944 3.748463494576924
v 12 6 3.2565238220572108
v 12 5.9903945136602879 4.0286940927860684
v 3.629821125681818 6 1.5625808786650659
v 10.84369647539741 9.7829810450070571 0
v 12 3.8934842987139029 2.8212541300602938
v 10.872243449583211 9.5510120198930579 6
v 3.9609997355928872 10.546530778663151 0
v 10.90381695393428 13.3377229689271 0
v 13.120240966733871 0.92958400061309532 6
v 7.6131117785714819 13.89607717665934 6
v 2.752943146983748 10.73400680366016 0
v 9.8293307513982473 14.98160845803325 6
v 12 14.23130598437734 1.5776233343041
v 0 9.9236025328047806 3.8736969829201748
v 16.844738107232189 12 5.0978927241621692
v 12 14.129662166877839 3.6941091285872778
v 10.92533995462739 14.24130647164627 6
v 12 14.77187122310723 4.9119602366942043
v 12 15.66100099426494 0.98109910129152289
v 10.666211726937981 16.19347338913451 0
v 12 15.874981617488039 2.3846186167054002
v 15.054876832595991 3.4738496094292191 0
v 14.498524994109831 0 4.0249337556657512
v 4.9587034487821757 17.242258902451361 0
v 12 16.656838337942649 3.6993685788387891
v 11.98204722007431 8.3496268015050568 0
v 12.191556092808179 9.4634523454783075 0
v 6.3847398030612998 16.8676991733739 6
v 2.8977261299255441 16.747346379660598 6
v 9.8592008667033113 10.154396040477851 0
v 0 15.432688065574171 3.3031030107047008
v 1.742232929772104 18 3.8456822652111402
v 13.02904818249989 12 1.630240906626959
v 13.19740724584519 0 2.0283108818964228
v 12 16.878794826869431 6
v 14.09104842207516 0 1.645217468166009
v 14.029143722653981 0 2.9923541346895588
v 12.89643985021576 0 3.1060017118647418
v 14.045292737752099 1.800299478790448 0
v 13.549861573503019 2.5577064480861238 6
v 14.153834841531101 3.1616797161142118 0
v 13.64463117489403 3.8629508607383669 6
v 9.7965378089280009 6 2.5311577997817878
v 4.5638306418681971 6 2.2580313364259639
v 6.8509679016387572 6 2.1779622619596659
v 13.45692570453366 6.9849902576237897 0
v 12 2.9909668993058158 2.3530283498212001
v 13.331561400846541 8.3329083435575981 0
v 13.452872586071109 9.6668385215636015 0
v 0 11.053096964548571 0.90910003432986664
v 13.06002771599182 12 4.8702516304061074
v 13.833116382688489 9.6304359947174447 6
v 13.804233689008409 10.9766263487241 0
v 13.972656831882841 12 0.57443482293718873
v 14.084355541500219 12 2.4454068523631709
v 0 13.50982596187502 3.909459397387081
v 12 0.72175815655842079 0.59615465417635005
v 15.473082056477249 0 1.602714596333102
v 15.442293551913879 0 4.8461441498838012
v 14.908525384038899 2.4057246185261132 0
v 15.442293551913879 1.9537331800580371 6
v 14.53649102373676 4.481771015594914 0
v 14.824772497378881 3.41299228698997 6
v 15.63567397930256 4.4872577708366306 6
v 14.71999572811977 6.571571559233039 0
v 15.61110872586227 5.8574622754777703 0
v 15.442293551913879 7.0270558472625382 0
v 14.75971852948614 8.4390696048426648 6
v 15.45570300083965 8.2396919585132959 0
v 14.67768757267083 12 1.1717379847839029
v 14.838320283885791 10.89243197841086 0
v 15.284690768808099 9.4644050237473998 0
v 14.866686949656341 10.873530288629629 6
v 14.650499137611799 12 4.4232488440349016
v 15.18920690950443 9.5954041183880641 6
v 6.4740471983342509 12.80115554716456 0
v 16.07691742076555 0 2.3846186167054002
v 16.139506060494739 1.1676061354736951 0
v 16.739267036128211 0 1.6991009248825699
v 16.730752262296651 0 2.9908246381148
v 16.097037135018819 3.263275315655715 0
v 16.786255486645921 3.140190831889929 6
v 16.6452252975545 4.6711725026071411 0
v 16.025512263541788 8.1929726609438589 6
v 16.148169656617551 9.6221384061325601 0
v 16.813320896848118 8.3175581552296158 0
v 15.73807337555429 12 1.25439203980271
v 15.678137919190441 12 2.3842143989489348
v 15.986003499133931 12 3.6953022718813582
v 18 1.1019783638754179 1.7515246821464221
v 17.187322729055779 1.9838970980535371 0
v 18 2.0614279122080541 0.83603858708857859
v 18 0.74974030157282723 3.0296420457630431
v 18 2.08693416454151 1.900887258883323
v 18 0.83951584235455501 4.1549697451838714
v 18 1.842713449630641 3.156492333407646
v 11.00571612031683 6 1.020866478126714
v 17.12839683801084 3.2817746334394271 0
v 18 3.2495653562711109 0.7674486029072779
v 18 3.2115412896172262 1.7784125952959999
v 18 2.5577064480861238 4.2399381284744013
v 18 3.1883141748633101 3.0769549409864401
v 18 4.432575606951402 1.0836866236923579
v 18 4.4540953646061876 4.3784817809144494
v 18 5.8480180867863956 1.7003506771736361
v 18 5.7198070234072027 3.0501365275580441
v 18 5.9708373199837279 4.1793940768586184
v 18 7.0684970087537229 2.4480643561975861
v 4.5152983508924471 15.47376311715059 6
v 18 8.4895506606307478 0.76903659179643979
v 18 8.3653761311483272 3.6153813832946011
v 17.08062091178607 8.4398316154574253 6
v 17.16820567927499 9.4670681802912391 0
v 18 9.6786883845034701 0.90913166538095158
v 18 9.6628352083052569 2.4192516502985901
v 18 10.879370030497221 1.630243944041786
v 18 10.91945604097647 4.0860057869414321
v 0 6 1.1538558501161991
v 1.2692477377033491 18 0
v 0 16.7301727712488 6
v 0 18 4.8461441498838012
v 1.2692477377033491 18 6
v 7.7115412896172257 6 0
v 3.8461651584688989 18 0
v 7.7115412896172257 18 0
v 14.153834841531101 0 6
v 10.320384569457911 6 0
v 12 3.8461651584688989 6
v 10.28845871038278 6 6
v 12 12.865376131148331 6
v 10.28845871038278 18 0
v 12 16.730752262296651 0
v 18 1.366391895483249 0
v 18 0 4.8461441498838012
v 18 3.8461651584688989 0
v 18 7.7115412896172257 0
v 16.80700778151191 12 0
v 18 10.28845871038278 0
v 16.730752262296651 12 6
v 18 12 4.8461441498838012
v 0 6 2.102959902454288
v 0 6 3.3337226690434898
v 0 6 4.5644854356326903
v 0 8.1550576027340682 0
v 0 8.1550576027340682 6
v 0 9.4435163131168416 6
v 0 9.8257314245865075 0
v 0 14.59735115464794 0
v 0 14.59735115464794 6
v 0 15.885809865030719 0
v 0 15.91595648257756 6
v 0.0022241052931877689 18 2.0571844562215009
v 0 18 3.5749561612411731
v 2.5577064480861238 6 0
v 2.57900863514518 6 6
v 2.5577064480861238 18 6
v 3.8461651584688989 6 0
v 3.0204337338823919 18 0
v 4.5845438395283242 6 6
v 12.73559962144969 4.389156609774135 6
v 8.6847038981750266 6 0
v 9.1430970772031266 6 6
v 8.1742685754134925 18 6
v 9.4627272857962694 18 0
v 9.5280041468424663 18 6
v 12 0 2.3846186167054002
v 12 0 3.6153813832946011
v 12 1.443516313116842 0
v 12 1.443516313116842 6
v 12 2.796982388001886 6
v 12 3.2488140038209581 0
v 12 12 2.3846186167054002
v 12 12 3.6153813832946011
v 12 13.180672232973301 0
v 12 14.469130943356079 0
v 12 2.179656433187672 4.7976497735836086
v 12 15.757589653738849 6
v 12 18 2.666277330956512
v 12 18 3.897040097545712
v 13.243057087638631 12 0
v 14.153834841531101 12 6
v 14.64199697056134 0 0
v 14.469130943356079 12 0
v 15.442293551913879 12 6
v 15.885809865030719 0 6
v 15.757589653738849 12 0
v 18 8.8817841970012523e-16 1.312619454289778
v 18 0 2.3846186167054002
v 18 0 3.6153813832946011
v 18 1.731975023499617 6
v 18 2.6093930101414178 0
v 18 3.4026488453520591 6
v 18 9 0
v 18 8.556483686883162 6
v 18 12 1.4355145643673111
v 18 12 2.666277330956512
v 18 9.8449423972659353 6
v 16.80288308238746 12 1.134002726108263
v 13.17702724541177 1.756537951549479 0
v 7.0673119344258382 18 0.88920629764800019
v 4.9616280813850144 11.75635364128321 0
v 3.5307884668928491 18 5.2342315822973164
v 18 12 3.756210740420157
v 7.0871342877067462 18 6
v 0 10.86090745044608 0
v 0 7.0775288013670341 6
v 0 7.0775288013670341 0
v 18 10.922471198632969 6
v 13.07691742076555 0 6
v 12 12.937865812163791 3.8732086522956481
v 13.07691742076555 12 6
v 4.9230825792344497 6 0
v 18 4.9230825792344497 0
v 12 4.9230825792344497 6
v 4.9230825792344497 18 0
v 17.365376131148331 4.2686363571018671 6
v 0.93661050286571812 14.073606364075481 0
v 6.1820130044511128 6 4.6099661230069184
v 16.94678522497259 12 2.273866218030296
v 12 16.85843304183107 2.4779971149367759
v 12 15.00029765708989 2.8943934798003639
v 16.942904932515361 0 6
v 0 16.97971293809244 0
v 5.1625929957744248 6.8993956458449537 6
v 12 18 4.9485200487728562
v 14.40367760535624 12 3.3709441024763618
v 7.6855166898210774 18 5.1272046658785646
v 8.8840019192221718 9.5555264672905889 6
v 6.5260477980578564 18 4.9421977577991507
v 0 6.5968237356678889 5.050384899602558
v 18 1.279747319501932 5.0768477149847149
v 9.8770995756061559 6 5.0426733080895314
v 12 13.833403633336671 5.4035277940985704
v 12.87590863086025 11.01585877344144 0
v 12.865376131148331 11.134623868851669 6
v 18 10.38679446304219 4.9891468960279974
v 10.590445344396819 15.14030691789983 6
v 0 9.4128362608053635 1.29896760371855
v 15.78974460045915 12 4.5926677890872707
v 12 13.97429792839999 2.571166283005391
v 6.6280517406933868 11.28342676437174 6
v 2.025612376239053 6 5.234854529931245
v 12 4.1908578933406062 0.58248411033003977
v 5.3966597783981269 18 1.4083161747675721
v 0.68376357299399082 6 5.3299359264005384
v 15.180570757144331 0 2.655536909307894
v 8.0548732482660945 16.449858084618558 6
v 8.0537840107945708 11.9191601419429 6
v 16.088575041049641 2.5814530968946139 6
v 3.0429838781275729 6 2.7512879369613432
v 17.280436182379859 5.3959544611575039 0
v 3.6144105393894139 15.29704524975493 0
v 15.641843840900149 3.3708802225824441 6
v 0 12.822153061390109 3.5554090266945169
v 9.8914777357501809 7.4409357971454479 0
v 9.1977330711904806 7.2662189116558409 6
v 0.82527929136857581 16.267524934529671 0
v 14.524850085121519 4.7484874280647826 6
v 8.0537840107945691 15.74428018592792 6
v 15.10005083073653 1.571234371717392 0
v 15.724439967728721 4.2160063264005414 0
v 9.3019866340140442 14.798064196722491 0
v 6.0760899647386299 15.255074946294821 6
v 3.443530527977305 9.6625358133365076 6
v 6.2399175881616076 16.09251592261721 6
v 2.694448627947136 13.60304753823837 0
v 14.292747928215061 8.6376427944300396 0
v 14.46293988699108 9.7765788346914722 0
v 2.0471713734278758 12.668470703146349 0
v 2.859693082100168 11.57691742076555 0
v 10.997685917917821 8.8420935587124561 0
v 0.7218071512657338 8.9649168827108703 0
v 4.5454494118265973 18 2.3582066510983908
v 17.066692598269199 0 3.8944885678605021
v 3.3478762688302819 14.35262058884741 0
v 15.152018421689609 0 0.76745518479353447
v 11.446215989205429 14.955712247634979 6
v 0 7.7673939212016183 2.0141940266712912
v 9.9671288322209008 18 3.3310372393845848
v 15.46494781244049 0.58023466444184302 0
v 14.29762328724258 0.9531397976674949 0
v 0.93661050286571812 11.78845871038278 0
v 18 7.7369065658565273 4.2381863249508296
v 18 11.482892061437109 3.3689779318309561
v 12 15.13416915044515 1.8902814601460529
v 0 14.152649513238901 3.591299273207798
v 18 5.326247039336879 0.75224299834125663
v 5.2408077810501199 18 0.55245564298783001
v 5.819109311206363 8.6577572788226576 6
v 8.4593306700772786 13.864626100294929 6
v 16.60598931711117 4.2227447835495671 6
v 9.3095262051938192 17.135610590015251 0
v 0.89485401369542017 9.8987168123430092 0
v 0 8.0886896731307925 4.082324744654855
v 12.50303178209526 7.3379338294128784 6
v 5.1321767180689966 11.551060200688161 6
v 11.357518604262831 17.458665678631711 6
v 2.5174503609228238 12.221146775956941 0
v 16.16749581319446 3.7929733316866749 6
v 16.29069263928498 7.5694308320457777 0
v 11.06861573859049 17.271142767048019 0
v 14.79874131042321 7.1821007525515084 6
v 13.83713428770675 0.46830525143285912 0
v 1.0655616300853681 6 3.447700488767782
v 11.071818850025529 6 2.383638222690498
v 13.895719537087979 0 0.54922478008062903
v 8.587134287706748 18 0
f 1 194 477 
f 566 194 1 
f 1 477 566 
f 193 80 2 
f 2 80 565 
f 604 193 2 
f 589 502 2 
f 2 502 604 
f 2 565 589 
f 3 46 81 
f 409 46 3 
f 3 81 144 
f 3 144 281 
f 3 187 564 
f 641 187 3 
f 3 281 641 
f 564 409 3 
f 183 41 4 
f 4 41 196 
f 4 85 145 
f 182 85 4 
f 4 125 182 
f 196 125 4 
f 4 145 183 
f 5 64 224 
f 582 64 5 
f 478 86 5 
f 5 86 582 
f 5 224 478 
f 6 87 479 
f 480 87 6 
f 479 88 6 
f 6 88 481 
f 6 89 480 
f 481 89 6 
f 7 91 172 
f 482 91 7 
f 332 92 7 
f 7 92 482 
f 7 172 253 
f 7 253 571 
f 571 332 7 
f 96 54 8 
f 8 54 152 
f 518 93 8 
f 8 93 577 
f 152 94 8 
f 8 94 583 
f 577 96 8 
f 583 518 8 
f 289 29 9 
f 9 29 560 
f 141 69 9 
f 9 69 435 
f 560 141 9 
f 338 289 9 
f 435 338 9 
f 10 38 101 
f 200 38 10 
f 101 49 10 
f 10 49 655 
f 10 100 600 
f 655 100 10 
f 600 200 10 
f 11 56 274 
f 484 56 11 
f 11 274 383 
f 11 279 559 
f 603 279 11 
f 11 383 574 
f 559 484 11 
f 11 574 647 
f 647 603 11 
f 77 36 12 
f 12 36 107 
f 387 39 12 
f 12 39 563 
f 267 77 12 
f 12 107 387 
f 588 267 12 
f 12 563 588 
f 13 68 143 
f 527 68 13 
f 143 76 13 
f 13 76 305 
f 13 305 416 
f 13 416 527 
f 307 30 14 
f 14 30 568 
f 14 110 307 
f 528 110 14 
f 14 368 528 
f 568 368 14 
f 60 34 15 
f 15 34 106 
f 405 60 15 
f 15 106 117 
f 15 117 118 
f 15 118 456 
f 15 120 295 
f 486 120 15 
f 15 295 405 
f 15 456 486 
f 131 33 16 
f 16 33 654 
f 16 82 488 
f 654 82 16 
f 361 128 16 
f 16 128 573 
f 16 129 361 
f 488 129 16 
f 573 131 16 
f 17 119 306 
f 533 119 17 
f 186 134 17 
f 17 134 367 
f 17 137 186 
f 593 137 17 
f 17 306 539 
f 17 367 533 
f 17 539 593 
f 140 139 18 
f 18 139 278 
f 299 140 18 
f 18 278 594 
f 489 299 18 
f 410 310 18 
f 18 310 489 
f 570 410 18 
f 594 570 18 
f 116 42 19 
f 19 42 491 
f 19 59 116 
f 148 59 19 
f 490 148 19 
f 660 490 19 
f 19 491 660 
f 394 52 20 
f 20 52 584 
f 20 58 205 
f 584 58 20 
f 20 205 656 
f 656 394 20 
f 50 37 21 
f 21 37 339 
f 546 50 21 
f 339 154 21 
f 21 154 492 
f 492 155 21 
f 21 155 546 
f 549 40 22 
f 22 40 581 
f 22 156 493 
f 581 156 22 
f 22 493 590 
f 590 549 22 
f 572 71 23 
f 23 71 610 
f 23 104 127 
f 610 104 23 
f 23 127 495 
f 23 138 464 
f 495 138 23 
f 23 464 646 
f 646 572 23 
f 24 75 159 
f 195 75 24 
f 159 146 24 
f 24 146 463 
f 24 163 195 
f 466 163 24 
f 24 463 466 
f 25 164 496 
f 497 164 25 
f 25 475 497 
f 554 475 25 
f 25 496 557 
f 557 554 25 
f 498 165 26 
f 26 165 567 
f 499 498 26 
f 567 499 26 
f 27 45 48 
f 411 45 27 
f 27 48 654 
f 27 351 411 
f 654 351 27 
f 28 48 149 
f 654 48 28 
f 130 82 28 
f 28 82 654 
f 149 130 28 
f 366 97 29 
f 29 97 560 
f 270 257 29 
f 29 257 366 
f 282 270 29 
f 289 282 29 
f 30 307 526 
f 396 382 30 
f 30 382 485 
f 397 396 30 
f 526 397 30 
f 30 485 568 
f 219 192 31 
f 31 192 477 
f 477 194 31 
f 31 194 513 
f 362 219 31 
f 513 362 31 
f 32 35 194 
f 212 35 32 
f 32 194 566 
f 566 212 32 
f 131 108 33 
f 33 108 661 
f 33 351 654 
f 661 351 33 
f 34 60 126 
f 400 105 34 
f 34 105 530 
f 530 106 34 
f 34 126 421 
f 421 400 34 
f 513 194 35 
f 35 212 223 
f 35 223 348 
f 35 348 516 
f 516 513 35 
f 36 77 561 
f 162 107 36 
f 515 162 36 
f 561 515 36 
f 37 50 635 
f 437 339 37 
f 639 437 37 
f 635 541 37 
f 37 541 639 
f 350 101 38 
f 38 200 317 
f 38 288 350 
f 369 288 38 
f 38 317 369 
f 387 291 39 
f 39 291 606 
f 39 328 522 
f 606 328 39 
f 39 522 563 
f 40 185 420 
f 549 185 40 
f 40 420 544 
f 40 544 581 
f 178 83 41 
f 41 83 196 
f 373 178 41 
f 183 181 41 
f 41 181 373 
f 42 116 537 
f 380 378 42 
f 42 378 491 
f 579 380 42 
f 42 537 579 
f 43 81 275 
f 507 81 43 
f 191 135 43 
f 43 135 507 
f 43 189 191 
f 275 189 43 
f 181 46 44 
f 44 46 409 
f 44 47 181 
f 597 47 44 
f 44 409 506 
f 44 506 597 
f 365 48 45 
f 45 278 365 
f 594 278 45 
f 45 411 594 
f 275 81 46 
f 181 169 46 
f 46 169 275 
f 597 170 47 
f 47 170 637 
f 173 171 47 
f 47 171 181 
f 637 173 47 
f 365 149 48 
f 244 55 49 
f 49 55 655 
f 49 101 244 
f 438 417 50 
f 50 417 635 
f 546 438 50 
f 51 62 115 
f 238 62 51 
f 51 67 238 
f 601 67 51 
f 51 115 514 
f 51 514 601 
f 52 180 384 
f 536 180 52 
f 52 384 538 
f 52 394 536 
f 52 538 584 
f 467 228 53 
f 53 228 469 
f 470 467 53 
f 53 469 473 
f 474 470 53 
f 53 473 474 
f 54 96 304 
f 303 152 54 
f 521 303 54 
f 54 304 521 
f 230 160 55 
f 55 160 261 
f 244 230 55 
f 55 261 655 
f 56 177 274 
f 320 177 56 
f 323 320 56 
f 484 323 56 
f 355 128 57 
f 57 128 359 
f 57 352 355 
f 364 352 57 
f 359 357 57 
f 57 357 364 
f 524 205 58 
f 58 326 342 
f 538 326 58 
f 58 342 349 
f 58 349 524 
f 584 538 58 
f 537 116 59 
f 59 148 329 
f 59 329 344 
f 59 344 537 
f 405 126 60 
f 219 90 61 
f 61 90 663 
f 61 192 219 
f 500 192 61 
f 501 500 61 
f 663 501 61 
f 158 93 62 
f 62 93 518 
f 518 115 62 
f 238 158 62 
f 63 376 489 
f 636 376 63 
f 63 377 536 
f 592 377 63 
f 63 489 592 
f 63 536 636 
f 64 135 199 
f 509 135 64 
f 64 199 206 
f 64 206 511 
f 511 224 64 
f 582 509 64 
f 421 126 65 
f 65 126 425 
f 620 421 65 
f 65 425 442 
f 65 442 620 
f 66 276 280 
f 293 276 66 
f 66 280 294 
f 294 293 66 
f 211 90 67 
f 67 90 609 
f 601 211 67 
f 609 238 67 
f 662 143 68 
f 558 398 68 
f 68 398 640 
f 68 527 558 
f 68 640 662 
f 69 141 245 
f 69 245 262 
f 69 262 273 
f 69 273 287 
f 287 286 69 
f 69 286 435 
f 70 346 347 
f 530 346 70 
f 70 347 406 
f 406 356 70 
f 70 356 530 
f 457 442 71 
f 71 442 610 
f 494 457 71 
f 572 494 71 
f 342 326 72 
f 72 326 538 
f 638 342 72 
f 537 344 72 
f 72 344 638 
f 538 537 72 
f 470 133 73 
f 73 133 595 
f 73 301 470 
f 553 301 73 
f 556 553 73 
f 595 556 73 
f 174 80 74 
f 74 80 239 
f 213 174 74 
f 226 213 74 
f 623 226 74 
f 74 239 242 
f 74 242 623 
f 168 159 75 
f 661 168 75 
f 75 195 471 
f 471 443 75 
f 75 443 661 
f 76 143 665 
f 393 305 76 
f 395 393 76 
f 665 395 76 
f 267 252 77 
f 77 252 561 
f 78 170 503 
f 637 170 78 
f 78 477 500 
f 566 477 78 
f 78 500 637 
f 78 503 566 
f 79 167 589 
f 653 167 79 
f 178 176 79 
f 79 176 653 
f 504 178 79 
f 565 504 79 
f 589 565 79 
f 80 174 504 
f 80 193 514 
f 514 239 80 
f 80 504 565 
f 507 144 81 
f 82 130 488 
f 83 178 505 
f 505 196 83 
f 145 85 84 
f 84 85 214 
f 508 145 84 
f 214 204 84 
f 84 204 508 
f 85 182 230 
f 298 214 85 
f 85 230 298 
f 478 233 86 
f 86 233 616 
f 616 582 86 
f 207 202 87 
f 87 202 510 
f 480 207 87 
f 510 479 87 
f 88 204 215 
f 510 204 88 
f 88 215 235 
f 88 235 481 
f 88 479 510 
f 89 123 391 
f 515 123 89 
f 391 210 89 
f 89 210 480 
f 89 481 515 
f 90 211 663 
f 90 219 609 
f 91 153 296 
f 482 153 91 
f 404 172 91 
f 91 296 404 
f 271 175 92 
f 92 175 300 
f 332 271 92 
f 92 300 520 
f 520 482 92 
f 93 158 577 
f 94 152 648 
f 94 217 583 
f 648 217 94 
f 95 96 269 
f 304 96 95 
f 95 269 404 
f 95 296 302 
f 404 296 95 
f 95 302 304 
f 577 269 96 
f 243 141 97 
f 97 141 560 
f 629 243 97 
f 97 366 370 
f 97 370 629 
f 98 175 282 
f 312 175 98 
f 98 282 289 
f 98 289 314 
f 315 312 98 
f 98 314 315 
f 99 180 377 
f 384 180 99 
f 377 375 99 
f 99 375 580 
f 99 380 384 
f 580 380 99 
f 284 102 100 
f 100 102 600 
f 261 259 100 
f 100 259 272 
f 655 261 100 
f 100 272 284 
f 101 179 247 
f 350 179 101 
f 247 244 101 
f 285 103 102 
f 102 103 600 
f 102 284 285 
f 103 200 600 
f 607 200 103 
f 103 285 313 
f 103 313 607 
f 659 127 104 
f 104 425 426 
f 610 425 104 
f 104 426 659 
f 400 398 105 
f 105 398 558 
f 105 527 530 
f 558 527 105 
f 602 117 106 
f 106 530 602 
f 107 162 250 
f 107 250 266 
f 107 266 387 
f 108 131 617 
f 617 168 108 
f 108 168 661 
f 489 310 109 
f 109 310 569 
f 109 375 377 
f 569 375 109 
f 109 377 592 
f 592 489 109 
f 110 218 345 
f 535 218 110 
f 345 307 110 
f 110 528 535 
f 111 139 140 
f 335 139 111 
f 111 140 337 
f 111 313 335 
f 607 313 111 
f 337 317 111 
f 111 317 607 
f 269 158 112 
f 112 158 403 
f 253 172 112 
f 112 172 404 
f 403 253 112 
f 404 269 112 
f 399 368 113 
f 113 368 485 
f 420 399 113 
f 544 420 113 
f 113 485 544 
f 461 459 114 
f 114 459 462 
f 463 461 114 
f 114 462 464 
f 465 463 114 
f 114 464 465 
f 115 217 239 
f 518 217 115 
f 115 239 514 
f 357 118 117 
f 117 356 357 
f 602 356 117 
f 118 357 360 
f 118 360 664 
f 664 456 118 
f 353 306 119 
f 372 353 119 
f 534 372 119 
f 119 533 534 
f 385 295 120 
f 614 333 120 
f 120 333 630 
f 630 385 120 
f 120 486 614 
f 121 241 258 
f 348 241 121 
f 121 258 332 
f 121 332 571 
f 516 348 121 
f 571 516 121 
f 122 234 236 
f 517 234 122 
f 122 236 248 
f 122 248 264 
f 122 264 483 
f 122 483 517 
f 123 157 237 
f 252 157 123 
f 123 237 391 
f 561 252 123 
f 123 515 561 
f 124 419 440 
f 619 419 124 
f 450 437 124 
f 124 437 619 
f 124 440 457 
f 457 450 124 
f 225 182 125 
f 125 196 505 
f 125 213 225 
f 505 213 125 
f 126 405 424 
f 126 424 425 
f 127 445 495 
f 659 445 127 
f 128 355 487 
f 361 359 128 
f 128 487 573 
f 129 358 361 
f 591 358 129 
f 129 488 591 
f 130 149 311 
f 130 311 615 
f 521 488 130 
f 615 521 130 
f 519 401 131 
f 131 401 617 
f 573 519 131 
f 132 134 186 
f 315 134 132 
f 132 186 363 
f 389 315 132 
f 132 363 389 
f 474 254 133 
f 133 254 476 
f 133 470 474 
f 133 476 595 
f 315 314 134 
f 134 314 336 
f 134 336 367 
f 135 191 199 
f 509 507 135 
f 136 399 401 
f 529 399 136 
f 136 401 487 
f 136 487 529 
f 363 186 137 
f 386 363 137 
f 408 386 137 
f 593 408 137 
f 138 228 467 
f 495 228 138 
f 467 464 138 
f 365 278 139 
f 139 335 365 
f 140 299 337 
f 141 243 245 
f 414 220 142 
f 142 220 532 
f 142 410 433 
f 532 410 142 
f 585 414 142 
f 142 433 585 
f 662 541 143 
f 143 541 665 
f 576 281 144 
f 144 507 576 
f 190 183 145 
f 508 190 145 
f 146 159 575 
f 551 463 146 
f 575 551 146 
f 379 324 147 
f 147 324 651 
f 660 379 147 
f 523 490 147 
f 147 490 660 
f 651 523 147 
f 148 322 329 
f 523 322 148 
f 148 490 523 
f 334 311 149 
f 365 334 149 
f 231 198 150 
f 150 198 616 
f 246 231 150 
f 150 233 246 
f 616 233 150 
f 151 205 524 
f 656 205 151 
f 151 328 343 
f 524 328 151 
f 151 343 394 
f 151 394 656 
f 309 283 152 
f 152 283 648 
f 152 303 309 
f 331 296 153 
f 520 331 153 
f 153 482 520 
f 154 339 437 
f 154 437 450 
f 154 450 492 
f 451 449 155 
f 155 449 546 
f 492 451 155 
f 418 203 156 
f 156 203 633 
f 544 418 156 
f 548 493 156 
f 581 544 156 
f 633 548 156 
f 251 237 157 
f 252 251 157 
f 158 238 403 
f 158 269 577 
f 159 168 423 
f 159 423 650 
f 650 575 159 
f 160 225 226 
f 230 225 160 
f 160 226 623 
f 623 261 160 
f 161 215 232 
f 235 215 161 
f 161 232 250 
f 388 235 161 
f 161 250 388 
f 162 235 388 
f 515 235 162 
f 388 250 162 
f 553 195 163 
f 466 255 163 
f 163 255 642 
f 163 301 553 
f 642 301 163 
f 444 430 164 
f 164 430 545 
f 472 444 164 
f 497 472 164 
f 545 496 164 
f 434 184 165 
f 165 184 556 
f 165 432 434 
f 543 432 165 
f 165 498 543 
f 165 556 567 
f 166 167 173 
f 501 167 166 
f 166 173 637 
f 166 500 501 
f 637 500 166 
f 653 173 167 
f 167 501 502 
f 167 502 589 
f 617 423 168 
f 169 181 183 
f 169 183 613 
f 169 189 275 
f 613 189 169 
f 506 503 170 
f 597 506 170 
f 171 173 176 
f 171 176 373 
f 373 181 171 
f 653 176 173 
f 174 213 505 
f 505 504 174 
f 175 271 282 
f 308 300 175 
f 312 308 175 
f 176 178 373 
f 287 274 177 
f 320 287 177 
f 178 504 505 
f 468 247 179 
f 179 266 468 
f 622 266 179 
f 179 350 622 
f 536 377 180 
f 182 225 230 
f 183 190 415 
f 183 415 613 
f 184 434 443 
f 184 443 471 
f 184 471 556 
f 608 420 185 
f 549 441 185 
f 185 441 608 
f 227 221 187 
f 187 221 652 
f 641 227 187 
f 187 506 564 
f 652 506 187 
f 188 341 379 
f 534 341 188 
f 188 379 491 
f 188 491 534 
f 645 191 189 
f 613 415 189 
f 189 415 645 
f 190 197 415 
f 508 197 190 
f 390 199 191 
f 645 390 191 
f 500 477 192 
f 193 211 601 
f 604 211 193 
f 601 514 193 
f 553 471 195 
f 202 201 197 
f 197 201 390 
f 508 202 197 
f 197 390 645 
f 645 415 197 
f 198 231 576 
f 198 507 509 
f 576 507 198 
f 198 509 616 
f 199 201 206 
f 390 201 199 
f 607 317 200 
f 201 202 207 
f 207 206 201 
f 202 508 510 
f 418 382 203 
f 203 382 605 
f 203 436 439 
f 605 436 203 
f 203 439 633 
f 204 214 215 
f 510 508 204 
f 206 207 512 
f 512 511 206 
f 207 480 512 
f 246 233 208 
f 208 233 517 
f 263 246 208 
f 383 263 208 
f 483 383 208 
f 517 483 208 
f 209 216 236 
f 511 216 209 
f 478 224 209 
f 209 224 511 
f 236 234 209 
f 209 234 478 
f 391 216 210 
f 210 216 512 
f 512 480 210 
f 502 501 211 
f 211 501 663 
f 604 502 211 
f 212 221 223 
f 631 221 212 
f 566 503 212 
f 212 503 631 
f 226 225 213 
f 232 215 214 
f 298 232 214 
f 237 236 216 
f 391 237 216 
f 216 511 512 
f 242 239 217 
f 648 242 217 
f 217 518 583 
f 347 345 218 
f 352 347 218 
f 355 352 218 
f 535 355 218 
f 219 362 609 
f 414 392 220 
f 220 392 531 
f 220 531 532 
f 240 223 221 
f 221 227 370 
f 370 240 221 
f 221 631 652 
f 531 353 222 
f 222 353 599 
f 222 375 569 
f 599 375 222 
f 532 531 222 
f 569 532 222 
f 223 240 241 
f 223 241 348 
f 227 281 628 
f 641 281 227 
f 629 370 227 
f 227 628 657 
f 657 629 227 
f 495 469 228 
f 576 231 229 
f 229 231 625 
f 625 243 229 
f 229 243 628 
f 229 281 576 
f 628 281 229 
f 230 244 298 
f 231 246 611 
f 231 611 634 
f 634 625 231 
f 232 244 247 
f 298 244 232 
f 232 247 250 
f 233 478 517 
f 517 478 234 
f 515 481 235 
f 236 237 248 
f 251 248 237 
f 238 362 403 
f 609 362 238 
f 256 241 240 
f 257 256 240 
f 366 257 240 
f 370 366 240 
f 241 256 258 
f 242 259 623 
f 648 259 242 
f 625 245 243 
f 657 628 243 
f 243 629 657 
f 634 262 245 
f 245 625 634 
f 246 263 611 
f 468 250 247 
f 248 251 632 
f 632 264 248 
f 249 260 460 
f 549 260 249 
f 249 460 463 
f 249 463 551 
f 551 549 249 
f 468 266 250 
f 251 252 265 
f 251 265 277 
f 251 277 632 
f 267 265 252 
f 403 362 253 
f 253 362 516 
f 253 516 571 
f 254 474 475 
f 254 475 555 
f 643 476 254 
f 254 555 643 
f 466 465 255 
f 255 465 467 
f 255 467 470 
f 255 470 642 
f 256 257 270 
f 270 258 256 
f 258 270 271 
f 258 271 332 
f 259 261 623 
f 648 272 259 
f 590 460 260 
f 260 549 590 
f 262 263 273 
f 611 263 262 
f 634 611 262 
f 274 273 263 
f 383 274 263 
f 574 483 264 
f 647 574 264 
f 632 603 264 
f 264 603 647 
f 265 267 277 
f 624 387 266 
f 266 622 624 
f 280 277 267 
f 588 280 267 
f 268 340 448 
f 562 340 268 
f 268 374 499 
f 598 374 268 
f 268 448 598 
f 268 499 562 
f 282 271 270 
f 272 283 284 
f 648 283 272 
f 273 274 287 
f 276 277 280 
f 632 277 276 
f 293 279 276 
f 276 279 603 
f 276 603 632 
f 279 293 559 
f 280 292 294 
f 588 292 280 
f 309 284 283 
f 309 285 284 
f 285 309 587 
f 587 313 285 
f 286 287 318 
f 318 316 286 
f 286 316 338 
f 286 338 435 
f 320 318 287 
f 618 291 288 
f 288 291 622 
f 369 319 288 
f 288 319 618 
f 622 350 288 
f 338 314 289 
f 447 414 290 
f 290 414 585 
f 290 433 448 
f 585 433 290 
f 448 447 290 
f 291 387 624 
f 618 606 291 
f 624 622 291 
f 327 294 292 
f 586 327 292 
f 588 586 292 
f 293 294 325 
f 329 322 293 
f 293 322 559 
f 293 325 329 
f 330 325 294 
f 294 327 330 
f 295 385 407 
f 407 405 295 
f 402 302 296 
f 296 331 402 
f 297 405 407 
f 424 405 297 
f 297 407 626 
f 426 424 297 
f 428 426 297 
f 626 428 297 
f 376 337 299 
f 489 376 299 
f 300 308 614 
f 300 486 520 
f 614 486 300 
f 642 470 301 
f 358 304 302 
f 402 358 302 
f 311 309 303 
f 615 311 303 
f 303 521 615 
f 304 358 591 
f 591 521 304 
f 305 346 416 
f 525 346 305 
f 305 393 525 
f 306 353 531 
f 531 392 306 
f 306 392 539 
f 307 345 526 
f 308 312 333 
f 308 333 614 
f 309 311 334 
f 309 334 587 
f 310 410 532 
f 310 532 569 
f 312 315 389 
f 389 333 312 
f 587 335 313 
f 314 316 336 
f 338 316 314 
f 316 318 621 
f 621 336 316 
f 317 337 649 
f 649 369 317 
f 318 320 324 
f 318 324 621 
f 371 321 319 
f 319 321 618 
f 319 337 371 
f 649 337 319 
f 319 369 649 
f 320 323 324 
f 343 328 321 
f 321 328 606 
f 371 343 321 
f 321 606 618 
f 322 484 559 
f 666 484 322 
f 322 523 666 
f 651 324 323 
f 323 484 666 
f 323 523 651 
f 666 523 323 
f 379 341 324 
f 324 341 621 
f 330 329 325 
f 342 330 327 
f 349 342 327 
f 586 349 327 
f 524 522 328 
f 329 330 344 
f 330 342 638 
f 638 344 330 
f 664 402 331 
f 486 456 331 
f 331 456 664 
f 520 486 331 
f 389 363 333 
f 333 363 630 
f 365 335 334 
f 334 335 587 
f 336 341 367 
f 621 341 336 
f 376 371 337 
f 340 447 448 
f 578 447 340 
f 562 555 340 
f 340 555 578 
f 534 367 341 
f 343 371 596 
f 536 394 343 
f 596 536 343 
f 345 347 525 
f 345 525 526 
f 525 347 346 
f 527 416 346 
f 530 527 346 
f 347 352 406 
f 349 522 524 
f 586 522 349 
f 427 411 351 
f 661 427 351 
f 352 364 406 
f 353 372 599 
f 354 368 399 
f 528 368 354 
f 354 399 529 
f 529 528 354 
f 529 487 355 
f 535 529 355 
f 364 357 356 
f 406 364 356 
f 602 530 356 
f 357 359 360 
f 358 360 361 
f 664 360 358 
f 358 402 664 
f 361 360 359 
f 362 513 516 
f 363 386 630 
f 534 533 367 
f 568 485 368 
f 371 376 596 
f 534 378 372 
f 372 378 644 
f 372 580 599 
f 644 580 372 
f 374 498 499 
f 543 498 374 
f 598 543 374 
f 599 580 375 
f 636 596 376 
f 378 380 644 
f 534 491 378 
f 660 491 379 
f 579 384 380 
f 380 580 644 
f 419 400 381 
f 381 400 421 
f 440 419 381 
f 381 421 620 
f 620 440 381 
f 382 396 605 
f 382 418 485 
f 383 483 574 
f 384 537 538 
f 579 537 384 
f 385 386 407 
f 630 386 385 
f 408 407 386 
f 429 413 392 
f 392 413 539 
f 392 414 429 
f 393 395 396 
f 393 396 397 
f 393 397 525 
f 605 396 395 
f 395 417 605 
f 635 417 395 
f 395 541 635 
f 665 541 395 
f 526 525 397 
f 398 400 419 
f 398 419 619 
f 398 619 640 
f 422 401 399 
f 399 420 422 
f 401 422 617 
f 519 487 401 
f 407 408 626 
f 593 412 408 
f 408 412 627 
f 627 626 408 
f 564 506 409 
f 540 433 410 
f 570 540 410 
f 411 427 434 
f 434 432 411 
f 411 432 594 
f 542 430 412 
f 412 430 627 
f 412 539 542 
f 593 539 412 
f 413 429 542 
f 542 539 413 
f 447 429 414 
f 438 436 417 
f 417 436 605 
f 544 485 418 
f 612 422 420 
f 420 608 612 
f 612 423 422 
f 422 423 617 
f 423 612 658 
f 658 650 423 
f 426 425 424 
f 610 442 425 
f 426 428 659 
f 443 434 427 
f 661 443 427 
f 428 431 444 
f 626 431 428 
f 428 444 445 
f 428 445 659 
f 447 446 429 
f 429 446 545 
f 545 542 429 
f 444 431 430 
f 430 431 627 
f 430 542 545 
f 431 626 627 
f 543 540 432 
f 432 540 594 
f 598 448 433 
f 433 540 543 
f 433 543 598 
f 436 438 439 
f 639 619 437 
f 547 439 438 
f 438 546 547 
f 439 547 548 
f 439 548 633 
f 440 442 457 
f 620 442 440 
f 441 549 551 
f 441 551 575 
f 441 575 650 
f 612 608 441 
f 658 612 441 
f 441 650 658 
f 472 445 444 
f 445 472 552 
f 552 495 445 
f 446 447 557 
f 557 545 446 
f 578 557 447 
f 449 451 453 
f 455 452 449 
f 449 452 547 
f 449 453 455 
f 547 546 449 
f 450 457 550 
f 550 492 450 
f 459 453 451 
f 451 458 459 
f 550 458 451 
f 451 492 550 
f 455 454 452 
f 452 454 548 
f 548 547 452 
f 461 455 453 
f 453 459 461 
f 454 455 460 
f 454 460 590 
f 454 493 548 
f 590 493 454 
f 461 460 455 
f 457 494 550 
f 462 459 458 
f 494 462 458 
f 550 494 458 
f 460 461 463 
f 646 464 462 
f 462 494 572 
f 462 572 646 
f 463 465 466 
f 467 465 464 
f 552 473 469 
f 469 495 552 
f 471 553 556 
f 472 497 552 
f 475 474 473 
f 497 475 473 
f 552 497 473 
f 475 554 555 
f 562 499 476 
f 476 499 595 
f 643 562 476 
f 487 519 573 
f 488 521 591 
f 496 545 557 
f 499 567 595 
f 503 506 631 
f 652 631 506 
f 509 582 616 
f 586 563 522 
f 528 529 535 
f 536 596 636 
f 540 570 594 
f 541 619 639 
f 640 619 541 
f 662 640 541 
f 578 555 554 
f 554 557 578 
f 555 562 643 
f 595 567 556 
f 563 586 588 
