v -15.75 -11.25 0.75
v -15.75 -11.25 3.375
v -15.75 -11.25 6.75
v -15.75 -8.25 0.75
v -15.75 -8.25 3.375
v -15.75 -8.25 6.75
v -11.0625 -11.25 0.75
v -11.044632472082171 -11.25 3.6865371571013652
v -11.0625 -11.25 6.75
v -12.03999512301759 -9.7724956894848933 0.75
v -9.8355643238799324 -8.7716592383574952 6.75
v -13.5 -8.25 0.75
v -13.36177208771589 -8.25 3.4460400557538522
v -13.5 -8.25 6.75
v -11.25 -8.25 0.75
v -11.25 -8.25 3.375
v -11.25 -8.25 6.75
v -11.25 -6.8845298456380473 6.75
v -11.25 -5.25 0.75
v -11.25 -5.25 3.375
v -11.25 -5.25 6.75
v -8.25 -7.5 0.75
v -6.75 -11.25 0.75
v -6.75 -11.25 3.375
v -6.75 -11.25 6.75
v -6.75 -9.75 0.75
v -6.75 -8.25 0.75
v -6.75 -8.25 3.375
v -6.75 -8.25 6.75
v -6.75 -5.25 0.75
v -6.75 -5.25 3.375
v -6.75 -5.25 6.75
v -6.75 -2.625 0.75
v -6.75 -2.625 3.375
v -6.75 -2.625 6.75
v -6.75 0.75 0.75
v -6.75 0.75 3.375
v -6.75 0.75 6.75
v -6.75 3.75 0.75
v -6.75 3.75 3.375
v -6.75 3.75 6.75
v -6.75 6.75 0.75
v -6.75 6.75 3.375
v -6.75 6.75 6.75
v -5.25 3.75 0.75
v -5.3630716320792047 3.75 3.4278846747438401
v -4.4583326659889746 5.4108205935329758 0.75
v -4.5 6.75 0.75
v -4.5732978360009273 6.75 3.3879316191043261
v -3.75 -11.25 0.75
v -3.75 -11.25 3.6435232148496941
v -3.75 -11.25 6.75
v -3.75 -9.7201143435390254 3.232615670814968
v -3.75 -8.25 0.75
v -3.75 -8.25 3.375
v -3.75 -8.25 6.75
v -3.75 -5.25 0.75
v -3.75 -5.25 3.375
v -3.75 -5.25 6.75
v -3.75 -2.25 0.75
v -3.75 -2.25 3.375
v -3.75 -2.25 6.75
v -3.75 0.75 0.75
v -3.75 0.75 3.2359978905437639
v -3.75 0.75 6.75
v -3.75 2.25 6.75
v -3.75 3.75 0.75
v -3.75 3.75 3.375
v -3.75 3.75 6.75
v -2.25 -11.25 0.75
v -2.25 -11.25 3.375
v -2.25 -11.25 6.75
v -1.5 -8.625 0.75
v -1.5 -8.625 6.75
v -1.5 -5.25 0.75
v -1.3164249940516239 -5.25 3.189377224304121
v -1.6309371099915939 -5.25 6.75
v -0.71981328241241882 0.72729764267414287 6.75
v -2.25 3.75 0.75
v -2.25 3.75 3.375
v -2.25 3.75 6.75
v -2.25 5.25 0.75
v -2.25 5.25 3.375
v -2.25 6.75 0.75
v -2.25 6.75 3.5609932717838562
v -2.25 6.75 6.75
v -0.75 -14.25 0.75
v -0.75 -14.25 3.375
v -0.75 -14.25 6.75
v -0.75 -12.648104798491801 3.4323588945008678
v -0.75 -12.75 6.75
v -0.75 -11.25 0.75
v -0.75 -11.25 3.375
v -0.75 -11.25 6.75
v -0.75 3.75 0.75
v -0.75 3.75 3.375
v -0.75 3.75 6.75
v 3 -14.25 0.75
v 3 -14.25 3.375
v 3 -14.25 6.75
v 3.0192804311990802 -12.66674611992882 6.75
v 0.75 -11.25 0.75
v 0.75 -11.25 3.375
v 0.75 -11.25 6.75
v 19.55074092892783 -11.25 3.6164893288973259
v 12.75 6.75 3.75
v 12.75 5.3812167698689093 3.9064833792973692
v 0.75 -8.25 0.75
v 0.75 -8.25 3.375
v 0.75 -8.25 6.75
v 2.6010218769971689 -6.2079285390283774 0.75
v 2.686903483124254 -6.1550410577155388 6.75
v 0.75 -5.25 0.75
v 0.75 -5.25 3.375
v 0.75 -5.25 6.75
v 0.75 -2.25 0.75
v 0.75 -2.25 3.375
v 0.75 -2.25 6.75
v 0.75 0.75 0.75
v 0.75 0.75 3.375
v 0.75 0.75 6.75
v 0.75 2.25 6.75
v 0.75 3.75 0.75
v 0.75 3.75 3.375
v 0.75 3.75 6.75
v 3 -11.25 0.75
v 2.738176481367649 -11.25 3.3827621072524652
v 3.0270036937201001 -11.25 6.75
v 3.0087187872599461 -8.25 0.75
v 3 -8.25 6.75
v 2.9453959883571899 -1.802333360216628 0.75
v 3 0.75 0.75
v 3.2838260638936041 0.75 2.884864107127878
v 3 0.75 6.75
v 5.25 -11.25 0.75
v 5.25 -11.25 3.375
v 5.25 -11.25 6.75
v 5.25 -8.25 0.75
v 5.25 -8.25 3.375
v 5.25 -8.25 6.75
v 5.25 -5.25 0.75
v 5.25 -5.25 3.375
v 5.25 -5.25 6.75
v 5.25 -2.25 0.75
v 5.25 -2.25 3.375
v 5.25 -2.25 6.75
v 7.1089249270061421 0.45156799921135782 6.75
v 5.25 0.75 0.75
v 5.25 0.75 3.375
v 5.25 0.75 6.75
v 5.25 3.75 0.75
v 5.25 3.75 3.375
v 5.25 3.75 6.75
v 6.75 -14.25 0.75
v 6.75 -14.25 3.375
v 6.75 -14.25 6.75
v 6.75 -11.25 0.75
v 6.75 -11.25 3.375
v 6.75 -11.25 6.75
v 8.0625 -7.59375 0.75
v 7.5 -5.25 0.75
v 7.5978783160598926 -5.25 3.260897381624694
v 7.5 -2.25 6.75
v -13.296431544899971 -11.25 4.6576665975841678
v 7.5798104347941617 -5.25 5.0535225674524273
v -1.5 -2.25 5.0625
v 15.13078549544931 -5.25 4.9915233314787839
v 8.25 3.75 0.75
v 8.25 3.75 3.375
v 8.25 3.75 6.75
v -9 -5.25 5.0625
v 8.25 5.1095858960702234 3.329689789645629
v 10.629176830329071 6.75 5.0031405233324646
v 8.25 6.75 0.75
v 8.25 6.75 3.375
v 8.25 6.75 6.75
v 9.75 -11.25 0.75
v 9.75 -11.25 3.375
v 9.75 -11.25 6.75
v 9.75 -9.75 0.75
v 14.15094642636703 -7.6674553553058544 0.75
v 9.75 -8.25 0.75
v 9.75 -8.25 3.375
v 9.75 -8.25 6.75
v 9.75 -5.25 0.75
v 9.75 -5.25 3.5567183203831929
v 9.75 -5.25 6.75
v 15.296747804074959 -9.187730842289799 6.75
v 9.75 -2.25 0.75
v 9.75 -2.25 3.375
v 9.75 -2.25 6.75
v 9.75 0.75 0.75
v 9.75 0.75 3.375
v 9.75 0.75 6.75
v 9.75 3.75 0.75
v 9.75 3.75 3.375
v 9.75 3.75 6.75
v 10.5 5.25 0.75
v 10.35057514977755 5.1247981397244207 6.75
v 10.5 6.75 0.75
v 10.5 6.75 6.75
v 11.25 -8.25 0.75
v -8.7107793982430799 -11.25 5.2013364670108668
v 12.75 -11.25 0.75
v 12.75 -11.25 3.375
v 12.75 -11.25 6.75
v -1.50159586648553 -0.71706526585314234 6.75
v 7.5281993261319533 -6.8740738759416269 6.75
v -1.5 -0.75 0.75
v 12.75 -8.25 0.75
v 12.75 -8.25 3.375
v 12.75 -8.25 6.75
v 12.75 -5.25 0.75
v 12.75 -5.25 3.375
v 12.75 -5.25 6.75
v 12.75 -2.625 0.75
v 12.75 -2.625 3.375
v 12.75 -2.625 6.75
v 12.75 0.75 0.75
v 12.75 0.75 3.375
v 12.75 0.75 6.75
v 12.75 3.75 0.75
v 12.75 3.75 3.375
v 12.75 3.75 6.75
v 12.75 5.25 0.75
v 12.75 5.3231951564756272 6.75
v 12.75 6.75 0.75
v 3.4444032438725372 -0.89479419476235367 6.75
v 12.75 6.75 6.75
v 17.4375 -11.25 0.75
v 17.618751437597531 -11.25 3.3527309349346748
v 17.4375 -11.25 6.75
v 2.5338354690303291 -4.1812059808675217 6.75
v 15.088162295291561 -7.1464608103472891 6.75
v 7.636158208889074 -0.54855272686290002 0.75
v -13.476224889777329 -11.25 2.561905703767386
v 17.25 -8.25 0.75
v 17.25 -8.25 3.375
v 17.25 -8.25 6.75
v 17.25 -6.75 0.75
v 17.25 -5.25 0.75
v 17.25 -5.25 3.375
v 17.25 -5.25 6.75
v 19.5 -8.25 0.75
v 19.5 -8.25 3.375
v 19.5 -8.25 6.75
v 21.75 -11.25 0.75
v 21.75 -11.25 3.375
v 21.75 -11.25 6.75
v 21.75 -8.25 0.75
v 21.75 -8.25 3.375
v 21.75 -8.2667094783509683 6.75
v 7.4790110372751029 -2.25 2.0721160698571861
v -1.5 -2.25 2.0625
v -9.0656388274607487 -5.25 2.4016464747496058
v -8.90625 -11.25 2.0625
v 4.875 -14.25 5.0625
v 1.125 -14.25 5.0625
v 14.405330418298609 -11.25 4.8347541407041454
v -8.4375 -6.9375 6.75
v 12.75 -0.9375 5.0625
v -6.75 -0.9375 5.0625
v 7.7865193240645176 1.62152880179061 0.75
v 3.9375 -4.21875 0.75
v 2.8125 -3.84375 0.75
v -13.318851670184699 -11.25 6.75
v 15.09375 -11.25 6.75
v 15.09375 -11.25 0.75
v -13.40625 -11.25 0.75
v 10.85247287468561 6.75 2.8005763023806871
v 5.25 -3.6982511967935841 5.0544201180155968
v 5.25 -9.5630022612322083 5.1336891375138221
v -3.75 -3.465157883662958 4.6712674922710136
v 0.75 2.25 5.0625
v 21.75 -9.5932157038466777 5.1494361536754338
v -6.75 -9.9826518717287858 4.783419585610261
v -3.75 -9.7914022288766134 5.4122292418703299
v 17.25 -6.75 5.0625
v 0.75 -9.75 5.0625
v 12.75 -9.977963969693926 4.9478673353826661
v 11.2039402246702 3.75 4.9187827013734697
v -6.75 5.25 5.0625
v 9.75 2.3341181712053301 5.3746301249864299
v 11.366324503449571 -0.80747122983021691 6.75
v 11.25 0.75 5.0625
v 11.12408684848042 -0.57159965781686428 0.75
v 9.75 -3.75 5.0625
v -9.6156552897929899 -9.5172123585422952 0.75
v -5.1308223100549926 0.75 5.1885319055131474
v 11.25 -8.25 5.0625
v 9.75 -9.75 5.0625
v -5.2646443867855819 -1.097389634095314 6.75
v 8.25 -11.25 5.0625
v 6.75 -12.69371437811891 5.0159281057194649
v 6.75 3.75 5.0625
v 5.25 2.023205518542575 5.2441824187034261
v 15.551892852734049 -11.25 2.716035715755317
v 15.543953439340189 -9.617969112173915 0.75
v 7.5716094190923506 -2.25 3.656971082005676
v 7.5 -2.25 0.75
v -1.5 -2.25 6.75
v 7.5 -5.25 6.75
v -1.410945275751869 -2.25 3.4734210803229049
v 7.3804977087961472 -8.5597205998484434 6.75
v -1.5 -2.25 0.75
v 3.0741418035799151 -2.4524076609089001 6.75
v 2.9764308114328202 -8.25 3.598930199386845
v -4.5 6.75 6.75
v 15 -5.25 6.75
v 15 -5.25 3.375
v 15 -5.25 0.75
v 19.581328335810412 -11.25 0.75
v 19.581328335810412 -11.25 6.75
v -9 -5.25 6.75
v -9 -5.25 0.75
v 16.2608166597972 -11.25 4.5921926470953771
v -8.90625 -11.25 6.75
v -8.9852853079473682 -11.25 3.7514835649993201
v -8.90625 -11.25 0.75
v -8.4375 -9.9375 6.75
v 12.75 -0.9375 2.0625
v 12.75 -3.2951987050319498 4.9852018726684832
v -6.75 -1.125030528820953 2.2853924035935318
v -6.75 -4.0980419677763287 4.8115465666953474
v -5.2669744995718588 -6.7613481594152249 6.75
v -5.3945689767691789 -6.5440776892343138 0.75
v -5.2610927977673043 5.4801226166544268 6.75
v 11.33125127848349 -3.8061555394021478 6.75
v 11.25 -6.75 6.75
v -5.0553559710443237 -0.76428297026550629 0.75
v -0.75 2.25 0.75
v 8.1532480112910246 -9.8645144214775762 6.75
v -5.25 -3.75 6.75
v 6.7534214923238087 -2.25 4.9982373119882526
v -12.62353889475918 -8.25 5.234484666699279
v 4.125 -8.25 5.0625
v 20.246942368990169 -8.25 4.9916366051260272
v 18.375 -8.25 5.0625
v -3.6242817032081569 6.75 5.0057441891413479
v 1.875 -8.25 5.0625
v -5.6013849252910246 6.75 5.2402084393122914
v 8.4430463361655175 -2.25 5.1462351620217506
v 4.875 -13.5 6.75
v -14.217063261809891 -10.04432872496546 0.75
v 1.2055678325958381 -12.94906859617814 6.75
v -11.25 -6.75 2.0625
v 5.25 -3.75 2.0625
v 5.25 -9.75 2.0625
v -3.75 -3.6445441961380101 2.3579119729479499
v -5.3394011221537774 -8.25 2.2326740276651709
v -15.75 -9.75 2.0625
v 0.75 2.5093145953007361 1.8484327951099351
v 21.75 -9.8660355854895752 2.05466025617093
v 0.75 -3.6653711898719532 2.2413763537570821
v 11.22502047102714 3.75 2.192496525836964
v 10.98291242591084 0.75 1.9729436697058269
v -6.75 5.0523906567163657 2.085424781245123
v 9.75 -3.9746684826878109 2.0153162369036481
v -5.0501037235822883 0.75 1.997824979635672
v 8.25 -11.25 2.0625
v 6.75 -12.837808538204481 2.128397015780926
v 6.75 3.75 2.0625
v 5.25 2.25 2.0625
v 7.3713598867833303 -9.3027419709779871 0.75
v -12.28125 -9.75 6.75
v -14.56869320210628 -9.5175535108861276 6.75
v 6.6192985789194898 -6.9214108426729766 0.75
v -2.4203563765008438 -6.8317293671764947 6.75
v -2.625 -6.75 0.75
v 1.9945912836715229 -0.42594268052971868 6.75
v 20.507516455996772 -9.78408380565239 6.75
v 4.5046402308531901 -14.25 6.75
v 4.9048571781974353 -14.25 2.9185089553193828
v 4.875 -14.25 0.75
v 4.125 -12.75 0.75
v 1.125 -14.25 6.75
v 1.1370558867477369 -14.25 2.564036850833356
v 1.125 -14.25 0.75
v 8.625 -0.75 6.75
v -9.905424224636084 -6.5290896425201357 0.75
v -0.375 -6.75 6.75
v -0.63204833435704488 -6.762462035062426 0.75
v -6.75 -3.9813367780260629 2.117554218584822
v 12.75 -3.9375 2.0625
v 6 2.0625 6.75
v -2.5752869013527908 -11.25 4.9899497496656409
v -4.8536905990482451 3.75 4.9973660692141237
v -0.75 -12.23746736327189 5.1024046801832146
v -0.75 -13.452418810431601 5.054609353782924
v -2.25 5.7032688252331596 5.1644871277041604
v -1.0903683278678731 3.75 5.0076063008377147
v -1.802166654301377 1.936342182330332 6.75
v -11.25 -6 5.0625
v -11.25 -7.4901036031734556 5.1119122056005928
v -3.75 3 5.0625
v 18.66271374274212 -9.8528799365899946 6.75
v 18.46875 -9.75 0.75
v 6.4172299341454231 -5.25 2.1660222660152271
v -12.375 -8.25 2.0625
v -2.625 -5.25 2.0625
v 4.0434102317272771 -11.25 1.9058635504716419
v 20.625 -8.25 2.0625
v 18.375 -8.25 2.0625
v 8.6230200805819237 -5.25 2.2697324547412139
v 14.275243581949519 -11.25 2.0862233056092241
v 20.331343813363539 -11.25 2.276892734295684
v -8.2697292337057391 -8.4347660815260443 6.75
v 18.8455035267698 -11.25 2.414804686077678
v 5.25 -5.25 5.0492211568165386
v 5.25 -8.25 5.0625
v 5.25 -11.25 5.0625
v -6.75 -8.25 5.0625
v 3.0753758736352719 0.75 4.8533209879013546
v -3.75 0.75 5.0625
v 3 -11.25 5.0625
v 0.75 3.75 5.0625
v -3.75 -8.25 5.0625
v 0.75 0.75 5.0625
v 21.75 -8.25 5.0625
v -15.75 -8.25 5.0625
v 17.25 -8.25 5.0625
v 17.4375 -11.25 5.0625
v 0.75 -8.25 5.0625
v 12.75 -0.99990074884698754 6.75
v 12.75 -0.9375 3.375
v 0.75 -11.25 5.0625
v 12.75 -0.9375 0.75
v 12.75 -8.25 5.0625
v 3 -14.25 5.0625
v 9.75 3.75 5.0625
v -0.75 -11.25 5.0625
v 8.25 6.75 5.0625
v -2.25 3.7531595003317069 5.1047551075437756
v 8.25 3.75 5.0625
v -6.75 -0.9375 6.75
v 6.75 -11.25 5.0265532697429363
v -1.5 -5.25 5.0625
v -6.75 -1.025268363448621 3.494682402374317
v -6.75 -0.9375 0.75
v 5.25 3.75 5.0625
v -3.75 3.75 5.0625
v 5.25 0.75 5.1216367262297284
v -5.7657480389176454 5.1420168654139502 0.75
v -0.216852962610147 -9.4852126095374469 6.75
v 8.3465684691571305 -10.36530159692833 0.75
v -3.5914663032995988 5.3819730974271289 6.75
v 3.9375 -7.21875 6.75
v 10.386369140449929 -6.7831017622012793 0.75
v 1.875 -0.375 0.75
v 5.8520459988639164 -0.89811723962819323 6.75
v -3.75 2.9032126229677289 1.7838221804597401
v 17.34375 -9.75 6.75
v 5.25 -9.75 6.75
v 0.75 -0.75 6.75
v -6.6195580299078829 -6.6657093877367508 0.75
v 12.75 -9.75 0.75
v -5.2676876996821997 3.75 6.75
v 11.25 3.75 0.75
v 8.25 -11.25 0.75
v 6.75 3.75 6.75
v -5.3283824937802722 -5.255974632187864 6.75
f 236 2 1 
f 1 2 351 
f 1 4 344 
f 351 4 1 
f 269 236 1 
f 344 269 1 
f 164 3 2 
f 2 3 420 
f 2 5 351 
f 420 5 2 
f 236 164 2 
f 366 6 3 
f 3 6 420 
f 3 164 266 
f 3 266 366 
f 4 5 12 
f 351 5 4 
f 4 12 344 
f 13 12 5 
f 420 13 5 
f 366 14 6 
f 6 14 420 
f 7 8 236 
f 256 8 7 
f 269 10 7 
f 7 10 288 
f 7 236 269 
f 319 256 7 
f 7 288 319 
f 8 9 164 
f 203 9 8 
f 8 164 236 
f 318 203 8 
f 8 256 318 
f 320 11 9 
f 9 11 365 
f 266 164 9 
f 9 203 317 
f 365 266 9 
f 9 317 320 
f 10 12 15 
f 344 12 10 
f 10 15 288 
f 10 269 344 
f 18 17 11 
f 11 17 365 
f 260 18 11 
f 407 260 11 
f 11 320 407 
f 12 13 399 
f 399 15 12 
f 335 16 13 
f 13 16 399 
f 420 335 13 
f 14 17 335 
f 365 17 14 
f 14 335 420 
f 366 365 14 
f 15 16 346 
f 399 16 15 
f 346 19 15 
f 15 19 380 
f 15 22 288 
f 380 22 15 
f 335 17 16 
f 16 17 394 
f 16 20 346 
f 393 20 16 
f 394 393 16 
f 17 18 394 
f 260 21 18 
f 18 21 393 
f 18 393 394 
f 19 20 255 
f 346 20 19 
f 19 255 315 
f 19 315 380 
f 20 21 171 
f 393 21 20 
f 20 171 255 
f 314 171 21 
f 21 260 314 
f 27 26 22 
f 22 26 288 
f 455 27 22 
f 315 30 22 
f 22 30 455 
f 380 315 22 
f 26 24 23 
f 23 24 256 
f 319 26 23 
f 23 256 319 
f 24 25 203 
f 276 25 24 
f 24 26 28 
f 24 28 276 
f 24 203 318 
f 318 256 24 
f 276 29 25 
f 25 29 320 
f 317 203 25 
f 320 317 25 
f 26 27 28 
f 319 288 26 
f 350 28 27 
f 326 54 27 
f 27 54 350 
f 455 326 27 
f 350 55 28 
f 28 55 417 
f 412 276 28 
f 417 412 28 
f 29 32 260 
f 325 32 29 
f 29 56 325 
f 417 56 29 
f 29 260 407 
f 29 276 412 
f 407 320 29 
f 29 412 417 
f 255 31 30 
f 30 31 383 
f 30 33 57 
f 383 33 30 
f 30 57 326 
f 315 255 30 
f 30 326 455 
f 171 32 31 
f 31 32 324 
f 324 34 31 
f 31 34 383 
f 255 171 31 
f 32 35 324 
f 333 35 32 
f 32 171 314 
f 314 260 32 
f 32 325 461 
f 461 333 32 
f 33 34 323 
f 383 34 33 
f 60 57 33 
f 330 60 33 
f 33 323 439 
f 439 330 33 
f 324 262 34 
f 34 262 438 
f 438 323 34 
f 35 262 324 
f 435 262 35 
f 333 292 35 
f 35 292 435 
f 323 37 36 
f 36 37 359 
f 36 63 330 
f 359 63 36 
f 439 323 36 
f 36 330 439 
f 262 38 37 
f 37 38 289 
f 289 64 37 
f 37 64 359 
f 438 262 37 
f 37 323 438 
f 38 65 289 
f 292 65 38 
f 38 262 435 
f 435 292 38 
f 46 40 39 
f 39 40 357 
f 357 42 39 
f 39 42 443 
f 39 45 46 
f 443 45 39 
f 46 41 40 
f 40 41 282 
f 282 43 40 
f 40 43 357 
f 41 44 282 
f 327 44 41 
f 41 46 387 
f 457 327 41 
f 41 387 457 
f 42 43 49 
f 357 43 42 
f 48 47 42 
f 42 47 443 
f 49 48 42 
f 282 44 43 
f 43 44 341 
f 341 49 43 
f 327 308 44 
f 44 308 341 
f 68 46 45 
f 45 47 67 
f 443 47 45 
f 45 67 68 
f 46 68 387 
f 47 48 82 
f 82 67 47 
f 48 49 85 
f 84 82 48 
f 85 84 48 
f 339 85 49 
f 341 339 49 
f 50 51 53 
f 70 51 50 
f 50 53 54 
f 50 54 70 
f 51 52 277 
f 386 52 51 
f 277 53 51 
f 51 70 71 
f 51 71 386 
f 72 56 52 
f 52 56 277 
f 386 72 52 
f 55 54 53 
f 417 55 53 
f 53 277 417 
f 54 55 350 
f 326 57 54 
f 54 57 369 
f 73 70 54 
f 369 73 54 
f 56 59 325 
f 368 59 56 
f 56 72 74 
f 56 74 368 
f 417 277 56 
f 349 58 57 
f 57 58 400 
f 57 60 349 
f 57 75 369 
f 400 75 57 
f 273 59 58 
f 58 59 437 
f 58 76 400 
f 437 76 58 
f 349 273 58 
f 273 62 59 
f 59 62 333 
f 368 77 59 
f 59 77 437 
f 461 325 59 
f 59 333 461 
f 254 61 60 
f 60 61 349 
f 60 63 209 
f 330 63 60 
f 60 209 305 
f 305 254 60 
f 166 62 61 
f 61 62 273 
f 303 166 61 
f 61 254 303 
f 61 273 349 
f 207 65 62 
f 62 65 292 
f 62 166 301 
f 301 207 62 
f 62 292 333 
f 359 64 63 
f 63 64 451 
f 63 67 79 
f 451 67 63 
f 63 79 331 
f 331 209 63 
f 414 68 64 
f 64 68 451 
f 64 289 414 
f 392 66 65 
f 65 66 414 
f 207 78 65 
f 65 78 392 
f 414 289 65 
f 81 69 66 
f 66 69 395 
f 392 81 66 
f 66 395 414 
f 451 68 67 
f 82 79 67 
f 441 387 68 
f 414 395 68 
f 68 395 441 
f 69 81 446 
f 446 327 69 
f 69 327 457 
f 69 387 441 
f 457 387 69 
f 441 395 69 
f 93 71 70 
f 70 73 92 
f 70 92 93 
f 71 93 431 
f 431 386 71 
f 94 74 72 
f 431 94 72 
f 72 386 431 
f 108 92 73 
f 382 108 73 
f 73 369 382 
f 74 94 444 
f 74 110 381 
f 444 110 74 
f 381 368 74 
f 75 76 114 
f 400 76 75 
f 114 113 75 
f 75 113 382 
f 382 369 75 
f 437 114 76 
f 381 115 77 
f 77 115 437 
f 77 368 381 
f 78 121 122 
f 454 121 78 
f 78 122 392 
f 78 207 454 
f 83 80 79 
f 79 80 96 
f 79 82 83 
f 96 95 79 
f 79 95 331 
f 80 83 433 
f 391 96 80 
f 433 391 80 
f 390 86 81 
f 81 86 446 
f 81 97 391 
f 392 97 81 
f 433 390 81 
f 81 391 433 
f 85 83 82 
f 82 84 85 
f 83 85 390 
f 83 390 433 
f 339 86 85 
f 85 86 390 
f 339 308 86 
f 86 308 446 
f 87 88 90 
f 377 88 87 
f 87 90 92 
f 87 92 102 
f 87 102 378 
f 378 377 87 
f 258 89 88 
f 88 89 389 
f 389 90 88 
f 377 258 88 
f 345 91 89 
f 89 91 389 
f 89 258 376 
f 376 345 89 
f 93 92 90 
f 388 93 90 
f 389 388 90 
f 104 94 91 
f 91 94 388 
f 345 104 91 
f 91 388 389 
f 108 102 92 
f 93 388 431 
f 94 104 444 
f 431 388 94 
f 95 96 124 
f 124 123 95 
f 95 123 331 
f 416 124 96 
f 96 391 416 
f 97 122 125 
f 392 122 97 
f 97 125 416 
f 416 391 97 
f 373 99 98 
f 98 99 377 
f 98 126 375 
f 378 126 98 
f 374 373 98 
f 375 374 98 
f 98 377 378 
f 373 257 99 
f 99 257 429 
f 99 258 377 
f 429 258 99 
f 343 101 100 
f 100 101 345 
f 100 257 372 
f 429 257 100 
f 376 258 100 
f 100 258 429 
f 372 343 100 
f 100 345 376 
f 128 104 101 
f 101 104 345 
f 137 128 101 
f 343 137 101 
f 108 103 102 
f 102 103 127 
f 127 126 102 
f 102 126 378 
f 103 108 109 
f 103 109 279 
f 426 127 103 
f 103 279 426 
f 279 110 104 
f 104 110 444 
f 104 128 426 
f 426 279 104 
f 105 231 408 
f 422 231 105 
f 105 248 313 
f 406 248 105 
f 105 313 422 
f 408 406 105 
f 106 107 227 
f 229 107 106 
f 106 173 229 
f 270 173 106 
f 106 227 270 
f 107 223 225 
f 226 223 107 
f 107 225 227 
f 229 226 107 
f 129 109 108 
f 113 111 108 
f 108 111 129 
f 382 113 108 
f 109 129 307 
f 423 279 109 
f 109 307 340 
f 109 340 423 
f 110 112 115 
f 130 112 110 
f 110 115 381 
f 340 130 110 
f 110 279 423 
f 423 340 110 
f 111 113 265 
f 138 129 111 
f 141 138 111 
f 264 141 111 
f 265 264 111 
f 233 115 112 
f 112 130 447 
f 112 143 233 
f 447 143 112 
f 113 114 354 
f 113 116 265 
f 354 116 113 
f 114 115 117 
f 437 115 114 
f 114 117 354 
f 118 117 115 
f 233 118 115 
f 116 117 254 
f 354 117 116 
f 209 119 116 
f 116 119 449 
f 116 131 265 
f 449 131 116 
f 305 209 116 
f 116 254 305 
f 117 118 166 
f 117 166 303 
f 303 254 117 
f 301 166 118 
f 118 207 301 
f 454 207 118 
f 306 228 118 
f 118 228 370 
f 118 233 306 
f 118 370 454 
f 119 120 132 
f 352 120 119 
f 331 123 119 
f 119 123 352 
f 119 132 449 
f 119 209 331 
f 120 124 274 
f 352 124 120 
f 133 132 120 
f 413 133 120 
f 120 274 418 
f 418 413 120 
f 274 122 121 
f 370 134 121 
f 121 134 413 
f 418 274 121 
f 454 370 121 
f 121 413 418 
f 416 125 122 
f 122 274 416 
f 123 124 352 
f 416 274 124 
f 126 127 401 
f 126 135 375 
f 401 135 126 
f 127 136 401 
f 415 136 127 
f 426 415 127 
f 128 137 415 
f 128 415 426 
f 129 138 139 
f 129 139 307 
f 336 140 130 
f 130 140 447 
f 340 336 130 
f 131 132 144 
f 449 132 131 
f 131 144 264 
f 131 264 265 
f 132 133 148 
f 148 144 132 
f 149 148 133 
f 413 149 133 
f 228 150 134 
f 134 150 413 
f 370 228 134 
f 135 136 348 
f 401 136 135 
f 135 138 157 
f 348 138 135 
f 157 154 135 
f 135 154 374 
f 135 374 375 
f 272 139 136 
f 136 139 348 
f 411 272 136 
f 415 411 136 
f 343 159 137 
f 137 159 453 
f 137 272 411 
f 453 272 137 
f 137 411 415 
f 348 139 138 
f 138 141 367 
f 364 157 138 
f 138 160 364 
f 367 160 138 
f 139 272 410 
f 336 307 139 
f 410 336 139 
f 208 143 140 
f 140 143 447 
f 304 208 140 
f 410 272 140 
f 140 272 453 
f 453 304 140 
f 140 336 410 
f 347 142 141 
f 141 142 398 
f 264 144 141 
f 141 144 347 
f 141 161 367 
f 398 161 141 
f 142 145 271 
f 347 145 142 
f 165 162 142 
f 142 162 398 
f 409 165 142 
f 142 271 409 
f 143 146 233 
f 271 146 143 
f 302 165 143 
f 143 165 409 
f 143 208 302 
f 409 271 143 
f 253 145 144 
f 144 145 347 
f 144 148 235 
f 144 235 300 
f 300 253 144 
f 145 146 271 
f 334 146 145 
f 145 253 299 
f 145 299 334 
f 334 163 146 
f 146 163 450 
f 146 228 306 
f 450 228 146 
f 306 233 146 
f 385 150 147 
f 147 150 450 
f 147 163 379 
f 450 163 147 
f 194 170 147 
f 147 170 385 
f 379 194 147 
f 148 149 363 
f 148 151 263 
f 363 151 148 
f 263 235 148 
f 296 152 149 
f 149 152 363 
f 442 296 149 
f 149 413 442 
f 150 153 296 
f 385 153 150 
f 150 228 450 
f 150 296 442 
f 442 413 150 
f 151 152 362 
f 363 152 151 
f 151 168 263 
f 362 168 151 
f 295 169 152 
f 152 169 362 
f 440 295 152 
f 152 296 440 
f 153 295 440 
f 460 295 153 
f 440 296 153 
f 153 385 460 
f 361 155 154 
f 154 155 373 
f 154 157 361 
f 154 373 374 
f 155 156 257 
f 294 156 155 
f 155 257 373 
f 361 294 155 
f 294 159 156 
f 156 159 343 
f 372 257 156 
f 156 343 372 
f 360 158 157 
f 157 158 361 
f 459 360 157 
f 157 364 445 
f 157 445 459 
f 158 178 293 
f 360 178 158 
f 158 293 436 
f 158 294 361 
f 436 294 158 
f 293 179 159 
f 159 179 332 
f 436 293 159 
f 159 294 436 
f 159 332 453 
f 160 161 185 
f 367 161 160 
f 182 180 160 
f 160 180 364 
f 448 182 160 
f 160 185 448 
f 398 162 161 
f 161 162 404 
f 404 185 161 
f 162 165 186 
f 162 186 404 
f 342 191 163 
f 163 191 379 
f 163 334 342 
f 187 186 165 
f 302 187 165 
f 167 214 215 
f 310 214 167 
f 167 215 309 
f 243 242 167 
f 167 242 310 
f 309 243 167 
f 168 169 172 
f 362 169 168 
f 168 172 174 
f 168 174 195 
f 168 195 263 
f 434 172 169 
f 169 295 434 
f 199 176 170 
f 170 176 432 
f 170 194 197 
f 170 197 199 
f 434 295 170 
f 170 295 460 
f 460 385 170 
f 170 432 434 
f 175 174 172 
f 432 175 172 
f 434 432 172 
f 270 175 173 
f 173 175 432 
f 173 201 229 
f 432 201 173 
f 174 175 200 
f 198 195 174 
f 200 198 174 
f 270 200 175 
f 176 199 201 
f 176 201 432 
f 180 178 177 
f 177 178 360 
f 445 180 177 
f 177 360 459 
f 459 445 177 
f 291 179 178 
f 178 179 293 
f 178 180 183 
f 178 183 291 
f 291 184 179 
f 179 184 332 
f 180 182 183 
f 445 364 180 
f 181 210 213 
f 456 210 181 
f 181 213 311 
f 240 237 181 
f 181 237 298 
f 311 240 181 
f 181 298 456 
f 202 183 182 
f 448 202 182 
f 290 184 183 
f 183 184 291 
f 183 202 211 
f 183 211 290 
f 184 187 208 
f 329 187 184 
f 184 208 304 
f 290 212 184 
f 184 212 329 
f 184 304 332 
f 185 186 358 
f 404 186 185 
f 185 189 213 
f 358 189 185 
f 185 213 448 
f 186 187 287 
f 287 190 186 
f 186 190 358 
f 187 191 287 
f 328 191 187 
f 302 208 187 
f 187 215 328 
f 329 215 187 
f 212 206 188 
f 188 206 267 
f 234 212 188 
f 267 232 188 
f 188 232 452 
f 239 234 188 
f 452 239 188 
f 189 190 253 
f 358 190 189 
f 235 192 189 
f 189 192 286 
f 216 213 189 
f 286 216 189 
f 300 235 189 
f 189 253 300 
f 287 191 190 
f 190 191 342 
f 299 253 190 
f 342 299 190 
f 284 194 191 
f 191 194 379 
f 191 218 284 
f 328 218 191 
f 195 193 192 
f 192 193 356 
f 263 195 192 
f 192 219 286 
f 356 219 192 
f 192 235 263 
f 283 194 193 
f 193 194 285 
f 193 195 196 
f 193 196 283 
f 285 220 193 
f 193 220 356 
f 283 197 194 
f 284 221 194 
f 194 221 285 
f 355 196 195 
f 195 198 458 
f 458 355 195 
f 196 223 281 
f 355 223 196 
f 196 281 430 
f 430 283 196 
f 224 199 197 
f 281 224 197 
f 430 281 197 
f 197 283 430 
f 198 200 225 
f 225 222 198 
f 198 222 458 
f 226 201 199 
f 199 224 226 
f 227 225 200 
f 270 227 200 
f 201 226 229 
f 202 210 211 
f 213 210 202 
f 448 213 202 
f 405 205 204 
f 204 205 456 
f 204 268 405 
f 456 268 204 
f 259 206 205 
f 205 206 280 
f 280 211 205 
f 205 211 456 
f 297 259 205 
f 405 297 205 
f 206 212 280 
f 206 259 267 
f 456 211 210 
f 211 280 428 
f 428 290 211 
f 234 215 212 
f 212 215 329 
f 428 280 212 
f 212 290 428 
f 213 214 311 
f 384 214 213 
f 213 216 384 
f 322 215 214 
f 214 217 322 
f 384 217 214 
f 214 310 311 
f 322 218 215 
f 215 218 328 
f 215 234 309 
f 321 217 216 
f 216 217 384 
f 216 286 427 
f 427 321 216 
f 217 261 322 
f 425 261 217 
f 217 321 425 
f 322 261 218 
f 218 261 424 
f 424 284 218 
f 219 220 321 
f 356 220 219 
f 427 286 219 
f 219 321 427 
f 220 221 261 
f 285 221 220 
f 220 261 425 
f 425 321 220 
f 424 261 221 
f 221 284 424 
f 225 223 222 
f 222 223 355 
f 222 355 458 
f 226 224 223 
f 223 224 281 
f 230 231 297 
f 408 231 230 
f 298 237 230 
f 230 237 397 
f 297 268 230 
f 230 268 298 
f 397 312 230 
f 230 312 408 
f 316 297 231 
f 422 316 231 
f 232 267 316 
f 232 313 396 
f 422 313 232 
f 232 316 422 
f 232 396 452 
f 234 239 243 
f 234 243 309 
f 240 238 237 
f 237 238 403 
f 237 244 397 
f 403 244 237 
f 238 240 242 
f 238 242 278 
f 338 245 238 
f 238 245 403 
f 238 278 421 
f 421 338 238 
f 278 243 239 
f 239 246 338 
f 396 246 239 
f 421 278 239 
f 239 338 421 
f 452 396 239 
f 240 241 242 
f 311 241 240 
f 311 242 241 
f 242 243 278 
f 311 310 242 
f 244 245 402 
f 403 245 244 
f 244 250 312 
f 402 250 244 
f 244 312 397 
f 337 251 245 
f 245 251 402 
f 338 337 245 
f 246 252 337 
f 371 252 246 
f 246 337 338 
f 396 371 246 
f 353 248 247 
f 247 248 406 
f 312 250 247 
f 247 250 353 
f 406 312 247 
f 275 249 248 
f 248 249 313 
f 248 251 275 
f 353 251 248 
f 275 252 249 
f 249 252 371 
f 371 313 249 
f 250 251 353 
f 402 251 250 
f 419 275 251 
f 251 337 419 
f 252 275 419 
f 419 337 252 
f 316 267 259 
f 259 297 316 
f 266 365 366 
f 268 297 405 
f 456 298 268 
f 342 334 299 
f 453 332 304 
f 307 336 340 
f 308 327 446 
f 308 339 341 
f 312 406 408 
f 313 371 396 
