v -18.75 -8.25 -0.75
v -18.75 -8.25 1.875
v -18.75 -8.25 5.25
v -18.75 -5.625 -0.75
v -18.75 -5.6962197871736739 1.745006139341057
v -18.75 -5.625 5.25
v -18.75 -2.25 -0.75
v -18.75 -2.25 1.875
v -18.75 -2.25 5.25
v 11.37991733564791 -3.7555090793989061 5.25
v -6.75 2.25 5.25
v -6.9728494923571116 0.75 3.8881326055419292
v -16.125 -2.25 -0.75
v -16.305502554017899 -2.25 1.859421452860456
v -16.125 -2.25 5.25
v -15.75 -8.25 -0.75
v -15.75 -8.25 1.875
v -15.75 -8.25 5.25
v -0.75 2.25 -0.75
v -15.75 -5.25 -0.75
v -15.75 -5.25 1.875
v -15.75 -5.25 5.25
v -13.125 -5.25 -0.75
v -13.133989515054591 -5.25 1.7987294515151699
v -13.125 -5.25 5.25
v -12.75 -2.25 -0.75
v -12.75 -2.25 1.875
v -12.75 -2.25 5.25
v -12.75 0.375 -0.75
v -12.75 0.375 1.875
v -12.75 0.375 5.25
v -12.75 3.75 -0.75
v -12.75 3.75 1.875
v -12.75 3.75 5.25
v -8.7944305509772249 -3.8004308316799462 -0.75
v -8.311005642525112 2.0810461886528482 -0.75
v -9.75 -8.25 -0.75
v -9.75 -8.25 1.875
v -9.75 -8.25 5.25
v -6.75 0.75 5.25
v -6.75 -2.25 5.25
v -0.72935094219055052 0.6362778706178831 -0.75
v -9.75 -5.25 -0.75
v -9.75 -5.25 1.9492916525102799
v -9.75 -5.25 5.25
v -9.75 -2.25 2.25
v 11.25 -2.25 5.25
v -9.75 -2.25 5.25
v -9.75 0.75 2.25
v -9.75 0.75 5.25
v -9.75 3.75 -0.75
v -9.75 3.75 1.8833564487896339
v -9.75 3.75 5.25
v -9.75 6.75 -0.75
v -9.75 6.75 1.875
v -9.75 6.75 5.25
v -4.2811116789409986 -5.25 3.4641553714873812
v -4.441526088427354 3.75 3.4024342192784629
v -8.25 -2.25 2.25
v -6.5393646568999131 -2.25 3.2857927748850928
v -6.75 -8.25 -0.75
v -6.75 -8.25 1.875
v -6.75 -8.25 5.25
v -6.75 -5.25 -0.75
v -6.75 -5.25 1.875
v -6.75 -5.25 5.25
v -6.75 -2.25 -0.75
v -6.75 -2.25 0.75
v -6.75 -2.25 2.25
v -6.75 -0.75 -0.75
v -6.75 -0.54087644134115909 0.7059696202363257
v -6.7557384610534772 -0.75772769688715913 2.25
v -6.75 0.75 -0.75
v -6.75 0.75 2.25
v -6.75 3.75 -0.75
v -6.75 3.75 1.875
v -6.75 3.75 5.25
v 0.09375 3.75 3.5625
v 0.09375 -5.25 3.5625
v -6.75 6.75 -0.75
v -6.75 6.75 1.875
v -6.75 6.75 5.25
v -2.0625 -5.25 -0.75
v -2.124327689860154 -5.25 1.5584139458688031
v -1.9448201132132801 -5.25 5.25
v -2.0625 3.75 -0.75
v -1.9528905261152141 3.75 1.6465290461743161
v -2.0625 3.75 5.25
v -3.75 -2.25 -0.75
v -3.75 -2.25 1.875
v -3.75 -2.25 5.25
v -3.75 0.75 -0.75
v -3.75 0.75 1.875
v -3.75 0.75 5.25
v -0.75 -2.25 2.25
v -0.75 -2.25 3.75
v -0.75 -2.25 5.25
v -0.75 -0.79820180690709042 2.25
v -0.75 -0.66151647847943329 3.7462905150177779
v -0.75 0.75 2.25
v -0.75 0.75 5.25
v 0.75 -2.25 2.25
v 1.764080324852219 -2.25 5.25
v 0.76475999194304345 -0.85024451242487142 2.25
v 0.75 0.75 2.25
v 1.875 0.75 5.25
v 2.25 -8.25 -0.75
v 2.25 -8.25 1.875
v 2.25 -8.25 5.25
v 2.25 -5.25 -0.75
v 2.25 -5.25 1.875
v 2.25 -5.25 5.25
v 2.25 -2.25 -0.75
v 2.25 -2.25 0.75
v 2.25 -2.25 2.25
v 2.25 -0.83467685362401167 0.55855834513768554
v 2.25 -0.67275735056074082 2.25
v 2.25 0.75 -0.75
v 2.25 0.75 0.75
v 2.25 0.75 2.25
v 2.25 3.75 -0.75
v 2.25 3.75 1.875
v 2.25 3.75 5.25
v -4.1757902089438863 -5.25 0.78245475345811866
v 2.25 6.75 -0.75
v 2.2615807299589759 6.75 2.007767999337871
v 2.25 6.75 5.25
v 3.75 -2.25 -0.75
v 3.75 0.75 -0.75
v 0.39452872149562768 -3.424414423049428 -0.75
v 5.25 -8.25 -0.75
v 5.25 -8.25 1.875
v 5.25 -8.25 5.25
v 5.25 -5.25 -0.75
v 5.25 -5.25 1.875
v 5.25 -5.25 5.25
v 5.25 -2.25 -0.75
v 5.25 -2.25 1.875
v 5.25 -2.25 5.25
v 5.25 -0.75 -0.75
v 5.25 0.75 -0.75
v 5.25 0.75 1.875
v 5.25 0.75 5.25
v 5.25 3.75 -0.75
v 5.25 3.75 1.875
v 5.25 3.75 5.25
v 5.25 6.75 -0.75
v 5.25 6.75 1.875
v 5.25 6.75 5.25
v 7.875 -5.25 -0.75
v 7.875 -5.25 1.875
v 7.875 -5.25 5.25
v 6.75 3.75 5.25
v 8.25 -2.25 -0.75
v 8.25 -2.25 1.875
v 8.25 -2.25 5.25
v 8.25 0.375 -0.75
v 8.25 0.375 5.25
v 8.25 3.75 -0.75
v 8.25 3.75 1.7511410111154
v 8.25 3.75 5.25
v 10.875 -2.25 -0.75
v 10.69494507624105 -2.25 1.718315363908983
v 11.25 -8.25 -0.75
v 11.25 -8.25 1.875
v 11.25 -8.25 5.25
v 11.25 -5.25 -0.75
v 11.25 -5.25 1.875
v 11.25 -5.25 5.25
v 12.75 -8.25 -0.75
v 14.25 -8.25 -0.75
v 14.25 -8.25 1.875
v 14.25 -8.25 5.25
v 14.25 -5.625 -0.75
v 14.25 -5.6773163007328984 1.8184086733991061
v 14.25 -5.625 5.25
v 14.25 -2.25 -0.75
v 14.25 -2.25 1.875
v 14.24988186533807 -2.2572261392937971 5.25
v 0.1821135104642049 3.75 1.3003210525048849
v 0.09375 -5.25 0.5625
v -14.55060056174049 -2.25 3.469798999906279
v -18.75 -3.9375 3.5625
v 3.5625 0.75 3.5625
v 3.274543218369391 -2.25 3.4663285705634208
v -11.4375 -5.25 3.5625
v 14.25 -3.9375 3.5625
v 8.25 2.4186686999165148 3.5937183597785469
v 9.3786157982609542 -5.25 3.7143473993442102
v -12.75 2.0625 3.5625
v -4.40625 3.75 5.25
v -4.40625 3.75 1.875
v -4.40625 -5.25 5.25
v -4.40625 -5.25 -0.75
v 3.763331919686502 6.75 3.5829737122603902
v -10.99192996789723 2.0617860604159342 -0.75
v 2.25 5.25 3.5625
v -8.25 6.75 3.5625
v 3.832435714036043 -8.25 3.7219266934671462
v -9.75 5.186913100243407 3.4592508953172389
v 2.25 -6.7468113720775493 3.570047852570907
v -3.75 -0.8149084172585177 3.3411526373962568
v -8.194462891537464 -8.25 3.782190856491042
v -9.75 -6.75 3.5625
v 12.75 -8.25 3.5625
v 11.25 -6.75 3.5625
v 5.25 5.25 3.5625
v 6.7815509898039386 3.75 3.3580890646261849
v -17.25 -8.25 3.5625
v 5.25 -0.867371540925712 3.4052016525699069
v -15.75 -6.8616006419933742 3.415010528072139
v 5.25 -6.75 3.5625
v -6.75 -6.75 3.5625
v 10.33484692283495 -2.25 4.5561862178478973
v 0.41639071617701789 -0.29703356777512918 -0.75
v 0.09375 3.75 5.25
v 0.09375 3.75 -0.75
v 0.09375 -5.25 5.25
v -0.1175080362181873 -5.25 1.9556721115502289
v 0.09375 -5.25 -0.75
v -14.528437804118029 -2.25 0.61920151355615438
v -11.50122364822675 -5.25 0.61939019357411251
v -17.401150098077341 -2.25 3.5470571023032229
v 14.25 -3.9375 0.5625
v -14.316871395496371 -5.25 3.5726324948990609
v 9.5625 -2.25 3.5625
v 8.25 -0.6888845118000827 3.6493979559574021
v 9.5864923831751057 -5.25 0.71443634471209516
v -18.75 -6.837191966001674 3.4823444942573398
v -18.75 -3.9375 0.5625
v 6.7023276917814636 -5.25 3.426460187530985
v -12.75 2.052435930798501 0.56945206024564532
v 3.75 5.25 -0.75
v 3.7010881565438951 5.2144707855030097 5.25
v 3.849751173870116 2.2409506065785441 5.25
v -11.17987015919922 -0.32605476840875391 5.25
v -11.25 -3.75 5.25
v 3.75 -3.75 5.25
v -8.25 5.25 5.25
v 3.75 -6.75 -0.75
v 3.75 -6.75 5.25
v -11.25 -3.75 -0.75
v -8.3170206276401064 5.3178766573493634 -0.75
v -14.374588154182449 -3.6635575121874582 -0.75
v 0.62479524952533161 2.4959977805169808 5.25
v -8.1531275362172604 -3.6956820494460478 5.25
v -9.75 -0.75 3.75
v -2.25 -0.75 5.25
v -17.25 -6.75 5.25
v -17.25 -3.75 5.25
v -8.25 -6.75 5.25
v -14.33896737513137 -3.5863702254451559 5.25
v -8.25 -6.75 -0.75
v -5.1406457177868186 2.1393359875630802 5.25
v -5.4174434947766859 2.2311554232917419 -0.75
v 9.7449226907097941 -3.7294401452225538 5.25
v -5.25 0.75 0.75
v -11.02970094767249 2.1905190537022219 5.25
v 6.75 -0.75 5.25
v -17.28072995860018 -3.8925753458142291 -0.75
v 6.7138843062595619 2.3748728249655779 -0.75
v -5.25 -3.75 5.25
v 6.669817258441177 -3.6735707578815071 5.25
v -5.2100354171317562 -3.6894289088668719 -0.75
v 6.75 -3.75 -0.75
v -7.867472272171387 -2.25 4.023517113897122
v 8.25 -0.2267567308517211 2.0625
v 3.8838036438104808 6.75 0.61390458383586177
v 2.25 5.25 0.5625
v -8.25 6.75 0.5625
v 2.25 -6.5364932685149544 0.67540109917048508
v 3.7229621609502428 -8.25 0.58163793891744464
v -9.75 5.1487656626621217 0.62792626756599579
v -3.75 -0.83608224230825168 0.61924846482477935
v -17.355318405465539 -8.25 0.57069694540731652
v 12.797592160976031 -6.5654893191053221 5.25
v -8.25 -8.25 0.5625
v -9.75 -6.8895059664851379 0.43285822819235392
v 11.25 -6.75 0.5625
v -17.273472778859709 -7.102085242238223 -0.75
v -6.75 5.2058143523446994 0.54532987084714579
v -11.17933804687485 3.75 0.529844453393709
v 6.8119681004142922 3.75 0.59466925340192034
v 5.25 5.1259203358656542 0.51233025612637961
v -15.75 -6.6629460506163722 0.63667937407480535
v 5.25 -6.8167357881045323 0.51545314836817291
v -6.75 -6.5679500689199477 0.58309642986580024
v -8.9546463118992854 -0.51404527906776676 -0.75
v 0.39452872149562768 -1.924414423049428 -0.75
v -5.2196693744737566 3.75 0.58159129516705776
v -12.75 -0.50147500133062184 0.45296743359671171
v 14.25 -6.9375 0.5625
v -14.4375 -5.25 0.5625
v -17.174459282952441 -2.25 0.57417831834977229
v 8.25 -0.48428031952807132 0.62271717543490412
v 9.5625 -2.25 0.5625
v -18.75 -6.8560937863020959 0.62457778803637032
v 6.5483266240204641 -5.25 0.56728162083263056
v -11.378991038432741 3.75 3.5594534457146119
v -10.057856508542381 -2.0919652493396779 -0.75
v -1.428901043540501 -3.279822406092487 -0.75
v -6.75 5.1651182663746802 3.8264743931477381
v -1.430581022198723 -1.5208404375322711 -0.75
v 8.25 1.796486538296558 2.25
v 10.450010523285981 -3.5146464341573451 -0.75
v 12.467689101573569 -2.25 0.62216982462734982
v 12.419693845669901 -2.25 3.8623724356957951
v -10.661722781779011 -0.67707036101762463 -0.75
v -4.0837117307087407 3.75 -0.75
v -5.2512153340593759 -2.25 4.0834976791992732
v 12.465591164658241 -3.6171853600465189 -0.75
v 8.25 2.7732432691482791 0.75000000000000022
v -3.180345974530439 2.374044089111699 5.25
v -2.646824839891158 2.1510539620311762 -0.75
v -3.2326882667112802 -3.7166210842153999 5.25
v 12.73672675381512 -3.212877291664328 5.25
v 12.75 -4.78125 5.25
v -3.3245239628384171 -3.9145535026695359 -0.75
v -7.6875 0.65625 -0.75
v 2.25 6.75 3.5836048969848249
v -14.4375 -2.25 5.25
v -12.75 2.0625 -0.75
v 2.25 3.75 3.5625
v -9.75 6.75 3.4409965351154268
v -18.75 -3.9375 5.25
v -14.4375 -2.25 1.875
v 2.25 -5.25 3.5625
v -12.75 -2.25 3.5625
v -9.75 3.75 3.5625
v 2.25 -8.25 3.5625
v -14.499096184105181 -2.25 -0.75
v 3.5625 0.75 5.25
v -18.75 -8.25 3.5625
v -11.4375 -5.25 5.25
v 3.5625 -2.25 5.25
v 14.25 -3.9375 5.25
v -11.427530077475829 -5.25 2.0071694660364101
v -18.75 -3.8796699425682339 1.9265550556676569
v -3.75 0.75 3.5625
v -12.95930712312671 -5.25 3.6498571664518669
v -3.75 -2.25 3.5625
v -11.40091689150767 -5.25 -0.75
v -18.75 -5.625 3.5625
v -9.75 -5.25 3.5625
v 14.25 -2.25 3.6800103223741059
v -2.16732259347644 3.75 3.6469602319642749
v 14.25 -3.8691408386237409 1.778606024709771
v 14.25 -5.6456660198535431 3.6512881663409318
v 14.25 -3.9375 -0.75
v 14.25 -8.25 3.5625
v -9.75 -8.25 3.5625
v -15.75 -5.25 3.5625
v 11.25 -5.25 3.5625
v -2.226336237254257 -5.25 3.5014665323912291
v 11.25 -8.25 3.5625
v -18.75 -2.25 3.6912305919049522
v 12.535000096631091 -2.25 2.053205782135088
v 12.5625 -2.25 -0.75
v -6.75 6.75 3.6597785893116099
v 8.25 3.75 3.5625
v 8.25 2.0015649905991868 5.25
v 8.25 2.0625 -0.75
v -6.75 3.75 3.5625
v 8.25 -2.25 3.5625
v 9.3076318967763658 -5.25 5.25
v 9.5625 -5.25 1.875
v 7.875 -5.25 3.5625
v 9.9092933265596415 -5.25 -0.75
v 5.25 6.75 3.5625
v -12.75 3.75 3.5625
v 5.25 3.75 3.5625
v 5.25 0.75 3.5625
v -15.75 -8.25 3.607449061342956
v 5.25 -2.25 3.5625
v -18.75 -3.9375 -0.75
v -6.75 -5.25 3.5625
v -12.75 2.0625 5.25
v 5.25 -5.25 3.5625
v 5.25 -8.25 3.5625
v -12.75 2.0625 1.875
v -12.75 -0.11800822952565319 3.570211156961173
v -6.75 -8.25 3.5491413860449339
v -10.01537351540053 0.83950962072313717 -0.75
v 3.297762195948728 2.4076997251414669 -0.75
v 3 -3.75 -0.75
v -8.3604501577318047 -0.52509496277777801 2.25
v 0 0.75 3.75
v 0.75 1.5 -0.75
v -5.5108667107117686 0.75 4.030359499024744
v -8.4746675595576182 0.75 3.2666623662704422
v -8.163929025463613 1.7260566123837171 5.25
v -8.2665817267625421 3.2111990010024032 5.25
v -8.3301302029848525 0.75 4.3212588415081594
v -5.1301583082058118 -2.25 0.089061858358243762
v 6.3509985402477156 2.3471338815129799 5.25
v 6.75 -1.5 -0.75
v 4.5 2.25 -0.75
v 9.3462716916201565 -4.071161844552214 -0.75
v 8.25 0.9073525265467044 0.77163548728215225
v 8.25 1.0857432691482789 3.75
v -3.0731058653543699 3.75 0.5625
v -2.6054712785043721 -0.42441442304942778 -0.75
v -0.75716426015819105 -3.7221792138262888 5.25
v -1.07079425958823 2.3596501589491239 5.25
v 3.9444566710406259 0.75 1.0469568633354851
v 3.746878286878808 -2.25 1.357466319517497
v 1.3125 0.75 3.75
v 1.3398070963509789 -2.25 3.635415277106242
v -5.2402932399387829 -2.25 1.3082985028079721
v -0.71592602283273532 -4.1502760260393314 -0.75
v -17.25 -5.4375 5.25
v -15.965940495208789 -3.744750242094987 5.25
v 2.0186632918535961 2.1882893673931618 5.25
v -15.9375 -3.75 -0.75
v 1.8319068982175091 -3.7646940860162421 5.25
v -12.9375 -3.75 5.25
v -12.9375 -3.75 -0.75
v 13.20750040105203 -6.7860427049334371 -0.75
v 12.76181271220914 -5.347123128811055 -0.75
v -17.25 -5.4375 -0.75
v 8.0442227190409685 -3.6129892612201302 5.25
v -5.25 0.75 2.0625
v 8.0625 -3.75 -0.75
v 6.75 0.5625 5.25
v 6.7603408239607674 0.87438099625412302 -0.75
v 5.25 -0.7267266469320548 0.47277358621965732
v 3.75 6.75 5.25
v 3.7357367517858662 6.75 2.08698904989703
v -6.75 -6.75 -0.75
v 3.75 6.75 -0.75
v 3.75 3.75 5.25
v 2.25 5.25 5.25
v 2.25 5.274727874972057 2.0325826067887851
v -8.25 6.75 5.25
v 3.8036764497284299 3.570578534557975 -0.75
v 2.2555604957706401 5.2367377386350666 -0.75
v 1.8551711848296171 2.2093461212339069 -0.75
v -11.25 -2.25 5.25
v -8.2560749663118642 -5.2627845417783963 5.25
v 2.25 -0.75 -0.75
v -8.0903795580711559 6.75 -0.75
v 3.7299474874947141 -5.2979044319922686 5.25
v -9.75 5.25 5.25
v 3.7685987826639229 -4.944710401743003 -0.75
v 2.25 -3.75 -0.75
v 3.75 -8.25 5.25
v -9.75 5.25 1.875
v 2.25 -6.75 5.25
v 3.75 -8.25 1.875
v 2.25 -6.8356001419215806 1.982189873567588
v -8.25 3.75 -0.75
v -9.75 5.2493270722785761 -0.75
v 3.75 -8.25 -0.75
v 2.25 -6.7282710830217214 -0.75
v -9.629231039650163 2.1817108815641082 5.25
v -8.25 0.75 2.25
v -9.75 0.75 3.75
v -0.75 0.75 3.75
v -8.25 -2.25 5.25
v -2.25 0.75 5.25
v -17.25 -8.25 5.25
v -9.75 -2.25 3.75
v -9.75 -3.75 5.25
v -2.1540179000716502 -2.412133700532713 5.25
v -3.75 -0.75 5.25
v -3.75 -0.89090413114375389 2.0455882597825492
v -17.25 -8.25 -0.75
v -3.75 -0.75 -0.75
v -8.35128837938049 -5.1311842190404633 -0.75
v -8.25 -8.25 5.25
v 12.62046649780787 -2.25 5.25
v 9.75 -2.25 5.25
v -2.25 0.75 -0.75
v -5.25 -2.25 5.25
v -8.25 0.75 5.25
v -8.25 -8.25 1.875
v -9.75 -6.7553022530536344 2.0249195059543039
v 12.75 -8.25 5.25
v 11.25 -6.75 5.25
v -8.25 -8.25 -0.75
v 12.75 -8.25 1.875
v 11.25 -6.75 1.875
v -9.75 -6.75 -0.75
v 11.25 -6.75 -0.75
v -6.75 5.25 5.25
v -9.75 -6.7383192115502473 5.25
v -6.75 -3.75 5.25
v -6.75 5.048413518556031 2.3781298604245542
v -5.25 0.75 5.25
v -15.75 -6.75 5.25
v -6.75 5.3137700883580594 -0.75
v -11.25 3.75 5.25
v -5.25 0.75 -0.75
v -6.75 0.75 0.75
v -11.161342402822861 3.75 2.1758548433030271
v -0.75 -0.63596729947171782 5.25
v 5.25 5.25 5.25
v -9.75 -0.75 2.25
v 6.75 3.75 1.875
v 5.25 5.25 1.875
v 6.75 3.75 -0.75
v 5.25 5.1815370845118629 -0.75
v -15.75 -6.75 1.875
v -5.25 -2.25 -0.75
v -11.25 3.75 -0.75
v -9.75 -0.75 5.25
v 6.7933932062860087 -2.2225357518211801 5.25
v 5.25 -0.75 5.25
v 5.25 -0.75 1.875
v 6.8282167450879854 -2.4679974190151772 -0.75
v 5.3222614474185406 -3.8258710810722212 5.25
v 4.9449666617918364 -3.6528236359598689 -0.75
v -7.1942481832196892 -3.637419663859863 -0.75
v 5.25 -6.75 5.25
v -15.75 -6.75 -0.75
v -6.75 -6.75 5.25
v 5.25 -6.6779121473349861 2.060796044202422
v 5.25 -6.6785522949838612 -0.75
v -6.75 -6.6828355816436673 1.8192228066180081
v -8.3363610552432341 -2.0534052188690519 -0.75
v 0.72593516685175785 -3.15765337065038 5.25
v -5.578125 3.75 4.40625
v -3.234375 3.75 2.71875
v -5.578125 -5.25 4.40625
v -3.234375 -5.25 4.40625
v -3.234375 3.75 4.40625
v -5.1189654765810531 -2.25 2.6847619529153781
v -1.027751019532734 -5.25 4.4221758858274134
v 1.171875 3.75 4.40625
v 10.60492346141748 -2.25 3.2155931089239491
v -5.578125 -5.25 1.21875
v -6.75 -8.25 0.5625
v 2.25 6.75 0.5625
v -12.75 -2.25 0.5625
v 8.25 -0.9375 5.25
v 9.5625 -2.25 -0.75
v 5.25 3.75 0.5625
v 6.5625 -5.25 5.25
v 5.25 -2.25 0.5625
v 1.162144307244098 -4.3383547029845912 -0.75
v 1.3222643607478139 -1.337207211524714 -0.75
v -6.75 5.9264153001771973 2.9480448426905168
v 11.73430727739807 -2.25 2.6879671937429981
f 275 2 1 
f 1 2 297 
f 1 4 280 
f 297 4 1 
f 467 275 1 
f 1 280 467 
f 229 5 2 
f 2 5 297 
f 2 17 209 
f 275 17 2 
f 2 209 333 
f 333 229 2 
f 3 6 229 
f 249 6 3 
f 333 209 3 
f 3 209 461 
f 3 229 333 
f 461 249 3 
f 4 5 230 
f 297 5 4 
f 4 230 375 
f 375 260 4 
f 4 260 420 
f 420 280 4 
f 5 183 338 
f 343 183 5 
f 5 229 343 
f 338 230 5 
f 325 183 6 
f 6 183 343 
f 343 229 6 
f 6 249 411 
f 6 250 325 
f 411 250 6 
f 230 8 7 
f 7 8 294 
f 7 13 260 
f 294 13 7 
f 375 230 7 
f 7 260 375 
f 223 14 8 
f 8 14 294 
f 338 183 8 
f 8 183 356 
f 356 223 8 
f 8 230 338 
f 9 15 223 
f 250 15 9 
f 9 183 325 
f 356 183 9 
f 9 223 356 
f 325 250 9 
f 10 47 256 
f 316 47 10 
f 256 169 10 
f 10 169 317 
f 317 316 10 
f 11 40 254 
f 391 40 11 
f 254 77 11 
f 11 77 392 
f 392 391 11 
f 389 40 12 
f 12 40 393 
f 12 74 389 
f 390 74 12 
f 393 390 12 
f 13 14 221 
f 294 14 13 
f 13 221 331 
f 331 244 13 
f 13 244 414 
f 414 260 13 
f 223 182 14 
f 14 182 326 
f 326 221 14 
f 15 182 223 
f 321 182 15 
f 15 250 412 
f 15 252 321 
f 412 252 15 
f 16 17 275 
f 285 17 16 
f 16 275 467 
f 467 280 16 
f 16 280 515 
f 515 285 16 
f 373 209 17 
f 17 211 373 
f 503 211 17 
f 17 285 503 
f 18 209 373 
f 461 209 18 
f 373 211 18 
f 18 211 490 
f 18 249 461 
f 490 249 18 
f 388 42 19 
f 19 42 473 
f 19 86 217 
f 314 86 19 
f 19 217 388 
f 473 314 19 
f 20 21 285 
f 293 21 20 
f 244 23 20 
f 20 23 293 
f 414 244 20 
f 20 260 414 
f 420 260 20 
f 20 280 420 
f 515 280 20 
f 20 285 515 
f 21 24 225 
f 293 24 21 
f 352 211 21 
f 21 211 503 
f 21 225 352 
f 503 285 21 
f 225 25 22 
f 22 25 252 
f 22 211 352 
f 490 211 22 
f 352 225 22 
f 411 249 22 
f 22 249 490 
f 22 250 411 
f 412 250 22 
f 22 252 412 
f 222 24 23 
f 23 24 293 
f 342 222 23 
f 23 242 342 
f 417 242 23 
f 23 244 417 
f 337 186 24 
f 24 186 340 
f 24 222 337 
f 340 225 24 
f 25 186 334 
f 340 186 25 
f 25 225 340 
f 334 237 25 
f 25 237 416 
f 416 252 25 
f 291 29 26 
f 26 29 308 
f 331 221 26 
f 26 221 534 
f 300 242 26 
f 26 242 417 
f 26 244 331 
f 417 244 26 
f 534 291 26 
f 308 300 26 
f 27 30 291 
f 381 30 27 
f 326 182 27 
f 27 182 328 
f 27 221 326 
f 534 221 27 
f 27 291 534 
f 27 328 381 
f 236 31 28 
f 28 31 381 
f 28 182 321 
f 328 182 28 
f 438 236 28 
f 416 237 28 
f 28 237 438 
f 321 252 28 
f 28 252 416 
f 381 328 28 
f 322 196 29 
f 29 196 383 
f 291 232 29 
f 29 232 322 
f 383 308 29 
f 30 190 380 
f 381 190 30 
f 30 232 291 
f 380 232 30 
f 377 190 31 
f 31 190 381 
f 31 236 258 
f 31 258 377 
f 232 33 32 
f 32 33 282 
f 32 196 322 
f 505 196 32 
f 322 232 32 
f 32 282 505 
f 33 190 370 
f 380 190 33 
f 33 232 380 
f 495 282 33 
f 370 299 33 
f 33 299 495 
f 370 190 34 
f 34 190 377 
f 377 258 34 
f 34 258 492 
f 34 299 370 
f 492 299 34 
f 35 43 242 
f 469 43 35 
f 35 64 469 
f 513 64 35 
f 35 242 300 
f 35 300 520 
f 520 513 35 
f 196 51 36 
f 36 51 451 
f 255 73 36 
f 36 73 319 
f 36 75 255 
f 451 75 36 
f 383 196 36 
f 36 319 383 
f 277 38 37 
f 37 38 278 
f 37 253 480 
f 483 253 37 
f 480 277 37 
f 37 278 483 
f 38 203 351 
f 476 203 38 
f 351 204 38 
f 38 204 477 
f 38 277 476 
f 477 278 38 
f 351 203 39 
f 39 203 470 
f 39 204 351 
f 486 204 39 
f 470 251 39 
f 39 251 486 
f 489 254 40 
f 40 389 489 
f 40 391 475 
f 475 393 40 
f 41 60 266 
f 310 60 41 
f 459 246 41 
f 41 246 487 
f 41 262 474 
f 487 262 41 
f 41 266 459 
f 474 310 41 
f 42 215 303 
f 388 215 42 
f 42 303 402 
f 42 402 473 
f 43 44 222 
f 278 44 43 
f 43 222 342 
f 342 242 43 
f 469 253 43 
f 43 253 483 
f 483 278 43 
f 44 186 337 
f 344 186 44 
f 44 204 344 
f 477 204 44 
f 337 222 44 
f 44 278 477 
f 334 186 45 
f 45 186 344 
f 344 204 45 
f 45 204 486 
f 45 237 334 
f 463 237 45 
f 439 246 45 
f 45 246 463 
f 45 251 439 
f 486 251 45 
f 46 59 386 
f 462 59 46 
f 46 247 462 
f 498 247 46 
f 46 386 498 
f 307 214 47 
f 47 214 472 
f 472 256 47 
f 471 307 47 
f 47 316 471 
f 48 236 438 
f 506 236 48 
f 438 237 48 
f 48 237 463 
f 48 246 459 
f 463 246 48 
f 462 247 48 
f 48 247 506 
f 459 266 48 
f 48 266 462 
f 457 247 49 
f 49 247 498 
f 49 386 456 
f 498 386 49 
f 456 390 49 
f 49 390 457 
f 258 236 50 
f 50 236 506 
f 50 247 457 
f 506 247 50 
f 455 258 50 
f 50 391 455 
f 475 391 50 
f 457 393 50 
f 50 393 475 
f 51 52 273 
f 282 52 51 
f 51 196 505 
f 51 243 451 
f 452 243 51 
f 51 273 452 
f 505 282 51 
f 329 200 52 
f 52 200 447 
f 447 273 52 
f 52 282 495 
f 495 329 52 
f 53 200 329 
f 443 200 53 
f 392 239 53 
f 53 239 443 
f 53 258 455 
f 492 258 53 
f 329 299 53 
f 53 299 492 
f 455 392 53 
f 54 55 270 
f 273 55 54 
f 441 243 54 
f 54 243 452 
f 54 270 441 
f 452 273 54 
f 198 81 55 
f 55 81 270 
f 324 198 55 
f 55 200 324 
f 447 200 55 
f 55 273 447 
f 56 198 324 
f 434 198 56 
f 324 200 56 
f 56 200 443 
f 56 239 434 
f 443 239 56 
f 376 65 57 
f 57 65 531 
f 124 84 57 
f 57 84 354 
f 531 124 57 
f 57 193 524 
f 525 193 57 
f 57 354 525 
f 524 376 57 
f 192 76 58 
f 58 76 363 
f 522 191 58 
f 58 191 526 
f 523 192 58 
f 58 346 523 
f 526 346 58 
f 58 363 522 
f 59 60 69 
f 266 60 59 
f 59 69 72 
f 59 72 386 
f 462 266 59 
f 527 69 60 
f 60 310 527 
f 61 253 429 
f 480 253 61 
f 61 277 480 
f 532 277 61 
f 429 287 61 
f 61 287 532 
f 382 203 62 
f 62 203 476 
f 62 213 382 
f 519 213 62 
f 476 277 62 
f 62 277 532 
f 62 287 519 
f 532 287 62 
f 63 203 382 
f 470 203 63 
f 382 213 63 
f 63 213 516 
f 63 251 470 
f 516 251 63 
f 64 65 287 
f 531 65 64 
f 264 194 64 
f 64 194 531 
f 429 253 64 
f 64 253 469 
f 513 264 64 
f 64 287 429 
f 376 213 65 
f 65 213 519 
f 519 287 65 
f 66 193 262 
f 524 193 66 
f 66 213 376 
f 516 213 66 
f 66 246 439 
f 487 246 66 
f 439 251 66 
f 66 251 516 
f 66 262 487 
f 66 376 524 
f 70 68 67 
f 67 68 394 
f 520 70 67 
f 504 264 67 
f 67 264 513 
f 67 394 504 
f 67 513 520 
f 71 69 68 
f 68 69 409 
f 68 70 71 
f 409 394 68 
f 69 71 72 
f 527 409 69 
f 73 71 70 
f 319 73 70 
f 70 288 319 
f 520 288 70 
f 74 72 71 
f 71 73 494 
f 494 74 71 
f 72 74 386 
f 73 255 493 
f 493 257 73 
f 73 257 494 
f 74 257 422 
f 494 257 74 
f 456 386 74 
f 422 389 74 
f 74 390 456 
f 281 76 75 
f 75 76 290 
f 451 243 75 
f 75 243 491 
f 309 255 75 
f 491 281 75 
f 75 290 309 
f 76 192 290 
f 76 281 488 
f 488 363 76 
f 254 191 77 
f 77 191 522 
f 77 239 392 
f 485 239 77 
f 363 302 77 
f 77 302 485 
f 522 363 77 
f 180 87 78 
f 78 87 346 
f 78 88 216 
f 346 88 78 
f 78 122 180 
f 323 122 78 
f 78 216 529 
f 529 323 78 
f 219 111 79 
f 79 111 327 
f 327 218 79 
f 79 218 528 
f 354 219 79 
f 528 354 79 
f 270 81 80 
f 80 81 281 
f 80 243 441 
f 491 243 80 
f 441 270 80 
f 80 281 491 
f 81 198 359 
f 488 281 81 
f 81 359 542 
f 542 488 81 
f 359 198 82 
f 82 198 434 
f 434 239 82 
f 82 239 485 
f 82 302 359 
f 485 302 82 
f 83 84 124 
f 181 84 83 
f 83 124 194 
f 220 181 83 
f 83 194 318 
f 410 220 83 
f 318 301 83 
f 83 301 410 
f 84 181 219 
f 84 219 354 
f 315 193 85 
f 85 193 525 
f 85 218 403 
f 528 218 85 
f 403 315 85 
f 525 354 85 
f 85 354 528 
f 86 87 180 
f 401 87 86 
f 86 180 217 
f 314 309 86 
f 86 309 401 
f 401 192 87 
f 87 192 523 
f 523 346 87 
f 88 191 313 
f 526 191 88 
f 404 216 88 
f 88 313 404 
f 88 346 526 
f 89 90 274 
f 394 90 89 
f 318 264 89 
f 89 264 504 
f 89 274 468 
f 303 301 89 
f 89 301 318 
f 402 303 89 
f 504 394 89 
f 468 402 89 
f 341 202 90 
f 90 202 466 
f 466 274 90 
f 527 341 90 
f 90 394 409 
f 90 409 527 
f 91 202 341 
f 465 202 91 
f 464 248 91 
f 91 248 465 
f 91 262 315 
f 474 262 91 
f 341 310 91 
f 91 310 474 
f 91 315 464 
f 92 93 257 
f 274 93 92 
f 92 255 314 
f 493 255 92 
f 92 257 493 
f 468 274 92 
f 92 314 473 
f 92 402 468 
f 473 402 92 
f 93 202 339 
f 466 202 93 
f 422 257 93 
f 93 274 466 
f 93 339 389 
f 93 389 422 
f 339 202 94 
f 94 202 465 
f 94 248 460 
f 465 248 94 
f 313 254 94 
f 94 254 489 
f 460 313 94 
f 389 339 94 
f 489 389 94 
f 98 96 95 
f 95 96 102 
f 102 98 95 
f 99 97 96 
f 96 97 103 
f 96 98 99 
f 408 102 96 
f 96 103 408 
f 97 99 496 
f 521 103 97 
f 97 248 464 
f 496 248 97 
f 464 403 97 
f 97 403 521 
f 100 99 98 
f 104 100 98 
f 98 102 104 
f 99 100 458 
f 458 101 99 
f 99 101 496 
f 100 104 105 
f 100 105 387 
f 100 387 458 
f 101 106 245 
f 387 106 101 
f 101 245 404 
f 460 248 101 
f 101 248 496 
f 458 387 101 
f 101 404 460 
f 115 104 102 
f 408 115 102 
f 335 185 103 
f 103 185 408 
f 103 238 335 
f 415 238 103 
f 521 415 103 
f 117 105 104 
f 104 115 117 
f 105 117 120 
f 105 120 407 
f 407 387 105 
f 106 184 332 
f 407 184 106 
f 332 235 106 
f 106 235 413 
f 413 245 106 
f 106 387 407 
f 107 108 271 
f 272 108 107 
f 107 240 453 
f 454 240 107 
f 107 271 454 
f 453 272 107 
f 108 199 330 
f 449 199 108 
f 330 201 108 
f 108 201 450 
f 450 271 108 
f 108 272 449 
f 330 199 109 
f 109 199 446 
f 109 201 330 
f 448 201 109 
f 446 241 109 
f 109 241 448 
f 110 111 181 
f 271 111 110 
f 110 181 220 
f 110 220 540 
f 444 240 110 
f 110 240 454 
f 454 271 110 
f 110 385 444 
f 445 385 110 
f 540 445 110 
f 219 181 111 
f 111 201 327 
f 450 201 111 
f 111 271 450 
f 327 201 112 
f 112 201 448 
f 112 218 327 
f 415 218 112 
f 112 238 415 
f 442 238 112 
f 112 241 442 
f 448 241 112 
f 116 114 113 
f 113 114 128 
f 440 116 113 
f 113 128 385 
f 113 130 289 
f 445 130 113 
f 113 289 541 
f 113 385 445 
f 541 440 113 
f 116 115 114 
f 114 115 406 
f 406 128 114 
f 115 116 117 
f 115 185 406 
f 408 185 115 
f 119 117 116 
f 116 118 119 
f 440 118 116 
f 117 119 120 
f 129 119 118 
f 384 129 118 
f 118 215 388 
f 440 215 118 
f 437 384 118 
f 118 388 437 
f 405 120 119 
f 119 129 405 
f 405 184 120 
f 120 184 407 
f 180 122 121 
f 121 122 269 
f 217 180 121 
f 437 217 121 
f 121 233 435 
f 436 233 121 
f 121 269 436 
f 435 384 121 
f 121 384 437 
f 323 197 122 
f 122 197 433 
f 433 269 122 
f 123 197 323 
f 432 197 123 
f 123 216 245 
f 529 216 123 
f 431 234 123 
f 123 234 432 
f 413 235 123 
f 123 235 431 
f 123 245 413 
f 123 323 529 
f 531 194 124 
f 430 233 125 
f 125 233 436 
f 125 268 430 
f 533 268 125 
f 436 269 125 
f 125 269 533 
f 320 195 126 
f 126 195 428 
f 126 197 320 
f 433 197 126 
f 428 268 126 
f 126 268 533 
f 126 269 433 
f 533 269 126 
f 127 195 320 
f 427 195 127 
f 320 197 127 
f 127 197 432 
f 127 234 427 
f 432 234 127 
f 128 137 512 
f 539 137 128 
f 512 385 128 
f 128 406 539 
f 397 141 129 
f 129 141 405 
f 129 384 397 
f 130 220 410 
f 540 220 130 
f 301 289 130 
f 410 301 130 
f 130 445 540 
f 131 132 272 
f 286 132 131 
f 453 240 131 
f 131 240 518 
f 131 272 453 
f 518 286 131 
f 379 199 132 
f 132 199 449 
f 132 212 379 
f 517 212 132 
f 449 272 132 
f 132 286 517 
f 133 199 379 
f 446 199 133 
f 379 212 133 
f 133 212 514 
f 133 241 446 
f 514 241 133 
f 134 135 286 
f 298 135 134 
f 265 150 134 
f 134 150 298 
f 134 240 444 
f 518 240 134 
f 512 265 134 
f 134 286 518 
f 134 444 512 
f 135 151 231 
f 298 151 135 
f 378 212 135 
f 135 212 517 
f 135 231 378 
f 517 286 135 
f 136 212 378 
f 514 212 136 
f 378 231 136 
f 136 231 538 
f 136 238 442 
f 511 238 136 
f 442 241 136 
f 136 241 514 
f 136 263 511 
f 538 263 136 
f 137 140 396 
f 426 140 137 
f 510 265 137 
f 137 265 512 
f 137 396 510 
f 539 426 137 
f 138 185 374 
f 406 185 138 
f 374 210 138 
f 138 210 509 
f 539 406 138 
f 509 426 138 
f 138 426 539 
f 139 185 335 
f 374 185 139 
f 139 210 374 
f 508 210 139 
f 335 238 139 
f 139 238 511 
f 507 259 139 
f 139 259 508 
f 139 263 507 
f 511 263 139 
f 140 141 425 
f 426 141 140 
f 425 396 140 
f 141 142 405 
f 426 142 141 
f 397 261 141 
f 141 261 425 
f 372 184 142 
f 142 184 405 
f 142 210 372 
f 509 210 142 
f 142 426 509 
f 332 184 143 
f 143 184 372 
f 372 210 143 
f 143 210 508 
f 143 235 332 
f 395 235 143 
f 143 259 424 
f 508 259 143 
f 424 395 143 
f 435 233 144 
f 144 233 502 
f 144 261 397 
f 501 261 144 
f 144 283 501 
f 537 283 144 
f 502 284 144 
f 144 284 537 
f 144 397 435 
f 145 207 371 
f 500 207 145 
f 371 208 145 
f 145 208 499 
f 499 283 145 
f 145 283 537 
f 145 284 500 
f 537 284 145 
f 146 153 371 
f 395 153 146 
f 371 207 146 
f 146 207 497 
f 146 234 431 
f 497 234 146 
f 146 235 395 
f 431 235 146 
f 268 148 147 
f 147 148 284 
f 147 233 430 
f 502 233 147 
f 430 268 147 
f 147 284 502 
f 148 195 369 
f 428 195 148 
f 369 207 148 
f 148 207 500 
f 148 268 428 
f 500 284 148 
f 369 195 149 
f 149 195 427 
f 149 207 369 
f 497 207 149 
f 427 234 149 
f 149 234 497 
f 228 151 150 
f 150 151 298 
f 368 228 150 
f 150 265 423 
f 398 368 150 
f 423 398 150 
f 366 189 151 
f 151 189 367 
f 151 228 366 
f 367 231 151 
f 152 189 365 
f 367 189 152 
f 152 231 367 
f 538 231 152 
f 365 256 152 
f 152 256 421 
f 421 263 152 
f 152 263 538 
f 153 161 208 
f 395 161 153 
f 153 208 371 
f 295 155 154 
f 154 155 296 
f 154 157 295 
f 396 157 154 
f 423 265 154 
f 154 265 510 
f 154 296 536 
f 510 396 154 
f 154 398 423 
f 536 398 154 
f 226 163 155 
f 155 163 296 
f 364 226 155 
f 267 227 155 
f 155 227 364 
f 295 267 155 
f 156 214 226 
f 472 214 156 
f 156 226 364 
f 364 227 156 
f 156 227 535 
f 421 256 156 
f 156 256 472 
f 156 259 507 
f 535 259 156 
f 156 263 421 
f 507 263 156 
f 157 261 362 
f 425 261 157 
f 399 295 157 
f 157 362 399 
f 157 396 425 
f 158 188 361 
f 400 188 158 
f 158 227 400 
f 535 227 158 
f 424 259 158 
f 158 259 535 
f 158 361 395 
f 158 395 424 
f 283 160 159 
f 159 160 312 
f 362 261 159 
f 159 261 501 
f 501 283 159 
f 159 312 362 
f 160 188 304 
f 360 188 160 
f 160 208 360 
f 499 208 160 
f 160 283 499 
f 160 304 312 
f 161 188 360 
f 361 188 161 
f 360 208 161 
f 395 361 161 
f 296 163 162 
f 162 163 306 
f 536 296 162 
f 311 305 162 
f 162 305 536 
f 162 306 358 
f 358 311 162 
f 163 226 530 
f 357 306 163 
f 543 357 163 
f 163 530 543 
f 164 165 279 
f 481 165 164 
f 164 170 481 
f 484 170 164 
f 164 279 484 
f 165 205 355 
f 481 205 165 
f 355 206 165 
f 165 206 482 
f 482 279 165 
f 355 205 166 
f 166 205 478 
f 166 206 355 
f 479 206 166 
f 478 276 166 
f 166 276 479 
f 167 168 228 
f 279 168 167 
f 167 228 368 
f 484 279 167 
f 167 305 311 
f 368 305 167 
f 167 311 419 
f 167 419 484 
f 353 189 168 
f 168 189 366 
f 168 206 353 
f 482 206 168 
f 366 228 168 
f 168 279 482 
f 169 189 353 
f 365 189 169 
f 353 206 169 
f 169 206 479 
f 169 256 365 
f 169 276 317 
f 479 276 169 
f 418 171 170 
f 170 171 481 
f 484 418 170 
f 292 172 171 
f 171 172 481 
f 171 174 292 
f 418 174 171 
f 292 175 172 
f 172 175 350 
f 350 205 172 
f 172 205 481 
f 173 176 276 
f 350 176 173 
f 173 205 350 
f 478 205 173 
f 173 276 478 
f 224 175 174 
f 174 175 292 
f 349 224 174 
f 419 349 174 
f 174 418 419 
f 347 187 175 
f 175 187 348 
f 175 224 347 
f 175 348 350 
f 176 187 336 
f 348 187 176 
f 317 276 176 
f 336 317 176 
f 350 348 176 
f 177 178 224 
f 306 178 177 
f 177 224 349 
f 358 306 177 
f 349 311 177 
f 177 311 358 
f 345 187 178 
f 178 187 347 
f 347 224 178 
f 178 306 357 
f 178 307 345 
f 357 307 178 
f 336 187 179 
f 179 187 345 
f 345 307 179 
f 179 307 471 
f 179 316 336 
f 471 316 179 
f 400 304 188 
f 191 254 313 
f 401 290 192 
f 315 262 193 
f 194 264 318 
f 530 226 214 
f 214 307 530 
f 215 289 303 
f 541 289 215 
f 215 440 541 
f 404 245 216 
f 437 388 217 
f 521 403 218 
f 218 415 521 
f 227 267 400 
f 255 309 314 
f 267 295 399 
f 399 304 267 
f 267 304 400 
f 288 300 308 
f 520 300 288 
f 288 308 383 
f 383 319 288 
f 289 301 303 
f 401 309 290 
f 299 329 495 
f 542 359 302 
f 302 363 488 
f 302 488 542 
f 399 312 304 
f 305 368 398 
f 305 398 536 
f 307 357 543 
f 543 530 307 
f 310 341 527 
f 311 349 419 
f 399 362 312 
f 460 404 313 
f 315 403 464 
f 316 317 336 
f 435 397 384 
f 512 444 385 
f 390 393 457 
f 391 392 455 
f 484 419 418 
