v -14.25 -15.75 0.75
v -14.25 -15.75 3.75
v -14.25 -14.25 0.75
v -14.25 -14.25 3.75
v -14.25 -12.75 0.75
v -14.25 -12.75 3.75
v -14.25 -3.75 0.75
v -14.25 -3.75 2.25
v -14.25 -3.75 3.75
v -14.25 -2.25 0.75
v -14.25 -2.25 2.25
v -14.25 -2.25 3.75
v -14.25 -0.75 0.75
v -14.25 -0.75 3.75
v -12.75 -15.75 0.75
v -12.9407833455892 -15.75 2.4148120145407801
v -12.75 -14.25 3.75
v -12.75 -12.75 0.75
v -12.75 -12.75 1.92481651645128
v -12.75 -12.75 3.75
v -12.75 -11.26979974927956 0.75
v -12.75 -11.25 2.25
v -12.75 -11.25 3.75
v -12.75 -9.75 0.75
v -12.75 -9.75 2.25
v -12.75 -9.75 3.75
v -12.75 -6.75 0.75
v -12.75 -6.75 2.2889892599313861
v -12.75 -6.75 3.75
v -12.75 -5.25 0.75
v -12.75 -5.25 2.25
v -12.75 -5.25 3.75
v -12.75 -3.75 0.75
v -12.75 -3.75 2.25
v -12.75 -3.75 3.75
v -12.75 -2.25 0.75
v -12.75 -2.25 3.75
v -12.75 -0.75 0.75
v -12.75 -0.75 2.25
v -12.75 -0.75 3.75
v -11.25 -15.75 0.75
v -11.25 -15.75 2.25
v -11.25 -15.75 3.75
v -11.25 -14.25 0.75
v -11.25 -14.25 2.25
v -11.25 -14.25 3.75
v -11.25 -12.75 0.75
v -11.25 -12.75 2.6303620429503778
v -11.25 -12.75 3.75
v -11.34163928888276 -11.223498173273979 0.75
v -11.25 -11.25 3.75
v -11.25 -9.75 0.75
v -11.25 -9.75 2.2206686196320859
v -11.25 -9.75 3.75
v -11.25 -8.25 0.75
v -11.25 -8.25 2.25
v -11.25 -8.25 3.75
v -11.25 -6.75 0.75
v -11.25 -6.75 2.25
v -11.25 -6.75 3.75
v -9.8393977415231362 -6.0982075739695816 0.75
v -11.260038447323851 -5.2602464945648677 3.75
v -11.25 -3.75 0.75
v -11.25 -3.75 2.25
v -11.25 -3.75 3.75
v -11.25 -2.25 0.75
v -11.25 -2.25 2.25
v -11.25 -0.75 0.75
v -11.25 -0.75 3.75
v -9.75 -12.75 0.75
v -9.75 -12.75 2.25
v -9.75 -12.75 3.75
v -9.75 -11.25 0.75
v -9.75 -11.25 2.25
v -9.75 -11.25 3.75
v -9.75 -9.75 0.75
v -9.75 -9.75 2.25
v -9.75 -9.75 3.75
v -8.8104352318753616 -7.0952605391815204 3.75
v -9.75 -3.75 0.75
v -9.9576832467153586 -3.75 2.2672935648241981
v -9.6511378697763739 -3.75 3.75
v -8.25 -9.75 0.75
v -8.25 -9.75 2.25
v -8.381182370201044 -9.75 3.75
v -8.25 -3.75 0.75
v -8.25 -3.75 2.25
v -8.25 -3.75 3.75
v -8.25 -2.25 0.75
v -8.25 -2.466144048796826 2.0758540011583171
v -8.25 -2.25 3.75
v -8.25 -0.75 0.75
v -8.25 -0.75 2.25
v -8.25 -0.75 3.75
v -6.75 -12.75 0.75
v -6.75 -12.75 2.25
v -6.75 -12.75 3.75
v -6.75 -11.25 0.75
v -6.75 -11.25 2.25
v -6.75 -11.25 3.75
v -6.75 -9.75 0.75
v -6.75 -9.75 3.75
v -6.75 -6.75 0.75
v -6.75 -6.75 3.75
v -6.75 -5.25 0.75
v -6.75 -5.4573442703497914 2.1441410950238402
v -6.75 -5.25 3.75
v -6.75 -3.75 0.75
v -6.75 -3.75 2.25
v -6.75 -3.75 3.75
v -5.7253510470307543 -2.3386298026697601 0.75
v -5.8642068989920304 -2.331121136245959 3.75
v -6.75 -0.75 0.75
v -6.6588437826359117 -0.75 2.3183627581372401
v -6.63989208795868 -0.75109300973721549 3.75
v -6.75 2.25 0.75
v -6.75 2.25 2.25
v -6.75 2.25 3.75
v -6.75 3.75 0.75
v -6.75 3.573676412975014 2.0724198409424242
v -6.75 3.75 3.75
v -6.75 5.25 0.75
v -6.75 5.25 2.25
v -6.75 5.25 3.75
v -5.25 -15.75 0.75
v -5.25 -15.75 2.25
v -5.25 -15.75 3.75
v -5.25 -14.39578201364141 0.75
v -5.25 -14.25 2.25
v -5.25 -14.25 3.75
v -5.25 -12.75 0.75
v -5.25 -12.75 2.25
v -5.25 -12.75 3.75
v -4.399151425107199 -6.7609685433579756 3.75
v -4.5 -3.75 0.75
v -4.5 -3.75 2.25
v -4.5 -3.75 3.75
v -5.25 -0.75 0.75
v -5.25 -0.75 2.25
v -5.25 -0.75 3.75
v -5.25 0.69238587135846852 0.75
v -5.25 0.75 2.25
v -5.25 0.75 3.75
v -5.25 2.25 0.75
v -5.25 2.25 2.25
v -5.25 2.25 3.75
v -5.25 3.75 0.75
v -5.25 3.75 3.75
v -5.25 5.25 0.75
v -5.287080146632654 5.25 2.3087264373340162
v -5.1679468253975864 5.25 3.75
v -3.75 -15.75 3.75
v -3.6569814581792439 -14.39921625080801 3.75
v -3.75 -12.75 0.75
v -3.75 -12.75 2.25
v -3.75 -12.75 3.75
v -3.75 -11.25 0.75
v -3.75 -11.25 3.75
v -3.75 -9.75 0.75
v -3.75 -9.75 2.25
v -3.75 -9.75 3.75
v -2.625 0.375 0.75
v -2.625 0.375 3.75
v -3.75 2.25 0.75
v -3.75 2.25 2.25
v -3.75 2.25 3.75
v -3.75 3.75 0.75
v -3.75 3.75 2.25
v -3.75 3.75 3.75
v -3.75 5.25 0.75
v -3.75 5.25 2.25
v -3.75 5.25 3.75
v -2.25 -15.75 0.75
v -2.25 -15.75 2.25
v -2.25 -15.75 3.75
v -2.25 -14.25 2.25
v -2.25 -12.75 0.75
v -2.25 -12.75 3.75
v 0 -9.75 0.75
v 0.031889626812924947 -9.75 3.75
v -2.25 -6.75 0.75
v -2.25 -6.75 3.75
v -2.25 -5.3493504548869106 2.2993676037392361
v -2.25 -3.75 0.75
v -2.25 -3.75 3.75
v -2.25 -2.25 0.75
v -2.25 -2.25 2.25
v -2.25 -2.25 3.75
v -2.25 -0.75 0.75
v -2.25 -0.75 2.25
v -2.25 -0.75 3.75
v 0 2.25 0.75
v 0 2.25 3.75
v -0.15208886907951669 -5.9695731793597613 0.75
v -0.025186371536979779 -6.1293894556621424 3.75
v 0 -2.25 0.75
v 0 -2.25 2.25
v 0 -2.25 3.75
v 0 -0.75 0.75
v -0.04226027111041239 -0.75 2.2825056240773098
v -0.041094349064689562 -0.75 3.75
v 2.8918840644759238 0.57036596956111485 0.75
v 2.25 -15.75 0.75
v 1.875 0.75 3.75
v 2.25 -15.75 3.75
v -1.6423375814069829 2.25 2.5167843789113662
v 2.25 -14.226063182738139 2.3042237535708439
v 1.772617947500595 2.25 2.1766222471399082
v 2.25 -12.75 0.75
v 2.25 -12.75 2.25
v 2.25 -12.75 3.75
v 4.6447786116694729 -8.5971535041279843 0.75
v 2.25 -6.75 0.75
v 2.25 -6.75 3.75
v 2.25 -5.3106522676023076 2.2117466648582531
v 9 -7.5 0.75
v 2.25 -3.75 0.75
v 2.25 -3.75 2.25
v 2.25 -3.75 3.75
v 2.25 -2.25 0.75
v 2.25 -2.25 2.25
v 2.25 -2.25 3.75
v 2.25 -0.75 0.75
v 2.25 -0.75 2.25
v 2.25 -0.75 3.75
v 3.75 -15.75 0.75
v 9 -7.5 3.75
v 3.75 -15.75 3.75
v 3.75 -14.25 0.75
v 3.75 -14.25 3.75
v 3.75 -12.75 0.75
v 3.75 -12.75 2.25
v 3.75 -12.75 3.75
v 3.75 -11.25 0.75
v 3.75 -11.4551961533364 2.119074213625364
v 3.75 -11.45208223271522 3.748963198441098
v 3.75 -9.75 0.75
v 3.75 -9.75 2.25
v 3.75 -9.75 3.75
v 4.5 -6.75 0.75
v 4.5 -6.75 2.25
v 4.5 -6.75 3.75
v 4.5 -3.75 0.75
v 4.6114935819699303 -3.75 2.2054433483451579
v 4.4893253605565864 -3.75 3.75
v 4.6712908425644866 -2.3782185669091591 0.75
v 4.875 -2.25 3.75
v 3.75 2.25 0.75
v 3.75 2.25 3.75
v 3.75 3.75 0.75
v 3.75 3.6891501426744768 2.536428544729008
v 3.75 5.25 0.75
v 3.75 5.25 2.25
v 3.75 5.25 3.75
v 5.25 -15.75 0.75
v 5.25 -15.75 3.75
v 5.25 -14.25 0.75
v 5.25 -14.157767910779461 2.1287562518553469
v 5.25 -14.25 3.75
v 5.25 -12.75 0.75
v 5.25 -12.75 3.75
v 5.25 -0.75 0.75
v 5.25 -0.75 2.25
v 5.25 -0.75 3.75
v 5.25 0.75 0.75
v 5.25 0.75 2.25
v 5.25 0.83848175683291071 3.75
v 5.25 2.25 0.75
v 5.25 2.25 2.4325378958303059
v 5.25 2.25 3.75
v 5.25 3.75 0.75
v 5.2492597640945116 3.8410881114754698 3.75
v 5.25 5.25 0.75
v 5.3614508226813236 5.25 2.250785512993748
v 5.25 5.25 3.75
v 6.75 -12.75 0.75
v 6.75 -12.75 2.25
v 6.75 -12.75 3.75
v 6.75 -11.25 0.75
v 6.75 -11.25 3.75
v 6.75 -9.75 0.75
v 6.75 -9.75 2.25
v 6.75 -9.75 3.75
v 6.75 -6.75 0.75
v 6.75 -6.75 3.75
v 6.75 -5.25 0.75
v 6.75 -5.25 2.25
v 6.75 -5.2022115650413143 3.75
v 6.75 -3.75 0.75
v 6.75 -3.75 2.25
v 6.75 -3.75 3.75
v 6.7054456294234663 -0.75 0.75
v 6.75 -0.75 2.25
v 6.7474907882167372 -0.75 3.75
v 6.75 2.25 0.75
v 6.75 2.25 2.25
v 6.75 2.25 3.75
v 6.75 3.75 0.75
v 6.75 3.75 2.25
v 6.75 3.75 3.75
v 6.75 5.25 0.75
v 6.75 5.25 2.25
v 6.75 5.25 3.75
v -4.5 -6.75 0.75
v 8.25 -9.75 2.25
v 8.1405333592803064 -9.75 3.75
v 9.75 -6 0.75
v 9.75 -6 3.75
v 8.25 -3.75 0.75
v 8.25 -3.75 2.25
v 8.25 -3.75 3.75
v 8.25 -2.25 0.75
v 8.25 -2.25 2.25
v 8.25 -2.25 3.75
v 8.25 -0.75 0.75
v 8.25 -0.75 3.75
v 9.75 -12.75 0.75
v 9.75 -12.75 2.2936432794907819
v 9.75 -12.75 3.75
v 9.75 -11.25 0.75
v 9.75 -11.25 2.25
v 9.75 -11.25 3.75
v 9.75 -9.75 0.75
v 9.75 -9.75 2.25
v 9.75 -9.75 3.75
v 9.75 -3.75 0.75
v 9.7616558677190834 -3.75 2.282753902767924
v 9.75 -3.75 3.75
v 11.25 -15.75 0.75
v 11.25 -15.75 3.75
v 11.25 -14.25 0.75
v 11.25 -12.75 0.75
v 11.25 -12.75 2.25
v 11.25 -12.75 3.75
v 11.25 -11.25 0.75
v 11.25 -11.25 3.75
v 11.25 -9.75 0.75
v 11.25 -9.75 2.25
v 11.25 -9.75 3.75
v 11.25 -8.3126802898518619 0.75
v 11.25 -8.25 2.25
v 11.25 -8.25 3.75
v 11.25 -6.75 0.75
v 11.25 -6.75 2.4828200788336789
v 11.25 -6.75 3.75
v 11.25 -3.75 0.75
v 11.25 -3.75 2.25
v 11.25 -3.75 3.75
v 11.25 -2.25 0.75
v 11.25 -2.2832551469387949 2.1382330549742812
v 11.25 -2.25 3.75
v 11.25 -0.75 0.75
v 11.25 -0.75 3.75
v 12.75 -12.75 0.75
v 12.75 -12.75 2.25
v 12.75 -12.75 3.75
v 12.75 -11.25 0.75
v 12.75 -11.36220819447972 2.344730781737149
v 12.75 -11.25 3.75
v 12.75 -9.75 0.75
v 12.75 -9.75 2.25
v 12.75 -9.75 3.75
v 12.75 -6.75 0.75
v 12.75 -6.75 2.25
v 12.75 -6.75 3.75
v 12.75 -5.25 0.75
v 12.75 -5.25 2.25
v 12.75 -5.25 3.75
v 12.75 -3.75 0.75
v 12.75 -3.75 2.25
v 12.75 -3.75 3.75
v 12.881828681200041 -2.3191803249496359 3.75
v -3.5676982538041848 -14.52572579259404 0.75
v 5.25 -8.25 3.75
v 14.25 -15.75 0.75
v 14.25 -15.75 3.75
v -5.3082898042125413 -8.4001077887183051 0.75
v 14.25 -14.456787687280819 2.4177484355351511
v 14.25 -12.75 0.75
v 14.25 -12.75 3.75
v 14.25 -3.75 0.75
v 14.25 -3.75 2.25
v 14.25 -3.75 3.75
v 12.57885059211702 -0.75 2.3095040176593069
v 14.25 -0.75 0.75
v 12.75 -15.75 2.25
v 14.25 -0.75 3.75
v 12.78554398455697 -14.25070811099882 0.75
v 12.75 -14.25 3.75
v -1.897807641491057 -9.75 1.7076691706557909
v -1.6085298085066231 -9.75 2.7730892331804839
v -9.140625 -7.96875 0.75
v -3.375 -6.75 2.25
v 0 -4.125 3.75
v 1.875 2.25 3.75
v -0.048679451843939958 -3.7903387241425079 0.75
v 1.875 2.25 0.75
v -5.6153420585492952 -6.75 2.248837936630701
v -5.625 -8.25 3.75
v 1.875 -9.75 3.75
v -1.293852355522346 -8.2995913540152824 3.75
v 1.125 -8.25 3.75
v -0.19215048185864469 -7.6542834358207843 3.75
v -1.125 -8.25 0.75
v 1.875 -9.75 0.75
v 1.125 -8.25 0.75
v 0.088252272701106027 -7.5708930649259223 0.75
v -1.875 2.25 0.75
v -1.875 2.25 3.75
v -1.875 -9.75 3.75
v -1.875 -9.75 0.75
v 2.0531539555966751 -9.75 2.7135274705804528
v -9.28125 -5.4375 3.75
v -8.4102859469223024 -5.2984825500655894 0.75
v -3.7889705463333478 -2.3911698389206708 3.75
v -3.9375 -2.25 0.75
v 5.281842994979959 -10.494605359831329 3.75
v 5.1278979202461699 -10.249252552791241 0.75
v -3.8364586132261511 -15.75 1.92765359811555
v 3 0.75 3.75
v 3.2368441241707222 -8.0485635892147371 3.75
v 2.9422432566879828 -8.2357169932587286 0.75
v 14.25 -2.25 3
v 14.25 -2.3879989136308271 1.6507196195593039
v -5.25 -10.5 3.75
v -5.2188469600398539 -10.8521155877221 0.75
v 11.25 -14.2829256226903 2.588725926017899
v -7.657106408157671 -8.1488738426071539 3.75
v -3 -8.25 3.75
v -7.7755298371058421 -8.0340519575329008 0.75
v -3.098092783042468 -8.1914394207696866 0.75
v 7.5 -8.25 3.75
v -8.5531853162895271 -6.6853073093642106 0.75
v -1.0652944052914879 1.1794336923684119 3.75
v -1.163330478244331 1.0541265227979439 0.75
v 0.89618114372836477 -5.0401184810985029 3.75
v 0.96440730399138952 -5.0238822312063256 0.75
v -1.279914944731402 -5.2227507114332949 3.75
v -1.125 -4.875 0.75
v 8.1638894161824958 -5.4086735276610378 3.75
v 8.1924321080432616 -5.4505015418517759 0.75
v 8.2636133031335302 -6.6479640432128244 3.75
v 8.3168577390067178 -6.4754751406540381 0.75
v -10.09328134860424 -6.1225189061248289 3.75
v 3.5625 -1.5 3.75
v 3.7262290715749362 -0.95205865533052503 0.75
v 3.75 2.25 2.25
v 5.2650760768754212 -9.4409368193061738 3.75
v 3.707196842847162 -15.75 2.33767045424417
v 3.8965671809321409 -0.38102697277049452 3.75
v -3.7371412764059948 -15.75 0.75
v -11.25 -0.75 2.272194484878749
v 2.25 -5.25 3.75
v 2.25 -6.75 2.25
v 2.25 -5.25 0.75
v -11.25 -2.25 3.75
v -14.25 -0.75 2.2580811050417191
v 2.25 -14.17143189850291 3.75
v 2.25 -14.25 0.75
v 2.25 -15.75 2.25
v -11.01288822523324 -5.244602980679387 0.75
v 0 0.75 3.75
v -0.23295297518879779 2.25 2.186470241509074
v 14.25 -0.75 2.25
v 14.25 -2.25 3.75
v 14.25 -2.25 0.75
v 14.25 -12.75 2.25
v 14.25 -14.25 3.75
v 14.25 -15.75 2.3126930329669881
v 14.25 -14.25 0.75
v -6.75 -6.75 2.245113106498247
v -2.25 -3.75 2.25
v 0.039987011746585588 0.72221204834300179 0.75
v -2.25 -5.25 3.75
v 12.75 -0.75 3.75
v -6.75 -8.25 3.75
v -2.25 -5.25 0.75
v -2.25 -6.75 2.25
v -5.3771578482170508 -9.7956651604465144 0.75
v 12.75 -0.75 0.75
v 11.25 -0.75 2.25
v -6.5482592206486014 -8.2988835699805605 0.75
v -6.75 -9.75 2.25
v 11.065510869223379 -5.1898148278867824 3.75
v 11.067461607683621 -5.1902317283689303 0.75
v -12.75 -15.75 3.75
v 0.33621387431682481 -9.75 2.025887053521398
v 12.75 -15.75 3.75
v -2.25 -12.75 2.25
v 11.25 -14.25 3.75
v -2.25 -14.46086690588179 3.75
v 11.254298547605011 -15.75 2.1825007706550972
v 12.75 -15.75 0.75
v -2.25 -14.23300589326486 0.75
v 8.25 -0.75 2.25
v -14.25 -12.75 2.25
v -14.25 -15.75 2.25
v 6.4742204805738712 -2.1921719169938449 3.75
v 6.75 -2.25 0.75
v -3.75 -11.25 2.25
v 6.75 -6.75 2.25
v 8.25 -9.75 0.75
v 6.6129703882676747 -8.4908500632675992 0.75
v 5.25 -12.75 2.25
v 5.25 -15.75 2.25
v -3.75 -0.75 3.75
v -3.5121961511024828 -0.88314641474542133 0.75
v 3.75 3.75 3.75
v 1.43584602401831 0.15361761150067549 0.75
v -1.317276742635475 -0.033477635498319253 0.75
v 5.9661948848734383 -7.66528646581859 0.75
v -9.4938346494649064 -8.5755149894175879 3.75
v 5.625 -3.75 3
v 5.6946335748325376 -6.75 3.0316756075061768
v 5.625 -6.75 1.5
v 3.375 -3 3.75
v 3.375 -3.75 3
v 1.125 -2.25 3
v 0.82482698767128215 -3.0599524227530712 3.75
v -5.625 -3.75 1.5
v -1.125 -0.75 1.5
v -1.125 -2.25 3
v -0.99553978984979785 -3.1650306277235001 3.75
v 9 -4.875 3.75
v -8.5426343655604242 -8.4489328380212267 3.75
v -6.9375 -2.25 0.75
v 0.91428171991021689 2.25 3.0133066613272779
v -4.4263508443808322 -8.6264527019475175 3.75
v 1.000625094813818 -6.6028911043558534 0.75
v -1.125 -6.375 3.75
f 1 3 15 
f 497 3 1 
f 1 15 16 
f 1 16 497 
f 17 4 2 
f 2 4 497 
f 2 16 486 
f 497 16 2 
f 486 17 2 
f 3 5 18 
f 496 5 3 
f 44 15 3 
f 3 18 44 
f 497 496 3 
f 20 6 4 
f 4 6 496 
f 4 17 20 
f 4 496 497 
f 19 18 5 
f 496 19 5 
f 20 19 6 
f 6 19 496 
f 7 8 11 
f 34 8 7 
f 11 10 7 
f 7 10 33 
f 7 33 34 
f 8 9 12 
f 34 9 8 
f 12 11 8 
f 37 12 9 
f 9 34 35 
f 9 35 37 
f 10 11 13 
f 10 13 36 
f 36 33 10 
f 11 12 14 
f 457 13 11 
f 11 14 457 
f 40 14 12 
f 12 37 40 
f 38 36 13 
f 39 38 13 
f 457 39 13 
f 40 39 14 
f 14 39 457 
f 42 16 15 
f 15 41 42 
f 44 41 15 
f 16 42 43 
f 16 43 486 
f 49 20 17 
f 17 43 46 
f 486 43 17 
f 17 46 49 
f 18 19 22 
f 22 21 18 
f 18 21 47 
f 47 44 18 
f 19 20 23 
f 23 22 19 
f 51 23 20 
f 20 49 51 
f 21 22 25 
f 25 24 21 
f 21 24 50 
f 50 47 21 
f 22 23 26 
f 26 25 22 
f 51 26 23 
f 24 25 52 
f 52 50 24 
f 25 26 53 
f 53 52 25 
f 26 51 54 
f 54 53 26 
f 27 28 31 
f 59 28 27 
f 31 30 27 
f 27 30 58 
f 27 58 59 
f 28 29 32 
f 59 29 28 
f 32 31 28 
f 62 32 29 
f 29 59 60 
f 29 60 62 
f 30 31 34 
f 34 33 30 
f 30 33 63 
f 461 58 30 
f 30 63 461 
f 31 32 35 
f 35 34 31 
f 62 35 32 
f 33 36 63 
f 65 37 35 
f 35 62 65 
f 36 38 66 
f 66 63 36 
f 69 40 37 
f 37 65 456 
f 456 69 37 
f 38 39 68 
f 68 66 38 
f 39 40 69 
f 452 68 39 
f 39 69 452 
f 44 42 41 
f 45 43 42 
f 42 44 45 
f 43 45 46 
f 47 45 44 
f 48 46 45 
f 45 47 48 
f 46 48 49 
f 71 48 47 
f 47 50 70 
f 47 70 71 
f 72 49 48 
f 48 71 72 
f 72 51 49 
f 50 52 73 
f 73 70 50 
f 75 54 51 
f 51 72 75 
f 52 53 56 
f 56 55 52 
f 52 55 76 
f 76 73 52 
f 53 54 57 
f 57 56 53 
f 78 57 54 
f 54 75 78 
f 55 56 59 
f 59 58 55 
f 55 58 392 
f 392 76 55 
f 56 57 60 
f 60 59 56 
f 79 60 57 
f 57 78 512 
f 512 79 57 
f 58 61 392 
f 461 61 58 
f 444 62 60 
f 60 79 444 
f 61 80 414 
f 461 80 61 
f 433 392 61 
f 61 414 433 
f 82 65 62 
f 413 82 62 
f 444 413 62 
f 66 64 63 
f 63 64 80 
f 63 80 461 
f 67 65 64 
f 64 65 81 
f 64 66 67 
f 81 80 64 
f 65 67 456 
f 82 81 65 
f 68 67 66 
f 67 68 452 
f 452 69 67 
f 67 69 456 
f 73 71 70 
f 74 72 71 
f 71 73 74 
f 72 74 75 
f 76 74 73 
f 77 75 74 
f 74 76 77 
f 75 77 78 
f 84 77 76 
f 76 83 84 
f 392 83 76 
f 85 78 77 
f 77 84 85 
f 78 85 512 
f 79 104 107 
f 428 104 79 
f 79 107 413 
f 79 413 444 
f 525 428 79 
f 79 512 525 
f 80 81 86 
f 80 86 414 
f 81 82 87 
f 87 86 81 
f 88 87 82 
f 413 88 82 
f 483 84 83 
f 430 101 83 
f 83 101 483 
f 83 392 430 
f 102 85 84 
f 483 102 84 
f 85 102 428 
f 85 428 525 
f 525 512 85 
f 86 87 90 
f 90 89 86 
f 86 89 108 
f 108 105 86 
f 86 105 414 
f 87 88 91 
f 91 90 87 
f 110 91 88 
f 88 107 110 
f 413 107 88 
f 89 90 93 
f 93 92 89 
f 89 92 113 
f 526 108 89 
f 89 113 526 
f 90 91 94 
f 94 93 90 
f 115 94 91 
f 91 110 112 
f 91 112 115 
f 92 93 113 
f 93 94 114 
f 114 113 93 
f 115 114 94 
f 95 96 99 
f 132 96 95 
f 99 98 95 
f 95 98 131 
f 95 131 132 
f 96 97 100 
f 133 97 96 
f 100 99 96 
f 96 132 133 
f 133 100 97 
f 98 99 483 
f 98 101 426 
f 483 101 98 
f 426 131 98 
f 99 100 102 
f 99 102 483 
f 425 102 100 
f 100 133 425 
f 101 377 479 
f 482 377 101 
f 479 426 101 
f 101 430 482 
f 425 399 102 
f 102 399 476 
f 476 428 102 
f 103 105 106 
f 414 105 103 
f 103 106 471 
f 103 304 377 
f 398 304 103 
f 103 377 482 
f 471 398 103 
f 433 414 103 
f 103 430 433 
f 482 430 103 
f 104 106 107 
f 471 106 104 
f 104 134 398 
f 399 134 104 
f 104 398 471 
f 476 399 104 
f 104 428 476 
f 108 106 105 
f 109 107 106 
f 106 108 109 
f 107 109 110 
f 520 109 108 
f 108 111 135 
f 526 111 108 
f 108 135 520 
f 137 110 109 
f 109 136 137 
f 520 136 109 
f 137 112 110 
f 111 113 138 
f 526 113 111 
f 416 135 111 
f 111 138 416 
f 140 115 112 
f 112 137 415 
f 415 140 112 
f 113 114 138 
f 114 115 139 
f 139 138 114 
f 140 139 115 
f 116 117 120 
f 145 117 116 
f 120 119 116 
f 116 119 144 
f 116 144 145 
f 117 118 121 
f 145 118 117 
f 121 120 117 
f 148 121 118 
f 118 145 146 
f 118 146 148 
f 119 120 123 
f 123 122 119 
f 119 122 147 
f 147 144 119 
f 120 121 124 
f 124 123 120 
f 148 124 121 
f 122 123 149 
f 149 147 122 
f 123 124 150 
f 150 149 123 
f 124 148 151 
f 151 150 124 
f 125 126 129 
f 419 126 125 
f 129 128 125 
f 125 128 373 
f 125 373 451 
f 451 419 125 
f 126 127 130 
f 152 127 126 
f 130 129 126 
f 419 152 126 
f 153 130 127 
f 127 152 153 
f 128 129 132 
f 132 131 128 
f 128 131 373 
f 129 130 133 
f 133 132 129 
f 156 133 130 
f 130 153 156 
f 157 154 131 
f 131 154 373 
f 426 157 131 
f 133 156 158 
f 133 158 425 
f 134 182 393 
f 429 182 134 
f 134 393 398 
f 134 399 528 
f 528 429 134 
f 184 136 135 
f 135 136 520 
f 416 184 135 
f 185 137 136 
f 136 184 472 
f 472 185 136 
f 137 185 415 
f 138 139 142 
f 142 141 138 
f 138 141 507 
f 507 416 138 
f 139 140 143 
f 143 142 139 
f 506 143 140 
f 140 415 506 
f 141 142 145 
f 145 144 141 
f 141 144 164 
f 164 162 141 
f 141 162 507 
f 142 143 146 
f 146 145 142 
f 166 146 143 
f 143 163 166 
f 506 163 143 
f 144 147 164 
f 166 148 146 
f 147 149 167 
f 167 164 147 
f 169 151 148 
f 148 166 169 
f 149 150 170 
f 170 167 149 
f 150 151 171 
f 171 170 150 
f 151 169 172 
f 172 171 151 
f 175 153 152 
f 152 174 175 
f 419 174 152 
f 491 156 153 
f 153 175 491 
f 157 155 154 
f 154 155 177 
f 154 177 373 
f 155 156 178 
f 500 156 155 
f 155 157 500 
f 489 177 155 
f 155 178 489 
f 500 158 156 
f 491 178 156 
f 157 159 160 
f 426 159 157 
f 157 160 500 
f 158 160 161 
f 500 160 158 
f 158 161 425 
f 390 160 159 
f 159 377 431 
f 479 377 159 
f 411 390 159 
f 431 411 159 
f 159 426 479 
f 391 161 160 
f 160 390 391 
f 161 391 410 
f 161 410 429 
f 528 425 161 
f 161 429 528 
f 162 164 408 
f 162 189 507 
f 510 189 162 
f 162 408 435 
f 162 435 510 
f 409 166 163 
f 163 191 434 
f 506 191 163 
f 434 409 163 
f 167 165 164 
f 164 165 408 
f 168 166 165 
f 165 166 409 
f 165 167 168 
f 165 206 408 
f 409 206 165 
f 166 168 169 
f 170 168 167 
f 171 169 168 
f 168 170 171 
f 169 171 172 
f 176 174 173 
f 173 174 419 
f 494 176 173 
f 451 373 173 
f 173 373 494 
f 173 419 451 
f 176 175 174 
f 175 176 491 
f 176 177 489 
f 494 177 176 
f 489 178 176 
f 176 178 491 
f 494 373 177 
f 179 390 411 
f 487 390 179 
f 179 404 407 
f 411 404 179 
f 406 405 179 
f 179 405 487 
f 407 406 179 
f 410 391 180 
f 180 391 487 
f 180 400 402 
f 412 400 180 
f 403 401 180 
f 180 401 410 
f 180 402 403 
f 487 412 180 
f 181 183 477 
f 478 183 181 
f 181 194 404 
f 439 194 181 
f 181 304 393 
f 431 304 181 
f 181 393 478 
f 181 404 431 
f 477 439 181 
f 474 183 182 
f 182 183 478 
f 478 393 182 
f 429 401 182 
f 182 401 530 
f 182 438 474 
f 530 438 182 
f 472 184 183 
f 183 184 477 
f 183 185 472 
f 474 185 183 
f 184 186 396 
f 416 186 184 
f 184 396 439 
f 184 439 477 
f 185 188 415 
f 523 188 185 
f 438 394 185 
f 185 394 523 
f 474 438 185 
f 189 187 186 
f 186 187 197 
f 507 189 186 
f 197 196 186 
f 186 196 396 
f 186 416 507 
f 190 188 187 
f 187 188 522 
f 187 189 190 
f 522 197 187 
f 188 190 191 
f 188 191 506 
f 188 198 522 
f 523 198 188 
f 506 415 188 
f 521 190 189 
f 510 199 189 
f 189 199 521 
f 200 191 190 
f 521 200 190 
f 191 200 201 
f 191 201 462 
f 462 434 191 
f 192 208 397 
f 463 208 192 
f 192 397 473 
f 435 408 192 
f 192 408 463 
f 473 435 192 
f 193 204 395 
f 462 204 193 
f 193 206 409 
f 463 206 193 
f 193 395 527 
f 193 409 434 
f 193 434 462 
f 527 463 193 
f 194 396 437 
f 439 396 194 
f 407 404 194 
f 529 407 194 
f 194 437 529 
f 402 214 195 
f 195 214 436 
f 436 394 195 
f 195 394 438 
f 403 402 195 
f 530 403 195 
f 195 438 530 
f 196 197 220 
f 196 220 396 
f 197 198 518 
f 522 198 197 
f 221 220 197 
f 518 221 197 
f 198 222 518 
f 519 222 198 
f 198 394 519 
f 523 394 198 
f 224 200 199 
f 199 200 521 
f 199 223 224 
f 509 223 199 
f 199 473 509 
f 510 473 199 
f 224 201 200 
f 225 204 201 
f 201 204 462 
f 201 224 225 
f 446 223 202 
f 202 223 509 
f 202 248 265 
f 397 248 202 
f 202 265 446 
f 509 397 202 
f 203 207 459 
f 460 207 203 
f 229 226 203 
f 203 226 460 
f 459 229 203 
f 204 225 420 
f 420 395 204 
f 458 207 205 
f 205 207 460 
f 205 228 230 
f 460 228 205 
f 205 230 458 
f 463 408 206 
f 211 210 207 
f 207 210 459 
f 458 211 207 
f 208 248 397 
f 447 248 208 
f 395 249 208 
f 208 249 447 
f 527 395 208 
f 208 463 527 
f 209 210 231 
f 459 210 209 
f 231 229 209 
f 209 229 459 
f 210 211 232 
f 232 231 210 
f 211 230 233 
f 458 230 211 
f 233 232 211 
f 418 237 212 
f 212 237 422 
f 422 240 212 
f 212 240 511 
f 212 281 418 
f 503 281 212 
f 511 503 212 
f 213 215 454 
f 455 215 213 
f 213 240 422 
f 454 240 213 
f 422 406 213 
f 213 406 529 
f 213 437 455 
f 529 437 213 
f 214 215 453 
f 454 215 214 
f 242 241 214 
f 214 241 454 
f 421 242 214 
f 214 402 421 
f 453 436 214 
f 215 217 218 
f 455 217 215 
f 215 218 219 
f 215 219 453 
f 502 281 216 
f 216 281 503 
f 216 284 443 
f 503 284 216 
f 216 307 343 
f 443 307 216 
f 340 323 216 
f 216 323 502 
f 343 340 216 
f 243 218 217 
f 217 220 243 
f 396 220 217 
f 437 396 217 
f 455 437 217 
f 517 219 218 
f 218 243 244 
f 218 244 517 
f 516 222 219 
f 219 222 519 
f 219 245 516 
f 517 245 219 
f 219 394 436 
f 519 394 219 
f 219 436 453 
f 220 221 224 
f 224 223 220 
f 220 223 446 
f 246 243 220 
f 446 246 220 
f 221 222 225 
f 518 222 221 
f 225 224 221 
f 445 225 222 
f 222 247 445 
f 516 247 222 
f 450 420 225 
f 225 445 450 
f 226 229 255 
f 226 255 505 
f 226 449 460 
f 505 449 226 
f 345 308 227 
f 227 308 442 
f 227 325 342 
f 432 325 227 
f 227 342 345 
f 442 432 227 
f 259 230 228 
f 228 256 259 
f 505 256 228 
f 460 449 228 
f 228 449 505 
f 229 231 257 
f 257 255 229 
f 261 233 230 
f 230 259 261 
f 231 232 235 
f 235 234 231 
f 231 234 260 
f 260 257 231 
f 232 233 236 
f 236 235 232 
f 261 236 233 
f 234 235 238 
f 238 237 234 
f 234 237 418 
f 418 260 234 
f 235 236 239 
f 239 238 235 
f 417 239 236 
f 236 261 417 
f 237 238 412 
f 412 405 237 
f 237 405 422 
f 238 239 412 
f 239 374 421 
f 448 374 239 
f 239 400 412 
f 421 400 239 
f 239 417 448 
f 454 241 240 
f 240 241 515 
f 240 284 511 
f 515 284 240 
f 241 242 514 
f 514 501 241 
f 241 501 515 
f 374 285 242 
f 242 285 514 
f 421 374 242 
f 290 244 243 
f 243 246 289 
f 243 289 290 
f 513 245 244 
f 244 245 517 
f 244 290 513 
f 291 247 245 
f 245 247 516 
f 513 291 245 
f 446 262 246 
f 246 262 499 
f 499 289 246 
f 247 264 445 
f 498 264 247 
f 247 291 498 
f 251 250 248 
f 248 250 268 
f 447 251 248 
f 268 265 248 
f 249 251 447 
f 508 251 249 
f 249 267 270 
f 420 267 249 
f 249 270 272 
f 249 272 508 
f 249 395 420 
f 250 251 253 
f 253 252 250 
f 250 252 271 
f 271 268 250 
f 254 253 251 
f 508 254 251 
f 252 253 273 
f 273 271 252 
f 253 254 274 
f 274 273 253 
f 254 272 275 
f 508 272 254 
f 275 274 254 
f 255 257 258 
f 255 258 505 
f 256 258 259 
f 505 258 256 
f 260 258 257 
f 261 259 258 
f 258 260 504 
f 504 261 258 
f 260 276 277 
f 279 276 260 
f 260 277 504 
f 418 279 260 
f 261 277 278 
f 504 277 261 
f 261 278 280 
f 261 280 417 
f 265 263 262 
f 262 263 292 
f 446 265 262 
f 262 292 499 
f 266 264 263 
f 263 264 293 
f 263 265 266 
f 293 292 263 
f 264 266 267 
f 264 267 450 
f 294 293 264 
f 498 294 264 
f 450 445 264 
f 268 266 265 
f 269 267 266 
f 266 268 269 
f 267 269 270 
f 267 420 450 
f 296 269 268 
f 268 271 295 
f 268 295 296 
f 297 270 269 
f 269 296 297 
f 297 272 270 
f 271 273 298 
f 298 295 271 
f 300 275 272 
f 272 297 300 
f 273 274 301 
f 301 298 273 
f 274 275 302 
f 302 301 274 
f 275 300 303 
f 303 302 275 
f 279 277 276 
f 280 278 277 
f 277 279 280 
f 282 280 279 
f 279 281 282 
f 418 281 279 
f 280 282 283 
f 280 283 417 
f 305 282 281 
f 502 305 281 
f 306 283 282 
f 282 305 306 
f 283 306 432 
f 432 374 283 
f 283 374 448 
f 448 417 283 
f 287 286 284 
f 284 286 441 
f 501 287 284 
f 284 441 443 
f 515 501 284 
f 284 503 511 
f 288 287 285 
f 285 287 501 
f 440 288 285 
f 285 374 432 
f 285 432 442 
f 442 440 285 
f 285 501 514 
f 286 287 290 
f 290 289 286 
f 286 289 309 
f 286 309 441 
f 287 288 291 
f 291 290 287 
f 311 291 288 
f 440 311 288 
f 312 309 289 
f 499 312 289 
f 290 291 513 
f 291 311 314 
f 291 314 498 
f 292 293 315 
f 315 312 292 
f 292 312 499 
f 293 294 316 
f 495 315 293 
f 293 316 495 
f 294 314 316 
f 498 314 294 
f 298 296 295 
f 299 297 296 
f 296 298 299 
f 297 299 300 
f 301 299 298 
f 302 300 299 
f 299 301 302 
f 300 302 303 
f 431 377 304 
f 398 393 304 
f 325 306 305 
f 305 323 324 
f 502 323 305 
f 305 324 325 
f 306 325 432 
f 441 326 307 
f 307 326 485 
f 485 343 307 
f 443 441 307 
f 484 328 308 
f 308 328 524 
f 308 345 484 
f 308 440 442 
f 524 440 308 
f 312 310 309 
f 309 310 326 
f 309 326 441 
f 313 311 310 
f 310 311 327 
f 310 312 313 
f 327 326 310 
f 311 313 314 
f 328 327 311 
f 524 328 311 
f 311 440 524 
f 315 313 312 
f 316 314 313 
f 313 315 495 
f 495 316 313 
f 317 318 321 
f 333 318 317 
f 321 320 317 
f 317 320 332 
f 317 332 333 
f 318 319 322 
f 333 319 318 
f 322 321 318 
f 336 322 319 
f 319 333 334 
f 319 334 336 
f 320 321 324 
f 324 323 320 
f 320 323 335 
f 335 332 320 
f 321 322 325 
f 325 324 321 
f 336 325 322 
f 337 335 323 
f 340 337 323 
f 325 336 339 
f 325 339 342 
f 326 327 346 
f 326 346 485 
f 327 328 347 
f 347 346 327 
f 348 347 328 
f 484 348 328 
f 492 331 329 
f 329 331 493 
f 329 386 492 
f 493 386 329 
f 330 386 488 
f 492 386 330 
f 488 389 330 
f 330 389 490 
f 490 427 330 
f 330 427 492 
f 333 332 331 
f 331 332 388 
f 427 333 331 
f 331 388 493 
f 492 427 331 
f 332 335 354 
f 332 354 388 
f 427 334 333 
f 356 336 334 
f 490 356 334 
f 334 427 490 
f 335 337 357 
f 357 354 335 
f 359 339 336 
f 336 356 359 
f 340 338 337 
f 337 338 360 
f 360 357 337 
f 341 339 338 
f 338 339 361 
f 338 340 341 
f 361 360 338 
f 339 341 342 
f 339 359 362 
f 362 361 339 
f 343 341 340 
f 344 342 341 
f 341 343 344 
f 342 344 345 
f 364 344 343 
f 343 363 364 
f 366 363 343 
f 485 366 343 
f 365 345 344 
f 344 364 365 
f 345 365 368 
f 345 368 484 
f 346 347 350 
f 350 349 346 
f 346 349 369 
f 369 366 346 
f 346 366 485 
f 347 348 351 
f 351 350 347 
f 372 351 348 
f 348 368 371 
f 484 368 348 
f 348 371 372 
f 349 350 352 
f 349 352 480 
f 466 369 349 
f 480 466 349 
f 350 351 353 
f 481 352 350 
f 350 353 481 
f 372 353 351 
f 352 384 480 
f 481 384 352 
f 353 372 475 
f 475 384 353 
f 353 384 481 
f 357 355 354 
f 354 355 379 
f 354 379 470 
f 470 388 354 
f 358 356 355 
f 355 356 380 
f 355 357 358 
f 467 379 355 
f 355 380 467 
f 356 358 359 
f 389 380 356 
f 490 389 356 
f 360 358 357 
f 361 359 358 
f 358 360 361 
f 359 361 362 
f 366 364 363 
f 367 365 364 
f 364 366 367 
f 365 367 368 
f 369 367 366 
f 370 368 367 
f 367 369 370 
f 368 370 371 
f 382 370 369 
f 369 381 382 
f 466 381 369 
f 383 371 370 
f 370 382 383 
f 383 372 371 
f 372 383 465 
f 465 387 372 
f 372 387 475 
f 375 378 469 
f 470 378 375 
f 469 386 375 
f 375 386 493 
f 375 388 470 
f 493 388 375 
f 376 378 468 
f 469 378 376 
f 376 386 469 
f 488 386 376 
f 468 389 376 
f 376 389 488 
f 378 379 467 
f 470 379 378 
f 467 380 378 
f 378 380 468 
f 380 389 468 
f 424 382 381 
f 466 424 381 
f 423 383 382 
f 424 423 382 
f 383 423 465 
f 464 385 384 
f 384 385 480 
f 384 387 464 
f 475 387 384 
f 464 424 385 
f 385 424 466 
f 385 466 480 
f 387 423 464 
f 465 423 387 
f 487 391 390 
f 433 430 392 
f 509 473 397 
f 399 425 528 
f 421 402 400 
f 401 403 530 
f 429 410 401 
f 404 411 431 
f 405 406 422 
f 405 412 487 
f 406 407 529 
f 423 424 464 
f 435 473 510 
