v -15.75 -6.75 -0.75
v -15.75 -6.75 1.875
v -15.75 -6.75 5.25
v -15.75 -5.25 -0.75
v -15.75 -5.1665148562084138 2.01126154141848
v -15.75 -5.25 5.25
v -15.75 -3.75 -0.75
v -15.75 -3.75 1.875
v -15.75 -3.75 5.25
v -13.125 -6.75 -0.75
v -12.997302856428551 -6.75 1.8147224830501449
v -13.125 -6.75 5.25
v -13.5 -5.25 -0.75
v -14.25 -3.75 -0.75
v -12.75 -3.75 -0.75
v -12.75 -3.75 1.875
v -12.75 -3.75 5.25
v -12.75 -2.25 -0.75
v -12.75 -0.75 -0.75
v -12.75 -0.75000000000000011 1.8909456229416399
v -12.75 -0.75 5.25
v -9.75 -6.75 -0.75
v -9.75 -6.75 1.875
v -9.75 -6.75 5.25
v -9.75 -3.75 -0.75
v -9.75 -3.75 1.875
v -9.75 -3.75 5.25
v -9.75 -0.75 -0.75
v -9.75 -0.75 1.875
v -9.75 -0.75 5.25
v -9.75 1.875 -0.75
v -9.75 1.8937514103709161 1.8459445146146141
v -9.75 1.875 5.25
v -9.75 5.25 -0.75
v -9.75 5.25 1.879169041847196
v -9.75 5.25 5.25
v -8.2732820173978929 -3.75 -0.75
v -7.875 -1.5 5.25
v -6.75 -6.75 -0.75
v -6.75 -6.75 1.875
v -6.75 -6.75 5.25
v -6.75 -3.75 -0.75
v -6.75 -3.75 1.875
v -6.75 -3.75 5.25
v -6.75 -0.75 -0.75
v -6.75 -0.75 1.875
v -6.75 -0.75 5.25
v -6.75 0.75 -0.75
v -6.75 0.75 5.25
v -6.75 2.25 -0.75
v -6.75 2.25 1.875
v -6.75 2.25 5.25
v -6.75 5.25 -0.75
v -6.75 5.25 1.875
v -6.7478451068113454 5.2387583639184774 5.25
v -6.75 8.25 -0.75
v -6.75 8.25 1.875
v -6.75 8.25 5.25
v -5.254097507604369 -0.75 1.912512474193701
v -5.25 -0.75 5.25
v -5.25 2.25 5.25
v -3.75 -6.75 -0.75
v -3.75 -6.75 1.875
v -3.75 -6.75 5.25
v -3.75 -3.75 -0.75
v -3.75 -3.75 1.875
v -3.75 -3.75 5.25
v -3.75 -0.75 -0.75
v -3.75 -0.75 1.875
v -3.75 -0.75 5.25
v -12.021963981676571 -3.024404424085076 5.25
v 5.25 3.5625 3.5625
v -3.75 0.75 5.25
v -3.75 2.25 -0.75
v -3.75 2.25 2.037545373387974
v -3.75 2.25 5.25
v -3.75 5.25 -0.75
v -3.75 5.25 1.875
v -3.75 5.25 5.25
v -3.75 8.25 -0.75
v -3.75 8.25 1.875
v -3.75 8.25 5.25
v -0.375 -2.4375 -0.75
v -0.75 -6.75 -0.75
v -0.75 -6.75 1.875
v -0.75 -6.75 5.25
v -0.75 -3.75 -0.75
v -0.75 -3.75 1.875
v -0.75 -3.75 5.25
v -0.75 -0.75 -0.75
v -0.75 -0.75 1.875
v -0.75 -0.75 5.25
v -0.75 0.75 -0.75
v -0.75 0.70667908604490504 1.6687027382072861
v -0.75 0.75 5.25
v -0.75 2.25 -0.75
v -0.75 2.25 1.875
v -0.75 2.25 5.25
v -0.75 5.25 -0.75
v -0.75 5.25 1.875
v -0.75 5.25 5.25
v -0.75 6.75 5.25
v -0.75 8.25 -0.75
v -0.75 8.25 1.875
v -0.75 8.25 5.25
v 0.75 -0.75 -0.75
v 0.92236015855654974 -0.75 1.8561393829205779
v 0.75 -0.75 5.25
v 0.75 2.25 -0.75
v 0.75 2.25 1.875
v 0.75 2.25 5.25
v 2.625 3.375 5.25
v 0.53689830364237945 5.9973741059012244 5.25
v 0.75 8.25 5.25
v 2.25 -6.75 -0.75
v 2.25 -6.75 1.875
v 2.25 -6.75 5.25
v -6.75 0.89303663657392374 3.5182294791679309
v -9.75 -5.25 3.5625
v 2.25 -3.75 -0.75
v 2.25 -3.75 1.875
v 2.25 -3.75 5.25
v 2.25 -0.75 -0.75
v 2.25 -0.75 1.875
v 2.25 -0.75 5.25
v 2.25 0.75 -0.75
v 2.25 0.57014144166464387 2.385581874630089
v 2.25 0.75 5.25
v 2.25 2.25 -0.75
v 2.25 2.25 1.875
v 2.25 2.25 5.25
v 2.25 5.25 -0.75
v 2.25 5.25 1.875
v 2.25 5.25 5.25
v 2.25 6.75 5.25
v 2.25 8.25 -0.75
v 2.25 8.25 1.875
v 2.25 8.25 5.25
v -11.25 -0.75 3.5625
v 3.75 -3.75 5.25
v -5.25 -6.75 3.5625
v -6.75 -5.25 3.5625
v 3.6677002525818772 0.24980120462125149 5.25
v -0.75 -5.25 3.5625
v 0.75 -6.75 3.5625
v 3.75 5.25 5.25
v 5.25 -6.75 -0.75
v 5.25 -6.75 1.875
v 5.25 -6.75 5.25
v 11.25 -5.25 3.5625
v 5.25 -5.25 1.875
v -2.071551657844044 5.25 3.5564811861085568
v 5.25 -3.75 -0.75
v 5.25 -3.75 1.875
v 5.25 -3.75 5.25
v 5.25 -0.75 -0.75
v 5.2535735865358912 -0.75 1.750191049725407
v 5.25 -0.75 5.25
v 5.25 2.004771327613335 -0.75
v 5.25 1.875 1.875
v 5.25 1.875 5.25
v 5.25 5.25 -0.75
v 5.25 5.25 1.875
v 5.25 5.25 5.25
v 7.875 -6.75 -0.75
v 7.8910703115417302 -6.75 2.0547932458650711
v 7.875 -6.75 5.25
v -8.25 5.25 3.5625
v -3.75 6.75 3.5625
v 9.7525509773733976 -3.75 3.6186094836382292
v 8.25 -3.75 -0.75
v 8.25 -3.75 1.8439555839290329
v 8.25 -3.75 5.25
v -8.4255587929331472 3.388663030565453 5.25
v 6.9726417854925078 -0.75 3.8375966249063889
v 8.25 -2.25 5.25
v 8.25 -0.75 -0.75
v 8.25 -0.75 1.875
v 8.25 -0.75 5.25
v -2.4312658436440562 -3.75 3.5999376724141832
v -3.75 -5.25 3.5625
v -14.25 -3.75 3.5625
v 11.25 -6.75 -0.75
v 11.25 -6.75 1.875
v 11.25 -6.75 5.25
v -5.5444069510404619 8.25 3.2157191975912651
v 11.25 -3.75 -0.75
v 11.25 -3.75 1.875
v 11.25 -3.75 5.25
v -6.75 6.5355317710818452 3.5618399180546829
v 2.25 -5.25 3.5625
v -12.75 -2.25 3.5625
v -8.4172089140493771 -3.75 3.5413204553749531
v 9.5625 -6.75 0.5625
v 5.25 3.5625 0.5625
v 5.25 0.5625 3.5625
v -9.75 3.5625 0.5625
v -14.4375 -6.75 3.5625
v -5.25 -5.25 5.25
v -5.3218512205954589 -2.0988286981482029 -0.75
v 0.75 -5.25 5.25
v 1.2983447481883399 -2.252727429306788 5.25
v -5.1228176798680334 -5.2141985489743519 -0.75
v -11.37801558928475 -2.2012661702879841 5.25
v 0.86576659737785722 -5.3680721005647101 -0.75
v 9.6866517318461991 -5.2769665124659006 5.25
v -2.25 3.75 5.25
v 9.75 -5.25 -0.75
v -2.044573869800399 3.6218489139558101 -0.75
v -8.4749076513675146 3.5371822836189222 -0.75
v -1.9225401408456391 -2.0673717202950179 5.25
v 6.75 -2.25 -0.75
v 6.75 -5.25 5.25
v 6.75 -5.25 -0.75
v 3.5953621652348531 3.7430246845520849 -0.75
v 4.0002917877267494 -2.209997074061421 5.25
v -5.0365593109772524 6.906662835902015 5.25
v -5.25 3.75 5.25
v 3.7884068299279838 -2.296839036408064 -0.75
v -5.25 6.75 -0.75
v -5.2376555746890654 3.7089155861155558 -0.75
v -5.5852065909121462 -2.54826660258284 5.25
v 0.75369036332197115 6.3746084506192284 -0.75
v -9.75 -5.25 0.5625
v -5.25 -0.75 0.5625
v -0.75 6.5629804593863401 0.6152931271974289
v -0.75 -5.2462408492735211 0.54140364875043179
v 0.68544861661162715 -6.75 0.55030161519113929
v -5.25 -6.75 0.5625
v -6.75 -5.25 0.5625
v -11.27553118743773 -0.75 0.45814737122933469
v 11.25 -5.3136328739071983 0.60533804362297716
v -2.25 5.25 0.5625
v 9.7282355753294443 -3.75 0.55550090982521017
v 8.25 -2.2023563730095659 0.4971386347241008
v -3.75 6.6815429481018844 0.6774036411059704
v -8.1965811743757691 5.25 0.5945980992413975
v -3.75 0.75 0.5625
v 6.7089048429709699 -0.75 0.5660750203986904
v -2.227477037634856 -3.75 0.66461331349600594
v 5.25 -5.1022308085816146 0.56323037055618519
v -3.75 -5.2089766350633298 0.62234994006391031
v 3.7680215696323049 5.25 0.52813010251616532
v 2.25 6.75 0.5625
v -12.75 -2.3701776348997838 0.67391365410638993
v -5.25 8.25 0.5625
v 3.75 -3.75 0.5625
v -6.75 6.75 0.5625
v 2.25 -5.2118143130103904 0.51709701611395764
v -5.3399200063861576 2.25 0.50909390856240044
v 0.68087889073132934 8.25 0.48784954292201882
v 0.9375 4.3125 5.25
v 5.25 0.5625 0.5625
v 6.5625 -6.75 0.5625
v -9.75 0.56422995280444732 0.54744772895900184
v -15.75 -5.6398921455908244 3.574611772575166
v -4.7861492664757987 2.25 3.6557558057946609
v 3.3851455003419408 5.25 3.511457941603616
v -6.75 -0.75 3.5625
v -9.75 -6.75 3.5625
v -0.75 5.25 3.5625
v -0.75 2.25 3.5625
v -11.414707603090861 -6.75 5.25
v -6.75 -3.75 3.5625
v -0.75 -0.75 3.6204161735981431
v -11.4375 -6.75 1.875
v -15.75 -6.75 3.5625
v -0.75 -3.75 3.5625
v -0.75 -6.75 3.5625
v -6.75 -6.7473612533356446 3.6289945391678651
v 11.25 -3.75 3.5625
v -13.27965910885006 -6.75 3.6962663436255871
v 11.25 -6.75 3.5625
v -12.75 -0.75 3.5625
v -3.75 8.25 3.5625
v 8.25 -0.75 3.5625
v -11.4375 -6.75 -0.75
v 8.25 -3.75 3.5625
v -3.75 5.25 3.5625
v 9.5625 -6.75 5.25
v 9.4529377464909725 -6.75 1.7199581892618769
v 9.5625 -6.75 -0.75
v -14.308570617804181 -6.75 0.72559557591492418
v -9.75 5.25 3.5625
v -3.75 2.25 3.5625
v 5.25 5.25 3.5625
v 5.25 3.5625 5.25
v 5.25 3.5625 1.875
v 5.25 1.875 3.5625
v 5.25 3.5625 -0.75
v 5.25 -0.75 3.5625
v -3.75 -0.75 3.5625
v -9.75 3.5625 5.25
v 5.25 -3.75 3.5625
v -11.353463204998389 -5.1862611420757476 -0.75
v -9.75 3.569528242465033 1.7097967736435851
v -3.75 -3.75 3.5625
v 5.25 -6.75 3.5625
v -11.396298246099359 -6.75 0.78972086152718834
v -9.75 3.5625 -0.75
v -3.75 -6.75 3.5625
v -12.077995695386671 -6.75 3.774404424085076
v 2.25 8.25 3.5625
v 2.25 5.25 3.5625
v -12.75 -3.75 3.5625
v -9.75 -0.75 3.5625
v -11.5350158533145 -5.3844802050798926 5.25
v 2.25 2.25 3.5625
v -6.75 8.25 3.5625
v 2.25 -0.75 3.5625
v -15.75 -3.75 3.5625
v 2.25 -3.75 3.5625
v -6.75 5.25 3.5625
v 2.25 -6.75 3.3725971331891968
v -6.75 2.25 3.5625
v -8.2991449931965864 -2.280895229615918 -0.75
v -9.75 -3.75 3.5625
v 0.57102639579555692 2.25 3.4545714840828179
v 0.48313682617750497 -0.75 3.5185109383529132
v -9.75 0.52680404121596514 3.8824871096628568
v -0.75 8.25 3.5625
v -5.2913065478459282 -0.75 3.67269317686049
v -2.25 -2.274404424085076 -0.75
v -0.75 0.30926049522387922 3.738732721294566
v 0 3.75 5.25
v -14.197272917030279 -4.7640947615855938 5.25
v -0.75 6.9427865328311427 3.5401120696778792
v 0.12578638352459981 3.5737055210941828 -0.75
v -2.25 1.5 -0.75
v 0.76033801000709711 8.25 3.664169895188206
v -11.11930343267216 -1.7113630859795721 -0.75
v -2.25 0 5.25
v 6.7274519620621183 -1.618303643727389 5.25
v -11.151150936420819 -3.169949144071635 -0.75
v -2.281116409914095 0.28084858191856721 -0.75
v 6.6984176599699161 -2.682492756351087 5.25
v -8.3156256546991614 0.13084349019537139 5.25
v -8.1401326209607827 0.2103823551646278 -0.75
v 3.857736415684299 0.23071342559459951 -0.75
v 3 -2.25 5.25
v 1.5 3.75 -0.75
v 2.25 6.9109495440654074 3.547775737494995
v 1.094568605324342 -2.0200276734383169 -0.75
v 3.779285308902093 -3.75 3.774404424085076
v 5.25 -5.9064037299701209 3.4282432236574358
v 6.198771501704571 -6.75 3.643363185630434
v -8.108489897682059 1.1249781551189471 -0.75
v 3.5741422789760859 1.1408960588347841 -0.75
v 9.0245028857706551 -6.75 3.774404424085076
v -6.75 0.27277599931710811 0.60592770353205039
v -13.013650919192351 -5.2402164673481257 5.25
v 0 2.25 0.5625
v -0.75 1.294651774469475 0.44604226571921629
v 0.15272917182845691 -0.75 0.76724543595755212
v -0.75 0.25575498375647271 0.55738750498279555
v -7.8041306789740599 -3.75 0.70075170435570522
v 8.0625 -5.25 5.25
v 8.0625 -5.25 -0.75
v -8.25 2.0625 5.25
v -8.1591229623448509 2.2599296983616441 -0.75
v -15.75 -4.5 0.5625
v 3.75 2.0625 5.25
v -14.70094917344365 -3.75 0.6208205580013163
v 3.75 2.0625 -0.75
v 2.25 1.191927431539727 0.69895246199098149
v 2.25 0 0.5625
v -8.6681103897424752 -3.75 0.47590904685272373
v -13.671039011371001 -3.75 0.55581079484494478
v 1.309299202417078 -0.75 0.36993534055618638
v -6.75 1.3110800859139971 0.62702265749482577
v -10.77695446905917 -6.75 2.9685159325185739
v 5.25 -4.6507586439434361 3.1068892696681449
v -6.75 0.74121492978067138 1.9924677554779531
v -9.75 -5.3617361572564333 2.163365273363413
v -0.75 6.6347563766076112 2.2020505471918481
v 0.71977882852061015 5.0369527129630729 -0.75
v -0.75 6.75 -0.75
v -5.25 -0.75 -0.75
v -0.75 3.75 5.25
v -5.2467537067847463 -3.8325414632694228 5.25
v -0.90150600634583067 3.7174811958566552 -0.75
v -9.75 -5.25 -0.75
v 0.69963622446489537 -3.3823002182465411 5.25
v -5.1745867764463851 -3.7429551957428391 -0.75
v -6.8749181308960496 -2.258225901585142 -0.75
v -0.16784601377428451 -2.2877080535128771 5.25
v -11.25 -0.75 5.25
v -5.25 -6.75 5.25
v -6.75 -5.25 5.25
v 0.61720943810803863 -3.910222259762048 -0.75
v 0.75 -6.75 5.25
v -0.75 -5.25 5.25
v -6.75 -5.25 1.875
v -5.25 -6.75 1.875
v 0.75 -6.75 1.875
v -0.75 -5.1898538857085352 1.8220569704324121
v 0.75 -6.75 -0.75
v -0.75 -5.25 -0.75
v -11.25 -0.75 1.875
v -5.25 -6.75 -0.75
v -6.7465741702134094 -4.9015109734487341 -0.75
v 11.25 -5.25 5.25
v 11.25 -5.25 1.875
v 11.25 -5.25 -0.75
v -2.25 5.25 5.25
v -3.75 6.75 5.25
v 9.75 -3.75 5.25
v -2.334521431928545 5.25 2.1129475792701169
v 9.7205280465595898 -3.75 2.0704957484948521
v -8.25 5.25 5.25
v 8.25 -2.25 1.875
v -11.25 -0.75 -0.75
v -3.75 6.75 1.875
v 9.75 -3.75 -0.75
v 8.25 -2.25 -0.75
v -2.277621840669402 5.25 -0.75
v -3.75 6.75 -0.75
v -2.0811011820702219 2.071073488309366 5.25
v -8.5338391590243337 5.25 2.1291662520895969
v -3.6550304826072191 3.6662714497676778 5.25
v -5.265725839039499 2.25 1.9213437553126529
v -2.355949169853425 2.381602533532178 -0.75
v -3.7731886505222678 3.5335506388697069 -0.75
v -8.25 5.25 -0.75
v 6.75 -0.75 5.25
v 6.8977319591971682 -0.75 2.1018731488627078
v 6.7586677770878696 -0.75 -0.75
v -3.75 0.75 1.875
v 6.7267953284102662 -4.0001092559303846 5.25
v 5.2371072284968321 -2.2504164960823609 5.25
v -2.0957579369110029 -1.018635040760494 -0.75
v -3.75 0.75 -0.75
v 6.7580571603242046 -3.696191543585007 -0.75
v 5.0888673471245438 -2.25363744669332 -0.75
v -2.25 -3.75 5.25
v -3.788547654857561 -2.318842231970486 5.25
v -12.75 -2.25 5.25
v -2.2150091127081999 -3.75 1.973254082647776
v -14.25 -3.75 5.25
v 5.25 -5.25 5.25
v -2.2783084636322721 -3.74697343450767 -0.75
v -3.594013761742636 -2.2463839358988649 -0.75
v 5.25 -5.25 -0.75
v -3.75 -5.25 5.25
v -3.75 -5.1586274738032092 1.924762124759736
v -3.75 -5.25 -0.75
v 3.75 5.25 1.875
v 2.25 6.75 1.875
v 3.75 5.25 -0.75
v 2.25 6.75 -0.75
v -12.75 -2.3117029458755449 2.106934615329755
v -5.25 8.25 5.25
v -14.20273860260103 -3.75 1.940865569108662
v -5.1782830727076092 8.25 1.815803423297643
v -8.2432027322546944 -0.97556773022997123 -0.75
v -5.25 8.25 -0.75
v 3.6825879830622341 -1.105368438559958 5.25
v 3.7845083652881888 -0.88104862234869552 -0.75
v -5.25 5.25 5.25
v -8.25 -3.75 5.25
v -9.75 -2.25 5.25
v -6.75 6.75 5.25
v 3.7655322737879722 -3.75 1.981167767343577
v -6.75 6.75 1.875
v 2.3060641514060829 -2.2597250566069711 -0.75
v 3.75 -3.75 -0.75
v 2.25 -5.25 5.25
v -5.3808541446420044 5.2529963133680821 -0.75
v 2.25 -5.2681625145020456 1.8267890066080059
v -8.25 -3.75 1.875
v -6.75 6.75 -0.75
v 2.25 -5.25 -0.75
v -6.9574610547165952 3.9541136175201181 5.25
v -9.75 -2.25 -0.75
v -5.25 2.25 -0.75
v -6.8634429757637454 3.9354272433884989 -0.75
v 0.75 8.25 1.875
v -9.75 -5.25 5.25
v 0.75 8.25 -0.75
v 8.25 -1.928151116376551 3.1993796579257539
v 7.5000074919112336 -6.75 3.8312236067197349
v -0.75 1.1201131883520139 2.824702212042538
v -3.75 1.120113188352015 2.824702212042538
v -9.75 4.1516911276319108 2.9205138411592562
v 0.73490277236051327 -2.9142415362657892 -0.75
v 10.07519788349637 -6.75 3.2432258497932942
v -10.88757106489853 -6.75 4.3019682987413486
v -9.75 4.2076802096086627 4.1799163996653137
v -0.75 5.25 0.5625
v -6.75 -0.75 0.62291042184817658
v -14.4375 -6.75 5.25
v -0.75 2.25 0.5625
v -9.75 -6.75 0.5625
v -0.75 -0.75 0.5625
v -6.75 -3.75 0.5625
v -0.75 -3.75 0.5625
v -14.4375 -6.75 -0.75
v -0.75 -6.75 0.5625
v 11.25 -3.75 0.5625
v -6.75 -6.75 0.5625
v 11.25 -6.75 0.5625
v -3.75 8.25 0.5625
v 8.25 -0.75 0.5625
v -12.9314727967656 -6.75 0.67117238296755266
v 8.25 -3.75 0.60875210054539763
v -3.75 5.25 0.5625
v -12.75 -0.75 0.5625
v 8.0436413023881723 -6.75 0.71014780926531218
v 5.25 5.25 0.5625
v -3.75 2.25 0.5625
v -9.75 5.25 0.50612787758337352
v 5.25 2.1923417723859551 0.5965222533849297
v 5.25 0.5625 5.25
v 5.25 0.60813546693915543 2.0769130077901479
v 5.25 0.5625 -0.75
v -3.75 -0.75 0.5625
v 5.25 -3.75 0.5625
v 6.5625 -6.75 5.25
v 6.5318913340371783 -6.75 1.8932116620590049
v -15.75 -5.5245434253073444 0.61469161576571496
v 6.5625 -6.75 -0.75
v 5.25 -6.75 0.5625
v -3.75 -3.75 0.5625
v -9.75 2.1811771953413159 0.60855787596574951
v -9.75 0.5625 5.25
v 2.25 8.25 0.5625
v -3.75 -6.75 0.5625
v -9.75 0.53085168411329064 2.2167897610307312
v 2.25 5.25 0.5625
v 2.25 2.25 0.5625
v -9.75 0.5625 -0.75
v -9.75 -0.75 0.5625
v -6.75 8.25 0.5625
v 2.25 -0.75 0.5625
v -12.75 -3.75 0.5625
v 2.25 -3.75 0.5625
v -15.75 -6.75 0.5625
v -14.4375 -6.75 1.875
v -6.75 5.25 0.5625
v 2.25 -6.75 0.5625
v -9.75 -3.75 0.5625
v 1.151139374591206 2.25 0.42051895978837489
v -6.75 2.25 0.59996438869419033
v -15.75 -3.75 0.5625
v -0.75 8.25 0.5625
v 3.014642654451047 -3.75 2.824702212042538
v 4.5146426544510474 -3.75 2.824702212042538
v -11.657945972514851 -4.1616066361276136 5.25
v 5.25 4.4045070788011866 2.741676457633393
v -10.885981990838291 -3.387202212042538 5.25
v -12.209463981676571 -6.75 -0.012202212042537909
v -12.209463981676571 -6.024404424085076 -0.75
v -3.75 7.4968174677932238 2.7737807492512752
v -6.75 7.5 4.40625
v -7.5789140562391726 -3.75 2.790385269434736
v -12 -0.75 4.40625
v 2.25 -4.5 2.71875
v -3.75 -6 2.71875
v 6 -0.75 2.71875
v 6.086723955343146 -0.75 4.5239955502801621
v 10.48773385088521 -3.75 4.4071182472966166
v 11.25 -4.5112917264373023 4.4024785002764677
v 0.01051709282154034 -6.75 4.4556696342608397
v -0.75 -6 2.71875
v -6.75 -6 4.40625
v 0.091121540800069845 -6.75 2.7027898512150972
v -7.509342519745541 -3.75 4.1793022707198046
v -9.75 2.4229189244645202 3.747136625577471
v -9.75 1.3125 2.824702212042538
v 1.6015590451319051 3.080017438183789 5.25
v -2.944608823439256 -1.540117247467081 -0.75
v 5.25 4.3966103540441086 1.223304296826502
v -1.5 4.5 5.25
v -1.5 4.5 -0.75
v -3.002403427120909 4.4218775223367386 -0.75
v -4.5051039853992858 -4.5462092966395167 5.25
v 1.4754433320844731 -4.537973642802978 -0.75
v 4.5626338256636494 -3.0115006050614199 5.25
v 0.0046421444137436652 -5.9798007009348382 -0.75
v -4.5245700684809247 -5.9649848028783321 5.25
v -10.5 -1.5 5.25
v -4.5484494760506307 4.4044943877663414 -0.75
v 5.9827021049041411 -4.4363565001874763 -0.75
v -5.962960573200851 -5.8833412184259357 -0.75
v 4.4730957628286347 -3.0249315154372498 -0.75
v 7.5 -1.5 -0.75
v 6 -3 -0.75
v 7.5 -3 -0.75
v -6 7.5 5.25
v 6.0749979604383499 -1.601927924717091 -0.75
v 4.5 4.5 -0.75
v -5.9895686576610636 3.0191595568419669 -0.75
v -3 4.5 5.25
v 3 -1.5 -0.75
f 1 4 497 
f 520 4 1 
f 497 283 1 
f 1 283 537 
f 537 520 1 
f 256 5 2 
f 2 5 520 
f 267 256 2 
f 538 267 2 
f 537 283 2 
f 2 283 538 
f 2 520 537 
f 3 6 256 
f 491 6 3 
f 3 256 267 
f 3 267 491 
f 4 7 14 
f 361 7 4 
f 4 14 497 
f 520 361 4 
f 311 8 5 
f 5 8 361 
f 5 256 311 
f 5 361 520 
f 6 9 311 
f 326 9 6 
f 311 256 6 
f 491 326 6 
f 363 14 7 
f 7 361 544 
f 544 363 7 
f 311 182 8 
f 8 182 453 
f 544 361 8 
f 453 363 8 
f 8 363 544 
f 9 182 311 
f 439 182 9 
f 9 326 439 
f 497 13 10 
f 10 13 552 
f 10 277 551 
f 552 277 10 
f 10 283 497 
f 504 283 10 
f 551 504 10 
f 299 266 11 
f 11 266 302 
f 302 272 11 
f 11 272 538 
f 11 283 504 
f 538 283 11 
f 504 299 11 
f 302 263 12 
f 12 263 307 
f 12 272 302 
f 491 272 12 
f 12 307 351 
f 351 326 12 
f 12 326 491 
f 13 14 15 
f 497 14 13 
f 13 15 295 
f 13 295 552 
f 368 15 14 
f 14 363 368 
f 245 18 15 
f 15 18 334 
f 535 245 15 
f 334 295 15 
f 15 368 535 
f 451 245 16 
f 16 245 535 
f 16 305 451 
f 453 305 16 
f 16 368 453 
f 535 368 16 
f 17 71 437 
f 548 71 17 
f 305 182 17 
f 17 182 439 
f 437 305 17 
f 351 307 17 
f 17 307 548 
f 17 326 351 
f 439 326 17 
f 18 19 331 
f 507 19 18 
f 18 245 507 
f 18 331 334 
f 19 231 412 
f 507 231 19 
f 412 331 19 
f 399 231 20 
f 20 231 507 
f 20 245 451 
f 507 245 20 
f 20 274 399 
f 451 274 20 
f 274 192 21 
f 21 192 437 
f 21 204 387 
f 437 204 21 
f 556 274 21 
f 21 387 556 
f 382 224 22 
f 22 224 493 
f 22 277 295 
f 493 277 22 
f 22 295 382 
f 23 224 374 
f 493 224 23 
f 23 260 371 
f 374 260 23 
f 23 266 299 
f 371 266 23 
f 23 299 493 
f 24 260 478 
f 487 260 24 
f 307 263 24 
f 24 263 487 
f 478 307 24 
f 316 37 25 
f 25 37 367 
f 25 224 382 
f 541 224 25 
f 25 295 334 
f 382 295 25 
f 474 316 25 
f 25 334 474 
f 25 367 541 
f 26 193 317 
f 470 193 26 
f 374 224 26 
f 26 224 541 
f 26 317 374 
f 26 367 470 
f 541 367 26 
f 317 193 27 
f 27 193 460 
f 27 307 478 
f 548 307 27 
f 478 317 27 
f 27 460 461 
f 27 461 550 
f 550 548 27 
f 412 231 28 
f 28 231 532 
f 28 255 531 
f 532 255 28 
f 28 331 412 
f 474 331 28 
f 28 338 455 
f 531 338 28 
f 28 455 474 
f 29 139 306 
f 399 139 29 
f 29 231 399 
f 532 231 29 
f 528 255 29 
f 29 255 532 
f 29 306 528 
f 30 38 337 
f 461 38 30 
f 306 139 30 
f 30 139 387 
f 320 306 30 
f 525 320 30 
f 30 337 525 
f 30 387 581 
f 581 461 30 
f 300 210 31 
f 31 210 360 
f 31 255 524 
f 531 255 31 
f 524 300 31 
f 360 347 31 
f 31 347 531 
f 524 255 32 
f 32 255 528 
f 32 296 524 
f 568 296 32 
f 32 528 569 
f 569 568 32 
f 33 174 293 
f 359 174 33 
f 33 293 568 
f 33 320 525 
f 568 320 33 
f 525 359 33 
f 34 210 300 
f 424 210 34 
f 34 237 424 
f 511 237 34 
f 34 300 511 
f 419 237 35 
f 35 237 511 
f 35 284 419 
f 484 284 35 
f 35 296 484 
f 511 296 35 
f 36 168 284 
f 410 168 36 
f 293 174 36 
f 36 174 410 
f 36 284 488 
f 488 293 36 
f 37 42 356 
f 385 42 37 
f 37 316 385 
f 37 356 367 
f 38 44 222 
f 460 44 38 
f 222 47 38 
f 38 47 337 
f 461 460 38 
f 400 229 39 
f 39 229 500 
f 39 230 401 
f 500 230 39 
f 584 400 39 
f 39 401 584 
f 40 141 270 
f 394 141 40 
f 270 142 40 
f 40 142 393 
f 40 229 394 
f 500 229 40 
f 393 230 40 
f 40 230 500 
f 41 270 388 
f 565 270 41 
f 41 388 389 
f 41 389 565 
f 42 200 384 
f 385 200 42 
f 401 230 42 
f 42 230 495 
f 495 356 42 
f 42 384 401 
f 43 142 264 
f 393 142 43 
f 43 230 393 
f 495 230 43 
f 43 264 555 
f 470 356 43 
f 43 356 495 
f 555 470 43 
f 264 142 44 
f 44 142 389 
f 380 222 44 
f 567 264 44 
f 389 380 44 
f 44 460 567 
f 338 48 45 
f 45 48 350 
f 378 200 45 
f 45 200 385 
f 45 225 378 
f 490 225 45 
f 455 338 45 
f 45 350 490 
f 45 385 455 
f 46 59 225 
f 259 59 46 
f 46 225 490 
f 373 259 46 
f 46 350 373 
f 490 350 46 
f 259 49 47 
f 47 49 337 
f 222 60 47 
f 47 60 322 
f 322 259 47 
f 347 50 48 
f 48 50 370 
f 48 338 347 
f 370 350 48 
f 315 52 49 
f 49 52 359 
f 259 118 49 
f 49 118 315 
f 359 337 49 
f 475 250 50 
f 50 250 543 
f 50 347 360 
f 50 360 476 
f 543 370 50 
f 592 475 50 
f 50 476 592 
f 315 118 51 
f 51 118 373 
f 51 250 421 
f 543 250 51 
f 421 315 51 
f 373 370 51 
f 51 370 543 
f 315 61 52 
f 52 61 473 
f 52 174 359 
f 473 174 52 
f 53 220 468 
f 471 220 53 
f 424 237 53 
f 53 237 539 
f 53 248 471 
f 539 248 53 
f 476 424 53 
f 53 468 476 
f 313 190 54 
f 54 190 464 
f 54 237 419 
f 539 237 54 
f 464 248 54 
f 54 248 539 
f 419 313 54 
f 55 190 313 
f 462 190 55 
f 55 218 459 
f 473 218 55 
f 55 313 410 
f 55 410 473 
f 55 459 462 
f 456 220 56 
f 56 220 471 
f 56 246 456 
f 533 246 56 
f 471 248 56 
f 56 248 533 
f 309 186 57 
f 57 186 454 
f 454 246 57 
f 57 246 533 
f 57 248 464 
f 533 248 57 
f 464 309 57 
f 452 309 58 
f 58 309 554 
f 589 452 58 
f 554 462 58 
f 58 462 589 
f 59 69 225 
f 322 69 59 
f 59 259 322 
f 60 70 292 
f 436 70 60 
f 60 222 436 
f 60 292 322 
f 61 76 218 
f 257 76 61 
f 61 218 473 
f 315 257 61 
f 400 203 62 
f 62 203 446 
f 62 229 400 
f 527 229 62 
f 446 242 62 
f 62 242 527 
f 301 141 63 
f 63 141 394 
f 394 229 63 
f 63 229 527 
f 63 242 445 
f 527 242 63 
f 558 301 63 
f 63 445 558 
f 301 181 64 
f 64 181 444 
f 388 301 64 
f 580 388 64 
f 64 444 580 
f 384 200 65 
f 65 200 442 
f 441 240 65 
f 65 240 523 
f 65 242 446 
f 523 242 65 
f 446 384 65 
f 442 441 65 
f 66 180 297 
f 438 180 66 
f 66 240 438 
f 523 240 66 
f 445 242 66 
f 66 242 523 
f 66 297 445 
f 297 180 67 
f 67 180 435 
f 444 297 67 
f 436 380 67 
f 67 380 576 
f 67 435 436 
f 576 444 67 
f 68 200 378 
f 442 200 68 
f 378 225 68 
f 68 225 516 
f 68 238 432 
f 516 238 68 
f 68 335 431 
f 432 335 68 
f 68 431 571 
f 571 442 68 
f 516 225 69 
f 428 238 69 
f 69 238 516 
f 322 292 69 
f 69 292 428 
f 70 73 292 
f 332 73 70 
f 70 211 332 
f 436 211 70 
f 71 204 437 
f 550 204 71 
f 71 548 550 
f 286 164 72 
f 72 164 287 
f 549 286 72 
f 72 287 289 
f 289 288 72 
f 72 288 549 
f 73 76 285 
f 418 76 73 
f 73 285 483 
f 483 292 73 
f 73 332 418 
f 432 238 74 
f 74 238 510 
f 74 250 475 
f 510 250 74 
f 422 329 74 
f 74 329 432 
f 423 422 74 
f 475 423 74 
f 75 238 428 
f 510 238 75 
f 421 250 75 
f 75 250 510 
f 285 257 75 
f 75 257 421 
f 483 285 75 
f 75 428 483 
f 418 207 76 
f 76 207 420 
f 420 218 76 
f 76 257 285 
f 77 233 416 
f 506 233 77 
f 417 236 77 
f 77 236 506 
f 77 416 575 
f 468 417 77 
f 575 423 77 
f 77 423 582 
f 582 468 77 
f 78 169 279 
f 413 169 78 
f 408 233 78 
f 78 233 506 
f 78 236 413 
f 506 236 78 
f 78 279 408 
f 279 169 79 
f 79 169 406 
f 406 217 79 
f 79 217 459 
f 79 218 420 
f 459 218 79 
f 405 279 79 
f 593 405 79 
f 79 420 593 
f 80 236 417 
f 502 236 80 
f 456 246 80 
f 80 246 502 
f 80 417 456 
f 413 236 81 
f 81 236 502 
f 81 246 454 
f 502 246 81 
f 454 275 81 
f 81 275 553 
f 553 413 81 
f 82 169 275 
f 406 169 82 
f 82 217 406 
f 452 217 82 
f 82 275 452 
f 83 87 323 
f 390 87 83 
f 83 90 106 
f 431 90 83 
f 83 106 343 
f 83 323 431 
f 83 343 485 
f 485 390 83 
f 84 227 398 
f 498 227 84 
f 397 228 84 
f 84 228 498 
f 579 397 84 
f 84 398 579 
f 396 227 85 
f 85 227 498 
f 85 228 395 
f 498 228 85 
f 85 269 564 
f 566 269 85 
f 85 395 566 
f 564 396 85 
f 86 144 269 
f 392 144 86 
f 391 201 86 
f 86 201 392 
f 86 269 563 
f 563 391 86 
f 398 227 87 
f 87 227 496 
f 87 240 441 
f 496 240 87 
f 441 323 87 
f 87 390 398 
f 88 227 396 
f 496 227 88 
f 438 240 88 
f 88 240 496 
f 396 268 88 
f 88 268 438 
f 268 144 89 
f 89 144 392 
f 89 201 383 
f 392 201 89 
f 386 211 89 
f 89 211 435 
f 435 268 89 
f 89 383 386 
f 335 93 90 
f 90 93 355 
f 354 106 90 
f 431 335 90 
f 494 354 90 
f 90 355 494 
f 91 94 324 
f 355 94 91 
f 319 107 91 
f 91 107 354 
f 91 265 319 
f 324 265 91 
f 91 354 494 
f 494 355 91 
f 324 95 92 
f 92 95 332 
f 92 108 319 
f 386 108 92 
f 332 211 92 
f 92 211 386 
f 319 265 92 
f 92 265 324 
f 329 96 93 
f 93 96 353 
f 335 329 93 
f 93 353 355 
f 353 97 94 
f 94 97 482 
f 482 324 94 
f 355 353 94 
f 262 98 95 
f 95 98 418 
f 324 262 95 
f 418 332 95 
f 328 109 96 
f 96 109 352 
f 96 209 381 
f 422 209 96 
f 381 328 96 
f 96 329 422 
f 96 352 492 
f 492 353 96 
f 97 110 318 
f 352 110 97 
f 318 262 97 
f 97 262 482 
f 492 352 97 
f 97 353 492 
f 318 111 98 
f 98 111 325 
f 379 207 98 
f 98 207 418 
f 98 262 318 
f 98 325 379 
f 99 223 376 
f 377 223 99 
f 99 226 377 
f 489 226 99 
f 416 233 99 
f 99 233 489 
f 376 328 99 
f 99 328 381 
f 99 381 574 
f 574 416 99 
f 100 152 261 
f 408 152 100 
f 375 226 100 
f 100 226 489 
f 100 233 408 
f 489 233 100 
f 100 261 375 
f 113 102 101 
f 101 102 261 
f 252 113 101 
f 261 152 101 
f 101 152 405 
f 325 252 101 
f 379 325 101 
f 573 379 101 
f 101 405 573 
f 114 105 102 
f 102 105 327 
f 102 113 114 
f 327 261 102 
f 377 226 103 
f 103 226 545 
f 103 251 479 
f 545 251 103 
f 479 377 103 
f 104 226 375 
f 545 226 104 
f 477 251 104 
f 104 251 545 
f 327 321 104 
f 104 321 330 
f 375 327 104 
f 104 330 477 
f 105 114 330 
f 105 321 327 
f 330 321 105 
f 106 123 343 
f 369 123 106 
f 106 354 369 
f 310 124 107 
f 107 124 369 
f 319 310 107 
f 369 354 107 
f 202 125 108 
f 108 125 310 
f 386 202 108 
f 108 310 319 
f 341 129 109 
f 109 129 542 
f 109 328 341 
f 542 352 109 
f 110 130 318 
f 542 130 110 
f 110 352 542 
f 318 131 111 
f 111 131 570 
f 111 252 325 
f 570 252 111 
f 112 131 362 
f 570 131 112 
f 146 134 112 
f 112 134 252 
f 362 146 112 
f 112 252 570 
f 135 114 113 
f 113 134 135 
f 252 134 113 
f 114 135 138 
f 114 138 330 
f 397 205 115 
f 115 205 472 
f 115 228 397 
f 540 228 115 
f 472 249 115 
f 115 249 540 
f 314 145 116 
f 116 145 395 
f 116 191 314 
f 469 191 116 
f 395 228 116 
f 116 228 540 
f 116 249 469 
f 540 249 116 
f 117 145 314 
f 391 145 117 
f 314 191 117 
f 117 191 467 
f 117 201 391 
f 467 201 117 
f 118 259 373 
f 119 260 374 
f 478 260 119 
f 374 317 119 
f 119 317 478 
f 466 247 120 
f 120 247 536 
f 120 249 472 
f 536 249 120 
f 120 343 465 
f 485 343 120 
f 120 390 485 
f 577 390 120 
f 120 465 466 
f 120 472 577 
f 121 247 463 
f 536 247 121 
f 469 249 121 
f 121 249 536 
f 546 312 121 
f 121 312 557 
f 121 463 546 
f 557 469 121 
f 312 140 122 
f 122 140 340 
f 122 191 312 
f 467 191 122 
f 383 201 122 
f 122 201 467 
f 340 202 122 
f 122 202 383 
f 123 126 339 
f 366 126 123 
f 123 339 458 
f 465 343 123 
f 534 366 123 
f 123 369 534 
f 123 458 594 
f 594 465 123 
f 310 127 124 
f 124 127 366 
f 124 366 534 
f 534 369 124 
f 143 128 125 
f 125 128 310 
f 457 143 125 
f 125 202 340 
f 125 340 457 
f 126 129 348 
f 365 129 126 
f 348 339 126 
f 366 365 126 
f 127 128 308 
f 310 128 127 
f 308 130 127 
f 127 130 365 
f 127 365 366 
f 128 131 308 
f 362 131 128 
f 128 143 362 
f 341 215 129 
f 129 215 364 
f 364 348 129 
f 129 365 530 
f 129 530 542 
f 130 308 318 
f 530 365 130 
f 542 530 130 
f 318 308 131 
f 132 215 341 
f 449 215 132 
f 376 223 132 
f 132 223 450 
f 132 243 449 
f 529 243 132 
f 450 244 132 
f 132 244 529 
f 132 341 376 
f 447 243 133 
f 133 243 529 
f 133 244 448 
f 529 244 133 
f 304 258 133 
f 133 258 447 
f 448 304 133 
f 304 135 134 
f 134 146 258 
f 134 258 304 
f 342 138 135 
f 135 304 342 
f 136 244 450 
f 526 244 136 
f 479 251 136 
f 136 251 526 
f 136 450 479 
f 448 244 137 
f 137 244 526 
f 137 251 477 
f 526 251 137 
f 330 303 137 
f 137 303 342 
f 477 330 137 
f 137 342 448 
f 138 303 330 
f 342 303 138 
f 399 274 139 
f 139 274 556 
f 556 387 139 
f 344 155 140 
f 140 155 578 
f 140 216 340 
f 578 216 140 
f 140 312 344 
f 388 270 141 
f 141 301 388 
f 142 270 565 
f 565 389 142 
f 457 158 143 
f 143 158 513 
f 513 362 143 
f 144 268 396 
f 564 269 144 
f 144 396 564 
f 563 269 145 
f 145 269 566 
f 145 391 563 
f 566 395 145 
f 146 164 286 
f 287 164 146 
f 286 258 146 
f 362 287 146 
f 443 214 147 
f 147 214 521 
f 147 241 443 
f 522 241 147 
f 521 254 147 
f 147 254 522 
f 148 151 241 
f 345 151 148 
f 148 241 522 
f 148 254 519 
f 522 254 148 
f 148 298 345 
f 346 298 148 
f 519 346 148 
f 345 298 149 
f 149 298 346 
f 440 345 149 
f 149 346 518 
f 518 440 149 
f 403 271 150 
f 150 271 562 
f 402 273 150 
f 150 273 403 
f 562 402 150 
f 151 154 241 
f 372 154 151 
f 151 345 372 
f 152 279 405 
f 408 279 152 
f 443 241 153 
f 153 241 517 
f 153 247 466 
f 517 247 153 
f 153 433 583 
f 587 433 153 
f 585 434 153 
f 153 434 587 
f 583 443 153 
f 153 466 585 
f 517 241 154 
f 463 247 154 
f 154 247 517 
f 372 294 154 
f 154 294 547 
f 547 463 154 
f 344 294 155 
f 155 294 440 
f 429 336 155 
f 155 336 430 
f 440 429 155 
f 155 430 578 
f 156 157 239 
f 253 157 156 
f 156 239 427 
f 515 253 156 
f 458 339 156 
f 156 339 515 
f 156 427 590 
f 156 434 458 
f 590 434 156 
f 426 239 157 
f 157 253 514 
f 514 291 157 
f 157 291 559 
f 559 426 157 
f 158 216 430 
f 457 216 158 
f 158 291 513 
f 560 291 158 
f 158 333 425 
f 430 333 158 
f 158 425 560 
f 159 215 290 
f 364 215 159 
f 512 253 159 
f 159 253 515 
f 159 290 512 
f 159 348 364 
f 515 348 159 
f 160 253 512 
f 514 253 160 
f 160 288 289 
f 512 288 160 
f 160 289 514 
f 289 287 161 
f 161 287 362 
f 513 289 161 
f 161 362 513 
f 449 243 162 
f 162 243 509 
f 509 290 162 
f 162 290 591 
f 591 449 162 
f 163 243 447 
f 509 243 163 
f 447 286 163 
f 163 286 549 
f 549 288 163 
f 163 288 572 
f 572 509 163 
f 282 194 165 
f 165 194 508 
f 165 214 358 
f 521 214 165 
f 508 254 165 
f 165 254 521 
f 358 282 165 
f 166 254 508 
f 519 254 166 
f 166 281 349 
f 508 281 166 
f 166 349 481 
f 166 481 519 
f 357 213 167 
f 167 213 518 
f 349 280 167 
f 167 280 357 
f 481 349 167 
f 518 481 167 
f 419 284 168 
f 410 313 168 
f 168 313 419 
f 553 275 169 
f 169 413 553 
f 170 271 409 
f 561 271 170 
f 170 278 407 
f 409 278 170 
f 170 407 561 
f 358 214 171 
f 171 214 433 
f 171 234 414 
f 505 234 171 
f 415 235 171 
f 171 235 505 
f 414 358 171 
f 588 415 171 
f 171 433 588 
f 409 234 172 
f 172 234 505 
f 172 235 411 
f 505 235 172 
f 172 278 409 
f 411 278 172 
f 278 176 173 
f 173 176 336 
f 357 206 173 
f 173 206 407 
f 407 278 173 
f 173 336 429 
f 429 357 173 
f 473 410 174 
f 175 179 276 
f 425 179 175 
f 175 276 426 
f 559 291 175 
f 175 291 560 
f 560 425 175 
f 175 426 559 
f 276 179 176 
f 176 179 333 
f 480 276 176 
f 176 278 480 
f 176 333 336 
f 177 235 415 
f 503 235 177 
f 427 239 177 
f 177 239 503 
f 177 415 586 
f 586 427 177 
f 411 235 178 
f 178 235 503 
f 178 239 426 
f 503 239 178 
f 426 276 178 
f 178 276 480 
f 480 411 178 
f 425 333 179 
f 180 268 435 
f 438 268 180 
f 181 297 444 
f 445 297 181 
f 181 301 558 
f 558 445 181 
f 182 305 453 
f 183 194 282 
f 501 194 183 
f 404 232 183 
f 183 232 501 
f 183 282 404 
f 184 232 403 
f 501 232 184 
f 403 273 184 
f 184 273 486 
f 486 281 184 
f 184 281 501 
f 185 206 280 
f 402 206 185 
f 280 273 185 
f 185 273 402 
f 452 275 186 
f 186 275 454 
f 186 309 452 
f 187 232 404 
f 499 232 187 
f 414 234 187 
f 187 234 499 
f 187 404 414 
f 403 232 188 
f 188 232 499 
f 188 234 409 
f 499 234 188 
f 188 271 403 
f 409 271 188 
f 189 271 561 
f 562 271 189 
f 407 402 189 
f 189 402 562 
f 561 407 189 
f 190 309 464 
f 554 309 190 
f 190 462 554 
f 557 312 191 
f 191 469 557 
f 192 274 451 
f 192 305 437 
f 451 305 192 
f 555 264 193 
f 193 264 567 
f 567 460 193 
f 193 470 555 
f 501 281 194 
f 194 281 508 
f 195 288 512 
f 572 288 195 
f 195 290 509 
f 512 290 195 
f 195 509 572 
f 196 289 513 
f 514 289 196 
f 513 291 196 
f 196 291 514 
f 197 296 511 
f 524 296 197 
f 511 300 197 
f 197 300 524 
f 491 267 198 
f 198 267 538 
f 198 272 491 
f 538 272 198 
f 199 380 389 
f 576 380 199 
f 389 388 199 
f 199 388 580 
f 199 444 576 
f 580 444 199 
f 386 383 202 
f 401 384 203 
f 203 384 446 
f 203 400 584 
f 584 401 203 
f 581 387 204 
f 550 461 204 
f 204 461 581 
f 398 390 205 
f 205 390 577 
f 205 397 579 
f 579 398 205 
f 577 472 205 
f 357 280 206 
f 206 402 407 
f 207 379 573 
f 573 405 207 
f 207 405 593 
f 593 420 207 
f 208 282 358 
f 404 282 208 
f 208 358 414 
f 414 404 208 
f 574 381 209 
f 209 416 574 
f 575 416 209 
f 209 422 423 
f 209 423 575 
f 476 360 210 
f 210 424 476 
f 436 435 211 
f 586 415 212 
f 212 415 588 
f 212 427 586 
f 590 427 212 
f 212 433 587 
f 588 433 212 
f 587 434 212 
f 212 434 590 
f 213 357 429 
f 213 429 440 
f 213 440 518 
f 583 433 214 
f 214 443 583 
f 591 290 215 
f 215 449 591 
f 457 340 216 
f 578 430 216 
f 217 452 589 
f 462 459 217 
f 589 462 217 
f 458 434 219 
f 219 434 585 
f 594 458 219 
f 466 465 219 
f 219 465 594 
f 585 466 219 
f 456 417 220 
f 220 417 468 
f 221 423 475 
f 582 423 221 
f 476 468 221 
f 221 468 582 
f 221 475 592 
f 592 476 221 
f 222 380 436 
f 223 377 479 
f 479 450 223 
f 257 315 421 
f 258 286 447 
f 487 371 260 
f 261 327 375 
f 262 324 482 
f 263 302 487 
f 371 302 266 
f 273 280 486 
f 552 295 277 
f 493 299 277 
f 277 299 551 
f 278 411 480 
f 280 349 486 
f 486 349 281 
f 284 484 488 
f 483 428 292 
f 293 488 568 
f 294 344 547 
f 294 372 440 
f 568 484 296 
f 299 504 551 
f 302 371 487 
f 448 342 304 
f 306 320 528 
f 546 344 312 
f 455 385 316 
f 474 455 316 
f 569 528 320 
f 320 568 569 
f 571 431 323 
f 323 441 442 
f 323 442 571 
f 376 341 328 
f 329 335 432 
f 474 334 331 
f 430 336 333 
f 337 359 525 
f 531 347 338 
f 339 348 515 
f 546 463 344 
f 344 463 547 
f 440 372 345 
f 346 481 518 
f 519 481 346 
f 350 370 373 
f 470 367 356 
f 453 368 363 
f 568 488 484 
