v -13.476224889777329 -11.25 2.561905703767386
v -15.75 -11.25 3.375
v -15.75 -11.25 0.75
v -15.75 -9.75 2.0625
v -15.75 -8.25 0.75
v -14.217063261809891 -10.04432872496546 0.75
v -13.40625 -11.25 0.75
v -13.296431544899971 -11.25 4.6576665975841678
v -15.75 -11.25 6.75
v -15.75 -8.25 5.0625
v -15.75 -8.25 3.375
v -14.56869320210628 -9.5175535108861276 6.75
v -15.75 -8.25 6.75
v -13.318851670184699 -11.25 6.75
v -13.5 -8.25 0.75
v -13.36177208771589 -8.25 3.4460400557538522
v -13.5 -8.25 6.75
v -11.0625 -11.25 0.75
v -11.044632472082171 -11.25 3.6865371571013652
v -8.90625 -11.25 2.0625
v -12.03999512301759 -9.7724956894848933 0.75
v -9.6156552897929899 -9.5172123585422952 0.75
v -8.90625 -11.25 0.75
v -11.0625 -11.25 6.75
v -8.7107793982430799 -11.25 5.2013364670108668
v -8.9852853079473682 -11.25 3.7514835649993201
v -8.4375 -9.9375 6.75
v -9.8355643238799324 -8.7716592383574952 6.75
v -12.28125 -9.75 6.75
v -8.90625 -11.25 6.75
v -11.25 -8.25 0.75
v -11.25 -6.8845298456380473 6.75
v -11.25 -8.25 6.75
v -8.4375 -6.9375 6.75
v -8.2697292337057391 -8.4347660815260443 6.75
v -12.375 -8.25 2.0625
v -12.62353889475918 -8.25 5.234484666699279
v -11.25 -8.25 3.375
v -8.25 -7.5 0.75
v -9.905424224636084 -6.5290896425201357 0.75
v -11.25 -7.4901036031734556 5.1119122056005928
v -11.25 -6 5.0625
v -11.25 -5.25 3.375
v -11.25 -5.25 6.75
v -9 -5.25 5.0625
v -9 -5.25 6.75
v -6.75 -8.25 0.75
v -6.75 -9.75 0.75
v -6.6195580299078829 -6.6657093877367508 0.75
v -6.75 -11.25 3.375
v -6.75 -11.25 0.75
v -6.75 -11.25 6.75
v -6.75 -9.9826518717287858 4.783419585610261
v -6.75 -8.25 3.375
v -5.3394011221537774 -8.25 2.2326740276651709
v -5.3945689767691789 -6.5440776892343138 0.75
v -3.75 -8.25 0.75
v -3.75 -8.25 3.375
v -6.75 -0.9375 6.75
v -6.75 -0.9375 5.0625
v -6.75 -2.625 6.75
v -5.2646443867855819 -1.097389634095314 6.75
v -6.75 0.75 0.75
v -6.75 0.75 3.375
v -5.0501037235822883 0.75 1.997824979635672
v -3.75 0.75 0.75
v -5.0553559710443237 -0.76428297026550629 0.75
v -6.75 0.75 6.75
v -5.1308223100549926 0.75 5.1885319055131474
v -3.75 0.75 3.2359978905437639
v -6.75 -1.025268363448621 3.494682402374317
v -3.75 0.75 6.75
v -5.3630716320792047 3.75 3.4278846747438401
v -6.75 3.75 3.375
v -6.75 3.75 0.75
v -6.75 5.0523906567163657 2.085424781245123
v -6.75 6.75 0.75
v -5.7657480389176454 5.1420168654139502 0.75
v -5.25 3.75 0.75
v -6.75 3.75 6.75
v -6.75 5.25 5.0625
v -6.75 6.75 3.375
v -6.75 6.75 6.75
v -5.2610927977673043 5.4801226166544268 6.75
v -4.8536905990482451 3.75 4.9973660692141237
v -5.2676876996821997 3.75 6.75
v -4.5732978360009273 6.75 3.3879316191043261
v -4.5 6.75 0.75
v -4.4583326659889746 5.4108205935329758 0.75
v -5.6013849252910246 6.75 5.2402084393122914
v -4.5 6.75 6.75
v -3.75 3.75 3.375
v -3.75 3.75 0.75
v -2.25 5.25 0.75
v -2.25 6.75 3.5609932717838562
v -2.25 6.75 0.75
v -3.6242817032081569 6.75 5.0057441891413479
v -3.75 -11.25 0.75
v -3.75 -11.25 3.6435232148496941
v -3.75 -9.7201143435390254 3.232615670814968
v -2.25 -11.25 0.75
v -3.75 -11.25 6.75
v -3.75 -9.7914022288766134 5.4122292418703299
v -2.5752869013527908 -11.25 4.9899497496656409
v -2.25 -11.25 3.375
v -2.25 -11.25 6.75
v -1.5 -8.625 0.75
v -2.625 -6.75 0.75
v -3.75 -2.25 0.75
v -1.50159586648553 -0.71706526585314234 6.75
v -3.75 -2.25 6.75
v -1.5 -2.25 5.0625
v -1.5 -2.25 6.75
v -3.75 2.9032126229677289 1.7838221804597401
v -2.25 3.75 0.75
v -0.75 2.25 0.75
v -3.75 0.75 5.0625
v -1.802166654301377 1.936342182330332 6.75
v -3.75 2.25 6.75
v -0.71981328241241882 0.72729764267414287 6.75
v -2.25 3.75 6.75
v -3.75 3.75 6.75
v -3.75 3 5.0625
v -3.75 3.75 5.0625
v -3.5914663032995988 5.3819730974271289 6.75
v -0.75 -11.25 3.375
v -0.75 -11.25 0.75
v -0.75 -11.25 5.0625
v -0.75 -11.25 6.75
v 0.75 -8.25 0.75
v -0.63204833435704488 -6.762462035062426 0.75
v 0.75 0.75 6.75
v 0.75 2.25 6.75
v 0.75 -0.75 6.75
v -2.25 5.25 3.375
v -2.25 3.75 3.375
v -0.75 3.75 3.375
v -0.75 3.75 0.75
v -2.25 3.7531595003317069 5.1047551075437756
v -1.0903683278678731 3.75 5.0076063008377147
v -2.25 5.7032688252331596 5.1644871277041604
v -2.25 6.75 6.75
v -0.75 3.75 6.75
v -0.75 -14.25 0.75
v -0.75 -14.25 3.375
v -0.75 -12.648104798491801 3.4323588945008678
v 1.1370558867477369 -14.25 2.564036850833356
v 0.75 -11.25 0.75
v 1.125 -14.25 0.75
v 1.125 -14.25 5.0625
v -0.75 -14.25 6.75
v -0.75 -13.452418810431601 5.054609353782924
v 1.2055678325958381 -12.94906859617814 6.75
v -0.75 -12.75 6.75
v 1.125 -14.25 6.75
v -0.75 -12.23746736327189 5.1024046801832146
v 0.75 -11.25 6.75
v -0.216852962610147 -9.4852126095374469 6.75
v 0.75 3.75 3.375
v 0.75 3.75 0.75
v 0.75 3.75 5.0625
v 0.75 3.75 6.75
v 4.9048571781974353 -14.25 2.9185089553193828
v 3 -14.25 3.375
v 3 -14.25 0.75
v 3 -11.25 0.75
v 4.125 -12.75 0.75
v 4.875 -14.25 0.75
v 4.875 -14.25 5.0625
v 3 -14.25 5.0625
v 4.875 -13.5 6.75
v 3.0192804311990802 -12.66674611992882 6.75
v 3 -14.25 6.75
v 4.5046402308531901 -14.25 6.75
v 3.0270036937201001 -11.25 6.75
v 5.25 -11.25 6.75
v 0.75 -11.25 3.375
v 2.738176481367649 -11.25 3.3827621072524652
v 0.75 -8.25 3.375
v 0.75 -9.75 5.0625
v 0.75 -11.25 5.0625
v 19.55074092892783 -11.25 3.6164893288973259
v 17.618751437597531 -11.25 3.3527309349346748
v 18.8455035267698 -11.25 2.414804686077678
v 17.4375 -11.25 5.0625
v 21.75 -11.25 3.375
v 19.581328335810412 -11.25 6.75
v 20.331343813363539 -11.25 2.276892734295684
v 12.75 6.75 3.75
v 12.75 5.3812167698689093 3.9064833792973692
v 12.75 6.75 0.75
v 12.75 6.75 6.75
v 10.629176830329071 6.75 5.0031405233324646
v 10.85247287468561 6.75 2.8005763023806871
v 12.75 3.75 3.375
v 12.75 5.25 0.75
v 12.75 5.3231951564756272 6.75
v 3.0087187872599461 -8.25 0.75
v 2.9764308114328202 -8.25 3.598930199386845
v 0.75 -2.25 6.75
v 3.0741418035799151 -2.4524076609089001 6.75
v 3.4444032438725372 -0.89479419476235367 6.75
v 1.9945912836715229 -0.42594268052971868 6.75
v 0.75 0.75 0.75
v 0.75 0.75 3.375
v 3 0.75 0.75
v 0.75 2.5093145953007361 1.8484327951099351
v 1.875 -0.375 0.75
v 0.75 2.25 5.0625
v 3.2838260638936041 0.75 2.884864107127878
v 3.0753758736352719 0.75 4.8533209879013546
v 0.75 0.75 5.0625
v 3 0.75 6.75
v 4.0434102317272771 -11.25 1.9058635504716419
v 5.25 -11.25 0.75
v 5.25 -11.25 3.375
v 3 -11.25 5.0625
v 5.25 -8.25 0.75
v 5.25 -8.25 3.375
v 2.9453959883571899 -1.802333360216628 0.75
v 5.25 0.75 0.75
v 5.25 0.75 3.375
v 5.25 0.75 6.75
v 5.25 -9.75 2.0625
v 6.75 -11.25 0.75
v 6.75 -14.25 0.75
v 5.25 -9.5630022612322083 5.1336891375138221
v 5.25 -11.25 5.0625
v 6.75 -11.25 6.75
v 5.25 -9.75 6.75
v 7.3713598867833303 -9.3027419709779871 0.75
v 8.0625 -7.59375 0.75
v 6.6192985789194898 -6.9214108426729766 0.75
v 6.7534214923238087 -2.25 4.9982373119882526
v 7.5 -2.25 6.75
v 5.25 -2.25 6.75
v 5.8520459988639164 -0.89811723962819323 6.75
v 6 2.0625 6.75
v 7.1089249270061421 0.45156799921135782 6.75
v 8.625 -0.75 6.75
v 9.75 0.75 6.75
v 8.25 3.75 6.75
v 5.25 2.25 2.0625
v 5.25 3.75 0.75
v 7.7865193240645176 1.62152880179061 0.75
v 5.25 2.023205518542575 5.2441824187034261
v 5.25 3.75 3.375
v 5.25 0.75 5.1216367262297284
v 5.25 3.75 6.75
v 6.75 3.75 2.0625
v 8.25 3.75 0.75
v 6.75 3.75 5.0625
v 8.25 3.75 3.375
v 5.25 3.75 5.0625
v 6.75 3.75 6.75
v 6.75 -12.837808538204481 2.128397015780926
v 6.75 -14.25 3.375
v 6.75 -14.25 6.75
v 6.75 -12.69371437811891 5.0159281057194649
v 8.25 -11.25 2.0625
v 6.75 -11.25 3.375
v 8.25 -11.25 0.75
v 8.3465684691571305 -10.36530159692833 0.75
v 9.75 -11.25 3.375
v 8.25 -11.25 5.0625
v 6.75 -11.25 5.0265532697429363
v 9.75 -11.25 6.75
v 8.1532480112910246 -9.8645144214775762 6.75
v 9.75 -8.25 0.75
v 9.75 -9.75 0.75
v 10.386369140449929 -6.7831017622012793 0.75
v 8.4430463361655175 -2.25 5.1462351620217506
v 9.75 -2.25 6.75
v 17.25 -5.25 6.75
v 17.25 -5.25 3.375
v 15.13078549544931 -5.25 4.9915233314787839
v 15 -5.25 3.375
v 15 -5.25 6.75
v 8.25 5.1095858960702234 3.329689789645629
v 8.25 6.75 0.75
v 9.75 3.75 0.75
v 8.25 3.75 5.0625
v 10.35057514977755 5.1247981397244207 6.75
v 8.25 6.75 6.75
v 8.25 6.75 5.0625
v 9.75 3.75 6.75
v 8.25 6.75 3.375
v 10.5 6.75 6.75
v 10.5 6.75 0.75
v 10.5 5.25 0.75
v 9.75 -11.25 0.75
v 9.75 -9.75 5.0625
v 9.75 -8.25 3.375
v 12.75 -9.75 0.75
v 12.75 -8.25 0.75
v 14.15094642636703 -7.6674553553058544 0.75
v 17.25 -6.75 0.75
v 17.25 -8.25 0.75
v 15.543953439340189 -9.617969112173915 0.75
v 11.25 -8.25 0.75
v 12.75 -8.25 3.375
v 15.296747804074959 -9.187730842289799 6.75
v 12.75 -11.25 6.75
v 15.09375 -11.25 6.75
v 17.4375 -11.25 6.75
v 17.34375 -9.75 6.75
v 17.25 -8.25 6.75
v 15.088162295291561 -7.1464608103472891 6.75
v 11.366324503449571 -0.80747122983021691 6.75
v 12.75 -2.625 6.75
v 9.75 0.75 3.375
v 9.75 0.75 0.75
v 10.98291242591084 0.75 1.9729436697058269
v 12.75 0.75 0.75
v 11.12408684848042 -0.57159965781686428 0.75
v 9.75 2.3341181712053301 5.3746301249864299
v 11.25 0.75 5.0625
v 9.75 3.75 3.375
v 12.75 0.75 3.375
v 12.75 0.75 6.75
v 11.22502047102714 3.75 2.192496525836964
v 11.25 3.75 0.75
v 11.2039402246702 3.75 4.9187827013734697
v 9.75 3.75 5.0625
v 12.75 3.75 6.75
v 12.75 3.75 0.75
v 14.275243581949519 -11.25 2.0862233056092241
v 12.75 -11.25 3.375
v 12.75 -11.25 0.75
v 15.09375 -11.25 0.75
v 14.405330418298609 -11.25 4.8347541407041454
v 12.75 -9.977963969693926 4.9478673353826661
v 15.551892852734049 -11.25 2.716035715755317
v 12.75 -0.9375 5.0625
v 12.75 -0.99990074884698754 6.75
v 12.75 -0.9375 3.375
v 17.4375 -11.25 0.75
v 18.46875 -9.75 0.75
v 19.581328335810412 -11.25 0.75
v 16.2608166597972 -11.25 4.5921926470953771
v 18.66271374274212 -9.8528799365899946 6.75
v 17.25 -8.25 3.375
v 18.375 -8.25 2.0625
v 19.5 -8.25 0.75
v 17.25 -6.75 5.0625
v 18.375 -8.25 5.0625
v 19.5 -8.25 3.375
v 17.25 -8.25 5.0625
v 19.5 -8.25 6.75
v 20.625 -8.25 2.0625
v 21.75 -8.25 0.75
v 20.246942368990169 -8.25 4.9916366051260272
v 21.75 -8.25 3.375
v 21.75 -8.2667094783509683 6.75
v 20.507516455996772 -9.78408380565239 6.75
v 21.75 -9.8660355854895752 2.05466025617093
v 21.75 -11.25 0.75
v 21.75 -9.5932157038466777 5.1494361536754338
v 21.75 -11.25 6.75
v 21.75 -8.25 5.0625
v -13.476224889777331 -0.56676960911540775 -1.4669906505765424
v -15.75 -1.2936731971400079 -1.831316752143493
v -15.75 1.0530680448114564 -0.65512350980442102
v -15.75 -0.79241300035803119 0.09777486442687966
v -15.75 -0.291152803576054 2.0268664809972519
v -14.217063261809891 0.51283855674366308 0.42274258747548776
v -13.40625 1.0530680448114564 -0.65512350980442102
v -13.296431544899971 -2.4403728558921332 -2.4060458128111297
v -15.75 -4.3109119367918911 -3.3435652065794419
v -15.75 -4.1465134153534597 0.094549011440205888
v -15.75 -2.6378940455275184 0.85067323865818034
v -14.568693202106282 -5.0871754999194287 -1.7947638254451399
v -15.75 -5.6551327851794015 -0.66157521577776857
v -13.318851670184699 -4.3109119367918911 -3.3435652065794419
v -13.5 -0.291152803576054 2.0268664809972519
v -13.361772087715892 -2.70140361835346 0.81884206398653392
v -13.5 -5.6551327851794015 -0.66157521577776857
v -11.0625 1.0530680448114564 -0.65512350980442102
v -11.044632472082171 -1.5721863761762314 -1.9709083326845032
v -8.90625 -0.12030257616427598 -1.2432201309739574
v -12.03999512301759 0.39103734555251624 0.66576041425152654
v -9.6156552897929899 0.27665162031956658 0.89398286038704677
v -8.90625 1.0530680448114564 -0.65512350980442102
v -11.0625 -4.3109119367918911 -3.3435652065794419
v -8.7107793982430799 -2.9264119052597533 -2.6496499371856248
v -8.9852853079473682 -1.6302482481498441 -2.0000091045259398
v -8.4375 -4.8990085579614266 -2.1701945856037104
v -9.8355643238799324 -5.4213910438613695 -1.1279368344057779
v -12.28125 -4.9830223609856459 -2.0025702111786052
v -8.90625 -4.3109119367918911 -3.3435652065794419
v -11.25 -0.291152803576054 2.0268664809972519
v -11.25 -6.2669639349608177 0.55915054646795559
v -11.25 -5.6551327851794015 -0.66157521577776857
v -8.4375 -6.2432294063489371 0.51179540519796296
v -8.2697292337057391 -5.5723439788920093 -0.82675547620860135
v -12.375 -1.4645234245517864 1.4387698598277163
v -12.62353889475918 -4.3002671335730689 0.017487219913489671
v -11.25 -2.6378940455275184 0.85067323865818034
v -11.25 -2.1366338487455416 2.779764855228553
v -11.25 -1.6353736519635649 4.7088564717989261
v -9.905424224636084 -1.0622473304861999 3.5653545989398943
v -8.25 -0.62720801567293183 2.6973639786976706
v -11.25 -4.531177288711131 0.75175354924084603
v -11.25 -3.9821148939150293 3.5326632294598541
v -11.25 -5.1546790516440923 2.1060415045414609
v -9.0656388274607487 -3.1119400898373355 3.9687972632908739
v -9 -1.6353736519635649 4.7088564717989261
v -6.75 0.38095762061770078 0.68587148559641564
v -6.75 -1.2936731971400079 -1.831316752143493
v -6.75 1.0530680448114564 -0.65512350980442102
v -6.75 -4.3109119367918911 -3.3435652065794419
v -6.75 -3.1206608663542799 -1.3293874106001531
v -6.75 -5.6551327851794015 -0.66157521577776857
v -3.7499999999999996 -5.6551327851794015 -0.66157521577776857
v -5.2669744995718588 -6.3221583985475664 0.66927456296784937
v -3.7499999999999996 -4.1465134153534597 0.094549011440205888
v -6.75 -4.1465134153534597 0.094549011440205888
v -5.0553559710443245 -3.6453051024088996 8.7190725302377672
v -3.7499999999999996 -2.9795945003510749 7.3908464626005994
v -6.75 -2.8115668943026364 7.05559771375039
v -6.75 -4.8562993254674502 7.708596590031739
v -6.75 -3.5676911215206113 8.5642170835763309
v -6.75 -6.6705565906900501 8.8966432110632017
v -6.75 -4.3238153487385862 10.072836453402273
v -5.0501037235822892 -5.4393667172903104 9.5137190024806095
v -3.7499999999999996 -4.3238153487385862 10.072836453402273
v -6.75 -9.6877953303419329 7.3843947566272519
v -5.1308223100549935 -8.2918480635519671 8.0840474121943
v -3.7499999999999996 -6.5462891686027351 8.95892638889684
v -6.75 -5.9821013438942519 7.2559326903256247
v -3.7499999999999996 -9.6877953303419329 7.3843947566272519
v -5.2646443867855819 -8.8600287765933015 5.7328345873757858
v -5.3630716320792047 -8.0620561618541533 11.554936974414586
v -6.75 -8.0147774390775606 11.578633201864873
v -6.75 -5.6680361971260957 12.754826444203944
v -6.75 -7.4454683872164882 13.320790735211908
v -6.75 -7.0122570455136062 15.436816435005618
v -5.7657480389176463 -6.2917622277249166 13.999284877559722
v -5.25 -5.6680361971260957 12.754826444203944
v -6.75 -11.032016178729442 10.066384747428925
v -6.75 -10.195507233097256 12.163503970047737
v -6.75 -9.3589982874650701 14.260623192666547
v -6.75 -12.376237027116954 12.748374738230597
v -5.2610927977673043 -11.807238475920656 11.61310859433785
v -4.853690599048246 -9.4651672920937386 10.851693770546834
v -5.2676876996822006 -11.032016178729442 10.066384747428925
v -4.5732978360009273 -9.3705591117992917 14.254828875332066
v -4.5 -7.0122570455136062 15.436816435005618
v -4.4583326659889746 -6.4122060862122119 14.239594513661524
v -5.6013849252910255 -11.026488409129863 13.424872502429242
v -4.5 -12.376237027116954 12.748374738230597
v -3.7499999999999996 -8.0147774390775606 11.578633201864873
v -3.7499999999999996 -5.6680361971260957 12.754826444203944
v -2.2499999999999996 -6.3401466213198514 14.095821439604782
v -2.2499999999999996 -9.5252756518919899 14.177284514802659
v -2.2499999999999996 -7.0122570455136062 15.436816435005618
v -3.6242817032081569 -10.816878151743433 13.529929746856352
v -3.7499999999999996 1.0530680448114564 -0.65512350980442102
v -3.7499999999999996 -1.5337320553149305 -1.9516349200358252
v -3.7499999999999996 -1.8518834802542039 -0.39980541831896899
v -2.2499999999999996 1.0530680448114564 -0.65512350980442102
v -3.7499999999999996 -4.3109119367918911 -3.3435652065794419
v -3.7499999999999996 -3.7685085201467805 -1.4401638845129017
v -2.5752869013527913 -2.7374328852236474 -2.5549331263430743
v -2.2499999999999996 -1.2936731971400079 -1.831316752143493
v -2.2499999999999996 -4.3109119367918911 -3.3435652065794419
v -3.7499999999999996 -2.6378940455275184 0.85067323865818034
v -1.4999999999999996 -5.4871051791309622 -0.99682396462797795
v -2.4203563765008442 -6.2906224362784355 0.60635399804909662
v -3.7499999999999996 -3.9821148939150293 3.5326632294598541
v -1.3164249940516242 -3.8161687517546383 3.6158358978018406
v -2.6249999999999996 -2.8087442729392968 4.1207598506293897
v -1.4999999999999996 -3.6517049245448305 8.7318414580014352
v -1.4999999999999996 -2.9795945003510749 7.3908464626005994
v -1.4999999999999996 -4.1529651213268073 6.8027498414310639
v -3.7499999999999996 -6.2128466950939725 11.53457291152489
v -2.2499999999999996 -5.6680361971260957 12.754826444203944
v -0.75 -4.995925772932341 11.41383144880311
v -3.7499999999999996 -8.1791759605159911 8.1405189838452259
v -1.8021666543013768 -10.219363961945255 8.4449807095191733
v -3.7499999999999996 -10.359905754535689 8.7253897520280894
v -0.7198132824124186 -9.6776230030002797 7.3640989249220672
v -2.2499999999999996 -11.032016178729442 10.066384747428925
v -3.7499999999999996 -11.032016178729442 10.066384747428925
v -3.7499999999999996 -9.1873415968066254 10.15201147694648
v -3.7499999999999996 -9.5233968089035024 10.822508974646899
v -3.5914663032995988 -11.76326026591914 11.525363251614648
v -0.75 -1.2936731971400079 -1.831316752143493
v -0.75 1.0530680448114564 -0.65512350980442102
v -0.75 -2.8022925669659493 -2.5874409793614679
v -0.75 -4.3109119367918911 -3.3435652065794419
v -0.21685296261014697 -5.1016666045356089 -1.7658511675415851
v 0.75 -5.6551327851794015 -0.66157521577776857
v -0.375 -6.3272432093731563 0.67941977962306765
v 0.75 -9.6877953303419329 7.3843947566272519
v 0.75 -10.359905754535689 8.7253897520280894
v -2.2499999999999996 -8.6868878632713162 12.919628197265711
v -2.2499999999999996 -8.0147774390775606 11.578633201864873
v -0.75 -8.0147774390775606 11.578633201864873
v -0.75 -5.6680361971260957 12.754826444203944
v -2.2499999999999996 -9.5625884228065097 10.806400158565024
v -1.0903683278678726 -9.4743220249997258 10.847105392933251
v -2.2499999999999996 -10.489781186595824 12.523027046411295
v -2.2499999999999996 -12.376237027116954 12.748374738230597
v -0.75 -11.032016178729442 10.066384747428925
v -0.75 2.3972888931989678 -3.3371135006060961
v -0.75 0.050547651247502934 -4.5133067429451685
v -0.75 -0.71849798466383419 -3.1069187846352686
v 1.1370558867477369 0.77554600090548487 -4.1499355521505699
v 0.75 1.0530680448114564 -0.65512350980442102
v 1.125 2.3972888931989678 -3.3371135006060961
v 1.125 -1.458071718578438 -5.2694309701631425
v -0.75 -2.9666910884043793 -6.0255551973811183
v -0.75 -1.8083925949532387 -4.5528604573543472
v 1.2055678325958381 -3.5496041268508383 -4.8625268627911851
v -0.75 -3.638801512598135 -4.6845602019802808
v 1.125 -2.9666910884043793 -6.0255551973811183
v -0.75 -2.3955091456410176 -3.4881137418911474
v 0.75 -4.3109119367918911 -3.3435652065794419
v 0.75 -8.0147774390775606 11.578633201864873
v 0.75 -5.6680361971260957 12.754826444203944
v 0.75 -9.5233968089035024 10.822508974646899
v 0.75 -11.032016178729442 10.066384747428925
v 4.9048571781974353 0.45864912215550824 -4.3087651498245414
v 3 0.050547651247502934 -4.5133067429451685
v 3 2.3972888931989678 -3.3371135006060961
v 3 1.0530680448114564 -0.65512350980442102
v 4.125 1.7251784690052121 -1.9961185052052586
v 4.875 2.3972888931989678 -3.3371135006060961
v 4.875 -1.458071718578438 -5.2694309701631425
v 3 -1.458071718578438 -5.2694309701631425
v 4.875 -3.3027463005012572 -5.3550576996806996
v 3.0192804311990802 -3.6761053796984124 -4.6101315109648446
v 3 -2.9666910884043793 -6.0255551973811183
v 4.5046402308531901 -2.9666910884043793 -6.0255551973811183
v 3.0270036937201001 -4.3109119367918911 -3.3435652065794419
v 5.25 -4.3109119367918911 -3.3435652065794419
v 0.75 -1.2936731971400079 -1.831316752143493
v 2.738176481367649 -1.3006124951262215 -1.8347947476088877
v 0.75 -2.8022925669659493 -2.5874409793614679
v 0.75 -3.4744029911597045 -1.2464459839606312
v 19.55074092892783 -1.509563851469355 -1.9395217489991246
v 17.618751437597531 -1.2737647272701036 -1.8213385716318569
v 18.8455035267698 -0.43526179008856225 -1.4010785656440343
v 17.4375 -2.8022925669659493 -2.5874409793614679
v 21.75 -1.2936731971400079 -1.831316752143493
v 19.581328335810412 -4.3109119367918911 -3.3435652065794419
v 20.331343813363539 -0.31196896532481855 -1.3392838587016445
v 12.75 -9.6942470363152786 14.092595586618108
v 12.75 -9.2208270036942643 12.798791872062635
v 12.75 -7.0122570455136062 15.436816435005618
v 12.75 -12.376237027116954 12.748374738230597
v 10.629176830329071 -10.814550483197159 13.53109638081053
v 10.85247287468561 -8.845465418300309 14.518007296049122
v 12.75 -8.0147774390775606 11.578633201864873
v 12.75 -6.3401466213198514 14.095821439604782
v 12.75 -11.736923421368374 11.472815968510693
v 1.875 -4.1465134153534597 0.094549011440205888
v 3 -5.6551327851794015 -0.66157521577776857
v 0.75 -4.1465134153534597 0.094549011440205888
v 0.75 -4.3238153487385862 10.072836453402273
v 0.75 -2.9795945003510749 7.3908464626005994
v 1.875 -3.8197325305932694 9.0670902068516455
v 2.9453959883571899 -3.1801821104592052 7.7910589449722067
v 0.75 -6.6705565906900501 8.8966432110632017
v 3 -4.3238153487385862 10.072836453402273
v 0.75 -6.0941130553815315 11.153479077245116
v 0.75 -8.8512863847097467 9.4815139792460634
v 3.2838260638936041 -6.2323767377514923 9.1162601729771122
v 3.0753758736352719 -7.9921706216045418 8.2342465802145934
v 0.75 -8.1791759605159911 8.1405189838452259
v 1.9945912836715229 -9.160886441116352 6.3331059236481861
v 3 -9.6877953303419329 7.3843947566272519
v 4.0434102317272771 0.019729887112313271 -1.1730354706161514
v 5.25 1.0530680448114564 -0.65512350980442102
v 5.25 -1.2936731971400079 -1.831316752143493
v 3 -2.8022925669659493 -2.5874409793614679
v 4.125 -4.1465134153534597 0.094549011440205888
v 5.25 -5.6551327851794015 -0.66157521577776857
v 3.9375 -6.1172087018126078 0.26035884356030614
v 5.25 -2.9795945003510749 7.3908464626005994
v 5.25 -4.3238153487385862 10.072836453402273
v 5.25 -6.6705565906900501 8.8966432110632017
v 3.4444032438725372 -8.9508064477064977 5.9139542342001405
v 5.25 -9.6877953303419329 7.3843947566272519
v 5.25 -0.79241300035803119 0.09777486442687966
v 6.75 1.0530680448114564 -0.65512350980442102
v 6.75 2.3972888931989678 -3.3371135006060961
v 5.25 -2.8022925669659493 -2.5874409793614679
v 5.25 -3.6218345955993252 -1.1111686036763113
v 6.75 -4.3109119367918911 -3.3435652065794419
v 5.25 -4.9830223609856459 -2.0025702111786052
v 7.3804977087961472 -5.5163551560156137 -0.93846439869064069
v 7.5281993261319524 -6.2716489791128298 0.56849814849126368
v 5.25 -4.1465134153534597 0.094549011440205888
v 7.6361582088890732 -3.7419681326787315 8.911934648077434
v 7.5 -2.9795945003510749 7.3908464626005994
v 7.479011037275102 -4.1615618556960818 6.7984411342372031
v 6 -10.275891951511468 8.5577653776029834
v 7.1089249270061412 -9.554075824579904 7.1175975436105663
v 9.75 -9.6877953303419329 7.3843947566272519
v 8.25 -11.032016178729442 10.066384747428925
v 5.25 -6.1692963939080734 10.825734827633573
v 5.25 -5.6680361971260957 12.754826444203944
v 7.7865193240645176 -4.7143244105176274 10.85198029443487
v 5.25 -8.9120892374407212 9.197353371164569
v 5.25 -8.0147774390775606 11.578633201864873
v 5.25 -8.2320439964616288 8.1140213770774317
v 5.25 -11.032016178729442 10.066384747428925
v 6.75 -6.8414068181018282 12.166729823034409
v 8.25 -5.6680361971260957 12.754826444203944
v 6.75 -9.5233968089035024 10.822508974646899
v 8.25 -8.0147774390775606 11.578633201864873
v 5.25 -9.5233968089035024 10.822508974646899
v 6.75 -11.032016178729442 10.066384747428925
v 6.75 0.53224082502039671 -2.6922423807183233
v 6.75 0.050547651247502934 -4.5133067429451685
v 6.75 -2.9666910884043793 -6.0255551973811183
v 6.75 -2.1137671268001772 -3.8572491795116624
v 8.25 -0.12030257616427598 -1.2432201309739574
v 6.75 -1.2936731971400079 -1.831316752143493
v 8.25 1.0530680448114564 -0.65512350980442102
v 8.3465684691571305 0.65665803216343033 0.13579391083439374
v 9.75 -1.2936731971400079 -1.831316752143493
v 8.25 -2.8022925669659493 -2.5874409793614679
v 6.75 -2.7701563100487849 -2.5713341979471651
v 9.75 -4.3109119367918911 -3.3435652065794419
v 8.1532480112910246 -4.9317114700552489 -2.1049457219137069
v 8.25 -8.5834648310841164 12.814400766631087
v 8.25 -7.0122570455136062 15.436816435005618
v 9.75 -5.6680361971260957 12.754826444203944
v 8.25 -9.5233968089035024 10.822508974646899
v 10.35057514977755 -11.648026952643422 11.295449697466813
v 8.25 -12.376237027116954 12.748374738230597
v 8.25 -10.867617657291012 13.504498965448573
v 9.75 -11.032016178729442 10.066384747428925
v 8.25 -9.3589982874650701 14.260623192666547
v 10.5 -12.376237027116954 12.748374738230597
v 10.5 -7.0122570455136062 15.436816435005618
v 10.5 -6.3401466213198514 14.095821439604782
v 9.75 0.38095762061770078 0.68587148559641564
v 9.75 1.0530680448114564 -0.65512350980442102
v 9.75 -3.4744029911597045 -1.2464459839606312
v 9.75 -5.6551327851794015 -0.66157521577776857
v 17.25 -0.96326322776980922 3.367861476398089
v 17.25 -0.291152803576054 2.0268664809972519
v 14.15094642636703 -0.55217568908084225 2.5476594497521905
v 15.543953439340189 0.32179806326872207 0.80390665880515533
v 15 -1.6353736519635649 4.7088564717989261
v 12.75 0.38095762061770078 0.68587148559641564
v 11.25 -4.1465134153534597 0.094549011440205888
v 12.75 -5.6551327851794015 -0.66157521577776857
v 11.25 -6.3272432093731563 0.67941977962306765
v 12.75 -4.3109119367918911 -3.3435652065794419
v 15.296747804074959 -5.2349603357187586 -1.4999034601401902
v 15.09375 -4.3109119367918911 -3.3435652065794419
v 15.088162295291561 -6.1495995804273456 0.32498513792421768
v 17.4375 -4.3109119367918911 -3.3435652065794419
v 17.34375 -4.9830223609856459 -2.0025702111786052
v 17.25 -5.6551327851794015 -0.66157521577776857
v 9.75 -4.3238153487385862 10.072836453402273
v 9.75 -2.9795945003510749 7.3908464626005994
v 11.12408684848042 -3.7316414109855094 8.8913307686983565
v 12.75 -2.8115668943026364 7.05559771375039
v 9.75 -6.6705565906900501 8.8966432110632017
v 10.98291242591084 -5.4171229092270181 9.5248676609949054
v 12.75 -4.3238153487385862 10.072836453402273
v 9.75 -9.1680208082109846 9.41685806984629
v 11.25 -8.1791759605159911 8.1405189838452259
v 9.75 -8.0147774390775606 11.578633201864873
v 12.75 -6.6705565906900501 8.8966432110632017
v 11.366324503449571 -8.9899335643747627 5.9920206735051806
v 12.75 -9.6877953303419329 7.3843947566272519
v 11.22502047102714 -6.9576232784797369 12.108481809618411
v 11.25 -5.6680361971260957 12.754826444203944
v 11.2039402246702 -9.3949140234296991 10.886904904342805
v 9.75 -9.5233968089035024 10.822508974646899
v 12.75 -11.032016178729442 10.066384747428925
v 12.75 -5.6680361971260957 12.754826444203944
v 14.275243581949519 -0.14151113222849876 -1.2538499183048191
v 12.75 -1.2936731971400079 -1.831316752143493
v 12.75 1.0530680448114564 -0.65512350980442102
v 15.09375 1.0530680448114564 -0.65512350980442102
v 14.405330418298609 -2.5986885286066133 -2.4853940686283287
v 12.75 -3.2697771312042487 -1.3988811397265279
v 15.551892852734049 -0.70456132559333184 -1.5360522424020071
v 12.75 -4.1465134153534597 0.094549011440205888
v 12.75 -3.5676911215206113 8.5642170835763309
v 12.75 -4.7410617424963437 7.9761204624067954
v 12.75 -5.9144323634720752 7.3880238412372599
v 17.4375 1.0530680448114564 -0.65512350980442102
v 18.46875 0.38095762061770078 0.68587148559641564
v 19.581328335810412 1.0530680448114564 -0.65512350980442102
v 16.2608166597972 -2.3818393626024066 -2.3767086630533556
v 18.66271374274212 -4.9369245757706279 -2.0945445312414974
v 17.25 -2.6378940455275184 0.85067323865818034
v 18.375 -1.4645234245517864 1.4387698598277163
v 19.5 -0.291152803576054 2.0268664809972519
v 17.25 -3.9821148939150293 3.5326632294598541
v 17.25 -4.8186238395472154 1.4355440068410426
v 18.375 -4.1465134153534597 0.094549011440205888
v 19.5 -2.6378940455275184 0.85067323865818034
v 17.25 -4.1465134153534597 0.094549011440205888
v 19.5 -5.6551327851794015 -0.66157521577776857
v 17.25 -1.6353736519635649 4.7088564717989261
v 15 -3.9821148939150293 3.5326632294598541
v 20.625 -1.4645234245517864 1.4387698598277163
v 21.75 -0.291152803576054 2.0268664809972519
v 20.246942368990169 -4.0831617767647188 0.12630102903257612
v 21.75 -2.6378940455275184 0.85067323865818034
v 21.75 -5.6476457087910505 -0.67651343367404015
v 20.507516455996772 -4.9677503069355362 -2.0330410197146516
v 21.75 -0.73341181114137965 -0.0024477794927206808
v 21.75 1.0530680448114564 -0.65512350980442102
v 21.75 -3.6223745290214935 -1.1452351430443124
v 21.75 -4.3109119367918911 -3.3435652065794419
v 21.75 -4.1465134153534597 0.094549011440205888
v -11.25 -6.9379993101385109 1.8980006036288024
v -11.25 -6.999353633566912 2.0204147750239043
v -11.250000000000002 -6.8102320466246997 2.1152030407966129
v -11.25 -6.7868227357473101 2.0302801062211029
v -11.25 -6.75 2.0625
v -11.25 -6.3626182122776598 0.75
v -11.250000000000002 -6.71688730593009 2.0335263926888287
v -11.249999999999998 -5.7899911230328449 1.2224922326537397
v -11.25 -6.129734506444847 0.75
v -11.25 -5.25 0.75
v -10.080418568232838 -6.3626182122776616 0.75000000000000011
v -11.25 -6.5282447098906671 2.2565358788456669
v -11.250000000000002 -5.2500000000000009 2.8971956852838261
v -10.17773060757216 -5.25 2.8971956852838257
v -11.250000000000004 -5.25 1.9734755447425107
v -11.25 -5.2500000000000009 2.1016168644763713
v -9.7875847389262454 -6.3626182122776589 0.74999999999999989
v -9.0534144532816008 -5.2500000000000009 2.8971956852838252
v -9.3590382731726933 -5.25 2.8971956852838257
v -7.4917454748517729 -6.3626182122776589 0.74999999999999989
v -8.629127262574114 -6.3626182122776607 0.75000000000000011
v -8.5263163623350557 -6.362618212277658 0.74999999999999989
v -8.1710509129948292 -6.362618212277658 0.74999999999999989
v -6.75 -6.3626182122776589 0.75000000000000011
v -6.6474845311989581 -6.3626182122776589 0.75000000000000011
v -8.881581811675284 -6.3626182122776598 0.74999999999999989
v -6.7500000000000009 -8.9637838870544773 5.9398468265366366
v -6.75 -9.3698349125585789 6.75
v -6.75 -8.25 6.75
v -3.7499999999999996 -8.25 4.5157049208579396
v -3.9588372950025414 -8.25 4.5157049208579396
v -4.7220801406969937 -8.25 4.5157049208579405
v -6.75 -8.5035835753111986 5.021654974848083
v -6.7500000000000009 -8.25 4.5157049208579432
v -5.2571281807151706 -8.2500000000000018 4.5157049208579414
v -6.5884334696310463 -8.25 4.5157049208579432
v -6.75 -5.6793222885240091 6.7499999999999982
v -6.75 -5.25 6.75
v -6.7499999999999991 -7.1503469623026632 6.7500000000000009
v -6.75 -7.3838111027442492 6.7500000000000018
v -6.75 -7.7784920249539367 6.7499999999999991
v -6.75 -8.9316711031239571 5.8757753868013101
v -7.8867115794853904 -5.2500000000000009 2.8971956852838257
v -6.75 -5.25 3.375
v -6.75 -5.25 2.8971956852838257
v -6.7500000000000009 -4.9298332548426584 3.0576641491024494
v -6.7500000000000009 -2.8387573327966589 0.75000000000000011
v -6.7500000000000009 -2.6601877828076619 0.75000000000000011
v -6.5057059053752475 -2.8387573327966584 0.74999999999999989
v -6.75 -2.625 0.75
v -5.1639625542751419 -6.3626182122776598 0.75
v -5.5846316032810499 -6.3626182122776589 0.74999999999999989
v -5.3555795759241551 -6.3626182122776598 0.74999999999999978
v -5.1763411009416611 -6.3626182122776589 0.74999999999999989
v -5.270657952671657 -6.3626182122776607 0.75000000000000022
v -6.7499999999999991 -5.2499999999999991 3.804607558339185
v -6.7499999999999991 -5.2499999999999991 5.5914229376464446
v -6.7500000000000018 -5.25 5.9098704730264782
v -6.7500000000000009 -5.25 6.0326182108795505
v -6.7500000000000009 -4.610650042878004 5.6741360494062905
v -6.75 -4.0980419677763287 4.8115465666953474
v -6.75 -5.1583081362541003 5.8794044714113181
v -6.7500000000000009 -4.4211466682364575 4.4086196065584851
v -6.7500000000000009 -4.9560571352515659 3.7415607611970447
v -6.7500000000000009 -4.8303237184135339 6.0437911745383301
v -6.75 -5.0657567313709881 6.4399652707418822
v -6.75 -3.6928373752281249 4.4163811342311066
v -6.75 -3.1924868110856841 3.9284270224090561
v -6.75 -3.9821148939150293 3.5326632294598541
v -6.75 -4.2966846343234133 3.375
v -9.0066426574333054 -5.2499999999999991 2.8971956852838252
v -8.6409617268273067 -5.25 2.8971956852838252
v -6.7500000000000009 -3.7015003750664319 5.3333765136024098
v -6.7500000000000009 -3.1450117915084976 6.0656891217904443
v -6.7499999999999991 -2.9145056899404138 6.7499999999999991
v -6.7499999999999991 -3.4212955787473103 6.7499999999999991
v -6.75 -2.6584004695763293 6.75
v -6.75 -2.6451261101697994 6.7235149926402915
v -6.75 -5.0145684395930727 6.75
v -6.705466040564894 -2.6584004695763297 6.7499999999999991
v -3.7500000000000004 -2.838757332796658 0.75
v -6.3505686564418546 -2.8387573327966584 0.75000000000000011
v -6.7500000000000009 -2.5874363381001437 0.75
v -6.75 -0.9375 0.75
v -6.7499999999999991 -2.4402589438977795 4.9431778963084749
v -6.7499999999999991 -1.7791269520826862 4.9956731154528917
v -6.75 -1.6353736519635649 4.7088564717989261
v -6.7499999999999991 -3.5492185560954623 4.8551242571179145
v -6.7499999999999991 -1.5204464095795724 4.4795535904204273
v -6.75 -1.0267699247989572 3.4945700644886277
v -6.75 -1.0254885426019702 3.4920134502010027
v -6.75 -3.4264170781912098 5.2302721955023568
v -5.2560264432138091 -2.6584004695763293 6.7500000000000009
v -6.3593335196645704 -2.6584004695763293 6.75
v -6.7499999999999991 -0.57958975100075338 2.6023559973950987
v -6.75 -0.291152803576054 2.0268664809972519
v -6.7500000000000009 0.069547476639232636 1.3071971332280834
v -6.7500000000000009 0.34881623070459006 0.75000000000000011
v -6.75 -0.79375362460869348 0.75
v -6.7500000000000009 -0.9711242221954125 3.3835457357164187
v -3.1900825437207105 -9.3698349125585789 6.75
v -3.7499999999999991 -9.3698349125585789 6.7499999999999991
v -3.7499999999999996 -9.3698349125585789 6.75
v -3.7500000000000004 -9.0303782447141554 6.0727159163899698
v -3.7499999999999996 -8.3435744819544233 4.7024047658255776
v -3.7500000000000004 -8.3435744819544233 4.7024047658255785
v -3.7499999999999996 -8.4187679312749122 4.8524307669051785
v -3.7499999999999996 -8.5592190000678592 5.1326587972559565
v -3.7500000000000004 -6.362618212277658 0.75
v -3.7499999999999991 -6.3626182122776589 0.74999999999999989
v -2.9155363407917552 -6.3626182122776589 0.75000000000000011
v -1.7128099750167369 -9.3698349125585789 6.75
v -2.6624515169688796 -9.3698349125585771 6.7499999999999991
v -3.75 -5.2500000000000009 3.3749999999999996
v -3.3404534445289933 -5.25 2.8971956852838252
v -3.7499999999999991 -5.25 2.8971956852838252
v -3.7500000000000004 -2.4283859241515642 0.95567929223255588
v -3.75 -2.6378940455275179 0.85067323865818045
v -3.75 -2.6378940455275184 0.85067323865818034
v -2.3344636592082448 -6.3626182122776598 0.75
v -2.5554269432297927 -6.362618212277658 0.74999999999999978
v -2.3401639807116994 -6.3626182122776589 0.74999999999999989
v -3.75 -5.25 4.1895993291932969
v -3.0872172090332679 -5.25 6.2529129067749514
v -3.75 -5.2500000000000009 3.3750000000000009
v -1.5 -5.25 5.0625
v -3.6036221913943201 -5.2500000000000009 6.2529129067749514
v -3.7499999999999996 -5.2500000000000009 4.8291627001100119
v -3.75 -5.2500000000000009 6.1752950483682332
v -3.75 -5.2500000000000009 6.2529129067749505
v -3.7499999999999996 -5.25 3.3749999999999996
v -1.3164249940516239 -5.25 3.189377224304121
v -1.6557179098327512 -5.2500000000000009 2.8971956852838257
v -1.8590382731726933 -5.25 2.8971956852838257
v -3.75 -2.4698784602244133 6.373860809230731
v -3.7499999999999996 -2.6584004695763293 6.7499999999999991
v -4.1584004695763293 -2.6584004695763288 6.7499999999999991
v -1.592366948568773 -5.25 6.2529129067749496
v -3.7500000000000004 -2.25 1.0450868139331606
v -3.7499999999999991 -2.25 0.75000000000000022
v -3.75 -2.25 1.0450868139331604
v -3.7499999999999991 -2.2499999999999996 0.75
v -3.7499999999999996 -1.1123782389041779 0.75
v -3.7499999999999991 0.34881623070459039 0.75
v -3.1482243460568853 0.3488162307045905 0.75
v -3.7499999999999991 -2.25 0.75
v -2.3822612861009529 -2.2499999999999996 4.4008040354242857
v -3.75 -2.25 5.9351592147552683
v -3.7499999999999991 -2.25 4.9125537968669262
v -3.7499999999999991 -2.25 4.4008040354242848
v -3.1607107940319814 -2.25 4.4008040354242866
v -3.75 -2.25 5.9351592147552683
v -1.462917416541297 -2.2499999999999996 4.4008040354242848
v -2.0892892059680177 -2.25 4.4008040354242848
v -1.2252959423238525 0.34881623070459017 0.75000000000000011
v -3.0358661933621249 0.34881623070459039 0.74999999999999978
v -1.8009336037930705 0.34881623070459 0.75000000000000011
v -1.2871900249832633 -9.3698349125585807 6.75
v -0.38895756607429011 -9.3698349125585789 6.75
v -1.0916156091559606 -9.3698349125585789 6.75
v -0.12654197705039999 -9.3698349125585807 6.7499999999999991
v 0.75 -5.25 3.375
v -1.3384130765955025 -5.25 2.8971956852838252
v 0.34045344452899334 -5.25 2.8971956852838257
v -1.140961726827306 -5.2500000000000009 2.8971956852838252
v -1.473609396836433 -5.25 2.8971956852838261
v 0.74999999999999989 -5.2499999999999991 2.8971956852838252
v -0.26668148449768181 -6.3626182122776589 0.74999999999999989
v -0.86150540761757177 -6.3626182122776607 0.75
v -0.3157881847461223 -6.3626182122776598 0.75
v -0.44110339211316557 -6.3626182122776589 0.74999999999999989
v 0.087217209033267531 -5.25 6.2529129067749505
v -1.4225469046706014 -5.25 6.2529129067749505
v 0.74999999999999989 -8.9660742208737769 5.944416501516999
v 0.75 -9.3698349125585789 6.75
v 0.75 -9.0156849061481772 6.0433997612264143
v -0.036379248851054022 -9.3698349125585807 6.75
v 2.46080446795815 -6.362618212277658 0.74999999999999989
v 0.74999999999999989 -6.3626182122776607 0.75000000000000011
v 2.2098243070870223 -6.3626182122776598 0.75
v 2.6319054689960906 -6.362618212277658 0.74999999999999989
v 0.75 -8.5240552156045712 5.0625
v 0.75 -8.3435744819544233 4.7024047658255785
v 0.75000000000000011 -8.2500000000000018 4.5157049208579414
v 2.2864986162290295 -8.25 4.5157049208579423
v 1.5104699472386276 -8.25 4.5157049208579414
v 0.94290090118431547 -8.25 4.5157049208579405
v 2.8016855501953803 -6.3626182122776598 0.75
v 2.7640223636428995 -6.3626182122776589 0.74999999999999989
v 5.2499999999999991 -6.3626182122776598 0.75000000000000011
v 4.3026327246701133 -6.3626182122776589 0.75
v 3.2935733173553419 -6.3626182122776598 0.75
v 0.75 -4.8572594690124538 3.094038332560983
v 0.75 -2.6780510684640437 0.75
v 0.75000000000000011 -2.5874363381001446 0.75000000000000022
v 1.5119212542074409 -2.8387573327966593 0.75000000000000011
v 0.75 -2.25 0.75
v 0.89978675383430495 -2.838757332796658 0.74999999999999989
v 0.74999999999999989 -2.838757332796658 0.74999999999999989
v 0.75 -5.25 6.0623481157532773
v 0.75000000000000011 -4.2966846343234124 3.375
v 0.75 -3.9821148939150293 3.5326632294598541
v 0.75 -3.7422932790882313 5.0538299389742596
v 0.75 -2.8807971219260216 4.0846467621667744
v 0.75000000000000011 -5.2500000000000009 6.1795631946933787
v 0.75 -4.3926126751116232 5.785439259500575
v 0.75 -5.2500000000000009 6.2529129067749505
v 0.75 -4.9443265020172777 6.4061173147694381
v 0.60362219139431983 -5.2500000000000009 6.2529129067749514
v 0.75 -2.2499999999999996 4.9339760188428503
v 0.75 -2.25 4.4008040354242857
v 0.75 -3.6786894975716997 5.4572629452612489
v 0.74999999999999989 -2.25 5.9351592147552674
v 0.74999999999999989 -3.2112951494169542 6.7499999999999991
v 0.75 -2.6584004695763293 6.7499999999999991
v 0.75000000000000011 -4.2582116266939849 6.75
v 1.1272353909507045 -2.6584004695763297 6.75
v 0.14822434605688542 0.34881623070459028 0.75
v 0.74999999999999989 0.34881623070459039 0.75
v 0.75000000000000011 -0.62293712010680002 0.74999999999999989
v 2.8779249069968826 -2.8387573327966589 0.74999999999999989
v -0.617738713899048 -2.2499999999999996 4.4008040354242857
v -1.4482619731181405 -2.25 4.4008040354242857
v -0.91071079403198141 -2.25 4.4008040354242857
v 1.6776664556739411 -2.6584004695763293 6.7499999999999991
v 3.0097622758410538 -2.6584004695763288 6.75
v 2.869587184712703 -2.6584004695763293 6.75
v 0.035866193362125119 0.34881623070459034 0.75000000000000011
v -1.1990663962069283 0.34881623070459028 0.75000000000000011
v 5.25 -2.25 0.75
v 4.8574951114688956 -2.8387573327966589 0.75000000000000011
v 3.3709187910190712 -2.8387573327966589 0.75
v 2.9758664396405772 -2.8387573327966593 0.74999999999999978
v 2.9770193368714928 -2.8387573327966593 0.74999999999999978
v 5.2499999999999991 -0.62293712010680014 0.74999999999999956
v 5.2499999999999991 0.34881623070459039 0.75
v 6.1615093058241142 -6.3626182122776607 0.75
v 5.25 -8.531710562265566 5.0777739508136106
v 5.25 -8.3435744819544233 4.7024047658255785
v 5.25 -8.2500000000000018 4.5157049208579405
v 3.695890312098808 -8.2499999999999982 4.5157049208579414
v 4.4895300527613724 -8.25 4.5157049208579405
v 4.9562786367434803 -8.25 4.5157049208579405
v 5.25 -8.9425460649638726 5.897473115147057
v 5.25 -9.3698349125585789 6.7499999999999991
v 5.25 -8.9496898048397089 5.9117263078920361
v 5.9304627952521951 -9.3698349125585789 6.7500000000000009
v 5.5092180618142113 -9.3698349125585789 6.75
v 5.2499999999999991 -4.9028096582230276 3.07120845094515
v 5.25 -5.25 3.375
v 5.2500000000000009 -5.2500000000000009 2.8971956852838261
v 5.711305020864498 -5.2499999999999991 2.8971956852838257
v 5.25 -2.5874363381001442 0.75000000000000022
v 5.25 -2.6883856191525193 0.75
v 5.100213246165695 -2.8387573327966589 0.75000000000000011
v 5.2500000000000009 -2.8387573327966589 0.75000000000000011
v 5.25 -2.3911269384937364 0.75
v 6.9137381332850936 -6.3626182122776598 0.75
v 5.25 -4.8678407550306462 3.7886016879542654
v 5.25 -4.2966846343234115 3.375
v 5.25 -3.9821148939150293 3.5326632294598541
v 5.25 -3.6125276939775155 4.9550134850124197
v 5.25 -3.6982511967935841 5.0544201180155968
v 5.2500000000000009 -4.3767688313870314 4.320076928183596
v 5.25 -2.8676483393449135 4.0912369685944849
v 7.5798104347941617 -5.25 5.0535225674524273
v 7.5978783160598926 -5.25 3.260897381624694
v 7.2056839797721741 -5.2500000000000009 2.8971956852838257
v 5.2500000000000009 -5.2500000000000009 3.8990300409591665
v 5.25 -5.25 5.0492211568165386
v 5.25 -4.743069198628608 5.0509195718960225
v 5.25 -2.6584004695763293 6.7500000000000009
v 4.6756009556286271 -2.6584004695763288 6.75
v 4.7721112198043336 -2.6584004695763293 6.75
v 5.25 -3.1461137165411848 6.7500000000000009
v 5.2500000000000009 -4.2582116266939849 6.75
v 5.25 -3.4808546971330521 5.4617548460302263
v 5.2499999999999991 -4.4226712950753457 5.8459864734808802
v 5.2499999999999991 -4.9381300910112831 6.4092229732126098
v 5.25 -3.5379228737988857 5.2421289074742079
v 5.25 -3.3840615509876399 5.422266278775437
v 5.25 -2.5073741238270881 6.448672172706809
v 7.5233853609129842 -5.25 6.2529129067749496
v 5.9326608327221253 -5.25 6.2529129067749505
v 5.25 -5.25 6.062348115753279
v 5.25 -5.2499999999999991 6.1835106320318864
v 5.25 -5.25 6.2529129067749505
v 5.396082612331468 -5.2499999999999991 6.2529129067749505
v 5.9871960526315791 0.34881623070459034 0.75
v 5.964133806637876 0.34881623070459039 0.74999999999999989
v 5.25 -2.25 4.959604741149942
v 5.25 -2.25 5.9351592147552683
v 5.25 -2.2500000000000004 4.4008040354242874
v 6.2000864860482743 -2.25 4.4008040354242866
v 5.8167109577629139 -2.25 4.4008040354242857
v 7.117862706907105 -2.25 4.4008040354242857
v 6.9742958151542656 -2.25 4.4008040354242857
v 3.4235026666981101 -2.6584004695763297 6.75
v 7.6983353185515835 0.34881623070459011 0.75
v 7.251531611791151 0.3488162307045905 0.74999999999999978
v 7.7670283709466386 -6.3626182122776598 0.75
v 8.9489148871600843 -6.3626182122776598 0.75
v 7.8059431914621875 -6.3626182122776598 0.75
v 7.2434051525254493 -6.3626182122776589 0.74999999999999989
v 7.5246741719938175 -6.3626182122776589 0.75
v 9.75 -6.3626182122776598 0.75
v 10.211832288536051 -6.362618212277658 0.75000000000000011
v 7.2185089949275474 -5.25 2.8971956852838257
v 7.5837007117314617 -5.25 2.8971956852838257
v 7.5824340130630556 -5.25 2.8971956852838261
v 7.9572165693175538 -5.25 2.8971956852838257
v 7.9740475979158134 -5.25 2.8971956852838257
v 9.75 -5.25 3.5567183203831929
v 9.1724732485403617 -5.2500000000000009 2.8971956852838257
v 9.75 -5.25 3.8161760904224229
v 9.75 -5.25 6.036151448126553
v 9.75 -5.2500000000000009 6.1788486043801489
v 9.7500000000000018 -5.25 6.2529129067749505
v 9.1141098891038439 -5.25 6.2529129067749514
v 9.6011662819506061 -5.2499999999999991 6.2529129067749496
v 7.5501457717711595 -5.25 6.2529129067749496
v 12.75 -5.25 6.0623481157532781
v 12.75 -5.25 6.75
v 12.75 -5.25 3.375
v 12.75 -5.2500000000000009 4.094539067186342
v 12.75 -5.25 5.7731100851076791
v 12.749999999999998 -5.2499999999999991 5.9098704730264764
v 9.75 -8.9660742208737787 5.944416501516999
v 9.75 -9.3698349125585807 6.7500000000000009
v 8.6424851956310089 -9.3698349125585807 6.7500000000000018
v 9.2177876474905656 -9.3698349125585771 6.7499999999999982
v 12.749999999999998 -6.3626182122776589 0.75
v 13.394776543641298 -6.3626182122776598 0.75000000000000011
v 14.60922857700346 -6.3626182122776589 0.74999999999999989
v 14.502025481531408 -6.3626182122776589 0.74999999999999989
v 16.668927318416493 -6.3626182122776607 0.75
v 15.066061533954317 -6.3626182122776598 0.75000000000000011
v 15.630097586377227 -6.3626182122776598 0.75000000000000011
v 9.7499999999999982 -8.25 4.5157049208579405
v 9.9622051628879404 -8.25 4.5157049208579414
v 10.763959929651502 -8.25 4.5157049208579414
v 9.75 -8.3435744819544233 4.7024047658255785
v 11.736040070348498 -8.25 4.5157049208579423
v 11.420698360020324 -8.25 4.5157049208579414
v 7.8602793185991109 -9.3698349125585789 6.75
v 9.75 -5.2499999999999991 2.8971956852838257
v 9.7499999999999982 -4.864276202605966 3.0905215261536774
v 9.9497156717790727 -2.8387573327966584 0.75000000000000011
v 9.7499999999999982 -2.5874363381001437 0.74999999999999967
v 10.338757332796657 -2.8387573327966589 0.75000000000000011
v 9.75 -2.25 0.75
v 9.7500000000000018 -2.8387573327966593 0.75000000000000011
v 9.7500000000000018 -2.6780510684640437 0.75
v 11.03464175942181 -6.3626182122776598 0.74999999999999989
v 9.7500000000000018 -4.3792875656972026 5.7704485114093531
v 9.75 -3.75 5.0625
v 9.75 -4.5081504632788763 4.3014272813344485
v 9.75 -5.0555017320827744 3.7519662727478318
v 9.75 -4.9443265020172786 6.4061173147694381
v 9.75 -4.2874687546465529 3.4984151333092024
v 9.7500000000000018 -4.161481198087154 3.490783717586817
v 9.7499999999999982 -2.8807971219260211 4.0846467621667735
v 9.7500000000000018 -4.0760033262967745 3.4856060858229245
v 9.7499999999999982 -4.1280417348830607 3.4887581965574959
v 9.75 -3.5392015527160492 4.8253517468055556
v 9.75 -4.1445704660527003 3.4512400445288378
v 9.75 -3.4910439411799716 5.3538255661725316
v 9.75 -3.2867410829471893 5.5836662816844109
v 9.75 -3.0885121406811016 6.75
v 9.7500000000000018 -4.2582116266939849 6.75
v 9.75 -2.6584004695763297 6.7500000000000009
v 9.7500000000000018 -2.5111501434512182 6.4562060886173809
v 10.164986643879395 -2.6584004695763284 6.7499999999999991
v 12.750000000000002 -9.3698349125585807 6.75
v 12.75 -8.25 6.75
v 9.75 0.34881623070459006 0.74999999999999989
v 9.6938616103897175 0.34881623070459017 0.75000000000000011
v 9.0969352457479555 0.34881623070459011 0.75000000000000011
v 9.3685076143805261 0.34881623070459006 0.75
v 9.75 -0.79375362460869348 0.75
v 12.750000000000002 -2.8387573327966589 0.75000000000000011
v 12.550284328220927 -2.838757332796658 0.75000000000000011
v 12.75 -2.625 0.75
v 12.749999999999998 -2.6661724091446177 0.74999999999999989
v 9.75 -2.25 4.9157692072285313
v 9.75 -2.25 4.4008040354242857
v 9.75 -3.3380045508806129 5.2820437714442887
v 9.75 -2.25 5.9351592147552674
v 9.2401712580519018 -2.25 4.4008040354242857
v 8.9930828095442337 -2.2500000000000004 4.4008040354242866
v 8.0068602953087051 -2.25 4.4008040354242866
v 8.0080373704982897 -2.25 4.4008040354242857
v 12.709880920057783 -2.6584004695763297 6.7500000000000009
v 10.4668331702935 -2.6584004695763293 6.75
v 7.7160142669482745 0.34881623070459011 0.75
v 12.193690893861168 -6.3626182122776589 0.74999999999999989
v 11.171050912994831 -6.3626182122776607 0.75
v 11.328949087005171 -6.3626182122776607 0.75
v 12.75 -8.9854195583916798 5.9830143269070266
v 12.75 -8.5152362026473458 5.0449043017124753
v 12.75 -8.2500000000000018 4.5157049208579432
v 12.623501169764678 -8.2500000000000018 4.5157049208579423
v 12.750000000000002 -7.7784920249539375 6.7499999999999991
v 12.75 -5.5946530383810629 6.7499999999999991
v 12.75 -7.1874177945073425 6.7499999999999991
v 12.75 -7.3838111027442483 6.75
v 12.75 -8.9037109739389209 5.8199893255259276
v 12.749999999999998 -5.2499999999999991 2.8971956852838252
v 13.159546555471005 -5.2499999999999991 2.8971956852838252
v 12.749999999999998 -4.9317190055827531 3.0567190055827522
v 12.750000000000002 -4.5971874971796201 6.1606396975274986
v 12.750000000000002 -5.0254091058629591 6.5472389365563419
v 12.75 -5.1583081362541003 5.8794044714113181
v 12.749999999999998 -3.4523472901662786 5.1270758981624107
v 12.750000000000002 -3.5764683763505021 4.7535154334136003
v 12.75 -3.2951987050319498 4.9852018726684832
v 12.75 -3.7774751783389697 5.4206019407670611
v 12.75 -4.2966734916309228 4.1602706732862513
v 12.750000000000002 -4.682036836995775 3.8428405682614737
v 12.750000000000002 -4.2966846343234133 3.375
v 12.75 -3.9821148939150293 3.5326632294598541
v 12.749999999999998 -2.9135390654636173 4.0682364089324548
v 15 -5.25 2.8971956852838257
v 14.838729944696428 -5.25 2.8971956852838257
v 12.75 -4.9850596627911816 6.7499999999999991
v 12.75 -3.4212955787473107 6.75
v 12.749999999999998 -2.6393980556905303 6.7120863759821017
v 12.75 -2.6584004695763297 6.75
v 12.75 -2.9131063336852789 6.75
v 12.75 -3.2024131992636011 5.2295289440191874
v 12.75 -3.3968408941088328 5.2941304716051221
v 12.749999999999998 -2.5874363381001437 0.74999999999999989
v 12.75 -0.9375 0.75
v 12.750000000000002 -2.5414496209745301 5.0099138481855992
v 12.75 -1.6353736519635649 4.7088564717989261
v 12.749999999999998 -1.7984731409340622 5.0342726394238166
v 12.75 -1.5204464095795722 4.4795535904204273
v 12.749999999999998 -0.96684107566831179 3.3749999999999996
v 12.75 -0.9375 3.3164586737319501
v 12.75 -0.48529353178458562 2.4142161419453223
v 12.75 -0.291152803576054 2.0268664809972519
v 12.750000000000002 0.092510974223900616 1.261380353381411
v 12.75 -0.79375362460869336 0.75
v 12.75 0.34881623070459011 0.75000000000000011
v 17.25 -5.6326116108822379 2.705429680956084
v 17.25 -6.999353633566912 2.0204147750239043
v 17.25 -6.5436280525800061 1.1111509079849893
v 17.249999999999996 -6.153657465171344 1.7935994359501481
v 17.25 -5.25 2.8971956852838261
v 17.25 -6.3626182122776598 0.75
v 17.25 -5.25 1.5512389026652218
v 17.25 -5.25 0.75
v 16.840453444528993 -5.25 2.8971956852838261
v 15.114741786355419 -5.25 2.8971956852838257
v 15.390753628014409 -5.25 2.8971956852838257
v 7.5267998770095561 -2.2499999999999996 4.4008040354242857
v 6.7260140970771864 -9.3698349125585807 6.7500000000000009
v 7.1684473955735193 -9.3698349125585807 6.7499999999999991
v 7.6277357846536313 -9.3698349125585789 6.7500000000000009
v 3.0721323314572717 -8.25 4.5157049208579432
v -3.7499999999999996 -3.7922039787144279 5.4236656718735201
v 3.0741418035799151 -8.2528809493987243 4.5214529922858286
v 6.4172299341454231 -2.9012928333652792 4.0743742545460613
v 7.5978783160598926 -3.8801075337794177 3.5837896022850839
v 8.6230200805819237 -2.9940093960676957 4.0279044552541698
f 1 2 3
f 3 2 4
f 3 5 6
f 4 5 3
f 7 1 3
f 6 7 3
f 8 9 2
f 2 9 10
f 2 11 4
f 10 11 2
f 1 8 2
f 12 13 9
f 9 13 10
f 9 8 14
f 9 14 12
f 5 11 15
f 4 11 5
f 5 15 6
f 16 15 11
f 10 16 11
f 12 17 13
f 13 17 10
f 18 19 1
f 20 19 18
f 7 21 18
f 18 21 22
f 18 1 7
f 23 20 18
f 18 22 23
f 19 24 8
f 25 24 19
f 19 8 1
f 26 25 19
f 19 20 26
f 27 28 24
f 24 28 29
f 14 8 24
f 24 25 30
f 29 14 24
f 24 30 27
f 21 15 31
f 6 15 21
f 21 31 22
f 21 7 6
f 32 33 28
f 28 33 29
f 34 32 28
f 35 34 28
f 28 27 35
f 15 16 36
f 36 31 15
f 37 38 16
f 16 38 36
f 10 37 16
f 17 33 37
f 29 33 17
f 17 37 10
f 12 29 17
f 36 38 31
f 31 39 22
f 40 39 31
f 37 33 38
f 38 33 41
f 42 43 38
f 41 42 38
f 33 32 41
f 34 44 32
f 32 44 42
f 32 42 41
f 43 44 45
f 42 44 43
f 46 45 44
f 44 34 46
f 47 48 39
f 39 48 22
f 49 47 39
f 48 50 51
f 51 50 20
f 23 48 51
f 51 20 23
f 50 52 25
f 53 52 50
f 50 48 54
f 50 54 53
f 50 25 26
f 26 20 50
f 30 25 52
f 27 30 52
f 48 47 54
f 23 22 48
f 55 54 47
f 56 57 47
f 47 57 55
f 49 56 47
f 55 58 54
f 59 60 61
f 61 62 59
f 63 64 65
f 63 66 67
f 65 66 63
f 60 68 64
f 64 68 69
f 69 70 64
f 64 70 65
f 71 60 64
f 68 72 69
f 62 72 68
f 68 60 59
f 59 62 68
f 73 74 75
f 75 74 76
f 76 77 75
f 75 77 78
f 75 79 73
f 78 79 75
f 73 80 74
f 74 80 81
f 81 82 74
f 74 82 76
f 80 83 81
f 84 83 80
f 80 73 85
f 86 84 80
f 80 85 86
f 77 82 87
f 76 82 77
f 88 89 77
f 77 89 78
f 87 88 77
f 81 83 82
f 82 83 90
f 90 87 82
f 84 91 83
f 83 91 90
f 92 73 79
f 79 89 93
f 78 89 79
f 79 93 92
f 73 92 85
f 89 88 94
f 94 93 89
f 88 87 95
f 96 94 88
f 95 96 88
f 97 95 87
f 90 97 87
f 98 99 100
f 101 99 98
f 98 100 57
f 98 57 101
f 99 102 103
f 104 102 99
f 103 100 99
f 99 101 105
f 99 105 104
f 104 106 102
f 58 57 100
f 57 58 55
f 107 101 57
f 108 107 57
f 67 66 109
f 110 72 111
f 111 72 62
f 111 112 113
f 113 110 111
f 65 70 66
f 66 70 114
f 66 93 115
f 114 93 66
f 66 115 116
f 117 92 70
f 70 92 114
f 70 69 117
f 118 119 72
f 72 119 117
f 110 120 72
f 72 120 118
f 117 69 72
f 121 122 119
f 119 122 123
f 118 121 119
f 119 123 117
f 114 92 93
f 94 115 93
f 124 85 92
f 117 123 92
f 92 123 124
f 122 121 125
f 125 84 122
f 122 84 86
f 122 85 124
f 86 85 122
f 124 123 122
f 126 105 101
f 101 107 127
f 101 127 126
f 105 126 128
f 128 104 105
f 128 129 106
f 106 104 128
f 130 127 107
f 131 130 107
f 107 108 131
f 120 132 133
f 134 132 120
f 120 133 118
f 120 110 134
f 135 136 115
f 115 136 137
f 115 94 135
f 137 138 115
f 115 138 116
f 136 135 139
f 140 137 136
f 139 140 136
f 141 142 121
f 121 142 125
f 121 143 140
f 118 143 121
f 139 141 121
f 121 140 139
f 95 135 94
f 94 96 95
f 135 95 141
f 135 141 139
f 97 142 95
f 95 142 141
f 97 91 142
f 142 91 125
f 144 145 146
f 147 145 144
f 144 146 127
f 144 127 148
f 144 148 149
f 149 147 144
f 150 151 145
f 145 151 152
f 152 146 145
f 147 150 145
f 153 154 151
f 151 154 152
f 151 150 155
f 155 153 151
f 126 127 146
f 156 126 146
f 152 156 146
f 157 129 154
f 154 129 156
f 153 157 154
f 154 156 152
f 130 148 127
f 126 156 128
f 129 157 158
f 128 156 129
f 138 137 159
f 159 160 138
f 138 160 116
f 161 159 137
f 137 140 161
f 143 133 162
f 118 133 143
f 143 162 161
f 161 140 143
f 163 164 165
f 165 164 147
f 165 166 167
f 149 166 165
f 168 163 165
f 167 168 165
f 165 147 149
f 163 169 164
f 164 169 170
f 164 150 147
f 170 150 164
f 171 172 173
f 173 172 153
f 173 169 174
f 170 169 173
f 155 150 173
f 173 150 170
f 174 171 173
f 173 153 155
f 175 157 172
f 172 157 153
f 176 175 172
f 171 176 172
f 130 177 148
f 148 177 178
f 178 166 148
f 148 166 149
f 177 130 179
f 177 179 180
f 181 178 177
f 177 180 181
f 157 175 181
f 181 180 157
f 182 183 184
f 185 183 182
f 182 186 187
f 188 186 182
f 182 187 185
f 184 188 182
f 189 190 191
f 192 190 189
f 189 193 192
f 194 193 189
f 189 191 194
f 190 195 196
f 197 195 190
f 190 196 191
f 192 197 190
f 198 179 130
f 179 198 199
f 113 112 200
f 200 110 113
f 134 110 200
f 201 202 200
f 200 202 203
f 200 203 134
f 204 205 206
f 207 205 204
f 116 160 204
f 204 160 207
f 204 206 208
f 205 159 209
f 207 159 205
f 210 206 205
f 211 210 205
f 205 209 212
f 212 211 205
f 209 133 132
f 203 213 132
f 132 213 211
f 212 209 132
f 134 203 132
f 132 211 212
f 161 162 133
f 133 209 161
f 160 159 207
f 161 209 159
f 166 178 214
f 166 215 167
f 214 215 166
f 178 216 214
f 217 216 178
f 181 217 178
f 175 176 217
f 175 217 181
f 198 218 219
f 198 219 199
f 208 206 220
f 206 210 221
f 222 221 210
f 211 222 210
f 202 223 213
f 213 223 211
f 203 202 213
f 215 216 224
f 214 216 215
f 215 218 225
f 224 218 215
f 225 226 215
f 215 226 168
f 215 168 167
f 227 219 216
f 216 219 224
f 228 227 216
f 217 228 216
f 171 229 176
f 176 229 230
f 176 227 228
f 230 227 176
f 176 228 217
f 224 219 218
f 231 225 218
f 218 232 231
f 233 232 218
f 234 235 236
f 236 235 237
f 236 202 201
f 237 202 236
f 238 223 239
f 239 223 237
f 239 235 240
f 237 235 239
f 241 242 239
f 239 242 238
f 240 241 239
f 221 222 243
f 221 244 245
f 243 244 221
f 246 247 222
f 222 247 243
f 248 246 222
f 222 211 248
f 223 249 246
f 238 249 223
f 223 202 237
f 223 246 248
f 248 211 223
f 244 247 250
f 243 247 244
f 244 251 245
f 250 251 244
f 252 253 247
f 247 253 250
f 254 252 247
f 247 246 254
f 249 252 254
f 255 252 249
f 254 246 249
f 249 238 255
f 256 257 226
f 226 257 163
f 226 225 256
f 226 163 168
f 257 258 169
f 259 258 257
f 257 169 163
f 256 259 257
f 259 229 258
f 258 229 171
f 174 169 258
f 258 171 174
f 260 261 225
f 225 261 256
f 262 260 225
f 225 231 263
f 225 263 262
f 261 264 265
f 260 264 261
f 261 265 266
f 261 259 256
f 266 259 261
f 265 267 229
f 229 267 268
f 266 265 229
f 229 259 266
f 229 268 230
f 269 270 232
f 232 270 231
f 271 269 232
f 272 273 235
f 235 273 240
f 235 234 272
f 274 275 276
f 276 275 277
f 278 274 276
f 251 253 279
f 250 253 251
f 251 279 280
f 251 280 281
f 251 281 245
f 282 279 253
f 253 252 282
f 283 284 242
f 242 284 285
f 242 241 286
f 242 286 283
f 282 252 242
f 242 252 255
f 255 238 242
f 242 285 282
f 287 280 279
f 285 287 279
f 282 285 279
f 194 287 193
f 193 287 285
f 193 288 192
f 285 288 193
f 280 287 289
f 290 281 280
f 289 290 280
f 194 289 287
f 284 283 288
f 284 288 285
f 270 264 291
f 291 264 260
f 263 270 291
f 291 260 262
f 262 263 291
f 292 267 264
f 264 267 265
f 264 270 293
f 264 293 292
f 270 269 293
f 263 231 270
f 294 295 296
f 297 298 296
f 296 298 299
f 296 299 294
f 300 293 269
f 271 300 269
f 293 300 301
f 302 303 304
f 304 305 302
f 302 305 306
f 307 308 302
f 306 307 302
f 309 241 273
f 273 241 240
f 273 310 309
f 281 311 312
f 312 311 313
f 245 281 312
f 312 314 315
f 313 314 312
f 316 241 311
f 311 241 317
f 311 281 318
f 311 318 316
f 317 319 311
f 311 319 313
f 316 286 241
f 309 320 241
f 241 320 317
f 321 318 281
f 281 290 322
f 322 321 281
f 318 195 323
f 321 195 318
f 318 323 324
f 324 316 318
f 325 283 286
f 323 325 286
f 324 323 286
f 286 316 324
f 290 289 196
f 196 326 290
f 290 326 322
f 197 288 283
f 283 325 197
f 191 196 289
f 194 191 289
f 288 197 192
f 300 295 301
f 327 328 329
f 329 328 294
f 329 330 327
f 294 330 329
f 331 303 328
f 328 303 332
f 332 301 328
f 328 301 294
f 333 331 328
f 327 333 328
f 303 331 304
f 294 301 295
f 310 334 335
f 335 309 310
f 313 319 314
f 319 320 334
f 317 320 319
f 319 334 336
f 335 334 320
f 320 309 335
f 196 195 326
f 326 195 321
f 326 321 322
f 197 325 195
f 195 325 323
f 337 183 333
f 184 183 337
f 299 298 337
f 337 298 338
f 333 330 337
f 337 330 299
f 338 339 337
f 337 339 184
f 340 333 183
f 185 340 183
f 305 304 340
f 305 187 341
f 185 187 305
f 305 340 185
f 305 341 306
f 308 307 274
f 308 274 278
f 297 342 298
f 298 342 343
f 298 344 338
f 343 344 298
f 342 275 345
f 346 347 342
f 342 347 343
f 342 345 348
f 348 346 342
f 345 274 307
f 307 349 346
f 341 349 307
f 348 345 307
f 307 346 348
f 306 341 307
f 275 274 345
f 344 347 350
f 343 347 344
f 344 351 339
f 350 351 344
f 344 339 338
f 352 353 347
f 347 353 350
f 346 352 347
f 349 354 352
f 355 354 349
f 349 352 346
f 341 355 349
f 356 186 357
f 357 186 188
f 339 351 357
f 357 351 356
f 188 339 357
f 358 359 186
f 186 359 187
f 186 353 358
f 356 353 186
f 358 354 359
f 359 354 355
f 355 187 359
f 351 353 356
f 350 353 351
f 360 358 353
f 353 352 360
f 354 358 360
f 360 352 354
f 340 304 331
f 331 333 340
f 14 29 12
f 330 333 327
f 294 299 330
f 91 84 125
f 91 97 90
f 339 188 184
f 187 355 341
f 361 362 363
f 363 362 364
f 363 365 366
f 364 365 363
f 367 361 363
f 366 367 363
f 368 369 362
f 362 369 370
f 362 371 364
f 370 371 362
f 361 368 362
f 372 373 369
f 369 373 370
f 369 368 374
f 369 374 372
f 365 371 375
f 364 371 365
f 365 375 366
f 376 375 371
f 370 376 371
f 372 377 373
f 373 377 370
f 378 379 361
f 380 379 378
f 367 381 378
f 378 381 382
f 378 361 367
f 383 380 378
f 378 382 383
f 379 384 368
f 385 384 379
f 379 368 361
f 386 385 379
f 379 380 386
f 387 388 384
f 384 388 389
f 374 368 384
f 384 385 390
f 389 374 384
f 384 390 387
f 381 375 391
f 366 375 381
f 381 391 382
f 381 367 366
f 392 393 388
f 388 393 389
f 394 392 388
f 395 394 388
f 388 387 395
f 375 376 396
f 396 391 375
f 397 398 376
f 376 398 396
f 370 397 376
f 377 393 397
f 389 393 377
f 377 397 370
f 372 389 377
f 391 398 399
f 396 398 391
f 399 400 391
f 391 400 401
f 391 402 382
f 401 402 391
f 397 393 398
f 398 393 403
f 398 404 399
f 405 404 398
f 403 405 398
f 393 392 403
f 400 404 406
f 399 404 400
f 400 406 407
f 400 407 401
f 402 408 382
f 401 407 402
f 408 409 410
f 410 409 380
f 383 408 410
f 410 380 383
f 409 411 385
f 412 411 409
f 409 385 386
f 386 380 409
f 412 413 411
f 411 413 387
f 390 385 411
f 387 390 411
f 383 382 408
f 413 414 415
f 416 414 413
f 413 394 395
f 413 412 417
f 395 387 413
f 413 417 416
f 418 419 420
f 420 421 422
f 422 418 420
f 421 423 424
f 424 423 425
f 424 426 418
f 425 426 424
f 422 421 424
f 424 418 422
f 423 427 428
f 428 429 423
f 423 429 425
f 423 421 430
f 427 431 428
f 432 431 427
f 433 434 435
f 435 434 436
f 436 437 435
f 435 437 438
f 435 439 433
f 438 439 435
f 433 440 434
f 434 440 441
f 441 442 434
f 434 442 436
f 440 443 441
f 444 443 440
f 440 433 445
f 446 444 440
f 440 445 446
f 437 442 447
f 436 442 437
f 448 449 437
f 437 449 438
f 447 448 437
f 441 443 442
f 442 443 450
f 450 447 442
f 444 451 443
f 443 451 450
f 452 433 439
f 439 449 453
f 438 449 439
f 439 453 452
f 433 452 445
f 449 448 454
f 454 453 449
f 448 447 455
f 456 454 448
f 455 456 448
f 457 455 447
f 450 457 447
f 458 459 460
f 461 459 458
f 459 462 463
f 464 462 459
f 463 460 459
f 459 461 465
f 459 465 464
f 466 414 462
f 462 414 463
f 464 466 462
f 416 467 460
f 460 463 416
f 414 466 468
f 414 468 469
f 416 463 414
f 470 471 472
f 419 426 473
f 418 426 419
f 419 473 474
f 474 475 419
f 425 429 426
f 426 429 476
f 426 453 477
f 476 453 426
f 426 477 478
f 478 473 426
f 479 452 429
f 429 452 476
f 429 428 479
f 480 481 431
f 431 481 479
f 431 482 480
f 479 428 431
f 483 484 481
f 481 484 485
f 480 483 481
f 481 485 479
f 476 452 453
f 454 477 453
f 486 445 452
f 479 485 452
f 452 485 486
f 484 483 487
f 487 444 484
f 484 444 446
f 484 445 486
f 446 445 484
f 486 485 484
f 488 465 461
f 461 489 488
f 465 488 490
f 490 464 465
f 491 468 466
f 490 491 466
f 466 464 490
f 468 491 492
f 468 493 494
f 492 493 468
f 494 469 468
f 482 495 496
f 482 496 480
f 497 498 477
f 477 498 499
f 477 454 497
f 499 500 477
f 477 500 478
f 498 497 501
f 502 499 498
f 501 502 498
f 503 504 483
f 483 504 487
f 483 505 502
f 480 505 483
f 501 503 483
f 483 502 501
f 455 497 454
f 454 456 455
f 497 455 503
f 497 503 501
f 457 504 455
f 455 504 503
f 457 451 504
f 504 451 487
f 506 507 508
f 509 507 506
f 506 508 489
f 506 489 510
f 506 510 511
f 511 509 506
f 512 513 507
f 507 513 514
f 514 508 507
f 509 512 507
f 515 516 513
f 513 516 514
f 513 512 517
f 517 515 513
f 488 489 508
f 518 488 508
f 514 518 508
f 519 491 516
f 516 491 518
f 515 519 516
f 516 518 514
f 488 518 490
f 491 519 492
f 490 518 491
f 500 499 520
f 520 521 500
f 500 521 478
f 522 520 499
f 499 502 522
f 505 496 523
f 480 496 505
f 505 523 522
f 522 502 505
f 524 525 526
f 526 525 509
f 526 527 528
f 511 527 526
f 529 524 526
f 528 529 526
f 526 509 511
f 524 530 525
f 525 530 531
f 525 512 509
f 531 512 525
f 532 533 534
f 534 533 515
f 534 530 535
f 531 530 534
f 517 512 534
f 534 512 531
f 535 532 534
f 534 515 517
f 536 519 533
f 533 519 515
f 537 536 533
f 532 537 533
f 510 538 539
f 539 527 510
f 510 527 511
f 540 539 538
f 538 541 540
f 541 493 519
f 519 493 492
f 519 536 540
f 540 541 519
f 542 543 544
f 545 543 542
f 542 546 547
f 548 546 542
f 542 547 545
f 544 548 542
f 549 550 551
f 552 550 549
f 549 553 552
f 554 553 549
f 549 551 554
f 550 555 556
f 557 555 550
f 550 556 551
f 552 557 550
f 558 559 493
f 493 541 560
f 560 558 493
f 473 561 562
f 562 561 563
f 563 564 562
f 474 473 562
f 562 475 474
f 561 565 566
f 567 565 561
f 478 521 561
f 561 521 567
f 561 566 563
f 561 473 478
f 565 520 568
f 567 520 565
f 569 566 565
f 570 569 565
f 565 568 571
f 571 570 565
f 568 496 495
f 572 573 495
f 495 573 570
f 571 568 495
f 495 570 571
f 522 523 496
f 496 568 522
f 521 520 567
f 522 568 520
f 527 539 574
f 527 575 528
f 574 575 527
f 539 576 574
f 577 576 539
f 540 577 539
f 536 537 577
f 536 577 540
f 578 579 559
f 559 579 580
f 558 578 559
f 564 566 581
f 563 566 564
f 566 569 582
f 582 581 566
f 583 582 569
f 570 583 569
f 584 585 573
f 573 585 570
f 572 584 573
f 575 576 586
f 574 576 575
f 587 588 575
f 575 588 529
f 575 529 528
f 589 590 576
f 577 589 576
f 532 591 537
f 537 591 592
f 537 590 589
f 592 590 537
f 537 589 577
f 593 594 579
f 595 590 579
f 579 590 592
f 592 593 579
f 579 578 595
f 581 582 596
f 581 596 597
f 597 598 581
f 599 585 600
f 601 602 600
f 600 602 599
f 582 583 603
f 582 604 605
f 603 604 582
f 605 596 582
f 606 607 583
f 583 607 603
f 608 606 583
f 583 570 608
f 585 609 606
f 599 609 585
f 585 606 608
f 608 570 585
f 604 607 610
f 603 607 604
f 604 611 605
f 610 611 604
f 612 613 607
f 607 613 610
f 614 612 607
f 607 606 614
f 609 612 614
f 615 612 609
f 614 606 609
f 609 599 615
f 616 617 588
f 588 617 524
f 588 587 616
f 588 524 529
f 617 618 530
f 619 618 617
f 617 530 524
f 616 619 617
f 619 591 618
f 618 591 532
f 535 530 618
f 618 532 535
f 620 621 587
f 587 621 616
f 622 620 587
f 587 623 622
f 621 624 625
f 620 624 621
f 621 625 626
f 621 619 616
f 626 619 621
f 625 627 591
f 591 627 628
f 626 625 591
f 591 619 626
f 591 628 592
f 611 613 629
f 610 613 611
f 611 629 630
f 611 630 631
f 611 631 605
f 632 629 613
f 613 612 632
f 633 634 602
f 602 634 635
f 602 601 636
f 602 636 633
f 632 612 602
f 602 612 615
f 615 599 602
f 602 635 632
f 637 630 629
f 635 637 629
f 632 635 629
f 554 637 553
f 553 637 635
f 553 638 552
f 635 638 553
f 630 637 639
f 640 631 630
f 639 640 630
f 554 639 637
f 634 633 638
f 634 638 635
f 641 624 642
f 642 624 620
f 623 641 642
f 642 620 622
f 622 623 642
f 643 627 624
f 624 627 625
f 643 644 627
f 627 644 628
f 645 646 647
f 647 646 648
f 649 645 647
f 647 648 650
f 644 594 593
f 651 652 644
f 644 652 653
f 644 593 628
f 652 654 655
f 655 654 656
f 657 652 655
f 656 658 655
f 655 658 659
f 660 657 655
f 659 660 655
f 596 661 662
f 662 661 663
f 663 664 662
f 597 596 662
f 662 598 597
f 631 665 661
f 661 665 666
f 605 631 661
f 661 667 663
f 666 667 661
f 661 596 605
f 668 601 665
f 665 601 669
f 665 631 670
f 665 670 668
f 669 671 665
f 665 671 666
f 668 636 601
f 672 673 601
f 601 673 669
f 674 670 631
f 631 640 675
f 675 674 631
f 670 555 676
f 674 555 670
f 670 676 677
f 677 668 670
f 678 633 636
f 676 678 636
f 677 676 636
f 636 668 677
f 640 639 556
f 556 679 640
f 640 679 675
f 557 638 633
f 633 678 557
f 551 556 639
f 554 551 639
f 638 557 552
f 680 681 682
f 682 681 650
f 682 683 680
f 650 683 682
f 684 654 681
f 681 654 685
f 686 684 681
f 680 686 681
f 654 652 685
f 654 684 656
f 687 685 652
f 652 651 687
f 664 663 688
f 688 689 664
f 667 671 689
f 666 671 667
f 688 663 667
f 667 689 688
f 669 673 671
f 690 689 671
f 556 555 679
f 679 555 674
f 679 674 675
f 557 678 555
f 555 678 676
f 691 543 686
f 544 543 691
f 648 646 691
f 691 646 692
f 686 683 691
f 691 683 648
f 692 693 691
f 691 693 544
f 694 686 543
f 545 694 543
f 658 656 694
f 658 547 695
f 545 547 658
f 658 694 545
f 658 695 659
f 645 696 646
f 646 696 697
f 646 698 692
f 697 698 646
f 696 645 699
f 696 699 700
f 701 702 696
f 696 702 697
f 696 700 703
f 703 701 696
f 660 704 701
f 695 704 660
f 703 700 660
f 660 701 703
f 659 695 660
f 645 705 699
f 649 705 645
f 649 699 705
f 649 706 699
f 698 702 707
f 697 702 698
f 698 708 693
f 707 708 698
f 698 693 692
f 709 710 702
f 702 710 707
f 701 709 702
f 704 711 709
f 712 711 704
f 704 709 701
f 695 712 704
f 713 546 714
f 714 546 548
f 693 708 714
f 714 708 713
f 548 693 714
f 715 716 546
f 546 716 547
f 546 710 715
f 713 710 546
f 715 711 716
f 716 711 712
f 712 547 716
f 708 710 713
f 707 710 708
f 717 715 710
f 710 709 717
f 711 715 717
f 717 709 711
f 694 656 684
f 684 686 694
f 374 389 372
f 683 686 680
f 650 648 683
f 592 628 593
f 451 444 487
f 451 457 450
f 693 548 544
f 547 712 695
f 718 31 719
f 31 38 719
f 38 720 719
f 721 718 719
f 719 720 721
f 720 722 721
f 723 31 718
f 724 721 722
f 724 725 723
f 718 724 723
f 724 718 721
f 725 726 723
f 725 727 726
f 728 40 723
f 40 31 723
f 729 720 38
f 38 43 729
f 729 722 720
f 730 43 731
f 732 727 725
f 729 724 722
f 724 729 733
f 729 730 733
f 732 725 724
f 733 732 724
f 729 43 730
f 734 40 728
f 735 731 43
f 43 45 735
f 731 735 736
f 737 39 738
f 737 738 739
f 737 739 740
f 49 737 741
f 49 39 737
f 742 49 741
f 39 734 743
f 39 40 734
f 738 39 743
f 744 745 52
f 52 53 744
f 27 745 746
f 27 52 745
f 54 747 748
f 54 58 747
f 749 54 748
f 54 750 53
f 750 54 751
f 54 749 752
f 751 54 753
f 54 752 753
f 34 754 755
f 34 756 754
f 34 757 756
f 34 746 758
f 34 758 757
f 746 34 35
f 744 53 750
f 744 750 759
f 35 27 746
f 760 761 762
f 762 761 763
f 764 765 766
f 765 767 766
f 768 56 769
f 768 769 770
f 768 770 771
f 770 772 771
f 49 769 56
f 769 49 742
f 45 773 761
f 45 774 773
f 45 775 774
f 45 776 775
f 45 755 776
f 777 778 779
f 779 778 780
f 773 781 761
f 774 775 779
f 773 774 779
f 780 773 779
f 773 780 781
f 782 777 779
f 783 782 779
f 779 776 783
f 776 755 783
f 775 776 779
f 784 785 786
f 780 784 786
f 784 780 778
f 787 761 786
f 786 761 781
f 786 781 780
f 787 763 761
f 761 735 45
f 735 761 760
f 735 760 788
f 788 760 789
f 790 778 777
f 791 790 792
f 793 792 790
f 777 793 790
f 793 777 782
f 794 61 795
f 794 795 791
f 792 794 791
f 796 783 755
f 782 796 793
f 796 782 783
f 797 61 794
f 755 45 46
f 46 34 755
f 767 798 799
f 767 109 798
f 767 799 766
f 67 109 767
f 67 800 801
f 67 767 800
f 802 803 804
f 805 784 778
f 805 802 804
f 785 805 804
f 805 785 784
f 803 60 804
f 60 806 804
f 71 806 60
f 806 71 807
f 808 807 71
f 802 805 809
f 803 802 795
f 791 795 802
f 809 791 802
f 805 778 790
f 805 790 809
f 790 791 809
f 795 61 803
f 61 60 803
f 61 810 62
f 810 61 797
f 810 797 811
f 63 812 64
f 812 63 813
f 63 814 813
f 814 63 815
f 67 815 63
f 67 816 815
f 67 801 816
f 812 808 71
f 71 64 812
f 808 812 817
f 102 818 819
f 102 106 818
f 820 102 819
f 820 821 103
f 103 102 820
f 100 747 58
f 747 100 822
f 822 100 823
f 100 824 823
f 825 824 100
f 100 103 825
f 768 826 57
f 57 56 768
f 108 826 827
f 108 57 826
f 828 108 827
f 818 106 829
f 818 829 830
f 825 103 821
f 831 832 833
f 109 834 835
f 798 109 836
f 109 835 836
f 837 108 828
f 837 828 838
f 837 838 839
f 840 841 842
f 841 843 842
f 844 845 846
f 841 840 845
f 841 845 844
f 844 846 847
f 848 849 850
f 848 850 851
f 848 832 831
f 832 848 851
f 848 842 843
f 843 849 848
f 852 111 853
f 853 111 854
f 855 843 841
f 856 109 857
f 856 857 858
f 856 834 109
f 859 109 860
f 109 66 861
f 66 862 861
f 109 861 860
f 859 863 109
f 857 109 863
f 864 112 865
f 866 864 865
f 864 866 867
f 864 867 868
f 112 111 865
f 111 869 865
f 869 111 852
f 870 112 864
f 870 864 871
f 810 854 111
f 111 62 810
f 66 872 873
f 66 116 872
f 873 872 874
f 862 66 873
f 875 829 106
f 106 129 875
f 158 875 129
f 875 158 876
f 875 876 877
f 878 876 158
f 879 880 849
f 880 879 881
f 880 881 882
f 850 849 880
f 850 880 883
f 884 881 879
f 885 131 886
f 887 885 888
f 885 886 888
f 837 886 131
f 131 108 837
f 843 879 849
f 889 843 855
f 889 855 890
f 891 892 157
f 157 180 891
f 892 891 893
f 158 892 894
f 158 157 892
f 878 158 894
f 895 130 896
f 895 896 897
f 895 898 198
f 198 130 895
f 885 896 130
f 130 131 885
f 179 899 180
f 899 179 900
f 179 901 900
f 902 903 179
f 179 199 902
f 179 903 904
f 901 179 904
f 891 180 899
f 898 905 218
f 218 198 898
f 905 898 906
f 907 218 905
f 907 905 908
f 905 909 908
f 884 879 910
f 911 912 913
f 912 914 913
f 915 911 913
f 916 911 915
f 917 918 879
f 918 917 919
f 920 921 919
f 917 922 920
f 919 917 920
f 923 920 922
f 922 924 923
f 924 925 923
f 889 917 879
f 879 843 889
f 889 922 917
f 922 889 926
f 924 922 926
f 918 910 879
f 927 928 929
f 929 928 920
f 928 921 920
f 930 927 929
f 931 930 929
f 930 931 932
f 920 923 929
f 923 925 929
f 929 925 931
f 925 933 931
f 930 932 200
f 934 200 932
f 935 204 936
f 208 936 204
f 208 937 936
f 208 914 937
f 938 913 914
f 914 220 938
f 208 220 914
f 112 930 200
f 112 928 927
f 112 927 930
f 928 112 939
f 112 870 940
f 939 112 941
f 112 940 941
f 201 934 942
f 201 200 934
f 943 201 944
f 201 942 944
f 116 935 945
f 116 204 935
f 946 872 945
f 872 116 945
f 220 206 947
f 948 949 220
f 220 947 948
f 949 938 220
f 938 949 950
f 950 949 951
f 206 952 947
f 206 221 953
f 206 953 952
f 907 954 233
f 233 218 907
f 219 955 956
f 957 219 956
f 219 227 955
f 219 958 199
f 958 219 959
f 959 219 960
f 219 957 960
f 955 227 961
f 230 961 227
f 961 230 962
f 961 962 963
f 964 962 230
f 962 964 965
f 966 967 968
f 968 967 969
f 948 970 971
f 948 971 972
f 971 973 972
f 948 974 970
f 948 947 974
f 975 233 954
f 976 977 978
f 977 976 967
f 979 980 981
f 978 979 981
f 982 979 978
f 981 976 978
f 977 967 966
f 983 984 967
f 985 969 967
f 967 984 985
f 983 986 987
f 983 967 986
f 981 988 987
f 987 976 981
f 976 987 986
f 981 980 988
f 976 986 967
f 989 236 990
f 989 990 991
f 992 993 994
f 994 993 995
f 993 996 995
f 997 995 980
f 995 997 994
f 998 999 992
f 994 998 992
f 999 989 992
f 999 236 989
f 997 998 994
f 1000 983 1001
f 987 1001 983
f 1001 987 1002
f 1001 1002 1003
f 1001 1003 1004
f 1001 1004 1005
f 1003 988 995
f 988 980 995
f 988 1003 1002
f 988 1002 987
f 996 1004 1003
f 995 996 1003
f 953 221 1006
f 953 1006 1007
f 1008 1009 998
f 1009 999 998
f 997 980 979
f 1010 1008 997
f 979 1010 997
f 1010 979 982
f 998 997 1008
f 1009 236 999
f 1010 1011 234
f 234 1008 1010
f 1011 1010 1012
f 234 1009 1008
f 234 236 1009
f 1013 234 1011
f 1013 1011 1014
f 943 990 236
f 236 201 943
f 990 943 1015
f 221 1016 1017
f 221 245 1016
f 1006 221 1017
f 1018 1019 232
f 1019 1018 1020
f 975 1018 232
f 232 233 975
f 975 1021 1022
f 975 1022 1018
f 271 1019 1023
f 271 232 1019
f 1024 271 1023
f 1025 1026 1027
f 985 984 1025
f 984 1026 1025
f 1026 984 1028
f 984 1029 1028
f 984 983 1030
f 1031 1029 984
f 984 1030 1031
f 983 1032 1030
f 983 1033 1032
f 983 1034 1033
f 983 1035 1034
f 1035 983 1036
f 1035 1036 1037
f 1036 983 1038
f 983 1000 1038
f 276 1039 1040
f 276 1041 1042
f 276 1042 1043
f 276 1043 1044
f 276 1044 1039
f 277 1041 276
f 276 1040 278
f 1045 1046 267
f 267 292 1045
f 1046 1047 268
f 268 267 1046
f 1047 1046 1048
f 1049 1050 296
f 296 295 1049
f 1050 1051 296
f 1051 1050 1052
f 296 1053 297
f 1053 296 1051
f 1053 1051 1054
f 1053 1054 1055
f 1056 293 1057
f 293 1058 1057
f 1045 292 1059
f 1059 292 1056
f 292 293 1056
f 1060 1058 293
f 293 301 1060
f 1058 1060 1061
f 1062 268 1047
f 1063 1030 1064
f 1031 1030 1063
f 1065 1066 1067
f 1066 1068 1067
f 1069 1070 1065
f 1070 1066 1065
f 1071 271 1024
f 1072 1073 1034
f 1073 1033 1034
f 1033 1073 1074
f 1032 1075 1030
f 1074 1032 1033
f 1032 1074 1075
f 1034 1035 1072
f 1035 1076 1072
f 1077 1030 1075
f 1077 1075 1074
f 1078 1077 1074
f 1079 1080 1081
f 1082 1079 1081
f 1081 1078 1082
f 1074 1082 1078
f 1082 1074 1073
f 1083 1081 1080
f 1077 1064 1030
f 1064 1077 1083
f 1077 1078 1083
f 1078 1081 1083
f 1084 1073 1072
f 1085 1084 1086
f 1087 1086 1084
f 1072 1087 1084
f 1087 1072 1076
f 1088 273 1089
f 1088 1089 1085
f 1086 1088 1085
f 1090 273 1088
f 302 1091 303
f 302 1092 1091
f 308 1092 302
f 312 1093 1094
f 1095 312 1096
f 312 1094 1096
f 315 1093 312
f 315 1097 1093
f 315 1068 1097
f 1068 1098 1099
f 1068 1100 1101
f 1068 1101 1098
f 1068 1099 1067
f 315 1100 1068
f 1102 1103 1104
f 1079 1104 1103
f 1104 1079 1082
f 1085 1089 1102
f 1104 1085 1102
f 1089 1105 1102
f 1089 273 1105
f 1084 1082 1073
f 1082 1084 1104
f 1084 1085 1104
f 272 1105 273
f 272 1103 1102
f 272 1102 1105
f 1103 272 1106
f 272 1107 1106
f 272 1108 1109
f 1107 272 1109
f 273 1110 310
f 1110 273 1111
f 273 1090 1111
f 1095 1016 245
f 245 312 1095
f 1016 1095 1112
f 300 1049 295
f 1049 300 1113
f 1071 1113 300
f 300 271 1071
f 1113 1071 1114
f 1113 1114 1115
f 1091 1116 332
f 332 303 1091
f 1117 1118 301
f 301 332 1117
f 1060 301 1118
f 1060 1118 1119
f 308 1120 1092
f 308 1121 1122
f 308 1122 1123
f 308 1123 1120
f 308 1040 1121
f 1117 332 1124
f 332 1116 1124
f 1125 1041 1126
f 1127 1041 1125
f 1128 1129 1130
f 1131 1132 1133
f 1131 1134 1130
f 1135 1131 1130
f 1131 1135 1132
f 1134 1128 1130
f 1044 1043 1130
f 1039 1044 1130
f 1043 1042 1130
f 1130 1042 1135
f 1042 1136 1135
f 1130 1129 1039
f 1129 1040 1039
f 1042 1041 1136
f 1136 1137 1138
f 1137 1136 1041
f 1139 1133 1138
f 1138 1133 1132
f 1138 1135 1136
f 1138 1132 1135
f 1137 1041 1127
f 1041 1140 1141
f 1041 277 1140
f 1126 1041 1141
f 1142 1040 1129
f 1142 1129 1128
f 1143 1142 1128
f 1144 310 1145
f 1144 1145 1146
f 1147 1144 1146
f 1148 1147 1146
f 1128 1134 1148
f 1143 1128 1148
f 1146 1143 1148
f 1147 1131 1133
f 1131 1147 1148
f 1134 1131 1148
f 1145 310 1110
f 1040 308 278
f 315 1149 1100
f 315 1150 1149
f 1151 1133 1139
f 1152 1151 1139
f 1152 1153 1151
f 1154 334 1152
f 334 1153 1152
f 1154 1155 336
f 336 334 1154
f 1156 336 1155
f 310 1153 334
f 1153 310 1144
f 1151 1147 1133
f 1144 1151 1153
f 1151 1144 1147
f 314 1157 1158
f 1159 314 1158
f 314 319 1157
f 315 1160 1150
f 315 314 1161
f 315 1161 1160
f 1159 1161 314
f 1156 1157 319
f 319 336 1156
f 342 1162 275
f 1162 342 1163
f 342 1164 1163
f 342 297 1164
f 1163 1165 1162
f 1164 1165 1163
f 1166 275 1162
f 1167 1164 297
f 1166 1162 1165
f 1168 1166 1165
f 1167 1169 1168
f 1165 1167 1168
f 1167 1165 1164
f 1167 297 1053
f 1170 275 1166
f 275 1140 277
f 1140 275 1171
f 1171 275 1172
f 275 1170 1172
f 1013 1108 272
f 272 234 1013
f 1108 1013 1173
f 1174 230 1175
f 230 268 1062
f 964 230 1174
f 230 1062 1175
f 1175 1062 1176
f 958 902 199
f 902 958 1177
f 392 743 734
f 392 394 743
f 392 728 723
f 392 734 728
f 733 405 732
f 723 726 392
f 403 732 405
f 732 403 727
f 403 392 727
f 392 726 727
f 404 730 731
f 404 731 736
f 730 404 733
f 404 405 733
f 406 736 735
f 406 404 736
f 406 735 788
f 394 739 738
f 394 738 743
f 402 815 408
f 402 813 814
f 402 814 815
f 402 817 812
f 402 812 813
f 407 804 402
f 402 804 806
f 402 806 807
f 402 807 808
f 402 808 817
f 800 409 801
f 409 816 801
f 409 408 816
f 765 412 767
f 767 412 800
f 412 409 800
f 815 816 408
f 835 467 836
f 416 836 467
f 836 416 798
f 416 799 798
f 764 417 765
f 417 412 765
f 799 416 766
f 416 417 764
f 416 764 766
f 394 741 737
f 394 413 741
f 394 737 740
f 413 770 769
f 413 415 770
f 413 742 741
f 413 769 742
f 406 785 804
f 406 786 785
f 420 811 797
f 420 797 794
f 792 420 794
f 407 406 804
f 763 787 789
f 760 763 789
f 787 786 789
f 762 763 760
f 788 789 786
f 786 406 788
f 739 394 740
f 770 415 772
f 796 421 793
f 421 420 793
f 793 420 792
f 811 420 810
f 420 419 810
f 419 865 852
f 852 865 869
f 419 852 853
f 419 853 854
f 419 854 810
f 756 430 754
f 754 430 755
f 430 796 755
f 430 421 796
f 752 432 753
f 759 753 432
f 753 759 750
f 753 750 751
f 423 758 427
f 758 423 757
f 756 757 423
f 423 430 756
f 427 758 746
f 427 746 745
f 432 744 759
f 432 745 744
f 432 427 745
f 860 861 458
f 458 460 860
f 461 861 862
f 461 458 861
f 461 862 873
f 860 460 859
f 467 858 857
f 460 467 863
f 467 857 863
f 859 460 863
f 858 467 835
f 858 835 834
f 858 834 856
f 874 461 873
f 415 827 826
f 415 414 827
f 415 768 771
f 415 826 768
f 414 838 828
f 414 469 838
f 414 828 827
f 867 866 1178
f 1178 470 867
f 472 867 470
f 867 472 868
f 1178 865 419
f 865 1178 866
f 472 871 864
f 472 864 868
f 470 831 833
f 470 840 842
f 470 842 848
f 470 848 831
f 470 833 832
f 470 832 851
f 470 883 471
f 470 851 850
f 470 850 883
f 845 840 470
f 470 1178 845
f 822 748 747
f 839 838 469
f 772 415 771
f 844 847 419
f 419 475 844
f 847 846 1178
f 1178 419 847
f 475 841 844
f 475 890 855
f 475 855 841
f 845 1178 846
f 431 819 818
f 431 818 830
f 431 432 820
f 819 431 820
f 820 432 821
f 432 823 824
f 432 824 825
f 432 825 821
f 823 432 752
f 823 752 749
f 748 823 749
f 823 748 822
f 431 877 482
f 431 830 829
f 431 829 875
f 431 875 877
f 489 874 872
f 489 461 874
f 489 872 946
f 945 489 946
f 919 940 471
f 940 919 941
f 472 940 870
f 472 471 940
f 472 870 871
f 921 941 919
f 939 921 928
f 941 921 939
f 471 882 919
f 471 883 880
f 471 880 882
f 887 888 494
f 494 839 469
f 494 837 839
f 494 888 886
f 494 886 837
f 482 892 495
f 892 482 894
f 482 877 876
f 482 876 878
f 482 878 894
f 489 936 510
f 489 945 935
f 489 935 936
f 510 937 538
f 937 510 936
f 538 937 914
f 538 914 912
f 912 911 541
f 541 538 912
f 911 916 560
f 560 541 911
f 558 915 913
f 558 913 938
f 558 938 950
f 560 915 558
f 915 560 916
f 897 896 493
f 493 906 898
f 493 559 906
f 493 895 897
f 493 898 895
f 494 896 885
f 494 493 896
f 494 885 887
f 580 906 559
f 580 909 905
f 580 905 906
f 908 909 580
f 562 942 934
f 562 934 932
f 931 562 932
f 910 918 882
f 881 910 882
f 918 919 882
f 884 910 881
f 904 900 901
f 924 926 475
f 475 925 924
f 475 933 925
f 475 562 933
f 933 562 931
f 944 942 562
f 562 564 944
f 475 926 889
f 475 889 890
f 1179 584 900
f 900 584 572
f 1179 904 903
f 1179 900 904
f 1179 903 902
f 1179 902 1177
f 572 899 900
f 572 893 891
f 572 891 899
f 572 892 893
f 572 495 892
f 564 991 990
f 564 581 991
f 564 990 1015
f 564 1015 943
f 564 943 944
f 953 1007 587
f 587 575 953
f 952 953 575
f 575 586 952
f 971 970 576
f 576 590 971
f 970 974 586
f 586 576 970
f 586 974 947
f 586 947 952
f 587 1007 1006
f 587 1006 1017
f 595 971 590
f 971 595 973
f 578 951 949
f 578 949 948
f 578 948 972
f 972 973 595
f 595 578 972
f 579 1021 975
f 579 594 1021
f 579 954 907
f 579 975 954
f 907 908 580
f 580 579 907
f 1180 982 978
f 1180 1010 982
f 1010 1180 1012
f 991 581 989
f 989 581 992
f 1180 1014 1011
f 1180 1011 1012
f 978 1027 1181
f 1027 978 1025
f 978 1181 1180
f 1025 977 966
f 966 968 969
f 966 969 985
f 966 985 1025
f 1025 978 977
f 957 956 960
f 1021 594 1022
f 1005 993 581
f 581 598 1005
f 1005 996 993
f 1005 1004 996
f 993 992 581
f 598 1038 1000
f 598 1000 1001
f 598 1001 1005
f 956 584 1179
f 584 956 955
f 584 955 961
f 584 961 963
f 956 1177 958
f 956 1179 1177
f 956 958 959
f 956 959 960
f 600 965 964
f 600 585 965
f 600 964 1174
f 1175 1176 600
f 1175 600 1174
f 600 1048 601
f 600 1047 1048
f 600 1176 1062
f 600 1062 1047
f 965 585 962
f 584 963 962
f 584 962 585
f 623 1017 1016
f 623 587 1017
f 623 1016 1112
f 1093 641 1094
f 1094 641 1096
f 1180 1173 1013
f 1180 1181 1173
f 1180 1013 1014
f 1182 1173 1181
f 1182 1109 1108
f 1182 1108 1173
f 1182 1106 1107
f 1182 1107 1109
f 1083 1027 1026
f 1083 1181 1027
f 1083 1026 1028
f 1181 1083 1182
f 1031 1064 1029
f 1064 1083 1028
f 1064 1028 1029
f 1063 1064 1031
f 1126 1127 1125
f 1138 1126 1141
f 1126 1137 1127
f 1126 1138 1137
f 706 1141 1140
f 706 1138 1141
f 706 1140 1171
f 699 1172 1170
f 699 1170 1166
f 706 1172 699
f 1172 706 1171
f 1066 624 1068
f 1068 624 1097
f 624 641 1097
f 1066 1070 643
f 643 624 1066
f 1093 1097 641
f 641 1112 1095
f 641 623 1112
f 641 1095 1096
f 647 1154 1152
f 647 1155 1154
f 647 1156 1155
f 647 1157 1156
f 647 1158 1157
f 647 1159 1158
f 647 1161 1159
f 647 650 1161
f 647 1152 649
f 1069 1065 651
f 651 644 1069
f 643 1069 644
f 1069 643 1070
f 651 1065 1067
f 651 1067 1099
f 594 1023 1019
f 594 644 1023
f 594 1019 1020
f 644 1114 1071
f 644 653 1114
f 644 1024 1023
f 644 1071 1024
f 1103 1106 1182
f 1182 1080 1079
f 1182 1079 1103
f 1182 1083 1080
f 662 1111 1090
f 662 1090 1088
f 1086 662 1088
f 1057 1059 1056
f 594 1020 1018
f 594 1018 1022
f 1115 1114 653
f 1035 1037 598
f 598 1076 1035
f 598 1087 1076
f 598 662 1087
f 1087 662 1086
f 1111 662 1110
f 662 664 1145
f 662 1145 1110
f 598 1037 1036
f 598 1036 1038
f 672 1045 1059
f 672 1046 1045
f 672 601 1046
f 1046 601 1048
f 672 1061 1060
f 672 1059 1061
f 672 1060 1119
f 1059 1057 1058
f 1059 1058 1061
f 681 685 1101
f 1100 681 1101
f 1149 681 1100
f 1160 650 1150
f 1150 650 1149
f 650 681 1149
f 1160 1161 650
f 687 1101 685
f 1101 687 1098
f 1099 1098 687
f 687 651 1099
f 652 1052 1050
f 652 657 1052
f 652 1050 1049
f 653 1049 1113
f 653 652 1049
f 653 1113 1115
f 649 1139 1138
f 649 1152 1139
f 1145 664 1146
f 1138 706 649
f 657 1054 1051
f 657 1051 1052
f 1143 664 1142
f 664 689 1142
f 1143 1146 664
f 1122 1121 690
f 690 1142 689
f 1142 690 1040
f 690 1121 1040
f 1119 1117 1124
f 1124 672 1119
f 1119 1118 1117
f 1120 1123 671
f 671 673 1120
f 1123 1122 690
f 690 671 1123
f 1120 673 1092
f 1092 673 1091
f 672 1091 673
f 672 1116 1091
f 672 1124 1116
f 1055 657 1053
f 657 660 1167
f 657 1167 1053
f 1055 1054 657
f 1167 660 1169
f 660 700 1169
f 700 1168 1169
f 1168 700 1166
f 700 699 1166
f 558 951 578
f 951 558 950
