v -14.25 -15.75 0.75
v -14.25 -14.25 0.75
v -12.75 -15.75 0.75
v -14.25 -15.75 2.25
v -12.9407833455892 -15.75 2.4148120145407801
v -12.75 -14.25 3.75
v -14.25 -14.25 3.75
v -14.25 -15.75 3.75
v -12.75 -15.75 3.75
v -14.25 -12.75 0.75
v -12.75 -12.75 0.75
v -14.25 -12.75 2.25
v -11.25 -14.25 0.75
v -12.75 -12.75 3.75
v -14.25 -12.75 3.75
v -12.75 -12.75 1.92481651645128
v -14.25 -3.75 0.75
v -14.25 -3.75 2.25
v -14.25 -2.25 2.25
v -12.75 -3.75 2.25
v -14.25 -2.25 0.75
v -12.75 -3.75 0.75
v -14.25 -3.75 3.75
v -14.25 -2.25 3.75
v -12.75 -2.25 3.75
v -12.75 -3.75 3.75
v -14.25 -0.75 0.75
v -12.75 -2.25 0.75
v -14.25 -0.75 3.75
v -14.25 -0.75 2.2580811050417191
v -12.75 -0.75 3.75
v -12.75 -0.75 0.75
v -12.75 -0.75 2.25
v -11.25 -15.75 2.25
v -11.25 -15.75 0.75
v -11.25 -15.75 3.75
v -11.25 -12.75 3.75
v -11.25 -14.25 3.75
v -12.75 -11.25 2.25
v -12.75 -11.26979974927956 0.75
v -11.25 -12.75 0.75
v -12.75 -11.25 3.75
v -11.25 -11.25 3.75
v -12.75 -9.75 2.25
v -12.75 -9.75 0.75
v -11.34163928888276 -11.223498173273979 0.75
v -12.75 -9.75 3.75
v -11.25 -9.75 0.75
v -11.25 -9.75 2.2206686196320859
v -11.25 -9.75 3.75
v -12.75 -5.25 0.75
v -11.25 -3.75 3.75
v -11.25 -2.25 0.75
v -11.25 -0.75 3.75
v -11.25 -2.25 3.75
v -11.25 -0.75 0.75
v -11.25 -0.75 2.272194484878749
v -11.25 -14.25 2.25
v -11.25 -12.75 2.6303620429503778
v -9.75 -12.75 2.25
v -9.75 -12.75 0.75
v -9.75 -12.75 3.75
v -9.75 -11.25 0.75
v -9.75 -11.25 3.75
v -11.25 -8.25 2.25
v -11.25 -8.25 0.75
v -9.75 -9.75 0.75
v -9.75 -9.75 3.75
v -9.140625 -7.96875 0.75
v -11.25 -2.25 2.25
v -11.25 -3.75 2.25
v -9.9576832467153586 -3.75 2.2672935648241981
v -9.6511378697763739 -3.75 3.75
v -9.75 -11.25 2.25
v -9.75 -9.75 2.25
v -8.25 -9.75 2.25
v -8.25 -9.75 0.75
v -8.381182370201044 -9.75 3.75
v -9.4938346494649064 -8.5755149894175879 3.75
v -8.25 -3.75 2.25
v -8.25 -3.75 3.75
v -6.75 -9.75 2.25
v -7.7755298371058421 -8.0340519575329008 0.75
v -6.75 -9.75 0.75
v -6.75 -9.75 3.75
v -8.25 -2.25 3.75
v -8.25 -2.466144048796826 2.0758540011583171
v -6.75 -3.75 3.75
v -8.25 -2.25 0.75
v -8.25 -0.75 2.25
v -8.25 -0.75 0.75
v -6.75 -0.75 0.75
v -6.9375 -2.25 0.75
v -8.25 -0.75 3.75
v -6.63989208795868 -0.75109300973721549 3.75
v -5.8642068989920304 -2.331121136245959 3.75
v -6.6588437826359117 -0.75 2.3183627581372401
v -6.75 -12.75 0.75
v -6.75 -12.75 2.25
v -6.75 -11.25 2.25
v -5.25 -12.75 2.25
v -6.75 -11.25 0.75
v -5.25 -12.75 0.75
v -6.75 -12.75 3.75
v -6.75 -11.25 3.75
v -5.25 -12.75 3.75
v -5.2188469600398539 -10.8521155877221 0.75
v -5.25 -10.5 3.75
v -5.3082898042125413 -8.4001077887183051 0.75
v -5.3771578482170508 -9.7956651604465144 0.75
v -6.5482592206486014 -8.2988835699805605 0.75
v -5.625 -8.25 3.75
v -4.5 -3.75 3.75
v -6.75 -3.75 2.25
v -4.5 -3.75 2.25
v -5.625 -3.75 1.5
v -5.7253510470307543 -2.3386298026697601 0.75
v -5.25 -0.75 0.75
v -3.9375 -2.25 0.75
v -5.25 -0.75 3.75
v -3.7889705463333478 -2.3911698389206708 3.75
v -5.25 -0.75 2.25
v -6.75 2.25 0.75
v -6.75 2.25 2.25
v -6.75 3.573676412975014 2.0724198409424242
v -5.25 2.25 2.25
v -6.75 3.75 0.75
v -5.25 2.25 0.75
v -6.75 2.25 3.75
v -6.75 3.75 3.75
v -5.25 3.75 3.75
v -5.25 2.25 3.75
v -6.75 5.25 2.25
v -6.75 5.25 0.75
v -5.25 3.75 0.75
v -6.75 5.25 3.75
v -5.25 5.25 0.75
v -5.287080146632654 5.25 2.3087264373340162
v -5.1679468253975864 5.25 3.75
v -5.25 -15.75 0.75
v -5.25 -15.75 2.25
v -5.25 -14.25 2.25
v -3.8364586132261511 -15.75 1.92765359811555
v -5.25 -14.39578201364141 0.75
v -3.5676982538041848 -14.52572579259404 0.75
v -3.7371412764059948 -15.75 0.75
v -5.25 -15.75 3.75
v -5.25 -14.25 3.75
v -3.75 -15.75 3.75
v -3.6569814581792439 -14.39921625080801 3.75
v -3.75 -12.75 3.75
v -3.75 -11.25 0.75
v -3.75 -12.75 0.75
v -3.75 -11.25 3.75
v -4.399151425107199 -6.7609685433579756 3.75
v -3.375 -6.75 2.25
v -5.6153420585492952 -6.75 2.248837936630701
v -4.4263508443808322 -8.6264527019475175 3.75
v -3 -8.25 3.75
v -2.25 -3.75 3.75
v -2.25 -3.75 2.25
v -5.25 0.75 2.25
v -5.25 0.69238587135846852 0.75
v -3.5121961511024828 -0.88314641474542133 0.75
v -5.25 0.75 3.75
v -3.75 -0.75 3.75
v -3.75 2.25 0.75
v -2.625 0.375 0.75
v -3.75 2.25 3.75
v -2.625 0.375 3.75
v -3.75 3.75 0.75
v -3.75 3.75 3.75
v -3.75 5.25 0.75
v -3.75 5.25 2.25
v -3.75 5.25 3.75
v -2.25 -15.75 3.75
v -2.25 -15.75 2.25
v -2.25 -14.46086690588179 3.75
v -3.75 -12.75 2.25
v -2.25 -12.75 0.75
v -2.25 -12.75 3.75
v -3.75 -11.25 2.25
v -2.25 -12.75 2.25
v -3.75 -9.75 0.75
v -3.75 -9.75 2.25
v -3.75 -9.75 3.75
v -1.897807641491057 -9.75 1.7076691706557909
v -3.098092783042468 -8.1914394207696866 0.75
v -1.875 -9.75 0.75
v -1.6085298085066231 -9.75 2.7730892331804839
v -1.875 -9.75 3.75
v -1.875 2.25 0.75
v -2.25 -0.75 0.75
v -1.317276742635475 -0.033477635498319253 0.75
v -1.163330478244331 1.0541265227979439 0.75
v -1.875 2.25 3.75
v -2.25 -0.75 3.75
v -1.0652944052914879 1.1794336923684119 3.75
v -3.75 2.25 2.25
v -3.75 3.75 2.25
v -1.6423375814069829 2.25 2.5167843789113662
v -2.25 -14.25 2.25
v -2.25 -15.75 0.75
v -2.25 -14.23300589326486 0.75
v 0 -9.75 0.75
v 0.33621387431682481 -9.75 2.025887053521398
v -1.125 -8.25 0.75
v 0.088252272701106027 -7.5708930649259223 0.75
v 1.125 -8.25 0.75
v 1.875 -9.75 0.75
v 0.031889626812924947 -9.75 3.75
v 2.0531539555966751 -9.75 2.7135274705804528
v 1.875 -9.75 3.75
v -2.25 -2.25 3.75
v -0.99553978984979785 -3.1650306277235001 3.75
v 0 -4.125 3.75
v -2.25 -2.25 2.25
v -2.25 -2.25 0.75
v 0 -2.25 2.25
v 0 -2.25 0.75
v -2.25 -0.75 2.25
v -1.125 -2.25 3
v 0 -2.25 3.75
v -1.125 -0.75 1.5
v 0 -0.75 0.75
v -0.04226027111041239 -0.75 2.2825056240773098
v -0.041094349064689562 -0.75 3.75
v 0 0.75 3.75
v 0 2.25 0.75
v 1.772617947500595 2.25 2.1766222471399082
v 1.875 2.25 0.75
v -0.23295297518879779 2.25 2.186470241509074
v 0.039987011746585588 0.72221204834300179 0.75
v 0 2.25 3.75
v 1.875 0.75 3.75
v 1.875 2.25 3.75
v 0.91428171991021689 2.25 3.0133066613272779
v 2.25 -2.25 0.75
v 1.125 -2.25 3
v 2.25 -2.25 2.25
v 2.25 -2.25 3.75
v 0.82482698767128215 -3.0599524227530712 3.75
v 2.25 -0.75 2.25
v 2.25 -0.75 0.75
v 1.43584602401831 0.15361761150067549 0.75
v 2.25 -0.75 3.75
v 3.7262290715749362 -0.95205865533052503 0.75
v 2.8918840644759238 0.57036596956111485 0.75
v 3.75 2.25 0.75
v 5.25 0.75 0.75
v 2.25 -15.75 0.75
v 2.25 -14.226063182738139 2.3042237535708439
v 2.25 -14.25 0.75
v 2.25 -15.75 2.25
v 3.75 -14.25 0.75
v 3.75 -15.75 0.75
v 3 0.75 3.75
v 2.25 -14.17143189850291 3.75
v 2.25 -15.75 3.75
v 3.75 -15.75 3.75
v 3.75 -14.25 3.75
v 2.25 -12.75 3.75
v 2.25 -12.75 2.25
v 3.75 2.25 2.25
v 3.75 2.25 3.75
v 2.25 -12.75 0.75
v 3.75 -12.75 0.75
v 3.75 -12.75 2.25
v 3.75 -12.75 3.75
v 5.1278979202461699 -10.249252552791241 0.75
v 3.75 -9.75 0.75
v 4.6447786116694729 -8.5971535041279843 0.75
v 2.9422432566879828 -8.2357169932587286 0.75
v 6.75 -9.75 0.75
v 6.6129703882676747 -8.4908500632675992 0.75
v 5.9661948848734383 -7.66528646581859 0.75
v 8.25 -9.75 0.75
v 9 -7.5 0.75
v 11.25 -8.3126802898518619 0.75
v 9.75 -9.75 0.75
v 3.375 -3.75 3
v 2.25 -3.75 3.75
v 2.25 -3.75 2.25
v 4.6114935819699303 -3.75 2.2054433483451579
v 3.375 -3 3.75
v 4.4893253605565864 -3.75 3.75
v 0.89618114372836477 -5.0401184810985029 3.75
v 4.6712908425644866 -2.3782185669091591 0.75
v 3.5625 -1.5 3.75
v 4.875 -2.25 3.75
v 3.8965671809321409 -0.38102697277049452 3.75
v 5.25 -15.75 0.75
v 5.25 -15.75 2.25
v 3.707196842847162 -15.75 2.33767045424417
v 5.25 -14.25 3.75
v 5.25 -15.75 3.75
v 5.25 -14.25 0.75
v 5.25 -12.75 3.75
v 3.75 -11.4551961533364 2.119074213625364
v 3.75 -11.25 0.75
v 5.25 -12.75 0.75
v 3.75 -11.45208223271522 3.748963198441098
v 3.75 -9.75 2.25
v 3.75 -9.75 3.75
v 5.281842994979959 -10.494605359831329 3.75
v 5.25 -8.25 3.75
v 3.2368441241707222 -8.0485635892147371 3.75
v 5.2650760768754212 -9.4409368193061738 3.75
v 4.5 -6.75 2.25
v 4.5 -6.75 3.75
v 5.6946335748325376 -6.75 3.0316756075061768
v 5.625 -3.75 3
v 6.75 -3.75 2.25
v 6.75 -3.75 3.75
v 5.25 -0.75 0.75
v 6.75 -2.25 0.75
v 5.25 -0.75 3.75
v 6.4742204805738712 -2.1921719169938449 3.75
v 3.75 3.6891501426744768 2.536428544729008
v 3.75 3.75 0.75
v 5.25 2.25 0.75
v 3.75 3.75 3.75
v 5.25 0.83848175683291071 3.75
v 5.25 2.25 3.75
v 5.2492597640945116 3.8410881114754698 3.75
v 3.75 5.25 2.25
v 3.75 5.25 0.75
v 5.25 3.75 0.75
v 3.75 5.25 3.75
v 5.25 5.25 0.75
v 5.3614508226813236 5.25 2.250785512993748
v 5.25 5.25 3.75
v 5.25 -14.157767910779461 2.1287562518553469
v 5.25 -12.75 2.25
v 6.75 -12.75 0.75
v 6.75 -12.75 2.25
v 6.75 -11.25 0.75
v 6.75 -12.75 3.75
v 6.75 -11.25 3.75
v 5.25 -0.75 2.25
v 6.7054456294234663 -0.75 0.75
v 5.25 0.75 2.25
v 6.75 -0.75 2.25
v 6.7474907882167372 -0.75 3.75
v 5.25 2.25 2.4325378958303059
v 6.75 2.25 2.25
v 6.75 2.25 0.75
v 6.75 2.25 3.75
v 6.75 3.75 0.75
v 6.75 3.75 3.75
v 6.75 5.25 0.75
v 6.75 5.25 2.25
v 6.75 5.25 3.75
v 6.75 -9.75 2.25
v 6.75 -9.75 3.75
v 8.25 -9.75 2.25
v 8.1405333592803064 -9.75 3.75
v 8.25 -3.75 3.75
v 8.25 -2.25 3.75
v 8.25 -0.75 0.75
v 8.25 -2.25 0.75
v 8.25 -0.75 3.75
v 8.25 -0.75 2.25
v 6.75 3.75 2.25
v 9.75 -9.75 3.75
v 9.75 -9.75 2.25
v 8.25 -2.25 2.25
v 8.25 -3.75 2.25
v 9.7616558677190834 -3.75 2.282753902767924
v 9.75 -3.75 3.75
v 9 -4.875 3.75
v 9.75 -12.75 0.75
v 9.75 -12.75 2.2936432794907819
v 9.75 -11.25 2.25
v 11.25 -12.75 2.25
v 9.75 -11.25 0.75
v 11.25 -12.75 0.75
v 9.75 -12.75 3.75
v 9.75 -11.25 3.75
v 11.25 -11.25 3.75
v 11.25 -12.75 3.75
v 11.25 -11.25 0.75
v 11.25 -9.75 0.75
v 11.25 -9.75 3.75
v 11.25 -3.75 2.25
v 11.25 -3.75 3.75
v 11.065510869223379 -5.1898148278867824 3.75
v 11.254298547605011 -15.75 2.1825007706550972
v 11.25 -14.25 0.75
v 11.25 -15.75 0.75
v 12.75 -15.75 0.75
v 12.75 -15.75 2.25
v 11.25 -15.75 3.75
v 12.75 -15.75 3.75
v 12.75 -14.25 3.75
v 11.25 -14.25 3.75
v 11.25 -14.2829256226903 2.588725926017899
v 12.78554398455697 -14.25070811099882 0.75
v 12.75 -12.75 0.75
v 12.75 -12.75 3.75
v 12.75 -11.25 0.75
v 12.75 -11.25 3.75
v 11.25 -9.75 2.25
v 12.75 -9.75 0.75
v 11.25 -8.25 2.25
v 12.75 -9.75 2.25
v 12.75 -9.75 3.75
v 11.25 -2.25 3.75
v 11.25 -2.2832551469387949 2.1382330549742812
v 12.881828681200041 -2.3191803249496359 3.75
v 12.75 -3.75 3.75
v 11.25 -2.25 0.75
v 11.25 -0.75 0.75
v 12.75 -0.75 0.75
v 14.25 -2.25 0.75
v 12.75 -3.75 0.75
v 11.25 -0.75 3.75
v 11.25 -0.75 2.25
v 12.57885059211702 -0.75 2.3095040176593069
v 12.75 -0.75 3.75
v 12.75 -12.75 2.25
v 14.25 -12.75 0.75
v 14.25 -14.25 0.75
v 12.75 -11.36220819447972 2.344730781737149
v 14.25 -12.75 3.75
v 14.25 -12.75 2.25
v 14.25 -3.75 2.25
v 12.75 -3.75 2.25
v 14.25 -3.75 0.75
v 14.25 -3.75 3.75
v 14.25 -2.25 3.75
v 14.25 -0.75 3.75
v 14.25 -15.75 0.75
v 14.25 -14.456787687280819 2.4177484355351511
v 14.25 -15.75 2.3126930329669881
v 14.25 -15.75 3.75
v 14.25 -14.25 3.75
v 14.25 -2.3879989136308271 1.6507196195593039
v 14.25 -2.25 3
v 14.25 -0.75 2.25
v 14.25 -0.75 0.75
v -14.25 -0.50583932077711502 -5.6136404814923102
v -14.25 -1.1779497449708698 -4.2726454860914744
v -12.75 -0.50583932077711502 -5.6136404814923102
v -14.25 -1.8468343161779517 -6.285750905686065
v -12.9407833455892 -1.9941757072986954 -6.3595988210228871
v -12.75 -3.8599397357725431 -5.6168663344789849
v -14.25 -3.8599397357725431 -5.6168663344789849
v -14.25 -3.1878293115787883 -6.9578613298798206
v -12.75 -3.1878293115787883 -6.9578613298798206
v -14.25 -1.8500601691646255 -2.9316504906906369
v -12.75 -1.8500601691646255 -2.9316504906906369
v -14.25 -3.1910551645654626 -3.6037609148843925
v -11.25 -1.1779497449708698 -4.2726454860914744
v -12.75 -4.5320501599662997 -4.2758713390781473
v -14.25 -4.5320501599662997 -4.2758713390781473
v -12.75 -2.9003422152148999 -3.4580547755052367
v -14.25 -5.8827227143271577 5.114319481714384
v -14.25 -7.2237177097279943 4.4422090575206283
v -14.25 -7.8958281339217491 5.7832040529214659
v -12.75 -7.2237177097279943 4.4422090575206283
v -14.25 -6.5548331385209124 6.4553144771152207
v -12.75 -5.8827227143271577 5.114319481714384
v -14.25 -8.5647127051288301 3.7700986333268736
v -14.25 -9.2368231293225858 5.1110936287277102
v -12.75 -9.2368231293225858 5.1110936287277102
v -12.75 -8.5647127051288301 3.7700986333268736
v -14.25 -7.2269435627146681 7.7963094725160573
v -12.75 -6.5548331385209124 6.4553144771152207
v -14.25 -9.9089335535163414 6.4520886241285469
v -14.25 -8.5751630390610067 7.1205781183639392
v -12.75 -9.9089335535163414 6.4520886241285469
v -12.75 -7.2269435627146681 7.7963094725160573
v -12.75 -8.5679385581155039 7.1241990483223017
v -11.25 -1.8468343161779517 -6.285750905686065
v -11.25 -0.50583932077711502 -5.6136404814923102
v -11.25 -3.1878293115787883 -6.9578613298798206
v -11.25 -4.5320501599662997 -4.2758713390781473
v -11.25 -3.8599397357725431 -5.6168663344789849
v -12.75 -3.8631655887592178 -2.262765919483555
v -12.75 -2.5132988481002374 -1.6083564050858543
v -11.25 -1.8500601691646255 -2.9316504906906369
v -12.75 -5.2041605841600544 -2.9348763436773098
v -11.25 -5.2041605841600544 -2.9348763436773098
v -12.75 -4.5352760129529734 -0.92177092408271832
v -12.75 -3.1942810175521363 -0.24966049988896311
v -11.34163928888276 -2.5340453626935378 -1.566962950617417
v -12.75 -5.8762710083538101 -1.5938813482764735
v -11.25 -3.1942810175521363 -0.24966049988896311
v -11.25 -4.5090538567652594 -0.9086283064152072
v -11.25 -5.8762710083538101 -1.5938813482764735
v -11.260038447323851 -7.8880110970627477 2.4199433059714437
v -12.75 -7.8926022809350753 2.4291036379260369
v -12.75 -7.2204918567413205 1.0881086425252
v -12.75 -5.210612290133402 3.7733244863135473
v -11.25 -5.8827227143271577 5.114319481714384
v -11.01288822523324 -5.2130305520967077 3.7781494035795631
v -11.25 -8.5647127051288301 3.7700986333268736
v -11.25 -6.5548331385209124 6.4553144771152207
v -11.25 -9.9089335535163414 6.4520886241285469
v -11.25 -9.2368231293225858 5.1110936287277102
v -11.25 -7.2269435627146681 7.7963094725160573
v -11.25 -8.5877803535474388 7.1142542852245567
v -11.25 -2.5189447403717065 -4.9447559102852301
v -11.25 -3.5310975619233922 -3.7741911109074469
v -9.75 -3.1910551645654626 -3.6037609148843925
v -9.75 -1.8500601691646255 -2.9316504906906369
v -9.75 -4.5320501599662997 -4.2758713390781473
v -9.75 -2.5221705933583811 -1.5906554952897993
v -9.75 -5.2041605841600544 -2.9348763436773098
v -11.25 -5.2073864371467282 0.41922407131811856
v -9.75 -3.1942810175521363 -0.24966049988896311
v -11.25 -6.5483814325475649 -0.25288635287563688
v -9.75 -5.8762710083538101 -1.5938813482764735
v -9.4938346494649064 -6.4025267541349775 -0.54389566736693107
v -11.25 -7.2237177097279943 4.4422090575206283
v -9.75 -5.8827227143271577 5.114319481714384
v -11.25 -7.8958281339217491 5.7832040529214659
v -9.9576832467153586 -7.2391780989825874 4.4344602673940861
v -9.6511378697763739 -8.5647127051288301 3.7700986333268736
v -9.75 -3.8631655887592178 -2.262765919483555
v -9.75 -4.5352760129529734 -0.92177092408271832
v -8.25 -4.5352760129529734 -0.92177092408271832
v -8.25 -3.1942810175521363 -0.24966049988896311
v -8.381182370201044 -5.8762710083538101 -1.5938813482764735
v -8.25 -5.8827227143271577 5.114319481714384
v -8.25 -7.2237177097279943 4.4422090575206283
v -8.25 -8.5647127051288301 3.7700986333268736
v -6.75 -4.5352760129529734 -0.92177092408271832
v -6.75 -3.1942810175521363 -0.24966049988896311
v -6.75 -5.8762710083538101 -1.5938813482764735
v -7.657106408157671 -6.5936933955758255 -0.16247990556368741
v -8.5426343655604242 -6.4592448764485555 -0.43073164634720351
v -8.25 -7.6432937464287045 5.6680022218754065
v -8.25 -6.5548331385209124 6.4553144771152207
v -6.75 -5.8827227143271577 5.114319481714384
v -6.75 -5.210612290133402 3.7733244863135473
v -8.25 -9.2368231293225858 5.1110936287277102
v -6.75 -8.5647127051288301 3.7700986333268736
v -8.25 -8.5679385581155039 7.1241990483223017
v -8.25 -7.2269435627146681 7.7963094725160573
v -6.75 -7.2269435627146681 7.7963094725160573
v -6.9375 -6.5548331385209124 6.4553144771152207
v -8.25 -9.9089335535163414 6.4520886241285469
v -6.63989208795868 -9.908443804690922 6.4511114770701941
v -5.8642068989920304 -9.2004748884603522 5.0385716035763366
v -6.6588437826359117 -8.6290546358047298 7.093567500075185
v -6.75 -1.8500601691646255 -2.9316504906906369
v -6.75 -3.1910551645654626 -3.6037609148843925
v -6.75 -3.8631655887592178 -2.262765919483555
v -5.25 -3.1910551645654626 -3.6037609148843925
v -6.75 -2.5221705933583811 -1.5906554952897993
v -5.25 -1.8500601691646255 -2.9316504906906369
v -6.75 -4.5320501599662997 -4.2758713390781473
v -6.75 -5.2041605841600544 -2.9348763436773098
v -5.25 -4.5320501599662997 -4.2758713390781473
v -5.2188469600398539 -2.7004521007691693 -1.2349481582146877
v -5.25 -5.5402157962569323 -2.2643788459768919
v -5.3771578482170508 -3.1738196639797476 -0.29048500097093077
v -5.625 -6.5483814325475649 -0.25288635287563688
v -6.75 -6.5483814325475649 -0.25288635287563688
v -5.625 -6.5532202120275755 4.7782642696175062
v -6.75 -7.2237177097279943 4.4422090575206283
v -5.7253510470307543 -6.5151204623418586 6.3760797292328792
v -4.5 -5.8827227143271577 5.114319481714384
v -4.5 -8.5647127051288301 3.7700986333268736
v -4.5 -7.2237177097279943 4.4422090575206283
v -5.25 -7.2269435627146681 7.7963094725160573
v -3.9375 -6.5548331385209124 6.4553144771152207
v -5.25 -9.9089335535163414 6.4520886241285469
v -3.7889705463333478 -9.1735686491090291 4.9848882637316025
v -5.25 -8.5679385581155039 7.1241990483223017
v -6.75 -8.5711644111021776 10.478299463317731
v -6.75 -9.9121594065030152 9.806189039123975
v -6.75 -10.34650781373049 11.069120320032114
v -5.25 -9.9121594065030152 9.806189039123975
v -6.75 -9.2432748352959333 11.819294458718566
v -5.25 -8.5711644111021776 10.478299463317731
v -6.75 -11.253154401903853 9.1340786149302211
v -6.75 -11.925264826097607 10.475073610331057
v -5.25 -11.925264826097607 10.475073610331057
v -5.25 -11.253154401903853 9.1340786149302211
v -6.75 -11.256380254890527 12.488179029925648
v -6.75 -9.915385259489689 13.160289454119402
v -5.25 -9.2432748352959333 11.819294458718566
v -6.75 -12.597375250291362 11.816068605731893
v -5.25 -9.915385259489689 13.160289454119402
v -5.287080146632654 -11.308881493932283 12.461865262787011
v -5.1679468253975864 -12.597375250291362 11.816068605731893
v -5.25 -0.50583932077711502 -5.6136404814923102
v -5.25 -1.8468343161779517 -6.285750905686065
v -5.25 -2.5189447403717065 -4.9447559102852301
v -3.8364586132261511 -1.5586577083696085 -6.1413159877474737
v -5.25 -1.1126286709519722 -4.4029741198998646
v -3.5676982538041848 -1.054404292023178 -4.5191434247391635
v -3.7371412764059948 -0.50583932077711502 -5.6136404814923102
v -5.25 -3.1878293115787883 -6.9578613298798206
v -5.25 -3.8599397357725431 -5.6168663344789849
v -3.75 -3.1878293115787883 -6.9578613298798206
v -3.6569814581792439 -3.7930798706877611 -5.7502651648563301
v -3.75 -4.5320501599662997 -4.2758713390781473
v -3.75 -2.5221705933583811 -1.5906554952897993
v -3.75 -1.8500601691646255 -2.9316504906906369
v -3.75 -5.2041605841600544 -2.9348763436773098
v -2.25 -5.8827227143271577 5.114319481714384
v -2.25 -8.5647127051288301 3.7700986333268736
v -2.25 -7.2237177097279943 4.4422090575206283
v -5.25 -9.2400489823092595 8.4651940437231392
v -5.25 -7.8732386159478809 9.0857976291351115
v -3.5121961511024828 -7.1672841671850529 7.6772770219632749
v -5.25 -10.581043977710097 7.7930836195293844
v -3.75 -9.9089335535163414 6.4520886241285469
v -3.75 -8.5711644111021776 10.478299463317731
v -2.625 -7.7310263808599844 8.8020557190666864
v -3.75 -11.253154401903853 9.1340786149302211
v -2.625 -10.413016371661659 7.4578348706791751
v -3.75 -9.2432748352959333 11.819294458718566
v -3.75 -11.925264826097607 10.475073610331057
v -3.75 -9.915385259489689 13.160289454119402
v -3.75 -11.256380254890527 12.488179029925648
v -3.75 -12.597375250291362 11.816068605731893
v -2.25 -3.1878293115787883 -6.9578613298798206
v -2.25 -1.8468343161779517 -6.285750905686065
v -2.25 -3.7654558387321204 -5.8053806448010778
v -3.75 -3.1910551645654626 -3.6037609148843925
v -2.25 -1.8500601691646255 -2.9316504906906369
v -2.25 -4.5320501599662997 -4.2758713390781473
v -3.75 -3.8631655887592178 -2.262765919483555
v -2.25 -3.1910551645654626 -3.6037609148843925
v -3.75 -3.1942810175521363 -0.24966049988896311
v -3.75 -4.5352760129529734 -0.92177092408271832
v -3.75 -5.8762710083538101 -1.5938813482764735
v -1.897807641491057 -4.0504340609515266 -0.67876678824012693
v -1.875 -3.1942810175521363 -0.24966049988896311
v -1.6085298085066231 -5.0029160421816998 -1.1561534083521328
v -1.875 -5.8762710083538101 -1.5938813482764735
v -3 -6.5483814325475649 -0.25288635287563688
v -4.4263508443808322 -6.3797029090843438 -0.5894338124201326
v -1.875 -8.5711644111021776 10.478299463317731
v -2.25 -7.2269435627146681 7.7963094725160573
v -1.317276742635475 -7.5479983296143587 8.4368780757757431
v -1.163330478244331 -8.0353250577392874 9.4091925646106951
v -1.875 -11.253154401903853 9.1340786149302211
v -2.25 -9.9089335535163414 6.4520886241285469
v -1.0652944052914879 -10.773461885137312 8.1769959077444128
v -3.75 -9.9121594065030152 9.806189039123975
v -3.75 -10.584269830696769 11.147184034524813
v -1.6423375814069829 -10.150663751150523 9.6866499977383853
v -2.25 -2.5189447403717065 -4.9447559102852301
v -2.25 -0.50583932077711502 -5.6136404814923102
v -2.25 -1.1855643558285696 -4.2574528113693866
v 0 -3.1942810175521363 -0.24966049988896311
v 0.33621387431682481 -4.3349197865314126 -0.82135182573268795
v 1.875 -3.1942810175521363 -0.24966049988896311
v 0.031889626812924947 -5.8762710083538101 -1.5938813482764735
v 1.875 -5.8762710083538101 -1.5938813482764735
v 1.125 -6.5483814325475649 -0.25288635287563688
v 2.0531539555966751 -4.9496680251391041 -1.1294653540009096
v -0.19215048185864469 -6.8153063076473908 0.27968226795216955
v -1.293852355522346 -6.5261608552251955 -0.2972208579087332
v -2.25 -6.5548331385209124 6.4553144771152207
v -0.048679451843939965 -5.8646479963305866 5.0782567969170787
v -1.125 -5.3786398961818405 4.1085732351637567
v -2.25 -5.210612290133402 3.7733244863135473
v -2.25 -9.2368231293225858 5.1110936287277102
v -0.99553978984979785 -8.8268220470895731 4.2930593004505777
v -2.25 -7.8958281339217491 5.7832040529214659
v 0 -7.8958281339217491 5.7832040529214659
v 0 -6.5548331385209124 6.4553144771152207
v -2.25 -8.5679385581155039 7.1241990483223017
v -1.125 -8.566325631622167 5.4471488408245881
v 0 -9.2368231293225858 5.1110936287277102
v -1.125 -7.8974410604150869 7.4602542604191795
v 0 -7.2269435627146681 7.7963094725160573
v -0.042260271110412397 -8.5969984775888744 7.109634135797446
v -0.041094349064689568 -9.9089335535163414 6.4520886241285469
v 0 -10.581043977710097 7.7930836195293844
v 0 -8.5711644111021776 10.478299463317731
v 1.772617947500595 -9.8465599402635853 9.8390676741914298
v 1.875 -8.5711644111021776 10.478299463317731
v -0.23295297518879776 -9.8553640143727783 9.8346550477428174
v 0.039987011746585588 -7.886602938924649 9.112462131847245
v 0 -11.253154401903853 9.1340786149302211
v 1.875 -10.581043977710097 7.7930836195293844
v 1.875 -11.253154401903853 9.1340786149302211
v 0.91428171991021689 -10.594553015033682 9.4641714631675775
v 2.25 -6.5548331385209124 6.4553144771152207
v 1.125 -8.566325631622167 5.4471488408245881
v 2.25 -7.8958281339217491 5.7832040529214659
v 2.25 -9.2368231293225858 5.1110936287277102
v 0.82482698767128215 -8.8739048183670342 4.3869988651112761
v 2.25 -8.5679385581155039 7.1241990483223017
v 2.25 -7.2269435627146681 7.7963094725160573
v 1.43584602401831 -7.6318307734977786 8.6041406023683678
v 2.25 -9.9089335535163414 6.4520886241285469
v 3.7262290715749362 -7.1364064103505216 7.6156697087989533
v 2.8918840644759238 -7.8185647173098145 8.9767122440354097
v 3.75 -8.5711644111021776 10.478299463317731
v 5.25 -7.8990539869084229 9.1373044679168949
v 2.25 -0.50583932077711502 -5.6136404814923102
v 2.25 -2.5781460514210859 -4.9476527088584934
v 2.25 -1.1779497449708698 -4.2726454860914744
v 2.25 -1.8468343161779517 -6.285750905686065
v 3.75 -1.1779497449708698 -4.2726454860914744
v 3.75 -0.50583932077711502 -5.6136404814923102
v 3 -10.581043977710097 7.7930836195293844
v 2.25 -3.8951440291227484 -5.5466267138751553
v 2.25 -3.1878293115787883 -6.9578613298798206
v 3.75 -3.1878293115787883 -6.9578613298798206
v 3.75 -3.8599397357725431 -5.6168663344789849
v 2.25 -4.5320501599662997 -4.2758713390781473
v 2.25 -3.1910551645654626 -3.6037609148843925
v 3.75 -9.9121594065030152 9.806189039123975
v 3.75 -11.253154401903853 9.1340786149302211
v 2.25 -1.8500601691646255 -2.9316504906906369
v 3.75 -1.8500601691646255 -2.9316504906906369
v 3.75 -3.1910551645654626 -3.6037609148843925
v 3.75 -4.5320501599662997 -4.2758713390781473
v 4.5 -5.8827227143271577 5.114319481714384
v 2.25 -7.2237177097279943 4.4422090575206283
v 2.25 -5.8827227143271577 5.114319481714384
v 0.96440730399138952 -5.3119296964678435 3.9754730171958945
v 2.25 -5.210612290133402 3.7733244863135473
v 3.375 -7.8942152074284122 4.1061538454237514
v 2.25 -8.5647127051288301 3.7700986333268736
v 4.6114935819699303 -7.1838842118073529 4.4621737175502219
v 3.375 -8.9007679172257088 4.4405961310272914
v 4.4893253605565864 -8.5647127051288301 3.7700986333268736
v 4.6712908425644866 -6.4973817815910255 6.3406875060867876
v 3.5625 -9.5728783414194645 5.781591126428129
v 4.875 -9.2368231293225858 5.1110936287277102
v 3.8965671809321409 -10.074260632081192 6.7819492794303224
v 5.25 -0.50583932077711502 -5.6136404814923102
v 5.25 -1.8468343161779517 -6.285750905686065
v 3.707196842847162 -1.9252114097685853 -6.3250337231469373
v 9 -6.8844366446444427 0.41761114482478146
v 9.75 -5.8762710083538101 -1.5938813482764735
v 11.25 -6.5483814325475649 -0.25288635287563688
v 7.5 -6.5483814325475649 -0.25288635287563688
v 5.25 -3.8599397357725431 -5.6168663344789849
v 5.25 -3.1878293115787883 -6.9578613298798206
v 5.25 -1.1779497449708698 -4.2726454860914744
v 5.25 -4.5320501599662997 -4.2758713390781473
v 3.75 -3.6541753901197769 -2.3875462054045267
v 3.75 -2.5221705933583811 -1.5906554952897993
v 5.25 -1.8500601691646255 -2.9316504906906369
v 3.75 -5.1126859702574148 -3.1150726220739635
v 3.75 -4.5352760129529734 -0.92177092408271832
v 3.75 -3.1942810175521363 -0.24966049988896311
v 5.1278979202461699 -2.9705791208612453 -0.69599061637839332
v 3.75 -5.8762710083538101 -1.5938813482764735
v 5.281842994979959 -5.5426329921850241 -2.2595560556647749
v 5.25 -6.5483814325475649 -0.25288635287563688
v 3.2368441241707222 -6.6386397735481983 -0.072802873705940296
v 5.2650760768754212 -6.0147540653396758 -1.3175798958944163
v 4.5 -4.5385018659396463 2.4323294909127107
v 4.5 -5.879496861340483 1.7602190667189552
v 5.625 -5.2089993636400651 2.0962742788158328
v 6.75 -7.2237177097279943 4.4422090575206283
v 6.75 -5.8827227143271577 5.114319481714384
v 5.625 -7.8942152074284122 4.1061538454237514
v 6.75 -8.5647127051288301 3.7700986333268736
v 5.25 -7.2269435627146681 7.7963094725160573
v 6.75 -6.5548331385209124 6.4553144771152207
v 5.25 -9.9089335535163414 6.4520886241285469
v 6.4742204805738712 -9.2627343675889726 5.162791741997629
v 3.75 -10.813070778431676 10.964443391295884
v 3.75 -9.2432748352959333 11.819294458718566
v 5.25 -8.5711644111021776 10.478299463317731
v 3.75 -11.925264826097607 10.475073610331057
v 5.25 -10.620690318455681 7.8721860149275225
v 5.25 -11.253154401903853 9.1340786149302211
v 5.2492597640945116 -11.966079005592798 10.556506078083805
v 3.75 -11.256380254890527 12.488179029925648
v 3.75 -9.915385259489689 13.160289454119402
v 5.25 -9.2432748352959333 11.819294458718566
v 3.75 -12.597375250291362 11.816068605731893
v 5.25 -9.915385259489689 13.160289454119402
v 5.3614508226813236 -11.257082500886151 12.487827062278022
v 5.25 -12.597375250291362 11.816068605731893
v 5.25 -2.4518799997881562 -4.8079746055809283
v 5.25 -3.1910551645654626 -3.6037609148843925
v 6.75 -1.8500601691646255 -2.9316504906906369
v 6.75 -3.1910551645654626 -3.6037609148843925
v 6.75 -2.5221705933583811 -1.5906554952897993
v 6.75 -4.5320501599662997 -4.2758713390781473
v 6.75 -5.2041605841600544 -2.9348763436773098
v 5.25 -8.5679385581155039 7.1241990483223017
v 6.7054456294234663 -7.2269435627146681 7.7963094725160573
v 5.25 -9.2400489823092595 8.4651940437231392
v 6.75 -8.5679385581155039 7.1241990483223017
v 6.7474907882167372 -9.9089335535163414 6.4520886241285469
v 5.25 -10.075347676355975 9.7243986240586793
v 6.75 -9.9121594065030152 9.806189039123975
v 6.75 -8.5711644111021776 10.478299463317731
v 6.75 -11.253154401903853 9.1340786149302211
v 6.75 -9.2432748352959333 11.819294458718566
v 6.75 -11.925264826097607 10.475073610331057
v 6.75 -9.915385259489689 13.160289454119402
v 6.75 -11.256380254890527 12.488179029925648
v 6.75 -12.597375250291362 11.816068605731893
v 6.75 -4.5352760129529734 -0.92177092408271832
v 6.75 -3.1942810175521363 -0.24966049988896311
v 6.75 -5.8762710083538101 -1.5938813482764735
v 8.25 -4.5352760129529734 -0.92177092408271832
v 8.25 -3.1942810175521363 -0.24966049988896311
v 8.1405333592803064 -5.8762710083538101 -1.5938813482764735
v 6.75 -5.210612290133402 3.7733244863135473
v 8.25 -5.8827227143271577 5.114319481714384
v 8.25 -6.5548331385209124 6.4553144771152207
v 8.25 -8.5647127051288301 3.7700986333268736
v 8.25 -9.2368231293225858 5.1110936287277102
v 8.25 -7.2269435627146681 7.7963094725160573
v 8.25 -9.9089335535163414 6.4520886241285469
v 8.25 -8.5679385581155039 7.1241990483223017
v 6.75 -10.584269830696769 11.147184034524813
v -3.098092783042468 -3.8926308922442368 1.1436874579622902
v -5.3082898042125413 -3.7991321020457272 0.95713863321725157
v -4.5 -4.5385018659396463 2.4323294909127107
v -5.6153420585492952 -5.8784579805654378 1.7607397566550083
v -3.375 -5.879496861340483 1.7602190667189552
v 9.75 -3.1942810175521363 -0.24966049988896311
v 9.75 -4.5352760129529734 -0.92177092408271832
v 8.25 -7.2237177097279943 4.4422090575206283
v 9.75 -5.8827227143271577 5.114319481714384
v 8.25 -7.8958281339217491 5.7832040529214659
v 9.7616558677190834 -7.2529995895224157 4.4275328978650617
v 9.75 -8.5647127051288301 3.7700986333268736
v 9.75 -1.8500601691646255 -2.9316504906906369
v 9.75 -3.2300721108188082 -3.6233163169455631
v 9.75 -3.8631655887592178 -2.262765919483555
v 11.25 -3.1910551645654626 -3.6037609148843925
v 9.75 -2.5221705933583811 -1.5906554952897993
v 11.25 -1.8500601691646255 -2.9316504906906369
v 9.75 -4.5320501599662997 -4.2758713390781473
v 9.75 -5.2041605841600544 -2.9348763436773098
v 11.25 -5.2041605841600544 -2.9348763436773098
v 11.25 -4.5320501599662997 -4.2758713390781473
v 11.25 -2.5221705933583811 -1.5906554952897993
v 11.25 -3.1942810175521363 -0.24966049988896311
v 11.25 -5.8762710083538101 -1.5938813482764735
v 11.25 -5.8827227143271577 5.114319481714384
v 11.067461607683621 -5.237392875732926 3.8267571217408953
v 11.25 -7.2237177097279943 4.4422090575206283
v 11.25 -8.5647127051288301 3.7700986333268736
v 11.254298547605011 -1.7864902303479999 -6.2555062819075626
v 11.25 -1.1779497449708698 -4.2726454860914744
v 11.25 -0.50583932077711502 -5.6136404814923102
v 12.75 -0.50583932077711502 -5.6136404814923102
v 12.75 -1.8468343161779517 -6.285750905686065
v 11.25 -3.1878293115787883 -6.9578613298798206
v 12.75 -3.1878293115787883 -6.9578613298798206
v 12.75 -3.8599397357725431 -5.6168663344789849
v 11.25 -3.8599397357725431 -5.6168663344789849
v 11.25 -2.8070114852845705 -5.1259654576648694
v 12.78554398455697 -1.1776324591150082 -4.2732785349618769
v 12.75 -1.8500601691646255 -2.9316504906906369
v 12.75 -4.5320501599662997 -4.2758713390781473
v 12.75 -2.5221705933583811 -1.5906554952897993
v 12.75 -5.2041605841600544 -2.9348763436773098
v 11.25 -4.5352760129529734 -0.92177092408271832
v 12.75 -3.1942810175521363 -0.24966049988896311
v 11.25 -5.2073864371467282 0.41922407131811856
v 12.75 -4.5352760129529734 -0.92177092408271832
v 12.75 -5.8762710083538101 -1.5938813482764735
v 11.25 -7.7810081040241563 5.8035538817320207
v 11.25 -6.5548331385209124 6.4553144771152207
v 12.75 -5.8827227143271577 5.114319481714384
v 12.75 -5.210612290133402 3.7733244863135473
v 11.25 -9.2368231293225858 5.1110936287277102
v 12.881828681200041 -9.2058252509574121 5.0492466490359336
v 12.75 -7.8926022809350753 2.4291036379260369
v 12.75 -8.5647127051288301 3.7700986333268736
v 11.25 -7.2269435627146681 7.7963094725160573
v 12.75 -7.2269435627146681 7.7963094725160573
v 14.25 -6.5548331385209124 6.4553144771152207
v 11.25 -9.9089335535163414 6.4520886241285469
v 11.25 -8.5679385581155039 7.1241990483223017
v 12.57885059211702 -8.6211349513737545 7.0975368679554824
v 12.75 -9.9089335535163414 6.4520886241285469
v 12.75 -3.1910551645654626 -3.6037609148843925
v 14.25 -1.8500601691646255 -2.9316504906906369
v 14.25 -1.1779497449708698 -4.2726454860914744
v 12.75 -3.8975770601126483 -2.4055260349087746
v 14.25 -4.5320501599662997 -4.2758713390781473
v 14.25 -3.1910551645654626 -3.6037609148843925
v 12.75 -7.2237177097279943 4.4422090575206283
v 14.25 -7.2237177097279943 4.4422090575206283
v 14.25 -5.8827227143271577 5.114319481714384
v 14.25 -8.5647127051288301 3.7700986333268736
v 14.25 -9.2368231293225858 5.1110936287277102
v 14.25 -9.9089335535163414 6.4520886241285469
v 14.25 -0.50583932077711502 -5.6136404814923102
v 14.25 -2.5762551752534404 -5.2047870608982034
v 14.25 -1.9028816784814389 -6.3138419996736896
v 14.25 -3.1878293115787883 -6.9578613298798206
v 14.25 -3.8599397357725431 -5.6168663344789849
v 14.25 -7.2982398009940326 5.928355211694333
v 14.25 -8.566325631622167 5.4471488408245881
v 14.25 -8.5679385581155039 7.1241990483223017
v 14.25 -7.2269435627146681 7.7963094725160573
v -12.75 -6.1634416807632659 2.2737429434156273
v -12.75 -5.25 2.25
v -12.75 -5.9143531296353977 1.7427490080312991
v -12.749999999999998 -5.5993911923348723 1.900608807665128
v -12.75 -6.7500000000000009 1.3239204706816463
v -12.75 -6.75 0.75
v -12.75 -6.75 2.0326771488092086
v -12.75 -6.75 2.2889892599313861
v -12.223720791253939 -6.7500000000000009 1.3239204706816461
v -12.176079529318352 -6.75 1.3239204706816461
v -12.75 -5.25 2.0757246457518761
v -11.25 -6.75 0.75
v -11.25 -6.75 1.3239204706816461
v -11.249999999999998 -6.7499999999999991 0.93178064261537974
v -12.75 -5.2571493148407376 3.75
v -12.75 -5.25 3.75
v -12.75 -6.5516072855342387 3.1012140621197921
v -12.75 -6.077748258728545 2.943767269283001
v -12.749999999999998 -6.7499999999999991 3.0017790814272085
v -12.75 -6.3523034402033165 2.6763485566989149
v -12.750000000000002 -6.75 3.1671330271448648
v -12.75 -6.75 3.4970472878009908
v -12.75 -6.75 3.75
v -12.750000000000002 -5.25 2.6687354534039542
v -12.75 -4.9022857413664065 2.25
v -11.25 -3.75 0.75
v -11.249999999999998 -5.2453396614434862 0.74999999999999989
v -11.250000000000002 -5.3731722532772421 0.75
v -11.25 -6.2029047124438526 0.75000000000000011
v -11.25 -4.5474221678920745 0.74999999999999989
v -12.75 -4.7151740648986165 2.7848259351013844
v -12.75 -5.1989219926721386 3.7499999999999996
v -12.75 -4.9356965859250161 2.564303414074983
v -12.75 -4.5385018659396463 2.4323294909127107
v -11.3205392664855 -5.1989219926721386 3.7500000000000004
v -12.7239098731984 -5.1989219926721404 3.7500000000000009
v -11.259630829902372 -5.1989219926721404 3.75
v -11.250000000000002 -3.6953136425316804 0.75000000000000022
v -11.25 -8.5546392141632648 3.75
v -11.25 -8.4516138469147037 3.5444437447977672
v -11.249999999999998 -8.25 3.1421837143266598
v -10.945360785836735 -8.5546392141632648 3.75
v -11.25 -7.8028350390930354 2.2499999999999996
v -11.25 -7.4513276625576461 1.5486723374423541
v -11.25 -7.0510308640228043 0.75000000000000011
v -11.25 -7.2204918567413205 1.0881086425252
v -10.728985043037452 -7.0510308640228061 0.75
v -11.25 -7.9521288756871904 2.5478711243128096
v -11.25 -7.8846869520920375 2.4133109705556435
v -11.250000000000002 -7.8922332556854338 2.4283673585958354
v -11.25 -7.8876081839672336 2.4191394135971902
v -9.6750882272740277 -8.554639214163263 3.7500000000000009
v -9.6064602254262361 -8.554639214163263 3.75
v -9.646210025937572 -8.554639214163263 3.7499999999999991
v -9.4841967844017354 -8.554639214163263 3.7500000000000004
v -9.4834544956965594 -7.0510308640228034 0.75
v -8.8256421604364039 -7.0510308640228043 0.75
v -8.8039189222374929 -7.0510308640228052 0.74999999999999989
v -8.8800227940466545 -7.0510308640228052 0.75
v -8.7743794284640995 -7.0510308640228061 0.75
v -8.7205792566981071 -7.0510308640228043 0.74999999999999989
v -11.194708034793113 -5.1989219926721377 3.7499999999999996
v -9.8080992124415101 -5.1989219926721395 3.7500000000000004
v -9.3335445842405882 -5.1989219926721386 3.7499999999999996
v -10.969601360771575 -5.1989219926721395 3.7500000000000004
v -11.017847696391719 -5.1989219926721395 3.75
v -11.25 -3.7499999999999996 0.85911024296295924
v -9.8591102429629593 -3.7499999999999996 0.85911024296295946
v -10.990240358824567 -3.7499999999999991 0.85911024296295924
v -9.7649347298596609 -3.7500000000000004 0.85911024296295957
v -9.3369638495172769 -8.5546392141632648 3.7500000000000004
v -9.3257072456652779 -3.75 0.85911024296295957
v -8.8701201794122841 -3.75 0.85911024296295968
v -8.3728013736250677 -3.75 0.85911024296295979
v -8.2500000000000018 -3.7499999999999996 0.85911024296295979
v -9.1354523288551963 -5.1989219926721395 3.75
v -7.4272229807665608 -8.554639214163263 3.7499999999999996
v -7.8406053475865205 -8.554639214163263 3.7499999999999996
v -8.2637388635151421 -8.5546392141632648 3.75
v -8.2275182233388584 -8.5546392141632648 3.7500000000000004
v -8.5295170524431025 -8.5546392141632648 3.75
v -8.2500000000000018 -3.7139651969550576 0.78721358907384764
v -8.25 -3.6953136425316799 0.75
v -7.4182835957606201 -3.6953136425316795 0.74999999999999989
v -6.8046863574683192 -3.6953136425316795 0.75
v -7.9408128705110412 -3.6953136425316795 0.74999999999999989
v -6.8010780073278605 -5.1989219926721395 3.75
v -6.7499999999999991 -5.1989219926721386 3.7499999999999996
v -8.4296593936091622 -5.1989219926721377 3.7500000000000004
v -8.407968070775361 -5.1989219926721395 3.7499999999999991
v -7.643456941178191 -5.1989219926721395 3.7499999999999996
v -6.75683579468354 -3.6953136425316795 0.75
v -6.7500000000000009 -8.554639214163263 3.7500000000000009
v -6.75 -8.25 3.75
v -6.7500000000000009 -5.4334912677263283 1.9837583116414879
v -6.75 -5.4573442703497914 2.1441410950238402
v -6.75 -5.7558650734310994 1.8221836629334034
v -6.75 -6.6940612707467784 2.2407436167087664
v -6.75 -6.75 2.245113106498247
v -6.7499999999999991 -6.7499999999999991 2.1182641531972801
v -6.7499999999999982 -6.0493793317958113 2.1903861776443727
v -6.75 -5.8751279948545454 1.7624087547619238
v -6.7500000000000009 -6.7500000000000009 1.3239204706816463
v -4.6474571417737023 -7.0510308640228043 0.75
v -4.701474742495007 -7.0510308640228043 0.75
v -6.4663507513857992 -7.0510308640228043 0.75
v -6.4869873235702453 -7.0510308640228052 0.75
v -4.9215097517330744 -6.75 1.3164404042819449
v -6.3156724111352949 -6.75 1.3237294415649616
v -6.7107909837163895 -7.0510308640228043 0.75
v -6.3522102488495884 -6.75 1.3239204706816461
v -6.9904233965253928 -7.0510308640228043 0.74999999999999989
v -6.9952449422768108 -7.0510308640228052 0.75
v -8.3423174351580212 -7.0510308640228052 0.75
v -6.75 -7.0510308640228043 0.75
v -6.75 -5.2506157657262778 3.7452309611775032
v -6.75 -5.25 3.75
v -6.7500000000000009 -6.2060486528490619 3.0742523166377147
v -6.75 -6.310261880150164 3.2037158197493008
v -6.75 -6.1880189014643205 3.7499999999999996
v -6.75 -6.0411127356120371 2.8693533591116003
v -6.7499999999999991 -5.3882246053720007 2.6794654101172943
v -6.75 -6.75 3.75
v -6.75 -6.3640642806738477 2.9632815585625285
v -6.75 -6.75 2.8284086669407569
v -6.7499999999999991 -6.7499999999999991 3.6272362743246997
v -6.7500000000000009 -7.4537145862545033 3.7500000000000004
v -6.7500000000000009 -6.8213586418635019 3.7500000000000004
v -6.7499999999999991 -5.3265630817761656 2.0373510160614994
v -6.75 -5.0649542413331439 2.1684700950483964
v -6.75 -4.5385018659396463 2.4323294909127107
v -6.7499999999999991 -5.1475976496541103 3.6475976496541098
v -6.75 -4.4261073636482102 2.2080799336108967
v -6.7499999999999991 -5.2474524707935561 3.7474524707935553
v -6.75 -3.8639941984746713 1.0865515147489713
v -6.7499999999999991 -3.75 0.85911024296295968
v -6.7500000000000009 -5.2438249437410196 3.7500000000000004
v -6.5863346355555601 -3.75 0.85911024296295968
v -6.5945437923837655 -3.6953136425316799 0.75000000000000011
v -6.7102979296093901 -3.6953136425316799 0.75000000000000011
v -5.319723727165373 -3.6953136425316799 0.75
v -5.5557492788329181 -3.6953136425316799 0.75
v -4.5474786739218818 -3.6953136425316804 0.75
v -5.0408202549345704 -3.6953136425316799 0.75
v -4.6636653644444381 -3.7499999999999996 0.85911024296295913
v -5.181709798587705 -3.7499999999999996 0.85911024296295924
v -5.313700910020998 -3.75 0.85911024296295957
v -6.5775761672900526 -3.75 0.85911024296295946
v -5.4254000389062593 -3.7499999999999996 0.85911024296295924
v -4.47949261594938 -3.6953136425316799 0.75
v -2.25 -6.75 3.75
v -4.5 -3.7500000000000004 0.85911024296295935
v -3.2312382326011231 -3.75 0.85911024296295968
v -2.4136653644444395 -3.7500000000000004 0.85911024296295946
v -2.8482884639398853 -3.7499999999999991 0.85911024296295968
v -3.2822877600581659 -3.6953136425316795 0.75
v -2.752510557228192 -3.6953136425316795 0.74999999999999978
v -2.3115221521518605 -3.6953136425316804 0.75
v -2.25 -3.75 0.85911024296295957
v 1.2773196070816322 -8.5546392141632648 3.7500000000000004
v 0.90299714327905134 -8.5546392141632648 3.7499999999999996
v -1.0607265694626584 -8.5546392141632648 3.7500000000000004
v -0.3655803279939519 -8.5546392141632648 3.75
v -0.095899008796529239 -8.5546392141632648 3.75
v -1.396044564293575 -8.5546392141632648 3.7500000000000009
v 0 -8.5546392141632648 3.75
v 0.27300803313165917 -8.5546392141632648 3.75
v -2.2500000000000004 -5.801332139583959 1.7993954428254604
v -2.25 -5.3493504548869106 2.2993676037392361
v -2.25 -5.3323627122042465 2.0344442251483694
v -2.25 -6.7499999999999991 1.3239204706816459
v -2.2500000000000004 -6.1583522340376131 2.2708533480520834
v -2.25 -5.879496861340483 1.7602190667189552
v -2.25 -6.75 2.25
v -1.191081261744082 -7.0510308640228061 0.74999999999999989
v -0.61347715372211276 -7.0510308640228052 0.75
v -2.0166390688809095 -7.0510308640228043 0.75000000000000011
v -2.0242268519828963 -7.0510308640228052 0.74999999999999989
v -4.0755550696669198 -6.7500000000000009 1.3159265737774413
v -2.6802877276376242 -6.7500000000000009 1.3237169701834985
v -4.0422705547865361 -6.7499999999999991 1.3159267154611016
v -2.439099499076133 -7.0510308640228052 0.75000000000000011
v -4.0540875167013191 -7.0510308640228052 0.75
v -2.42711608241882 -7.0510308640228043 0.75
v -4.2072250593957072 -7.0510308640228043 0.75000000000000011
v -2.6447094065595458 -6.7499999999999982 1.3239204706816459
v -2.25 -5.2505447647712273 3.7500000000000004
v -2.25 -5.3253063971510146 2.6504388608256462
v -2.25 -6.2092925531323697 3.1899971484213778
v -2.25 -5.8210019055687487 2.787850162770245
v -2.25 -5.25 3.75
v -2.25 -6.4197616255247985 3.4079769106600177
v -2.25 -6.3121163550970083 3.75
v -2.25 -6.5512254409818143 2.9902747661966247
v -2.25 -6.75 2.425324510948816
v -2.25 -6.7499999999999991 3.4194359802272363
v -2.25 -6.7500000000000009 3.067260177557714
v -2.2499999999999996 -6.75 2.9071165214489287
v -2.2499999999999996 -8.271799705102806 3.7499999999999996
v -2.25 -6.9031073058548182 3.7499999999999996
v -2.2500000000000004 -5.1633322018487728 2.1191627874147003
v -2.25 -4.835437533297557 2.283504507948082
v -2.25 -4.4580722391916741 2.2718562664714033
v -2.25 -3.8813524116832103 1.1211846288978471
v -2.2499999999999996 -4.7460981100397648 2.8465256027141494
v -2.25 -4.5385018659396463 2.4323294909127107
v -2.25 -5.0472649333778419 2.5733632390319201
v -2.25 -5.1989219926721395 3.7499999999999996
v -2.2500000000000004 -3.6953136425316795 0.75
v -0.18448118263310231 -3.6953136425316795 0.75
v -0.83864448878045483 -3.695313642531679 0.74999999999999978
v -1.3159036741463632 -3.695313642531679 0.74999999999999978
v -1.2521320128338826 -5.1989219926721395 3.7500000000000004
v -1.2956106655190016 -5.1989219926721395 3.7500000000000004
v -1.365654076080961 -5.1989219926721386 3.7500000000000004
v -0.045676366346095391 -3.6953136425316799 0.74999999999999989
v -0.57576962398087028 -7.0510308640228043 0.75
v -0.13454830017762101 -7.0510308640228061 0.75
v 0.010226466577136203 -7.0510308640228043 0.75
v 0.57823903168285129 -7.0510308640228043 0.74999999999999989
v 0.51655248126681741 -7.0510308640228043 0.75000000000000011
v 1.0219156966982457 -5.1989219926721404 3.75
v 0.76185607651299392 -5.1989219926721395 3.75
v 0.97019220676284423 -5.1989219926721395 3.7499999999999996
v -0.013494482438413601 -5.1989219926721395 3.75
v 0.66664707820068536 -5.1989219926721404 3.75
v -0.76849112857320601 -5.1989219926721404 3.75
v -0.11918158911425067 -5.1989219926721395 3.7500000000000009
v 0.09312844994091124 -3.6953136425316804 0.75
v 0.045286002831012279 -3.6953136425316808 0.75000000000000011
v 4.1843726897489244 -7.0510308640228052 0.75
v 4.5235945905229249 -7.0510308640228052 0.75
v 4.689099499076133 -7.0510308640228052 0.75
v 4.9822205172940333 -7.0510308640228043 0.74999999999999989
v 2.25 -6.75 2.25
v 2.25 -6.7499999999999991 1.3239204706816459
v 2.25 -5.879496861340483 1.7602190667189552
v 2.2500000000000004 -6.1008226804075134 2.2327469088853014
v 2.25 -5.6342027034497795 1.8831611814006666
v 2.25 -5.3106522676023076 2.2117466648582531
v 2.25 -5.3038876352865669 2.0487160129564734
v 2.3902599462887442 -7.0510308640228043 0.75
v 4.1321132898561643 -7.0510308640228043 0.74999999999999989
v 2.5374125396658576 -7.0510308640228043 0.74999999999999989
v 3.6391192939775312 -6.7499999999999991 1.3239204706816459
v 3.0394188131190916 -6.7499999999999982 1.3239204706816459
v 2.0242268519828963 -7.0510308640228052 0.75
v 1.9663507513857998 -7.0510308640228043 0.74999999999999989
v 1.0344645939909127 -7.0510308640228043 0.75
v 2.25 -5.9422460576240645 2.8867407834353922
v 2.25 -5.2923330808081452 2.6763550182997888
v 2.25 -5.25 3.75
v 2.25 -6.2386817178171921 3.2035461895810093
v 2.2500000000000004 -5.252697415932154 3.7500000000000004
v 2.2500000000000004 -6.3983554421227291 3.374191985186175
v 2.25 -6.2869964111364904 3.75
v 2.25 -6.75 3.75
v 2.25 -6.4902322506749233 3.0641314474494843
v 2.25 -6.7499999999999991 3.5521849115571618
v 2.25 -6.7499999999999991 2.3612211503632512
v 2.25 -6.7500000000000009 2.9465021903495314
v 2.25 -6.7500000000000009 3.1525331031888739
v 2.2499999999999996 -6.8552876049169873 3.7499999999999996
v 2.25 -8.14269285571803 3.7500000000000004
v 1.9205266389191133 -5.1989219926721395 3.75
v 1.1522488489397316 -5.1989219926721395 3.75
v 2.25 -5.1949074949105105 2.1033371626461137
v 2.25 -4.9615353913043405 2.2203039105368076
v 2.25 -3.7499999999999996 0.85911024296295957
v 2.25 -3.8703533869963316 1.0992393703086976
v 2.25 -4.4386576299626057 2.2331202301347028
v 2.25 -4.5385018659396463 2.4323294909127107
v 2.2500000000000004 -4.7198212178552543 2.7940979365960645
v 2.25 -4.9512873855157302 2.5659538382805427
v 2.25 -5.1989219926721404 3.7500000000000004
v 7.653092592068413 -7.0510308640228043 0.75
v 8.7006321634172359 -7.0510308640228043 0.74999999999999989
v 8.6786646039274089 -7.0510308640228043 0.74999999999999989
v 8.034708453234332 -7.0510308640228052 0.75000000000000011
v 6.7263045978014517 -7.0510308640228043 0.74999999999999989
v 6.939099499076133 -7.0510308640228052 0.74999999999999989
v 9.2244845679885987 -7.0510308640228052 0.75000000000000011
v 10.1154030055432 -7.0510308640228052 0.74999999999999989
v 10.346907407931585 -7.0510308640228061 0.75
v 9.1859005009238661 -7.0510308640228052 0.75
v 11.25 -7.0510308640228052 0.75000000000000011
v 4.3363346355555601 -3.75 0.8591102429629599
v 4.2331125596503094 -3.75 0.85911024296295979
v 3.0884245159534909 -3.7500000000000004 0.85911024296295968
v 2.7491022343480345 -3.7500000000000004 0.85911024296295968
v 4.4179704637975199 -3.6953136425316795 0.74999999999999989
v 3.1535278407553178 -3.6953136425316804 0.75
v 2.25 -3.6953136425316799 0.75
v 2.6630848968785541 -3.6953136425316804 0.75
v 1.3159036741463632 -3.6953136425316804 0.75
v 0.83864448878045494 -3.6953136425316795 0.75
v 4.5083583410040529 -3.7500000000000004 0.85911024296295979
v 4.5068285457300767 -3.695313642531679 0.75
v 9.7350121488925687 -8.554639214163263 3.7499999999999991
v 10.945360785836737 -8.5546392141632648 3.7499999999999996
v 9.7705408507985663 -8.5546392141632612 3.7499999999999996
v 9.75 -8.554639214163263 3.75
v 9.3515464047210877 -8.554639214163263 3.75
v 8.2267784076345958 -8.554639214163263 3.7499999999999996
v 7.9569588212448963 -8.5546392141632648 3.7500000000000004
v 8.248832851142037 -8.554639214163263 3.75
v 8.264987851107426 -8.5546392141632648 3.7500000000000004
v 4.5 -6.7499999999999982 1.3239204706816459
v 5.625 -6.75 1.5
v 5.3608807060224688 -6.75 1.3239204706816461
v 6.3718010018477349 -7.051030864022807 0.75000000000000011
v 6.4922123675553074 -7.0510308640228043 0.74999999999999989
v 5.8891192939775303 -6.75 1.3239204706816459
v 5.3752463637238259 -6.75 1.3239204706816459
v 6.75 -6.75 2.25
v 6.75 -6.75 3.75
v 4.6379287412507848 -3.7500000000000004 0.85911024296296001
v 4.6636653644444408 -3.7500000000000004 0.8591102429629599
v 4.6549123510756791 -3.6953136425316804 0.75000000000000011
v 6.6671318190245099 -3.6953136425316799 0.74999999999999989
v 4.6178821265938224 -3.6953136425316795 0.75
v 4.7080602490641423 -3.6953136425316795 0.75
v 6.6283103580952245 -3.6953136425316804 0.75
v 6.7499999999999991 -3.7499999999999996 0.85911024296295957
v 4.7687058115124588 -3.75 0.85911024296295957
v 6.6150282624279644 -3.7499999999999996 0.85911024296295946
v 6.2628624760880554 -3.75 0.85911024296295946
v 6.75 -3.6953136425316799 0.75
v 7.6300877194776717 -8.554639214163263 3.7500000000000004
v 7.3476803929183685 -8.554639214163263 3.7500000000000004
v 6.7500000000000009 -8.5546392141632648 3.7500000000000013
v 6.7500000000000009 -8.5042229443861714 3.7500000000000004
v 6.7500000000000018 -8.25 3.7500000000000004
v 6.75 -5.25 2.0757246457518757
v 6.75 -5.5993911923348723 1.9006088076651266
v 6.75 -5.25 2.25
v 6.75 -6.75 1.3239204706816461
v 6.75 -6.1249764283474715 2.2499999999999996
v 6.75 -5.879496861340483 1.7602190667189552
v 5.9767874890813095 -6.75 1.3239204706816459
v 6.75 -5.2571493148407367 3.75
v 6.75 -5.2367992633000426 2.6643493099753868
v 6.75 -6.2515857105673129 3.2515857105673129
v 6.75 -5.8770983013208653 2.8770983013208644
v 6.75 -5.2022115650413143 3.75
v 6.75 -6.75 2.5041223277741067
v 6.75 -6.5516072855342387 3.1012140621197921
v 6.7500000000000009 -6.7500000000000009 3.4970472878009904
v 6.75 -6.75 3.1671330271448643
v 6.7499999999999991 -6.7499999999999991 3.0095631298641181
v 6.75 -6.8767806034177035 3.7500000000000009
v 6.75 -4.4471178176019093 2.25
v 6.75 -4.2143728517690713 1.7856271482309285
v 6.75 -4.9022857413664056 2.25
v 6.75 -3.7839596021560347 0.92686645518310617
v 6.7499999999999991 -4.7151740648986165 2.7848259351013835
v 6.7500000000000009 -5.1989219926721404 3.7500000000000004
v 6.75 -4.9356965859250161 2.564303414074983
v 6.75 -4.5385018659396463 2.4323294909127107
v 6.7533978234800944 -5.1989219926721395 3.75
v 8.1747787363731792 -5.1989219926721395 3.7500000000000004
v 6.9376954972713936 -5.1989219926721413 3.7499999999999996
v 8.25 -3.6953136425316795 0.75
v 7.8681926517072744 -3.6953136425316795 0.75
v 6.8046863574683201 -3.6953136425316799 0.75
v -4.4045057751101222 -7.0510308640228043 0.75000000000000011
v -4.8226219544823774 -6.75 1.3159233937049259
v 9.7500000000000018 -5.1989219926721404 3.7500000000000004
v 11.050723417323097 -5.1989219926721404 3.7499999999999996
v 10.927773319570766 -5.1989219926721404 3.7500000000000004
v 9.2159479951147603 -5.1989219926721395 3.7500000000000004
v 11.066587775314476 -5.1989219926721395 3.75
v 8.4925088235284303 -5.1989219926721404 3.75
v 8.25 -3.7500000000000009 0.85911024296296024
v 8.6634134529415228 -3.7500000000000009 0.85911024296296024
v 9.3365865470584772 -3.7500000000000009 0.85911024296296012
v 9.6408897570370407 -3.75 0.85911024296296012
v 9.7508297317374151 -3.7500000000000004 0.85911024296296001
v 8.198336541088759 -5.1989219926721395 3.7500000000000009
v 8.3521835774697877 -5.1989219926721395 3.7500000000000009
v 11.250000000000004 -8.5546392141632648 3.75
v 11.247119321627894 -8.5546392141632612 3.7499999999999996
v 11.144051100054346 -3.7499999999999996 0.85911024296296001
v 11.044326185817845 -3.7499999999999996 0.8591102429629599
v 11.25 -3.7499999999999996 0.85911024296295968
v 11.25 -8.25 3.1421837143266602
v 11.25 -7.3535135201089785 1.3535135201089796
v 11.25 -7.2204918567413205 1.0881086425252
v 11.249999999999998 -7.1323070920434812 1.132307092043481
v 11.25 -6.75 0.75
v 11.250000000000002 -7.8351106818994358 2.3143963758316168
v 11.249999999999998 -7.9166161382049882 2.4770160958496761
v 11.25 -6.7500000000000009 1.3239204706816461
v 11.823920470681646 -6.7499999999999991 1.3239204706816461
v 12.749999999999998 -6.75 1.3239204706816461
v 12.75 -6.75 0.75
v 12.127027050434556 -6.7499999999999991 1.3239204706816461
v 12.75 -5.25 0.75
v 11.249999999999998 -6.3063038304616388 0.74999999999999978
v 11.249999999999998 -5.4428289762962399 0.75
v 11.25 -5.1967159811294534 0.75
v 11.320406212286745 -5.1989219926721395 3.7499999999999996
v 11.077509545125233 -5.1989219926721395 3.7499999999999996
v 11.25 -3.7129087727561862 0.78510581107679278
v 11.25 -3.6953136425316804 0.75000000000000011
v 11.25 -3.75 0.75
v 11.25 -3.9399092483548275 0.75000000000000011
v 11.250000000000002 -4.4723148384156897 0.75
v 11.25 -5.0974811569420977 0.75000000000000022
v 12.698921992672139 -5.1989219926721404 3.75
v 12.723909873198398 -5.1989219926721404 3.7499999999999996
v 12.749999999999998 -5.1989219926721404 3.7499999999999996
v 12.75 -6.1331083051730264 1.6331083051730257
v 12.75 -6.75 2.25
v 12.750000000000002 -6.2515857105673138 3.2515857105673134
v 12.75 -6.4392798424224544 3.4392798424224553
v 12.75 -6.5516072855342387 3.1012140621197921
v 12.75 -5.6003505370496738 2.6003505370496738
v 12.749999999999998 -5.7167597754659276 2.25
v 12.75 -5.25 2.25
v 12.749999999999998 -6.1249764283474715 2.25
v 12.749999999999998 -6.7499999999999991 3.0017790814272085
v 12.749999999999998 -6.7499999999999991 2.5041223277741067
v 12.749999999999998 -6.7499999999999991 3.4970472878009908
v 12.75 -6.75 3.75
v 12.75 -5.879496861340483 1.7602190667189552
v 12.75 -5.25 2.0757246457518757
v 12.75 -5.25 3.6547814437452657
v 12.75 -5.25 3.75
v 12.749999999999998 -5.2571493148407367 3.75
v 12.75 -6.3360383939897611 3.75
v 12.75 -5.1339095183025707 2.1339095183025707
v 12.75 -5.2262526245847889 3.7262526245847889
v 12.75 -5.1475976496541094 3.6475976496541098
v 12.75 -4.9022857413664056 2.2500000000000004
v 12.75 -4.5385018659396463 2.4323294909127107
v 12.75 -5.2183622017250189 3.75
v 2.1151093400331495 -8.554639214163263 3.7499999999999996
v 2.2264081721080178 -8.554639214163263 3.7499999999999996
v 2.25 -8.5546392141632648 3.75
v 2.2500000000000004 -8.5056529884282366 3.75
v -2.25 -8.5128184967874727 3.7499999999999996
v -2.25 -8.5546392141632648 3.75
v -2.2351914954883063 -8.5546392141632648 3.75
v -2.11510934003315 -8.554639214163263 3.7499999999999991
v -6.5482592206486014 -3.8444880037753983 1.0476327470443683
v 2.9422432566879828 -3.8727912802256501 1.1041034558847547
v 5.9661948848734383 -4.1283861494062233 1.6140664442321451
v 6.6129703882676747 -3.7584728829526388 0.87601534252265667
v 5.6946335748325376 -6.5783122464689443 1.4099708506236968
v 12.75 -7.2204918567413205 1.0881086425252
f 1 2 3
f 4 2 1
f 1 3 5
f 1 5 4
f 6 7 8
f 8 7 4
f 8 5 9
f 4 5 8
f 9 6 8
f 2 10 11
f 12 10 2
f 13 3 2
f 2 11 13
f 4 12 2
f 14 15 7
f 7 15 12
f 7 6 14
f 7 12 4
f 16 11 10
f 12 16 10
f 14 16 15
f 15 16 12
f 17 18 19
f 20 18 17
f 19 21 17
f 17 21 22
f 17 22 20
f 18 23 24
f 20 23 18
f 24 19 18
f 25 24 23
f 23 20 26
f 23 26 25
f 21 19 27
f 21 27 28
f 28 22 21
f 19 24 29
f 30 27 19
f 19 29 30
f 31 29 24
f 24 25 31
f 32 28 27
f 33 32 27
f 30 33 27
f 31 33 29
f 29 33 30
f 34 5 3
f 3 35 34
f 13 35 3
f 5 34 36
f 5 36 9
f 37 14 6
f 6 36 38
f 9 36 6
f 6 38 37
f 11 16 39
f 39 40 11
f 11 40 41
f 41 13 11
f 16 14 42
f 42 39 16
f 43 42 14
f 14 37 43
f 40 39 44
f 44 45 40
f 40 45 46
f 46 41 40
f 39 42 47
f 47 44 39
f 43 47 42
f 45 44 48
f 48 46 45
f 44 47 49
f 49 48 44
f 47 43 50
f 50 49 47
f 20 22 51
f 52 25 26
f 28 32 53
f 54 31 25
f 25 52 55
f 55 54 25
f 32 33 56
f 56 53 32
f 33 31 54
f 57 56 33
f 33 54 57
f 13 34 35
f 58 36 34
f 34 13 58
f 36 58 38
f 41 58 13
f 59 38 58
f 58 41 59
f 38 59 37
f 60 59 41
f 41 46 61
f 41 61 60
f 62 37 59
f 59 60 62
f 62 43 37
f 46 48 63
f 63 61 46
f 64 50 43
f 43 62 64
f 48 49 65
f 65 66 48
f 48 66 67
f 67 63 48
f 50 64 68
f 69 67 66
f 70 52 71
f 71 52 72
f 71 53 70
f 52 70 55
f 73 72 52
f 56 70 53
f 70 56 57
f 57 54 70
f 70 54 55
f 63 60 61
f 74 62 60
f 60 63 74
f 62 74 64
f 67 74 63
f 75 64 74
f 74 67 75
f 64 75 68
f 76 75 67
f 67 77 76
f 69 77 67
f 78 68 75
f 75 76 78
f 68 78 79
f 72 73 80
f 81 80 73
f 82 76 77
f 83 84 77
f 77 84 82
f 77 69 83
f 85 78 76
f 82 85 76
f 80 81 86
f 86 87 80
f 88 86 81
f 89 87 90
f 90 91 89
f 89 91 92
f 89 92 93
f 87 86 94
f 94 90 87
f 95 94 86
f 86 88 96
f 86 96 95
f 91 90 92
f 90 94 97
f 97 92 90
f 95 97 94
f 98 99 100
f 101 99 98
f 100 102 98
f 98 102 103
f 98 103 101
f 99 104 105
f 106 104 99
f 105 100 99
f 99 101 106
f 106 105 104
f 102 100 82
f 102 84 107
f 82 84 102
f 107 103 102
f 100 105 85
f 100 85 82
f 108 85 105
f 105 106 108
f 84 109 110
f 111 109 84
f 110 107 84
f 84 83 111
f 108 112 85
f 113 88 114
f 114 115 113
f 116 115 114
f 113 96 88
f 117 92 118
f 93 92 117
f 117 118 119
f 120 95 96
f 96 113 121
f 121 120 96
f 92 97 118
f 97 95 122
f 122 118 97
f 120 122 95
f 123 124 125
f 126 124 123
f 125 127 123
f 123 127 128
f 123 128 126
f 124 129 130
f 126 129 124
f 130 125 124
f 131 130 129
f 129 126 132
f 129 132 131
f 127 125 133
f 133 134 127
f 127 134 135
f 135 128 127
f 125 130 136
f 136 133 125
f 131 136 130
f 134 133 137
f 137 135 134
f 133 136 138
f 138 137 133
f 136 131 139
f 139 138 136
f 140 141 142
f 143 141 140
f 142 144 140
f 140 144 145
f 140 145 146
f 146 143 140
f 141 147 148
f 149 147 141
f 148 142 141
f 143 149 141
f 150 148 147
f 147 149 150
f 144 142 101
f 101 103 144
f 144 103 145
f 142 148 106
f 106 101 142
f 151 106 148
f 148 150 151
f 152 153 103
f 103 153 145
f 107 152 103
f 106 151 154
f 106 154 108
f 155 156 157
f 155 112 158
f 158 159 155
f 160 113 115
f 161 160 115
f 113 160 121
f 118 122 162
f 162 163 118
f 118 163 164
f 164 119 118
f 122 120 165
f 165 162 122
f 166 165 120
f 120 121 166
f 163 162 126
f 126 128 163
f 163 128 167
f 167 168 163
f 163 168 164
f 162 165 132
f 132 126 162
f 169 132 165
f 165 170 169
f 166 170 165
f 128 135 167
f 169 131 132
f 135 137 171
f 171 167 135
f 172 139 131
f 131 169 172
f 137 138 173
f 173 171 137
f 138 139 174
f 174 173 138
f 139 172 175
f 175 174 139
f 176 150 149
f 149 177 176
f 143 177 149
f 178 151 150
f 150 176 178
f 152 179 153
f 153 179 180
f 153 180 145
f 179 151 181
f 182 151 179
f 179 152 182
f 183 180 179
f 179 181 183
f 182 154 151
f 178 181 151
f 152 184 185
f 107 184 152
f 152 185 182
f 154 185 186
f 182 185 154
f 154 186 108
f 187 185 184
f 184 109 188
f 110 109 184
f 189 187 184
f 188 189 184
f 184 107 110
f 190 186 185
f 185 187 190
f 186 190 191
f 186 191 159
f 158 108 186
f 186 159 158
f 168 167 192
f 168 193 164
f 194 193 168
f 168 192 195
f 168 195 194
f 196 169 170
f 170 197 198
f 166 197 170
f 198 196 170
f 171 199 167
f 167 199 192
f 200 169 199
f 199 169 196
f 199 171 200
f 199 201 192
f 196 201 199
f 169 200 172
f 173 200 171
f 174 172 200
f 200 173 174
f 172 174 175
f 202 177 203
f 203 177 143
f 204 202 203
f 146 145 203
f 203 145 204
f 203 143 146
f 202 176 177
f 176 202 178
f 202 180 183
f 204 180 202
f 183 181 202
f 202 181 178
f 204 145 180
f 205 187 189
f 206 187 205
f 205 207 208
f 189 207 205
f 209 210 205
f 205 210 206
f 208 209 205
f 191 190 211
f 211 190 206
f 212 213 211
f 206 212 211
f 160 214 121
f 215 214 160
f 160 216 215
f 193 217 218
f 218 217 219
f 164 193 218
f 219 220 218
f 218 119 164
f 221 214 217
f 217 214 222
f 217 193 221
f 222 219 217
f 214 221 197
f 214 197 166
f 214 223 222
f 215 223 214
f 166 121 214
f 224 221 193
f 194 225 193
f 193 225 224
f 226 197 221
f 224 226 221
f 197 226 227
f 197 227 228
f 228 198 197
f 229 230 231
f 232 230 229
f 229 231 233
f 195 192 229
f 229 192 232
f 233 195 229
f 234 235 236
f 228 235 234
f 234 201 196
f 232 201 234
f 234 236 237
f 234 196 198
f 234 198 228
f 237 232 234
f 220 219 238
f 219 223 239
f 222 223 219
f 240 238 219
f 239 240 219
f 223 241 239
f 242 241 223
f 223 216 242
f 215 216 223
f 243 226 225
f 225 226 224
f 225 244 243
f 245 244 225
f 225 233 245
f 194 233 225
f 243 227 226
f 246 235 227
f 227 235 228
f 227 243 246
f 247 244 248
f 248 244 245
f 248 249 250
f 231 249 248
f 248 250 247
f 245 231 248
f 251 252 253
f 254 252 251
f 255 256 251
f 251 256 254
f 253 255 251
f 235 246 257
f 257 236 235
f 258 252 259
f 259 252 254
f 259 260 261
f 254 260 259
f 259 261 258
f 232 192 201
f 262 263 252
f 252 263 253
f 258 262 252
f 230 249 231
f 264 249 230
f 236 265 230
f 230 265 264
f 237 236 230
f 230 232 237
f 266 263 267
f 253 263 266
f 267 255 266
f 266 255 253
f 263 262 268
f 268 267 263
f 262 261 269
f 258 261 262
f 269 268 262
f 270 271 272
f 272 271 273
f 272 274 270
f 275 274 272
f 276 275 272
f 277 274 278
f 278 274 275
f 279 280 278
f 278 280 277
f 281 282 283
f 283 284 281
f 285 241 282
f 282 241 242
f 282 286 285
f 281 286 282
f 282 216 287
f 242 216 282
f 238 240 243
f 243 244 238
f 238 244 247
f 247 288 238
f 240 241 246
f 239 241 240
f 246 243 240
f 289 246 241
f 241 290 289
f 285 290 241
f 291 257 246
f 246 289 291
f 256 255 292
f 256 292 293
f 256 294 254
f 293 294 256
f 295 261 260
f 260 296 295
f 293 296 260
f 254 294 260
f 260 294 293
f 255 267 297
f 297 292 255
f 298 269 261
f 261 295 298
f 267 268 299
f 299 300 267
f 267 300 301
f 301 297 267
f 268 269 302
f 302 299 268
f 298 302 269
f 300 299 303
f 303 271 300
f 300 271 270
f 270 301 300
f 299 302 304
f 304 303 299
f 305 304 302
f 302 298 305
f 271 303 212
f 212 210 271
f 271 210 273
f 303 304 212
f 304 306 307
f 308 306 304
f 304 213 212
f 307 213 304
f 304 305 308
f 309 310 311
f 307 306 310
f 312 286 284
f 284 286 281
f 284 313 312
f 314 290 286
f 286 290 285
f 312 314 286
f 247 315 288
f 288 315 316
f 290 317 289
f 318 317 290
f 290 314 318
f 319 320 249
f 249 320 321
f 264 319 249
f 321 250 249
f 265 319 264
f 322 319 265
f 265 323 324
f 257 323 265
f 265 324 325
f 265 325 322
f 265 236 257
f 320 319 326
f 326 327 320
f 320 327 328
f 328 321 320
f 329 326 319
f 322 329 319
f 327 326 330
f 330 328 327
f 326 329 331
f 331 330 326
f 329 325 332
f 322 325 329
f 332 331 329
f 292 297 333
f 292 333 293
f 296 333 295
f 293 333 296
f 301 333 297
f 298 295 333
f 333 301 334
f 334 298 333
f 301 335 336
f 337 335 301
f 301 336 334
f 270 337 301
f 298 336 338
f 334 336 298
f 298 338 339
f 298 339 305
f 250 340 315
f 315 340 341
f 247 250 315
f 315 341 316
f 342 317 340
f 340 317 343
f 340 250 342
f 343 341 340
f 317 342 323
f 317 323 291
f 344 343 317
f 318 344 317
f 291 289 317
f 321 342 250
f 345 323 342
f 342 321 345
f 323 345 324
f 323 257 291
f 346 345 321
f 321 328 347
f 321 347 346
f 348 324 345
f 345 346 348
f 348 325 324
f 328 330 349
f 349 347 328
f 350 332 325
f 325 348 350
f 330 331 351
f 351 349 330
f 331 332 352
f 352 351 331
f 332 350 353
f 353 352 332
f 337 336 335
f 339 338 336
f 336 337 339
f 354 339 337
f 337 274 354
f 270 274 337
f 339 354 355
f 339 355 305
f 356 354 274
f 277 356 274
f 357 355 354
f 354 356 357
f 355 306 308
f 308 305 355
f 313 314 312
f 314 358 359
f 314 359 318
f 341 343 360
f 360 361 341
f 341 361 316
f 343 344 362
f 363 360 343
f 343 362 363
f 344 359 362
f 318 359 344
f 349 346 347
f 364 348 346
f 346 349 364
f 348 364 350
f 351 364 349
f 352 350 364
f 364 351 352
f 350 352 353
f 365 357 356
f 356 280 366
f 277 280 356
f 356 366 365
f 367 358 368
f 368 358 369
f 368 361 367
f 358 367 359
f 370 369 358
f 371 370 358
f 360 367 361
f 362 359 367
f 367 360 363
f 363 362 367
f 372 373 374
f 375 373 372
f 374 376 372
f 372 376 377
f 372 377 375
f 373 378 379
f 375 378 373
f 379 374 373
f 380 379 378
f 378 375 381
f 378 381 380
f 376 374 366
f 366 280 376
f 376 280 382
f 382 377 376
f 374 379 365
f 365 366 374
f 380 365 379
f 383 382 280
f 279 383 280
f 365 380 384
f 369 370 385
f 386 385 370
f 387 386 370
f 388 389 390
f 390 389 391
f 390 392 388
f 391 392 390
f 393 392 394
f 388 392 393
f 394 395 393
f 393 395 396
f 396 397 393
f 393 397 388
f 375 377 389
f 389 377 398
f 397 375 389
f 389 398 391
f 388 397 389
f 377 382 399
f 377 399 398
f 397 381 375
f 400 380 381
f 396 400 381
f 381 397 396
f 382 383 401
f 401 399 382
f 402 384 380
f 380 400 402
f 279 403 383
f 383 403 404
f 404 401 383
f 405 384 403
f 403 384 406
f 403 279 405
f 406 404 403
f 384 402 407
f 407 406 384
f 385 386 408
f 408 409 385
f 410 408 386
f 386 411 410
f 412 409 413
f 412 413 414
f 415 416 412
f 414 415 412
f 409 408 417
f 418 413 409
f 409 417 418
f 410 417 408
f 413 419 414
f 418 419 413
f 417 410 420
f 420 419 417
f 417 419 418
f 401 421 399
f 399 421 422
f 399 422 423
f 423 398 399
f 424 400 421
f 421 400 425
f 421 401 424
f 426 422 421
f 421 425 426
f 400 424 402
f 395 425 400
f 396 395 400
f 404 424 401
f 406 402 424
f 424 404 406
f 402 406 407
f 427 428 416
f 416 429 427
f 415 429 416
f 430 411 428
f 428 427 430
f 430 410 411
f 410 430 431
f 431 432 410
f 410 432 420
f 433 434 435
f 423 434 433
f 435 392 433
f 433 392 391
f 433 398 423
f 391 398 433
f 436 434 437
f 435 434 436
f 436 392 435
f 394 392 436
f 437 395 436
f 436 395 394
f 434 422 426
f 423 422 434
f 426 425 434
f 434 425 437
f 425 395 437
f 438 427 429
f 415 438 429
f 439 430 427
f 438 439 427
f 430 439 431
f 440 441 419
f 419 441 414
f 419 432 440
f 420 432 419
f 440 438 441
f 441 438 415
f 441 415 414
f 432 439 440
f 431 439 432
f 206 190 187
f 245 233 231
f 112 108 158
f 207 189 188
f 210 209 273
f 210 212 206
f 439 438 440
f 195 233 194
f 442 443 444
f 445 443 442
f 442 444 446
f 442 446 445
f 447 448 449
f 449 448 445
f 449 446 450
f 445 446 449
f 450 447 449
f 443 451 452
f 453 451 443
f 454 444 443
f 443 452 454
f 445 453 443
f 455 456 448
f 448 456 453
f 448 447 455
f 448 453 445
f 457 452 451
f 453 457 451
f 455 457 456
f 456 457 453
f 458 459 460
f 461 459 458
f 460 462 458
f 458 462 463
f 458 463 461
f 459 464 465
f 461 464 459
f 465 460 459
f 466 465 464
f 464 461 467
f 464 467 466
f 462 460 468
f 462 468 469
f 469 463 462
f 460 465 470
f 471 468 460
f 460 470 471
f 472 470 465
f 465 466 472
f 473 469 468
f 474 473 468
f 471 474 468
f 472 474 470
f 470 474 471
f 475 446 444
f 444 476 475
f 454 476 444
f 446 475 477
f 446 477 450
f 478 455 447
f 447 477 479
f 450 477 447
f 447 479 478
f 452 457 480
f 480 481 452
f 452 481 482
f 482 454 452
f 457 455 483
f 483 480 457
f 484 483 455
f 455 478 484
f 481 480 485
f 485 486 481
f 481 486 487
f 487 482 481
f 480 483 488
f 488 485 480
f 484 488 483
f 486 485 489
f 489 487 486
f 485 488 490
f 490 489 485
f 488 484 491
f 491 490 488
f 492 493 494
f 461 463 495
f 495 463 496
f 495 496 497
f 492 467 493
f 463 469 496
f 498 466 467
f 467 492 498
f 469 473 499
f 499 496 469
f 500 472 466
f 466 498 501
f 501 500 466
f 473 474 502
f 502 499 473
f 474 472 500
f 503 502 474
f 474 500 503
f 454 475 476
f 504 477 475
f 475 454 504
f 477 504 479
f 482 504 454
f 505 479 504
f 504 482 505
f 479 505 478
f 506 505 482
f 482 487 507
f 482 507 506
f 508 478 505
f 505 506 508
f 508 484 478
f 487 489 509
f 509 507 487
f 510 491 484
f 484 508 510
f 489 490 511
f 512 509 489
f 490 491 513
f 513 511 490
f 514 513 491
f 491 510 514
f 513 514 515
f 499 516 496
f 496 516 517
f 496 517 497
f 518 498 516
f 516 498 519
f 516 499 518
f 519 517 516
f 498 518 501
f 520 519 498
f 502 518 499
f 518 502 503
f 503 500 518
f 518 500 501
f 509 506 507
f 521 508 506
f 506 509 521
f 508 521 510
f 512 521 509
f 522 510 521
f 521 512 522
f 510 522 514
f 523 522 512
f 512 524 523
f 525 514 522
f 522 523 525
f 514 525 515
f 517 519 526
f 519 520 527
f 527 526 519
f 528 527 520
f 529 523 524
f 524 530 529
f 531 525 523
f 529 531 523
f 525 531 532
f 525 532 533
f 533 515 525
f 526 527 534
f 534 535 526
f 526 535 536
f 536 537 526
f 527 528 538
f 538 534 527
f 539 538 528
f 535 534 540
f 540 541 535
f 535 541 542
f 543 536 535
f 535 542 543
f 534 538 544
f 544 540 534
f 545 544 538
f 538 539 546
f 538 546 545
f 541 540 542
f 540 544 547
f 547 542 540
f 545 547 544
f 548 549 550
f 551 549 548
f 550 552 548
f 548 552 553
f 548 553 551
f 549 554 555
f 556 554 549
f 555 550 549
f 549 551 556
f 556 555 554
f 552 550 529
f 552 530 557
f 529 530 552
f 557 553 552
f 550 555 531
f 550 531 529
f 558 531 555
f 555 556 558
f 559 557 530
f 558 560 531
f 531 560 561
f 561 532 531
f 562 563 536
f 536 564 565
f 543 564 536
f 536 565 562
f 566 539 563
f 563 567 566
f 562 567 563
f 566 546 539
f 564 542 568
f 543 542 564
f 569 565 564
f 564 568 569
f 570 545 546
f 546 566 571
f 571 570 546
f 542 547 568
f 547 545 572
f 572 568 547
f 570 572 545
f 573 574 575
f 576 574 573
f 575 577 573
f 573 577 578
f 573 578 576
f 574 579 580
f 576 579 574
f 580 575 574
f 581 580 579
f 579 576 582
f 579 582 581
f 577 575 583
f 583 584 577
f 577 584 585
f 585 578 577
f 575 580 586
f 586 583 575
f 581 586 580
f 584 583 587
f 587 585 584
f 583 586 588
f 588 587 583
f 586 581 589
f 589 588 586
f 590 591 592
f 593 591 590
f 592 594 590
f 590 594 595
f 590 595 596
f 596 593 590
f 591 597 598
f 599 597 591
f 598 592 591
f 593 599 591
f 600 598 597
f 597 599 600
f 594 592 551
f 551 553 594
f 594 553 595
f 592 598 556
f 556 551 592
f 601 556 598
f 598 600 601
f 602 603 553
f 553 603 595
f 557 602 553
f 556 601 604
f 556 604 558
f 605 567 565
f 565 567 562
f 569 605 565
f 606 566 567
f 567 605 607
f 607 606 567
f 566 606 571
f 568 572 608
f 608 609 568
f 568 609 610
f 610 569 568
f 572 570 611
f 611 608 572
f 612 611 570
f 570 571 612
f 609 608 576
f 576 578 609
f 609 578 613
f 613 614 609
f 609 614 610
f 608 611 582
f 582 576 608
f 615 582 611
f 611 616 615
f 612 616 611
f 578 585 613
f 615 581 582
f 585 587 617
f 617 613 585
f 618 589 581
f 581 615 618
f 587 588 619
f 619 617 587
f 588 589 620
f 620 619 588
f 589 618 621
f 621 620 589
f 622 600 599
f 599 623 622
f 593 623 599
f 624 601 600
f 600 622 624
f 602 625 603
f 603 625 626
f 603 626 595
f 625 601 627
f 628 601 625
f 625 602 628
f 629 626 625
f 625 627 629
f 628 604 601
f 624 627 601
f 602 630 631
f 557 630 602
f 602 631 628
f 604 631 632
f 628 631 604
f 604 632 558
f 633 631 630
f 634 633 630
f 630 557 559
f 635 632 631
f 631 633 635
f 632 635 636
f 632 636 637
f 638 558 632
f 632 637 638
f 614 613 639
f 614 640 610
f 641 640 614
f 614 639 642
f 614 642 641
f 643 615 616
f 616 644 645
f 612 644 616
f 645 643 616
f 617 646 613
f 613 646 639
f 647 615 646
f 646 615 643
f 646 617 647
f 646 648 639
f 643 648 646
f 615 647 618
f 619 647 617
f 620 618 647
f 647 619 620
f 618 620 621
f 649 623 650
f 650 623 593
f 651 649 650
f 596 595 650
f 650 595 651
f 650 593 596
f 649 622 623
f 622 649 624
f 649 626 629
f 651 626 649
f 629 627 649
f 649 627 624
f 651 595 626
f 652 633 634
f 653 633 652
f 652 654 653
f 636 635 655
f 655 635 653
f 655 656 657
f 658 656 655
f 659 660 655
f 655 660 636
f 655 657 659
f 653 658 655
f 605 661 662
f 569 661 605
f 605 662 663
f 605 663 664
f 606 665 571
f 666 665 606
f 640 667 661
f 661 667 668
f 610 640 661
f 668 669 661
f 661 669 662
f 661 569 610
f 670 665 667
f 667 665 671
f 667 640 670
f 671 668 667
f 665 670 644
f 665 644 612
f 665 672 671
f 666 672 665
f 612 571 665
f 673 670 640
f 641 674 640
f 640 674 673
f 675 644 670
f 673 675 670
f 644 675 676
f 644 676 677
f 677 645 644
f 678 679 680
f 681 679 678
f 678 680 682
f 642 639 678
f 678 639 681
f 682 642 678
f 683 684 685
f 677 684 683
f 683 648 643
f 681 648 683
f 683 685 686
f 683 643 645
f 683 645 677
f 686 681 683
f 669 668 687
f 669 687 662
f 668 672 688
f 671 672 668
f 689 687 668
f 688 689 668
f 672 690 688
f 691 690 672
f 692 675 674
f 674 675 673
f 674 693 692
f 694 693 674
f 674 682 694
f 641 682 674
f 692 676 675
f 695 684 676
f 676 684 677
f 676 692 695
f 696 693 697
f 697 693 694
f 697 698 699
f 680 698 697
f 697 699 696
f 694 680 697
f 700 701 702
f 703 701 700
f 704 705 700
f 700 705 703
f 702 704 700
f 684 695 706
f 706 685 684
f 707 701 708
f 708 701 703
f 708 709 710
f 703 709 708
f 708 710 707
f 681 639 648
f 711 712 701
f 701 712 702
f 707 711 701
f 679 698 680
f 713 698 679
f 685 714 679
f 679 714 713
f 686 685 679
f 679 681 686
f 715 712 716
f 702 712 715
f 716 704 715
f 715 704 702
f 712 711 717
f 717 716 712
f 711 710 718
f 707 710 711
f 718 717 711
f 719 720 721
f 721 687 719
f 662 687 721
f 722 662 721
f 723 722 721
f 724 725 720
f 720 719 726
f 720 726 724
f 727 690 725
f 725 690 691
f 725 728 727
f 724 728 725
f 687 689 692
f 692 693 687
f 687 693 696
f 729 719 687
f 696 729 687
f 689 690 695
f 688 690 689
f 695 692 689
f 730 695 690
f 690 731 730
f 727 731 690
f 732 706 695
f 695 730 732
f 705 704 733
f 705 733 734
f 705 735 703
f 734 735 705
f 736 737 738
f 739 737 736
f 740 710 709
f 709 741 740
f 734 741 709
f 703 735 709
f 709 735 734
f 704 716 742
f 742 733 704
f 743 718 710
f 710 740 743
f 716 717 744
f 744 745 716
f 716 745 746
f 746 742 716
f 717 718 747
f 747 744 717
f 743 747 718
f 745 744 748
f 748 749 745
f 745 749 750
f 750 746 745
f 744 747 751
f 751 748 744
f 752 751 747
f 747 743 752
f 749 748 658
f 658 654 749
f 748 751 658
f 751 753 754
f 755 753 751
f 751 656 658
f 754 656 751
f 751 752 755
f 756 757 758
f 759 726 719
f 719 729 760
f 719 760 759
f 761 728 726
f 726 728 724
f 726 759 761
f 762 731 728
f 728 731 727
f 761 762 728
f 696 763 729
f 729 763 764
f 764 760 729
f 731 765 730
f 766 765 731
f 731 762 766
f 767 768 698
f 698 768 769
f 713 767 698
f 769 699 698
f 714 767 713
f 770 767 714
f 714 771 772
f 706 771 714
f 714 772 773
f 714 773 770
f 714 685 706
f 768 767 774
f 774 775 768
f 768 775 776
f 776 769 768
f 777 774 767
f 770 777 767
f 775 774 778
f 778 776 775
f 774 777 779
f 779 778 774
f 777 773 780
f 770 773 777
f 780 779 777
f 733 742 781
f 733 781 734
f 741 781 740
f 734 781 741
f 746 781 742
f 743 740 781
f 781 746 782
f 782 743 781
f 746 783 784
f 785 783 746
f 746 784 782
f 750 785 746
f 743 784 786
f 782 784 743
f 743 786 787
f 743 787 752
f 699 788 763
f 763 788 789
f 696 699 763
f 763 789 764
f 790 765 788
f 788 765 791
f 788 699 790
f 791 789 788
f 765 790 771
f 765 771 732
f 792 791 765
f 766 792 765
f 732 730 765
f 769 790 699
f 793 771 790
f 790 769 793
f 771 793 772
f 771 706 732
f 794 793 769
f 769 776 795
f 769 795 794
f 796 772 793
f 793 794 796
f 796 773 772
f 776 778 797
f 797 795 776
f 798 780 773
f 773 796 798
f 778 779 799
f 799 797 778
f 779 780 800
f 800 799 779
f 780 798 801
f 801 800 780
f 785 784 783
f 787 786 784
f 784 785 787
f 802 787 785
f 785 803 802
f 750 803 785
f 787 802 804
f 787 804 752
f 805 802 803
f 806 805 803
f 807 804 802
f 802 805 807
f 804 807 739
f 739 753 804
f 804 753 755
f 755 752 804
f 759 760 808
f 808 760 809
f 810 809 760
f 764 810 760
f 759 762 761
f 762 811 812
f 762 812 766
f 789 791 813
f 813 810 789
f 789 810 764
f 791 792 814
f 815 813 791
f 791 814 815
f 792 812 814
f 766 812 792
f 797 794 795
f 816 796 794
f 794 797 816
f 796 816 798
f 799 816 797
f 800 798 816
f 816 799 800
f 798 800 801
f 817 818 819
f 820 821 819
f 737 807 805
f 805 822 823
f 806 822 805
f 805 823 737
f 807 737 739
f 810 824 809
f 809 824 825
f 826 811 824
f 824 811 827
f 824 810 826
f 827 825 824
f 811 826 812
f 828 827 811
f 813 826 810
f 814 812 826
f 826 813 815
f 815 814 826
f 829 830 831
f 832 830 829
f 831 833 829
f 829 833 834
f 829 834 832
f 830 835 836
f 832 835 830
f 836 831 830
f 837 836 835
f 835 832 838
f 835 838 837
f 833 831 823
f 823 822 833
f 833 822 839
f 839 834 833
f 831 836 737
f 737 823 831
f 837 737 836
f 840 839 822
f 737 837 841
f 737 841 738
f 825 827 842
f 825 842 843
f 827 828 844
f 844 842 827
f 845 844 828
f 846 847 848
f 848 847 849
f 848 850 846
f 849 850 848
f 851 850 852
f 846 850 851
f 852 853 851
f 851 853 854
f 854 855 851
f 851 855 846
f 832 834 847
f 847 834 856
f 855 832 847
f 847 856 849
f 846 855 847
f 834 839 857
f 834 857 856
f 855 838 832
f 858 837 838
f 854 858 838
f 838 855 854
f 839 840 859
f 859 857 839
f 860 841 837
f 837 858 860
f 840 861 862
f 862 859 840
f 863 841 861
f 861 841 864
f 864 862 861
f 841 863 738
f 841 860 865
f 865 864 841
f 842 844 866
f 866 867 842
f 842 867 868
f 868 869 842
f 842 869 843
f 844 845 870
f 870 866 844
f 871 870 845
f 845 872 873
f 845 873 871
f 867 866 874
f 867 874 875
f 876 868 867
f 875 876 867
f 866 870 877
f 878 874 866
f 866 877 878
f 871 877 870
f 874 879 875
f 878 879 874
f 877 871 880
f 880 879 877
f 877 879 878
f 859 881 857
f 857 881 882
f 857 882 883
f 883 856 857
f 884 858 881
f 881 858 885
f 881 859 884
f 886 882 881
f 881 885 886
f 858 884 860
f 853 885 858
f 854 853 858
f 862 884 859
f 864 860 884
f 884 862 864
f 860 864 865
f 872 887 873
f 888 887 868
f 868 889 888
f 876 889 868
f 890 873 887
f 887 888 890
f 890 871 873
f 871 890 891
f 891 892 871
f 871 892 880
f 893 894 895
f 883 894 893
f 895 850 893
f 893 850 849
f 893 856 883
f 849 856 893
f 896 894 897
f 895 894 896
f 896 850 895
f 852 850 896
f 897 853 896
f 896 853 852
f 894 882 886
f 883 882 894
f 886 885 894
f 894 885 897
f 885 853 897
f 898 888 889
f 876 898 889
f 899 890 888
f 898 899 888
f 890 899 891
f 900 901 879
f 879 901 875
f 879 892 900
f 880 892 879
f 900 898 901
f 901 898 876
f 901 876 875
f 892 899 900
f 891 899 892
f 653 635 633
f 694 682 680
f 560 558 638
f 754 657 656
f 637 636 660
f 654 658 653
f 899 898 900
f 642 682 641
f 902 903 904
f 903 905 904
f 906 905 907
f 905 906 904
f 904 906 908
f 908 909 902
f 904 908 902
f 906 907 910
f 907 911 910
f 907 912 51
f 912 907 905
f 912 905 903
f 907 51 913
f 914 911 907
f 907 915 914
f 907 913 915
f 916 917 918
f 918 917 919
f 920 921 909
f 921 920 918
f 918 922 923
f 923 924 916
f 918 923 916
f 920 922 918
f 918 919 921
f 921 925 902
f 925 903 902
f 925 921 919
f 925 919 917
f 902 909 921
f 912 926 20
f 20 51 912
f 912 903 926
f 51 22 927
f 51 928 929
f 51 929 930
f 51 930 913
f 51 927 931
f 51 931 928
f 932 925 933
f 925 917 933
f 925 932 934
f 925 934 903
f 933 26 932
f 932 26 935
f 26 20 935
f 20 926 935
f 934 932 935
f 926 903 934
f 935 926 934
f 936 26 933
f 936 933 937
f 22 28 927
f 936 938 52
f 52 26 936
f 28 939 927
f 28 53 939
f 940 941 49
f 49 50 940
f 49 942 65
f 942 49 941
f 943 940 50
f 50 68 943
f 944 945 66
f 66 65 944
f 946 66 947
f 947 66 945
f 947 915 946
f 915 913 946
f 914 915 947
f 946 948 69
f 69 66 946
f 942 949 65
f 944 65 950
f 65 949 951
f 950 65 952
f 65 951 952
f 79 943 68
f 953 954 955
f 943 79 953
f 79 954 953
f 956 954 79
f 957 69 948
f 958 959 960
f 961 960 959
f 69 957 960
f 962 69 961
f 69 960 961
f 938 963 73
f 73 52 938
f 964 965 966
f 965 73 967
f 73 963 967
f 965 967 966
f 968 939 53
f 53 71 968
f 968 71 969
f 968 969 970
f 971 969 71
f 71 72 971
f 956 79 972
f 971 72 973
f 973 72 974
f 72 975 974
f 976 975 72
f 72 80 976
f 73 977 81
f 977 73 965
f 978 979 78
f 78 85 978
f 78 979 980
f 980 979 981
f 982 78 980
f 78 972 79
f 972 78 982
f 87 976 80
f 976 87 983
f 984 983 87
f 87 89 984
f 984 89 985
f 89 986 985
f 984 985 987
f 988 989 88
f 88 81 988
f 81 977 990
f 81 990 991
f 988 81 992
f 81 991 992
f 993 986 89
f 89 93 993
f 112 994 85
f 112 995 994
f 978 85 994
f 996 997 998
f 999 1000 1001
f 998 997 1002
f 1003 998 1002
f 999 1001 1003
f 1002 999 1003
f 1001 1004 1003
f 1005 109 1006
f 1006 109 1007
f 109 1008 1007
f 1009 1010 157
f 111 1008 109
f 1008 111 1011
f 1010 1001 1000
f 1000 157 1010
f 1001 1010 1012
f 1004 1001 1012
f 1013 83 1014
f 83 1015 1014
f 1013 1011 111
f 111 83 1013
f 1011 1013 1016
f 1017 1018 1019
f 1018 1020 1019
f 1020 1018 1021
f 1019 1022 1017
f 1022 1023 1017
f 1022 997 1023
f 1020 1021 1024
f 999 1002 1025
f 1026 999 1025
f 999 1026 1000
f 1019 1020 1025
f 1022 1019 1025
f 1025 1002 1022
f 1002 997 1022
f 1020 1024 1025
f 1025 1024 1027
f 1025 1027 1026
f 1024 155 157
f 112 155 1024
f 157 1027 1024
f 157 1000 1026
f 157 1026 1027
f 112 1028 995
f 112 1029 1028
f 112 1024 1029
f 1030 997 996
f 997 1031 1032
f 1023 997 1032
f 114 1033 1032
f 1034 114 1032
f 1035 1018 1017
f 1035 1017 1023
f 1033 1035 1023
f 1032 1033 1023
f 1036 114 1034
f 1037 114 1036
f 1030 1031 997
f 88 1033 114
f 1033 88 989
f 1035 1038 1018
f 989 1035 1033
f 1035 989 1038
f 1037 1039 116
f 116 114 1037
f 1040 1041 1042
f 1043 1040 1042
f 1042 1044 1045
f 1041 117 1042
f 117 1044 1042
f 1041 993 93
f 93 117 1041
f 1046 116 1039
f 1047 1046 1048
f 1046 1039 1048
f 1048 1039 1049
f 1050 1048 1049
f 1051 1044 117
f 117 119 1051
f 155 1052 156
f 159 1052 155
f 115 1053 1054
f 1055 115 1056
f 115 1054 1056
f 116 1053 115
f 1053 116 1046
f 1057 119 1058
f 1051 119 1057
f 119 1059 1058
f 1055 1060 161
f 161 115 1055
f 1061 1062 211
f 211 213 1061
f 1063 211 1064
f 211 1065 1064
f 1063 1066 191
f 191 211 1063
f 211 1062 1067
f 1067 1062 1068
f 1065 211 1067
f 1069 1070 1071
f 1072 1073 1074
f 1073 1072 1075
f 1073 1070 1069
f 1073 1069 1074
f 1076 1077 1078
f 1077 207 1078
f 207 1079 1078
f 1080 156 1081
f 1080 1081 1082
f 1083 188 1084
f 1085 188 1083
f 188 1086 1084
f 1075 1081 156
f 1081 1075 1087
f 1075 1072 1087
f 188 1079 207
f 1079 188 1085
f 1088 1089 1090
f 1089 1091 1090
f 1089 1088 1092
f 1089 1070 1091
f 1093 1094 1088
f 1090 1093 1088
f 1093 1052 1094
f 1073 1075 1095
f 1075 1096 1095
f 1091 1073 1095
f 1091 1070 1073
f 1095 1090 1091
f 1093 1097 1052
f 1097 1093 1095
f 1095 1098 1097
f 1095 1096 1099
f 1095 1099 1098
f 1095 1093 1090
f 156 1096 1075
f 156 1098 1099
f 156 1099 1096
f 156 1052 1097
f 156 1097 1098
f 159 1100 1101
f 159 1101 1052
f 1102 1070 1103
f 1060 1104 161
f 1104 1060 1105
f 1102 1071 1070
f 161 1106 160
f 1106 161 1107
f 161 1104 1107
f 1108 1103 1070
f 1103 1108 1107
f 1107 1108 1106
f 1108 1070 1089
f 1109 1089 1092
f 1089 1109 1108
f 1109 1106 1108
f 1109 160 1106
f 1110 218 1111
f 1110 1111 1112
f 1110 1112 1113
f 1110 1059 119
f 119 218 1110
f 160 1114 216
f 1114 160 1115
f 1115 160 1116
f 160 1109 1116
f 1117 1111 218
f 218 220 1117
f 208 1077 1118
f 208 207 1077
f 1119 1120 1118
f 1120 208 1118
f 1121 208 1120
f 1121 1120 1122
f 1123 287 1124
f 1123 1124 1125
f 1126 1124 287
f 287 216 1126
f 1124 1126 1127
f 1126 216 1128
f 216 1114 1128
f 1126 1128 1129
f 220 1130 1131
f 220 238 1130
f 1117 220 1131
f 1132 1133 272
f 272 273 1132
f 276 1133 1134
f 276 272 1133
f 1135 276 1134
f 1136 1137 1138
f 1139 1136 1138
f 1140 1141 1139
f 1138 1140 1139
f 1142 1141 1140
f 1132 273 1143
f 1132 1143 1144
f 1144 1143 1145
f 1136 1146 1147
f 1136 1147 1137
f 1148 1143 273
f 273 209 1148
f 1148 209 1149
f 209 1150 1149
f 1151 1152 1153
f 1153 1154 1151
f 1154 1153 1155
f 1151 1141 1152
f 1155 1156 1154
f 1156 1155 1157
f 1156 1157 1158
f 1156 1158 1159
f 1158 1160 1159
f 1139 1161 1136
f 1161 1139 1159
f 1139 1141 1151
f 1159 1139 1151
f 1151 1154 1159
f 1154 1156 1159
f 1159 1162 1161
f 1159 1163 1162
f 1159 1160 1163
f 310 309 1158
f 309 1160 1158
f 309 1136 1161
f 309 1161 1162
f 309 1163 1160
f 309 1162 1163
f 307 310 1158
f 307 1158 1164
f 307 1164 1165
f 1166 287 1167
f 287 1123 1167
f 1168 1169 1141
f 1170 283 1171
f 1171 283 1172
f 1168 1141 1142
f 282 1172 283
f 1172 282 1173
f 1173 282 1174
f 1169 1175 1141
f 1175 1169 1173
f 1173 1174 1175
f 1174 1176 1153
f 1153 1175 1174
f 1175 1153 1152
f 1175 1152 1141
f 1174 282 1176
f 1177 1178 278
f 1178 1177 1179
f 1179 1177 1180
f 278 1181 1182
f 278 275 1181
f 1177 278 1182
f 278 1183 1184
f 1185 278 1184
f 1183 278 1186
f 278 1178 1186
f 278 1187 279
f 1187 278 1185
f 1188 283 1189
f 1189 283 1190
f 1190 283 1191
f 283 1170 1191
f 238 1192 1193
f 1194 238 1195
f 238 1193 1195
f 1130 238 1194
f 1130 1194 1196
f 1130 1196 1197
f 1188 1198 284
f 284 283 1188
f 1166 1176 282
f 282 287 1166
f 1199 1192 238
f 238 288 1199
f 1200 1201 1202
f 1200 1202 1203
f 1204 365 1200
f 365 1201 1200
f 1205 1206 1207
f 1207 1206 1208
f 1206 365 1208
f 365 1204 1208
f 1209 1146 1136
f 1136 309 1209
f 1210 1209 309
f 1209 1210 1211
f 276 1135 1212
f 276 1212 1213
f 1214 1211 1210
f 1211 1214 1215
f 311 1216 309
f 309 1216 1210
f 306 1217 310
f 310 1217 311
f 313 1198 1218
f 313 284 1198
f 1219 313 1218
f 1199 288 1220
f 288 1221 1220
f 1199 1220 1222
f 1220 1221 1223
f 1223 1221 1224
f 1225 313 1219
f 1225 1219 1226
f 1227 1225 1228
f 1225 1226 1228
f 1229 1221 288
f 288 316 1229
f 1230 1231 355
f 355 357 1230
f 306 355 1232
f 306 1233 1234
f 306 1232 1233
f 1232 355 1231
f 1235 1236 1237
f 1238 1239 1240
f 1239 1238 1216
f 1239 1237 1236
f 1239 1236 1240
f 1238 1214 1210
f 1210 1216 1238
f 1214 1238 1241
f 276 1181 275
f 1181 276 1213
f 1242 1243 1244
f 1243 1245 1244
f 1243 1242 1246
f 1243 1237 1245
f 1244 1217 1242
f 1216 1247 1248
f 1239 1216 1248
f 1244 1249 1217
f 1249 1244 1248
f 1245 1237 1239
f 1245 1239 1248
f 1248 1250 1249
f 1248 1251 1250
f 1248 1244 1245
f 1247 1251 1248
f 306 1234 1252
f 306 1252 1217
f 311 1247 1216
f 311 1250 1251
f 311 1251 1247
f 311 1217 1249
f 311 1249 1250
f 1253 313 1254
f 1235 1237 1255
f 1225 1254 313
f 1254 1225 1256
f 1257 1243 1258
f 1243 1246 1258
f 1243 1257 1259
f 1243 1259 1237
f 1258 314 1257
f 1257 314 1260
f 314 1253 1260
f 314 313 1253
f 1259 1257 1260
f 1260 1255 1259
f 1255 1237 1259
f 1258 1261 358
f 358 314 1258
f 1262 358 1261
f 1262 1261 1263
f 361 1264 1265
f 1266 361 1265
f 1266 1229 316
f 316 361 1266
f 1005 1086 188
f 188 109 1005
f 1086 1005 1267
f 1080 1009 157
f 157 156 1080
f 1009 1080 1268
f 1206 1230 357
f 357 365 1206
f 1269 1270 387
f 387 370 1269
f 1270 1269 1271
f 371 1269 370
f 1269 371 1272
f 1273 387 1270
f 1274 1272 371
f 1275 1264 361
f 361 368 1275
f 1275 368 1276
f 1276 368 1277
f 368 1278 1277
f 1279 1278 368
f 368 369 1279
f 1262 1274 371
f 371 358 1262
f 1274 1262 1280
f 1274 1280 1281
f 365 1282 1283
f 365 384 1282
f 1201 365 1283
f 1279 369 1284
f 1279 1284 1285
f 1286 1284 369
f 369 385 1286
f 1287 1282 384
f 384 405 1287
f 279 1288 405
f 1288 279 1289
f 279 1187 1289
f 1290 1187 1291
f 1187 1290 1289
f 1287 405 1292
f 1287 1292 1293
f 1290 1291 1294
f 1288 1292 405
f 1294 1291 1295
f 1296 1295 1291
f 1291 1297 1296
f 1295 1296 1298
f 1299 1297 1291
f 1299 1291 1300
f 1299 1300 1301
f 1299 1301 1302
f 1303 387 1273
f 1303 1273 1304
f 409 1286 385
f 1286 409 1305
f 1306 1305 409
f 409 412 1306
f 416 1306 412
f 416 1307 1306
f 416 1299 1307
f 1299 1308 1307
f 1299 1309 1308
f 1299 1302 1310
f 1299 1310 1309
f 411 1311 1312
f 411 386 1311
f 1313 411 1312
f 1303 1311 386
f 386 387 1303
f 1314 1296 1297
f 1297 1299 1314
f 1314 1315 1296
f 1316 1317 1318
f 1319 1320 1321
f 1319 1316 1318
f 1322 1319 1318
f 1319 1322 1320
f 1323 1324 1318
f 1325 1323 1318
f 1324 1315 1318
f 1318 1315 1322
f 1318 1317 1325
f 1317 1326 1325
f 1322 1314 1327
f 1314 1322 1315
f 1328 1321 1320
f 1327 1328 1320
f 1314 1299 1327
f 1299 1328 1327
f 1320 1322 1327
f 1319 1329 1330
f 1330 1316 1319
f 1316 1330 1331
f 1319 1321 1329
f 1317 1332 1326
f 1331 1317 1316
f 1317 1331 1332
f 1333 1328 1299
f 1299 416 1333
f 1333 1321 1328
f 1334 1329 1321
f 1321 1335 1334
f 1335 1321 1336
f 1335 1336 1337
f 428 1335 1337
f 1336 428 1337
f 1334 1330 1329
f 428 1333 416
f 1333 428 1336
f 1333 1336 1321
f 411 1335 428
f 1335 411 1313
f 1334 1338 1330
f 1313 1334 1335
f 1334 1313 1338
f 69 1015 83
f 1015 69 962
f 1339 213 1340
f 1061 213 1339
f 1340 213 1341
f 307 1165 1342
f 213 307 1341
f 307 1342 1341
f 1100 159 1343
f 1343 159 1344
f 1344 191 1345
f 159 191 1344
f 191 1066 1345
f 1345 1066 1346
f 1121 1150 209
f 209 208 1121
f 495 933 917
f 495 917 916
f 933 495 937
f 493 906 494
f 906 493 908
f 910 494 906
f 493 920 909
f 493 909 908
f 947 910 911
f 947 494 910
f 947 911 914
f 494 947 492
f 461 916 924
f 923 461 924
f 461 495 916
f 495 967 963
f 495 497 967
f 495 936 937
f 495 938 936
f 495 963 938
f 467 920 493
f 920 467 922
f 923 922 467
f 467 461 923
f 489 931 927
f 489 927 939
f 489 511 931
f 968 970 512
f 512 489 939
f 512 939 968
f 511 929 928
f 511 928 931
f 512 970 969
f 512 969 971
f 512 971 973
f 511 946 913
f 511 913 930
f 511 513 946
f 929 511 930
f 513 948 946
f 513 960 957
f 513 957 948
f 958 960 513
f 513 515 958
f 966 967 497
f 492 947 945
f 492 945 944
f 492 944 950
f 517 965 964
f 517 990 977
f 517 977 965
f 964 966 497
f 497 517 964
f 498 953 520
f 492 941 940
f 492 940 498
f 498 940 943
f 498 943 953
f 492 942 941
f 492 951 949
f 492 949 942
f 955 520 953
f 951 492 952
f 952 492 950
f 512 974 524
f 974 512 973
f 532 1014 1015
f 532 962 961
f 532 1015 962
f 961 959 533
f 533 532 961
f 533 958 515
f 958 533 959
f 991 990 517
f 517 526 991
f 520 980 528
f 520 955 954
f 520 954 956
f 520 956 972
f 520 972 982
f 520 982 980
f 524 985 530
f 985 524 987
f 524 974 984
f 984 974 983
f 987 524 984
f 974 975 983
f 983 975 976
f 992 991 526
f 526 537 992
f 539 981 979
f 539 528 981
f 539 979 978
f 539 978 994
f 981 528 980
f 1042 559 1043
f 559 530 1043
f 1050 818 1048
f 1049 1347 1050
f 1043 530 1040
f 1347 818 1050
f 1036 1347 1037
f 530 985 986
f 530 986 993
f 530 993 1041
f 530 1041 1040
f 1037 1347 1039
f 1347 1049 1039
f 989 537 1038
f 537 989 988
f 537 988 992
f 1032 819 818
f 820 819 1032
f 1032 818 1347
f 820 998 1003
f 820 1030 996
f 820 996 998
f 820 1031 1030
f 820 1032 1031
f 1347 1036 1034
f 1347 1034 1032
f 820 1009 1268
f 820 1012 1010
f 820 1010 1009
f 1006 1007 560
f 1003 1012 820
f 1012 1003 1004
f 561 1007 1008
f 561 560 1007
f 561 1008 1011
f 561 1011 1016
f 561 1014 532
f 561 1016 1013
f 561 1013 1014
f 537 536 1021
f 1018 537 1021
f 1038 537 1018
f 1028 1029 563
f 563 1021 536
f 1021 563 1024
f 563 1029 1024
f 539 1028 563
f 539 994 995
f 539 995 1028
f 821 1082 1081
f 821 1081 1087
f 1083 1084 637
f 820 1082 821
f 820 1268 1080
f 820 1080 1082
f 638 1006 560
f 638 1267 1005
f 638 1005 1006
f 638 1084 1086
f 638 637 1084
f 638 1086 1267
f 817 1047 818
f 630 1045 1044
f 1047 817 1046
f 630 1044 1051
f 630 1051 1057
f 1046 817 1053
f 817 1054 1053
f 1045 630 1042
f 630 559 1042
f 1048 818 1047
f 630 1058 634
f 1056 1054 817
f 1058 630 1057
f 652 1112 1111
f 652 1111 1117
f 652 1117 1131
f 1113 1112 652
f 652 634 1113
f 652 1196 654
f 1196 652 1197
f 652 1131 1130
f 652 1130 1197
f 1088 664 1092
f 1092 664 1109
f 663 1128 1114
f 663 1114 1115
f 663 1115 1116
f 1107 819 821
f 817 819 1107
f 821 1103 1107
f 821 1074 1069
f 821 1069 1071
f 821 1071 1102
f 821 1102 1103
f 817 1107 1104
f 817 1104 1105
f 1116 1109 664
f 664 663 1116
f 1087 1072 1074
f 1074 821 1087
f 637 1078 1079
f 637 660 1078
f 637 1079 1085
f 637 1085 1083
f 1078 660 1076
f 1052 607 1094
f 607 605 1094
f 1101 607 1052
f 664 1094 605
f 1094 664 1088
f 607 1343 606
f 1343 607 1100
f 1100 607 1101
f 1344 606 1343
f 1346 606 1345
f 666 1346 1066
f 666 606 1346
f 666 1063 1064
f 666 1066 1063
f 1345 606 1344
f 722 1129 662
f 722 1127 1126
f 722 1126 1129
f 1129 1128 663
f 663 662 1129
f 722 1125 1124
f 722 1124 1127
f 657 1149 1150
f 657 1121 1122
f 657 1150 1121
f 659 1122 1120
f 659 657 1122
f 659 1120 1119
f 1118 659 1119
f 1067 1068 691
f 691 672 1067
f 672 1064 1065
f 672 666 1064
f 672 1065 1067
f 1222 1220 750
f 750 749 1222
f 749 1193 1192
f 749 1192 1199
f 749 1199 1222
f 1190 1348 1189
f 1348 1218 1198
f 1348 756 1218
f 1348 1188 1189
f 1348 1198 1188
f 1349 1218 756
f 1349 1226 1219
f 1349 1219 1218
f 750 1223 803
f 1223 750 1220
f 1224 803 1223
f 1227 1228 1350
f 1228 1226 1349
f 1349 1350 1228
f 723 1155 1153
f 723 1153 1176
f 1173 756 1348
f 756 1140 1138
f 756 1142 1140
f 756 1168 1142
f 756 1169 1168
f 756 1173 1169
f 1348 1171 1172
f 1348 1172 1173
f 723 1167 722
f 723 1176 1166
f 723 1166 1167
f 722 1167 1123
f 722 1123 1125
f 757 1147 1146
f 757 1146 1209
f 1138 1147 757
f 1147 1138 1137
f 1144 1145 754
f 754 1149 657
f 754 1145 1143
f 754 1143 1148
f 754 1148 1149
f 720 1157 721
f 1157 720 1158
f 720 1164 1158
f 1155 723 1157
f 723 721 1157
f 725 1164 720
f 1164 725 1165
f 1165 725 1342
f 1342 725 1341
f 806 1265 1264
f 806 803 1265
f 1275 1276 1264
f 1276 806 1264
f 1227 1350 1225
f 803 1224 1221
f 803 1221 1229
f 803 1229 1266
f 803 1266 1265
f 1225 1350 1256
f 1350 1260 1253
f 1350 1254 1256
f 1350 1253 1254
f 822 1277 1278
f 822 1278 1279
f 822 1279 1285
f 806 1277 822
f 1277 806 1276
f 1339 1340 725
f 725 1068 1062
f 725 691 1068
f 725 1062 1061
f 725 1061 1339
f 1340 1341 725
f 736 1184 1183
f 736 1183 1186
f 736 1186 1178
f 736 1178 1179
f 736 1187 1185
f 736 738 1187
f 736 1185 1184
f 736 1180 739
f 1180 736 1179
f 1193 749 1195
f 1191 1348 1190
f 749 654 1195
f 1138 757 756
f 756 1260 1349
f 758 1260 756
f 1351 1209 1211
f 1351 757 1209
f 1351 1211 1215
f 1351 1240 757
f 757 1240 758
f 753 1212 1135
f 753 1135 1134
f 1351 1215 1214
f 1351 1214 1241
f 754 1134 1133
f 754 753 1134
f 754 1132 1144
f 754 1133 1132
f 808 1258 1246
f 808 1246 1242
f 808 1263 1261
f 808 1261 1258
f 758 1255 1260
f 758 1236 1235
f 758 1235 1255
f 758 1240 1236
f 1260 1350 1349
f 739 1212 753
f 739 1182 1181
f 739 1181 1213
f 739 1213 1212
f 739 1180 1177
f 739 1177 1182
f 1351 1238 1240
f 1238 1351 1241
f 1217 759 1242
f 759 808 1242
f 1252 759 1217
f 808 1280 1262
f 808 809 1280
f 808 1262 1263
f 1232 762 1233
f 1233 762 1234
f 762 1252 1234
f 762 759 1252
f 811 1232 1231
f 811 762 1232
f 811 1206 1205
f 811 1231 1230
f 811 1230 1206
f 1207 811 1205
f 825 1269 1272
f 825 1272 1274
f 825 1274 1281
f 843 1269 825
f 1269 843 1271
f 843 1304 1273
f 843 1270 1271
f 843 1273 1270
f 1202 828 1203
f 1203 828 1200
f 1281 1280 809
f 809 825 1281
f 811 1200 828
f 811 1208 1204
f 811 1204 1200
f 1207 1208 811
f 822 1306 840
f 822 1286 1305
f 822 1305 1306
f 822 1285 1284
f 822 1284 1286
f 828 1283 845
f 828 1202 1201
f 828 1201 1283
f 840 1308 861
f 840 1307 1308
f 840 1306 1307
f 1308 1309 863
f 863 861 1308
f 1310 863 1309
f 863 1300 738
f 1300 863 1301
f 863 1310 1302
f 863 1302 1301
f 738 1300 1291
f 738 1291 1187
f 1313 1312 869
f 843 1312 1311
f 843 869 1312
f 843 1303 1304
f 843 1311 1303
f 1352 1294 1295
f 1352 1289 1290
f 1352 1290 1294
f 1352 1295 1298
f 1296 1352 1298
f 1289 1352 872
f 872 1288 1289
f 872 1293 1292
f 872 1292 1288
f 872 845 1282
f 872 1282 1287
f 872 1287 1293
f 1282 845 1283
f 1338 1313 869
f 1352 1296 1315
f 1352 1315 1324
f 869 1331 1330
f 869 1330 1338
f 1324 1323 872
f 872 1352 1324
f 869 868 1332
f 1331 869 1332
f 1323 1325 887
f 887 872 1323
f 887 1332 868
f 1332 887 1326
f 887 1325 1326
f 660 1118 1077
f 660 659 1118
f 660 1077 1076
f 1055 817 1060
f 1056 817 1055
f 634 1058 1059
f 634 1059 1110
f 634 1110 1113
f 1060 817 1105
f 654 1196 1194
f 654 1194 1195
f 1171 1348 1170
f 1348 1191 1170
